<svg width="320" height="97" viewBox="0 0 320 97" fill="none" xmlns="http://www.w3.org/2000/svg">
<rect x="0.5" y="0.5" width="319" height="96" rx="7.5" stroke="#70737C" stroke-opacity="0.28"/>
<rect x="16" y="16" width="40" height="20" rx="4" fill="#70737C" fill-opacity="0.22"/>
<path d="M27.6855 25.7227H26.3496C26.2383 24.9902 25.7285 24.5859 24.9844 24.5859C24.0234 24.5859 23.4961 25.2773 23.4961 26.5371V27.0293C23.4961 28.2891 24.0234 28.9805 24.9844 28.9805C25.7344 28.9805 26.2324 28.5938 26.3496 27.8848H27.6855C27.5391 29.3203 26.5605 30.1289 24.9961 30.1289C23.1621 30.1289 22.125 29.0625 22.125 27.1523V26.4141C22.125 24.5098 23.1621 23.4375 24.9961 23.4375C26.5664 23.4375 27.5332 24.252 27.6855 25.7227ZM35.1035 25.7227H33.7676C33.6562 24.9902 33.1465 24.5859 32.4023 24.5859C31.4414 24.5859 30.9141 25.2773 30.9141 26.5371V27.0293C30.9141 28.2891 31.4414 28.9805 32.4023 28.9805C33.1523 28.9805 33.6504 28.5938 33.7676 27.8848H35.1035C34.957 29.3203 33.9785 30.1289 32.4141 30.1289C30.5801 30.1289 29.543 29.0625 29.543 27.1523V26.4141C29.543 24.5098 30.5801 23.4375 32.4141 23.4375C33.9844 23.4375 34.9512 24.252 35.1035 25.7227ZM42.8906 25.125V30H41.7188V25.5586C41.7188 24.9727 41.4668 24.6387 41.0332 24.6387C40.582 24.6387 40.3008 25.0195 40.3008 25.623V30H39.1348V25.5586C39.1348 24.9668 38.8887 24.6387 38.4492 24.6387C37.9922 24.6387 37.6992 25.0195 37.6992 25.623V30H36.5273V23.584H37.7227V24.5449H37.8691C38.0156 23.8477 38.4668 23.4551 39.082 23.4551C39.6797 23.4551 40.0898 23.8359 40.2246 24.5098H40.3711C40.5176 23.8535 40.9922 23.4551 41.6191 23.4551C42.4512 23.4551 42.8906 24.0352 42.8906 25.125ZM47.7188 23.4785C49.1953 23.4785 50.1094 24.5156 50.1094 26.2207V27.3633C50.1094 29.0742 49.1953 30.1113 47.7188 30.1113C46.793 30.1113 46.1367 29.6895 45.8965 28.9512H45.7793V32.1504H44.373V23.584H45.7559V24.6387H45.873C46.1426 23.8887 46.793 23.4785 47.7188 23.4785ZM47.2324 24.6738C46.3184 24.6738 45.75 25.3008 45.75 26.3086V27.3164C45.75 28.3242 46.3184 28.9512 47.2324 28.9512C48.1523 28.9512 48.7207 28.3184 48.7207 27.3164V26.3086C48.7207 25.3008 48.1523 24.6738 47.2324 24.6738Z" fill="white"/>
<rect x="16" y="52" width="288" height="1" fill="#70737C" fill-opacity="0.28"/>
<path d="M23.3281 81.4219C19.6953 81.4297 16.7266 78.4688 16.7344 74.8281C16.7266 71.2031 19.6953 68.2344 23.3281 68.2344C26.9609 68.2344 29.9297 71.2031 29.9375 74.8281C29.9297 78.4688 26.9609 81.4297 23.3281 81.4219ZM23.3281 80.2344C26.2969 80.2344 28.7266 77.7969 28.7344 74.8281C28.7266 71.8672 26.2969 69.4297 23.3281 69.4219C20.3594 69.4297 17.9297 71.8672 17.9375 74.8281C17.9297 77.7969 20.3594 80.2344 23.3281 80.2344ZM34.2188 80.5L30.5938 69.1875H32.0625L35.0781 78.9375H35.125L37.7656 69.1875H39.2344L41.875 78.9375H41.9219L44.9375 69.1875H46.4062L42.7812 80.5H40.9688L38.5312 71.9688H38.4688L36.0312 80.5H34.2188ZM50.5 80.7656C48.8906 80.7656 48.1641 80.0312 48.1719 78.4219V71.2344C48.1641 69.6328 48.8906 68.8984 50.5 68.8906H57.7031C59.2969 68.8984 60.0234 69.6328 60.0312 71.2344V78.4219C60.0234 80.0312 59.2969 80.7656 57.7031 80.7656H50.5ZM57.7031 79.5625C58.625 79.5703 58.8281 79.3672 58.8281 78.4219V71.2344C58.8281 70.2969 58.625 70.1016 57.7031 70.0938H50.5C49.5625 70.1016 49.3594 70.2969 49.3594 71.2344V78.4219C49.3594 79.3672 49.5625 79.5703 50.5 79.5625H57.7031ZM66.3125 80.7188C64.4375 80.7188 63.0625 79.7656 62.25 78.0781L63.4844 77.5156C64.1094 78.8125 65.0469 79.4375 66.3125 79.4375C67.8281 79.4375 68.9375 78.5469 68.9375 77.3125C68.9375 76 67.6875 75.2031 65.625 75.2031H65.25V73.9219H65.625C67.4219 73.9219 68.4844 73.25 68.4844 72.0938C68.4844 71.0156 67.5625 70.25 66.2812 70.25C65.1875 70.25 64.3281 70.8125 63.8125 71.875L62.5781 71.3125C63.3281 69.7656 64.6875 68.9688 66.2812 68.9688C68.3281 68.9688 69.8594 70.2969 69.8594 72.0625C69.8594 73.2969 69.1094 74.1406 67.7188 74.5312V74.5781C69.3672 75.0234 70.3125 76.0156 70.3125 77.4062C70.3125 79.2969 68.5938 80.7188 66.3125 80.7188Z" fill="#B0B0B0" fill-opacity="0.28"/>
<path d="M171.328 81.4219C167.695 81.4297 164.727 78.4688 164.734 74.8281C164.727 71.2031 167.695 68.2344 171.328 68.2344C174.961 68.2344 177.93 71.2031 177.938 74.8281C177.93 78.4688 174.961 81.4297 171.328 81.4219ZM171.328 80.2344C174.297 80.2344 176.727 77.7969 176.734 74.8281C176.727 71.8672 174.297 69.4297 171.328 69.4219C168.359 69.4297 165.93 71.8672 165.938 74.8281C165.93 77.7969 168.359 80.2344 171.328 80.2344ZM169.328 77.8125L167.781 71.875H168.938L169.922 76.0625L170.844 71.875H171.812L172.75 76.0625L173.719 71.875H174.875L173.344 77.8125H172.203L171.344 73.9531L170.469 77.8125H169.328ZM182.406 80.7656C180.797 80.7656 180.07 80.0312 180.078 78.4219V71.2344C180.07 69.6328 180.797 68.8984 182.406 68.8906H189.609C191.203 68.8984 191.93 69.6328 191.938 71.2344V78.4219C191.93 80.0312 191.203 80.7656 189.609 80.7656H182.406ZM189.609 79.5625C190.531 79.5703 190.734 79.3672 190.734 78.4219V71.2344C190.734 70.2969 190.531 70.1016 189.609 70.0938H182.406C181.469 70.1016 181.266 70.2969 181.266 71.2344V78.4219C181.266 79.3672 181.469 79.5703 182.406 79.5625H189.609ZM186.016 77.9219C184.953 77.9219 184.125 77.4375 183.734 76.4375L184.734 76.0938C184.984 76.7031 185.422 76.9844 186 76.9844C186.688 76.9844 187.172 76.5781 187.172 76.0469C187.172 75.4688 186.609 75.125 185.703 75.125H185.5V74.2812H185.703C186.484 74.2812 186.969 74 186.969 73.5C186.969 73.0312 186.562 72.7031 185.984 72.7031C185.453 72.7031 185.078 72.9844 184.891 73.4688L183.891 73.1406C184.25 72.2188 185.031 71.7656 186 71.7656C187.172 71.7656 188.047 72.4375 188.047 73.375C188.047 74.0078 187.648 74.4531 186.938 74.6719V74.7188C187.781 74.9609 188.266 75.4688 188.266 76.1875C188.266 77.1875 187.312 77.9219 186.016 77.9219Z" fill="#3385FF"/>
</svg>
