<svg width="320" height="808" viewBox="0 0 320 808" fill="none" xmlns="http://www.w3.org/2000/svg">
<rect x="0.5" y="0.5" width="319" height="807" rx="7.5" stroke="#70737C" stroke-opacity="0.28"/>
<rect x="16" y="16" width="40" height="20" rx="4" fill="#70737C" fill-opacity="0.22"/>
<path d="M27.6855 25.7227H26.3496C26.2383 24.9902 25.7285 24.5859 24.9844 24.5859C24.0234 24.5859 23.4961 25.2773 23.4961 26.5371V27.0293C23.4961 28.2891 24.0234 28.9805 24.9844 28.9805C25.7344 28.9805 26.2324 28.5938 26.3496 27.8848H27.6855C27.5391 29.3203 26.5605 30.1289 24.9961 30.1289C23.1621 30.1289 22.125 29.0625 22.125 27.1523V26.4141C22.125 24.5098 23.1621 23.4375 24.9961 23.4375C26.5664 23.4375 27.5332 24.252 27.6855 25.7227ZM29.2441 23.584H30.709L32.2617 28.6465H32.3555L33.8906 23.584H35.3379L33.0645 30H31.5293L29.2441 23.584ZM41.3613 25.2715L38.25 27.5684C38.502 28.5059 39 28.998 39.7148 28.998C40.793 28.998 41.373 27.873 41.373 25.7695C41.373 25.5938 41.3672 25.4297 41.3613 25.2715ZM38.0625 26.2734L41.1797 23.9883C40.9277 23.0449 40.4297 22.5469 39.7148 22.5469C38.6309 22.5469 38.0508 23.6719 38.0508 25.7695C38.0508 25.9453 38.0566 26.1152 38.0625 26.2734ZM39.7148 21.3633C41.666 21.3633 42.7617 22.9453 42.7617 25.7695C42.7617 28.5996 41.666 30.1816 39.7148 30.1816C37.7578 30.1816 36.6621 28.5996 36.6621 25.7695C36.6621 22.9453 37.7578 21.3633 39.7148 21.3633ZM48.123 28.8105H50.373V30H44.373V28.8105H46.7344V22.998H46.6348L44.3613 24.4922V23.1152L46.7402 21.5449H48.123V28.8105Z" fill="white"/>
<path d="M72.2344 35.0938C71.7812 35.0938 71.4062 35 71.1094 34.8906V33.6562C71.4531 33.7656 71.7656 33.8125 72.0469 33.8125C72.8906 33.8125 73.2969 33.3906 73.2969 32.5312V23.4375H74.6094V32.5781C74.6094 34.125 73.6875 35.0938 72.2344 35.0938ZM73.9531 21.75C73.4531 21.75 73.0781 21.375 73.0781 20.875C73.0781 20.375 73.4531 20 73.9531 20C74.4531 20 74.8281 20.375 74.8281 20.875C74.8281 21.375 74.4531 21.75 73.9531 21.75Z" fill="#B0B0B0" fill-opacity="0.28"/>
<path d="M189.047 34.875V23.4375H190.359V34.875H189.047ZM189.688 21.75C189.188 21.75 188.812 21.375 188.812 20.875C188.812 20.375 189.188 20 189.688 20C190.188 20 190.562 20.375 190.562 20.875C190.562 21.375 190.188 21.75 189.688 21.75Z" fill="#2288FF"/>
<rect x="16" y="52" width="40" height="20" rx="4" fill="#70737C" fill-opacity="0.22"/>
<path d="M27.6855 61.7227H26.3496C26.2383 60.9902 25.7285 60.5859 24.9844 60.5859C24.0234 60.5859 23.4961 61.2773 23.4961 62.5371V63.0293C23.4961 64.2891 24.0234 64.9805 24.9844 64.9805C25.7344 64.9805 26.2324 64.5938 26.3496 63.8848H27.6855C27.5391 65.3203 26.5605 66.1289 24.9961 66.1289C23.1621 66.1289 22.125 65.0625 22.125 63.1523V62.4141C22.125 60.5098 23.1621 59.4375 24.9961 59.4375C26.5664 59.4375 27.5332 60.252 27.6855 61.7227ZM29.2441 59.584H30.709L32.2617 64.6465H32.3555L33.8906 59.584H35.3379L33.0645 66H31.5293L29.2441 59.584ZM41.3613 61.2715L38.25 63.5684C38.502 64.5059 39 64.998 39.7148 64.998C40.793 64.998 41.373 63.873 41.373 61.7695C41.373 61.5938 41.3672 61.4297 41.3613 61.2715ZM38.0625 62.2734L41.1797 59.9883C40.9277 59.0449 40.4297 58.5469 39.7148 58.5469C38.6309 58.5469 38.0508 59.6719 38.0508 61.7695C38.0508 61.9453 38.0566 62.1152 38.0625 62.2734ZM39.7148 57.3633C41.666 57.3633 42.7617 58.9453 42.7617 61.7695C42.7617 64.5996 41.666 66.1816 39.7148 66.1816C37.7578 66.1816 36.6621 64.5996 36.6621 61.7695C36.6621 58.9453 37.7578 57.3633 39.7148 57.3633ZM44.2266 60.0234C44.2266 58.459 45.4043 57.375 47.0859 57.375C48.7559 57.375 49.8867 58.3535 49.8867 59.7949C49.8867 60.6973 49.4355 61.4531 48.041 62.8652L46.2539 64.6875V64.793H50.0215V66H44.3027V65.0215L47.0977 62.1094C48.2168 60.9316 48.5039 60.4863 48.5039 59.877C48.5039 59.0684 47.9238 58.541 47.0449 58.541C46.1484 58.541 45.5566 59.1328 45.5566 60.0176V60.0586H44.2266V60.0234Z" fill="white"/>
<path d="M72.5469 60.5312V59.4375H73.9219V57.4375H75.2344V59.4375H77.2344V60.5312H75.2344V65.1562C75.2344 66.0312 75.6094 66.4375 76.4219 66.4375C76.6719 66.4375 76.9531 66.3906 77.2344 66.3125V67.5469C76.9844 67.6406 76.6406 67.7188 76.2344 67.7188C74.8125 67.7188 73.9219 66.75 73.9219 65.2031V60.5312H72.5469Z" fill="#B0B0B0" fill-opacity="0.28"/>
<path d="M188.609 60.5312V59.4375H189.984V57.4375H191.297V59.4375H193.172V60.5312H191.297V67.5H189.984V60.5312H188.609Z" fill="#2288FF"/>
<rect x="16" y="88" width="40" height="20" rx="4" fill="#70737C" fill-opacity="0.22"/>
<path d="M27.6855 97.7227H26.3496C26.2383 96.9902 25.7285 96.5859 24.9844 96.5859C24.0234 96.5859 23.4961 97.2773 23.4961 98.5371V99.0293C23.4961 100.289 24.0234 100.98 24.9844 100.98C25.7344 100.98 26.2324 100.594 26.3496 99.8848H27.6855C27.5391 101.32 26.5605 102.129 24.9961 102.129C23.1621 102.129 22.125 101.062 22.125 99.1523V98.4141C22.125 96.5098 23.1621 95.4375 24.9961 95.4375C26.5664 95.4375 27.5332 96.252 27.6855 97.7227ZM29.2441 95.584H30.709L32.2617 100.646H32.3555L33.8906 95.584H35.3379L33.0645 102H31.5293L29.2441 95.584ZM41.3613 97.2715L38.25 99.5684C38.502 100.506 39 100.998 39.7148 100.998C40.793 100.998 41.373 99.873 41.373 97.7695C41.373 97.5938 41.3672 97.4297 41.3613 97.2715ZM38.0625 98.2734L41.1797 95.9883C40.9277 95.0449 40.4297 94.5469 39.7148 94.5469C38.6309 94.5469 38.0508 95.6719 38.0508 97.7695C38.0508 97.9453 38.0566 98.1152 38.0625 98.2734ZM39.7148 93.3633C41.666 93.3633 42.7617 94.9453 42.7617 97.7695C42.7617 100.6 41.666 102.182 39.7148 102.182C37.7578 102.182 36.6621 100.6 36.6621 97.7695C36.6621 94.9453 37.7578 93.3633 39.7148 93.3633ZM46.0957 98.2031V97.1133H47.0566C47.9414 97.1133 48.5391 96.5801 48.5391 95.8008C48.5391 95.0273 47.959 94.5352 47.0742 94.5352C46.1895 94.5352 45.6094 95.0391 45.5449 95.8535H44.25C44.332 94.3184 45.4219 93.375 47.1211 93.375C48.7559 93.375 49.8867 94.2832 49.8867 95.5957C49.8867 96.5977 49.3301 97.3301 48.4102 97.5352V97.6348C49.5469 97.7754 50.2266 98.5371 50.2266 99.6738C50.2266 101.145 48.9609 102.17 47.1504 102.17C45.375 102.17 44.168 101.18 44.0918 99.6504H45.4102C45.4805 100.447 46.1426 100.957 47.1152 100.957C48.1523 100.957 48.8086 100.43 48.8086 99.5977C48.8086 98.748 48.1348 98.2031 47.0859 98.2031H46.0957Z" fill="white"/>
<path d="M76.6406 102.469C78.1719 102.469 79.2656 101.234 79.2656 99.4688C79.2656 97.7031 78.1719 96.4688 76.6406 96.4688C75.0938 96.4688 74.0156 97.7188 74.0156 99.4688C74.0156 101.219 75.0938 102.469 76.6406 102.469ZM80.5156 103.5H79.2031V102.234H79.1562C78.6016 103.195 77.7031 103.719 76.5156 103.719C74.2812 103.719 72.6719 101.891 72.6719 99.4688C72.6719 97.0469 74.2812 95.2188 76.5156 95.2188C77.7031 95.2188 78.6016 95.7422 79.1562 96.7031H79.2031V95.4375H80.5156V103.5Z" fill="#B0B0B0" fill-opacity="0.28"/>
<path d="M191.547 103.719C189.969 103.719 188.797 102.594 188.797 101.156C188.797 99.7188 189.969 98.6406 192.078 98.5312L194.234 98.4062C194.211 97.0938 193.594 96.4688 192.328 96.4688C191.375 96.4688 190.75 96.8125 190.297 97.625L189.125 97C189.797 95.8281 190.875 95.2188 192.328 95.2188C194.391 95.2188 195.578 96.4531 195.578 98.5V103.5H194.234V102.234H194.172C193.625 103.133 192.68 103.719 191.547 103.719ZM190.172 101.156C190.172 101.984 190.797 102.469 191.906 102.469C193.359 102.469 194.234 101.641 194.234 100.344V99.5156L192.078 99.6562C190.797 99.7344 190.172 100.328 190.172 101.156Z" fill="#2288FF"/>
<rect x="16" y="124" width="40" height="20" rx="4" fill="#70737C" fill-opacity="0.22"/>
<path d="M27.6855 133.723H26.3496C26.2383 132.99 25.7285 132.586 24.9844 132.586C24.0234 132.586 23.4961 133.277 23.4961 134.537V135.029C23.4961 136.289 24.0234 136.98 24.9844 136.98C25.7344 136.98 26.2324 136.594 26.3496 135.885H27.6855C27.5391 137.32 26.5605 138.129 24.9961 138.129C23.1621 138.129 22.125 137.062 22.125 135.152V134.414C22.125 132.51 23.1621 131.438 24.9961 131.438C26.5664 131.438 27.5332 132.252 27.6855 133.723ZM29.2441 131.584H30.709L32.2617 136.646H32.3555L33.8906 131.584H35.3379L33.0645 138H31.5293L29.2441 131.584ZM41.3613 133.271L38.25 135.568C38.502 136.506 39 136.998 39.7148 136.998C40.793 136.998 41.373 135.873 41.373 133.77C41.373 133.594 41.3672 133.43 41.3613 133.271ZM38.0625 134.273L41.1797 131.988C40.9277 131.045 40.4297 130.547 39.7148 130.547C38.6309 130.547 38.0508 131.672 38.0508 133.77C38.0508 133.945 38.0566 134.115 38.0625 134.273ZM39.7148 129.363C41.666 129.363 42.7617 130.945 42.7617 133.77C42.7617 136.6 41.666 138.182 39.7148 138.182C37.7578 138.182 36.6621 136.6 36.6621 133.77C36.6621 130.945 37.7578 129.363 39.7148 129.363ZM47.9238 138V136.324H44.1152V135.193L46.8047 129.545H48.2402L45.6152 135.059V135.152H47.959V132.902H49.2246V135.164H50.4316V136.324H49.2363V138H47.9238Z" fill="white"/>
<path d="M79.6094 131.438V139.5H78.2969V138.328H78.25C77.8438 139.188 76.9766 139.719 75.8281 139.719C74.0312 139.719 73.0469 138.453 73.0469 136.375V131.438H74.3594V136.188C74.3594 137.672 74.9844 138.469 76.1094 138.469C77.2344 138.469 78.2969 137.672 78.2969 135.938V131.438H79.6094Z" fill="#B0B0B0" fill-opacity="0.28"/>
<path d="M192.406 139.719C190.391 139.719 189.047 138.281 189.047 136.125V131.438H190.391V136.125C190.391 137.547 191.172 138.438 192.406 138.438C193.641 138.438 194.422 137.547 194.422 136.125V131.438H195.766V136.125C195.766 138.281 194.422 139.719 192.406 139.719Z" fill="#2288FF"/>
<rect x="16" y="160" width="40" height="20" rx="4" fill="#70737C" fill-opacity="0.22"/>
<path d="M27.6855 169.723H26.3496C26.2383 168.99 25.7285 168.586 24.9844 168.586C24.0234 168.586 23.4961 169.277 23.4961 170.537V171.029C23.4961 172.289 24.0234 172.98 24.9844 172.98C25.7344 172.98 26.2324 172.594 26.3496 171.885H27.6855C27.5391 173.32 26.5605 174.129 24.9961 174.129C23.1621 174.129 22.125 173.062 22.125 171.152V170.414C22.125 168.51 23.1621 167.438 24.9961 167.438C26.5664 167.438 27.5332 168.252 27.6855 169.723ZM29.2441 167.584H30.709L32.2617 172.646H32.3555L33.8906 167.584H35.3379L33.0645 174H31.5293L29.2441 167.584ZM41.3613 169.271L38.25 171.568C38.502 172.506 39 172.998 39.7148 172.998C40.793 172.998 41.373 171.873 41.373 169.77C41.373 169.594 41.3672 169.43 41.3613 169.271ZM38.0625 170.273L41.1797 167.988C40.9277 167.045 40.4297 166.547 39.7148 166.547C38.6309 166.547 38.0508 167.672 38.0508 169.77C38.0508 169.945 38.0566 170.115 38.0625 170.273ZM39.7148 165.363C41.666 165.363 42.7617 166.945 42.7617 169.77C42.7617 172.6 41.666 174.182 39.7148 174.182C37.7578 174.182 36.6621 172.6 36.6621 169.77C36.6621 166.945 37.7578 165.363 39.7148 165.363ZM47.0684 174.17C45.3809 174.17 44.1914 173.156 44.127 171.662H45.498C45.5918 172.424 46.248 172.945 47.1152 172.945C48.0938 172.945 48.75 172.266 48.75 171.252C48.75 170.232 48.0879 169.547 47.1152 169.547C46.4473 169.547 45.9199 169.834 45.6035 170.385H44.2441L44.6543 165.545H49.6055V166.752H45.7793L45.5742 169.213H45.6738C46.0547 168.697 46.6816 168.416 47.4551 168.416C49.0195 168.416 50.1035 169.564 50.1035 171.217C50.1035 172.986 48.8848 174.17 47.0684 174.17Z" fill="white"/>
<path d="M76.1719 175.719C74.375 175.719 73.1562 174.594 72.7344 172.703L74.0938 172.422C74.4062 173.781 75.1406 174.406 76.1719 174.406C77.5156 174.406 78.4219 173.344 78.4219 171.703V164.188H79.8281V171.703C79.8281 174.109 78.3281 175.719 76.1719 175.719Z" fill="#B0B0B0" fill-opacity="0.28"/>
<path d="M192.172 175.719C190.375 175.719 189.156 174.594 188.734 172.703L190.094 172.422C190.406 173.781 191.141 174.406 192.172 174.406C193.516 174.406 194.422 173.344 194.422 171.703V165.5H190.672V164.188H195.828V171.703C195.828 174.109 194.328 175.719 192.172 175.719Z" fill="#2288FF"/>
<rect x="16" y="196" width="40" height="20" rx="4" fill="#70737C" fill-opacity="0.22"/>
<path d="M27.6855 205.723H26.3496C26.2383 204.99 25.7285 204.586 24.9844 204.586C24.0234 204.586 23.4961 205.277 23.4961 206.537V207.029C23.4961 208.289 24.0234 208.98 24.9844 208.98C25.7344 208.98 26.2324 208.594 26.3496 207.885H27.6855C27.5391 209.32 26.5605 210.129 24.9961 210.129C23.1621 210.129 22.125 209.062 22.125 207.152V206.414C22.125 204.51 23.1621 203.438 24.9961 203.438C26.5664 203.438 27.5332 204.252 27.6855 205.723ZM29.2441 203.584H30.709L32.2617 208.646H32.3555L33.8906 203.584H35.3379L33.0645 210H31.5293L29.2441 203.584ZM41.3613 205.271L38.25 207.568C38.502 208.506 39 208.998 39.7148 208.998C40.793 208.998 41.373 207.873 41.373 205.77C41.373 205.594 41.3672 205.43 41.3613 205.271ZM38.0625 206.273L41.1797 203.988C40.9277 203.045 40.4297 202.547 39.7148 202.547C38.6309 202.547 38.0508 203.672 38.0508 205.77C38.0508 205.945 38.0566 206.115 38.0625 206.273ZM39.7148 201.363C41.666 201.363 42.7617 202.945 42.7617 205.77C42.7617 208.6 41.666 210.182 39.7148 210.182C37.7578 210.182 36.6621 208.6 36.6621 205.77C36.6621 202.945 37.7578 201.363 39.7148 201.363ZM50.2559 207.217C50.2559 208.916 48.9492 210.17 47.1855 210.17C45.3691 210.17 44.1035 208.934 44.1035 207.152C44.1035 206.145 44.4492 205.219 45.2812 204.029C45.4746 203.736 46.9453 201.744 47.1035 201.545H48.7148L46.5176 204.51C46.2598 204.861 46.2305 204.914 46.1719 205.037L46.2773 205.061C46.5645 204.732 47.1211 204.516 47.6543 204.516C49.1484 204.516 50.2559 205.664 50.2559 207.217ZM47.1738 208.969C48.1348 208.969 48.8613 208.242 48.8613 207.275C48.8613 206.309 48.1348 205.582 47.1738 205.582C46.2129 205.582 45.4863 206.309 45.4863 207.275C45.4863 208.242 46.2129 208.969 47.1738 208.969Z" fill="white"/>
<path d="M78.6094 211.719C75.2656 211.719 72.7344 209.188 72.7344 205.844C72.7344 202.5 75.2656 199.969 78.6094 199.969C81.9531 199.969 84.4844 202.5 84.4844 205.844C84.4844 207.75 83.6641 209.398 82.3281 210.453L83.8594 212.625H82.2344L81.2031 211.156C80.4297 211.516 79.5469 211.719 78.6094 211.719ZM78.6094 210.406C79.2734 210.406 79.8828 210.289 80.4375 210.062L79.1094 208.188H80.7344L81.5781 209.359C82.5156 208.562 83.0781 207.32 83.0781 205.844C83.0781 203.172 81.2344 201.281 78.6094 201.281C75.9844 201.281 74.1406 203.172 74.1406 205.844C74.1406 208.516 75.9844 210.406 78.6094 210.406Z" fill="#B0B0B0" fill-opacity="0.28"/>
<path d="M194.891 211.5C191.203 211.5 188.734 209.188 188.734 205.734C188.734 202.438 191.203 199.969 194.5 199.969C197.797 199.969 200.266 202.438 200.266 205.734C200.266 207.773 199.305 209.359 197.688 210.219H200.875V211.5H194.891ZM194.5 210.188C197.062 210.188 198.859 208.344 198.859 205.734C198.859 203.125 197.062 201.281 194.5 201.281C191.938 201.281 190.141 203.125 190.141 205.734C190.141 208.344 191.938 210.188 194.5 210.188Z" fill="#2288FF"/>
<rect x="16" y="232" width="40" height="20" rx="4" fill="#70737C" fill-opacity="0.22"/>
<path d="M27.6855 241.723H26.3496C26.2383 240.99 25.7285 240.586 24.9844 240.586C24.0234 240.586 23.4961 241.277 23.4961 242.537V243.029C23.4961 244.289 24.0234 244.98 24.9844 244.98C25.7344 244.98 26.2324 244.594 26.3496 243.885H27.6855C27.5391 245.32 26.5605 246.129 24.9961 246.129C23.1621 246.129 22.125 245.062 22.125 243.152V242.414C22.125 240.51 23.1621 239.438 24.9961 239.438C26.5664 239.438 27.5332 240.252 27.6855 241.723ZM29.2441 239.584H30.709L32.2617 244.646H32.3555L33.8906 239.584H35.3379L33.0645 246H31.5293L29.2441 239.584ZM41.3613 241.271L38.25 243.568C38.502 244.506 39 244.998 39.7148 244.998C40.793 244.998 41.373 243.873 41.373 241.77C41.373 241.594 41.3672 241.43 41.3613 241.271ZM38.0625 242.273L41.1797 239.988C40.9277 239.045 40.4297 238.547 39.7148 238.547C38.6309 238.547 38.0508 239.672 38.0508 241.77C38.0508 241.945 38.0566 242.115 38.0625 242.273ZM39.7148 237.363C41.666 237.363 42.7617 238.945 42.7617 241.77C42.7617 244.6 41.666 246.182 39.7148 246.182C37.7578 246.182 36.6621 244.6 36.6621 241.77C36.6621 238.945 37.7578 237.363 39.7148 237.363ZM44.9473 246L48.6738 238.828V238.74H44.2383V237.539H50.1094V238.758L46.4414 246H44.9473Z" fill="white"/>
<path d="M72.9375 238.188C73.8281 237.656 74.7188 237 75.6562 236.188H77V247.5H75.6562V237.922H75.5938C74.7266 238.609 73.8203 239.211 72.9375 239.672V238.188Z" fill="#B0B0B0" fill-opacity="0.28"/>
<path d="M188.938 239.719V238.125L191.656 236.188H193V247.5H191.656V237.828H191.594L188.938 239.719Z" fill="#2288FF"/>
<rect x="16" y="268" width="40" height="20" rx="4" fill="#70737C" fill-opacity="0.22"/>
<path d="M27.6855 277.723H26.3496C26.2383 276.99 25.7285 276.586 24.9844 276.586C24.0234 276.586 23.4961 277.277 23.4961 278.537V279.029C23.4961 280.289 24.0234 280.98 24.9844 280.98C25.7344 280.98 26.2324 280.594 26.3496 279.885H27.6855C27.5391 281.32 26.5605 282.129 24.9961 282.129C23.1621 282.129 22.125 281.062 22.125 279.152V278.414C22.125 276.51 23.1621 275.438 24.9961 275.438C26.5664 275.438 27.5332 276.252 27.6855 277.723ZM29.2441 275.584H30.709L32.2617 280.646H32.3555L33.8906 275.584H35.3379L33.0645 282H31.5293L29.2441 275.584ZM41.3613 277.271L38.25 279.568C38.502 280.506 39 280.998 39.7148 280.998C40.793 280.998 41.373 279.873 41.373 277.77C41.373 277.594 41.3672 277.43 41.3613 277.271ZM38.0625 278.273L41.1797 275.988C40.9277 275.045 40.4297 274.547 39.7148 274.547C38.6309 274.547 38.0508 275.672 38.0508 277.77C38.0508 277.945 38.0566 278.115 38.0625 278.273ZM39.7148 273.363C41.666 273.363 42.7617 274.945 42.7617 277.77C42.7617 280.6 41.666 282.182 39.7148 282.182C37.7578 282.182 36.6621 280.6 36.6621 277.77C36.6621 274.945 37.7578 273.363 39.7148 273.363ZM47.1445 277.055C48.0176 277.055 48.6035 276.533 48.6035 275.76C48.6035 274.992 48.0176 274.471 47.1445 274.471C46.2656 274.471 45.6855 274.992 45.6855 275.76C45.6855 276.533 46.2656 277.055 47.1445 277.055ZM47.1445 281.062C48.1758 281.062 48.8848 280.465 48.8848 279.604C48.8848 278.736 48.1758 278.145 47.1445 278.145C46.1133 278.145 45.4043 278.736 45.4043 279.604C45.4043 280.465 46.1133 281.062 47.1445 281.062ZM47.1445 282.182C45.2461 282.182 43.9512 281.186 43.9512 279.727C43.9512 278.684 44.6484 277.84 45.7383 277.582V277.482C44.8535 277.26 44.291 276.539 44.291 275.637C44.291 274.307 45.4746 273.363 47.1445 273.363C48.8145 273.363 49.998 274.307 49.998 275.637C49.998 276.539 49.4414 277.254 48.5449 277.482V277.582C49.623 277.816 50.3379 278.678 50.3379 279.727C50.3379 281.186 49.043 282.182 47.1445 282.182Z" fill="white"/>
<path d="M73 282.219C77 279.484 78.8281 277.344 78.8281 275.438C78.8281 274.047 77.8906 273.25 76.5469 273.25C75.5 273.25 74.7344 273.734 74.3125 275.125L73 274.75C73.5938 272.797 74.9219 271.969 76.5469 271.969C78.6094 271.969 80.2031 273.297 80.2031 275.438C80.2031 277.641 78.3438 279.805 75.2031 282.156V282.219H80.375V283.5H73V282.219Z" fill="#B0B0B0" fill-opacity="0.28"/>
<path d="M189 283.5V282.312L191.734 279.531C193.891 277.328 194.828 276.656 194.828 275.312C194.828 274.016 193.938 273.25 192.547 273.25C191.5 273.25 190.734 273.734 190.312 275.125L189 274.75C189.594 272.797 190.922 271.969 192.547 271.969C194.688 271.969 196.203 273.312 196.203 275.312C196.203 277.297 194.75 278.375 192.734 280.406L191 282.156V282.219H196.375V283.5H189Z" fill="#2288FF"/>
<rect x="16" y="304" width="40" height="20" rx="4" fill="#70737C" fill-opacity="0.22"/>
<path d="M27.6855 313.723H26.3496C26.2383 312.99 25.7285 312.586 24.9844 312.586C24.0234 312.586 23.4961 313.277 23.4961 314.537V315.029C23.4961 316.289 24.0234 316.98 24.9844 316.98C25.7344 316.98 26.2324 316.594 26.3496 315.885H27.6855C27.5391 317.32 26.5605 318.129 24.9961 318.129C23.1621 318.129 22.125 317.062 22.125 315.152V314.414C22.125 312.51 23.1621 311.438 24.9961 311.438C26.5664 311.438 27.5332 312.252 27.6855 313.723ZM29.2441 311.584H30.709L32.2617 316.646H32.3555L33.8906 311.584H35.3379L33.0645 318H31.5293L29.2441 311.584ZM41.3613 313.271L38.25 315.568C38.502 316.506 39 316.998 39.7148 316.998C40.793 316.998 41.373 315.873 41.373 313.77C41.373 313.594 41.3672 313.43 41.3613 313.271ZM38.0625 314.273L41.1797 311.988C40.9277 311.045 40.4297 310.547 39.7148 310.547C38.6309 310.547 38.0508 311.672 38.0508 313.77C38.0508 313.945 38.0566 314.115 38.0625 314.273ZM39.7148 309.363C41.666 309.363 42.7617 310.945 42.7617 313.77C42.7617 316.6 41.666 318.182 39.7148 318.182C37.7578 318.182 36.6621 316.6 36.6621 313.77C36.6621 310.945 37.7578 309.363 39.7148 309.363ZM44.0566 312.322C44.0566 310.629 45.3574 309.369 47.1211 309.369C48.9375 309.369 50.209 310.605 50.209 312.387C50.209 313.377 49.8574 314.303 49.0078 315.51C48.8145 315.814 47.3438 317.807 47.1855 317.994H45.5801L47.7773 315.035C47.9883 314.742 48.0645 314.631 48.123 314.508L48.0176 314.479C47.7305 314.812 47.1855 315.023 46.6582 315.023C45.1523 315.023 44.0566 313.887 44.0566 312.322ZM47.1328 310.576C46.1719 310.576 45.4512 311.303 45.4512 312.27C45.4512 313.236 46.1719 313.963 47.1328 313.963C48.0996 313.963 48.8203 313.236 48.8203 312.27C48.8203 311.303 48.0996 310.576 47.1328 310.576Z" fill="white"/>
<path d="M76.875 319.719C75 319.719 73.625 318.766 72.8125 317.078L74.0469 316.516C74.6719 317.812 75.6094 318.438 76.875 318.438C78.3906 318.438 79.5 317.547 79.5 316.312C79.5 315 78.25 314.203 76.1875 314.203H75.8125V312.922H76.1875C77.9844 312.922 79.0469 312.25 79.0469 311.094C79.0469 310.016 78.125 309.25 76.8438 309.25C75.75 309.25 74.8906 309.812 74.375 310.875L73.1406 310.312C73.8906 308.766 75.25 307.969 76.8438 307.969C78.8906 307.969 80.4219 309.297 80.4219 311.062C80.4219 312.297 79.6719 313.141 78.2812 313.531V313.578C79.9297 314.023 80.875 315.016 80.875 316.406C80.875 318.297 79.1562 319.719 76.875 319.719Z" fill="#B0B0B0" fill-opacity="0.28"/>
<path d="M192.875 319.719C191.078 319.719 189.641 318.781 188.812 317.078L190.047 316.516C190.672 317.812 191.625 318.438 192.875 318.438C194.422 318.438 195.5 317.484 195.5 316.125C195.5 314.688 194.297 313.812 192.359 313.812H191.703V312.656L194.609 309.516V309.469H189.281V308.188H196.438V309.469L193.328 312.656V312.719C195.477 313.023 196.875 314.359 196.875 316.188C196.875 318.203 195.172 319.719 192.875 319.719Z" fill="#2288FF"/>
<rect x="16" y="340" width="40" height="20" rx="4" fill="#70737C" fill-opacity="0.22"/>
<path d="M27.6855 349.723H26.3496C26.2383 348.99 25.7285 348.586 24.9844 348.586C24.0234 348.586 23.4961 349.277 23.4961 350.537V351.029C23.4961 352.289 24.0234 352.98 24.9844 352.98C25.7344 352.98 26.2324 352.594 26.3496 351.885H27.6855C27.5391 353.32 26.5605 354.129 24.9961 354.129C23.1621 354.129 22.125 353.062 22.125 351.152V350.414C22.125 348.51 23.1621 347.438 24.9961 347.438C26.5664 347.438 27.5332 348.252 27.6855 349.723ZM29.2441 347.584H30.709L32.2617 352.646H32.3555L33.8906 347.584H35.3379L33.0645 354H31.5293L29.2441 347.584ZM40.7051 352.811H42.9551V354H36.9551V352.811H39.3164V346.998H39.2168L36.9434 348.492V347.115L39.3223 345.545H40.7051V352.811ZM48.7793 349.271L45.668 351.568C45.9199 352.506 46.418 352.998 47.1328 352.998C48.2109 352.998 48.791 351.873 48.791 349.77C48.791 349.594 48.7852 349.43 48.7793 349.271ZM45.4805 350.273L48.5977 347.988C48.3457 347.045 47.8477 346.547 47.1328 346.547C46.0488 346.547 45.4688 347.672 45.4688 349.77C45.4688 349.945 45.4746 350.115 45.4805 350.273ZM47.1328 345.363C49.084 345.363 50.1797 346.945 50.1797 349.77C50.1797 352.6 49.084 354.182 47.1328 354.182C45.1758 354.182 44.0801 352.6 44.0801 349.77C44.0801 346.945 45.1758 345.363 47.1328 345.363Z" fill="white"/>
<path d="M72.75 352.953V351.672L77.1406 344.188H78.6719L74.3594 351.562V351.672H78.3281V348.125H79.6719V351.672H81.4375V352.953H79.6719V355.5H78.3281V352.953H72.75Z" fill="#B0B0B0" fill-opacity="0.28"/>
<path d="M188.75 352.953V351.656L193.5 344.188H195.672V351.672H197.438V352.953H195.672V355.5H194.328V352.953H188.75ZM190.344 351.672H194.328V345.469H194.266L190.344 351.625V351.672Z" fill="#2288FF"/>
<rect x="16" y="376" width="40" height="20" rx="4" fill="#70737C" fill-opacity="0.22"/>
<path d="M27.6855 385.723H26.3496C26.2383 384.99 25.7285 384.586 24.9844 384.586C24.0234 384.586 23.4961 385.277 23.4961 386.537V387.029C23.4961 388.289 24.0234 388.98 24.9844 388.98C25.7344 388.98 26.2324 388.594 26.3496 387.885H27.6855C27.5391 389.32 26.5605 390.129 24.9961 390.129C23.1621 390.129 22.125 389.062 22.125 387.152V386.414C22.125 384.51 23.1621 383.438 24.9961 383.438C26.5664 383.438 27.5332 384.252 27.6855 385.723ZM29.2441 383.584H30.709L32.2617 388.646H32.3555L33.8906 383.584H35.3379L33.0645 390H31.5293L29.2441 383.584ZM40.7051 388.811H42.9551V390H36.9551V388.811H39.3164V382.998H39.2168L36.9434 384.492V383.115L39.3223 381.545H40.7051V388.811ZM48.123 388.811H50.373V390H44.373V388.811H46.7344V382.998H46.6348L44.3613 384.492V383.115L46.7402 381.545H48.123V388.811Z" fill="white"/>
<path d="M76.9844 391.719C74.2969 391.719 72.8125 389.547 72.8125 386.109C72.8125 382.156 74.75 379.969 77.3281 379.969C78.7188 379.969 79.9375 380.609 80.6875 381.703L79.5312 382.422C79.0156 381.625 78.1719 381.25 77.3281 381.25C75.6406 381.25 74.2891 382.742 74.2031 385.766H74.2656C74.8984 384.766 75.9844 384.156 77.2656 384.156C79.2969 384.156 80.875 385.719 80.875 387.938C80.875 390.172 79.2656 391.719 76.9844 391.719ZM76.9844 390.438C78.4531 390.438 79.5 389.406 79.5 387.938C79.5 386.469 78.4531 385.438 76.9844 385.438C75.5156 385.438 74.4688 386.469 74.4688 387.938C74.4688 389.406 75.5156 390.438 76.9844 390.438ZM90.0469 391.719C88.6406 391.719 87.5 391.047 86.625 389.75L87.75 389.031C88.4375 390.016 89.1406 390.438 90.0469 390.438C91.7344 390.438 93.0859 388.945 93.1875 385.922H93.125C92.4766 386.922 91.3906 387.531 90.1094 387.531C88.0781 387.531 86.5 385.969 86.5 383.75C86.5 381.516 88.1094 379.969 90.3906 379.969C93.0781 379.969 94.5625 382.141 94.5625 385.578C94.5625 389.531 92.625 391.719 90.0469 391.719ZM90.3906 386.25C91.8594 386.25 92.9062 385.219 92.9062 383.75C92.9062 382.281 91.8594 381.25 90.3906 381.25C88.9219 381.25 87.875 382.281 87.875 383.75C87.875 385.219 88.9219 386.25 90.3906 386.25Z" fill="#B0B0B0" fill-opacity="0.28"/>
<path d="M192.688 391.719C190.469 391.719 188.797 390.062 188.797 387.703C188.797 386.453 189.25 385.359 190.875 383.062L192.906 380.188H194.562L191.922 383.812C191.633 384.211 191.383 384.562 191.172 384.891L191.219 384.922C191.742 384.492 192.414 384.25 193.172 384.25C195.078 384.25 196.578 385.828 196.578 387.875C196.578 390.062 194.906 391.719 192.688 391.719ZM192.688 390.438C194.172 390.438 195.203 389.406 195.203 387.938C195.203 386.469 194.172 385.438 192.688 385.438C191.203 385.438 190.172 386.469 190.172 387.938C190.172 389.406 191.203 390.438 192.688 390.438ZM206.062 379.969C208.281 379.969 209.953 381.625 209.953 383.984C209.953 385.234 209.5 386.328 207.875 388.625L205.844 391.5H204.188L206.828 387.875C207.117 387.477 207.367 387.125 207.594 386.797L207.547 386.766C207.008 387.195 206.336 387.438 205.578 387.438C203.672 387.438 202.172 385.859 202.172 383.812C202.172 381.625 203.844 379.969 206.062 379.969ZM206.062 381.25C204.578 381.25 203.547 382.281 203.547 383.75C203.547 385.219 204.578 386.25 206.062 386.25C207.547 386.25 208.578 385.219 208.578 383.75C208.578 382.281 207.547 381.25 206.062 381.25Z" fill="#2288FF"/>
<rect x="16" y="412" width="40" height="20" rx="4" fill="#70737C" fill-opacity="0.22"/>
<path d="M27.6855 421.723H26.3496C26.2383 420.99 25.7285 420.586 24.9844 420.586C24.0234 420.586 23.4961 421.277 23.4961 422.537V423.029C23.4961 424.289 24.0234 424.98 24.9844 424.98C25.7344 424.98 26.2324 424.594 26.3496 423.885H27.6855C27.5391 425.32 26.5605 426.129 24.9961 426.129C23.1621 426.129 22.125 425.062 22.125 423.152V422.414C22.125 420.51 23.1621 419.438 24.9961 419.438C26.5664 419.438 27.5332 420.252 27.6855 421.723ZM29.2441 419.584H30.709L32.2617 424.646H32.3555L33.8906 419.584H35.3379L33.0645 426H31.5293L29.2441 419.584ZM40.7051 424.811H42.9551V426H36.9551V424.811H39.3164V418.998H39.2168L36.9434 420.492V419.115L39.3223 417.545H40.7051V424.811ZM44.2266 420.023C44.2266 418.459 45.4043 417.375 47.0859 417.375C48.7559 417.375 49.8867 418.354 49.8867 419.795C49.8867 420.697 49.4355 421.453 48.041 422.865L46.2539 424.688V424.793H50.0215V426H44.3027V425.021L47.0977 422.109C48.2168 420.932 48.5039 420.486 48.5039 419.877C48.5039 419.068 47.9238 418.541 47.0449 418.541C46.1484 418.541 45.5566 419.133 45.5566 420.018V420.059H44.2266V420.023Z" fill="white"/>
<path d="M72.9375 417.469V416.188H80.375V417.469C77.9688 420.406 76.6562 423.703 76.3438 427.5H75.0625C75.3438 423.789 76.5312 420.5 78.7031 417.531V417.469H72.9375Z" fill="#B0B0B0" fill-opacity="0.28"/>
<path d="M189.781 427.5L194.844 417.531V417.469H188.938V416.188H196.375V417.469L191.281 427.5H189.781Z" fill="#2288FF"/>
<rect x="16" y="448" width="40" height="20" rx="4" fill="#70737C" fill-opacity="0.22"/>
<path d="M27.6855 457.723H26.3496C26.2383 456.99 25.7285 456.586 24.9844 456.586C24.0234 456.586 23.4961 457.277 23.4961 458.537V459.029C23.4961 460.289 24.0234 460.98 24.9844 460.98C25.7344 460.98 26.2324 460.594 26.3496 459.885H27.6855C27.5391 461.32 26.5605 462.129 24.9961 462.129C23.1621 462.129 22.125 461.062 22.125 459.152V458.414C22.125 456.51 23.1621 455.438 24.9961 455.438C26.5664 455.438 27.5332 456.252 27.6855 457.723ZM29.2441 455.584H30.709L32.2617 460.646H32.3555L33.8906 455.584H35.3379L33.0645 462H31.5293L29.2441 455.584ZM40.7051 460.811H42.9551V462H36.9551V460.811H39.3164V454.998H39.2168L36.9434 456.492V455.115L39.3223 453.545H40.7051V460.811ZM46.0957 458.203V457.113H47.0566C47.9414 457.113 48.5391 456.58 48.5391 455.801C48.5391 455.027 47.959 454.535 47.0742 454.535C46.1895 454.535 45.6094 455.039 45.5449 455.854H44.25C44.332 454.318 45.4219 453.375 47.1211 453.375C48.7559 453.375 49.8867 454.283 49.8867 455.596C49.8867 456.598 49.3301 457.33 48.4102 457.535V457.635C49.5469 457.775 50.2266 458.537 50.2266 459.674C50.2266 461.145 48.9609 462.17 47.1504 462.17C45.375 462.17 44.168 461.18 44.0918 459.65H45.4102C45.4805 460.447 46.1426 460.957 47.1152 460.957C48.1523 460.957 48.8086 460.43 48.8086 459.598C48.8086 458.748 48.1348 458.203 47.0859 458.203H46.0957Z" fill="white"/>
<path d="M75.4375 459.938C75.4375 456.469 78.1406 456.891 78.1406 455C78.1406 453.953 77.3125 453.281 76.1406 453.281C74.8906 453.281 74.1406 454.031 74.1406 455.312H72.7344C72.7344 453.281 74.0312 451.969 76.1406 451.969C78.0938 451.969 79.5469 453.094 79.5469 455C79.5469 457.594 76.8438 457.156 76.8438 459.812V460.188H75.4375V459.938ZM76.1406 463.625C75.5781 463.625 75.1719 463.219 75.1719 462.656C75.1719 462.094 75.5781 461.688 76.1406 461.688C76.7031 461.688 77.1094 462.094 77.1094 462.656C77.1094 463.219 76.7031 463.625 76.1406 463.625Z" fill="#B0B0B0" fill-opacity="0.28"/>
<path d="M191.25 457.062C193.094 457.344 194.266 456.5 194.266 455.188C194.266 454.078 193.406 453.281 192.203 453.281C191 453.281 190.141 454.078 190.141 455.312H188.734C188.734 453.297 190.172 451.969 192.203 451.969C194.234 451.969 195.672 453.297 195.672 455.188C195.672 456.891 194.516 458.125 192.656 458.391V460.188H191.25V457.062ZM191.953 463.625C191.391 463.625 190.984 463.219 190.984 462.656C190.984 462.094 191.391 461.688 191.953 461.688C192.516 461.688 192.922 462.094 192.922 462.656C192.922 463.219 192.516 463.625 191.953 463.625Z" fill="#2288FF"/>
<rect x="16" y="484" width="40" height="20" rx="4" fill="#70737C" fill-opacity="0.22"/>
<path d="M27.6855 493.723H26.3496C26.2383 492.99 25.7285 492.586 24.9844 492.586C24.0234 492.586 23.4961 493.277 23.4961 494.537V495.029C23.4961 496.289 24.0234 496.98 24.9844 496.98C25.7344 496.98 26.2324 496.594 26.3496 495.885H27.6855C27.5391 497.32 26.5605 498.129 24.9961 498.129C23.1621 498.129 22.125 497.062 22.125 495.152V494.414C22.125 492.51 23.1621 491.438 24.9961 491.438C26.5664 491.438 27.5332 492.252 27.6855 493.723ZM29.2441 491.584H30.709L32.2617 496.646H32.3555L33.8906 491.584H35.3379L33.0645 498H31.5293L29.2441 491.584ZM40.7051 496.811H42.9551V498H36.9551V496.811H39.3164V490.998H39.2168L36.9434 492.492V491.115L39.3223 489.545H40.7051V496.811ZM47.9238 498V496.324H44.1152V495.193L46.8047 489.545H48.2402L45.6152 495.059V495.152H47.959V492.902H49.2246V495.164H50.4316V496.324H49.2363V498H47.9238Z" fill="white"/>
<path d="M73 498.219C77 495.484 78.8281 493.344 78.8281 491.438C78.8281 490.047 77.8906 489.25 76.5469 489.25C75.5 489.25 74.7344 489.734 74.3125 491.125L73 490.75C73.5938 488.797 74.9219 487.969 76.5469 487.969C78.6094 487.969 80.2031 489.297 80.2031 491.438C80.2031 493.641 78.3438 495.805 75.2031 498.156V498.219H80.375V499.5H73V498.219Z" fill="#B0B0B0" fill-opacity="0.28"/>
<path d="M188.75 499.5C188.594 494.531 194.828 494.984 194.828 491.438C194.828 490.094 193.938 489.25 192.547 489.25C191.5 489.25 190.734 489.734 190.312 491.125L189 490.75C189.594 488.797 190.922 487.969 192.547 487.969C194.656 487.969 196.203 489.328 196.203 491.438C196.203 495.219 191.281 495.344 190.297 498.219H196.375V499.5H188.75Z" fill="#2288FF"/>
<rect x="16" y="520" width="40" height="20" rx="4" fill="#70737C" fill-opacity="0.22"/>
<path d="M27.6855 529.723H26.3496C26.2383 528.99 25.7285 528.586 24.9844 528.586C24.0234 528.586 23.4961 529.277 23.4961 530.537V531.029C23.4961 532.289 24.0234 532.98 24.9844 532.98C25.7344 532.98 26.2324 532.594 26.3496 531.885H27.6855C27.5391 533.32 26.5605 534.129 24.9961 534.129C23.1621 534.129 22.125 533.062 22.125 531.152V530.414C22.125 528.51 23.1621 527.438 24.9961 527.438C26.5664 527.438 27.5332 528.252 27.6855 529.723ZM29.2441 527.584H30.709L32.2617 532.646H32.3555L33.8906 527.584H35.3379L33.0645 534H31.5293L29.2441 527.584ZM40.7051 532.811H42.9551V534H36.9551V532.811H39.3164V526.998H39.2168L36.9434 528.492V527.115L39.3223 525.545H40.7051V532.811ZM47.0684 534.17C45.3809 534.17 44.1914 533.156 44.127 531.662H45.498C45.5918 532.424 46.248 532.945 47.1152 532.945C48.0938 532.945 48.75 532.266 48.75 531.252C48.75 530.232 48.0879 529.547 47.1152 529.547C46.4473 529.547 45.9199 529.834 45.6035 530.385H44.2441L44.6543 525.545H49.6055V526.752H45.7793L45.5742 529.213H45.6738C46.0547 528.697 46.6816 528.416 47.4551 528.416C49.0195 528.416 50.1035 529.564 50.1035 531.217C50.1035 532.986 48.8848 534.17 47.0684 534.17Z" fill="white"/>
<path d="M73.0469 535.5V527.438H74.3594V528.688H74.4219C74.8203 527.812 75.6172 527.219 76.5312 527.219C76.8281 527.219 77.1094 527.281 77.375 527.391V528.688C77.0781 528.594 76.7812 528.547 76.5 528.547C75.1562 528.547 74.3594 529.625 74.3594 531.469V535.5H73.0469Z" fill="#B0B0B0" fill-opacity="0.28"/>
<path d="M189.047 535.5V527.438H190.359V535.5H189.047ZM191.953 529.078C191.453 529.078 191.078 528.703 191.078 528.203C191.078 527.703 191.453 527.328 191.953 527.328C192.453 527.328 192.828 527.703 192.828 528.203C192.828 528.703 192.453 529.078 191.953 529.078Z" fill="#2288FF"/>
<rect x="16" y="556" width="40" height="20" rx="4" fill="#70737C" fill-opacity="0.22"/>
<path d="M27.6855 565.723H26.3496C26.2383 564.99 25.7285 564.586 24.9844 564.586C24.0234 564.586 23.4961 565.277 23.4961 566.537V567.029C23.4961 568.289 24.0234 568.98 24.9844 568.98C25.7344 568.98 26.2324 568.594 26.3496 567.885H27.6855C27.5391 569.32 26.5605 570.129 24.9961 570.129C23.1621 570.129 22.125 569.062 22.125 567.152V566.414C22.125 564.51 23.1621 563.438 24.9961 563.438C26.5664 563.438 27.5332 564.252 27.6855 565.723ZM29.2441 563.584H30.709L32.2617 568.646H32.3555L33.8906 563.584H35.3379L33.0645 570H31.5293L29.2441 563.584ZM40.7051 568.811H42.9551V570H36.9551V568.811H39.3164V562.998H39.2168L36.9434 564.492V563.115L39.3223 561.545H40.7051V568.811ZM50.2559 567.217C50.2559 568.916 48.9492 570.17 47.1855 570.17C45.3691 570.17 44.1035 568.934 44.1035 567.152C44.1035 566.145 44.4492 565.219 45.2812 564.029C45.4746 563.736 46.9453 561.744 47.1035 561.545H48.7148L46.5176 564.51C46.2598 564.861 46.2305 564.914 46.1719 565.037L46.2773 565.061C46.5645 564.732 47.1211 564.516 47.6543 564.516C49.1484 564.516 50.2559 565.664 50.2559 567.217ZM47.1738 568.969C48.1348 568.969 48.8613 568.242 48.8613 567.275C48.8613 566.309 48.1348 565.582 47.1738 565.582C46.2129 565.582 45.4863 566.309 45.4863 567.275C45.4863 568.242 46.2129 568.969 47.1738 568.969Z" fill="white"/>
<path d="M73.0469 571.5V560.188H74.3594V571.5H73.0469Z" fill="#B0B0B0" fill-opacity="0.28"/>
<path d="M190.953 571.719C189.672 571.719 189.047 570.891 189.047 569.219V560.188H190.359V569.156C190.359 570.125 190.609 570.469 191.266 570.469C191.406 570.469 191.547 570.453 191.672 570.438V571.641C191.438 571.688 191.203 571.719 190.953 571.719Z" fill="#2288FF"/>
<rect x="16" y="592" width="40" height="20" rx="4" fill="#70737C" fill-opacity="0.22"/>
<path d="M27.6855 601.723H26.3496C26.2383 600.99 25.7285 600.586 24.9844 600.586C24.0234 600.586 23.4961 601.277 23.4961 602.537V603.029C23.4961 604.289 24.0234 604.98 24.9844 604.98C25.7344 604.98 26.2324 604.594 26.3496 603.885H27.6855C27.5391 605.32 26.5605 606.129 24.9961 606.129C23.1621 606.129 22.125 605.062 22.125 603.152V602.414C22.125 600.51 23.1621 599.438 24.9961 599.438C26.5664 599.438 27.5332 600.252 27.6855 601.723ZM29.2441 599.584H30.709L32.2617 604.646H32.3555L33.8906 599.584H35.3379L33.0645 606H31.5293L29.2441 599.584ZM40.7051 604.811H42.9551V606H36.9551V604.811H39.3164V598.998H39.2168L36.9434 600.492V599.115L39.3223 597.545H40.7051V604.811ZM44.9473 606L48.6738 598.828V598.74H44.2383V597.539H50.1094V598.758L46.4414 606H44.9473Z" fill="white"/>
<path d="M74.5 598.188C75.3906 597.656 76.2812 597 77.2188 596.188H78.5625V607.5H77.2188V597.922H77.1562C76.2891 598.609 75.3828 599.211 74.5 599.672V598.188Z" fill="#B0B0B0" fill-opacity="0.28"/>
<path d="M189.438 607.5V606.219H192.703V597.922H192.641C191.719 598.609 190.773 599.211 189.844 599.672V598.188C190.781 597.656 191.719 597 192.703 596.188H194.062V606.219H196.969V607.5H189.438Z" fill="#2288FF"/>
<rect x="16" y="628" width="40" height="20" rx="4" fill="#70737C" fill-opacity="0.22"/>
<path d="M27.6855 637.723H26.3496C26.2383 636.99 25.7285 636.586 24.9844 636.586C24.0234 636.586 23.4961 637.277 23.4961 638.537V639.029C23.4961 640.289 24.0234 640.98 24.9844 640.98C25.7344 640.98 26.2324 640.594 26.3496 639.885H27.6855C27.5391 641.32 26.5605 642.129 24.9961 642.129C23.1621 642.129 22.125 641.062 22.125 639.152V638.414C22.125 636.51 23.1621 635.438 24.9961 635.438C26.5664 635.438 27.5332 636.252 27.6855 637.723ZM29.2441 635.584H30.709L32.2617 640.646H32.3555L33.8906 635.584H35.3379L33.0645 642H31.5293L29.2441 635.584ZM40.7051 640.811H42.9551V642H36.9551V640.811H39.3164V634.998H39.2168L36.9434 636.492V635.115L39.3223 633.545H40.7051V640.811ZM47.1445 637.055C48.0176 637.055 48.6035 636.533 48.6035 635.76C48.6035 634.992 48.0176 634.471 47.1445 634.471C46.2656 634.471 45.6855 634.992 45.6855 635.76C45.6855 636.533 46.2656 637.055 47.1445 637.055ZM47.1445 641.062C48.1758 641.062 48.8848 640.465 48.8848 639.604C48.8848 638.736 48.1758 638.145 47.1445 638.145C46.1133 638.145 45.4043 638.736 45.4043 639.604C45.4043 640.465 46.1133 641.062 47.1445 641.062ZM47.1445 642.182C45.2461 642.182 43.9512 641.186 43.9512 639.727C43.9512 638.684 44.6484 637.84 45.7383 637.582V637.482C44.8535 637.26 44.291 636.539 44.291 635.637C44.291 634.307 45.4746 633.363 47.1445 633.363C48.8145 633.363 49.998 634.307 49.998 635.637C49.998 636.539 49.4414 637.254 48.5449 637.482V637.582C49.623 637.816 50.3379 638.678 50.3379 639.727C50.3379 641.186 49.043 642.182 47.1445 642.182Z" fill="white"/>
<path d="M73.1094 643.5V632.188H74.4844V643.5H73.1094Z" fill="#B0B0B0" fill-opacity="0.28"/>
<path d="M188.734 633.469V632.188H194.359V633.469H192.234V642.219H194.359V643.5H188.734V642.219H190.859V633.469H188.734Z" fill="#2288FF"/>
<rect x="16" y="664" width="40" height="20" rx="4" fill="#70737C" fill-opacity="0.22"/>
<path d="M27.6855 673.723H26.3496C26.2383 672.99 25.7285 672.586 24.9844 672.586C24.0234 672.586 23.4961 673.277 23.4961 674.537V675.029C23.4961 676.289 24.0234 676.98 24.9844 676.98C25.7344 676.98 26.2324 676.594 26.3496 675.885H27.6855C27.5391 677.32 26.5605 678.129 24.9961 678.129C23.1621 678.129 22.125 677.062 22.125 675.152V674.414C22.125 672.51 23.1621 671.438 24.9961 671.438C26.5664 671.438 27.5332 672.252 27.6855 673.723ZM29.2441 671.584H30.709L32.2617 676.646H32.3555L33.8906 671.584H35.3379L33.0645 678H31.5293L29.2441 671.584ZM40.7051 676.811H42.9551V678H36.9551V676.811H39.3164V670.998H39.2168L36.9434 672.492V671.115L39.3223 669.545H40.7051V676.811ZM44.0566 672.322C44.0566 670.629 45.3574 669.369 47.1211 669.369C48.9375 669.369 50.209 670.605 50.209 672.387C50.209 673.377 49.8574 674.303 49.0078 675.51C48.8145 675.814 47.3438 677.807 47.1855 677.994H45.5801L47.7773 675.035C47.9883 674.742 48.0645 674.631 48.123 674.508L48.0176 674.479C47.7305 674.812 47.1855 675.023 46.6582 675.023C45.1523 675.023 44.0566 673.887 44.0566 672.322ZM47.1328 670.576C46.1719 670.576 45.4512 671.303 45.4512 672.27C45.4512 673.236 46.1719 673.963 47.1328 673.963C48.0996 673.963 48.8203 673.236 48.8203 672.27C48.8203 671.303 48.0996 670.576 47.1328 670.576Z" fill="white"/>
<path d="M72.6094 672.531V671.438H73.9844V670.484C73.9844 668.938 74.9062 667.969 76.3594 667.969C76.8125 667.969 77.1875 668.062 77.4844 668.172V669.406C77.1406 669.297 76.8281 669.25 76.5469 669.25C75.7031 669.25 75.2969 669.672 75.2969 670.531V671.438H77.4844V672.531H75.2969V679.5H73.9844V672.531H72.6094Z" fill="#B0B0B0" fill-opacity="0.28"/>
<path d="M188.609 672.531V671.438H189.984V668.188H193.484V669.375H191.297V671.438H193.484V672.531H191.297V679.5H189.984V672.531H188.609Z" fill="#2288FF"/>
<rect x="16" y="700" width="40" height="20" rx="4" fill="#70737C" fill-opacity="0.22"/>
<path d="M27.6855 709.723H26.3496C26.2383 708.99 25.7285 708.586 24.9844 708.586C24.0234 708.586 23.4961 709.277 23.4961 710.537V711.029C23.4961 712.289 24.0234 712.98 24.9844 712.98C25.7344 712.98 26.2324 712.594 26.3496 711.885H27.6855C27.5391 713.32 26.5605 714.129 24.9961 714.129C23.1621 714.129 22.125 713.062 22.125 711.152V710.414C22.125 708.51 23.1621 707.438 24.9961 707.438C26.5664 707.438 27.5332 708.252 27.6855 709.723ZM29.2441 707.584H30.709L32.2617 712.646H32.3555L33.8906 707.584H35.3379L33.0645 714H31.5293L29.2441 707.584ZM36.8086 708.023C36.8086 706.459 37.9863 705.375 39.668 705.375C41.3379 705.375 42.4688 706.354 42.4688 707.795C42.4688 708.697 42.0176 709.453 40.623 710.865L38.8359 712.688V712.793H42.6035V714H36.8848V713.021L39.6797 710.109C40.7988 708.932 41.0859 708.486 41.0859 707.877C41.0859 707.068 40.5059 706.541 39.627 706.541C38.7305 706.541 38.1387 707.133 38.1387 708.018V708.059H36.8086V708.023ZM48.7793 709.271L45.668 711.568C45.9199 712.506 46.418 712.998 47.1328 712.998C48.2109 712.998 48.791 711.873 48.791 709.77C48.791 709.594 48.7852 709.43 48.7793 709.271ZM45.4805 710.273L48.5977 707.988C48.3457 707.045 47.8477 706.547 47.1328 706.547C46.0488 706.547 45.4688 707.672 45.4688 709.77C45.4688 709.945 45.4746 710.115 45.4805 710.273ZM47.1328 705.363C49.084 705.363 50.1797 706.945 50.1797 709.77C50.1797 712.6 49.084 714.182 47.1328 714.182C45.1758 714.182 44.0801 712.6 44.0801 709.77C44.0801 706.945 45.1758 705.363 47.1328 705.363Z" fill="white"/>
<path d="M76.6406 714.219C78.1719 714.219 79.2656 713.031 79.2656 711.344C79.2656 709.656 78.1719 708.469 76.6406 708.469C75.0938 708.469 74.0156 709.672 74.0156 711.344C74.0156 713.016 75.0938 714.219 76.6406 714.219ZM76.4844 719.094C74.8906 719.094 73.7188 718.422 72.8438 717.062L73.9375 716.375C74.625 717.422 75.375 717.844 76.4844 717.844C78.25 717.844 79.2031 716.766 79.2031 714.688V714.031H79.1406C78.6016 714.969 77.7031 715.469 76.5156 715.469C74.2812 715.469 72.6719 713.688 72.6719 711.344C72.6719 709 74.2812 707.219 76.5156 707.219C77.7031 707.219 78.6016 707.719 79.1406 708.656H79.2031V707.438H80.5156V714.688C80.5156 717.484 78.9688 719.094 76.4844 719.094Z" fill="#B0B0B0" fill-opacity="0.28"/>
<path d="M192.641 714.219C194.172 714.219 195.266 713.031 195.266 711.344C195.266 709.656 194.172 708.469 192.641 708.469C191.094 708.469 190.016 709.672 190.016 711.344C190.016 713.016 191.094 714.219 192.641 714.219ZM190.016 718.875V717.625H195.203V714.031H195.141C194.602 714.969 193.703 715.469 192.516 715.469C190.281 715.469 188.672 713.688 188.672 711.344C188.672 709 190.281 707.219 192.516 707.219C193.703 707.219 194.602 707.719 195.141 708.656H195.203V707.438H196.516V718.875H190.016Z" fill="#2288FF"/>
<rect x="16" y="736" width="40" height="20" rx="4" fill="#70737C" fill-opacity="0.22"/>
<path d="M27.6855 745.723H26.3496C26.2383 744.99 25.7285 744.586 24.9844 744.586C24.0234 744.586 23.4961 745.277 23.4961 746.537V747.029C23.4961 748.289 24.0234 748.98 24.9844 748.98C25.7344 748.98 26.2324 748.594 26.3496 747.885H27.6855C27.5391 749.32 26.5605 750.129 24.9961 750.129C23.1621 750.129 22.125 749.062 22.125 747.152V746.414C22.125 744.51 23.1621 743.438 24.9961 743.438C26.5664 743.438 27.5332 744.252 27.6855 745.723ZM29.2441 743.584H30.709L32.2617 748.646H32.3555L33.8906 743.584H35.3379L33.0645 750H31.5293L29.2441 743.584ZM36.8086 744.023C36.8086 742.459 37.9863 741.375 39.668 741.375C41.3379 741.375 42.4688 742.354 42.4688 743.795C42.4688 744.697 42.0176 745.453 40.623 746.865L38.8359 748.688V748.793H42.6035V750H36.8848V749.021L39.6797 746.109C40.7988 744.932 41.0859 744.486 41.0859 743.877C41.0859 743.068 40.5059 742.541 39.627 742.541C38.7305 742.541 38.1387 743.133 38.1387 744.018V744.059H36.8086V744.023ZM48.123 748.811H50.373V750H44.373V748.811H46.7344V742.998H46.6348L44.3613 744.492V743.115L46.7402 741.545H48.123V748.811Z" fill="white"/>
<path d="M76.6406 750.469C78.1719 750.469 79.2656 749.234 79.2656 747.469C79.2656 745.703 78.1719 744.469 76.6406 744.469C75.0938 744.469 74.0156 745.719 74.0156 747.469C74.0156 749.219 75.0938 750.469 76.6406 750.469ZM80.5156 751.5H79.2031V750.234H79.1562C78.6016 751.195 77.7031 751.719 76.5156 751.719C74.2812 751.719 72.6719 749.891 72.6719 747.469C72.6719 745.047 74.2812 743.219 76.5156 743.219C77.7031 743.219 78.6016 743.742 79.1562 744.703H79.2031V743.438H80.5156V751.5Z" fill="#B0B0B0" fill-opacity="0.28"/>
<path d="M194.703 747.094C194.703 745.406 193.875 744.469 192.359 744.469C191.375 744.469 190.656 744.859 190.219 745.625L189.047 745C189.688 743.859 190.891 743.219 192.359 743.219C194.625 743.219 196.047 744.719 196.047 747.094V751.5H194.703V747.094ZM191.328 751.719C189.891 751.719 188.797 750.672 188.797 749.281C188.797 747.891 189.891 746.844 191.328 746.844C192.766 746.844 193.859 747.891 193.859 749.281C193.859 750.672 192.766 751.719 191.328 751.719ZM191.328 750.469C192.031 750.469 192.516 749.984 192.516 749.281C192.516 748.578 192.031 748.094 191.328 748.094C190.625 748.094 190.141 748.578 190.141 749.281C190.141 749.984 190.625 750.469 191.328 750.469Z" fill="#2288FF"/>
<rect x="16" y="772" width="40" height="20" rx="4" fill="#70737C" fill-opacity="0.22"/>
<path d="M27.6855 781.723H26.3496C26.2383 780.99 25.7285 780.586 24.9844 780.586C24.0234 780.586 23.4961 781.277 23.4961 782.537V783.029C23.4961 784.289 24.0234 784.98 24.9844 784.98C25.7344 784.98 26.2324 784.594 26.3496 783.885H27.6855C27.5391 785.32 26.5605 786.129 24.9961 786.129C23.1621 786.129 22.125 785.062 22.125 783.152V782.414C22.125 780.51 23.1621 779.438 24.9961 779.438C26.5664 779.438 27.5332 780.252 27.6855 781.723ZM29.2441 779.584H30.709L32.2617 784.646H32.3555L33.8906 779.584H35.3379L33.0645 786H31.5293L29.2441 779.584ZM36.8086 780.023C36.8086 778.459 37.9863 777.375 39.668 777.375C41.3379 777.375 42.4688 778.354 42.4688 779.795C42.4688 780.697 42.0176 781.453 40.623 782.865L38.8359 784.688V784.793H42.6035V786H36.8848V785.021L39.6797 782.109C40.7988 780.932 41.0859 780.486 41.0859 779.877C41.0859 779.068 40.5059 778.541 39.627 778.541C38.7305 778.541 38.1387 779.133 38.1387 780.018V780.059H36.8086V780.023ZM44.2266 780.023C44.2266 778.459 45.4043 777.375 47.0859 777.375C48.7559 777.375 49.8867 778.354 49.8867 779.795C49.8867 780.697 49.4355 781.453 48.041 782.865L46.2539 784.688V784.793H50.0215V786H44.3027V785.021L47.0977 782.109C48.2168 780.932 48.5039 780.486 48.5039 779.877C48.5039 779.068 47.9238 778.541 47.0449 778.541C46.1484 778.541 45.5566 779.133 45.5566 780.018V780.059H44.2266V780.023Z" fill="white"/>
<path d="M76.875 787.719C74.4531 787.719 72.6719 785.891 72.6719 783.469C72.6719 781.047 74.4062 779.219 76.7188 779.219C79.0312 779.219 80.6406 781.047 80.6406 783.469L80.625 783.922H74.0469C74.2266 785.469 75.3672 786.469 76.9062 786.469C78.0156 786.469 78.8125 785.945 79.2188 785.078L80.375 785.578C79.7578 786.875 78.5312 787.719 76.875 787.719ZM74.1094 782.641H79.2031C79.1094 781.414 78.1094 780.469 76.7188 780.469C75.3906 780.469 74.3984 781.328 74.1094 782.641Z" fill="#B0B0B0" fill-opacity="0.28"/>
<path d="M192.875 787.719C190.453 787.719 188.672 785.891 188.672 783.469C188.672 781.047 190.406 779.219 192.719 779.219C195.031 779.219 196.641 781.047 196.641 783.469L196.625 783.922H191.516V782.641H195.203C195.109 781.414 194.109 780.469 192.719 780.469C191.125 780.469 190.016 781.703 190.016 783.469C190.016 785.266 191.219 786.469 192.906 786.469C194.016 786.469 194.812 785.945 195.219 785.078L196.375 785.578C195.758 786.875 194.531 787.719 192.875 787.719Z" fill="#2288FF"/>
</svg>
