<svg width="320" height="122" viewBox="0 0 320 122" fill="none" xmlns="http://www.w3.org/2000/svg">
<rect x="0.5" y="0.5" width="319" height="121" rx="7.5" stroke="#70737C" stroke-opacity="0.28"/>
<rect x="16" y="16" width="40" height="20" rx="4" fill="#70737C" fill-opacity="0.22"/>
<path d="M23.8359 30V24.7266H22.1191V23.625H23.8359V23.0918C23.8359 21.7266 24.5508 21.1641 26.2266 21.1641C26.4668 21.1641 27.7207 21.1875 27.8555 21.2051V22.2305C27.6738 22.2129 26.4902 22.1953 26.2559 22.1953C25.541 22.1953 25.1719 22.4766 25.1719 23.0215V23.625H27.8555V24.7266H25.1953V30H23.8359ZM32.1211 25.2246H32.3203C32.584 23.9883 33.2988 23.4141 34.5176 23.4141C34.8809 23.4141 35.2148 23.4609 35.4375 23.5488V25.0312C35.1504 24.9199 34.7285 24.8496 34.377 24.8496C32.8945 24.8496 32.1152 25.6582 32.1152 27.1406V28.9805H34.0254V30H29.5547V28.9805H30.8027V24.6035H29.4316V23.584H32.1211V25.2246ZM38.9297 30.1055C37.7109 30.1055 36.8965 29.332 36.8965 28.1719C36.8965 27.0234 37.7285 26.3438 39.2637 26.25L40.8691 26.1562V25.6172C40.8691 24.9551 40.4414 24.5801 39.6914 24.5801C39.0645 24.5801 38.6074 24.8496 38.4668 25.3184H37.1309C37.248 24.2109 38.2852 23.4785 39.7266 23.4785C41.3145 23.4785 42.2168 24.2578 42.2168 25.6289V30H40.9219V29.1035H40.7988C40.4883 29.7422 39.8027 30.1055 38.9297 30.1055ZM39.3691 28.9922C40.2363 28.9922 40.8691 28.4355 40.8691 27.6621V27.0762L39.4688 27.1523C38.666 27.1992 38.25 27.5215 38.25 28.0898C38.25 28.6465 38.6836 28.9922 39.3691 28.9922ZM49.9395 25.7227H48.6035C48.4922 24.9902 47.9824 24.5859 47.2383 24.5859C46.2773 24.5859 45.75 25.2773 45.75 26.5371V27.0293C45.75 28.2891 46.2773 28.9805 47.2383 28.9805C47.9883 28.9805 48.4863 28.5938 48.6035 27.8848H49.9395C49.793 29.3203 48.8145 30.1289 47.25 30.1289C45.416 30.1289 44.3789 29.0625 44.3789 27.1523V26.4141C44.3789 24.5098 45.416 23.4375 47.25 23.4375C48.8203 23.4375 49.7871 24.252 49.9395 25.7227Z" fill="white"/>
<rect x="64" y="16" width="40" height="20" rx="4" fill="#70737C" fill-opacity="0.22"/>
<path d="M70.1016 30V23.584H71.4199V24.6797H71.5137C71.8418 23.8945 72.5508 23.4551 73.4941 23.4551C74.8887 23.4551 75.6445 24.2871 75.6445 25.8398V30H74.2793V26.1738C74.2793 25.1426 73.8574 24.6504 72.9785 24.6504C72.0645 24.6504 71.4668 25.2891 71.4668 26.2617V30H70.1016ZM83.0625 23.584V30H81.7441V28.9043H81.6504C81.3223 29.6895 80.6133 30.1289 79.6699 30.1289C78.2754 30.1289 77.5195 29.2969 77.5195 27.7383V23.584H78.8848V27.4102C78.8848 28.4414 79.3066 28.9277 80.1855 28.9277C81.0996 28.9277 81.6973 28.2949 81.6973 27.3223V23.584H83.0625ZM90.8906 25.125V30H89.7188V25.5586C89.7188 24.9727 89.4668 24.6387 89.0332 24.6387C88.582 24.6387 88.3008 25.0195 88.3008 25.623V30H87.1348V25.5586C87.1348 24.9668 86.8887 24.6387 86.4492 24.6387C85.9922 24.6387 85.6992 25.0195 85.6992 25.623V30H84.5273V23.584H85.7227V24.5449H85.8691C86.0156 23.8477 86.4668 23.4551 87.082 23.4551C87.6797 23.4551 88.0898 23.8359 88.2246 24.5098H88.3711C88.5176 23.8535 88.9922 23.4551 89.6191 23.4551C90.4512 23.4551 90.8906 24.0352 90.8906 25.125ZM94.957 25.2246H95.1562C95.4199 23.9883 96.1348 23.4141 97.3535 23.4141C97.7168 23.4141 98.0508 23.4609 98.2734 23.5488V25.0312C97.9863 24.9199 97.5645 24.8496 97.2129 24.8496C95.7305 24.8496 94.9512 25.6582 94.9512 27.1406V28.9805H96.8613V30H92.3906V28.9805H93.6387V24.6035H92.2676V23.584H94.957V25.2246Z" fill="white"/>
<rect x="112" y="16" width="40" height="20" rx="4" fill="#70737C" fill-opacity="0.22"/>
<path d="M119.285 26.2734V27.2754C119.285 28.2832 119.854 28.9102 120.773 28.9102C121.688 28.9102 122.256 28.2832 122.256 27.2754V26.2734C122.256 25.2598 121.688 24.6328 120.773 24.6328C119.854 24.6328 119.285 25.2656 119.285 26.2734ZM122.25 28.9453H122.133C121.863 29.6953 121.213 30.0996 120.281 30.0996C118.811 30.0996 117.896 29.0684 117.896 27.3574V26.2148C117.896 24.5098 118.811 23.4727 120.281 23.4727C121.207 23.4727 121.869 23.8887 122.109 24.6328H122.227V21.1055H123.633V30H122.25V28.9453ZM125.52 30V23.584H126.838V24.6797H126.932C127.26 23.8945 127.969 23.4551 128.912 23.4551C130.307 23.4551 131.062 24.2871 131.062 25.8398V30H129.697V26.1738C129.697 25.1426 129.275 24.6504 128.396 24.6504C127.482 24.6504 126.885 25.2891 126.885 26.2617V30H125.52ZM135.709 30.1289C133.939 30.1289 132.82 29.0273 132.82 27.2812V26.3027C132.82 24.5566 133.939 23.4551 135.709 23.4551C137.479 23.4551 138.598 24.5566 138.598 26.3027V27.2812C138.598 29.0273 137.479 30.1289 135.709 30.1289ZM135.709 24.5859C134.76 24.5859 134.168 25.2715 134.168 26.3789V27.2051C134.168 28.3125 134.76 28.998 135.709 28.998C136.658 28.998 137.25 28.3125 137.25 27.2051V26.3789C137.25 25.2715 136.658 24.5859 135.709 24.5859ZM146.309 25.125V30H145.137V25.5586C145.137 24.9727 144.885 24.6387 144.451 24.6387C144 24.6387 143.719 25.0195 143.719 25.623V30H142.553V25.5586C142.553 24.9668 142.307 24.6387 141.867 24.6387C141.41 24.6387 141.117 25.0195 141.117 25.623V30H139.945V23.584H141.141V24.5449H141.287C141.434 23.8477 141.885 23.4551 142.5 23.4551C143.098 23.4551 143.508 23.8359 143.643 24.5098H143.789C143.936 23.8535 144.41 23.4551 145.037 23.4551C145.869 23.4551 146.309 24.0352 146.309 25.125Z" fill="white"/>
<rect x="160" y="16" width="40" height="20" rx="4" fill="#70737C" fill-opacity="0.22"/>
<path d="M166.377 25.4004C166.377 24.2051 167.361 23.4434 168.879 23.4434C170.35 23.4434 171.281 24.123 171.369 25.2773H170.08C169.986 24.7969 169.523 24.498 168.861 24.498C168.176 24.498 167.725 24.8145 167.725 25.2949C167.725 25.7051 168.018 25.9395 168.715 26.0918L169.67 26.2969C170.953 26.5723 171.521 27.1172 171.521 28.0781C171.521 29.3262 170.496 30.1289 168.885 30.1289C167.314 30.1289 166.318 29.4316 166.225 28.2715H167.578C167.695 28.7754 168.182 29.0625 168.908 29.0625C169.652 29.0625 170.121 28.7344 170.121 28.2363C170.121 27.8145 169.852 27.5977 169.119 27.4395L168.158 27.2285C166.975 26.9648 166.377 26.3555 166.377 25.4004ZM176.391 22.1602C175.811 22.1602 175.4 21.7793 175.4 21.2285C175.4 20.6777 175.811 20.2969 176.391 20.2969C176.977 20.2969 177.387 20.6777 177.387 21.2285C177.387 21.7793 176.977 22.1602 176.391 22.1602ZM179.115 30H173.654V28.9102H175.77V24.6738H173.725V23.584H177.1V28.9102H179.115V30ZM180.938 30V23.584H182.256V24.6797H182.35C182.678 23.8945 183.387 23.4551 184.33 23.4551C185.725 23.4551 186.48 24.2871 186.48 25.8398V30H185.115V26.1738C185.115 25.1426 184.693 24.6504 183.814 24.6504C182.9 24.6504 182.303 25.2891 182.303 26.2617V30H180.938ZM190.09 30V24.7266H188.373V23.625H190.09V23.0918C190.09 21.7266 190.805 21.1641 192.48 21.1641C192.721 21.1641 193.975 21.1875 194.109 21.2051V22.2305C193.928 22.2129 192.744 22.1953 192.51 22.1953C191.795 22.1953 191.426 22.4766 191.426 23.0215V23.625H194.109V24.7266H191.449V30H190.09Z" fill="white"/>
<rect x="208" y="16" width="40" height="20" rx="4" fill="#70737C" fill-opacity="0.22"/>
<path d="M214.377 25.4004C214.377 24.2051 215.361 23.4434 216.879 23.4434C218.35 23.4434 219.281 24.123 219.369 25.2773H218.08C217.986 24.7969 217.523 24.498 216.861 24.498C216.176 24.498 215.725 24.8145 215.725 25.2949C215.725 25.7051 216.018 25.9395 216.715 26.0918L217.67 26.2969C218.953 26.5723 219.521 27.1172 219.521 28.0781C219.521 29.3262 218.496 30.1289 216.885 30.1289C215.314 30.1289 214.318 29.4316 214.225 28.2715H215.578C215.695 28.7754 216.182 29.0625 216.908 29.0625C217.652 29.0625 218.121 28.7344 218.121 28.2363C218.121 27.8145 217.852 27.5977 217.119 27.4395L216.158 27.2285C214.975 26.9648 214.377 26.3555 214.377 25.4004ZM227.062 23.584V30H225.744V28.9043H225.65C225.322 29.6895 224.613 30.1289 223.67 30.1289C222.275 30.1289 221.52 29.2969 221.52 27.7383V23.584H222.885V27.4102C222.885 28.4414 223.307 28.9277 224.186 28.9277C225.1 28.9277 225.697 28.2949 225.697 27.3223V23.584H227.062ZM232.301 23.4785C233.777 23.4785 234.691 24.5156 234.691 26.2207V27.3633C234.691 29.0742 233.777 30.1113 232.301 30.1113C231.375 30.1113 230.719 29.6895 230.479 28.9512H230.361V32.1504H228.955V23.584H230.338V24.6387H230.455C230.725 23.8887 231.375 23.4785 232.301 23.4785ZM231.814 24.6738C230.9 24.6738 230.332 25.3008 230.332 26.3086V27.3164C230.332 28.3242 230.9 28.9512 231.814 28.9512C232.734 28.9512 233.303 28.3184 233.303 27.3164V26.3086C233.303 25.3008 232.734 24.6738 231.814 24.6738ZM236.631 25.4004C236.631 24.2051 237.615 23.4434 239.133 23.4434C240.604 23.4434 241.535 24.123 241.623 25.2773H240.334C240.24 24.7969 239.777 24.498 239.115 24.498C238.43 24.498 237.979 24.8145 237.979 25.2949C237.979 25.7051 238.271 25.9395 238.969 26.0918L239.924 26.2969C241.207 26.5723 241.775 27.1172 241.775 28.0781C241.775 29.3262 240.75 30.1289 239.139 30.1289C237.568 30.1289 236.572 29.4316 236.479 28.2715H237.832C237.949 28.7754 238.436 29.0625 239.162 29.0625C239.906 29.0625 240.375 28.7344 240.375 28.2363C240.375 27.8145 240.105 27.5977 239.373 27.4395L238.412 27.2285C237.229 26.9648 236.631 26.3555 236.631 25.4004Z" fill="white"/>
<rect x="256" y="16" width="40" height="20" rx="4" fill="#70737C" fill-opacity="0.22"/>
<path d="M262.377 25.4004C262.377 24.2051 263.361 23.4434 264.879 23.4434C266.35 23.4434 267.281 24.123 267.369 25.2773H266.08C265.986 24.7969 265.523 24.498 264.861 24.498C264.176 24.498 263.725 24.8145 263.725 25.2949C263.725 25.7051 264.018 25.9395 264.715 26.0918L265.67 26.2969C266.953 26.5723 267.521 27.1172 267.521 28.0781C267.521 29.3262 266.496 30.1289 264.885 30.1289C263.314 30.1289 262.318 29.4316 262.225 28.2715H263.578C263.695 28.7754 264.182 29.0625 264.908 29.0625C265.652 29.0625 266.121 28.7344 266.121 28.2363C266.121 27.8145 265.852 27.5977 265.119 27.4395L264.158 27.2285C262.975 26.9648 262.377 26.3555 262.377 25.4004ZM275.062 23.584V30H273.744V28.9043H273.65C273.322 29.6895 272.613 30.1289 271.67 30.1289C270.275 30.1289 269.52 29.2969 269.52 27.7383V23.584H270.885V27.4102C270.885 28.4414 271.307 28.9277 272.186 28.9277C273.1 28.9277 273.697 28.2949 273.697 27.3223V23.584H275.062ZM280.301 30.0996C279.369 30.0996 278.719 29.6953 278.455 28.9453H278.338V30H276.949V21.1055H278.361V24.6328H278.479C278.719 23.8887 279.375 23.4727 280.301 23.4727C281.777 23.4727 282.686 24.5098 282.686 26.2148V27.3574C282.686 29.0684 281.777 30.0996 280.301 30.0996ZM279.814 28.9102C280.729 28.9102 281.303 28.2832 281.303 27.2754V26.2734C281.303 25.2656 280.729 24.6328 279.814 24.6328C278.9 24.6328 278.326 25.2598 278.326 26.2734V27.2754C278.326 28.2832 278.9 28.9102 279.814 28.9102ZM284.631 25.4004C284.631 24.2051 285.615 23.4434 287.133 23.4434C288.604 23.4434 289.535 24.123 289.623 25.2773H288.334C288.24 24.7969 287.777 24.498 287.115 24.498C286.43 24.498 285.979 24.8145 285.979 25.2949C285.979 25.7051 286.271 25.9395 286.969 26.0918L287.924 26.2969C289.207 26.5723 289.775 27.1172 289.775 28.0781C289.775 29.3262 288.75 30.1289 287.139 30.1289C285.568 30.1289 284.572 29.4316 284.479 28.2715H285.832C285.949 28.7754 286.436 29.0625 287.162 29.0625C287.906 29.0625 288.375 28.7344 288.375 28.2363C288.375 27.8145 288.105 27.5977 287.373 27.4395L286.412 27.2285C285.229 26.9648 284.631 26.3555 284.631 25.4004Z" fill="white"/>
<rect x="16" y="52" width="288" height="1" fill="#70737C" fill-opacity="0.28"/>
<path d="M17 79.2188C21 76.4844 22.8281 74.3438 22.8281 72.4375C22.8281 71.0469 21.8906 70.25 20.5469 70.25C19.5 70.25 18.7344 70.7344 18.3125 72.125L17 71.75C17.5938 69.7969 18.9219 68.9688 20.5469 68.9688C22.6094 68.9688 24.2031 70.2969 24.2031 72.4375C24.2031 74.6406 22.3438 76.8047 19.2031 79.1562V79.2188H24.375V80.5H17V79.2188ZM26.6875 83.875H25.375L28.75 69.1875H30.0625L26.6875 83.875ZM31 71.1875C31.8906 70.6562 32.7812 70 33.7188 69.1875H35.0625V80.5H33.7188V70.9219H33.6562C32.7891 71.6094 31.8828 72.2109 31 72.6719V71.1875ZM41.8125 80.7188C39.9375 80.7188 38.5625 79.7656 37.75 78.0781L38.9844 77.5156C39.6094 78.8125 40.5469 79.4375 41.8125 79.4375C43.3281 79.4375 44.4375 78.5469 44.4375 77.3125C44.4375 76 43.1875 75.2031 41.125 75.2031H40.75V73.9219H41.125C42.9219 73.9219 43.9844 73.25 43.9844 72.0938C43.9844 71.0156 43.0625 70.25 41.7812 70.25C40.6875 70.25 39.8281 70.8125 39.3125 71.875L38.0781 71.3125C38.8281 69.7656 40.1875 68.9688 41.7812 68.9688C43.8281 68.9688 45.3594 70.2969 45.3594 72.0625C45.3594 73.2969 44.6094 74.1406 43.2188 74.5312V74.5781C44.8672 75.0234 45.8125 76.0156 45.8125 77.4062C45.8125 79.2969 44.0938 80.7188 41.8125 80.7188ZM16.9375 96.1875C17.8281 95.6562 18.7188 95 19.6562 94.1875H21V105.5H19.6562V95.9219H19.5938C18.7266 96.6094 17.8203 97.2109 16.9375 97.6719V96.1875ZM23.875 104.219C27.875 101.484 29.7031 99.3438 29.7031 97.4375C29.7031 96.0469 28.7656 95.25 27.4219 95.25C26.375 95.25 25.6094 95.7344 25.1875 97.125L23.875 96.75C24.4688 94.7969 25.7969 93.9688 27.4219 93.9688C29.4844 93.9688 31.0781 95.2969 31.0781 97.4375C31.0781 99.6406 29.2188 101.805 26.0781 104.156V104.219H31.25V105.5H23.875V104.219ZM37.125 105.719C35.25 105.719 33.875 104.766 33.0625 103.078L34.2969 102.516C34.9219 103.812 35.8594 104.438 37.125 104.438C38.6406 104.438 39.75 103.547 39.75 102.312C39.75 101 38.5 100.203 36.4375 100.203H36.0625V98.9219H36.4375C38.2344 98.9219 39.2969 98.25 39.2969 97.0938C39.2969 96.0156 38.375 95.25 37.0938 95.25C36 95.25 35.1406 95.8125 34.625 96.875L33.3906 96.3125C34.1406 94.7656 35.5 93.9688 37.0938 93.9688C39.1406 93.9688 40.6719 95.2969 40.6719 97.0625C40.6719 98.2969 39.9219 99.1406 38.5312 99.5312V99.5781C40.1797 100.023 41.125 101.016 41.125 102.406C41.125 104.297 39.4062 105.719 37.125 105.719ZM42.6875 102.953V101.672L47.0781 94.1875H48.6094L44.2969 101.562V101.672H48.2656V98.125H49.6094V101.672H51.375V102.953H49.6094V105.5H48.2656V102.953H42.6875ZM53.1406 100.703L53.7344 94.1719H60.0625V95.4531H55L54.625 99.3594H54.6875C55.2969 98.6094 56.2031 98.1562 57.25 98.1562C59.2188 98.1562 60.8125 99.7656 60.8125 101.938C60.8125 104.156 59.1562 105.719 56.8125 105.719C55.0156 105.719 53.5781 104.781 52.75 103.078L53.9844 102.516C54.6094 103.812 55.5625 104.438 56.8125 104.438C58.3906 104.438 59.4375 103.438 59.4375 101.938C59.4375 100.438 58.3906 99.4375 56.8281 99.4375C55.75 99.4375 54.9141 99.9141 54.5 100.703H53.1406ZM62.6875 108.875H61.375L64.75 94.1875H66.0625L62.6875 108.875ZM71.0469 105.719C68.3594 105.719 66.875 103.547 66.875 100.109C66.875 96.1562 68.8125 93.9688 71.3906 93.9688C72.7812 93.9688 74 94.6094 74.75 95.7031L73.5938 96.4219C73.0781 95.625 72.2344 95.25 71.3906 95.25C69.7031 95.25 68.3516 96.7422 68.2656 99.7656H68.3281C68.9609 98.7656 70.0469 98.1562 71.3281 98.1562C73.3594 98.1562 74.9375 99.7188 74.9375 101.938C74.9375 104.172 73.3281 105.719 71.0469 105.719ZM71.0469 104.438C72.5156 104.438 73.5625 103.406 73.5625 101.938C73.5625 100.469 72.5156 99.4375 71.0469 99.4375C69.5781 99.4375 68.5312 100.469 68.5312 101.938C68.5312 103.406 69.5781 104.438 71.0469 104.438ZM76.6875 95.4688V94.1875H84.125V95.4688C81.7188 98.4062 80.4062 101.703 80.0938 105.5H78.8125C79.0938 101.789 80.2812 98.5 82.4531 95.5312V95.4688H76.6875ZM89.6562 104.438C91.2188 104.438 92.3125 103.562 92.3125 102.312C92.3125 101.062 91.2188 100.188 89.6562 100.188C88.0938 100.188 87 101.062 87 102.312C87 103.562 88.0938 104.438 89.6562 104.438ZM89.6562 98.9375C90.8281 98.9375 91.6562 98.1719 91.6562 97.0938C91.6562 96.0156 90.8281 95.25 89.6562 95.25C88.4844 95.25 87.6562 96.0156 87.6562 97.0938C87.6562 98.1719 88.4844 98.9375 89.6562 98.9375ZM85.625 102.375C85.625 101.07 86.4688 99.9609 88 99.5V99.4531C86.8984 99.0547 86.2969 98.2031 86.2969 97.0625C86.2969 95.2969 87.7344 93.9688 89.6562 93.9688C91.5781 93.9688 93.0156 95.2969 93.0156 97.0625C93.0156 98.2031 92.4141 99.0547 91.3125 99.4531V99.5C92.8516 99.9609 93.6875 101.07 93.6875 102.375C93.6875 104.266 91.9531 105.719 89.6562 105.719C87.3594 105.719 85.625 104.266 85.625 102.375ZM98.8594 105.719C97.4531 105.719 96.3125 105.047 95.4375 103.75L96.5625 103.031C97.25 104.016 97.9531 104.438 98.8594 104.438C100.547 104.438 101.898 102.945 102 99.9219H101.938C101.289 100.922 100.203 101.531 98.9219 101.531C96.8906 101.531 95.3125 99.9688 95.3125 97.75C95.3125 95.5156 96.9219 93.9688 99.2031 93.9688C101.891 93.9688 103.375 96.1406 103.375 99.5781C103.375 103.531 101.438 105.719 98.8594 105.719ZM99.2031 100.25C100.672 100.25 101.719 99.2188 101.719 97.75C101.719 96.2812 100.672 95.25 99.2031 95.25C97.7344 95.25 96.6875 96.2812 96.6875 97.75C96.6875 99.2188 97.7344 100.25 99.2031 100.25ZM109.188 105.719C106.609 105.719 105 103.453 105 99.8438C105 96.2344 106.609 93.9688 109.188 93.9688C111.766 93.9688 113.375 96.2344 113.375 99.8438C113.375 103.453 111.766 105.719 109.188 105.719ZM109.188 104.438C110.906 104.438 112 102.656 112 99.8438C112 97.0312 110.906 95.25 109.188 95.25C107.469 95.25 106.375 97.0312 106.375 99.8438C106.375 102.656 107.469 104.438 109.188 104.438Z" fill="#B0B0B0" fill-opacity="0.28"/>
<path d="M164.5 73.8594C166.484 72.625 167.297 71.75 167.297 70.9219C167.297 70.375 166.938 70.0312 166.391 70.0312C165.953 70.0312 165.641 70.2656 165.484 70.8594L164.453 70.5938C164.734 69.5469 165.453 69.0625 166.391 69.0625C167.594 69.0625 168.359 69.8594 168.359 70.9062C168.359 71.9141 167.562 72.8516 166.156 73.8125V73.8438H168.438V74.8125H164.5V73.8594ZM165.562 80.5L172.906 69.1875H174.219L166.875 80.5H165.562ZM171.328 75.9062C171.781 75.625 172.219 75.2969 172.688 74.875H173.75V80.5H172.688V76.1094H172.672C172.219 76.4609 171.758 76.7812 171.328 77.0156V75.9062ZM177 80.625C175.906 80.625 175.156 80.0938 174.812 79.1875L175.812 78.8594C176.031 79.4062 176.422 79.6875 176.984 79.6875C177.609 79.6875 178.078 79.3281 178.078 78.8281C178.078 78.2969 177.562 77.9688 176.703 77.9688H176.516V77.1406H176.703C177.438 77.1406 177.891 76.875 177.891 76.4219C177.891 76 177.516 75.6875 176.969 75.6875C176.469 75.6875 176.125 75.9531 175.953 76.4062L174.953 76.0781C175.297 75.1719 176.062 74.75 177 74.75C178.125 74.75 178.969 75.3906 178.969 76.2969C178.969 76.8984 178.586 77.3281 177.906 77.5312V77.5625C178.703 77.7969 179.156 78.2891 179.156 78.9688C179.156 79.9375 178.234 80.625 177 80.625ZM164.438 95.2188C164.891 94.9375 165.328 94.6094 165.797 94.1875H166.859V99.8125H165.797V95.4219H165.781C165.328 95.7734 164.867 96.0938 164.438 96.3281V95.2188ZM168.234 98.8594C170.219 97.625 171.031 96.75 171.031 95.9219C171.031 95.375 170.672 95.0312 170.125 95.0312C169.688 95.0312 169.375 95.2656 169.219 95.8594L168.188 95.5938C168.469 94.5469 169.188 94.0625 170.125 94.0625C171.328 94.0625 172.094 94.8594 172.094 95.9062C172.094 96.9141 171.297 97.8516 169.891 98.8125V98.8438H172.172V99.8125H168.234V98.8594ZM175.156 99.9375C174.062 99.9375 173.312 99.4062 172.969 98.5L173.969 98.1719C174.188 98.7188 174.578 99 175.141 99C175.766 99 176.234 98.6406 176.234 98.1406C176.234 97.6094 175.719 97.2812 174.859 97.2812H174.672V96.4531H174.859C175.594 96.4531 176.047 96.1875 176.047 95.7344C176.047 95.3125 175.672 95 175.125 95C174.625 95 174.281 95.2656 174.109 95.7188L173.109 95.3906C173.453 94.4844 174.219 94.0625 175.156 94.0625C176.281 94.0625 177.125 94.7031 177.125 95.6094C177.125 96.2109 176.742 96.6406 176.062 96.8438V96.875C176.859 97.1094 177.312 97.6016 177.312 98.2812C177.312 99.25 176.391 99.9375 175.156 99.9375ZM178.047 98.6562V97.6875L180.078 94.1875H181.25L179.25 97.6562V97.6875H180.781V96.2188H181.812V97.6875H182.656V98.6562H181.812V99.8125H180.781V98.6562H178.047ZM183.453 97.5L183.781 94.1875H187.25V95.1562H184.719L184.562 96.6562H184.594C184.906 96.2969 185.344 96.0938 185.828 96.0938C186.75 96.0938 187.625 96.8438 187.625 97.9688C187.625 99.125 186.734 99.9375 185.484 99.9375C184.531 99.9375 183.672 99.4531 183.297 98.5625L184.281 98.1875C184.516 98.75 184.969 99 185.469 99C186.125 99 186.562 98.5938 186.562 97.9844C186.562 97.375 186.125 96.9688 185.484 96.9688C185.031 96.9688 184.68 97.1719 184.5 97.5H183.453ZM184.656 105.5L192 94.1875H193.312L185.969 105.5H184.656ZM192.594 105.625C191.203 105.625 190.344 104.5 190.344 102.797C190.344 100.906 191.391 99.75 192.812 99.75C193.5 99.75 194.125 100.031 194.547 100.516L193.781 101.203C193.531 100.891 193.172 100.75 192.812 100.75C192.039 100.75 191.461 101.359 191.422 102.547H191.453C191.773 102.086 192.289 101.797 192.891 101.797C193.906 101.797 194.672 102.609 194.672 103.672C194.672 104.797 193.781 105.625 192.594 105.625ZM192.594 104.688C193.188 104.688 193.609 104.266 193.609 103.672C193.609 103.094 193.188 102.672 192.594 102.672C191.984 102.672 191.562 103.094 191.562 103.672C191.562 104.266 191.984 104.688 192.594 104.688ZM195.312 100.844V99.875H199.281V100.781C198.125 102.297 197.438 103.672 197.297 105.5H196.25C196.375 103.703 196.969 102.281 197.984 100.875V100.844H195.312ZM201.969 104.734C202.609 104.734 203.047 104.359 203.047 103.844C203.047 103.312 202.594 102.938 201.969 102.938C201.344 102.938 200.891 103.312 200.891 103.844C200.891 104.359 201.328 104.734 201.969 104.734ZM201.969 102.156C202.438 102.156 202.797 101.844 202.797 101.391C202.797 100.953 202.453 100.641 201.969 100.641C201.484 100.641 201.125 100.953 201.125 101.391C201.125 101.844 201.484 102.156 201.969 102.156ZM199.797 103.953C199.797 103.312 200.219 102.789 200.953 102.531V102.5C200.383 102.281 200.062 101.852 200.062 101.297C200.062 100.391 200.875 99.75 201.969 99.75C203.062 99.75 203.875 100.391 203.875 101.297C203.875 101.859 203.555 102.289 202.969 102.5V102.531C203.711 102.781 204.125 103.312 204.125 103.953C204.125 104.922 203.203 105.625 201.969 105.625C200.719 105.625 199.797 104.922 199.797 103.953ZM206.578 105.625C205.875 105.625 205.25 105.328 204.781 104.766L205.516 104.094C205.844 104.5 206.203 104.641 206.562 104.641C207.32 104.641 207.898 104.016 207.938 102.828H207.906C207.586 103.289 207.07 103.578 206.469 103.578C205.453 103.578 204.688 102.766 204.688 101.703C204.688 100.578 205.578 99.75 206.781 99.75C208.172 99.75 209.016 100.891 209.016 102.578C209.016 104.469 207.984 105.625 206.578 105.625ZM206.781 102.703C207.375 102.703 207.812 102.297 207.812 101.703C207.812 101.109 207.375 100.688 206.781 100.688C206.172 100.688 205.75 101.109 205.75 101.703C205.75 102.281 206.172 102.703 206.781 102.703ZM212.016 105.625C210.609 105.625 209.734 104.484 209.734 102.688C209.734 100.891 210.609 99.75 212.016 99.75C213.422 99.75 214.297 100.891 214.297 102.688C214.297 104.484 213.422 105.625 212.016 105.625ZM212.016 104.625C212.766 104.625 213.234 103.891 213.234 102.688C213.234 101.484 212.766 100.75 212.016 100.75C211.266 100.75 210.797 101.469 210.797 102.688C210.797 103.906 211.266 104.625 212.016 104.625Z" fill="#3385FF"/>
</svg>
