<svg width="320" height="147" viewBox="0 0 320 147" fill="none" xmlns="http://www.w3.org/2000/svg">
<rect x="0.5" y="0.5" width="319" height="146" rx="7.5" stroke="#70737C" stroke-opacity="0.28"/>
<rect x="16" y="16" width="40" height="20" rx="4" fill="#70737C" fill-opacity="0.22"/>
<path d="M27.6973 30H22.2363V28.9102H24.3398V22.1953H22.3066V21.1055H25.6992V28.9102H27.6973V30ZM32.3906 22.1602C31.8105 22.1602 31.4004 21.7793 31.4004 21.2285C31.4004 20.6777 31.8105 20.2969 32.3906 20.2969C32.9766 20.2969 33.3867 20.6777 33.3867 21.2285C33.3867 21.7793 32.9766 22.1602 32.3906 22.1602ZM35.1152 30H29.6543V28.9102H31.7695V24.6738H29.7246V23.584H33.0996V28.9102H35.1152V30ZM38.0508 27.1758C38.0508 28.1777 38.6426 28.8164 39.5684 28.8164C40.4883 28.8164 41.0801 28.1777 41.0801 27.1758V26.2734C41.0801 25.2715 40.4883 24.6328 39.5684 24.6328C38.6426 24.6328 38.0508 25.2715 38.0508 26.2734V27.1758ZM39.5273 32.4141C37.9336 32.4141 36.8789 31.7285 36.7617 30.6211H38.0977C38.2148 31.084 38.7832 31.3828 39.5449 31.3828C40.5469 31.3828 41.0918 30.9023 41.0918 30.0059V28.8457H40.9746C40.7461 29.5547 40.0078 30.0059 39.0645 30.0059C37.582 30.0059 36.6621 28.957 36.6621 27.2637V26.2148C36.6621 24.5098 37.5938 23.4727 39.1172 23.4727C40.0488 23.4727 40.7637 23.918 40.998 24.6328H41.1152V23.584H42.457V29.9941C42.457 31.5 41.3496 32.4141 39.5273 32.4141ZM46.3477 30.1055C45.1289 30.1055 44.3145 29.332 44.3145 28.1719C44.3145 27.0234 45.1465 26.3438 46.6816 26.25L48.2871 26.1562V25.6172C48.2871 24.9551 47.8594 24.5801 47.1094 24.5801C46.4824 24.5801 46.0254 24.8496 45.8848 25.3184H44.5488C44.666 24.2109 45.7031 23.4785 47.1445 23.4785C48.7324 23.4785 49.6348 24.2578 49.6348 25.6289V30H48.3398V29.1035H48.2168C47.9062 29.7422 47.2207 30.1055 46.3477 30.1055ZM46.7871 28.9922C47.6543 28.9922 48.2871 28.4355 48.2871 27.6621V27.0762L46.8867 27.1523C46.084 27.1992 45.668 27.5215 45.668 28.0898C45.668 28.6465 46.1016 28.9922 46.7871 28.9922Z" fill="white"/>
<rect x="16" y="52" width="288" height="1" fill="#70737C" fill-opacity="0.28"/>
<path d="M19 80.5L16.2969 72.4375H17.6562L19.7812 79.0938H19.8281L21.6719 72.4375H22.9844L24.8281 79.0938H24.8906L27 72.4375H28.3594L25.6562 80.5H24.0156L22.3594 74.8906H22.3125L20.6406 80.5H19ZM32.9844 79.4688C34.5156 79.4688 35.6094 78.2344 35.6094 76.4688C35.6094 74.7031 34.5156 73.4688 32.9844 73.4688C31.4375 73.4688 30.3594 74.7188 30.3594 76.4688C30.3594 78.2188 31.4375 79.4688 32.9844 79.4688ZM36.8594 80.5H35.5469V79.2344H35.5C34.9453 80.1953 34.0469 80.7188 32.8594 80.7188C30.625 80.7188 29.0156 78.8906 29.0156 76.4688C29.0156 74.0469 30.625 72.2188 32.8594 72.2188C34.0469 72.2188 34.9453 72.7422 35.5 73.7031H35.5469V72.4375H36.8594V80.5ZM38.9531 80.5V72.4375H40.2656V73.6094H40.3281C40.7188 72.75 41.5859 72.2188 42.7344 72.2188C44.5312 72.2188 45.5156 73.4844 45.5156 75.5625V80.5H44.2031V75.75C44.2031 74.2656 43.5781 73.4688 42.4531 73.4688C41.3281 73.4688 40.2656 74.2656 40.2656 76V80.5H38.9531ZM46.7344 73.5312V72.4375H48.1094V70.4375H49.4219V72.4375H51.4219V73.5312H49.4219V78.1562C49.4219 79.0312 49.7969 79.4375 50.6094 79.4375C50.8594 79.4375 51.1406 79.3906 51.4219 79.3125V80.5469C51.1719 80.6406 50.8281 80.7188 50.4219 80.7188C49 80.7188 48.1094 79.75 48.1094 78.2031V73.5312H46.7344ZM56.8438 80.7188C54.4219 80.7188 52.6406 78.8906 52.6406 76.4688C52.6406 74.0469 54.375 72.2188 56.6875 72.2188C59 72.2188 60.6094 74.0469 60.6094 76.4688L60.5938 76.9219H54.0156C54.1953 78.4688 55.3359 79.4688 56.875 79.4688C57.9844 79.4688 58.7812 78.9453 59.1875 78.0781L60.3438 78.5781C59.7266 79.875 58.5 80.7188 56.8438 80.7188ZM54.0781 75.6406H59.1719C59.0781 74.4141 58.0781 73.4688 56.6875 73.4688C55.3594 73.4688 54.3672 74.3281 54.0781 75.6406ZM69.7969 80.5H68.4844V79.2344H68.4375C67.8828 80.1953 66.9844 80.7188 65.7969 80.7188C63.5625 80.7188 61.9531 78.8906 61.9531 76.4688C61.9531 74.0469 63.5625 72.2188 65.7969 72.2188C66.9844 72.2188 67.8828 72.7422 68.4375 73.7031H68.4844V69.1875H69.7969V80.5ZM65.9219 79.4688C67.4531 79.4688 68.5469 78.2344 68.5469 76.4688C68.5469 74.7031 67.4531 73.4688 65.9219 73.4688C64.375 73.4688 63.2969 74.7188 63.2969 76.4688C63.2969 78.2188 64.375 79.4688 65.9219 79.4688ZM78.8438 81.25V82.5312H70.8438V81.25H78.8438ZM79.8906 80.5V69.1875H81.2031V80.5H79.8906ZM87.0625 80.7188C84.7031 80.7188 82.9219 78.8906 82.9219 76.4688C82.9219 74.0469 84.7031 72.2188 87.0625 72.2188C89.4219 72.2188 91.2031 74.0469 91.2031 76.4688C91.2031 78.8906 89.4219 80.7188 87.0625 80.7188ZM87.0625 79.4688C88.7031 79.4688 89.8594 78.2344 89.8594 76.4688C89.8594 74.7031 88.7031 73.4688 87.0625 73.4688C85.4219 73.4688 84.2656 74.7031 84.2656 76.4688C84.2656 78.2344 85.4219 79.4688 87.0625 79.4688ZM96.5156 79.2188C98.0469 79.2188 99.1406 78.0312 99.1406 76.3438C99.1406 74.6562 98.0469 73.4688 96.5156 73.4688C94.9688 73.4688 93.8906 74.6719 93.8906 76.3438C93.8906 78.0156 94.9688 79.2188 96.5156 79.2188ZM96.3594 84.0938C94.7656 84.0938 93.5938 83.4219 92.7188 82.0625L93.8125 81.375C94.5 82.4219 95.25 82.8438 96.3594 82.8438C98.125 82.8438 99.0781 81.7656 99.0781 79.6875V79.0312H99.0156C98.4766 79.9688 97.5781 80.4688 96.3906 80.4688C94.1562 80.4688 92.5469 78.6875 92.5469 76.3438C92.5469 74 94.1562 72.2188 96.3906 72.2188C97.5781 72.2188 98.4766 72.7188 99.0156 73.6562H99.0781V72.4375H100.391V79.6875C100.391 82.4844 98.8438 84.0938 96.3594 84.0938ZM106.25 80.7188C103.891 80.7188 102.109 78.8906 102.109 76.4688C102.109 74.0469 103.891 72.2188 106.25 72.2188C108.609 72.2188 110.391 74.0469 110.391 76.4688C110.391 78.8906 108.609 80.7188 106.25 80.7188ZM106.25 79.4688C107.891 79.4688 109.047 78.2344 109.047 76.4688C109.047 74.7031 107.891 73.4688 106.25 73.4688C104.609 73.4688 103.453 74.7031 103.453 76.4688C103.453 78.2344 104.609 79.4688 106.25 79.4688ZM116.172 83.875V69.1875H117.422V83.875H116.172ZM123.641 80.5V69.1875H125.016V73.9219H131.016V69.1875H132.391V80.5H131.016V75.2031H125.016V80.5H123.641ZM19 105.5L16.2969 97.4375H17.6562L19.7812 104.094H19.8281L21.6719 97.4375H22.9844L24.8281 104.094H24.8906L27 97.4375H28.3594L25.6562 105.5H24.0156L22.3594 99.8906H22.3125L20.6406 105.5H19ZM32.9844 104.469C34.5156 104.469 35.6094 103.234 35.6094 101.469C35.6094 99.7031 34.5156 98.4688 32.9844 98.4688C31.4375 98.4688 30.3594 99.7188 30.3594 101.469C30.3594 103.219 31.4375 104.469 32.9844 104.469ZM36.8594 105.5H35.5469V104.234H35.5C34.9453 105.195 34.0469 105.719 32.8594 105.719C30.625 105.719 29.0156 103.891 29.0156 101.469C29.0156 99.0469 30.625 97.2188 32.8594 97.2188C34.0469 97.2188 34.9453 97.7422 35.5 98.7031H35.5469V97.4375H36.8594V105.5ZM38.9531 105.5V97.4375H40.2656V98.6094H40.3281C40.7188 97.75 41.5859 97.2188 42.7344 97.2188C44.5312 97.2188 45.5156 98.4844 45.5156 100.562V105.5H44.2031V100.75C44.2031 99.2656 43.5781 98.4688 42.4531 98.4688C41.3281 98.4688 40.2656 99.2656 40.2656 101V105.5H38.9531ZM46.7344 98.5312V97.4375H48.1094V95.4375H49.4219V97.4375H51.4219V98.5312H49.4219V103.156C49.4219 104.031 49.7969 104.438 50.6094 104.438C50.8594 104.438 51.1406 104.391 51.4219 104.312V105.547C51.1719 105.641 50.8281 105.719 50.4219 105.719C49 105.719 48.1094 104.75 48.1094 103.203V98.5312H46.7344ZM56.8438 105.719C54.4219 105.719 52.6406 103.891 52.6406 101.469C52.6406 99.0469 54.375 97.2188 56.6875 97.2188C59 97.2188 60.6094 99.0469 60.6094 101.469L60.5938 101.922H54.0156C54.1953 103.469 55.3359 104.469 56.875 104.469C57.9844 104.469 58.7812 103.945 59.1875 103.078L60.3438 103.578C59.7266 104.875 58.5 105.719 56.8438 105.719ZM54.0781 100.641H59.1719C59.0781 99.4141 58.0781 98.4688 56.6875 98.4688C55.3594 98.4688 54.3672 99.3281 54.0781 100.641ZM69.7969 105.5H68.4844V104.234H68.4375C67.8828 105.195 66.9844 105.719 65.7969 105.719C63.5625 105.719 61.9531 103.891 61.9531 101.469C61.9531 99.0469 63.5625 97.2188 65.7969 97.2188C66.9844 97.2188 67.8828 97.7422 68.4375 98.7031H68.4844V94.1875H69.7969V105.5ZM65.9219 104.469C67.4531 104.469 68.5469 103.234 68.5469 101.469C68.5469 99.7031 67.4531 98.4688 65.9219 98.4688C64.375 98.4688 63.2969 99.7188 63.2969 101.469C63.2969 103.219 64.375 104.469 65.9219 104.469ZM78.8438 106.25V107.531H70.8438V106.25H78.8438ZM79.8906 105.5V94.1875H81.2031V105.5H79.8906ZM87.0625 105.719C84.7031 105.719 82.9219 103.891 82.9219 101.469C82.9219 99.0469 84.7031 97.2188 87.0625 97.2188C89.4219 97.2188 91.2031 99.0469 91.2031 101.469C91.2031 103.891 89.4219 105.719 87.0625 105.719ZM87.0625 104.469C88.7031 104.469 89.8594 103.234 89.8594 101.469C89.8594 99.7031 88.7031 98.4688 87.0625 98.4688C85.4219 98.4688 84.2656 99.7031 84.2656 101.469C84.2656 103.234 85.4219 104.469 87.0625 104.469ZM96.5156 104.219C98.0469 104.219 99.1406 103.031 99.1406 101.344C99.1406 99.6562 98.0469 98.4688 96.5156 98.4688C94.9688 98.4688 93.8906 99.6719 93.8906 101.344C93.8906 103.016 94.9688 104.219 96.5156 104.219ZM96.3594 109.094C94.7656 109.094 93.5938 108.422 92.7188 107.062L93.8125 106.375C94.5 107.422 95.25 107.844 96.3594 107.844C98.125 107.844 99.0781 106.766 99.0781 104.688V104.031H99.0156C98.4766 104.969 97.5781 105.469 96.3906 105.469C94.1562 105.469 92.5469 103.688 92.5469 101.344C92.5469 99 94.1562 97.2188 96.3906 97.2188C97.5781 97.2188 98.4766 97.7188 99.0156 98.6562H99.0781V97.4375H100.391V104.688C100.391 107.484 98.8438 109.094 96.3594 109.094ZM106.25 105.719C103.891 105.719 102.109 103.891 102.109 101.469C102.109 99.0469 103.891 97.2188 106.25 97.2188C108.609 97.2188 110.391 99.0469 110.391 101.469C110.391 103.891 108.609 105.719 106.25 105.719ZM106.25 104.469C107.891 104.469 109.047 103.234 109.047 101.469C109.047 99.7031 107.891 98.4688 106.25 98.4688C104.609 98.4688 103.453 99.7031 103.453 101.469C103.453 103.234 104.609 104.469 106.25 104.469ZM115.422 105.5L119.453 99.8438L115.422 94.1875H117.047L120.297 98.7656H120.359L123.609 94.1875H125.234L121.203 99.8438L125.234 105.5H123.609L120.359 100.906H120.297L117.047 105.5H115.422ZM130.703 105.5V94.1875H132.078V98.9219H138.078V94.1875H139.453V105.5H138.078V100.203H132.078V105.5H130.703ZM19 130.5L16.2969 122.438H17.6562L19.7812 129.094H19.8281L21.6719 122.438H22.9844L24.8281 129.094H24.8906L27 122.438H28.3594L25.6562 130.5H24.0156L22.3594 124.891H22.3125L20.6406 130.5H19ZM32.9844 129.469C34.5156 129.469 35.6094 128.234 35.6094 126.469C35.6094 124.703 34.5156 123.469 32.9844 123.469C31.4375 123.469 30.3594 124.719 30.3594 126.469C30.3594 128.219 31.4375 129.469 32.9844 129.469ZM36.8594 130.5H35.5469V129.234H35.5C34.9453 130.195 34.0469 130.719 32.8594 130.719C30.625 130.719 29.0156 128.891 29.0156 126.469C29.0156 124.047 30.625 122.219 32.8594 122.219C34.0469 122.219 34.9453 122.742 35.5 123.703H35.5469V122.438H36.8594V130.5ZM38.9531 130.5V122.438H40.2656V123.609H40.3281C40.7188 122.75 41.5859 122.219 42.7344 122.219C44.5312 122.219 45.5156 123.484 45.5156 125.562V130.5H44.2031V125.75C44.2031 124.266 43.5781 123.469 42.4531 123.469C41.3281 123.469 40.2656 124.266 40.2656 126V130.5H38.9531ZM46.7344 123.531V122.438H48.1094V120.438H49.4219V122.438H51.4219V123.531H49.4219V128.156C49.4219 129.031 49.7969 129.438 50.6094 129.438C50.8594 129.438 51.1406 129.391 51.4219 129.312V130.547C51.1719 130.641 50.8281 130.719 50.4219 130.719C49 130.719 48.1094 129.75 48.1094 128.203V123.531H46.7344ZM56.8438 130.719C54.4219 130.719 52.6406 128.891 52.6406 126.469C52.6406 124.047 54.375 122.219 56.6875 122.219C59 122.219 60.6094 124.047 60.6094 126.469L60.5938 126.922H54.0156C54.1953 128.469 55.3359 129.469 56.875 129.469C57.9844 129.469 58.7812 128.945 59.1875 128.078L60.3438 128.578C59.7266 129.875 58.5 130.719 56.8438 130.719ZM54.0781 125.641H59.1719C59.0781 124.414 58.0781 123.469 56.6875 123.469C55.3594 123.469 54.3672 124.328 54.0781 125.641ZM69.7969 130.5H68.4844V129.234H68.4375C67.8828 130.195 66.9844 130.719 65.7969 130.719C63.5625 130.719 61.9531 128.891 61.9531 126.469C61.9531 124.047 63.5625 122.219 65.7969 122.219C66.9844 122.219 67.8828 122.742 68.4375 123.703H68.4844V119.188H69.7969V130.5ZM65.9219 129.469C67.4531 129.469 68.5469 128.234 68.5469 126.469C68.5469 124.703 67.4531 123.469 65.9219 123.469C64.375 123.469 63.2969 124.719 63.2969 126.469C63.2969 128.219 64.375 129.469 65.9219 129.469ZM78.8438 131.25V132.531H70.8438V131.25H78.8438ZM79.8906 130.5V119.188H81.2031V130.5H79.8906ZM87.0625 130.719C84.7031 130.719 82.9219 128.891 82.9219 126.469C82.9219 124.047 84.7031 122.219 87.0625 122.219C89.4219 122.219 91.2031 124.047 91.2031 126.469C91.2031 128.891 89.4219 130.719 87.0625 130.719ZM87.0625 129.469C88.7031 129.469 89.8594 128.234 89.8594 126.469C89.8594 124.703 88.7031 123.469 87.0625 123.469C85.4219 123.469 84.2656 124.703 84.2656 126.469C84.2656 128.234 85.4219 129.469 87.0625 129.469ZM96.5156 129.219C98.0469 129.219 99.1406 128.031 99.1406 126.344C99.1406 124.656 98.0469 123.469 96.5156 123.469C94.9688 123.469 93.8906 124.672 93.8906 126.344C93.8906 128.016 94.9688 129.219 96.5156 129.219ZM96.3594 134.094C94.7656 134.094 93.5938 133.422 92.7188 132.062L93.8125 131.375C94.5 132.422 95.25 132.844 96.3594 132.844C98.125 132.844 99.0781 131.766 99.0781 129.688V129.031H99.0156C98.4766 129.969 97.5781 130.469 96.3906 130.469C94.1562 130.469 92.5469 128.688 92.5469 126.344C92.5469 124 94.1562 122.219 96.3906 122.219C97.5781 122.219 98.4766 122.719 99.0156 123.656H99.0781V122.438H100.391V129.688C100.391 132.484 98.8438 134.094 96.3594 134.094ZM106.25 130.719C103.891 130.719 102.109 128.891 102.109 126.469C102.109 124.047 103.891 122.219 106.25 122.219C108.609 122.219 110.391 124.047 110.391 126.469C110.391 128.891 108.609 130.719 106.25 130.719ZM106.25 129.469C107.891 129.469 109.047 128.234 109.047 126.469C109.047 124.703 107.891 123.469 106.25 123.469C104.609 123.469 103.453 124.703 103.453 126.469C103.453 128.234 104.609 129.469 106.25 129.469ZM123.844 127.719L122.938 128.625L120.062 125.75L117.188 128.625L116.281 127.719L119.156 124.844L116.281 121.969L117.188 121.062L120.062 123.938L122.938 121.062L123.844 121.969L120.969 124.844L123.844 127.719ZM130.172 130.5V119.188H131.547V123.922H137.547V119.188H138.922V130.5H137.547V125.203H131.547V130.5H130.172Z" fill="#B0B0B0" fill-opacity="0.28"/>
<path d="M252.734 130.5V119.188H254.109V123.922H260.109V119.188H261.484V130.5H260.109V125.203H254.109V130.5H252.734Z" fill="white"/>
<path d="M244.297 129.75V120.016H245.047V129.75H244.297Z" fill="#2288FF"/>
<path d="M171.125 132.844C170.844 132.844 170.562 132.75 170.297 132.484L164.562 126.75C164.297 126.484 164.188 126.188 164.188 125.922C164.188 125.359 164.625 124.875 165.328 124.875H170.672V120.5C170.672 119.766 171.25 119.188 171.984 119.188H176.641C177.375 119.188 177.953 119.766 177.953 120.5V124.875H180.312C182.438 124.875 184.172 126.609 184.172 128.734C184.172 130.859 182.438 132.594 180.312 132.594C178.188 132.594 176.453 130.859 176.453 128.734V126.375H172.172V131.703C172.172 132.406 171.688 132.844 171.125 132.844ZM180.312 131.094C181.609 131.094 182.672 130.031 182.672 128.734C182.672 127.438 181.609 126.375 180.312 126.375H177.953V128.734C177.953 130.031 179.016 131.094 180.312 131.094ZM233.094 130.656C230.812 130.656 229.062 128.828 229.062 126.578C229.062 124.328 230.797 122.5 233.078 122.5C234.062 122.5 234.922 122.875 235.375 123.5V119.188H237.016V130.5H235.375V129.578C234.922 130.234 234.078 130.656 233.094 130.656ZM189.297 130.5L186.531 122.641H188.25L190.062 128.172L191.703 122.641H192.922L194.562 128.172L196.375 122.641H198.094L195.328 130.5H193.766L192.312 126.094L190.859 130.5H189.297ZM202.203 130.656C199.922 130.656 198.172 128.828 198.172 126.578C198.172 124.328 199.906 122.5 202.188 122.5C203.188 122.5 204.031 122.875 204.484 123.5V122.641H206.125V130.5H204.484V129.578C204.031 130.234 203.203 130.656 202.203 130.656ZM202.203 129.094C203.547 129.094 204.641 127.938 204.641 126.578C204.641 125.203 203.547 124.062 202.203 124.062C200.875 124.062 199.766 125.203 199.766 126.578C199.766 127.938 200.875 129.094 202.203 129.094ZM207.531 130.5V122.641H209.172V123.656C209.562 122.906 210.5 122.5 211.562 122.5C213.531 122.5 214.562 123.734 214.562 125.938V130.5H212.922V126.031C212.922 124.672 212.172 123.906 211.047 123.906C209.938 123.906 209.172 124.672 209.172 126.031V130.5H207.531ZM218.734 130.641C217.344 130.641 216.516 129.703 216.516 128.109V123.938H215.266V122.641H216.516V121.078H218.156V122.641H220.016V123.938H218.156V128.047C218.156 128.812 218.469 129.203 219.094 129.203C219.312 129.203 219.641 129.125 220.016 128.922V130.359C219.703 130.531 219.219 130.641 218.734 130.641ZM224.594 130.656C222.219 130.656 220.578 128.969 220.578 126.578C220.578 124.172 222.219 122.5 224.594 122.5C226.75 122.5 228.266 124.219 228.266 126.516C228.266 126.75 228.25 126.969 228.219 127.203H222.172C222.234 128.344 223.234 129.203 224.609 129.203C225.562 129.203 226.453 128.719 226.828 128.047L228.125 128.484C227.562 129.75 226.188 130.656 224.594 130.656ZM226.672 125.906C226.609 124.906 225.641 123.953 224.453 123.953C223.234 123.953 222.234 124.906 222.172 125.906H226.672ZM233.094 129.094C234.438 129.094 235.531 127.938 235.531 126.578C235.531 125.203 234.438 124.062 233.094 124.062C231.766 124.062 230.656 125.203 230.656 126.578C230.656 127.938 231.766 129.094 233.094 129.094ZM166.516 126.578L170.484 130.516C170.562 130.594 170.672 130.562 170.672 130.438V126.375H166.609C166.469 126.375 166.406 126.469 166.516 126.578ZM172.172 124.875H176.453V120.859C176.453 120.766 176.375 120.688 176.281 120.688H172.344C172.25 120.688 172.172 120.766 172.172 120.859V124.875Z" fill="#2288FF"/>
<path d="M252.734 105.5V94.1875H254.109V98.9219H260.109V94.1875H261.484V105.5H260.109V100.203H254.109V105.5H252.734Z" fill="white"/>
<path d="M244.297 104.75V95.0156H245.047V104.75H244.297Z" fill="#2288FF"/>
<path d="M171.125 107.844C170.844 107.844 170.562 107.75 170.297 107.484L164.562 101.75C164.297 101.484 164.188 101.188 164.188 100.922C164.188 100.359 164.625 99.875 165.328 99.875H170.672V95.5C170.672 94.7656 171.25 94.1875 171.984 94.1875H176.641C177.375 94.1875 177.953 94.7656 177.953 95.5V99.875H180.312C182.438 99.875 184.172 101.609 184.172 103.734C184.172 105.859 182.438 107.594 180.312 107.594C178.188 107.594 176.453 105.859 176.453 103.734V101.375H172.172V106.703C172.172 107.406 171.688 107.844 171.125 107.844ZM180.312 106.094C181.609 106.094 182.672 105.031 182.672 103.734C182.672 102.438 181.609 101.375 180.312 101.375H177.953V103.734C177.953 105.031 179.016 106.094 180.312 106.094ZM233.094 105.656C230.812 105.656 229.062 103.828 229.062 101.578C229.062 99.3281 230.797 97.5 233.078 97.5C234.062 97.5 234.922 97.875 235.375 98.5V94.1875H237.016V105.5H235.375V104.578C234.922 105.234 234.078 105.656 233.094 105.656ZM189.297 105.5L186.531 97.6406H188.25L190.062 103.172L191.703 97.6406H192.922L194.562 103.172L196.375 97.6406H198.094L195.328 105.5H193.766L192.312 101.094L190.859 105.5H189.297ZM202.203 105.656C199.922 105.656 198.172 103.828 198.172 101.578C198.172 99.3281 199.906 97.5 202.188 97.5C203.188 97.5 204.031 97.875 204.484 98.5V97.6406H206.125V105.5H204.484V104.578C204.031 105.234 203.203 105.656 202.203 105.656ZM202.203 104.094C203.547 104.094 204.641 102.938 204.641 101.578C204.641 100.203 203.547 99.0625 202.203 99.0625C200.875 99.0625 199.766 100.203 199.766 101.578C199.766 102.938 200.875 104.094 202.203 104.094ZM207.531 105.5V97.6406H209.172V98.6562C209.562 97.9062 210.5 97.5 211.562 97.5C213.531 97.5 214.562 98.7344 214.562 100.938V105.5H212.922V101.031C212.922 99.6719 212.172 98.9062 211.047 98.9062C209.938 98.9062 209.172 99.6719 209.172 101.031V105.5H207.531ZM218.734 105.641C217.344 105.641 216.516 104.703 216.516 103.109V98.9375H215.266V97.6406H216.516V96.0781H218.156V97.6406H220.016V98.9375H218.156V103.047C218.156 103.812 218.469 104.203 219.094 104.203C219.312 104.203 219.641 104.125 220.016 103.922V105.359C219.703 105.531 219.219 105.641 218.734 105.641ZM224.594 105.656C222.219 105.656 220.578 103.969 220.578 101.578C220.578 99.1719 222.219 97.5 224.594 97.5C226.75 97.5 228.266 99.2188 228.266 101.516C228.266 101.75 228.25 101.969 228.219 102.203H222.172C222.234 103.344 223.234 104.203 224.609 104.203C225.562 104.203 226.453 103.719 226.828 103.047L228.125 103.484C227.562 104.75 226.188 105.656 224.594 105.656ZM226.672 100.906C226.609 99.9062 225.641 98.9531 224.453 98.9531C223.234 98.9531 222.234 99.9062 222.172 100.906H226.672ZM233.094 104.094C234.438 104.094 235.531 102.938 235.531 101.578C235.531 100.203 234.438 99.0625 233.094 99.0625C231.766 99.0625 230.656 100.203 230.656 101.578C230.656 102.938 231.766 104.094 233.094 104.094ZM166.516 101.578L170.484 105.516C170.562 105.594 170.672 105.562 170.672 105.438V101.375H166.609C166.469 101.375 166.406 101.469 166.516 101.578ZM172.172 99.875H176.453V95.8594C176.453 95.7656 176.375 95.6875 176.281 95.6875H172.344C172.25 95.6875 172.172 95.7656 172.172 95.8594V99.875Z" fill="#2288FF"/>
<path d="M252.734 80.5V69.1875H254.109V73.9219H260.109V69.1875H261.484V80.5H260.109V75.2031H254.109V80.5H252.734Z" fill="white"/>
<path d="M244.297 79.75V70.0156H245.047V79.75H244.297Z" fill="#2288FF"/>
<path d="M171.125 82.8438C170.844 82.8438 170.562 82.75 170.297 82.4844L164.562 76.75C164.297 76.4844 164.188 76.1875 164.188 75.9219C164.188 75.3594 164.625 74.875 165.328 74.875H170.672V70.5C170.672 69.7656 171.25 69.1875 171.984 69.1875H176.641C177.375 69.1875 177.953 69.7656 177.953 70.5V74.875H180.312C182.438 74.875 184.172 76.6094 184.172 78.7344C184.172 80.8594 182.438 82.5938 180.312 82.5938C178.188 82.5938 176.453 80.8594 176.453 78.7344V76.375H172.172V81.7031C172.172 82.4062 171.688 82.8438 171.125 82.8438ZM180.312 81.0938C181.609 81.0938 182.672 80.0312 182.672 78.7344C182.672 77.4375 181.609 76.375 180.312 76.375H177.953V78.7344C177.953 80.0312 179.016 81.0938 180.312 81.0938ZM233.094 80.6562C230.812 80.6562 229.062 78.8281 229.062 76.5781C229.062 74.3281 230.797 72.5 233.078 72.5C234.062 72.5 234.922 72.875 235.375 73.5V69.1875H237.016V80.5H235.375V79.5781C234.922 80.2344 234.078 80.6562 233.094 80.6562ZM189.297 80.5L186.531 72.6406H188.25L190.062 78.1719L191.703 72.6406H192.922L194.562 78.1719L196.375 72.6406H198.094L195.328 80.5H193.766L192.312 76.0938L190.859 80.5H189.297ZM202.203 80.6562C199.922 80.6562 198.172 78.8281 198.172 76.5781C198.172 74.3281 199.906 72.5 202.188 72.5C203.188 72.5 204.031 72.875 204.484 73.5V72.6406H206.125V80.5H204.484V79.5781C204.031 80.2344 203.203 80.6562 202.203 80.6562ZM202.203 79.0938C203.547 79.0938 204.641 77.9375 204.641 76.5781C204.641 75.2031 203.547 74.0625 202.203 74.0625C200.875 74.0625 199.766 75.2031 199.766 76.5781C199.766 77.9375 200.875 79.0938 202.203 79.0938ZM207.531 80.5V72.6406H209.172V73.6562C209.562 72.9062 210.5 72.5 211.562 72.5C213.531 72.5 214.562 73.7344 214.562 75.9375V80.5H212.922V76.0312C212.922 74.6719 212.172 73.9062 211.047 73.9062C209.938 73.9062 209.172 74.6719 209.172 76.0312V80.5H207.531ZM218.734 80.6406C217.344 80.6406 216.516 79.7031 216.516 78.1094V73.9375H215.266V72.6406H216.516V71.0781H218.156V72.6406H220.016V73.9375H218.156V78.0469C218.156 78.8125 218.469 79.2031 219.094 79.2031C219.312 79.2031 219.641 79.125 220.016 78.9219V80.3594C219.703 80.5312 219.219 80.6406 218.734 80.6406ZM224.594 80.6562C222.219 80.6562 220.578 78.9688 220.578 76.5781C220.578 74.1719 222.219 72.5 224.594 72.5C226.75 72.5 228.266 74.2188 228.266 76.5156C228.266 76.75 228.25 76.9688 228.219 77.2031H222.172C222.234 78.3438 223.234 79.2031 224.609 79.2031C225.562 79.2031 226.453 78.7188 226.828 78.0469L228.125 78.4844C227.562 79.75 226.188 80.6562 224.594 80.6562ZM226.672 75.9062C226.609 74.9062 225.641 73.9531 224.453 73.9531C223.234 73.9531 222.234 74.9062 222.172 75.9062H226.672ZM233.094 79.0938C234.438 79.0938 235.531 77.9375 235.531 76.5781C235.531 75.2031 234.438 74.0625 233.094 74.0625C231.766 74.0625 230.656 75.2031 230.656 76.5781C230.656 77.9375 231.766 79.0938 233.094 79.0938ZM166.516 76.5781L170.484 80.5156C170.562 80.5938 170.672 80.5625 170.672 80.4375V76.375H166.609C166.469 76.375 166.406 76.4688 166.516 76.5781ZM172.172 74.875H176.453V70.8594C176.453 70.7656 176.375 70.6875 176.281 70.6875H172.344C172.25 70.6875 172.172 70.7656 172.172 70.8594V74.875Z" fill="#2288FF"/>
</svg>
