<svg width="320" height="273" viewBox="0 0 320 273" fill="none" xmlns="http://www.w3.org/2000/svg">
<rect x="0.5" y="0.5" width="319" height="272" rx="7.5" stroke="#70737C" stroke-opacity="0.28"/>
<rect x="16" y="16" width="40" height="20" rx="4" fill="#70737C" fill-opacity="0.22"/>
<path d="M27.6973 30H22.2363V28.9102H24.3398V22.1953H22.3066V21.1055H25.6992V28.9102H27.6973V30ZM32.291 30.1289C30.5215 30.1289 29.4023 29.0273 29.4023 27.2812V26.3027C29.4023 24.5566 30.5215 23.4551 32.291 23.4551C34.0605 23.4551 35.1797 24.5566 35.1797 26.3027V27.2812C35.1797 29.0273 34.0605 30.1289 32.291 30.1289ZM32.291 24.5859C31.3418 24.5859 30.75 25.2715 30.75 26.3789V27.2051C30.75 28.3125 31.3418 28.998 32.291 28.998C33.2402 28.998 33.832 28.3125 33.832 27.2051V26.3789C33.832 25.2715 33.2402 24.5859 32.291 24.5859ZM42.5215 25.7227H41.1855C41.0742 24.9902 40.5645 24.5859 39.8203 24.5859C38.8594 24.5859 38.332 25.2773 38.332 26.5371V27.0293C38.332 28.2891 38.8594 28.9805 39.8203 28.9805C40.5703 28.9805 41.0684 28.5938 41.1855 27.8848H42.5215C42.375 29.3203 41.3965 30.1289 39.832 30.1289C37.998 30.1289 36.9609 29.0625 36.9609 27.1523V26.4141C36.9609 24.5098 37.998 23.4375 39.832 23.4375C41.4023 23.4375 42.3691 24.252 42.5215 25.7227ZM49.9512 30H44.4902V28.9102H46.5938V22.1953H44.5605V21.1055H47.9531V28.9102H49.9512V30Z" fill="white"/>
<rect x="16" y="52" width="288" height="1" fill="#70737C" fill-opacity="0.28"/>
<rect x="16" y="69" width="40" height="20" rx="4" fill="#70737C" fill-opacity="0.22"/>
<path d="M22.0898 83V74.1055H23.4141V77.6914H23.502C23.8242 76.9121 24.5508 76.4668 25.5 76.4668C26.9004 76.4668 27.6621 77.3105 27.6621 78.8516V83H26.2969V79.1855C26.2969 78.1602 25.8691 77.6621 24.9844 77.6621C24.0586 77.6621 23.4492 78.3066 23.4492 79.2793V83H22.0898ZM31.5117 83.1055C30.293 83.1055 29.4785 82.332 29.4785 81.1719C29.4785 80.0234 30.3105 79.3438 31.8457 79.25L33.4512 79.1562V78.6172C33.4512 77.9551 33.0234 77.5801 32.2734 77.5801C31.6465 77.5801 31.1895 77.8496 31.0488 78.3184H29.7129C29.8301 77.2109 30.8672 76.4785 32.3086 76.4785C33.8965 76.4785 34.7988 77.2578 34.7988 78.6289V83H33.5039V82.1035H33.3809C33.0703 82.7422 32.3848 83.1055 31.5117 83.1055ZM31.9512 81.9922C32.8184 81.9922 33.4512 81.4355 33.4512 80.6621V80.0762L32.0508 80.1523C31.248 80.1992 30.832 80.5215 30.832 81.0898C30.832 81.6465 31.2656 81.9922 31.9512 81.9922ZM36.9375 83V76.584H38.2559V77.6797H38.3496C38.6777 76.8945 39.3867 76.4551 40.3301 76.4551C41.7246 76.4551 42.4805 77.2871 42.4805 78.8398V83H41.1152V79.1738C41.1152 78.1426 40.6934 77.6504 39.8145 77.6504C38.9004 77.6504 38.3027 78.2891 38.3027 79.2617V83H36.9375ZM45.4688 80.1758C45.4688 81.1777 46.0605 81.8164 46.9863 81.8164C47.9062 81.8164 48.498 81.1777 48.498 80.1758V79.2734C48.498 78.2715 47.9062 77.6328 46.9863 77.6328C46.0605 77.6328 45.4688 78.2715 45.4688 79.2734V80.1758ZM46.9453 85.4141C45.3516 85.4141 44.2969 84.7285 44.1797 83.6211H45.5156C45.6328 84.084 46.2012 84.3828 46.9629 84.3828C47.9648 84.3828 48.5098 83.9023 48.5098 83.0059V81.8457H48.3926C48.1641 82.5547 47.4258 83.0059 46.4824 83.0059C45 83.0059 44.0801 81.957 44.0801 80.2637V79.2148C44.0801 77.5098 45.0117 76.4727 46.5352 76.4727C47.4668 76.4727 48.1816 76.918 48.416 77.6328H48.5332V76.584H49.875V82.9941C49.875 84.5 48.7676 85.4141 46.9453 85.4141Z" fill="white"/>
<path d="M108.062 134.625C107.5 134.625 107.094 134.219 107.094 133.656C107.094 133.094 107.5 132.688 108.062 132.688C108.625 132.688 109.031 133.094 109.031 133.656C109.031 134.219 108.625 134.625 108.062 134.625Z" fill="#B0B0B0" fill-opacity="0.28"/>
<path d="M96.5625 134.625C96 134.625 95.5938 134.219 95.5938 133.656C95.5938 133.094 96 132.688 96.5625 132.688C97.125 132.688 97.5312 133.094 97.5312 133.656C97.5312 134.219 97.125 134.625 96.5625 134.625ZM100.312 134.625C99.75 134.625 99.3438 134.219 99.3438 133.656C99.3438 133.094 99.75 132.688 100.312 132.688C100.875 132.688 101.281 133.094 101.281 133.656C101.281 134.219 100.875 134.625 100.312 134.625ZM104.062 134.625C103.5 134.625 103.094 134.219 103.094 133.656C103.094 133.094 103.5 132.688 104.062 132.688C104.625 132.688 105.031 133.094 105.031 133.656C105.031 134.219 104.625 134.625 104.062 134.625Z" fill="#B0B0B0" fill-opacity="0.28"/>
<path d="M85.0625 134.625C84.5 134.625 84.0938 134.219 84.0938 133.656C84.0938 133.094 84.5 132.688 85.0625 132.688C85.625 132.688 86.0312 133.094 86.0312 133.656C86.0312 134.219 85.625 134.625 85.0625 134.625ZM88.8125 134.625C88.25 134.625 87.8438 134.219 87.8438 133.656C87.8438 133.094 88.25 132.688 88.8125 132.688C89.375 132.688 89.7812 133.094 89.7812 133.656C89.7812 134.219 89.375 134.625 88.8125 134.625ZM92.5625 134.625C92 134.625 91.5938 134.219 91.5938 133.656C91.5938 133.094 92 132.688 92.5625 132.688C93.125 132.688 93.5312 133.094 93.5312 133.656C93.5312 134.219 93.125 134.625 92.5625 134.625Z" fill="#B0B0B0" fill-opacity="0.28"/>
<path d="M81.2188 134.5L79.9844 131.203H75.0781L73.8438 134.5H72.3438L76.6719 123.188H78.3906L82.7188 134.5H81.2188ZM75.5625 129.922H79.5156L77.5625 124.734H77.5L75.5625 129.922Z" fill="#B0B0B0" fill-opacity="0.28"/>
<path d="M114.484 105C114.484 108.469 111.781 108.047 111.781 109.938C111.781 110.984 112.609 111.656 113.781 111.656C115.031 111.656 115.781 110.906 115.781 109.625H117.188C117.188 111.656 115.891 112.969 113.781 112.969C111.828 112.969 110.375 111.844 110.375 109.938C110.375 107.344 113.078 107.781 113.078 105.125V104.75H114.484V105ZM113.781 101.312C114.344 101.312 114.75 101.719 114.75 102.281C114.75 102.844 114.344 103.25 113.781 103.25C113.219 103.25 112.812 102.844 112.812 102.281C112.812 101.719 113.219 101.312 113.781 101.312Z" fill="#B0B0B0" fill-opacity="0.28"/>
<path d="M107.25 96.9062V101.469H109.328V102.5H107.25V107.297H106.016V96.9062H107.25ZM104.703 98.5938V99.5938H96.4375V98.5938H99.9531V96.8906H101.188V98.5938H104.703ZM100.562 100.375C102.539 100.375 103.906 101.398 103.906 102.953C103.906 104.508 102.539 105.531 100.562 105.531C98.5625 105.531 97.2109 104.508 97.2188 102.953C97.2109 101.398 98.5625 100.375 100.562 100.375ZM100.562 101.328C99.2656 101.336 98.375 101.977 98.375 102.953C98.375 103.922 99.2656 104.562 100.562 104.562C101.852 104.562 102.734 103.922 102.734 102.953C102.734 101.977 101.844 101.336 100.562 101.328ZM107.891 109.438V110.453H98.5469V106.469H99.7812V109.438H107.891Z" fill="#B0B0B0" fill-opacity="0.28"/>
<path d="M94.8906 104.641V105.922H91.5156V109.344H90.1406V105.922H86.7656V104.641H90.1406V101.219H91.5156V104.641H94.8906Z" fill="#B0B0B0" fill-opacity="0.28"/>
<path d="M83.4219 96.9062V101.469H85.5V102.5H83.4219V107.297H82.1875V96.9062H83.4219ZM80.875 98.5938V99.5938H72.6094V98.5938H76.125V96.8906H77.3594V98.5938H80.875ZM76.7344 100.375C78.7109 100.375 80.0781 101.398 80.0781 102.953C80.0781 104.508 78.7109 105.531 76.7344 105.531C74.7344 105.531 73.3828 104.508 73.3906 102.953C73.3828 101.398 74.7344 100.375 76.7344 100.375ZM76.7344 101.328C75.4375 101.336 74.5469 101.977 74.5469 102.953C74.5469 103.922 75.4375 104.562 76.7344 104.562C78.0234 104.562 78.9062 103.922 78.9062 102.953C78.9062 101.977 78.0156 101.336 76.7344 101.328ZM84.0625 109.438V110.453H74.7188V106.469H75.9531V109.438H84.0625Z" fill="#B0B0B0" fill-opacity="0.28"/>
<path d="M157.438 87.875C158.75 85.7734 159.547 83.2422 159.547 80.5312C159.547 77.8203 158.75 75.2891 157.438 73.1875H158.922C160.234 75.3594 160.953 77.8594 160.953 80.5312C160.953 83.2031 160.234 85.7031 158.922 87.875H157.438Z" fill="#B0B0B0" fill-opacity="0.28"/>
<path d="M150.875 84.7188C147.531 84.7188 145 82.1875 145 78.8438C145 75.5 147.531 72.9688 150.875 72.9688C154.219 72.9688 156.75 75.5 156.75 78.8438C156.75 82.1875 154.219 84.7188 150.875 84.7188ZM150.875 83.4062C153.5 83.4062 155.344 81.5156 155.344 78.8438C155.344 76.1719 153.5 74.2812 150.875 74.2812C148.25 74.2812 146.406 76.1719 146.406 78.8438C146.406 81.5156 148.25 83.4062 150.875 83.4062Z" fill="#B0B0B0" fill-opacity="0.28"/>
<path d="M142.828 87.875C141.516 85.7031 140.797 83.2031 140.797 80.5312C140.797 77.8594 141.516 75.3594 142.828 73.1875H144.312C143 75.2891 142.203 77.8203 142.203 80.5312C142.203 83.2422 143 85.7734 144.312 87.875H142.828Z" fill="#B0B0B0" fill-opacity="0.28"/>
<path d="M132.609 83.6094H131L133.25 80.2812L131 76.9531H132.609L134.844 80.2812L132.609 83.6094Z" fill="#B0B0B0" fill-opacity="0.28"/>
<path d="M128.344 84.5L127.109 81.2031H122.203L120.969 84.5H119.469L123.797 73.1875H125.516L129.844 84.5H128.344ZM122.688 79.9219H126.641L124.688 74.7344H124.625L122.688 79.9219Z" fill="#B0B0B0" fill-opacity="0.28"/>
<path d="M116.703 83.6094L114.469 80.2812L116.703 76.9531H118.312L116.062 80.2812L118.312 83.6094H116.703Z" fill="#B0B0B0" fill-opacity="0.28"/>
<path d="M105 87.875C106.312 85.7734 107.109 83.2422 107.109 80.5312C107.109 77.8203 106.312 75.2891 105 73.1875H106.484C107.797 75.3594 108.516 77.8594 108.516 80.5312C108.516 83.2031 107.797 85.7031 106.484 87.875H105Z" fill="#B0B0B0" fill-opacity="0.28"/>
<path d="M102.438 72.4688V73.3594C102.43 74.3047 102.43 75.5 102.125 77.0625H104.094V78.0781H91.3906V77.0625H100.906C101.211 75.5234 101.227 74.3906 101.234 73.4688H93.0156V72.4688H102.438ZM102.484 79.4688V82.9531H94.1406V84.5938H102.828V85.5938H92.9219V82.0156H101.266V80.4531H92.8906V79.4688H102.484Z" fill="#B0B0B0" fill-opacity="0.28"/>
<path d="M88.4219 71.9062V76.4688H90.5V77.5H88.4219V82.2969H87.1875V71.9062H88.4219ZM85.875 73.5938V74.5938H77.6094V73.5938H81.125V71.8906H82.3594V73.5938H85.875ZM81.7344 75.375C83.7109 75.375 85.0781 76.3984 85.0781 77.9531C85.0781 79.5078 83.7109 80.5312 81.7344 80.5312C79.7344 80.5312 78.3828 79.5078 78.3906 77.9531C78.3828 76.3984 79.7344 75.375 81.7344 75.375ZM81.7344 76.3281C80.4375 76.3359 79.5469 76.9766 79.5469 77.9531C79.5469 78.9219 80.4375 79.5625 81.7344 79.5625C83.0234 79.5625 83.9062 78.9219 83.9062 77.9531C83.9062 76.9766 83.0156 76.3359 81.7344 76.3281ZM89.0625 84.4375V85.4531H79.7188V81.4688H80.9531V84.4375H89.0625Z" fill="#B0B0B0" fill-opacity="0.28"/>
<path d="M75.1719 87.875C73.8594 85.7031 73.1406 83.2031 73.1406 80.5312C73.1406 77.8594 73.8594 75.3594 75.1719 73.1875H76.6562C75.3438 75.2891 74.5469 77.8203 74.5469 80.5312C74.5469 83.2422 75.3438 85.7734 76.6562 87.875H75.1719Z" fill="#B0B0B0" fill-opacity="0.28"/>
<path d="M223.594 134.625C223.031 134.625 222.625 134.219 222.625 133.656C222.625 133.094 223.031 132.688 223.594 132.688C224.156 132.688 224.562 133.094 224.562 133.656C224.562 134.219 224.156 134.625 223.594 134.625Z" fill="white"/>
<path d="M212.094 129.812C211.531 129.812 211.125 129.406 211.125 128.844C211.125 128.281 211.531 127.875 212.094 127.875C212.656 127.875 213.062 128.281 213.062 128.844C213.062 129.406 212.656 129.812 212.094 129.812ZM215.844 129.812C215.281 129.812 214.875 129.406 214.875 128.844C214.875 128.281 215.281 127.875 215.844 127.875C216.406 127.875 216.812 128.281 216.812 128.844C216.812 129.406 216.406 129.812 215.844 129.812ZM219.594 129.812C219.031 129.812 218.625 129.406 218.625 128.844C218.625 128.281 219.031 127.875 219.594 127.875C220.156 127.875 220.562 128.281 220.562 128.844C220.562 129.406 220.156 129.812 219.594 129.812Z" fill="#3385FF"/>
<path d="M200.594 129.812C200.031 129.812 199.625 129.406 199.625 128.844C199.625 128.281 200.031 127.875 200.594 127.875C201.156 127.875 201.562 128.281 201.562 128.844C201.562 129.406 201.156 129.812 200.594 129.812ZM204.344 129.812C203.781 129.812 203.375 129.406 203.375 128.844C203.375 128.281 203.781 127.875 204.344 127.875C204.906 127.875 205.312 128.281 205.312 128.844C205.312 129.406 204.906 129.812 204.344 129.812ZM208.094 129.812C207.531 129.812 207.125 129.406 207.125 128.844C207.125 128.281 207.531 127.875 208.094 127.875C208.656 127.875 209.062 128.281 209.062 128.844C209.062 129.406 208.656 129.812 208.094 129.812Z" fill="#3385FF"/>
<path d="M197.234 134.5L196 131.203H191.094L189.859 134.5H188.359L192.688 123.188H194.406L198.734 134.5H197.234ZM191.578 129.922H195.531L193.578 124.734H193.516L191.578 129.922Z" fill="white"/>
<path d="M230.5 101.75C230.5 105.219 227.797 104.797 227.797 106.688C227.797 107.734 228.625 108.406 229.797 108.406C231.047 108.406 231.797 107.656 231.797 106.375H233.203C233.203 108.406 231.906 109.719 229.797 109.719C227.844 109.719 226.391 108.594 226.391 106.688C226.391 104.094 229.094 104.531 229.094 101.875V101.5H230.5V101.75ZM229.797 98.0625C230.359 98.0625 230.766 98.4688 230.766 99.0312C230.766 99.5938 230.359 100 229.797 100C229.234 100 228.828 99.5938 228.828 99.0312C228.828 98.4688 229.234 98.0625 229.797 98.0625Z" fill="#3385FF"/>
<path d="M223.25 96.9062V101.469H225.328V102.5H223.25V107.297H222.016V96.9062H223.25ZM220.703 98.5938V99.5938H212.438V98.5938H215.953V96.8906H217.188V98.5938H220.703ZM216.562 100.375C218.539 100.375 219.906 101.398 219.906 102.953C219.906 104.508 218.539 105.531 216.562 105.531C214.562 105.531 213.211 104.508 213.219 102.953C213.211 101.398 214.562 100.375 216.562 100.375ZM216.562 101.328C215.266 101.336 214.375 101.977 214.375 102.953C214.375 103.922 215.266 104.562 216.562 104.562C217.852 104.562 218.734 103.922 218.734 102.953C218.734 101.977 217.844 101.336 216.562 101.328ZM223.891 109.438V110.453H214.547V106.469H215.781V109.438H223.891Z" fill="white"/>
<path d="M210.891 103.203V104.484H207.516V107.906H206.141V104.484H202.766V103.203H206.141V99.7812H207.516V103.203H210.891Z" fill="#3385FF"/>
<path d="M199.422 96.9062V101.469H201.5V102.5H199.422V107.297H198.188V96.9062H199.422ZM196.875 98.5938V99.5938H188.609V98.5938H192.125V96.8906H193.359V98.5938H196.875ZM192.734 100.375C194.711 100.375 196.078 101.398 196.078 102.953C196.078 104.508 194.711 105.531 192.734 105.531C190.734 105.531 189.383 104.508 189.391 102.953C189.383 101.398 190.734 100.375 192.734 100.375ZM192.734 101.328C191.438 101.336 190.547 101.977 190.547 102.953C190.547 103.922 191.438 104.562 192.734 104.562C194.023 104.562 194.906 103.922 194.906 102.953C194.906 101.977 194.016 101.336 192.734 101.328ZM200.062 109.438V110.453H190.719V106.469H191.953V109.438H200.062Z" fill="white"/>
<path d="M273.516 86.3125C274.828 84.2031 275.625 81.6719 275.625 78.9688C275.625 76.25 274.828 73.7188 273.516 71.625H275C276.312 73.7969 277.031 76.2969 277.031 78.9688C277.031 81.6406 276.312 84.1406 275 86.3125H273.516Z" fill="#3385FF"/>
<path d="M266.922 84.7188C263.578 84.7188 261.047 82.1875 261.047 78.8438C261.047 75.5 263.578 72.9688 266.922 72.9688C270.266 72.9688 272.797 75.5 272.797 78.8438C272.797 82.1875 270.266 84.7188 266.922 84.7188ZM266.922 83.4062C269.547 83.4062 271.391 81.5156 271.391 78.8438C271.391 76.1719 269.547 74.2812 266.922 74.2812C264.297 74.2812 262.453 76.1719 262.453 78.8438C262.453 81.5156 264.297 83.4062 266.922 83.4062Z" fill="white"/>
<path d="M258.844 86.3125C257.531 84.1406 256.812 81.6406 256.812 78.9688C256.812 76.2969 257.531 73.7969 258.844 71.625H260.328C259.016 73.7188 258.219 76.25 258.219 78.9688C258.219 81.6719 259.016 84.2031 260.328 86.3125H258.844Z" fill="#3385FF"/>
<path d="M248.641 82.2969H247.031L249.281 78.9688L247.031 75.6406H248.641L250.875 78.9688L248.641 82.2969Z" fill="#3385FF"/>
<path d="M244.359 84.5L243.125 81.2031H238.219L236.984 84.5H235.484L239.812 73.1875H241.531L245.859 84.5H244.359ZM238.703 79.9219H242.656L240.703 74.7344H240.641L238.703 79.9219Z" fill="white"/>
<path d="M232.703 82.2969L230.469 78.9688L232.703 75.6406H234.312L232.062 78.9688L234.312 82.2969H232.703Z" fill="#3385FF"/>
<path d="M221.016 86.3125C222.328 84.2031 223.125 81.6719 223.125 78.9688C223.125 76.25 222.328 73.7188 221.016 71.625H222.5C223.812 73.7969 224.531 76.2969 224.531 78.9688C224.531 81.6406 223.812 84.1406 222.5 86.3125H221.016Z" fill="#3385FF"/>
<path d="M218.438 72.4688V73.3594C218.43 74.3047 218.43 75.5 218.125 77.0625H220.094V78.0781H207.391V77.0625H216.906C217.211 75.5234 217.227 74.3906 217.234 73.4688H209.016V72.4688H218.438ZM218.484 79.4688V82.9531H210.141V84.5938H218.828V85.5938H208.922V82.0156H217.266V80.4531H208.891V79.4688H218.484Z" fill="white"/>
<path d="M204.422 71.9062V76.4688H206.5V77.5H204.422V82.2969H203.188V71.9062H204.422ZM201.875 73.5938V74.5938H193.609V73.5938H197.125V71.8906H198.359V73.5938H201.875ZM197.734 75.375C199.711 75.375 201.078 76.3984 201.078 77.9531C201.078 79.5078 199.711 80.5312 197.734 80.5312C195.734 80.5312 194.383 79.5078 194.391 77.9531C194.383 76.3984 195.734 75.375 197.734 75.375ZM197.734 76.3281C196.438 76.3359 195.547 76.9766 195.547 77.9531C195.547 78.9219 196.438 79.5625 197.734 79.5625C199.023 79.5625 199.906 78.9219 199.906 77.9531C199.906 76.9766 199.016 76.3359 197.734 76.3281ZM205.062 84.4375V85.4531H195.719V81.4688H196.953V84.4375H205.062Z" fill="white"/>
<path d="M191.156 86.3125C189.844 84.1406 189.125 81.6406 189.125 78.9688C189.125 76.2969 189.844 73.7969 191.156 71.625H192.641C191.328 73.7188 190.531 76.25 190.531 78.9688C190.531 81.6719 191.328 84.2031 192.641 86.3125H191.156Z" fill="#3385FF"/>
<rect x="16" y="155" width="33" height="20" rx="4" fill="#70737C" fill-opacity="0.22"/>
<path d="M22.3574 160.545H25.3398C27.0625 160.545 28.1699 161.646 28.1699 163.363C28.1699 165.068 27.0391 166.17 25.2812 166.17H23.7754V169H22.3574V160.545ZM23.7754 161.729V164.986H24.9883C26.1309 164.986 26.7344 164.43 26.7344 163.357C26.7344 162.285 26.1309 161.729 24.9883 161.729H23.7754ZM35.4414 167.74V169H30.2207V160.545H31.6211V167.74H35.4414ZM38.623 169H37.2695V160.545H38.623V164.541H38.7109L41.8516 160.545H43.3926L40.3926 164.277L43.627 169H41.9453L39.4258 165.309L38.623 166.299V169Z" fill="white"/>
<path d="M78.3125 170.719C75.1875 170.719 72.7344 168.141 72.7344 164.844C72.7344 161.547 75.1875 158.969 78.3125 158.969C80.125 158.969 81.7109 159.836 82.7344 161.203L81.625 162.031C80.8672 160.961 79.6719 160.281 78.3125 160.281C75.9844 160.281 74.1406 162.297 74.1406 164.844C74.1406 167.391 75.9844 169.406 78.3125 169.406C79.6719 169.406 80.8672 168.727 81.625 167.656L82.7344 168.484C81.7109 169.852 80.125 170.719 78.3125 170.719ZM78.9219 157.938H77.7031L79.0938 155.562H80.5625L78.9219 157.938ZM84.5781 170.5V159.188H86.1875L92.3906 168.328H92.4531V159.188H93.8281V170.5H92.2656L86.0156 161.297H85.9531V170.5H84.5781ZM89.8125 157.938H88.5938L89.9844 155.562H91.4531L89.8125 157.938ZM101.547 170.719C98.2031 170.719 95.6719 168.188 95.6719 164.844C95.6719 161.5 98.2031 158.969 101.547 158.969C104.891 158.969 107.422 161.5 107.422 164.844C107.422 168.188 104.891 170.719 101.547 170.719ZM101.547 169.406C104.172 169.406 106.016 167.516 106.016 164.844C106.016 162.172 104.172 160.281 101.547 160.281C98.9219 160.281 97.0781 162.172 97.0781 164.844C97.0781 167.516 98.9219 169.406 101.547 169.406ZM102.156 157.938H100.938L102.328 155.562H103.797L102.156 157.938ZM112.797 170.719C111.109 170.719 109.875 170.031 108.891 168.578L110.047 167.844C110.828 168.953 111.625 169.406 112.797 169.406C114.344 169.406 115.297 168.625 115.297 167.344C115.297 166.312 114.672 165.766 112.891 165.266L112.328 165.109C110.234 164.531 109.297 163.609 109.297 162.141C109.297 160.312 110.766 158.969 112.797 158.969C114.328 158.969 115.703 159.75 116.531 161.078L115.344 161.766C114.719 160.797 113.828 160.281 112.797 160.281C111.547 160.281 110.703 161.031 110.703 162.141C110.703 163 111.219 163.438 112.703 163.844L113.266 164C115.672 164.672 116.703 165.672 116.703 167.344C116.703 169.375 115.141 170.719 112.797 170.719ZM113.406 157.938H112.188L113.578 155.562H115.047L113.406 157.938ZM118.281 170.5V169.219L124.891 160.531V160.469H118.344V159.188H126.594V160.469L119.984 169.156V169.219H126.719V170.5H118.281ZM123.109 157.938H121.891L123.281 155.562H124.75L123.109 157.938ZM76.6406 194.469C78.1719 194.469 79.2656 193.234 79.2656 191.469C79.2656 189.703 78.1719 188.469 76.6406 188.469C75.0938 188.469 74.0156 189.719 74.0156 191.469C74.0156 193.219 75.0938 194.469 76.6406 194.469ZM80.5156 195.5H79.2031V194.234H79.1562C78.6016 195.195 77.7031 195.719 76.5156 195.719C74.2812 195.719 72.6719 193.891 72.6719 191.469C72.6719 189.047 74.2812 187.219 76.5156 187.219C77.7031 187.219 78.6016 187.742 79.1562 188.703H79.2031V187.438H80.5156V195.5ZM77.5625 186.188H76.3438L77.7344 183.812H79.2031L77.5625 186.188ZM86.4062 195.719C84.0156 195.719 82.2344 193.891 82.2344 191.469C82.2344 189.047 84.0156 187.219 86.4062 187.219C87.8984 187.219 89.1016 187.93 89.7656 189.094L88.6094 189.688C88.1719 188.914 87.4062 188.469 86.4062 188.469C84.7344 188.469 83.5781 189.703 83.5781 191.469C83.5781 193.234 84.7344 194.469 86.4062 194.469C87.4062 194.469 88.1719 194.023 88.6094 193.25L89.7656 193.844C89.1016 195.008 87.8984 195.719 86.4062 195.719ZM87.0156 186.188H85.7969L87.1875 183.812H88.6562L87.0156 186.188ZM91.4844 195.5V187.438H92.7969V188.609H92.8594C93.25 187.75 94.1172 187.219 95.2656 187.219C97.0625 187.219 98.0469 188.484 98.0469 190.562V195.5H96.7344V190.75C96.7344 189.266 96.1094 188.469 94.9844 188.469C93.8594 188.469 92.7969 189.266 92.7969 191V195.5H91.4844ZM95.375 186.188H94.1562L95.5469 183.812H97.0156L95.375 186.188ZM103.906 195.719C101.547 195.719 99.7656 193.891 99.7656 191.469C99.7656 189.047 101.547 187.219 103.906 187.219C106.266 187.219 108.047 189.047 108.047 191.469C108.047 193.891 106.266 195.719 103.906 195.719ZM103.906 194.469C105.547 194.469 106.703 193.234 106.703 191.469C106.703 189.703 105.547 188.469 103.906 188.469C102.266 188.469 101.109 189.703 101.109 191.469C101.109 193.234 102.266 194.469 103.906 194.469ZM104.516 186.188H103.297L104.688 183.812H106.156L104.516 186.188ZM112.453 195.719C111.141 195.719 110.094 195.203 109.328 194.188L110.391 193.438C110.922 194.156 111.547 194.469 112.453 194.469C113.578 194.469 114.234 194 114.234 193.203C114.234 192.578 113.812 192.266 112.516 191.938L112.078 191.828C110.406 191.406 109.609 190.688 109.609 189.594C109.609 188.234 110.828 187.219 112.453 187.219C113.656 187.219 114.766 187.781 115.406 188.734L114.312 189.453C113.859 188.812 113.219 188.469 112.453 188.469C111.562 188.469 110.953 188.922 110.953 189.594C110.953 190.094 111.281 190.328 112.391 190.609L112.828 190.719C114.734 191.188 115.578 191.953 115.578 193.203C115.578 194.703 114.312 195.719 112.453 195.719ZM113.062 186.188H111.844L113.234 183.812H114.703L113.062 186.188ZM117.047 195.5V194.281L121.656 188.734V188.656H117.109V187.438H123.359V188.656L118.75 194.203V194.281H123.484V195.5H117.047ZM120.875 186.188H119.656L121.047 183.812H122.516L120.875 186.188Z" fill="#B0B0B0" fill-opacity="0.28"/>
<path d="M236.821 186.188L237.631 183.812H236.286L235.661 186.188H236.816H236.821ZM233.026 195.502H239.466V194.283H234.731V194.203L239.341 188.658V187.438H233.091V188.658H237.636V188.738L233.026 194.283V195.502ZM229.011 186.188L229.821 183.812H228.476L227.851 186.188H229.006H229.011ZM228.431 195.717C230.291 195.717 231.556 194.703 231.556 193.203C231.556 191.953 230.711 191.187 228.806 190.717L228.366 190.608C227.256 190.327 226.926 190.092 226.926 189.592C226.926 188.922 227.536 188.468 228.426 188.468C229.191 188.468 229.831 188.813 230.286 189.453L231.381 188.733C230.741 187.778 229.631 187.218 228.426 187.218C226.801 187.218 225.581 188.232 225.581 189.592C225.581 190.688 226.376 191.403 228.051 191.828L228.491 191.938C229.786 192.267 230.211 192.578 230.211 193.203C230.211 193.998 229.556 194.467 228.431 194.467C227.526 194.467 226.901 194.158 226.371 193.438L225.311 194.188C226.076 195.203 227.121 195.717 228.436 195.717M220.466 186.188L221.276 183.812H219.931L219.306 186.188H220.461H220.466ZM219.886 194.467C218.246 194.467 217.091 193.233 217.091 191.467C217.091 189.702 218.246 188.468 219.886 188.468C221.526 188.468 222.681 189.702 222.681 191.467C222.681 193.233 221.526 194.467 219.886 194.467ZM219.886 195.717C222.246 195.717 224.026 193.887 224.026 191.467C224.026 189.047 222.246 187.218 219.886 187.218C217.526 187.218 215.746 189.047 215.746 191.467C215.746 193.887 217.526 195.717 219.886 195.717ZM211.326 186.188L212.136 183.812H210.791L210.166 186.188H211.321H211.326ZM207.466 195.502H208.776V191.002C208.776 189.267 209.836 188.472 210.966 188.472C212.096 188.472 212.716 189.267 212.716 190.752V195.502H214.026V190.562C214.026 188.483 213.041 187.218 211.246 187.218C210.096 187.218 209.231 187.747 208.841 188.608H208.781V187.438H207.471V195.502H207.466ZM202.966 186.188L203.776 183.812H202.431L201.806 186.188H202.961H202.966ZM202.386 195.717C203.881 195.717 205.081 195.007 205.746 193.842L204.591 193.248C204.151 194.023 203.386 194.467 202.386 194.467C200.716 194.467 199.556 193.233 199.556 191.467C199.556 189.702 200.711 188.468 202.386 188.468C203.386 188.468 204.151 188.912 204.591 189.688L205.746 189.092C205.081 187.927 203.881 187.218 202.386 187.218C199.996 187.218 198.216 189.047 198.216 191.467C198.216 193.887 199.996 195.717 202.386 195.717ZM193.511 186.188L194.321 183.812H192.976L192.351 186.188H193.506H193.511ZM196.496 195.502V187.438H195.186V188.703H195.141C194.586 187.743 193.686 187.218 192.501 187.218C190.266 187.218 188.656 189.047 188.656 191.467C188.656 193.887 190.266 195.717 192.501 195.717C193.691 195.717 194.586 195.193 195.141 194.233H195.186V195.498H196.496V195.502ZM192.621 194.472C191.076 194.472 189.996 193.222 189.996 191.472C189.996 189.722 191.076 188.472 192.621 188.472C194.166 188.472 195.246 189.707 195.246 191.472C195.246 193.238 194.151 194.472 192.621 194.472Z" fill="#3385FF"/>
<path d="M239.064 157.943L239.874 155.567H238.529L237.904 157.943H239.059H239.064ZM234.269 170.507H242.709V169.227H235.974V169.167L242.584 160.477V159.197H234.334V160.477H240.879V160.537L234.269 169.227V170.507ZM229.364 157.943L230.174 155.567H228.829L228.204 157.943H229.359H229.364ZM228.784 170.722C231.129 170.722 232.689 169.377 232.689 167.347C232.689 165.677 231.659 164.677 229.249 164.002L228.689 163.847C227.204 163.442 226.689 163.003 226.689 162.142C226.689 161.032 227.534 160.282 228.784 160.282C229.814 160.282 230.704 160.797 231.329 161.767L232.519 161.077C231.689 159.747 230.314 158.967 228.784 158.967C226.754 158.967 225.284 160.312 225.284 162.137C225.284 163.608 226.224 164.528 228.314 165.108L228.874 165.262C230.654 165.762 231.279 166.307 231.279 167.342C231.279 168.622 230.324 169.403 228.779 169.403C227.609 169.403 226.809 168.948 226.029 167.842L224.874 168.578C225.859 170.033 227.094 170.717 228.779 170.717M218.109 157.938L218.919 155.562H217.574L216.949 157.938H218.104H218.109ZM217.529 169.408C214.904 169.408 213.059 167.517 213.059 164.847C213.059 162.177 214.904 160.287 217.529 160.287C220.154 160.287 221.999 162.177 221.999 164.847C221.999 167.517 220.154 169.408 217.529 169.408ZM217.529 170.717C220.874 170.717 223.404 168.188 223.404 164.842C223.404 161.497 220.874 158.967 217.529 158.967C214.184 158.967 211.654 161.497 211.654 164.842C211.654 168.188 214.184 170.717 217.529 170.717ZM205.764 157.938L206.574 155.562H205.229L204.604 157.938H205.759H205.764ZM200.559 170.502H201.934V161.298H201.994L208.244 170.502H209.804V159.188H208.429V168.328H208.369L202.174 159.188H200.564V170.502H200.559ZM194.874 157.938L195.684 155.562H194.339L193.714 157.938H194.869H194.874ZM194.294 170.717C196.104 170.717 197.694 169.852 198.714 168.483L197.604 167.653C196.844 168.722 195.649 169.403 194.294 169.403C191.964 169.403 190.124 167.387 190.124 164.842C190.124 162.297 191.969 160.282 194.294 160.282C195.654 160.282 196.849 160.962 197.604 162.032L198.714 161.202C197.689 159.832 196.104 158.967 194.294 158.967C191.174 158.967 188.719 161.547 188.719 164.842C188.719 168.137 191.174 170.717 194.299 170.717" fill="#3385FF"/>
<rect x="16" y="216" width="33" height="20" rx="4" fill="#70737C" fill-opacity="0.22"/>
<path d="M25.2695 228.893C26.248 228.893 26.8574 228.26 26.875 227.229H28.3105C28.3105 229.027 27.1211 230.17 25.2754 230.17C23.2246 230.17 22.0234 228.852 22.0234 226.59V224.955C22.0234 222.693 23.2246 221.375 25.2754 221.375C27.1562 221.375 28.2871 222.506 28.3105 224.422H26.875C26.8516 223.355 26.2012 222.652 25.252 222.652C24.0977 222.652 23.4883 223.443 23.4883 224.955V226.59C23.4883 228.102 24.0977 228.893 25.2695 228.893ZM31.4219 226.654H33.4844L32.4883 223.027H32.4297L31.4219 226.654ZM34.4043 230L33.7949 227.779H31.1113L30.4961 230H29.0781L31.6855 221.545H33.3145L35.9219 230H34.4043ZM40.627 230H39.209V222.781H36.7363V221.545H43.0996V222.781H40.627V230Z" fill="white"/>
<path d="M73.1094 231.5V220.188H76.5469C78.9844 220.188 80.6094 221.562 80.6094 223.625C80.6094 225.688 78.9844 227.062 76.5469 227.062H74.4844V231.5H73.1094ZM74.4844 225.781H76.5469C78.2188 225.781 79.2031 224.969 79.2031 223.625C79.2031 222.266 78.2188 221.469 76.5469 221.469H74.4844V225.781ZM89.3281 231.5L88.0938 228.203H83.1875L81.9531 231.5H80.4531L84.7812 220.188H86.5L90.8281 231.5H89.3281ZM83.6719 226.922H87.625L85.6719 221.734H85.6094L83.6719 226.922ZM92.2969 231.5V220.188H95.7344C98.1719 220.188 99.7969 221.531 99.7969 223.531C99.7969 225.195 98.6875 226.406 96.9375 226.766L100.141 231.5H98.5156L95.3906 226.891H93.6719V231.5H92.2969ZM93.6719 225.609H95.75C97.4219 225.609 98.3906 224.828 98.3906 223.531C98.3906 222.234 97.4219 221.469 95.75 221.469H93.6719V225.609ZM109.734 231.5L108.5 228.203H103.594L102.359 231.5H100.859L105.188 220.188H106.906L111.234 231.5H109.734ZM104.078 226.922H108.031L106.078 221.734H106.016L104.078 226.922ZM112.703 231.5V220.188H114.078V230.219H119.453V231.5H112.703ZM122.188 226.875C121.625 226.875 121.219 226.469 121.219 225.906C121.219 225.344 121.625 224.938 122.188 224.938C122.75 224.938 123.156 225.344 123.156 225.906C123.156 226.469 122.75 226.875 122.188 226.875ZM125.297 231.5V220.188H126.672V230.219H132.047V231.5H125.297ZM133.891 231.5V220.188H140.891V221.469H135.266V224.922H140.453V226.203H135.266V230.219H141.016V231.5H133.891ZM142.859 231.5V220.188H144.234V230.219H149.609V231.5H142.859ZM73.0469 255.875V244.438H74.3594V245.703H74.4219C74.9609 244.742 75.8594 244.219 77.0469 244.219C79.2812 244.219 80.8906 246.047 80.8906 248.469C80.8906 250.891 79.2812 252.719 77.0469 252.719C75.8594 252.719 74.9609 252.195 74.4219 251.234H74.3594V255.875H73.0469ZM76.9219 251.469C78.4688 251.469 79.5469 250.219 79.5469 248.469C79.5469 246.719 78.4688 245.469 76.9219 245.469C75.3906 245.469 74.2969 246.703 74.2969 248.469C74.2969 250.234 75.3906 251.469 76.9219 251.469ZM86.2031 251.469C87.7344 251.469 88.8281 250.234 88.8281 248.469C88.8281 246.703 87.7344 245.469 86.2031 245.469C84.6562 245.469 83.5781 246.719 83.5781 248.469C83.5781 250.219 84.6562 251.469 86.2031 251.469ZM90.0781 252.5H88.7656V251.234H88.7188C88.1641 252.195 87.2656 252.719 86.0781 252.719C83.8438 252.719 82.2344 250.891 82.2344 248.469C82.2344 246.047 83.8438 244.219 86.0781 244.219C87.2656 244.219 88.1641 244.742 88.7188 245.703H88.7656V244.438H90.0781V252.5ZM92.1719 252.5V244.438H93.4844V245.688H93.5469C93.9453 244.812 94.7422 244.219 95.6562 244.219C95.9531 244.219 96.2344 244.281 96.5 244.391V245.688C96.2031 245.594 95.9062 245.547 95.625 245.547C94.2812 245.547 93.4844 246.625 93.4844 248.469V252.5H92.1719ZM101.344 251.469C102.875 251.469 103.969 250.234 103.969 248.469C103.969 246.703 102.875 245.469 101.344 245.469C99.7969 245.469 98.7188 246.719 98.7188 248.469C98.7188 250.219 99.7969 251.469 101.344 251.469ZM105.219 252.5H103.906V251.234H103.859C103.305 252.195 102.406 252.719 101.219 252.719C98.9844 252.719 97.375 250.891 97.375 248.469C97.375 246.047 98.9844 244.219 101.219 244.219C102.406 244.219 103.305 244.742 103.859 245.703H103.906V244.438H105.219V252.5ZM107.312 252.5V241.188H108.625V252.5H107.312ZM111.672 249.266C111.109 249.266 110.703 248.859 110.703 248.297C110.703 247.734 111.109 247.328 111.672 247.328C112.234 247.328 112.641 247.734 112.641 248.297C112.641 248.859 112.234 249.266 111.672 249.266ZM114.719 252.5V241.188H116.031V252.5H114.719ZM121.953 252.719C119.531 252.719 117.75 250.891 117.75 248.469C117.75 246.047 119.484 244.219 121.797 244.219C124.109 244.219 125.719 246.047 125.719 248.469L125.703 248.922H119.125C119.305 250.469 120.445 251.469 121.984 251.469C123.094 251.469 123.891 250.945 124.297 250.078L125.453 250.578C124.836 251.875 123.609 252.719 121.953 252.719ZM119.188 247.641H124.281C124.188 246.414 123.188 245.469 121.797 245.469C120.469 245.469 119.477 246.328 119.188 247.641ZM127.438 252.5V241.188H128.75V252.5H127.438Z" fill="#B0B0B0" fill-opacity="0.28"/>
<path d="M242.416 252.498H243.726V241.188H242.416V252.498ZM234.166 247.637C234.456 246.327 235.446 245.468 236.776 245.468C238.106 245.468 239.166 246.412 239.261 247.637H234.166ZM236.931 252.717C238.586 252.717 239.816 251.873 240.431 250.578L239.276 250.078C238.871 250.943 238.071 251.467 236.961 251.467C235.421 251.467 234.281 250.467 234.101 248.923H240.681L240.696 248.468C240.696 246.048 239.086 244.217 236.776 244.217C234.466 244.217 232.731 246.048 232.731 248.468C232.731 250.888 234.511 252.717 236.936 252.717M229.701 252.498H231.011V241.188H229.701V252.498ZM223.296 252.498H224.606V241.188H223.296V252.498ZM221.201 252.498V244.438H219.891V245.702H219.846C219.291 244.742 218.391 244.217 217.206 244.217C214.971 244.217 213.361 246.048 213.361 248.468C213.361 250.888 214.971 252.717 217.206 252.717C218.396 252.717 219.291 252.193 219.846 251.233H219.891V252.498H221.201ZM217.326 251.467C215.781 251.467 214.701 250.218 214.701 248.468C214.701 246.718 215.781 245.468 217.326 245.468C218.871 245.468 219.951 246.703 219.951 248.468C219.951 250.233 218.856 251.467 217.326 251.467ZM208.156 252.498H209.466V248.468C209.466 246.623 210.261 245.548 211.606 245.548C211.886 245.548 212.186 245.593 212.481 245.688V244.392C212.216 244.283 211.936 244.223 211.636 244.223C210.721 244.223 209.926 244.818 209.526 245.693H209.466V244.443H208.156V252.502V252.498ZM206.061 252.498V244.438H204.751V245.702H204.706C204.151 244.742 203.251 244.217 202.066 244.217C199.831 244.217 198.221 246.048 198.221 248.468C198.221 250.888 199.831 252.717 202.066 252.717C203.256 252.717 204.151 252.193 204.706 251.233H204.751V252.498H206.061ZM202.186 251.467C200.641 251.467 199.561 250.218 199.561 248.468C199.561 246.718 200.641 245.468 202.186 245.468C203.731 245.468 204.811 246.703 204.811 248.468C204.811 250.233 203.716 251.467 202.186 251.467ZM192.906 251.467C191.376 251.467 190.281 250.233 190.281 248.468C190.281 246.703 191.376 245.468 192.906 245.468C194.436 245.468 195.531 246.718 195.531 248.468C195.531 250.218 194.451 251.467 192.906 251.467ZM189.031 255.873H190.341V251.233H190.401C190.941 252.193 191.841 252.717 193.026 252.717C195.261 252.717 196.871 250.888 196.871 248.468C196.871 246.048 195.261 244.217 193.026 244.217C191.836 244.217 190.941 244.742 190.401 245.702H190.341V244.438H189.031V255.877V255.873Z" fill="white"/>
<path d="M228.126 248.293C228.126 248.858 227.716 249.263 227.156 249.263C226.591 249.263 226.186 248.858 226.186 248.293C226.186 247.728 226.591 247.323 227.156 247.323C227.721 247.323 228.126 247.728 228.126 248.293Z" fill="#3385FF"/>
<path d="M254.849 231.503H261.599V230.222H256.224V220.192H254.849V231.503ZM245.879 231.503H253.004V230.222H247.254V226.207H252.444V224.928H247.254V221.472H252.879V220.192H245.879V231.503ZM237.284 231.503H244.034V230.222H238.659V220.192H237.284V231.503ZM228.689 231.503H235.439V230.222H230.064V220.192H228.689V231.503ZM220.064 226.923L222.004 221.732H222.064L224.019 226.923H220.064ZM225.719 231.503H227.219L222.889 220.192H221.169L216.839 231.503H218.339L219.574 228.208H224.479L225.714 231.503H225.719ZM209.659 225.613V221.472H211.739C213.409 221.472 214.379 222.238 214.379 223.533C214.379 224.827 213.409 225.613 211.739 225.613H209.659ZM208.284 231.503H209.659V226.892H211.379L214.504 231.503H216.129L212.924 226.767C214.674 226.407 215.784 225.198 215.784 223.533C215.784 221.533 214.159 220.188 211.724 220.188H208.284V231.498V231.503ZM199.659 226.923L201.599 221.732H201.659L203.614 226.923H199.659ZM205.314 231.503H206.814L202.484 220.192H200.764L196.434 231.503H197.934L199.169 228.208H204.074L205.309 231.503H205.314ZM190.469 225.787V221.472H192.529C194.199 221.472 195.184 222.267 195.184 223.628C195.184 224.988 194.199 225.783 192.529 225.783H190.469V225.787ZM189.094 231.503H190.469V227.062H192.529C194.969 227.062 196.589 225.688 196.589 223.623C196.589 221.558 194.969 220.192 192.534 220.192H189.094V231.503Z" fill="white"/>
<path d="M235.144 225.908C235.144 226.473 234.734 226.878 234.174 226.878C233.609 226.878 233.204 226.473 233.204 225.908C233.204 225.343 233.609 224.938 234.174 224.938C234.739 224.938 235.144 225.343 235.144 225.908Z" fill="#3385FF"/>
</svg>
