<svg width="320" height="97" viewBox="0 0 320 97" fill="none" xmlns="http://www.w3.org/2000/svg">
<rect x="0.5" y="0.5" width="319" height="96" rx="7.5" stroke="#70737C" stroke-opacity="0.28"/>
<rect x="16" y="16" width="40" height="20" rx="4" fill="#70737C" fill-opacity="0.22"/>
<path d="M24.873 30.1289C23.1035 30.1289 21.9844 29.0273 21.9844 27.2812V26.3027C21.9844 24.5566 23.1035 23.4551 24.873 23.4551C26.6426 23.4551 27.7617 24.5566 27.7617 26.3027V27.2812C27.7617 29.0273 26.6426 30.1289 24.873 30.1289ZM24.873 24.5859C23.9238 24.5859 23.332 25.2715 23.332 26.3789V27.2051C23.332 28.3125 23.9238 28.998 24.873 28.998C25.8223 28.998 26.4141 28.3125 26.4141 27.2051V26.3789C26.4141 25.2715 25.8223 24.5859 24.873 24.5859ZM32.1211 25.2246H32.3203C32.584 23.9883 33.2988 23.4141 34.5176 23.4141C34.8809 23.4141 35.2148 23.4609 35.4375 23.5488V25.0312C35.1504 24.9199 34.7285 24.8496 34.377 24.8496C32.8945 24.8496 32.1152 25.6582 32.1152 27.1406V28.9805H34.0254V30H29.5547V28.9805H30.8027V24.6035H29.4316V23.584H32.1211V25.2246ZM38.1211 26.2734V27.2754C38.1211 28.2832 38.6895 28.9102 39.6094 28.9102C40.5234 28.9102 41.0918 28.2832 41.0918 27.2754V26.2734C41.0918 25.2598 40.5234 24.6328 39.6094 24.6328C38.6895 24.6328 38.1211 25.2656 38.1211 26.2734ZM41.0859 28.9453H40.9688C40.6992 29.6953 40.0488 30.0996 39.1172 30.0996C37.6465 30.0996 36.7324 29.0684 36.7324 27.3574V26.2148C36.7324 24.5098 37.6465 23.4727 39.1172 23.4727C40.043 23.4727 40.7051 23.8887 40.9453 24.6328H41.0625V21.1055H42.4688V30H41.0859V28.9453ZM44.3555 30V23.584H45.6738V24.6797H45.7676C46.0957 23.8945 46.8047 23.4551 47.748 23.4551C49.1426 23.4551 49.8984 24.2871 49.8984 25.8398V30H48.5332V26.1738C48.5332 25.1426 48.1113 24.6504 47.2324 24.6504C46.3184 24.6504 45.7207 25.2891 45.7207 26.2617V30H44.3555Z" fill="white"/>
<rect x="16" y="52" width="288" height="1" fill="#70737C" fill-opacity="0.28"/>
<path d="M21 80.7188C18.4219 80.7188 16.8125 78.4531 16.8125 74.8438C16.8125 71.2344 18.4219 68.9688 21 68.9688C23.5781 68.9688 25.1875 71.2344 25.1875 74.8438C25.1875 78.4531 23.5781 80.7188 21 80.7188ZM21 79.4375C22.7188 79.4375 23.8125 77.6562 23.8125 74.8438C23.8125 72.0312 22.7188 70.25 21 70.25C19.2812 70.25 18.1875 72.0312 18.1875 74.8438C18.1875 77.6562 19.2812 79.4375 21 79.4375ZM34.5469 80.5L33.3125 77.2031H28.4062L27.1719 80.5H25.6719L30 69.1875H31.7188L36.0469 80.5H34.5469ZM28.8906 75.9219H32.8438L30.8906 70.7344H30.8281L28.8906 75.9219ZM41.3438 71.1875C42.2344 70.6562 43.125 70 44.0625 69.1875H45.4062V80.5H44.0625V70.9219H44C43.1328 71.6094 42.2266 72.2109 41.3438 72.6719V71.1875ZM52.0938 80.7188C49.7344 80.7188 47.9531 78.8906 47.9531 76.4688C47.9531 74.0469 49.7344 72.2188 52.0938 72.2188C54.4531 72.2188 56.2344 74.0469 56.2344 76.4688C56.2344 78.8906 54.4531 80.7188 52.0938 80.7188ZM52.0938 79.4688C53.7344 79.4688 54.8906 78.2344 54.8906 76.4688C54.8906 74.7031 53.7344 73.4688 52.0938 73.4688C50.4531 73.4688 49.2969 74.7031 49.2969 76.4688C49.2969 78.2344 50.4531 79.4688 52.0938 79.4688Z" fill="#B0B0B0" fill-opacity="0.28"/>
<path d="M193.531 73.3125C192.078 73.3125 190.984 72.1875 190.984 70.7188C190.984 69.2344 192.094 68.125 193.531 68.125C194.984 68.125 196.094 69.2344 196.094 70.7188C196.094 72.1875 195 73.3125 193.531 73.3125ZM193.531 72.3438C194.422 72.3438 195.062 71.6719 195.062 70.7188C195.062 69.7656 194.438 69.0938 193.531 69.0938C192.641 69.0938 192.016 69.7656 192.016 70.7188C192.016 71.6719 192.656 72.3438 193.531 72.3438Z" fill="#3385FF"/>
<path d="M184.672 71.1875C185.562 70.6562 186.453 70 187.391 69.1875H188.734V80.5H187.391V70.9219H187.328C186.461 71.6094 185.555 72.2109 184.672 72.6719V71.1875Z" fill="white"/>
<path d="M176.688 72.3438C177.516 72.3438 178.125 71.6719 178.125 70.7188C178.125 69.7656 177.531 69.0938 176.688 69.0938C175.828 69.0938 175.234 69.7812 175.234 70.7188C175.234 71.6562 175.828 72.3438 176.688 72.3438ZM179.125 73.1875H178.094V72.4375H178.062C177.734 73.0156 177.211 73.3125 176.516 73.3125C175.156 73.3125 174.188 72.1875 174.188 70.7188C174.188 69.25 175.156 68.125 176.516 68.125C177.203 68.125 177.727 68.4141 178.062 68.9844H178.094V68.25H179.125V73.1875Z" fill="#3385FF"/>
<path d="M169 80.7188C166.422 80.7188 164.812 78.4531 164.812 74.8438C164.812 71.2344 166.422 68.9688 169 68.9688C171.578 68.9688 173.188 71.2344 173.188 74.8438C173.188 78.4531 171.578 80.7188 169 80.7188ZM169 79.4375C170.719 79.4375 171.812 77.6562 171.812 74.8438C171.812 72.0312 170.719 70.25 169 70.25C167.281 70.25 166.188 72.0312 166.188 74.8438C166.188 77.6562 167.281 79.4375 169 79.4375Z" fill="white"/>
</svg>
