<svg width="320" height="97" viewBox="0 0 320 97" fill="none" xmlns="http://www.w3.org/2000/svg">
<rect x="0.5" y="0.5" width="319" height="96" rx="7.5" stroke="#70737C" stroke-opacity="0.28"/>
<rect x="16" y="16" width="40" height="20" rx="4" fill="#70737C" fill-opacity="0.22"/>
<path d="M24.7031 25.2246H24.9023C25.166 23.9883 25.8809 23.4141 27.0996 23.4141C27.4629 23.4141 27.7969 23.4609 28.0195 23.5488V25.0312C27.7324 24.9199 27.3105 24.8496 26.959 24.8496C25.4766 24.8496 24.6973 25.6582 24.6973 27.1406V28.9805H26.6074V30H22.1367V28.9805H23.3848V24.6035H22.0137V23.584H24.7031V25.2246ZM35.1152 30H29.6543V28.9102H31.7578V22.1953H29.7246V21.1055H33.1172V28.9102H35.1152V30ZM39.8086 22.1602C39.2285 22.1602 38.8184 21.7793 38.8184 21.2285C38.8184 20.6777 39.2285 20.2969 39.8086 20.2969C40.3945 20.2969 40.8047 20.6777 40.8047 21.2285C40.8047 21.7793 40.3945 22.1602 39.8086 22.1602ZM42.5332 30H37.0723V28.9102H39.1875V24.6738H37.1426V23.584H40.5176V28.9102H42.5332V30ZM45.4688 27.1758C45.4688 28.1777 46.0605 28.8164 46.9863 28.8164C47.9062 28.8164 48.498 28.1777 48.498 27.1758V26.2734C48.498 25.2715 47.9062 24.6328 46.9863 24.6328C46.0605 24.6328 45.4688 25.2715 45.4688 26.2734V27.1758ZM46.9453 32.4141C45.3516 32.4141 44.2969 31.7285 44.1797 30.6211H45.5156C45.6328 31.084 46.2012 31.3828 46.9629 31.3828C47.9648 31.3828 48.5098 30.9023 48.5098 30.0059V28.8457H48.3926C48.1641 29.5547 47.4258 30.0059 46.4824 30.0059C45 30.0059 44.0801 28.957 44.0801 27.2637V26.2148C44.0801 24.5098 45.0117 23.4727 46.5352 23.4727C47.4668 23.4727 48.1816 23.918 48.416 24.6328H48.5332V23.584H49.875V29.9941C49.875 31.5 48.7676 32.4141 46.9453 32.4141Z" fill="white"/>
<rect x="16" y="52" width="288" height="1" fill="#70737C" fill-opacity="0.28"/>
<path d="M16.6094 73.5312V72.4375H17.9844V71.4844C17.9844 69.9375 18.9062 68.9688 20.3594 68.9688C20.8125 68.9688 21.1875 69.0625 21.4844 69.1719V70.4062C21.1406 70.2969 20.8281 70.25 20.5469 70.25C19.7031 70.25 19.2969 70.6719 19.2969 71.5312V72.4375H21.4844V73.5312H19.2969V80.5H17.9844V73.5312H16.6094ZM23.1406 80.5V72.4375H24.4531V80.5H23.1406ZM23.7969 70.75C23.2969 70.75 22.9219 70.375 22.9219 69.875C22.9219 69.375 23.2969 69 23.7969 69C24.2969 69 24.6719 69.375 24.6719 69.875C24.6719 70.375 24.2969 70.75 23.7969 70.75ZM30.1094 73.5312V72.4375H31.4844V71.4844C31.4844 69.9375 32.4062 68.9688 33.8594 68.9688C34.3125 68.9688 34.6875 69.0625 34.9844 69.1719V70.4062C34.6406 70.2969 34.3281 70.25 34.0469 70.25C33.2031 70.25 32.7969 70.6719 32.7969 71.5312V72.4375H34.9844V73.5312H32.7969V80.5H31.4844V73.5312H30.1094ZM36.6406 80.5V69.1875H37.9531V80.5H36.6406ZM43.6094 73.5312V72.4375H44.9844V71.4844C44.9844 69.9375 45.9062 68.9688 47.3594 68.9688C47.8125 68.9688 48.1875 69.0625 48.4844 69.1719V70.4062C48.1406 70.2969 47.8281 70.25 47.5469 70.25C46.7031 70.25 46.2969 70.6719 46.2969 71.5312V72.4375H48.4844V73.5312H46.2969V80.5H44.9844V73.5312H43.6094ZM49.7031 73.5312V72.4375H51.0781V71.4844C51.0781 69.9375 52 68.9688 53.4531 68.9688C53.9062 68.9688 54.2812 69.0625 54.5781 69.1719V70.4062C54.2344 70.2969 53.9219 70.25 53.6406 70.25C52.7969 70.25 52.3906 70.6719 52.3906 71.5312V72.4375H54.5781V73.5312H52.3906V80.5H51.0781V73.5312H49.7031ZM59.7969 73.5312V72.4375H61.1719V71.4844C61.1719 69.9375 62.0938 68.9688 63.5469 68.9688C64 68.9688 64.375 69.0625 64.6719 69.1719V70.4062C64.3281 70.2969 64.0156 70.25 63.7344 70.25C62.8906 70.25 62.4844 70.6719 62.4844 71.5312V72.4375H64.6719V73.5312H62.4844V80.5H61.1719V73.5312H59.7969ZM65.8906 73.5312V72.4375H67.2656V71.4844C67.2656 69.9375 68.1875 68.9688 69.6406 68.9688C70.0938 68.9688 70.4688 69.0625 70.7656 69.1719V70.4062C70.4219 70.2969 70.1094 70.25 69.8281 70.25C68.9844 70.25 68.5781 70.6719 68.5781 71.5312V72.4375H70.7656V73.5312H68.5781V80.5H67.2656V73.5312H65.8906ZM72.4219 80.5V72.4375H73.7344V80.5H72.4219ZM73.0781 70.75C72.5781 70.75 72.2031 70.375 72.2031 69.875C72.2031 69.375 72.5781 69 73.0781 69C73.5781 69 73.9531 69.375 73.9531 69.875C73.9531 70.375 73.5781 70.75 73.0781 70.75ZM79.3906 73.5312V72.4375H80.7656V71.4844C80.7656 69.9375 81.6875 68.9688 83.1406 68.9688C83.5938 68.9688 83.9688 69.0625 84.2656 69.1719V70.4062C83.9219 70.2969 83.6094 70.25 83.3281 70.25C82.4844 70.25 82.0781 70.6719 82.0781 71.5312V72.4375H84.2656V73.5312H82.0781V80.5H80.7656V73.5312H79.3906ZM85.4844 73.5312V72.4375H86.8594V71.4844C86.8594 69.9375 87.7812 68.9688 89.2344 68.9688C89.6875 68.9688 90.0625 69.0625 90.3594 69.1719V70.4062C90.0156 70.2969 89.7031 70.25 89.4219 70.25C88.5781 70.25 88.1719 70.6719 88.1719 71.5312V72.4375H90.3594V73.5312H88.1719V80.5H86.8594V73.5312H85.4844ZM92.0156 80.5V69.1875H93.3281V80.5H92.0156Z" fill="#B0B0B0" fill-opacity="0.28"/>
<path d="M164.609 73.5312V72.4375H165.984V71.4844C165.984 69.9375 166.906 68.9688 168.359 68.9688C168.812 68.9688 169.188 69.0625 169.484 69.1719V70.4062C169.141 70.2969 168.828 70.25 168.547 70.25C167.703 70.25 167.297 70.6719 167.297 71.5312V72.4375H172.453V80.5H171.141V73.5312H167.297V80.5H165.984V73.5312H164.609ZM171.797 70.75C171.297 70.75 170.922 70.375 170.922 69.875C170.922 69.375 171.297 69 171.797 69C172.297 69 172.672 69.375 172.672 69.875C172.672 70.375 172.297 70.75 171.797 70.75ZM178.109 73.5312V72.4375H179.484V71.4844C179.484 69.9375 180.406 68.9688 181.859 68.9688C182.312 68.9688 182.688 69.0625 182.984 69.1719V70.4062C182.641 70.2969 182.328 70.25 182.047 70.25C181.203 70.25 180.797 70.6719 180.797 71.5312V72.4375H184.641V69.1875H185.953V80.5H184.641V73.5312H180.797V80.5H179.484V73.5312H178.109ZM191.609 73.5312V72.4375H192.984V71.4844C192.984 69.9375 193.906 68.9688 195.359 68.9688C195.812 68.9688 196.188 69.0625 196.484 69.1719V70.4062C196.141 70.2969 195.828 70.25 195.547 70.25C194.703 70.25 194.297 70.6719 194.297 71.5312V72.4375H197.859V71.4844C197.859 69.9375 198.781 68.9688 200.234 68.9688C200.688 68.9688 201.062 69.0625 201.359 69.1719V70.4062C201.016 70.2969 200.703 70.25 200.422 70.25C199.578 70.25 199.172 70.6719 199.172 71.5312V72.4375H201.359V73.5312H199.172V80.5H197.859V73.5312H194.297V80.5H192.984V73.5312H191.609ZM206.578 73.5312V72.4375H207.953V71.4844C207.953 69.9375 208.875 68.9688 210.328 68.9688C210.781 68.9688 211.156 69.0625 211.453 69.1719V70.4062C211.109 70.2969 210.797 70.25 210.516 70.25C209.672 70.25 209.266 70.6719 209.266 71.5312V72.4375H212.828V71.4844C212.828 69.9375 213.75 68.9688 215.203 68.9688C215.656 68.9688 216.031 69.0625 216.328 69.1719V70.4062C215.984 70.2969 215.672 70.25 215.391 70.25C214.547 70.25 214.141 70.6719 214.141 71.5312V72.4375H219.297V80.5H217.984V73.5312H214.141V80.5H212.828V73.5312H209.266V80.5H207.953V73.5312H206.578ZM218.641 70.75C218.141 70.75 217.766 70.375 217.766 69.875C217.766 69.375 218.141 69 218.641 69C219.141 69 219.516 69.375 219.516 69.875C219.516 70.375 219.141 70.75 218.641 70.75ZM224.953 73.5312V72.4375H226.328V71.4844C226.328 69.9375 227.25 68.9688 228.703 68.9688C229.156 68.9688 229.531 69.0625 229.828 69.1719V70.4062C229.484 70.2969 229.172 70.25 228.891 70.25C228.047 70.25 227.641 70.6719 227.641 71.5312V72.4375H231.203V71.4844C231.203 69.9375 232.125 68.9688 233.578 68.9688C234.031 68.9688 234.406 69.0625 234.703 69.1719V70.4062C234.359 70.2969 234.047 70.25 233.766 70.25C232.922 70.25 232.516 70.6719 232.516 71.5312V72.4375H236.359V69.1875H237.672V80.5H236.359V73.5312H232.516V80.5H231.203V73.5312H227.641V80.5H226.328V73.5312H224.953Z" fill="#3385FF"/>
</svg>
