<svg width="320" height="118" viewBox="0 0 320 118" fill="none" xmlns="http://www.w3.org/2000/svg">
<rect x="0.5" y="0.5" width="319" height="117" rx="7.5" stroke="#70737C" stroke-opacity="0.28"/>
<rect x="16" y="16" width="40" height="20" rx="4" fill="#70737C" fill-opacity="0.22"/>
<path d="M22.377 25.4004C22.377 24.2051 23.3613 23.4434 24.8789 23.4434C26.3496 23.4434 27.2812 24.123 27.3691 25.2773H26.0801C25.9863 24.7969 25.5234 24.498 24.8613 24.498C24.1758 24.498 23.7246 24.8145 23.7246 25.2949C23.7246 25.7051 24.0176 25.9395 24.7148 26.0918L25.6699 26.2969C26.9531 26.5723 27.5215 27.1172 27.5215 28.0781C27.5215 29.3262 26.4961 30.1289 24.8848 30.1289C23.3145 30.1289 22.3184 29.4316 22.2246 28.2715H23.5781C23.6953 28.7754 24.1816 29.0625 24.9082 29.0625C25.6523 29.0625 26.1211 28.7344 26.1211 28.2363C26.1211 27.8145 25.8516 27.5977 25.1191 27.4395L24.1582 27.2285C22.9746 26.9648 22.377 26.3555 22.377 25.4004ZM31.5117 30.1055C30.293 30.1055 29.4785 29.332 29.4785 28.1719C29.4785 27.0234 30.3105 26.3438 31.8457 26.25L33.4512 26.1562V25.6172C33.4512 24.9551 33.0234 24.5801 32.2734 24.5801C31.6465 24.5801 31.1895 24.8496 31.0488 25.3184H29.7129C29.8301 24.2109 30.8672 23.4785 32.3086 23.4785C33.8965 23.4785 34.7988 24.2578 34.7988 25.6289V30H33.5039V29.1035H33.3809C33.0703 29.7422 32.3848 30.1055 31.5117 30.1055ZM31.9512 28.9922C32.8184 28.9922 33.4512 28.4355 33.4512 27.6621V27.0762L32.0508 27.1523C31.248 27.1992 30.832 27.5215 30.832 28.0898C30.832 28.6465 31.2656 28.9922 31.9512 28.9922ZM42.5332 30H37.0723V28.9102H39.1758V22.1953H37.1426V21.1055H40.5352V28.9102H42.5332V30ZM45.8906 21.791H47.2266V23.625H49.7051V24.7266H47.25V28.0254C47.25 28.5938 47.6543 28.9102 48.3809 28.9102C48.6152 28.9102 49.541 28.9043 49.6523 28.8926V29.9824C49.5469 30 48.4688 30.0176 48.2754 30.0176C46.5879 30.0176 45.8906 29.4434 45.8906 28.0195V24.7266H44.2031V23.625H45.8906V21.791Z" fill="white"/>
<rect x="16" y="52" width="288" height="1" fill="#70737C" fill-opacity="0.28"/>
<path d="M22.6094 80.7188C19.2656 80.7188 16.7344 78.1875 16.7344 74.8438C16.7344 71.5 19.2656 68.9688 22.6094 68.9688C25.9531 68.9688 28.4844 71.5 28.4844 74.8438C28.4844 76.75 27.6641 78.3984 26.3281 79.4531L27.8594 81.625H26.2344L25.2031 80.1562C24.4297 80.5156 23.5469 80.7188 22.6094 80.7188ZM22.6094 79.4062C23.2734 79.4062 23.8828 79.2891 24.4375 79.0625L23.1094 77.1875H24.7344L25.5781 78.3594C26.5156 77.5625 27.0781 76.3203 27.0781 74.8438C27.0781 72.1719 25.2344 70.2812 22.6094 70.2812C19.9844 70.2812 18.1406 72.1719 18.1406 74.8438C18.1406 77.5156 19.9844 79.4062 22.6094 79.4062ZM36.8281 72.4375V80.5H35.5156V79.3281H35.4688C35.0625 80.1875 34.1953 80.7188 33.0469 80.7188C31.25 80.7188 30.2656 79.4531 30.2656 77.375V72.4375H31.5781V77.1875C31.5781 78.6719 32.2031 79.4688 33.3281 79.4688C34.4531 79.4688 35.5156 78.6719 35.5156 76.9375V72.4375H36.8281ZM42.5156 79.4688C44.0469 79.4688 45.1406 78.2344 45.1406 76.4688C45.1406 74.7031 44.0469 73.4688 42.5156 73.4688C40.9688 73.4688 39.8906 74.7188 39.8906 76.4688C39.8906 78.2188 40.9688 79.4688 42.5156 79.4688ZM46.3906 80.5H45.0781V79.2344H45.0312C44.4766 80.1953 43.5781 80.7188 42.3906 80.7188C40.1562 80.7188 38.5469 78.8906 38.5469 76.4688C38.5469 74.0469 40.1562 72.2188 42.3906 72.2188C43.5781 72.2188 44.4766 72.7422 45.0312 73.7031H45.0781V72.4375H46.3906V80.5ZM48.4844 80.5V69.1875H49.7969V80.5H48.4844ZM51.8906 80.5V72.4375H53.2031V80.5H51.8906ZM52.5469 70.75C52.0469 70.75 51.6719 70.375 51.6719 69.875C51.6719 69.375 52.0469 69 52.5469 69C53.0469 69 53.4219 69.375 53.4219 69.875C53.4219 70.375 53.0469 70.75 52.5469 70.75ZM54.7969 73.5312V72.4375H56.1719V70.4375H57.4844V72.4375H59.4844V73.5312H57.4844V78.1562C57.4844 79.0312 57.8594 79.4375 58.6719 79.4375C58.9219 79.4375 59.2031 79.3906 59.4844 79.3125V80.5469C59.2344 80.6406 58.8906 80.7188 58.4844 80.7188C57.0625 80.7188 56.1719 79.75 56.1719 78.2031V73.5312H54.7969ZM63.875 80.5L60.4531 72.4375H61.875L64.5469 78.8438H64.6094L67 72.4375H68.3906L64 83.875H62.5781L63.875 80.5ZM77.5 80.7188C75.1406 80.7188 73.3594 78.8906 73.3594 76.4688C73.3594 74.0469 75.1406 72.2188 77.5 72.2188C79.8594 72.2188 81.6406 74.0469 81.6406 76.4688C81.6406 78.8906 79.8594 80.7188 77.5 80.7188ZM77.5 79.4688C79.1406 79.4688 80.2969 78.2344 80.2969 76.4688C80.2969 74.7031 79.1406 73.4688 77.5 73.4688C75.8594 73.4688 74.7031 74.7031 74.7031 76.4688C74.7031 78.2344 75.8594 79.4688 77.5 79.4688ZM85.3906 80.5L82.2969 72.4375H83.7188L86.2344 79.2031H86.2969L88.8125 72.4375H90.2344L87.1406 80.5H85.3906ZM95.0938 80.7188C92.6719 80.7188 90.8906 78.8906 90.8906 76.4688C90.8906 74.0469 92.625 72.2188 94.9375 72.2188C97.25 72.2188 98.8594 74.0469 98.8594 76.4688L98.8438 76.9219H92.2656C92.4453 78.4688 93.5859 79.4688 95.125 79.4688C96.2344 79.4688 97.0312 78.9453 97.4375 78.0781L98.5938 78.5781C97.9766 79.875 96.75 80.7188 95.0938 80.7188ZM92.3281 75.6406H97.4219C97.3281 74.4141 96.3281 73.4688 94.9375 73.4688C93.6094 73.4688 92.6172 74.3281 92.3281 75.6406ZM100.578 80.5V72.4375H101.891V73.6875H101.953C102.352 72.8125 103.148 72.2188 104.062 72.2188C104.359 72.2188 104.641 72.2812 104.906 72.3906V73.6875C104.609 73.5938 104.312 73.5469 104.031 73.5469C102.688 73.5469 101.891 74.625 101.891 76.4688V80.5H100.578ZM109.953 80.7188C107.562 80.7188 105.781 78.8906 105.781 76.4688C105.781 74.0469 107.562 72.2188 109.953 72.2188C111.445 72.2188 112.648 72.9297 113.312 74.0938L112.156 74.6875C111.719 73.9141 110.953 73.4688 109.953 73.4688C108.281 73.4688 107.125 74.7031 107.125 76.4688C107.125 78.2344 108.281 79.4688 109.953 79.4688C110.953 79.4688 111.719 79.0234 112.156 78.25L113.312 78.8438C112.648 80.0078 111.445 80.7188 109.953 80.7188ZM118.797 80.7188C116.438 80.7188 114.656 78.8906 114.656 76.4688C114.656 74.0469 116.438 72.2188 118.797 72.2188C121.156 72.2188 122.938 74.0469 122.938 76.4688C122.938 78.8906 121.156 80.7188 118.797 80.7188ZM118.797 79.4688C120.438 79.4688 121.594 78.2344 121.594 76.4688C121.594 74.7031 120.438 73.4688 118.797 73.4688C117.156 73.4688 116 74.7031 116 76.4688C116 78.2344 117.156 79.4688 118.797 79.4688ZM124.656 80.5V72.4375H125.969V73.6094H126.016C126.391 72.75 127.195 72.2188 128.266 72.2188C129.406 72.2188 130.195 72.8047 130.594 73.8438H130.641C130.969 72.8516 131.852 72.2188 133.062 72.2188C134.797 72.2188 135.75 73.4844 135.75 75.5625V80.5H134.438V75.75C134.438 74.2656 133.859 73.4688 132.844 73.4688C131.828 73.4688 130.859 74.2656 130.859 76V80.5H129.547V75.75C129.547 74.2656 128.969 73.4688 127.953 73.4688C126.938 73.4688 125.969 74.2656 125.969 76V80.5H124.656ZM141.672 80.7188C139.25 80.7188 137.469 78.8906 137.469 76.4688C137.469 74.0469 139.203 72.2188 141.516 72.2188C143.828 72.2188 145.438 74.0469 145.438 76.4688L145.422 76.9219H138.844C139.023 78.4688 140.164 79.4688 141.703 79.4688C142.812 79.4688 143.609 78.9453 144.016 78.0781L145.172 78.5781C144.555 79.875 143.328 80.7188 141.672 80.7188ZM138.906 75.6406H144C143.906 74.4141 142.906 73.4688 141.516 73.4688C140.188 73.4688 139.195 74.3281 138.906 75.6406ZM149.844 80.7188C148.531 80.7188 147.484 80.2031 146.719 79.1875L147.781 78.4375C148.312 79.1562 148.938 79.4688 149.844 79.4688C150.969 79.4688 151.625 79 151.625 78.2031C151.625 77.5781 151.203 77.2656 149.906 76.9375L149.469 76.8281C147.797 76.4062 147 75.6875 147 74.5938C147 73.2344 148.219 72.2188 149.844 72.2188C151.047 72.2188 152.156 72.7812 152.797 73.7344L151.703 74.4531C151.25 73.8125 150.609 73.4688 149.844 73.4688C148.953 73.4688 148.344 73.9219 148.344 74.5938C148.344 75.0938 148.672 75.3281 149.781 75.6094L150.219 75.7188C152.125 76.1875 152.969 76.9531 152.969 78.2031C152.969 79.7031 151.703 80.7188 149.844 80.7188ZM24.5156 104.875H23.2031V100.234H23.1562C22.6016 101.195 21.7031 101.719 20.5156 101.719C18.2812 101.719 16.6719 99.8906 16.6719 97.4688C16.6719 95.0469 18.2812 93.2188 20.5156 93.2188C21.7031 93.2188 22.6016 93.7422 23.1562 94.7031H23.2031V93.4375H24.5156V104.875ZM20.6406 100.469C22.1719 100.469 23.2656 99.2344 23.2656 97.4688C23.2656 95.7031 22.1719 94.4688 20.6406 94.4688C19.0938 94.4688 18.0156 95.7188 18.0156 97.4688C18.0156 99.2188 19.0938 100.469 20.6406 100.469ZM33.1719 93.4375V101.5H31.8594V100.328H31.8125C31.4062 101.188 30.5391 101.719 29.3906 101.719C27.5938 101.719 26.6094 100.453 26.6094 98.375V93.4375H27.9219V98.1875C27.9219 99.6719 28.5469 100.469 29.6719 100.469C30.7969 100.469 31.8594 99.6719 31.8594 97.9375V93.4375H33.1719ZM38.8594 100.469C40.3906 100.469 41.4844 99.2344 41.4844 97.4688C41.4844 95.7031 40.3906 94.4688 38.8594 94.4688C37.3125 94.4688 36.2344 95.7188 36.2344 97.4688C36.2344 99.2188 37.3125 100.469 38.8594 100.469ZM42.7344 101.5H41.4219V100.234H41.375C40.8203 101.195 39.9219 101.719 38.7344 101.719C36.5 101.719 34.8906 99.8906 34.8906 97.4688C34.8906 95.0469 36.5 93.2188 38.7344 93.2188C39.9219 93.2188 40.8203 93.7422 41.375 94.7031H41.4219V93.4375H42.7344V101.5ZM44.8281 101.5V93.4375H46.1406V94.6094H46.2031C46.5938 93.75 47.4609 93.2188 48.6094 93.2188C50.4062 93.2188 51.3906 94.4844 51.3906 96.5625V101.5H50.0781V96.75C50.0781 95.2656 49.4531 94.4688 48.3281 94.4688C47.2031 94.4688 46.1406 95.2656 46.1406 97V101.5H44.8281ZM52.6094 94.5312V93.4375H53.9844V91.4375H55.2969V93.4375H57.2969V94.5312H55.2969V99.1562C55.2969 100.031 55.6719 100.438 56.4844 100.438C56.7344 100.438 57.0156 100.391 57.2969 100.312V101.547C57.0469 101.641 56.7031 101.719 56.2969 101.719C54.875 101.719 53.9844 100.75 53.9844 99.2031V94.5312H52.6094ZM59.0156 101.5V93.4375H60.3281V101.5H59.0156ZM59.6719 91.75C59.1719 91.75 58.7969 91.375 58.7969 90.875C58.7969 90.375 59.1719 90 59.6719 90C60.1719 90 60.5469 90.375 60.5469 90.875C60.5469 91.375 60.1719 91.75 59.6719 91.75ZM61.9219 94.5312V93.4375H63.2969V91.4375H64.6094V93.4375H66.6094V94.5312H64.6094V99.1562C64.6094 100.031 64.9844 100.438 65.7969 100.438C66.0469 100.438 66.3281 100.391 66.6094 100.312V101.547C66.3594 101.641 66.0156 101.719 65.6094 101.719C64.1875 101.719 63.2969 100.75 63.2969 99.2031V94.5312H61.9219ZM71 101.5L67.5781 93.4375H69L71.6719 99.8438H71.7344L74.125 93.4375H75.5156L71.125 104.875H69.7031L71 101.5ZM76.5625 101.625C76 101.625 75.5938 101.219 75.5938 100.656C75.5938 100.094 76 99.6875 76.5625 99.6875C77.125 99.6875 77.5312 100.094 77.5312 100.656C77.5312 101.219 77.125 101.625 76.5625 101.625Z" fill="#B0B0B0" fill-opacity="0.28"/>
<path d="M223.625 101.625C223.062 101.625 222.656 101.219 222.656 100.656C222.656 100.094 223.062 99.6875 223.625 99.6875C224.188 99.6875 224.594 100.094 224.594 100.656C224.594 101.219 224.188 101.625 223.625 101.625Z" fill="white"/>
<path d="M218.062 101.5L214.641 93.4375H216.062L218.734 99.8438H218.797L221.188 93.4375H222.578L218.188 104.875H216.766L218.062 101.5Z" fill="white"/>
<path d="M208.984 94.5312V93.4375H210.359V91.4375H211.672V93.4375H213.672V94.5312H211.672V99.1562C211.672 100.031 212.047 100.438 212.859 100.438C213.109 100.438 213.391 100.391 213.672 100.312V101.547C213.422 101.641 213.078 101.719 212.672 101.719C211.25 101.719 210.359 100.75 210.359 99.2031V94.5312H208.984Z" fill="white"/>
<path d="M206.078 101.5V93.4375H207.391V101.5H206.078ZM206.734 91.75C206.234 91.75 205.859 91.375 205.859 90.875C205.859 90.375 206.234 90 206.734 90C207.234 90 207.609 90.375 207.609 90.875C207.609 91.375 207.234 91.75 206.734 91.75Z" fill="white"/>
<path d="M199.672 94.5312V93.4375H201.047V91.4375H202.359V93.4375H204.359V94.5312H202.359V99.1562C202.359 100.031 202.734 100.438 203.547 100.438C203.797 100.438 204.078 100.391 204.359 100.312V101.547C204.109 101.641 203.766 101.719 203.359 101.719C201.938 101.719 201.047 100.75 201.047 99.2031V94.5312H199.672Z" fill="white"/>
<path d="M191.891 101.5V93.4375H193.203V94.6094H193.266C193.656 93.75 194.523 93.2188 195.672 93.2188C197.469 93.2188 198.453 94.4844 198.453 96.5625V101.5H197.141V96.75C197.141 95.2656 196.516 94.4688 195.391 94.4688C194.266 94.4688 193.203 95.2656 193.203 97V101.5H191.891Z" fill="white"/>
<path d="M185.766 101.719C184.188 101.719 183.016 100.594 183.016 99.1562C183.016 97.7188 184.188 96.6406 186.297 96.5312L188.453 96.4062C188.43 95.0938 187.812 94.4688 186.547 94.4688C185.594 94.4688 184.969 94.8125 184.516 95.625L183.344 95C184.016 93.8281 185.094 93.2188 186.547 93.2188C188.609 93.2188 189.797 94.4531 189.797 96.5V101.5H188.453V100.234H188.391C187.844 101.133 186.898 101.719 185.766 101.719ZM184.391 99.1562C184.391 99.9844 185.016 100.469 186.125 100.469C187.578 100.469 188.453 99.6406 188.453 98.3438V97.5156L186.297 97.6562C185.016 97.7344 184.391 98.3281 184.391 99.1562Z" fill="#3385FF"/>
<path d="M181.172 93.4375V101.5H179.859V100.328H179.812C179.406 101.188 178.539 101.719 177.391 101.719C175.594 101.719 174.609 100.453 174.609 98.375V93.4375H175.922V98.1875C175.922 99.6719 176.547 100.469 177.672 100.469C178.797 100.469 179.859 99.6719 179.859 97.9375V93.4375H181.172Z" fill="white"/>
<path d="M172.516 104.875H171.203V100.234H171.156C170.602 101.195 169.703 101.719 168.516 101.719C166.281 101.719 164.672 99.8906 164.672 97.4688C164.672 95.0469 166.281 93.2188 168.516 93.2188C169.703 93.2188 170.602 93.7422 171.156 94.7031H171.203V93.4375H172.516V104.875ZM168.641 100.469C170.172 100.469 171.266 99.2344 171.266 97.4688C171.266 95.7031 170.172 94.4688 168.641 94.4688C167.094 94.4688 166.016 95.7188 166.016 97.4688C166.016 99.2188 167.094 100.469 168.641 100.469Z" fill="white"/>
<path d="M296.797 80.7188C295.484 80.7188 294.438 80.2031 293.672 79.1875L294.734 78.4375C295.266 79.1562 295.891 79.4688 296.797 79.4688C297.922 79.4688 298.578 79 298.578 78.2031C298.578 77.5781 298.156 77.2656 296.859 76.9375L296.422 76.8281C294.75 76.4062 293.953 75.6875 293.953 74.5938C293.953 73.2344 295.172 72.2188 296.797 72.2188C298 72.2188 299.109 72.7812 299.75 73.7344L298.656 74.4531C298.203 73.8125 297.562 73.4688 296.797 73.4688C295.906 73.4688 295.297 73.9219 295.297 74.5938C295.297 75.0938 295.625 75.3281 296.734 75.6094L297.172 75.7188C299.078 76.1875 299.922 76.9531 299.922 78.2031C299.922 79.7031 298.656 80.7188 296.797 80.7188Z" fill="white"/>
<path d="M288.625 80.7188C286.203 80.7188 284.422 78.8906 284.422 76.4688C284.422 74.0469 286.156 72.2188 288.469 72.2188C290.781 72.2188 292.391 74.0469 292.391 76.4688L292.375 76.9219H285.797C285.977 78.4688 287.117 79.4688 288.656 79.4688C289.766 79.4688 290.562 78.9453 290.969 78.0781L292.125 78.5781C291.508 79.875 290.281 80.7188 288.625 80.7188ZM285.859 75.6406H290.953C290.859 74.4141 289.859 73.4688 288.469 73.4688C287.141 73.4688 286.148 74.3281 285.859 75.6406Z" fill="white"/>
<path d="M271.609 80.5V72.4375H272.922V73.6094H272.969C273.344 72.75 274.148 72.2188 275.219 72.2188C276.359 72.2188 277.148 72.8047 277.547 73.8438H277.594C277.922 72.8516 278.805 72.2188 280.016 72.2188C281.75 72.2188 282.703 73.4844 282.703 75.5625V80.5H281.391V75.75C281.391 74.2656 280.812 73.4688 279.797 73.4688C278.781 73.4688 277.812 74.2656 277.812 76V80.5H276.5V75.75C276.5 74.2656 275.922 73.4688 274.906 73.4688C273.891 73.4688 272.922 74.2656 272.922 76V80.5H271.609Z" fill="white"/>
<path d="M265.75 80.7188C263.391 80.7188 261.609 78.8906 261.609 76.4688C261.609 74.0469 263.391 72.2188 265.75 72.2188C268.109 72.2188 269.891 74.0469 269.891 76.4688C269.891 78.8906 268.109 80.7188 265.75 80.7188ZM265.75 79.4688C267.391 79.4688 268.547 78.2344 268.547 76.4688C268.547 74.7031 267.391 73.4688 265.75 73.4688C264.109 73.4688 262.953 74.7031 262.953 76.4688C262.953 78.2344 264.109 79.4688 265.75 79.4688Z" fill="white"/>
<path d="M256.906 80.7188C254.516 80.7188 252.734 78.8906 252.734 76.4688C252.734 74.0469 254.516 72.2188 256.906 72.2188C258.398 72.2188 259.602 72.9297 260.266 74.0938L259.109 74.6875C258.672 73.9141 257.906 73.4688 256.906 73.4688C255.234 73.4688 254.078 74.7031 254.078 76.4688C254.078 78.2344 255.234 79.4688 256.906 79.4688C257.906 79.4688 258.672 79.0234 259.109 78.25L260.266 78.8438C259.602 80.0078 258.398 80.7188 256.906 80.7188Z" fill="white"/>
<path d="M247.531 80.5V72.4375H248.844V73.6875H248.906C249.305 72.8125 250.102 72.2188 251.016 72.2188C251.312 72.2188 251.594 72.2812 251.859 72.3906V73.6875C251.562 73.5938 251.266 73.5469 250.984 73.5469C249.641 73.5469 248.844 74.625 248.844 76.4688V80.5H247.531Z" fill="white"/>
<path d="M242.047 80.7188C239.625 80.7188 237.844 78.8906 237.844 76.4688C237.844 74.0469 239.578 72.2188 241.891 72.2188C244.203 72.2188 245.812 74.0469 245.812 76.4688L245.797 76.9219H239.219C239.398 78.4688 240.539 79.4688 242.078 79.4688C243.188 79.4688 243.984 78.9453 244.391 78.0781L245.547 78.5781C244.93 79.875 243.703 80.7188 242.047 80.7188ZM239.281 75.6406H244.375C244.281 74.4141 243.281 73.4688 241.891 73.4688C240.562 73.4688 239.57 74.3281 239.281 75.6406Z" fill="white"/>
<path d="M232.344 80.5L229.25 72.4375H230.672L233.188 79.2031H233.25L235.766 72.4375H237.188L234.094 80.5H232.344Z" fill="white"/>
<path d="M224.453 80.7188C222.094 80.7188 220.312 78.8906 220.312 76.4688C220.312 74.0469 222.094 72.2188 224.453 72.2188C226.812 72.2188 228.594 74.0469 228.594 76.4688C228.594 78.8906 226.812 80.7188 224.453 80.7188ZM224.453 79.4688C226.094 79.4688 227.25 78.2344 227.25 76.4688C227.25 74.7031 226.094 73.4688 224.453 73.4688C222.812 73.4688 221.656 74.7031 221.656 76.4688C221.656 78.2344 222.812 79.4688 224.453 79.4688Z" fill="white"/>
<path d="M210.828 80.5L207.406 72.4375H208.828L211.5 78.8438H211.562L213.953 72.4375H215.344L210.953 83.875H209.531L210.828 80.5Z" fill="white"/>
<path d="M201.75 73.5312V72.4375H203.125V70.4375H204.438V72.4375H206.438V73.5312H204.438V78.1562C204.438 79.0312 204.812 79.4375 205.625 79.4375C205.875 79.4375 206.156 79.3906 206.438 79.3125V80.5469C206.188 80.6406 205.844 80.7188 205.438 80.7188C204.016 80.7188 203.125 79.75 203.125 78.2031V73.5312H201.75Z" fill="white"/>
<path d="M198.844 80.5V72.4375H200.156V80.5H198.844ZM199.5 70.75C199 70.75 198.625 70.375 198.625 69.875C198.625 69.375 199 69 199.5 69C200 69 200.375 69.375 200.375 69.875C200.375 70.375 200 70.75 199.5 70.75Z" fill="white"/>
<path d="M195.438 80.5V69.1875H196.75V80.5H195.438Z" fill="white"/>
<path d="M189.312 80.7188C187.734 80.7188 186.562 79.5938 186.562 78.1562C186.562 76.7188 187.734 75.6406 189.844 75.5312L192 75.4062C191.977 74.0938 191.359 73.4688 190.094 73.4688C189.141 73.4688 188.516 73.8125 188.062 74.625L186.891 74C187.562 72.8281 188.641 72.2188 190.094 72.2188C192.156 72.2188 193.344 73.4531 193.344 75.5V80.5H192V79.2344H191.938C191.391 80.1328 190.445 80.7188 189.312 80.7188ZM187.938 78.1562C187.938 78.9844 188.562 79.4688 189.672 79.4688C191.125 79.4688 192 78.6406 192 77.3438V76.5156L189.844 76.6562C188.562 76.7344 187.938 77.3281 187.938 78.1562Z" fill="#3385FF"/>
<path d="M184.719 72.4375V80.5H183.406V79.3281H183.359C182.953 80.1875 182.086 80.7188 180.938 80.7188C179.141 80.7188 178.156 79.4531 178.156 77.375V72.4375H179.469V77.1875C179.469 78.6719 180.094 79.4688 181.219 79.4688C182.344 79.4688 183.406 78.6719 183.406 76.9375V72.4375H184.719Z" fill="white"/>
<path d="M170.891 80.5C167.203 80.5 164.734 78.1875 164.734 74.7344C164.734 71.4375 167.203 68.9688 170.5 68.9688C173.797 68.9688 176.266 71.4375 176.266 74.7344C176.266 76.7734 175.305 78.3594 173.688 79.2188H176.875V80.5H170.891ZM170.5 79.1875C173.062 79.1875 174.859 77.3438 174.859 74.7344C174.859 72.125 173.062 70.2812 170.5 70.2812C167.938 70.2812 166.141 72.125 166.141 74.7344C166.141 77.3438 167.938 79.1875 170.5 79.1875Z" fill="#3385FF"/>
</svg>
