<svg width="320" height="97" viewBox="0 0 320 97" fill="none" xmlns="http://www.w3.org/2000/svg">
<rect x="0.5" y="0.5" width="319" height="96" rx="7.5" stroke="#70737C" stroke-opacity="0.28"/>
<rect x="16" y="16" width="40" height="20" rx="4" fill="#70737C" fill-opacity="0.22"/>
<path d="M22.377 25.4004C22.377 24.2051 23.3613 23.4434 24.8789 23.4434C26.3496 23.4434 27.2812 24.123 27.3691 25.2773H26.0801C25.9863 24.7969 25.5234 24.498 24.8613 24.498C24.1758 24.498 23.7246 24.8145 23.7246 25.2949C23.7246 25.7051 24.0176 25.9395 24.7148 26.0918L25.6699 26.2969C26.9531 26.5723 27.5215 27.1172 27.5215 28.0781C27.5215 29.3262 26.4961 30.1289 24.8848 30.1289C23.3145 30.1289 22.3184 29.4316 22.2246 28.2715H23.5781C23.6953 28.7754 24.1816 29.0625 24.9082 29.0625C25.6523 29.0625 26.1211 28.7344 26.1211 28.2363C26.1211 27.8145 25.8516 27.5977 25.1191 27.4395L24.1582 27.2285C22.9746 26.9648 22.377 26.3555 22.377 25.4004ZM29.7949 25.4004C29.7949 24.2051 30.7793 23.4434 32.2969 23.4434C33.7676 23.4434 34.6992 24.123 34.7871 25.2773H33.498C33.4043 24.7969 32.9414 24.498 32.2793 24.498C31.5938 24.498 31.1426 24.8145 31.1426 25.2949C31.1426 25.7051 31.4355 25.9395 32.1328 26.0918L33.0879 26.2969C34.3711 26.5723 34.9395 27.1172 34.9395 28.0781C34.9395 29.3262 33.9141 30.1289 32.3027 30.1289C30.7324 30.1289 29.7363 29.4316 29.6426 28.2715H30.9961C31.1133 28.7754 31.5996 29.0625 32.3262 29.0625C33.0703 29.0625 33.5391 28.7344 33.5391 28.2363C33.5391 27.8145 33.2695 27.5977 32.5371 27.4395L31.5762 27.2285C30.3926 26.9648 29.7949 26.3555 29.7949 25.4004ZM41.3613 25.2715L38.25 27.5684C38.502 28.5059 39 28.998 39.7148 28.998C40.793 28.998 41.373 27.873 41.373 25.7695C41.373 25.5938 41.3672 25.4297 41.3613 25.2715ZM38.0625 26.2734L41.1797 23.9883C40.9277 23.0449 40.4297 22.5469 39.7148 22.5469C38.6309 22.5469 38.0508 23.6719 38.0508 25.7695C38.0508 25.9453 38.0566 26.1152 38.0625 26.2734ZM39.7148 21.3633C41.666 21.3633 42.7617 22.9453 42.7617 25.7695C42.7617 28.5996 41.666 30.1816 39.7148 30.1816C37.7578 30.1816 36.6621 28.5996 36.6621 25.7695C36.6621 22.9453 37.7578 21.3633 39.7148 21.3633ZM44.2266 24.0234C44.2266 22.459 45.4043 21.375 47.0859 21.375C48.7559 21.375 49.8867 22.3535 49.8867 23.7949C49.8867 24.6973 49.4355 25.4531 48.041 26.8652L46.2539 28.6875V28.793H50.0215V30H44.3027V29.0215L47.0977 26.1094C48.2168 24.9316 48.5039 24.4863 48.5039 23.877C48.5039 23.0684 47.9238 22.541 47.0449 22.541C46.1484 22.541 45.5566 23.1328 45.5566 24.0176V24.0586H44.2266V24.0234Z" fill="white"/>
<rect x="16" y="52" width="288" height="1" fill="#70737C" fill-opacity="0.28"/>
<path d="M16.9375 71.1875C17.8281 70.6562 18.7188 70 19.6562 69.1875H21V80.5H19.6562V70.9219H19.5938C18.7266 71.6094 17.8203 72.2109 16.9375 72.6719V71.1875ZM23.875 79.2188C27.875 76.4844 29.7031 74.3438 29.7031 72.4375C29.7031 71.0469 28.7656 70.25 27.4219 70.25C26.375 70.25 25.6094 70.7344 25.1875 72.125L23.875 71.75C24.4688 69.7969 25.7969 68.9688 27.4219 68.9688C29.4844 68.9688 31.0781 70.2969 31.0781 72.4375C31.0781 74.6406 29.2188 76.8047 26.0781 79.1562V79.2188H31.25V80.5H23.875V79.2188ZM37.125 80.7188C35.25 80.7188 33.875 79.7656 33.0625 78.0781L34.2969 77.5156C34.9219 78.8125 35.8594 79.4375 37.125 79.4375C38.6406 79.4375 39.75 78.5469 39.75 77.3125C39.75 76 38.5 75.2031 36.4375 75.2031H36.0625V73.9219H36.4375C38.2344 73.9219 39.2969 73.25 39.2969 72.0938C39.2969 71.0156 38.375 70.25 37.0938 70.25C36 70.25 35.1406 70.8125 34.625 71.875L33.3906 71.3125C34.1406 69.7656 35.5 68.9688 37.0938 68.9688C39.1406 68.9688 40.6719 70.2969 40.6719 72.0625C40.6719 73.2969 39.9219 74.1406 38.5312 74.5312V74.5781C40.1797 75.0234 41.125 76.0156 41.125 77.4062C41.125 79.2969 39.4062 80.7188 37.125 80.7188ZM42.6875 77.9531V76.6719L47.0781 69.1875H48.6094L44.2969 76.5625V76.6719H48.2656V73.125H49.6094V76.6719H51.375V77.9531H49.6094V80.5H48.2656V77.9531H42.6875ZM53.1406 75.7031L53.7344 69.1719H60.0625V70.4531H55L54.625 74.3594H54.6875C55.2969 73.6094 56.2031 73.1562 57.25 73.1562C59.2188 73.1562 60.8125 74.7656 60.8125 76.9375C60.8125 79.1562 59.1562 80.7188 56.8125 80.7188C55.0156 80.7188 53.5781 79.7812 52.75 78.0781L53.9844 77.5156C54.6094 78.8125 55.5625 79.4375 56.8125 79.4375C58.3906 79.4375 59.4375 78.4375 59.4375 76.9375C59.4375 75.4375 58.3906 74.4375 56.8281 74.4375C55.75 74.4375 54.9141 74.9141 54.5 75.7031H53.1406ZM66.6094 80.7188C63.9219 80.7188 62.4375 78.5469 62.4375 75.1094C62.4375 71.1562 64.375 68.9688 66.9531 68.9688C68.3438 68.9688 69.5625 69.6094 70.3125 70.7031L69.1562 71.4219C68.6406 70.625 67.7969 70.25 66.9531 70.25C65.2656 70.25 63.9141 71.7422 63.8281 74.7656H63.8906C64.5234 73.7656 65.6094 73.1562 66.8906 73.1562C68.9219 73.1562 70.5 74.7188 70.5 76.9375C70.5 79.1719 68.8906 80.7188 66.6094 80.7188ZM66.6094 79.4375C68.0781 79.4375 69.125 78.4062 69.125 76.9375C69.125 75.4688 68.0781 74.4375 66.6094 74.4375C65.1406 74.4375 64.0938 75.4688 64.0938 76.9375C64.0938 78.4062 65.1406 79.4375 66.6094 79.4375ZM72.25 70.4688V69.1875H79.6875V70.4688C77.2812 73.4062 75.9688 76.7031 75.6562 80.5H74.375C74.6562 76.7891 75.8438 73.5 78.0156 70.5312V70.4688H72.25ZM85.2188 79.4375C86.7812 79.4375 87.875 78.5625 87.875 77.3125C87.875 76.0625 86.7812 75.1875 85.2188 75.1875C83.6562 75.1875 82.5625 76.0625 82.5625 77.3125C82.5625 78.5625 83.6562 79.4375 85.2188 79.4375ZM85.2188 73.9375C86.3906 73.9375 87.2188 73.1719 87.2188 72.0938C87.2188 71.0156 86.3906 70.25 85.2188 70.25C84.0469 70.25 83.2188 71.0156 83.2188 72.0938C83.2188 73.1719 84.0469 73.9375 85.2188 73.9375ZM81.1875 77.375C81.1875 76.0703 82.0312 74.9609 83.5625 74.5V74.4531C82.4609 74.0547 81.8594 73.2031 81.8594 72.0625C81.8594 70.2969 83.2969 68.9688 85.2188 68.9688C87.1406 68.9688 88.5781 70.2969 88.5781 72.0625C88.5781 73.2031 87.9766 74.0547 86.875 74.4531V74.5C88.4141 74.9609 89.25 76.0703 89.25 77.375C89.25 79.2656 87.5156 80.7188 85.2188 80.7188C82.9219 80.7188 81.1875 79.2656 81.1875 77.375ZM94.4219 80.7188C93.0156 80.7188 91.875 80.0469 91 78.75L92.125 78.0312C92.8125 79.0156 93.5156 79.4375 94.4219 79.4375C96.1094 79.4375 97.4609 77.9453 97.5625 74.9219H97.5C96.8516 75.9219 95.7656 76.5312 94.4844 76.5312C92.4531 76.5312 90.875 74.9688 90.875 72.75C90.875 70.5156 92.4844 68.9688 94.7656 68.9688C97.4531 68.9688 98.9375 71.1406 98.9375 74.5781C98.9375 78.5312 97 80.7188 94.4219 80.7188ZM94.7656 75.25C96.2344 75.25 97.2812 74.2188 97.2812 72.75C97.2812 71.2812 96.2344 70.25 94.7656 70.25C93.2969 70.25 92.25 71.2812 92.25 72.75C92.25 74.2188 93.2969 75.25 94.7656 75.25ZM104.75 80.7188C102.172 80.7188 100.562 78.4531 100.562 74.8438C100.562 71.2344 102.172 68.9688 104.75 68.9688C107.328 68.9688 108.938 71.2344 108.938 74.8438C108.938 78.4531 107.328 80.7188 104.75 80.7188ZM104.75 79.4375C106.469 79.4375 107.562 77.6562 107.562 74.8438C107.562 72.0312 106.469 70.25 104.75 70.25C103.031 70.25 101.938 72.0312 101.938 74.8438C101.938 77.6562 103.031 79.4375 104.75 79.4375Z" fill="#B0B0B0" fill-opacity="0.28"/>
<path d="M252.75 80.7188C250.172 80.7188 248.562 78.4531 248.562 74.8438C248.562 71.2344 250.172 68.9688 252.75 68.9688C255.328 68.9688 256.938 71.2344 256.938 74.8438C256.938 78.4531 255.328 80.7188 252.75 80.7188ZM252.75 79.4375C254.469 79.4375 255.562 77.6562 255.562 74.8438C255.562 72.0312 254.469 70.25 252.75 70.25C251.031 70.25 249.938 72.0312 249.938 74.8438C249.938 77.6562 251.031 79.4375 252.75 79.4375Z" fill="white"/>
<path d="M242.422 80.7188C241.016 80.7188 239.875 80.0469 239 78.75L240.125 78.0312C240.812 79.0156 241.516 79.4375 242.422 79.4375C244.109 79.4375 245.461 77.9453 245.562 74.9219H245.5C244.852 75.9219 243.766 76.5312 242.484 76.5312C240.453 76.5312 238.875 74.9688 238.875 72.75C238.875 70.5156 240.484 68.9688 242.766 68.9688C245.453 68.9688 246.938 71.1406 246.938 74.5781C246.938 78.5312 245 80.7188 242.422 80.7188ZM242.766 75.25C244.234 75.25 245.281 74.2188 245.281 72.75C245.281 71.2812 244.234 70.25 242.766 70.25C241.297 70.25 240.25 71.2812 240.25 72.75C240.25 74.2188 241.297 75.25 242.766 75.25Z" fill="white"/>
<path d="M233.219 79.4375C234.781 79.4375 235.875 78.5625 235.875 77.3125C235.875 76.0625 234.781 75.1875 233.219 75.1875C231.656 75.1875 230.562 76.0625 230.562 77.3125C230.562 78.5625 231.656 79.4375 233.219 79.4375ZM233.219 73.9375C234.391 73.9375 235.219 73.1719 235.219 72.0938C235.219 71.0156 234.391 70.25 233.219 70.25C232.047 70.25 231.219 71.0156 231.219 72.0938C231.219 73.1719 232.047 73.9375 233.219 73.9375ZM229.188 77.375C229.188 76.0703 230.031 74.9609 231.562 74.5V74.4531C230.461 74.0547 229.859 73.2031 229.859 72.0625C229.859 70.2969 231.297 68.9688 233.219 68.9688C235.141 68.9688 236.578 70.2969 236.578 72.0625C236.578 73.2031 235.977 74.0547 234.875 74.4531V74.5C236.414 74.9609 237.25 76.0703 237.25 77.375C237.25 79.2656 235.516 80.7188 233.219 80.7188C230.922 80.7188 229.188 79.2656 229.188 77.375Z" fill="white"/>
<path d="M221.094 80.5L226.156 70.5312V70.4688H220.25V69.1875H227.688V70.4688L222.594 80.5H221.094Z" fill="#3385FF"/>
<path d="M214.609 80.7188C211.922 80.7188 210.438 78.5469 210.438 75.1094C210.438 71.1562 212.375 68.9688 214.953 68.9688C216.344 68.9688 217.562 69.6094 218.312 70.7031L217.156 71.4219C216.641 70.625 215.797 70.25 214.953 70.25C213.266 70.25 211.914 71.7422 211.828 74.7656H211.891C212.523 73.7656 213.609 73.1562 214.891 73.1562C216.922 73.1562 218.5 74.7188 218.5 76.9375C218.5 79.1719 216.891 80.7188 214.609 80.7188ZM214.609 79.4375C216.078 79.4375 217.125 78.4062 217.125 76.9375C217.125 75.4688 216.078 74.4375 214.609 74.4375C213.141 74.4375 212.094 75.4688 212.094 76.9375C212.094 78.4062 213.141 79.4375 214.609 79.4375Z" fill="white"/>
<path d="M201.141 75.7031L201.734 69.1719H208.062V70.4531H203L202.625 74.3594H202.688C203.297 73.6094 204.203 73.1562 205.25 73.1562C207.219 73.1562 208.812 74.7656 208.812 76.9375C208.812 79.1562 207.156 80.7188 204.812 80.7188C203.016 80.7188 201.578 79.7812 200.75 78.0781L201.984 77.5156C202.609 78.8125 203.562 79.4375 204.812 79.4375C206.391 79.4375 207.438 78.4375 207.438 76.9375C207.438 75.4375 206.391 74.4375 204.828 74.4375C203.75 74.4375 202.914 74.9141 202.5 75.7031H201.141Z" fill="white"/>
<path d="M190.688 77.9531V76.6562L195.438 69.1875H197.609V76.6719H199.375V77.9531H197.609V80.5H196.266V77.9531H190.688ZM192.281 76.6719H196.266V70.4688H196.203L192.281 76.625V76.6719Z" fill="#3385FF"/>
<path d="M185.125 80.7188C183.25 80.7188 181.875 79.7656 181.062 78.0781L182.297 77.5156C182.922 78.8125 183.859 79.4375 185.125 79.4375C186.641 79.4375 187.75 78.5469 187.75 77.3125C187.75 76 186.5 75.2031 184.438 75.2031H184.062V73.9219H184.438C186.234 73.9219 187.297 73.25 187.297 72.0938C187.297 71.0156 186.375 70.25 185.094 70.25C184 70.25 183.141 70.8125 182.625 71.875L181.391 71.3125C182.141 69.7656 183.5 68.9688 185.094 68.9688C187.141 68.9688 188.672 70.2969 188.672 72.0625C188.672 73.2969 187.922 74.1406 186.531 74.5312V74.5781C188.18 75.0234 189.125 76.0156 189.125 77.4062C189.125 79.2969 187.406 80.7188 185.125 80.7188Z" fill="white"/>
<path d="M171.875 80.5V79.3125L174.609 76.5312C176.766 74.3281 177.703 73.6562 177.703 72.3125C177.703 71.0156 176.812 70.25 175.422 70.25C174.375 70.25 173.609 70.7344 173.188 72.125L171.875 71.75C172.469 69.7969 173.797 68.9688 175.422 68.9688C177.562 68.9688 179.078 70.3125 179.078 72.3125C179.078 74.2969 177.625 75.375 175.609 77.4062L173.875 79.1562V79.2188H179.25V80.5H171.875Z" fill="#3385FF"/>
<path d="M164.938 72.7188V71.125L167.656 69.1875H169V80.5H167.656V70.8281H167.594L164.938 72.7188Z" fill="#3385FF"/>
</svg>
