<svg width="320" height="97" viewBox="0 0 320 97" fill="none" xmlns="http://www.w3.org/2000/svg">
<rect x="0.5" y="0.5" width="319" height="96" rx="7.5" stroke="#70737C" stroke-opacity="0.28"/>
<rect x="16" y="16" width="40" height="20" rx="4" fill="#70737C" fill-opacity="0.22"/>
<path d="M22.377 25.4004C22.377 24.2051 23.3613 23.4434 24.8789 23.4434C26.3496 23.4434 27.2812 24.123 27.3691 25.2773H26.0801C25.9863 24.7969 25.5234 24.498 24.8613 24.498C24.1758 24.498 23.7246 24.8145 23.7246 25.2949C23.7246 25.7051 24.0176 25.9395 24.7148 26.0918L25.6699 26.2969C26.9531 26.5723 27.5215 27.1172 27.5215 28.0781C27.5215 29.3262 26.4961 30.1289 24.8848 30.1289C23.3145 30.1289 22.3184 29.4316 22.2246 28.2715H23.5781C23.6953 28.7754 24.1816 29.0625 24.9082 29.0625C25.6523 29.0625 26.1211 28.7344 26.1211 28.2363C26.1211 27.8145 25.8516 27.5977 25.1191 27.4395L24.1582 27.2285C22.9746 26.9648 22.377 26.3555 22.377 25.4004ZM29.7949 25.4004C29.7949 24.2051 30.7793 23.4434 32.2969 23.4434C33.7676 23.4434 34.6992 24.123 34.7871 25.2773H33.498C33.4043 24.7969 32.9414 24.498 32.2793 24.498C31.5938 24.498 31.1426 24.8145 31.1426 25.2949C31.1426 25.7051 31.4355 25.9395 32.1328 26.0918L33.0879 26.2969C34.3711 26.5723 34.9395 27.1172 34.9395 28.0781C34.9395 29.3262 33.9141 30.1289 32.3027 30.1289C30.7324 30.1289 29.7363 29.4316 29.6426 28.2715H30.9961C31.1133 28.7754 31.5996 29.0625 32.3262 29.0625C33.0703 29.0625 33.5391 28.7344 33.5391 28.2363C33.5391 27.8145 33.2695 27.5977 32.5371 27.4395L31.5762 27.2285C30.3926 26.9648 29.7949 26.3555 29.7949 25.4004ZM41.3613 25.2715L38.25 27.5684C38.502 28.5059 39 28.998 39.7148 28.998C40.793 28.998 41.373 27.873 41.373 25.7695C41.373 25.5938 41.3672 25.4297 41.3613 25.2715ZM38.0625 26.2734L41.1797 23.9883C40.9277 23.0449 40.4297 22.5469 39.7148 22.5469C38.6309 22.5469 38.0508 23.6719 38.0508 25.7695C38.0508 25.9453 38.0566 26.1152 38.0625 26.2734ZM39.7148 21.3633C41.666 21.3633 42.7617 22.9453 42.7617 25.7695C42.7617 28.5996 41.666 30.1816 39.7148 30.1816C37.7578 30.1816 36.6621 28.5996 36.6621 25.7695C36.6621 22.9453 37.7578 21.3633 39.7148 21.3633ZM46.0957 26.2031V25.1133H47.0566C47.9414 25.1133 48.5391 24.5801 48.5391 23.8008C48.5391 23.0273 47.959 22.5352 47.0742 22.5352C46.1895 22.5352 45.6094 23.0391 45.5449 23.8535H44.25C44.332 22.3184 45.4219 21.375 47.1211 21.375C48.7559 21.375 49.8867 22.2832 49.8867 23.5957C49.8867 24.5977 49.3301 25.3301 48.4102 25.5352V25.6348C49.5469 25.7754 50.2266 26.5371 50.2266 27.6738C50.2266 29.1445 48.9609 30.1699 47.1504 30.1699C45.375 30.1699 44.168 29.1797 44.0918 27.6504H45.4102C45.4805 28.4473 46.1426 28.957 47.1152 28.957C48.1523 28.957 48.8086 28.4297 48.8086 27.5977C48.8086 26.748 48.1348 26.2031 47.0859 26.2031H46.0957Z" fill="white"/>
<rect x="16" y="52" width="288" height="1" fill="#70737C" fill-opacity="0.28"/>
<path d="M17 79.2188C21 76.4844 22.8281 74.3438 22.8281 72.4375C22.8281 71.0469 21.8906 70.25 20.5469 70.25C19.5 70.25 18.7344 70.7344 18.3125 72.125L17 71.75C17.5938 69.7969 18.9219 68.9688 20.5469 68.9688C22.6094 68.9688 24.2031 70.2969 24.2031 72.4375C24.2031 74.6406 22.3438 76.8047 19.2031 79.1562V79.2188H24.375V80.5H17V79.2188ZM30.25 80.7188C28.375 80.7188 27 79.7656 26.1875 78.0781L27.4219 77.5156C28.0469 78.8125 28.9844 79.4375 30.25 79.4375C31.7656 79.4375 32.875 78.5469 32.875 77.3125C32.875 76 31.625 75.2031 29.5625 75.2031H29.1875V73.9219H29.5625C31.3594 73.9219 32.4219 73.25 32.4219 72.0938C32.4219 71.0156 31.5 70.25 30.2188 70.25C29.125 70.25 28.2656 70.8125 27.75 71.875L26.5156 71.3125C27.2656 69.7656 28.625 68.9688 30.2188 68.9688C32.2656 68.9688 33.7969 70.2969 33.7969 72.0625C33.7969 73.2969 33.0469 74.1406 31.6562 74.5312V74.5781C33.3047 75.0234 34.25 76.0156 34.25 77.4062C34.25 79.2969 32.5312 80.7188 30.25 80.7188ZM40.1094 80.5V72.4375H41.4219V73.6875H41.4844C41.8828 72.8125 42.6797 72.2188 43.5938 72.2188C43.8906 72.2188 44.1719 72.2812 44.4375 72.3906V73.6875C44.1406 73.5938 43.8438 73.5469 43.5625 73.5469C42.2188 73.5469 41.4219 74.625 41.4219 76.4688V80.5H40.1094ZM49.5156 80.7188C47.0938 80.7188 45.3125 78.8906 45.3125 76.4688C45.3125 74.0469 47.0469 72.2188 49.3594 72.2188C51.6719 72.2188 53.2812 74.0469 53.2812 76.4688L53.2656 76.9219H46.6875C46.8672 78.4688 48.0078 79.4688 49.5469 79.4688C50.6562 79.4688 51.4531 78.9453 51.8594 78.0781L53.0156 78.5781C52.3984 79.875 51.1719 80.7188 49.5156 80.7188ZM46.75 75.6406H51.8438C51.75 74.4141 50.75 73.4688 49.3594 73.4688C48.0312 73.4688 47.0391 74.3281 46.75 75.6406ZM54.1875 73.5312V72.4375H55.5625V71.4844C55.5625 69.9375 56.4844 68.9688 57.9375 68.9688C58.3906 68.9688 58.7656 69.0625 59.0625 69.1719V70.4062C58.7188 70.2969 58.4062 70.25 58.125 70.25C57.2812 70.25 56.875 70.6719 56.875 71.5312V72.4375H59.0625V73.5312H56.875V80.5H55.5625V73.5312H54.1875ZM60.7188 80.5V72.4375H62.0312V73.6875H62.0938C62.4922 72.8125 63.2891 72.2188 64.2031 72.2188C64.5 72.2188 64.7812 72.2812 65.0469 72.3906V73.6875C64.75 73.5938 64.4531 73.5469 64.1719 73.5469C62.8281 73.5469 62.0312 74.625 62.0312 76.4688V80.5H60.7188ZM66.7344 80.5V72.4375H68.0469V80.5H66.7344ZM67.3906 70.75C66.8906 70.75 66.5156 70.375 66.5156 69.875C66.5156 69.375 66.8906 69 67.3906 69C67.8906 69 68.2656 69.375 68.2656 69.875C68.2656 70.375 67.8906 70.75 67.3906 70.75ZM73.7344 79.2188C75.2656 79.2188 76.3594 78.0312 76.3594 76.3438C76.3594 74.6562 75.2656 73.4688 73.7344 73.4688C72.1875 73.4688 71.1094 74.6719 71.1094 76.3438C71.1094 78.0156 72.1875 79.2188 73.7344 79.2188ZM73.5781 84.0938C71.9844 84.0938 70.8125 83.4219 69.9375 82.0625L71.0312 81.375C71.7188 82.4219 72.4688 82.8438 73.5781 82.8438C75.3438 82.8438 76.2969 81.7656 76.2969 79.6875V79.0312H76.2344C75.6953 79.9688 74.7969 80.4688 73.6094 80.4688C71.375 80.4688 69.7656 78.6875 69.7656 76.3438C69.7656 74 71.375 72.2188 73.6094 72.2188C74.7969 72.2188 75.6953 72.7188 76.2344 73.6562H76.2969V72.4375H77.6094V79.6875C77.6094 82.4844 76.0625 84.0938 73.5781 84.0938ZM83.5312 80.7188C81.1094 80.7188 79.3281 78.8906 79.3281 76.4688C79.3281 74.0469 81.0625 72.2188 83.375 72.2188C85.6875 72.2188 87.2969 74.0469 87.2969 76.4688L87.2812 76.9219H80.7031C80.8828 78.4688 82.0234 79.4688 83.5625 79.4688C84.6719 79.4688 85.4688 78.9453 85.875 78.0781L87.0312 78.5781C86.4141 79.875 85.1875 80.7188 83.5312 80.7188ZM80.7656 75.6406H85.8594C85.7656 74.4141 84.7656 73.4688 83.375 73.4688C82.0469 73.4688 81.0547 74.3281 80.7656 75.6406ZM89.0156 80.5V72.4375H90.3281V73.6875H90.3906C90.7891 72.8125 91.5859 72.2188 92.5 72.2188C92.7969 72.2188 93.0781 72.2812 93.3438 72.3906V73.6875C93.0469 73.5938 92.75 73.5469 92.4688 73.5469C91.125 73.5469 90.3281 74.625 90.3281 76.4688V80.5H89.0156ZM98.1875 79.4688C99.7188 79.4688 100.812 78.2344 100.812 76.4688C100.812 74.7031 99.7188 73.4688 98.1875 73.4688C96.6406 73.4688 95.5625 74.7188 95.5625 76.4688C95.5625 78.2188 96.6406 79.4688 98.1875 79.4688ZM102.062 80.5H100.75V79.2344H100.703C100.148 80.1953 99.25 80.7188 98.0625 80.7188C95.8281 80.7188 94.2188 78.8906 94.2188 76.4688C94.2188 74.0469 95.8281 72.2188 98.0625 72.2188C99.25 72.2188 100.148 72.7422 100.703 73.7031H100.75V72.4375H102.062V80.5ZM103.656 73.5312V72.4375H105.031V70.4375H106.344V72.4375H108.344V73.5312H106.344V78.1562C106.344 79.0312 106.719 79.4375 107.531 79.4375C107.781 79.4375 108.062 79.3906 108.344 79.3125V80.5469C108.094 80.6406 107.75 80.7188 107.344 80.7188C105.922 80.7188 105.031 79.75 105.031 78.2031V73.5312H103.656ZM113.703 80.7188C111.344 80.7188 109.562 78.8906 109.562 76.4688C109.562 74.0469 111.344 72.2188 113.703 72.2188C116.062 72.2188 117.844 74.0469 117.844 76.4688C117.844 78.8906 116.062 80.7188 113.703 80.7188ZM113.703 79.4688C115.344 79.4688 116.5 78.2344 116.5 76.4688C116.5 74.7031 115.344 73.4688 113.703 73.4688C112.062 73.4688 110.906 74.7031 110.906 76.4688C110.906 78.2344 112.062 79.4688 113.703 79.4688ZM119.562 80.5V72.4375H120.875V73.6875H120.938C121.336 72.8125 122.133 72.2188 123.047 72.2188C123.344 72.2188 123.625 72.2812 123.891 72.3906V73.6875C123.594 73.5938 123.297 73.5469 123.016 73.5469C121.672 73.5469 120.875 74.625 120.875 76.4688V80.5H119.562ZM128.078 80.7188C126.766 80.7188 125.719 80.2031 124.953 79.1875L126.016 78.4375C126.547 79.1562 127.172 79.4688 128.078 79.4688C129.203 79.4688 129.859 79 129.859 78.2031C129.859 77.5781 129.438 77.2656 128.141 76.9375L127.703 76.8281C126.031 76.4062 125.234 75.6875 125.234 74.5938C125.234 73.2344 126.453 72.2188 128.078 72.2188C129.281 72.2188 130.391 72.7812 131.031 73.7344L129.938 74.4531C129.484 73.8125 128.844 73.4688 128.078 73.4688C127.188 73.4688 126.578 73.9219 126.578 74.5938C126.578 75.0938 126.906 75.3281 128.016 75.6094L128.453 75.7188C130.359 76.1875 131.203 76.9531 131.203 78.2031C131.203 79.7031 129.938 80.7188 128.078 80.7188ZM134.688 76.9375C134.688 73.4688 137.391 73.8906 137.391 72C137.391 70.9531 136.562 70.2812 135.391 70.2812C134.141 70.2812 133.391 71.0312 133.391 72.3125H131.984C131.984 70.2812 133.281 68.9688 135.391 68.9688C137.344 68.9688 138.797 70.0938 138.797 72C138.797 74.5938 136.094 74.1562 136.094 76.8125V77.1875H134.688V76.9375ZM135.391 80.625C134.828 80.625 134.422 80.2188 134.422 79.6562C134.422 79.0938 134.828 78.6875 135.391 78.6875C135.953 78.6875 136.359 79.0938 136.359 79.6562C136.359 80.2188 135.953 80.625 135.391 80.625Z" fill="#B0B0B0" fill-opacity="0.28"/>
<path d="M279.469 74.0625C281.312 74.3438 282.484 73.5 282.484 72.1875C282.484 71.0781 281.625 70.2812 280.422 70.2812C279.219 70.2812 278.359 71.0781 278.359 72.3125H276.953C276.953 70.2969 278.391 68.9688 280.422 68.9688C282.453 68.9688 283.891 70.2969 283.891 72.1875C283.891 73.8906 282.734 75.125 280.875 75.3906V77.1875H279.469V74.0625ZM280.172 80.625C279.609 80.625 279.203 80.2188 279.203 79.6562C279.203 79.0938 279.609 78.6875 280.172 78.6875C280.734 78.6875 281.141 79.0938 281.141 79.6562C281.141 80.2188 280.734 80.625 280.172 80.625Z" fill="#3385FF"/>
<path d="M273.047 80.7188C271.734 80.7188 270.688 80.2031 269.922 79.1875L270.984 78.4375C271.516 79.1562 272.141 79.4688 273.047 79.4688C274.172 79.4688 274.828 79 274.828 78.2031C274.828 77.5781 274.406 77.2656 273.109 76.9375L272.672 76.8281C271 76.4062 270.203 75.6875 270.203 74.5938C270.203 73.2344 271.422 72.2188 273.047 72.2188C274.25 72.2188 275.359 72.7812 276 73.7344L274.906 74.4531C274.453 73.8125 273.812 73.4688 273.047 73.4688C272.156 73.4688 271.547 73.9219 271.547 74.5938C271.547 75.0938 271.875 75.3281 272.984 75.6094L273.422 75.7188C275.328 76.1875 276.172 76.9531 276.172 78.2031C276.172 79.7031 274.906 80.7188 273.047 80.7188Z" fill="white"/>
<path d="M265.078 80.5V72.4375H266.391V80.5H265.078ZM267.984 74.0781C267.484 74.0781 267.109 73.7031 267.109 73.2031C267.109 72.7031 267.484 72.3281 267.984 72.3281C268.484 72.3281 268.859 72.7031 268.859 73.2031C268.859 73.7031 268.484 74.0781 267.984 74.0781Z" fill="#3385FF"/>
<path d="M259.219 80.7188C256.859 80.7188 255.078 78.8906 255.078 76.4688C255.078 74.0469 256.859 72.2188 259.219 72.2188C261.578 72.2188 263.359 74.0469 263.359 76.4688C263.359 78.8906 261.578 80.7188 259.219 80.7188ZM259.219 79.4688C260.859 79.4688 262.016 78.2344 262.016 76.4688C262.016 74.7031 260.859 73.4688 259.219 73.4688C257.578 73.4688 256.422 74.7031 256.422 76.4688C256.422 78.2344 257.578 79.4688 259.219 79.4688Z" fill="white"/>
<path d="M249.172 73.5312V72.4375H250.547V70.4375H251.859V72.4375H253.859V73.5312H251.859V78.1562C251.859 79.0312 252.234 79.4375 253.047 79.4375C253.297 79.4375 253.578 79.3906 253.859 79.3125V80.5469C253.609 80.6406 253.266 80.7188 252.859 80.7188C251.438 80.7188 250.547 79.75 250.547 78.2031V73.5312H249.172Z" fill="white"/>
<path d="M246.609 76.0938C246.609 74.4062 245.781 73.4688 244.266 73.4688C243.281 73.4688 242.562 73.8594 242.125 74.625L240.953 74C241.594 72.8594 242.797 72.2188 244.266 72.2188C246.531 72.2188 247.953 73.7188 247.953 76.0938V80.5H246.609V76.0938ZM243.234 80.7188C241.797 80.7188 240.703 79.6719 240.703 78.2812C240.703 76.8906 241.797 75.8438 243.234 75.8438C244.672 75.8438 245.766 76.8906 245.766 78.2812C245.766 79.6719 244.672 80.7188 243.234 80.7188ZM243.234 79.4688C243.938 79.4688 244.422 78.9844 244.422 78.2812C244.422 77.5781 243.938 77.0938 243.234 77.0938C242.531 77.0938 242.047 77.5781 242.047 78.2812C242.047 78.9844 242.531 79.4688 243.234 79.4688Z" fill="#3385FF"/>
<path d="M235.922 80.5V72.4375H237.234V80.5H235.922ZM238.828 74.0781C238.328 74.0781 237.953 73.7031 237.953 73.2031C237.953 72.7031 238.328 72.3281 238.828 72.3281C239.328 72.3281 239.703 72.7031 239.703 73.2031C239.703 73.7031 239.328 74.0781 238.828 74.0781Z" fill="#3385FF"/>
<path d="M230.438 80.7188C228.016 80.7188 226.234 78.8906 226.234 76.4688C226.234 74.0469 227.969 72.2188 230.281 72.2188C232.594 72.2188 234.203 74.0469 234.203 76.4688L234.188 76.9219H229.078V75.6406H232.766C232.672 74.4141 231.672 73.4688 230.281 73.4688C228.688 73.4688 227.578 74.7031 227.578 76.4688C227.578 78.2656 228.781 79.4688 230.469 79.4688C231.578 79.4688 232.375 78.9453 232.781 78.0781L233.938 78.5781C233.32 79.875 232.094 80.7188 230.438 80.7188Z" fill="#3385FF"/>
<path d="M220.641 79.2188C222.172 79.2188 223.266 78.0312 223.266 76.3438C223.266 74.6562 222.172 73.4688 220.641 73.4688C219.094 73.4688 218.016 74.6719 218.016 76.3438C218.016 78.0156 219.094 79.2188 220.641 79.2188ZM218.016 83.875V82.625H223.203V79.0312H223.141C222.602 79.9688 221.703 80.4688 220.516 80.4688C218.281 80.4688 216.672 78.6875 216.672 76.3438C216.672 74 218.281 72.2188 220.516 72.2188C221.703 72.2188 222.602 72.7188 223.141 73.6562H223.203V72.4375H224.516V83.875H218.016Z" fill="#3385FF"/>
<path d="M213.641 80.5V72.4375H214.953V80.5H213.641ZM214.297 70.75C213.797 70.75 213.422 70.375 213.422 69.875C213.422 69.375 213.797 69 214.297 69C214.797 69 215.172 69.375 215.172 69.875C215.172 70.375 214.797 70.75 214.297 70.75Z" fill="#3385FF"/>
<path d="M208.172 80.5V72.4375H209.484V80.5H208.172ZM211.078 74.0781C210.578 74.0781 210.203 73.7031 210.203 73.2031C210.203 72.7031 210.578 72.3281 211.078 72.3281C211.578 72.3281 211.953 72.7031 211.953 73.2031C211.953 73.7031 211.578 74.0781 211.078 74.0781Z" fill="#3385FF"/>
<path d="M201.641 73.5312V72.4375H203.016V69.1875H206.516V70.375H204.328V72.4375H206.516V73.5312H204.328V80.5H203.016V73.5312H201.641Z" fill="#3385FF"/>
<path d="M196.969 80.7188C194.547 80.7188 192.766 78.8906 192.766 76.4688C192.766 74.0469 194.5 72.2188 196.812 72.2188C199.125 72.2188 200.734 74.0469 200.734 76.4688L200.719 76.9219H195.609V75.6406H199.297C199.203 74.4141 198.203 73.4688 196.812 73.4688C195.219 73.4688 194.109 74.7031 194.109 76.4688C194.109 78.2656 195.312 79.4688 197 79.4688C198.109 79.4688 198.906 78.9453 199.312 78.0781L200.469 78.5781C199.852 79.875 198.625 80.7188 196.969 80.7188Z" fill="#3385FF"/>
<path d="M188.109 80.5V72.4375H189.422V80.5H188.109ZM191.016 74.0781C190.516 74.0781 190.141 73.7031 190.141 73.2031C190.141 72.7031 190.516 72.3281 191.016 72.3281C191.516 72.3281 191.891 72.7031 191.891 73.2031C191.891 73.7031 191.516 74.0781 191.016 74.0781Z" fill="#3385FF"/>
<path d="M178.25 80.7188C176.453 80.7188 175.016 79.7812 174.188 78.0781L175.422 77.5156C176.047 78.8125 177 79.4375 178.25 79.4375C179.797 79.4375 180.875 78.4844 180.875 77.125C180.875 75.6875 179.672 74.8125 177.734 74.8125H177.078V73.6562L179.984 70.5156V70.4688H174.656V69.1875H181.812V70.4688L178.703 73.6562V73.7188C180.852 74.0234 182.25 75.3594 182.25 77.1875C182.25 79.2031 180.547 80.7188 178.25 80.7188Z" fill="#3385FF"/>
<path d="M164.75 80.5C164.594 75.5312 170.828 75.9844 170.828 72.4375C170.828 71.0938 169.937 70.25 168.547 70.25C167.5 70.25 166.734 70.7344 166.312 72.125L165 71.75C165.594 69.7969 166.922 68.9688 168.547 68.9688C170.656 68.9688 172.203 70.3281 172.203 72.4375C172.203 76.2188 167.281 76.3438 166.297 79.2188H172.375V80.5H164.75Z" fill="#3385FF"/>
</svg>
