<svg width="320" height="97" viewBox="0 0 320 97" fill="none" xmlns="http://www.w3.org/2000/svg">
<rect x="0.5" y="0.5" width="319" height="96" rx="7.5" stroke="#70737C" stroke-opacity="0.28"/>
<rect x="16" y="16" width="40" height="20" rx="4" fill="#70737C" fill-opacity="0.22"/>
<path d="M22.377 25.4004C22.377 24.2051 23.3613 23.4434 24.8789 23.4434C26.3496 23.4434 27.2812 24.123 27.3691 25.2773H26.0801C25.9863 24.7969 25.5234 24.498 24.8613 24.498C24.1758 24.498 23.7246 24.8145 23.7246 25.2949C23.7246 25.7051 24.0176 25.9395 24.7148 26.0918L25.6699 26.2969C26.9531 26.5723 27.5215 27.1172 27.5215 28.0781C27.5215 29.3262 26.4961 30.1289 24.8848 30.1289C23.3145 30.1289 22.3184 29.4316 22.2246 28.2715H23.5781C23.6953 28.7754 24.1816 29.0625 24.9082 29.0625C25.6523 29.0625 26.1211 28.7344 26.1211 28.2363C26.1211 27.8145 25.8516 27.5977 25.1191 27.4395L24.1582 27.2285C22.9746 26.9648 22.377 26.3555 22.377 25.4004ZM29.7949 25.4004C29.7949 24.2051 30.7793 23.4434 32.2969 23.4434C33.7676 23.4434 34.6992 24.123 34.7871 25.2773H33.498C33.4043 24.7969 32.9414 24.498 32.2793 24.498C31.5938 24.498 31.1426 24.8145 31.1426 25.2949C31.1426 25.7051 31.4355 25.9395 32.1328 26.0918L33.0879 26.2969C34.3711 26.5723 34.9395 27.1172 34.9395 28.0781C34.9395 29.3262 33.9141 30.1289 32.3027 30.1289C30.7324 30.1289 29.7363 29.4316 29.6426 28.2715H30.9961C31.1133 28.7754 31.5996 29.0625 32.3262 29.0625C33.0703 29.0625 33.5391 28.7344 33.5391 28.2363C33.5391 27.8145 33.2695 27.5977 32.5371 27.4395L31.5762 27.2285C30.3926 26.9648 29.7949 26.3555 29.7949 25.4004ZM41.3613 25.2715L38.25 27.5684C38.502 28.5059 39 28.998 39.7148 28.998C40.793 28.998 41.373 27.873 41.373 25.7695C41.373 25.5938 41.3672 25.4297 41.3613 25.2715ZM38.0625 26.2734L41.1797 23.9883C40.9277 23.0449 40.4297 22.5469 39.7148 22.5469C38.6309 22.5469 38.0508 23.6719 38.0508 25.7695C38.0508 25.9453 38.0566 26.1152 38.0625 26.2734ZM39.7148 21.3633C41.666 21.3633 42.7617 22.9453 42.7617 25.7695C42.7617 28.5996 41.666 30.1816 39.7148 30.1816C37.7578 30.1816 36.6621 28.5996 36.6621 25.7695C36.6621 22.9453 37.7578 21.3633 39.7148 21.3633ZM44.9473 30L48.6738 22.8281V22.7402H44.2383V21.5391H50.1094V22.7578L46.4414 30H44.9473Z" fill="white"/>
<rect x="16" y="52" width="288" height="1" fill="#70737C" fill-opacity="0.28"/>
<path d="M17.1094 80.5V69.1875H20.5469C22.9844 69.1875 24.6094 70.5312 24.6094 72.5312C24.6094 74.1953 23.5 75.4062 21.75 75.7656L24.9531 80.5H23.3281L20.2031 75.8906H18.4844V80.5H17.1094ZM18.4844 74.6094H20.5625C22.2344 74.6094 23.2031 73.8281 23.2031 72.5312C23.2031 71.2344 22.2344 70.4688 20.5625 70.4688H18.4844V74.6094ZM30.0625 80.7188C27.6406 80.7188 25.8594 78.8906 25.8594 76.4688C25.8594 74.0469 27.5938 72.2188 29.9062 72.2188C32.2188 72.2188 33.8281 74.0469 33.8281 76.4688L33.8125 76.9219H27.2344C27.4141 78.4688 28.5547 79.4688 30.0938 79.4688C31.2031 79.4688 32 78.9453 32.4062 78.0781L33.5625 78.5781C32.9453 79.875 31.7188 80.7188 30.0625 80.7188ZM27.2969 75.6406H32.3906C32.2969 74.4141 31.2969 73.4688 29.9062 73.4688C28.5781 73.4688 27.5859 74.3281 27.2969 75.6406ZM39.1406 79.4688C40.6719 79.4688 41.7656 78.2344 41.7656 76.4688C41.7656 74.7031 40.6719 73.4688 39.1406 73.4688C37.5938 73.4688 36.5156 74.7188 36.5156 76.4688C36.5156 78.2188 37.5938 79.4688 39.1406 79.4688ZM43.0156 80.5H41.7031V79.2344H41.6562C41.1016 80.1953 40.2031 80.7188 39.0156 80.7188C36.7812 80.7188 35.1719 78.8906 35.1719 76.4688C35.1719 74.0469 36.7812 72.2188 39.0156 72.2188C40.2031 72.2188 41.1016 72.7422 41.6562 73.7031H41.7031V72.4375H43.0156V80.5ZM52.5781 80.5H51.2656V79.2344H51.2188C50.6641 80.1953 49.7656 80.7188 48.5781 80.7188C46.3438 80.7188 44.7344 78.8906 44.7344 76.4688C44.7344 74.0469 46.3438 72.2188 48.5781 72.2188C49.7656 72.2188 50.6641 72.7422 51.2188 73.7031H51.2656V69.1875H52.5781V80.5ZM48.7031 79.4688C50.2344 79.4688 51.3281 78.2344 51.3281 76.4688C51.3281 74.7031 50.2344 73.4688 48.7031 73.4688C47.1562 73.4688 46.0781 74.7188 46.0781 76.4688C46.0781 78.2188 47.1562 79.4688 48.7031 79.4688ZM58.2656 79.4688C59.7969 79.4688 60.8906 78.2344 60.8906 76.4688C60.8906 74.7031 59.7969 73.4688 58.2656 73.4688C56.7188 73.4688 55.6406 74.7188 55.6406 76.4688C55.6406 78.2188 56.7188 79.4688 58.2656 79.4688ZM62.1406 80.5H60.8281V79.2344H60.7812C60.2266 80.1953 59.3281 80.7188 58.1406 80.7188C55.9062 80.7188 54.2969 78.8906 54.2969 76.4688C54.2969 74.0469 55.9062 72.2188 58.1406 72.2188C59.3281 72.2188 60.2266 72.7422 60.7812 73.7031H60.8281V72.4375H62.1406V80.5ZM64.2344 80.5V69.1875H65.5469V73.7031H65.6094C66.1484 72.7422 67.0469 72.2188 68.2344 72.2188C70.4688 72.2188 72.0781 74.0469 72.0781 76.4688C72.0781 78.8906 70.4688 80.7188 68.2344 80.7188C67.0469 80.7188 66.1484 80.1953 65.6094 79.2344H65.5469V80.5H64.2344ZM68.1094 79.4688C69.6562 79.4688 70.7344 78.2188 70.7344 76.4688C70.7344 74.7188 69.6562 73.4688 68.1094 73.4688C66.5781 73.4688 65.4844 74.7031 65.4844 76.4688C65.4844 78.2344 66.5781 79.4688 68.1094 79.4688ZM73.7969 80.5V72.4375H75.1094V80.5H73.7969ZM74.4531 70.75C73.9531 70.75 73.5781 70.375 73.5781 69.875C73.5781 69.375 73.9531 69 74.4531 69C74.9531 69 75.3281 69.375 75.3281 69.875C75.3281 70.375 74.9531 70.75 74.4531 70.75ZM77.2031 80.5V69.1875H78.5156V80.5H77.2031ZM80.6094 80.5V72.4375H81.9219V80.5H80.6094ZM81.2656 70.75C80.7656 70.75 80.3906 70.375 80.3906 69.875C80.3906 69.375 80.7656 69 81.2656 69C81.7656 69 82.1406 69.375 82.1406 69.875C82.1406 70.375 81.7656 70.75 81.2656 70.75ZM83.5156 73.5312V72.4375H84.8906V70.4375H86.2031V72.4375H88.2031V73.5312H86.2031V78.1562C86.2031 79.0312 86.5781 79.4375 87.3906 79.4375C87.6406 79.4375 87.9219 79.3906 88.2031 79.3125V80.5469C87.9531 80.6406 87.6094 80.7188 87.2031 80.7188C85.7812 80.7188 84.8906 79.75 84.8906 78.2031V73.5312H83.5156ZM92.5938 80.5L89.1719 72.4375H90.5938L93.2656 78.8438H93.3281L95.7188 72.4375H97.1094L92.7188 83.875H91.2969L92.5938 80.5Z" fill="#AEB0B6" fill-opacity="0.28"/>
<path d="M165.109 80.5V69.1875H168.547C170.984 69.1875 172.609 70.5312 172.609 72.5312C172.609 74.1953 171.5 75.4062 169.75 75.7656L172.953 80.5H171.328L168.203 75.8906H166.484V80.5H165.109ZM166.484 74.6094H168.562C170.234 74.6094 171.203 73.8281 171.203 72.5312C171.203 71.2344 170.234 70.4688 168.562 70.4688H166.484V74.6094ZM178.062 80.7188C175.641 80.7188 173.859 78.8906 173.859 76.4688C173.859 74.0469 175.594 72.2188 177.906 72.2188C180.219 72.2188 181.828 74.0469 181.828 76.4688L181.812 76.9219H175.234C175.414 78.4688 176.555 79.4688 178.094 79.4688C179.203 79.4688 180 78.9453 180.406 78.0781L181.562 78.5781C180.945 79.875 179.719 80.7188 178.062 80.7188ZM175.297 75.6406H180.391C180.297 74.4141 179.297 73.4688 177.906 73.4688C176.578 73.4688 175.586 74.3281 175.297 75.6406ZM199.641 80.5H198.328V79.2344H198.281C197.727 80.1953 196.828 80.7188 195.641 80.7188C193.406 80.7188 191.797 78.8906 191.797 76.4688C191.797 74.0469 193.406 72.2188 195.641 72.2188C196.828 72.2188 197.727 72.7422 198.281 73.7031H198.328V69.1875H199.641V80.5ZM195.766 79.4688C197.297 79.4688 198.391 78.2344 198.391 76.4688C198.391 74.7031 197.297 73.4688 195.766 73.4688C194.219 73.4688 193.141 74.7188 193.141 76.4688C193.141 78.2188 194.219 79.4688 195.766 79.4688ZM210.359 80.5V69.1875H211.672V73.7031H211.734C212.273 72.7422 213.172 72.2188 214.359 72.2188C216.594 72.2188 218.203 74.0469 218.203 76.4688C218.203 78.8906 216.594 80.7188 214.359 80.7188C213.172 80.7188 212.273 80.1953 211.734 79.2344H211.672V80.5H210.359ZM214.234 79.4688C215.781 79.4688 216.859 78.2188 216.859 76.4688C216.859 74.7188 215.781 73.4688 214.234 73.4688C212.703 73.4688 211.609 74.7031 211.609 76.4688C211.609 78.2344 212.703 79.4688 214.234 79.4688ZM219.922 80.5V72.4375H221.234V80.5H219.922ZM220.578 70.75C220.078 70.75 219.703 70.375 219.703 69.875C219.703 69.375 220.078 69 220.578 69C221.078 69 221.453 69.375 221.453 69.875C221.453 70.375 221.078 70.75 220.578 70.75ZM223.328 80.5V69.1875H224.641V80.5H223.328ZM226.734 80.5V72.4375H228.047V80.5H226.734ZM227.391 70.75C226.891 70.75 226.516 70.375 226.516 69.875C226.516 69.375 226.891 69 227.391 69C227.891 69 228.266 69.375 228.266 69.875C228.266 70.375 227.891 70.75 227.391 70.75ZM229.641 73.5312V72.4375H231.016V70.4375H232.328V72.4375H234.328V73.5312H232.328V78.1562C232.328 79.0312 232.703 79.4375 233.516 79.4375C233.766 79.4375 234.047 79.3906 234.328 79.3125V80.5469C234.078 80.6406 233.734 80.7188 233.328 80.7188C231.906 80.7188 231.016 79.75 231.016 78.2031V73.5312H229.641ZM238.719 80.5L235.297 72.4375H236.719L239.391 78.8438H239.453L241.844 72.4375H243.234L238.844 83.875H237.422L238.719 80.5Z" fill="white"/>
<path d="M186.047 80.7188C184.469 80.7188 183.297 79.5938 183.297 78.1562C183.297 76.7188 184.469 75.6406 186.578 75.5312L188.734 75.4062C188.711 74.0938 188.094 73.4688 186.828 73.4688C185.875 73.4688 185.25 73.8125 184.797 74.625L183.625 74C184.297 72.8281 185.375 72.2188 186.828 72.2188C188.891 72.2188 190.078 73.4531 190.078 75.5V80.5H188.734V79.2344H188.672C188.125 80.1328 187.18 80.7188 186.047 80.7188ZM184.672 78.1562C184.672 78.9844 185.297 79.4688 186.406 79.4688C187.859 79.4688 188.734 78.6406 188.734 77.3438V76.5156L186.578 76.6562C185.297 76.7344 184.672 77.3281 184.672 78.1562ZM204.234 80.7188C202.656 80.7188 201.484 79.5938 201.484 78.1562C201.484 76.7188 202.656 75.6406 204.766 75.5312L206.922 75.4062C206.898 74.0938 206.281 73.4688 205.016 73.4688C204.062 73.4688 203.438 73.8125 202.984 74.625L201.812 74C202.484 72.8281 203.562 72.2188 205.016 72.2188C207.078 72.2188 208.266 73.4531 208.266 75.5V80.5H206.922V79.2344H206.859C206.312 80.1328 205.367 80.7188 204.234 80.7188ZM202.859 78.1562C202.859 78.9844 203.484 79.4688 204.594 79.4688C206.047 79.4688 206.922 78.6406 206.922 77.3438V76.5156L204.766 76.6562C203.484 76.7344 202.859 77.3281 202.859 78.1562Z" fill="#3385FF"/>
</svg>
