<svg width="320" height="97" viewBox="0 0 320 97" fill="none" xmlns="http://www.w3.org/2000/svg">
<rect x="0.5" y="0.5" width="319" height="96" rx="7.5" stroke="#70737C" stroke-opacity="0.28"/>
<rect x="16" y="16" width="40" height="20" rx="4" fill="#70737C" fill-opacity="0.22"/>
<path d="M22.377 25.4004C22.377 24.2051 23.3613 23.4434 24.8789 23.4434C26.3496 23.4434 27.2812 24.123 27.3691 25.2773H26.0801C25.9863 24.7969 25.5234 24.498 24.8613 24.498C24.1758 24.498 23.7246 24.8145 23.7246 25.2949C23.7246 25.7051 24.0176 25.9395 24.7148 26.0918L25.6699 26.2969C26.9531 26.5723 27.5215 27.1172 27.5215 28.0781C27.5215 29.3262 26.4961 30.1289 24.8848 30.1289C23.3145 30.1289 22.3184 29.4316 22.2246 28.2715H23.5781C23.6953 28.7754 24.1816 29.0625 24.9082 29.0625C25.6523 29.0625 26.1211 28.7344 26.1211 28.2363C26.1211 27.8145 25.8516 27.5977 25.1191 27.4395L24.1582 27.2285C22.9746 26.9648 22.377 26.3555 22.377 25.4004ZM29.7949 25.4004C29.7949 24.2051 30.7793 23.4434 32.2969 23.4434C33.7676 23.4434 34.6992 24.123 34.7871 25.2773H33.498C33.4043 24.7969 32.9414 24.498 32.2793 24.498C31.5938 24.498 31.1426 24.8145 31.1426 25.2949C31.1426 25.7051 31.4355 25.9395 32.1328 26.0918L33.0879 26.2969C34.3711 26.5723 34.9395 27.1172 34.9395 28.0781C34.9395 29.3262 33.9141 30.1289 32.3027 30.1289C30.7324 30.1289 29.7363 29.4316 29.6426 28.2715H30.9961C31.1133 28.7754 31.5996 29.0625 32.3262 29.0625C33.0703 29.0625 33.5391 28.7344 33.5391 28.2363C33.5391 27.8145 33.2695 27.5977 32.5371 27.4395L31.5762 27.2285C30.3926 26.9648 29.7949 26.3555 29.7949 25.4004ZM41.3613 25.2715L38.25 27.5684C38.502 28.5059 39 28.998 39.7148 28.998C40.793 28.998 41.373 27.873 41.373 25.7695C41.373 25.5938 41.3672 25.4297 41.3613 25.2715ZM38.0625 26.2734L41.1797 23.9883C40.9277 23.0449 40.4297 22.5469 39.7148 22.5469C38.6309 22.5469 38.0508 23.6719 38.0508 25.7695C38.0508 25.9453 38.0566 26.1152 38.0625 26.2734ZM39.7148 21.3633C41.666 21.3633 42.7617 22.9453 42.7617 25.7695C42.7617 28.5996 41.666 30.1816 39.7148 30.1816C37.7578 30.1816 36.6621 28.5996 36.6621 25.7695C36.6621 22.9453 37.7578 21.3633 39.7148 21.3633ZM44.0566 24.3223C44.0566 22.6289 45.3574 21.3691 47.1211 21.3691C48.9375 21.3691 50.209 22.6055 50.209 24.3867C50.209 25.377 49.8574 26.3027 49.0078 27.5098C48.8145 27.8145 47.3438 29.8066 47.1855 29.9941H45.5801L47.7773 27.0352C47.9883 26.7422 48.0645 26.6309 48.123 26.5078L48.0176 26.4785C47.7305 26.8125 47.1855 27.0234 46.6582 27.0234C45.1523 27.0234 44.0566 25.8867 44.0566 24.3223ZM47.1328 22.5762C46.1719 22.5762 45.4512 23.3027 45.4512 24.2695C45.4512 25.2363 46.1719 25.9629 47.1328 25.9629C48.0996 25.9629 48.8203 25.2363 48.8203 24.2695C48.8203 23.3027 48.0996 22.5762 47.1328 22.5762Z" fill="white"/>
<rect x="16" y="52" width="288" height="1" fill="#70737C" fill-opacity="0.28"/>
<path d="M22.6094 80.7188C19.2656 80.7188 16.7344 78.1875 16.7344 74.8438C16.7344 71.5 19.2656 68.9688 22.6094 68.9688C25.9531 68.9688 28.4844 71.5 28.4844 74.8438C28.4844 76.75 27.6641 78.3984 26.3281 79.4531L27.8594 81.625H26.2344L25.2031 80.1562C24.4297 80.5156 23.5469 80.7188 22.6094 80.7188ZM22.6094 79.4062C23.2734 79.4062 23.8828 79.2891 24.4375 79.0625L23.1094 77.1875H24.7344L25.5781 78.3594C26.5156 77.5625 27.0781 76.3203 27.0781 74.8438C27.0781 72.1719 25.2344 70.2812 22.6094 70.2812C19.9844 70.2812 18.1406 72.1719 18.1406 74.8438C18.1406 77.5156 19.9844 79.4062 22.6094 79.4062ZM36.8281 72.4375V80.5H35.5156V79.3281H35.4688C35.0625 80.1875 34.1953 80.7188 33.0469 80.7188C31.25 80.7188 30.2656 79.4531 30.2656 77.375V72.4375H31.5781V77.1875C31.5781 78.6719 32.2031 79.4688 33.3281 79.4688C34.4531 79.4688 35.5156 78.6719 35.5156 76.9375V72.4375H36.8281ZM38.9219 80.5V72.4375H40.2344V73.6875H40.2969C40.6953 72.8125 41.4922 72.2188 42.4062 72.2188C42.7031 72.2188 42.9844 72.2812 43.25 72.3906V73.6875C42.9531 73.5938 42.6562 73.5469 42.375 73.5469C41.0312 73.5469 40.2344 74.625 40.2344 76.4688V80.5H38.9219ZM44.9375 80.5V72.4375H46.25V80.5H44.9375ZM45.5938 70.75C45.0938 70.75 44.7188 70.375 44.7188 69.875C44.7188 69.375 45.0938 69 45.5938 69C46.0938 69 46.4688 69.375 46.4688 69.875C46.4688 70.375 46.0938 70.75 45.5938 70.75ZM52.1094 80.7188C49.75 80.7188 47.9688 78.8906 47.9688 76.4688C47.9688 74.0469 49.75 72.2188 52.1094 72.2188C54.4688 72.2188 56.25 74.0469 56.25 76.4688C56.25 78.8906 54.4688 80.7188 52.1094 80.7188ZM52.1094 79.4688C53.75 79.4688 54.9062 78.2344 54.9062 76.4688C54.9062 74.7031 53.75 73.4688 52.1094 73.4688C50.4688 73.4688 49.3125 74.7031 49.3125 76.4688C49.3125 78.2344 50.4688 79.4688 52.1094 79.4688ZM64.5312 72.4375V80.5H63.2188V79.3281H63.1719C62.7656 80.1875 61.8984 80.7188 60.75 80.7188C58.9531 80.7188 57.9688 79.4531 57.9688 77.375V72.4375H59.2812V77.1875C59.2812 78.6719 59.9062 79.4688 61.0312 79.4688C62.1562 79.4688 63.2188 78.6719 63.2188 76.9375V72.4375H64.5312ZM69.375 80.7188C68.0625 80.7188 67.0156 80.2031 66.25 79.1875L67.3125 78.4375C67.8438 79.1562 68.4688 79.4688 69.375 79.4688C70.5 79.4688 71.1562 79 71.1562 78.2031C71.1562 77.5781 70.7344 77.2656 69.4375 76.9375L69 76.8281C67.3281 76.4062 66.5312 75.6875 66.5312 74.5938C66.5312 73.2344 67.75 72.2188 69.375 72.2188C70.5781 72.2188 71.6875 72.7812 72.3281 73.7344L71.2344 74.4531C70.7812 73.8125 70.1406 73.4688 69.375 73.4688C68.4844 73.4688 67.875 73.9219 67.875 74.5938C67.875 75.0938 68.2031 75.3281 69.3125 75.6094L69.75 75.7188C71.6562 76.1875 72.5 76.9531 72.5 78.2031C72.5 79.7031 71.2344 80.7188 69.375 80.7188Z" fill="#AEB0B6" fill-opacity="0.28"/>
<path d="M170.891 80.5C167.203 80.5 164.734 78.1875 164.734 74.7344C164.734 71.4375 167.203 68.9688 170.5 68.9688C173.797 68.9688 176.266 71.4375 176.266 74.7344C176.266 76.7734 175.305 78.3594 173.688 79.2188H176.875V80.5H170.891ZM170.5 79.1875C173.062 79.1875 174.859 77.3438 174.859 74.7344C174.859 72.125 173.062 70.2812 170.5 70.2812C167.938 70.2812 166.141 72.125 166.141 74.7344C166.141 77.3438 167.938 79.1875 170.5 79.1875Z" fill="#3385FF"/>
<path d="M184.719 72.4375V80.5H183.406V79.3281H183.359C182.953 80.1875 182.086 80.7188 180.938 80.7188C179.141 80.7188 178.156 79.4531 178.156 77.375V72.4375H179.469V77.1875C179.469 78.6719 180.094 79.4688 181.219 79.4688C182.344 79.4688 183.406 78.6719 183.406 76.9375V72.4375H184.719ZM186.812 80.5V72.4375H188.125V73.6875H188.188C188.586 72.8125 189.383 72.2188 190.297 72.2188C190.594 72.2188 190.875 72.2812 191.141 72.3906V73.6875C190.844 73.5938 190.547 73.5469 190.266 73.5469C188.922 73.5469 188.125 74.625 188.125 76.4688V80.5H186.812ZM192.828 80.5V72.4375H194.141V80.5H192.828ZM193.484 70.75C192.984 70.75 192.609 70.375 192.609 69.875C192.609 69.375 192.984 69 193.484 69C193.984 69 194.359 69.375 194.359 69.875C194.359 70.375 193.984 70.75 193.484 70.75ZM200 80.7188C197.641 80.7188 195.859 78.8906 195.859 76.4688C195.859 74.0469 197.641 72.2188 200 72.2188C202.359 72.2188 204.141 74.0469 204.141 76.4688C204.141 78.8906 202.359 80.7188 200 80.7188ZM200 79.4688C201.641 79.4688 202.797 78.2344 202.797 76.4688C202.797 74.7031 201.641 73.4688 200 73.4688C198.359 73.4688 197.203 74.7031 197.203 76.4688C197.203 78.2344 198.359 79.4688 200 79.4688ZM212.422 72.4375V80.5H211.109V79.3281H211.062C210.656 80.1875 209.789 80.7188 208.641 80.7188C206.844 80.7188 205.859 79.4531 205.859 77.375V72.4375H207.172V77.1875C207.172 78.6719 207.797 79.4688 208.922 79.4688C210.047 79.4688 211.109 78.6719 211.109 76.9375V72.4375H212.422ZM217.266 80.7188C215.953 80.7188 214.906 80.2031 214.141 79.1875L215.203 78.4375C215.734 79.1562 216.359 79.4688 217.266 79.4688C218.391 79.4688 219.047 79 219.047 78.2031C219.047 77.5781 218.625 77.2656 217.328 76.9375L216.891 76.8281C215.219 76.4062 214.422 75.6875 214.422 74.5938C214.422 73.2344 215.641 72.2188 217.266 72.2188C218.469 72.2188 219.578 72.7812 220.219 73.7344L219.125 74.4531C218.672 73.8125 218.031 73.4688 217.266 73.4688C216.375 73.4688 215.766 73.9219 215.766 74.5938C215.766 75.0938 216.094 75.3281 217.203 75.6094L217.641 75.7188C219.547 76.1875 220.391 76.9531 220.391 78.2031C220.391 79.7031 219.125 80.7188 217.266 80.7188Z" fill="white"/>
</svg>
