<svg width="320" height="121" viewBox="0 0 320 121" fill="none" xmlns="http://www.w3.org/2000/svg">
<rect x="0.5" y="0.5" width="319" height="120" rx="7.5" stroke="#70737C" stroke-opacity="0.28"/>
<rect x="16" y="16" width="40" height="20" rx="4" fill="#70737C" fill-opacity="0.22"/>
<path d="M22.377 25.4004C22.377 24.2051 23.3613 23.4434 24.8789 23.4434C26.3496 23.4434 27.2812 24.123 27.3691 25.2773H26.0801C25.9863 24.7969 25.5234 24.498 24.8613 24.498C24.1758 24.498 23.7246 24.8145 23.7246 25.2949C23.7246 25.7051 24.0176 25.9395 24.7148 26.0918L25.6699 26.2969C26.9531 26.5723 27.5215 27.1172 27.5215 28.0781C27.5215 29.3262 26.4961 30.1289 24.8848 30.1289C23.3145 30.1289 22.3184 29.4316 22.2246 28.2715H23.5781C23.6953 28.7754 24.1816 29.0625 24.9082 29.0625C25.6523 29.0625 26.1211 28.7344 26.1211 28.2363C26.1211 27.8145 25.8516 27.5977 25.1191 27.4395L24.1582 27.2285C22.9746 26.9648 22.377 26.3555 22.377 25.4004ZM29.7949 25.4004C29.7949 24.2051 30.7793 23.4434 32.2969 23.4434C33.7676 23.4434 34.6992 24.123 34.7871 25.2773H33.498C33.4043 24.7969 32.9414 24.498 32.2793 24.498C31.5938 24.498 31.1426 24.8145 31.1426 25.2949C31.1426 25.7051 31.4355 25.9395 32.1328 26.0918L33.0879 26.2969C34.3711 26.5723 34.9395 27.1172 34.9395 28.0781C34.9395 29.3262 33.9141 30.1289 32.3027 30.1289C30.7324 30.1289 29.7363 29.4316 29.6426 28.2715H30.9961C31.1133 28.7754 31.5996 29.0625 32.3262 29.0625C33.0703 29.0625 33.5391 28.7344 33.5391 28.2363C33.5391 27.8145 33.2695 27.5977 32.5371 27.4395L31.5762 27.2285C30.3926 26.9648 29.7949 26.3555 29.7949 25.4004ZM40.7051 28.8105H42.9551V30H36.9551V28.8105H39.3164V22.998H39.2168L36.9434 24.4922V23.1152L39.3223 21.5449H40.7051V28.8105ZM46.0957 26.2031V25.1133H47.0566C47.9414 25.1133 48.5391 24.5801 48.5391 23.8008C48.5391 23.0273 47.959 22.5352 47.0742 22.5352C46.1895 22.5352 45.6094 23.0391 45.5449 23.8535H44.25C44.332 22.3184 45.4219 21.375 47.1211 21.375C48.7559 21.375 49.8867 22.2832 49.8867 23.5957C49.8867 24.5977 49.3301 25.3301 48.4102 25.5352V25.6348C49.5469 25.7754 50.2266 26.5371 50.2266 27.6738C50.2266 29.1445 48.9609 30.1699 47.1504 30.1699C45.375 30.1699 44.168 29.1797 44.0918 27.6504H45.4102C45.4805 28.4473 46.1426 28.957 47.1152 28.957C48.1523 28.957 48.8086 28.4297 48.8086 27.5977C48.8086 26.748 48.1348 26.2031 47.0859 26.2031H46.0957Z" fill="white"/>
<rect x="16" y="52" width="288" height="1" fill="#70737C" fill-opacity="0.28"/>
<path d="M23.3281 81.4219C19.6953 81.4297 16.7266 78.4688 16.7344 74.8281C16.7266 71.2031 19.6953 68.2344 23.3281 68.2344C26.9609 68.2344 29.9297 71.2031 29.9375 74.8281C29.9297 78.4688 26.9609 81.4297 23.3281 81.4219ZM23.3281 80.2344C26.2969 80.2344 28.7266 77.7969 28.7344 74.8281C28.7266 71.8672 26.2969 69.4297 23.3281 69.4219C20.3594 69.4297 17.9297 71.8672 17.9375 74.8281C17.9297 77.7969 20.3594 80.2344 23.3281 80.2344ZM21.7188 72.9531C22.1875 72.6719 22.6719 72.3125 23.1562 71.875H24.2188V77.8125H23.1562V73.125H23.1406C22.6719 73.4922 22.1797 73.8438 21.7188 74.0781V72.9531ZM41.2 81.4219C37.5672 81.4297 34.5984 78.4688 34.6063 74.8281C34.5984 71.2031 37.5672 68.2344 41.2 68.2344C44.8328 68.2344 47.8016 71.2031 47.8094 74.8281C47.8016 78.4688 44.8328 81.4297 41.2 81.4219ZM39.5906 74.0781C40.0516 73.8438 40.5438 73.4922 41.0125 73.125H41.0281V77.8125H42.0906V71.875H41.0281C40.5438 72.3125 40.0594 72.6719 39.5906 72.9531V74.0781ZM55.4781 80.7656C53.8688 80.7656 53.1422 80.0312 53.15 78.4219V71.2344C53.1422 69.6328 53.8688 68.8984 55.4781 68.8906H62.6813C64.275 68.8984 65.0016 69.6328 65.0094 71.2344V78.4219C65.0016 80.0312 64.275 80.7656 62.6813 80.7656H55.4781ZM62.6813 79.5625C63.6031 79.5703 63.8063 79.3672 63.8063 78.4219V71.2344C63.8063 70.2969 63.6031 70.1016 62.6813 70.0938H55.4781C54.5406 70.1016 54.3375 70.2969 54.3375 71.2344V78.4219C54.3375 79.3672 54.5406 79.5703 55.4781 79.5625H62.6813ZM60.7438 77.8125L60.2594 76.4062H57.9L57.4 77.8125H56.1969L58.4781 71.875H59.6656L61.9469 77.8125H60.7438ZM58.2594 75.375H59.9L59.0875 73.0781H59.0563L58.2594 75.375ZM73.35 80.7656C71.7406 80.7656 71.0141 80.0312 71.0219 78.4219V71.2344C71.0141 69.6328 71.7406 68.8984 73.35 68.8906H80.5531C82.1469 68.8984 82.8734 69.6328 82.8812 71.2344V78.4219C82.8734 80.0312 82.1469 80.7656 80.5531 80.7656H73.35ZM78.6156 77.8125H79.8187L77.5375 71.875H76.35L74.0687 77.8125H75.2719L75.7719 76.4062H78.1312L78.6156 77.8125ZM76.1312 75.375L76.9281 73.0781H76.9594L77.7562 75.375H76.1312ZM26 106.984C21.5156 106.984 17.8516 103.32 17.8594 98.8281C17.8516 94.3516 21.5156 90.6797 26 90.6719C30.4688 90.6797 34.1328 94.3516 34.1406 98.8281C34.1328 103.32 30.4688 106.984 26 106.984ZM26 105.672C29.75 105.68 32.8516 102.602 32.8594 98.8281C32.8516 95.0703 29.75 91.9844 26 91.9844C22.2344 91.9844 19.1328 95.0859 19.1406 98.8281C19.1328 102.586 22.2344 105.68 26 105.672ZM49.2 106.984C44.7156 106.984 41.0516 103.32 41.0594 98.8281C41.0516 94.3516 44.7156 90.6797 49.2 90.6719C53.6688 90.6797 57.3328 94.3516 57.3406 98.8281C57.3328 103.32 53.6688 106.984 49.2 106.984ZM67.9 106.141C65.9469 106.148 65.0797 105.266 65.0875 103.328V94.3281C65.0797 92.3984 65.9469 91.5156 67.9 91.5156H76.9C78.8297 91.5156 79.6969 92.3984 79.6969 94.3281V103.328C79.6969 105.266 78.8297 106.148 76.9 106.141H67.9ZM76.9 104.844C78.15 104.852 78.4156 104.602 78.4156 103.328V94.3281C78.4156 93.0703 78.15 92.8203 76.9 92.8125H67.9C66.6344 92.8203 66.3688 93.0703 66.3688 94.3281V103.328C66.3688 104.602 66.6344 104.852 67.9 104.844H76.9ZM91.1 106.141C89.1469 106.148 88.2797 105.266 88.2875 103.328V94.3281C88.2797 92.3984 89.1469 91.5156 91.1 91.5156H100.1C102.03 91.5156 102.897 92.3984 102.897 94.3281V103.328C102.897 105.266 102.03 106.148 100.1 106.141H91.1Z" fill="#B0B0B0" fill-opacity="0.28"/>
<path d="M239.1 106.141C237.147 106.148 236.28 105.266 236.288 103.328V94.3281C236.28 92.3984 237.147 91.5156 239.1 91.5156H248.1C250.03 91.5156 250.897 92.3984 250.897 94.3281V103.328C250.897 105.266 250.03 106.148 248.1 106.141H239.1Z" fill="white"/>
<path d="M215.9 106.141C213.947 106.148 213.08 105.266 213.087 103.328V94.3281C213.08 92.3984 213.947 91.5156 215.9 91.5156H224.9C226.83 91.5156 227.697 92.3984 227.697 94.3281V103.328C227.697 105.266 226.83 106.148 224.9 106.141H215.9ZM224.9 104.844C226.15 104.852 226.416 104.602 226.416 103.328V94.3281C226.416 93.0703 226.15 92.8203 224.9 92.8125H215.9C214.634 92.8203 214.369 93.0703 214.369 94.3281V103.328C214.369 104.602 214.634 104.852 215.9 104.844H224.9Z" fill="white"/>
<path d="M192.7 106.141C190.747 106.148 189.88 105.266 189.888 103.328V94.3281C189.88 92.3984 190.747 91.5156 192.7 91.5156H201.7C203.63 91.5156 204.497 92.3984 204.497 94.3281V103.328C204.497 105.266 203.63 106.148 201.7 106.141H192.7Z" fill="#2288FF"/>
<path d="M169.5 106.141C167.547 106.148 166.68 105.266 166.688 103.328V94.3281C166.68 92.3984 167.547 91.5156 169.5 91.5156H178.5C180.43 91.5156 181.297 92.3984 181.297 94.3281V103.328C181.297 105.266 180.43 106.148 178.5 106.141H169.5ZM178.5 104.844C179.75 104.852 180.016 104.602 180.016 103.328V94.3281C180.016 93.0703 179.75 92.8203 178.5 92.8125H169.5C168.234 92.8203 167.969 93.0703 167.969 94.3281V103.328C167.969 104.602 168.234 104.852 169.5 104.844H178.5Z" fill="#2288FF"/>
<path d="M221.35 80.7656C219.741 80.7656 219.014 80.0312 219.022 78.4219V71.2344C219.014 69.6328 219.741 68.8984 221.35 68.8906H228.553C230.147 68.8984 230.874 69.6328 230.881 71.2344V78.4219C230.874 80.0312 230.147 80.7656 228.553 80.7656H221.35ZM226.616 77.8125H227.819L225.538 71.875H224.35L222.069 77.8125H223.272L223.772 76.4062H226.131L226.616 77.8125ZM224.131 75.375L224.928 73.0781H224.96L225.756 75.375H224.131Z" fill="white"/>
<path d="M203.478 80.7656C201.869 80.7656 201.142 80.0312 201.15 78.4219V71.2344C201.142 69.6328 201.869 68.8984 203.478 68.8906H210.681C212.275 68.8984 213.002 69.6328 213.009 71.2344V78.4219C213.002 80.0312 212.275 80.7656 210.681 80.7656H203.478ZM210.681 79.5625C211.603 79.5703 211.806 79.3672 211.806 78.4219V71.2344C211.806 70.2969 211.603 70.1016 210.681 70.0938H203.478C202.541 70.1016 202.337 70.2969 202.337 71.2344V78.4219C202.337 79.3672 202.541 79.5703 203.478 79.5625H210.681ZM208.744 77.8125L208.259 76.4062H205.9L205.4 77.8125H204.197L206.478 71.875H207.666L209.947 77.8125H208.744ZM206.259 75.375H207.9L207.087 73.0781H207.056L206.259 75.375Z" fill="white"/>
<path d="M185.606 80.7656C183.997 80.7656 183.27 80.0312 183.278 78.4219V71.2344C183.27 69.6328 183.997 68.8984 185.606 68.8906H192.809C194.403 68.8984 195.13 69.6328 195.138 71.2344V78.4219C195.13 80.0312 194.403 80.7656 192.809 80.7656H185.606ZM187.591 74.0781C188.052 73.8438 188.544 73.4922 189.013 73.125H189.028V77.8125H190.091V71.875H189.028C188.544 72.3125 188.059 72.6719 187.591 72.9531V74.0781Z" fill="#2288FF"/>
<path d="M167.734 80.7656C166.125 80.7656 165.398 80.0312 165.406 78.4219V71.2344C165.398 69.6328 166.125 68.8984 167.734 68.8906H174.938C176.531 68.8984 177.258 69.6328 177.266 71.2344V78.4219C177.258 80.0312 176.531 80.7656 174.938 80.7656H167.734ZM174.938 79.5625C175.859 79.5703 176.063 79.3672 176.063 78.4219V71.2344C176.063 70.2969 175.859 70.1016 174.938 70.0938H167.734C166.797 70.1016 166.594 70.2969 166.594 71.2344V78.4219C166.594 79.3672 166.797 79.5703 167.734 79.5625H174.938ZM169.719 72.9531C170.188 72.6719 170.672 72.3125 171.156 71.875H172.219V77.8125H171.156V73.125H171.141C170.672 73.4922 170.18 73.8438 169.719 74.0781V72.9531Z" fill="#2288FF"/>
</svg>
