<svg width="320" height="145" viewBox="0 0 320 145" fill="none" xmlns="http://www.w3.org/2000/svg">
<rect x="0.5" y="0.5" width="319" height="144" rx="7.5" stroke="#70737C" stroke-opacity="0.28"/>
<rect x="16" y="16" width="40" height="20" rx="4" fill="#70737C" fill-opacity="0.22"/>
<path d="M22.377 25.4004C22.377 24.2051 23.3613 23.4434 24.8789 23.4434C26.3496 23.4434 27.2812 24.123 27.3691 25.2773H26.0801C25.9863 24.7969 25.5234 24.498 24.8613 24.498C24.1758 24.498 23.7246 24.8145 23.7246 25.2949C23.7246 25.7051 24.0176 25.9395 24.7148 26.0918L25.6699 26.2969C26.9531 26.5723 27.5215 27.1172 27.5215 28.0781C27.5215 29.3262 26.4961 30.1289 24.8848 30.1289C23.3145 30.1289 22.3184 29.4316 22.2246 28.2715H23.5781C23.6953 28.7754 24.1816 29.0625 24.9082 29.0625C25.6523 29.0625 26.1211 28.7344 26.1211 28.2363C26.1211 27.8145 25.8516 27.5977 25.1191 27.4395L24.1582 27.2285C22.9746 26.9648 22.377 26.3555 22.377 25.4004ZM29.7949 25.4004C29.7949 24.2051 30.7793 23.4434 32.2969 23.4434C33.7676 23.4434 34.6992 24.123 34.7871 25.2773H33.498C33.4043 24.7969 32.9414 24.498 32.2793 24.498C31.5938 24.498 31.1426 24.8145 31.1426 25.2949C31.1426 25.7051 31.4355 25.9395 32.1328 26.0918L33.0879 26.2969C34.3711 26.5723 34.9395 27.1172 34.9395 28.0781C34.9395 29.3262 33.9141 30.1289 32.3027 30.1289C30.7324 30.1289 29.7363 29.4316 29.6426 28.2715H30.9961C31.1133 28.7754 31.5996 29.0625 32.3262 29.0625C33.0703 29.0625 33.5391 28.7344 33.5391 28.2363C33.5391 27.8145 33.2695 27.5977 32.5371 27.4395L31.5762 27.2285C30.3926 26.9648 29.7949 26.3555 29.7949 25.4004ZM40.7051 28.8105H42.9551V30H36.9551V28.8105H39.3164V22.998H39.2168L36.9434 24.4922V23.1152L39.3223 21.5449H40.7051V28.8105ZM47.9238 30V28.3242H44.1152V27.1934L46.8047 21.5449H48.2402L45.6152 27.0586V27.1523H47.959V24.9023H49.2246V27.1641H50.4316V28.3242H49.2363V30H47.9238Z" fill="white"/>
<rect x="16" y="52" width="288" height="1" fill="#70737C" fill-opacity="0.28"/>
<path d="M23.3281 81.4219C19.6953 81.4297 16.7266 78.4688 16.7344 74.8281C16.7266 71.2031 19.6953 68.2344 23.3281 68.2344C26.9609 68.2344 29.9297 71.2031 29.9375 74.8281C29.9297 78.4688 26.9609 81.4297 23.3281 81.4219ZM23.3281 80.2344C26.2969 80.2344 28.7266 77.7969 28.7344 74.8281C28.7266 71.8672 26.2969 69.4297 23.3281 69.4219C20.3594 69.4297 17.9297 71.8672 17.9375 74.8281C17.9297 77.7969 20.3594 80.2344 23.3281 80.2344ZM21.7188 72.9531C22.1875 72.6719 22.6719 72.3125 23.1562 71.875H24.2188V77.8125H23.1562V73.125H23.1406C22.6719 73.4922 22.1797 73.8438 21.7188 74.0781V72.9531ZM41.2 81.4219C37.5672 81.4297 34.5984 78.4688 34.6063 74.8281C34.5984 71.2031 37.5672 68.2344 41.2 68.2344C44.8328 68.2344 47.8016 71.2031 47.8094 74.8281C47.8016 78.4688 44.8328 81.4297 41.2 81.4219ZM39.5906 74.0781C40.0516 73.8438 40.5438 73.4922 41.0125 73.125H41.0281V77.8125H42.0906V71.875H41.0281C40.5438 72.3125 40.0594 72.6719 39.5906 72.9531V74.0781ZM55.4781 80.7656C53.8688 80.7656 53.1422 80.0312 53.15 78.4219V71.2344C53.1422 69.6328 53.8688 68.8984 55.4781 68.8906H62.6813C64.275 68.8984 65.0016 69.6328 65.0094 71.2344V78.4219C65.0016 80.0312 64.275 80.7656 62.6813 80.7656H55.4781ZM62.6813 79.5625C63.6031 79.5703 63.8063 79.3672 63.8063 78.4219V71.2344C63.8063 70.2969 63.6031 70.1016 62.6813 70.0938H55.4781C54.5406 70.1016 54.3375 70.2969 54.3375 71.2344V78.4219C54.3375 79.3672 54.5406 79.5703 55.4781 79.5625H62.6813ZM60.7438 77.8125L60.2594 76.4062H57.9L57.4 77.8125H56.1969L58.4781 71.875H59.6656L61.9469 77.8125H60.7438ZM58.2594 75.375H59.9L59.0875 73.0781H59.0563L58.2594 75.375ZM73.35 80.7656C71.7406 80.7656 71.0141 80.0312 71.0219 78.4219V71.2344C71.0141 69.6328 71.7406 68.8984 73.35 68.8906H80.5531C82.1469 68.8984 82.8734 69.6328 82.8812 71.2344V78.4219C82.8734 80.0312 82.1469 80.7656 80.5531 80.7656H73.35ZM78.6156 77.8125H79.8187L77.5375 71.875H76.35L74.0687 77.8125H75.2719L75.7719 76.4062H78.1312L78.6156 77.8125ZM76.1312 75.375L76.9281 73.0781H76.9594L77.7562 75.375H76.1312ZM26 106.984C21.5156 106.984 17.8516 103.32 17.8594 98.8281C17.8516 94.3516 21.5156 90.6797 26 90.6719C30.4688 90.6797 34.1328 94.3516 34.1406 98.8281C34.1328 103.32 30.4688 106.984 26 106.984ZM26 105.672C29.75 105.68 32.8516 102.602 32.8594 98.8281C32.8516 95.0703 29.75 91.9844 26 91.9844C22.2344 91.9844 19.1328 95.0859 19.1406 98.8281C19.1328 102.586 22.2344 105.68 26 105.672ZM49.2 106.984C44.7156 106.984 41.0516 103.32 41.0594 98.8281C41.0516 94.3516 44.7156 90.6797 49.2 90.6719C53.6688 90.6797 57.3328 94.3516 57.3406 98.8281C57.3328 103.32 53.6688 106.984 49.2 106.984ZM67.9 106.141C65.9469 106.148 65.0797 105.266 65.0875 103.328V94.3281C65.0797 92.3984 65.9469 91.5156 67.9 91.5156H76.9C78.8297 91.5156 79.6969 92.3984 79.6969 94.3281V103.328C79.6969 105.266 78.8297 106.148 76.9 106.141H67.9ZM76.9 104.844C78.15 104.852 78.4156 104.602 78.4156 103.328V94.3281C78.4156 93.0703 78.15 92.8203 76.9 92.8125H67.9C66.6344 92.8203 66.3688 93.0703 66.3688 94.3281V103.328C66.3688 104.602 66.6344 104.852 67.9 104.844H76.9ZM91.1 106.141C89.1469 106.148 88.2797 105.266 88.2875 103.328V94.3281C88.2797 92.3984 89.1469 91.5156 91.1 91.5156H100.1C102.03 91.5156 102.897 92.3984 102.897 94.3281V103.328C102.897 105.266 102.03 106.148 100.1 106.141H91.1ZM26 130.391C25.6641 130.398 25.3672 130.281 25.125 130.031L19.2188 124.062C18.2656 123.102 17.8516 121.867 17.8594 120.656C17.8516 118.031 19.8672 115.82 22.5312 115.812C23.7656 115.82 25.0703 116.32 26 117.375C26.9141 116.336 28.2031 115.82 29.4531 115.812C32.1172 115.82 34.1328 118.031 34.1406 120.656C34.1328 121.867 33.7188 123.102 32.7656 124.062L26.8906 130.031C26.6484 130.266 26.3359 130.398 26 130.391ZM31.8438 123.172C32.5469 122.469 32.8516 121.5 32.8594 120.641C32.8516 118.734 31.3672 117.102 29.4531 117.094C28.4844 117.102 27.4531 117.516 26.75 118.484C26.4297 118.914 26.3828 119.102 26 119.094C25.6016 119.102 25.4297 118.797 25.2344 118.516C24.5859 117.602 23.5859 117.102 22.5312 117.094C20.5859 117.102 19.1328 118.75 19.1406 120.641C19.1328 121.586 19.4844 122.516 20.1562 123.172L26 129.078L31.8438 123.172ZM49.2 130.391C48.8641 130.398 48.5672 130.281 48.325 130.031L42.4188 124.062C41.4656 123.102 41.0516 121.867 41.0594 120.656C41.0516 118.031 43.0672 115.82 45.7313 115.812C46.9656 115.82 48.2703 116.32 49.2 117.375C50.1141 116.336 51.4031 115.82 52.6531 115.812C55.3172 115.82 57.3328 118.031 57.3406 120.656C57.3328 121.867 56.9188 123.102 55.9656 124.062L50.0906 130.031C49.8484 130.266 49.5359 130.398 49.2 130.391ZM68.8531 130.328C67.0484 131.133 66.6031 130.453 66.775 128.812L67.1656 124.922L64.5563 122.031C63.3297 120.68 63.7828 119.953 65.3531 119.609L69.1656 118.797L71.1344 115.406C71.6188 114.586 71.8844 114.266 72.4 114.266C72.9313 114.266 73.1969 114.586 73.6813 115.406L75.65 118.797L79.4781 119.609C81.0328 119.953 81.4859 120.68 80.275 122.031L77.65 124.922L78.0563 128.812C78.2203 130.453 77.7672 131.133 75.9781 130.328L72.4 128.75L68.8531 130.328ZM71.8375 127.609C72.0641 127.516 72.2359 127.469 72.4 127.469C72.5797 127.469 72.7516 127.516 72.9938 127.609L76.6813 129.234C76.7516 129.266 76.7984 129.281 76.7906 129.156L76.3688 125.156C76.3141 124.68 76.3297 124.484 76.7438 124.031L79.4313 121.031C79.5016 120.969 79.4469 120.93 79.3688 120.906L75.4781 120.062C74.9859 119.969 74.7672 119.836 74.5094 119.359L72.4938 115.859C72.4703 115.836 72.4313 115.797 72.4 115.797C72.3844 115.797 72.3531 115.836 72.3375 115.859L70.3219 119.359C70.0328 119.867 69.7984 119.969 69.3531 120.062L65.4469 120.906C65.3844 120.93 65.3141 120.969 65.3844 121.031L68.0875 124.031C68.4859 124.484 68.5016 124.703 68.4469 125.156L68.0406 129.156C68.0172 129.266 68.0328 129.266 68.1344 129.234L71.8375 127.609ZM92.0531 130.328C90.2328 131.133 89.8031 130.43 89.975 128.812L90.3656 124.922L87.7562 122.031C86.5297 120.68 86.9828 119.953 88.5531 119.609L92.3656 118.797L94.3344 115.406C94.8187 114.586 95.0844 114.266 95.6 114.266C96.1312 114.266 96.3969 114.586 96.8812 115.406L98.85 118.797L102.678 119.609C104.233 119.953 104.686 120.68 103.475 122.031L100.85 124.922L101.256 128.812C101.42 130.43 100.983 131.133 99.1781 130.328L95.6 128.766L92.0531 130.328ZM113.394 130.141C112.23 130.148 111.464 129.867 110.972 129.016C110.464 128.164 110.566 127.336 111.175 126.297L116.566 117.047C117.152 116.047 117.8 115.516 118.8 115.516C119.698 115.516 120.386 115.969 121.019 117.047L126.441 126.297C127.066 127.383 127.097 128.203 126.644 129C126.167 129.797 125.448 130.148 124.222 130.141H113.394ZM118.8 127.484C118.23 127.484 117.8 127.016 117.8 126.484C117.8 125.93 118.23 125.484 118.8 125.484C119.347 125.484 119.8 125.914 119.8 126.484C119.8 127.016 119.37 127.484 118.8 127.484ZM124.222 128.844C125.081 128.852 125.331 128.703 125.534 128.344C125.753 127.969 125.73 127.633 125.331 126.953L119.925 117.703C119.464 116.93 119.183 116.82 118.8 116.812C118.402 116.82 118.136 116.93 117.691 117.703L112.269 126.953C111.831 127.703 111.87 128 112.05 128.328C112.253 128.703 112.503 128.852 113.394 128.844H124.222ZM118.081 124.531V119.781H119.519V124.531H118.081ZM136.594 130.141C135.43 130.148 134.664 129.867 134.172 129.016C133.664 128.164 133.766 127.336 134.375 126.297L139.766 117.047C140.352 116.047 141 115.516 142 115.516C142.898 115.516 143.586 115.969 144.219 117.047L149.641 126.297C150.266 127.383 150.297 128.203 149.844 129C149.367 129.797 148.648 130.148 147.422 130.141H136.594ZM142 127.344C142.57 127.352 143 126.883 143 126.344C143 125.781 142.547 125.352 142 125.344C141.43 125.352 141 125.797 141 126.344C141 126.883 141.43 127.352 142 127.344ZM141.281 124.422H142.719V119.984H141.281V124.422Z" fill="#B0B0B0" fill-opacity="0.28"/>
<path d="M284.594 130.141C283.43 130.148 282.664 129.867 282.172 129.016C281.664 128.164 281.766 127.336 282.375 126.297L287.766 117.047C288.352 116.047 289 115.516 290 115.516C290.898 115.516 291.586 115.969 292.219 117.047L297.641 126.297C298.266 127.383 298.297 128.203 297.844 129C297.367 129.797 296.648 130.148 295.422 130.141H284.594ZM290 127.344C290.57 127.352 291 126.883 291 126.344C291 125.781 290.547 125.352 290 125.344C289.43 125.352 289 125.797 289 126.344C289 126.883 289.43 127.352 290 127.344ZM289.281 124.422H290.719V119.984H289.281V124.422Z" fill="white"/>
<path d="M261.394 130.141C260.23 130.148 259.464 129.867 258.972 129.016C258.464 128.164 258.566 127.336 259.175 126.297L264.566 117.047C265.152 116.047 265.8 115.516 266.8 115.516C267.698 115.516 268.386 115.969 269.019 117.047L274.441 126.297C275.066 127.383 275.097 128.203 274.644 129C274.167 129.797 273.448 130.148 272.222 130.141H261.394ZM266.8 127.344C267.37 127.352 267.8 126.883 267.8 126.344C267.8 125.781 267.347 125.352 266.8 125.344C266.23 125.352 265.8 125.797 265.8 126.344C265.8 126.883 266.23 127.352 266.8 127.344ZM266.081 124.422H267.519V119.984H266.081V124.422Z" fill="#3385FF"/>
<path d="M240.053 130.328C238.233 131.133 237.803 130.43 237.975 128.812L238.366 124.922L235.756 122.031C234.53 120.68 234.983 119.953 236.553 119.609L240.366 118.797L242.334 115.406C242.819 114.586 243.084 114.266 243.6 114.266C244.131 114.266 244.397 114.586 244.881 115.406L246.85 118.797L250.678 119.609C252.233 119.953 252.686 120.68 251.475 122.031L248.85 124.922L249.256 128.812C249.42 130.43 248.983 131.133 247.178 130.328L243.6 128.766L240.053 130.328Z" fill="white"/>
<path d="M216.853 130.328C215.033 131.133 214.603 130.43 214.775 128.812L215.166 124.922L212.556 122.031C211.33 120.68 211.783 119.953 213.353 119.609L217.166 118.797L219.134 115.406C219.619 114.586 219.884 114.266 220.4 114.266C220.931 114.266 221.197 114.586 221.681 115.406L223.65 118.797L227.478 119.609C229.033 119.953 229.486 120.68 228.275 122.031L225.65 124.922L226.056 128.812C226.22 130.43 225.783 131.133 223.978 130.328L220.4 128.766L216.853 130.328Z" fill="#3385FF"/>
<path d="M197.2 130.391C196.864 130.398 196.567 130.281 196.325 130.031L190.419 124.062C189.466 123.102 189.052 121.867 189.059 120.656C189.052 118.031 191.067 115.82 193.731 115.812C194.966 115.82 196.27 116.32 197.2 117.375C198.114 116.336 199.403 115.82 200.653 115.812C203.317 115.82 205.333 118.031 205.341 120.656C205.333 121.867 204.919 123.102 203.966 124.062L198.091 130.031C197.848 130.266 197.536 130.398 197.2 130.391Z" fill="white"/>
<path d="M174 130.391C173.664 130.398 173.367 130.281 173.125 130.031L167.219 124.062C166.266 123.102 165.852 121.867 165.859 120.656C165.852 118.031 167.867 115.82 170.531 115.812C171.766 115.82 173.07 116.32 174 117.375C174.914 116.336 176.203 115.82 177.453 115.812C180.117 115.82 182.133 118.031 182.141 120.656C182.133 121.867 181.719 123.102 180.766 124.062L174.891 130.031C174.649 130.266 174.336 130.398 174 130.391Z" fill="#3385FF"/>
<path d="M239.1 106.141C237.147 106.148 236.28 105.266 236.287 103.328V94.3281C236.28 92.3984 237.147 91.5156 239.1 91.5156H248.1C250.03 91.5156 250.897 92.3984 250.897 94.3281V103.328C250.897 105.266 250.03 106.148 248.1 106.141H239.1Z" fill="white"/>
<path d="M215.9 106.141C213.947 106.148 213.08 105.266 213.087 103.328V94.3281C213.08 92.3984 213.947 91.5156 215.9 91.5156H224.9C226.83 91.5156 227.697 92.3984 227.697 94.3281V103.328C227.697 105.266 226.83 106.148 224.9 106.141H215.9Z" fill="#3385FF"/>
<path d="M197.2 106.984C192.716 106.984 189.052 103.32 189.059 98.8281C189.052 94.3516 192.716 90.6797 197.2 90.6719C201.669 90.6797 205.333 94.3516 205.341 98.8281C205.333 103.32 201.669 106.984 197.2 106.984Z" fill="white"/>
<path d="M174 106.984C169.516 106.984 165.852 103.32 165.859 98.8281C165.852 94.3516 169.516 90.6797 174 90.6719C178.469 90.6797 182.133 94.3516 182.141 98.8281C182.133 103.32 178.469 106.984 174 106.984Z" fill="#3385FF"/>
<path d="M221.35 80.7656C219.741 80.7656 219.014 80.0312 219.022 78.4219V71.2344C219.014 69.6328 219.741 68.8984 221.35 68.8906H228.553C230.147 68.8984 230.873 69.6328 230.881 71.2344V78.4219C230.873 80.0312 230.147 80.7656 228.553 80.7656H221.35ZM226.616 77.8125H227.819L225.537 71.875H224.35L222.069 77.8125H223.272L223.772 76.4062H226.131L226.616 77.8125ZM224.131 75.375L224.928 73.0781H224.959L225.756 75.375H224.131Z" fill="white"/>
<path d="M203.478 80.7656C201.869 80.7656 201.142 80.0312 201.15 78.4219V71.2344C201.142 69.6328 201.869 68.8984 203.478 68.8906H210.681C212.275 68.8984 213.002 69.6328 213.009 71.2344V78.4219C213.002 80.0312 212.275 80.7656 210.681 80.7656H203.478ZM208.744 77.8125H209.947L207.666 71.875H206.478L204.197 77.8125H205.4L205.9 76.4062H208.259L208.744 77.8125ZM206.259 75.375L207.056 73.0781H207.087L207.884 75.375H206.259Z" fill="#3385FF"/>
<path d="M189.2 81.4219C185.567 81.4297 182.598 78.4688 182.606 74.8281C182.598 71.2031 185.567 68.2344 189.2 68.2344C192.833 68.2344 195.802 71.2031 195.809 74.8281C195.802 78.4688 192.833 81.4297 189.2 81.4219ZM187.591 74.0781C188.052 73.8438 188.544 73.4922 189.012 73.125H189.028V77.8125H190.091V71.875H189.028C188.544 72.3125 188.059 72.6719 187.591 72.9531V74.0781Z" fill="white"/>
<path d="M171.328 81.4219C167.695 81.4297 164.727 78.4688 164.734 74.8281C164.727 71.2031 167.695 68.2344 171.328 68.2344C174.961 68.2344 177.93 71.2031 177.938 74.8281C177.93 78.4688 174.961 81.4297 171.328 81.4219ZM169.719 74.0781C170.18 73.8438 170.672 73.4922 171.141 73.125H171.156V77.8125H172.219V71.875H171.156C170.672 72.3125 170.188 72.6719 169.719 72.9531V74.0781Z" fill="#3385FF"/>
</svg>
