<svg width="320" height="169" viewBox="0 0 320 169" fill="none" xmlns="http://www.w3.org/2000/svg">
<rect x="0.5" y="0.5" width="319" height="168" rx="7.5" stroke="#70737C" stroke-opacity="0.28"/>
<rect x="16" y="16" width="40" height="20" rx="4" fill="#70737C" fill-opacity="0.22"/>
<path d="M22.377 25.4004C22.377 24.2051 23.3613 23.4434 24.8789 23.4434C26.3496 23.4434 27.2812 24.123 27.3691 25.2773H26.0801C25.9863 24.7969 25.5234 24.498 24.8613 24.498C24.1758 24.498 23.7246 24.8145 23.7246 25.2949C23.7246 25.7051 24.0176 25.9395 24.7148 26.0918L25.6699 26.2969C26.9531 26.5723 27.5215 27.1172 27.5215 28.0781C27.5215 29.3262 26.4961 30.1289 24.8848 30.1289C23.3145 30.1289 22.3184 29.4316 22.2246 28.2715H23.5781C23.6953 28.7754 24.1816 29.0625 24.9082 29.0625C25.6523 29.0625 26.1211 28.7344 26.1211 28.2363C26.1211 27.8145 25.8516 27.5977 25.1191 27.4395L24.1582 27.2285C22.9746 26.9648 22.377 26.3555 22.377 25.4004ZM29.7949 25.4004C29.7949 24.2051 30.7793 23.4434 32.2969 23.4434C33.7676 23.4434 34.6992 24.123 34.7871 25.2773H33.498C33.4043 24.7969 32.9414 24.498 32.2793 24.498C31.5938 24.498 31.1426 24.8145 31.1426 25.2949C31.1426 25.7051 31.4355 25.9395 32.1328 26.0918L33.0879 26.2969C34.3711 26.5723 34.9395 27.1172 34.9395 28.0781C34.9395 29.3262 33.9141 30.1289 32.3027 30.1289C30.7324 30.1289 29.7363 29.4316 29.6426 28.2715H30.9961C31.1133 28.7754 31.5996 29.0625 32.3262 29.0625C33.0703 29.0625 33.5391 28.7344 33.5391 28.2363C33.5391 27.8145 33.2695 27.5977 32.5371 27.4395L31.5762 27.2285C30.3926 26.9648 29.7949 26.3555 29.7949 25.4004ZM40.7051 28.8105H42.9551V30H36.9551V28.8105H39.3164V22.998H39.2168L36.9434 24.4922V23.1152L39.3223 21.5449H40.7051V28.8105ZM47.0684 30.1699C45.3809 30.1699 44.1914 29.1562 44.127 27.6621H45.498C45.5918 28.4238 46.248 28.9453 47.1152 28.9453C48.0938 28.9453 48.75 28.2656 48.75 27.252C48.75 26.2324 48.0879 25.5469 47.1152 25.5469C46.4473 25.5469 45.9199 25.834 45.6035 26.3848H44.2441L44.6543 21.5449H49.6055V22.752H45.7793L45.5742 25.2129H45.6738C46.0547 24.6973 46.6816 24.416 47.4551 24.416C49.0195 24.416 50.1035 25.5645 50.1035 27.2168C50.1035 28.9863 48.8848 30.1699 47.0684 30.1699Z" fill="white"/>
<rect x="16" y="52" width="288" height="1" fill="#70737C" fill-opacity="0.28"/>
<path d="M21.4219 80.0625C21.0469 80.0703 20.7656 79.7656 20.7656 79.4062V71.9062C20.7656 71.5703 21.0469 71.2656 21.4219 71.2656C21.7656 71.2656 22.0469 71.5703 22.0469 71.9062V77.8594L30.1406 69.7969C30.3828 69.5469 30.7656 69.5469 31.0156 69.7969C31.2969 70.0703 31.2656 70.4531 31.0156 70.7031L22.9688 78.7656H28.9219C29.2656 78.7656 29.5469 79.0469 29.5469 79.4062C29.5469 79.7812 29.2656 80.0703 28.9219 80.0625H21.4219ZM46.2938 80.0625C45.9188 80.0703 45.6297 79.7812 45.6375 79.4062C45.6297 79.0469 45.9188 78.7656 46.2938 78.7656H52.2156L44.1688 70.7031C43.8797 70.4141 43.9188 70.0469 44.1688 69.7969C44.4344 69.5469 44.8016 69.5469 45.0594 69.7969L53.1375 77.8594V71.9062C53.1297 71.5703 53.4188 71.2656 53.7938 71.2656C54.1297 71.2656 54.4188 71.5703 54.4188 71.9062V79.4062C54.4188 79.7656 54.1297 80.0703 53.7938 80.0625H46.2938ZM66.5406 76.5312C66.2516 76.25 66.2828 75.8828 66.5406 75.625C66.7516 75.4141 67.1344 75.3516 67.4156 75.625L71.7594 79.9531V68.1562C71.7516 67.8203 72.0328 67.5156 72.4 67.5156C72.7516 67.5156 73.0328 67.8203 73.0406 68.1562V79.9531L77.3688 75.625C77.6188 75.3828 78.0016 75.3828 78.2594 75.625C78.5328 75.8984 78.5016 76.2812 78.2594 76.5312L72.8375 81.9531C72.5797 82.2031 72.2203 82.2188 71.9469 81.9531L66.5406 76.5312ZM88.4906 75.2812C88.2172 75.0156 88.2172 74.6484 88.4906 74.375L93.8969 68.9688C94.1703 68.7031 94.5297 68.7188 94.7875 68.9688C95.0687 69.2344 95.0297 69.6172 94.7875 69.8594L90.4906 74.1719H102.272C102.616 74.1797 102.897 74.4844 102.897 74.8281C102.897 75.1797 102.616 75.4844 102.272 75.4844H90.4906L94.7875 79.7969C95.0687 80.0859 95.0297 80.4531 94.7875 80.7031C94.5141 80.9688 94.1469 80.9531 93.8969 80.7031L88.4906 75.2812ZM111.269 75.2812C111.003 75.0156 111.003 74.6484 111.269 74.375L115.441 70.2188C115.698 69.9531 116.066 69.9688 116.316 70.2188C116.597 70.4844 116.566 70.8672 116.316 71.1094L113.269 74.1719H124.316L121.269 71.1094C120.98 70.8359 121.019 70.4688 121.269 70.2188C121.534 69.9688 121.902 69.9688 122.159 70.2188L126.316 74.375C126.581 74.6484 126.581 75.0156 126.316 75.2812L122.159 79.4531C121.902 79.7031 121.519 79.7031 121.269 79.4531C121.019 79.2031 121.003 78.8203 121.269 78.5469L124.316 75.4844H113.269L116.316 78.5469C116.597 78.8359 116.566 79.2031 116.316 79.4531C116.05 79.7188 115.683 79.7031 115.441 79.4531L111.269 75.2812ZM142.797 80.7031C142.57 80.4688 142.516 80.0859 142.797 79.7969L147.109 75.4844H135.344C134.969 75.4844 134.68 75.2031 134.688 74.8281C134.68 74.4688 134.969 74.1797 135.344 74.1719H147.109L142.797 69.8594C142.516 69.5859 142.547 69.2188 142.797 68.9688C143.07 68.7188 143.43 68.7188 143.688 68.9688L149.109 74.375C149.367 74.6484 149.367 75.0156 149.109 75.2812L143.688 80.7031C143.43 80.9531 143.047 80.9531 142.797 80.7031ZM30.1406 103.859L22.0469 95.7969V101.75C22.0469 102.102 21.7656 102.398 21.4219 102.391C21.0469 102.398 20.7656 102.102 20.7656 101.75V94.25C20.7656 93.8984 21.0469 93.6016 21.4219 93.5938H28.9219C29.2656 93.6016 29.5469 93.8828 29.5469 94.25C29.5469 94.6172 29.2656 94.8984 28.9219 94.8906H22.9688L31.0156 102.969C31.2969 103.25 31.2656 103.617 31.0156 103.859C30.75 104.133 30.3828 104.117 30.1406 103.859ZM44.1688 103.859C43.9344 103.633 43.8797 103.25 44.1688 102.969L52.2156 94.8906H46.2938C45.9188 94.8984 45.6297 94.6172 45.6375 94.25C45.6297 93.8828 45.9188 93.6016 46.2938 93.5938H53.7938C54.1297 93.6016 54.4188 93.8984 54.4188 94.25V101.75C54.4188 102.102 54.1297 102.398 53.7938 102.391C53.4188 102.398 53.1297 102.102 53.1375 101.75V95.7969L45.0594 103.859C44.8016 104.117 44.4188 104.117 44.1688 103.859ZM72.4 106.141C72.0328 106.148 71.7516 105.852 71.7594 105.5V93.7188L67.4156 98.0312C67.1656 98.2812 66.7828 98.2812 66.5406 98.0312C66.3141 97.8203 66.2359 97.4297 66.5406 97.125L71.9469 91.7188C72.2203 91.4531 72.5797 91.4688 72.8375 91.7188L78.2594 97.125C78.5328 97.4141 78.5016 97.7812 78.2594 98.0312C77.9859 98.2812 77.6188 98.2812 77.3688 98.0312L73.0406 93.7188V105.5C73.0328 105.852 72.7516 106.148 72.4 106.141ZM90.9906 102.203C90.7016 101.914 90.7328 101.547 90.9906 101.297C91.2016 101.086 91.5844 101.016 91.8656 101.297L94.9594 104.359V93.2969L91.8656 96.3594C91.6156 96.6172 91.2328 96.6172 90.9906 96.3594C90.7641 96.1484 90.6859 95.7656 90.9906 95.4688L95.1469 91.2969C95.4203 91.0312 95.7797 91.0469 96.0375 91.2969L100.209 95.4688C100.483 95.75 100.452 96.1172 100.209 96.3594C99.9359 96.6172 99.5687 96.6172 99.3187 96.3594L96.2406 93.2969V104.359L99.3187 101.297C99.5531 101.07 99.9359 101.031 100.209 101.297C100.483 101.57 100.452 101.953 100.209 102.203L96.0375 106.359C95.7797 106.617 95.4203 106.633 95.1469 106.359L90.9906 102.203ZM117.222 103.422C117.081 103.43 116.902 103.367 116.769 103.234L112.425 98.875C112.198 98.6641 112.12 98.2656 112.425 97.9844C112.636 97.7656 113.019 97.7188 113.3 98L117.206 101.844L124.269 94.4219C124.534 94.1484 124.933 94.1641 125.191 94.4062C125.402 94.6328 125.48 95.0156 125.206 95.3125L117.691 103.234C117.534 103.383 117.386 103.43 117.222 103.422ZM142 106.984C137.516 106.984 133.852 103.32 133.859 98.8281C133.852 94.3516 137.516 90.6797 142 90.6719C146.469 90.6797 150.133 94.3516 150.141 98.8281C150.133 103.32 146.469 106.984 142 106.984ZM142 105.672C145.75 105.68 148.852 102.602 148.859 98.8281C148.852 95.0703 145.75 91.9844 142 91.9844C138.234 91.9844 135.133 95.0859 135.141 98.8281C135.133 102.586 138.234 105.68 142 105.672ZM26 130.984C21.5156 130.984 17.8516 127.32 17.8594 122.828C17.8516 118.352 21.5156 114.68 26 114.672C30.4688 114.68 34.1328 118.352 34.1406 122.828C34.1328 127.32 30.4688 130.984 26 130.984ZM43.1375 128.891C42.8797 128.648 42.8641 128.281 43.1375 128.016L48.2938 122.828L43.1375 117.641C42.8641 117.383 42.8797 117.016 43.1375 116.766C43.3797 116.516 43.7469 116.5 44.0281 116.766L49.2 121.906L54.3875 116.766C54.5984 116.547 54.9969 116.469 55.2938 116.766C55.5359 117.031 55.5203 117.398 55.2781 117.641L50.1219 122.828L55.2781 128.016C55.4969 128.25 55.5516 128.633 55.2938 128.891C55.0203 129.18 54.6297 129.148 54.3875 128.891L49.2 123.75L44.0281 128.891C43.7469 129.164 43.3797 129.148 43.1375 128.891ZM72.4 130.391C72.0641 130.398 71.7672 130.281 71.525 130.031L65.6188 124.062C64.6656 123.102 64.2516 121.867 64.2594 120.656C64.2516 118.031 66.2672 115.82 68.9313 115.812C70.1656 115.82 71.4703 116.32 72.4 117.375C73.3141 116.336 74.6031 115.82 75.8531 115.812C78.5172 115.82 80.5328 118.031 80.5406 120.656C80.5328 121.867 80.1188 123.102 79.1656 124.062L73.2906 130.031C73.0484 130.266 72.7359 130.398 72.4 130.391ZM78.2438 123.172C78.9469 122.469 79.2516 121.5 79.2594 120.641C79.2516 118.734 77.7672 117.102 75.8531 117.094C74.8844 117.102 73.8531 117.516 73.15 118.484C72.8297 118.914 72.7828 119.102 72.4 119.094C72.0016 119.102 71.8297 118.797 71.6344 118.516C70.9859 117.602 69.9859 117.102 68.9313 117.094C66.9859 117.102 65.5328 118.75 65.5406 120.641C65.5328 121.586 65.8844 122.516 66.5563 123.172L72.4 129.078L78.2438 123.172ZM95.6 130.391C95.2641 130.398 94.9672 130.281 94.725 130.031L88.8187 124.062C87.8656 123.102 87.4516 121.867 87.4594 120.656C87.4516 118.031 89.4672 115.82 92.1312 115.812C93.3656 115.82 94.6703 116.32 95.6 117.375C96.5141 116.336 97.8031 115.82 99.0531 115.812C101.717 115.82 103.733 118.031 103.741 120.656C103.733 121.867 103.319 123.102 102.366 124.062L96.4906 130.031C96.2484 130.266 95.9359 130.398 95.6 130.391ZM114.3 130.141C112.347 130.148 111.48 129.266 111.488 127.328V118.328C111.48 116.398 112.347 115.516 114.3 115.516H123.3C125.23 115.516 126.097 116.398 126.097 118.328V127.328C126.097 129.266 125.23 130.148 123.3 130.141H114.3ZM123.3 128.844C124.55 128.852 124.816 128.602 124.816 127.328V118.328C124.816 117.07 124.55 116.82 123.3 116.812H114.3C113.034 116.82 112.769 117.07 112.769 118.328V127.328C112.769 128.602 113.034 128.852 114.3 128.844H123.3ZM137.5 130.141C135.547 130.148 134.68 129.266 134.688 127.328V118.328C134.68 116.398 135.547 115.516 137.5 115.516H146.5C148.43 115.516 149.297 116.398 149.297 118.328V127.328C149.297 129.266 148.43 130.148 146.5 130.141H137.5ZM22.4531 154.328C20.6484 155.133 20.2031 154.453 20.375 152.812L20.7656 148.922L18.1562 146.031C16.9297 144.68 17.3828 143.953 18.9531 143.609L22.7656 142.797L24.7344 139.406C25.2188 138.586 25.4844 138.266 26 138.266C26.5312 138.266 26.7969 138.586 27.2812 139.406L29.25 142.797L33.0781 143.609C34.6328 143.953 35.0859 144.68 33.875 146.031L31.25 148.922L31.6562 152.812C31.8203 154.453 31.3672 155.133 29.5781 154.328L26 152.75L22.4531 154.328ZM25.4375 151.609C25.6641 151.516 25.8359 151.469 26 151.469C26.1797 151.469 26.3516 151.516 26.5938 151.609L30.2812 153.234C30.3516 153.266 30.3984 153.281 30.3906 153.156L29.9688 149.156C29.9141 148.68 29.9297 148.484 30.3438 148.031L33.0312 145.031C33.1016 144.969 33.0469 144.93 32.9688 144.906L29.0781 144.062C28.5859 143.969 28.3672 143.836 28.1094 143.359L26.0938 139.859C26.0703 139.836 26.0312 139.797 26 139.797C25.9844 139.797 25.9531 139.836 25.9375 139.859L23.9219 143.359C23.6328 143.867 23.3984 143.969 22.9531 144.062L19.0469 144.906C18.9844 144.93 18.9141 144.969 18.9844 145.031L21.6875 148.031C22.0859 148.484 22.1016 148.703 22.0469 149.156L21.6406 153.156C21.6172 153.266 21.6328 153.266 21.7344 153.234L25.4375 151.609ZM45.6531 154.328C43.8328 155.133 43.4031 154.43 43.575 152.812L43.9656 148.922L41.3563 146.031C40.1297 144.68 40.5828 143.953 42.1531 143.609L45.9656 142.797L47.9344 139.406C48.4188 138.586 48.6844 138.266 49.2 138.266C49.7313 138.266 49.9969 138.586 50.4813 139.406L52.45 142.797L56.2781 143.609C57.8328 143.953 58.2859 144.68 57.075 146.031L54.45 148.922L54.8563 152.812C55.0203 154.43 54.5828 155.133 52.7781 154.328L49.2 152.766L45.6531 154.328ZM66.9938 154.141C65.8297 154.148 65.0641 153.867 64.5719 153.016C64.0641 152.164 64.1656 151.336 64.775 150.297L70.1656 141.047C70.7516 140.047 71.4 139.516 72.4 139.516C73.2984 139.516 73.9859 139.969 74.6188 141.047L80.0406 150.297C80.6656 151.383 80.6969 152.203 80.2438 153C79.7672 153.797 79.0484 154.148 77.8219 154.141H66.9938ZM72.4 151.484C71.8297 151.484 71.4 151.016 71.4 150.484C71.4 149.93 71.8297 149.484 72.4 149.484C72.9469 149.484 73.4 149.914 73.4 150.484C73.4 151.016 72.9703 151.484 72.4 151.484ZM77.8219 152.844C78.6813 152.852 78.9313 152.703 79.1344 152.344C79.3531 151.969 79.3297 151.633 78.9313 150.953L73.525 141.703C73.0641 140.93 72.7828 140.82 72.4 140.812C72.0016 140.82 71.7359 140.93 71.2906 141.703L65.8688 150.953C65.4313 151.703 65.4703 152 65.65 152.328C65.8531 152.703 66.1031 152.852 66.9938 152.844H77.8219ZM71.6813 148.531V143.781H73.1188V148.531H71.6813ZM90.1937 154.141C89.0297 154.148 88.2641 153.867 87.7719 153.016C87.2641 152.164 87.3656 151.336 87.975 150.297L93.3656 141.047C93.9516 140.047 94.6 139.516 95.6 139.516C96.4984 139.516 97.1859 139.969 97.8187 141.047L103.241 150.297C103.866 151.383 103.897 152.203 103.444 153C102.967 153.797 102.248 154.148 101.022 154.141H90.1937ZM95.6 151.344C96.1703 151.352 96.6 150.883 96.6 150.344C96.6 149.781 96.1469 149.352 95.6 149.344C95.0297 149.352 94.6 149.797 94.6 150.344C94.6 150.883 95.0297 151.352 95.6 151.344ZM94.8812 148.422H96.3187V143.984H94.8812V148.422Z" fill="#B0B0B0" fill-opacity="0.28"/>
<path d="M168.344 79.0938C168 79.1016 167.734 78.8359 167.734 78.5V72.5C167.734 72.1641 168 71.8984 168.344 71.8906C168.664 71.8984 168.93 72.1641 168.938 72.5V77.0469L175.25 70.75C175.484 70.5 175.852 70.5 176.094 70.75C176.336 70.9844 176.336 71.3516 176.094 71.5781L169.781 77.8906H174.344C174.664 77.8984 174.93 78.1641 174.938 78.5C174.93 78.8359 174.664 79.1016 174.344 79.0938H168.344ZM188.872 79.0938C188.536 79.1016 188.27 78.8359 188.278 78.5C188.27 78.1641 188.536 77.8984 188.872 77.8906H193.419L187.122 71.5781C186.864 71.3516 186.864 70.9844 187.122 70.75C187.348 70.5 187.716 70.5 187.95 70.75L194.278 77.0469V72.5C194.27 72.1641 194.536 71.8984 194.872 71.8906C195.2 71.8984 195.466 72.1641 195.466 72.5V78.5C195.466 78.8359 195.2 79.1016 194.872 79.0938H188.872ZM205.65 76.25C205.4 76.0156 205.4 75.6484 205.65 75.4062C205.884 75.1641 206.252 75.1641 206.494 75.4062L209.806 78.7188V69.5C209.798 69.1641 210.064 68.8984 210.4 68.8906C210.736 68.8984 211.002 69.1641 211.009 69.5V78.7188L214.322 75.4062C214.548 75.1641 214.916 75.1641 215.15 75.4062C215.4 75.6484 215.4 76.0156 215.15 76.25L210.822 80.5781C210.58 80.8359 210.22 80.8359 209.994 80.5781L205.65 76.25ZM223.85 75.25C223.6 75.0156 223.6 74.6484 223.85 74.4062L228.194 70.0781C228.42 69.8359 228.78 69.8359 229.022 70.0781C229.264 70.3203 229.264 70.6797 229.022 70.9062L225.725 74.2344H234.944C235.264 74.2344 235.53 74.5 235.537 74.8281C235.53 75.1641 235.264 75.4297 234.944 75.4219H225.725L229.022 78.75C229.264 78.9844 229.264 79.3516 229.022 79.5781C228.78 79.8359 228.42 79.8359 228.194 79.5781L223.85 75.25ZM242.722 75.25C242.464 75.0156 242.464 74.6484 242.722 74.4062L246.05 71.0781C246.284 70.8359 246.652 70.8359 246.894 71.0781C247.136 71.3203 247.136 71.6797 246.894 71.9062L244.581 74.2344H253.019L250.722 71.9062C250.464 71.6797 250.464 71.3203 250.722 71.0781C250.948 70.8359 251.316 70.8359 251.55 71.0781L254.894 74.4062C255.136 74.6484 255.136 75.0156 254.894 75.25L251.55 78.5781C251.316 78.8359 250.948 78.8359 250.722 78.5781C250.464 78.3516 250.464 77.9844 250.722 77.75L253.019 75.4219H244.581L246.894 77.75C247.136 77.9844 247.136 78.3516 246.894 78.5781C246.652 78.8359 246.284 78.8359 246.05 78.5781L242.722 75.25ZM268.594 79.5781C268.336 79.3516 268.336 78.9844 268.594 78.75L271.891 75.4219H262.672C262.336 75.4297 262.07 75.1641 262.078 74.8281C262.07 74.5 262.336 74.2344 262.672 74.2344H271.891L268.594 70.9062C268.336 70.6797 268.336 70.3203 268.594 70.0781C268.82 69.8359 269.18 69.8359 269.422 70.0781L273.75 74.4062C274 74.6484 274 75.0156 273.75 75.25L269.422 79.5781C269.18 79.8359 268.82 79.8359 268.594 79.5781ZM290.45 78.9062L284.137 72.6094V77.1562C284.13 77.5 283.864 77.7656 283.544 77.7656C283.2 77.7656 282.934 77.5 282.934 77.1562V71.1562C282.934 70.8359 283.2 70.5703 283.544 70.5625H289.544C289.864 70.5703 290.13 70.8359 290.137 71.1562C290.13 71.5 289.864 71.7656 289.544 71.7656H284.981L291.294 78.0781C291.536 78.3203 291.536 78.6797 291.294 78.9062C291.052 79.1641 290.684 79.1641 290.45 78.9062ZM167.922 102.906C167.664 102.68 167.664 102.32 167.922 102.078L174.219 95.7656H169.672C169.336 95.7656 169.07 95.5 169.078 95.1562C169.07 94.8359 169.336 94.5703 169.672 94.5625H175.672C176 94.5703 176.266 94.8359 176.266 95.1562V101.156C176.266 101.5 176 101.766 175.672 101.766C175.336 101.766 175.07 101.5 175.078 101.156V96.6094L168.75 102.906C168.516 103.164 168.148 103.164 167.922 102.906ZM191.2 104.766C190.864 104.766 190.598 104.5 190.606 104.156V94.9531L187.294 98.25C187.052 98.5 186.684 98.5 186.45 98.25C186.2 98.0156 186.2 97.6484 186.45 97.4062L190.794 93.0781C191.02 92.8359 191.38 92.8359 191.622 93.0781L195.95 97.4062C196.2 97.6484 196.2 98.0156 195.95 98.25C195.716 98.5 195.348 98.5 195.122 98.25L191.809 94.9531V104.156C191.802 104.5 191.536 104.766 191.2 104.766ZM206.65 101.578C206.4 101.352 206.4 100.984 206.65 100.75C206.884 100.5 207.252 100.5 207.494 100.75L209.806 103.047V94.6094L207.494 96.9062C207.252 97.1641 206.884 97.1641 206.65 96.9062C206.4 96.6797 206.4 96.3203 206.65 96.0781L209.994 92.75C210.22 92.5 210.58 92.5 210.822 92.75L214.15 96.0781C214.4 96.3203 214.4 96.6797 214.15 96.9062C213.916 97.1641 213.548 97.1641 213.322 96.9062L211.009 94.6094V103.047L213.322 100.75C213.548 100.5 213.916 100.5 214.15 100.75C214.4 100.984 214.4 101.352 214.15 101.578L210.822 104.906C210.58 105.164 210.22 105.164 209.994 104.906L206.65 101.578ZM228.334 102.594C228.186 102.602 228.014 102.531 227.928 102.406L224.444 98.9219C224.186 98.7031 224.186 98.3359 224.444 98.0938C224.67 97.8516 225.03 97.8516 225.272 98.0938L228.319 101.125L233.928 95.25C234.147 95.0156 234.514 95 234.772 95.2344C234.998 95.4688 235.014 95.8359 234.787 96.0781L228.772 102.406C228.647 102.531 228.498 102.602 228.334 102.594ZM248.8 105.422C245.167 105.43 242.198 102.469 242.206 98.8281C242.198 95.2031 245.167 92.2344 248.8 92.2344C252.433 92.2344 255.402 95.2031 255.409 98.8281C255.402 102.469 252.433 105.43 248.8 105.422ZM248.8 104.234C251.769 104.234 254.198 101.797 254.206 98.8281C254.198 95.8672 251.769 93.4297 248.8 93.4219C245.831 93.4297 243.402 95.8672 243.409 98.8281C243.402 101.797 245.831 104.234 248.8 104.234ZM268 105.422C264.367 105.43 261.398 102.469 261.406 98.8281C261.398 95.2031 264.367 92.2344 268 92.2344C271.633 92.2344 274.602 95.2031 274.609 98.8281C274.602 102.469 271.633 105.43 268 105.422ZM282.294 103.75C282.036 103.516 282.036 103.148 282.294 102.906L286.356 98.8281L282.294 94.75C282.036 94.5156 282.036 94.1484 282.294 93.9062C282.52 93.6641 282.88 93.6641 283.122 93.9062L287.2 97.9844L291.294 93.9062C291.52 93.6641 291.88 93.6641 292.122 93.9062C292.364 94.1484 292.364 94.5156 292.122 94.75L288.059 98.8281L292.122 102.906C292.364 103.148 292.364 103.516 292.122 103.75C291.88 104 291.52 104 291.294 103.75L287.2 99.6719L283.122 103.75C282.88 104 282.52 104 282.294 103.75ZM172 128.969C171.719 128.969 171.453 128.867 171.234 128.641L166.516 123.875C165.766 123.102 165.398 122.102 165.406 121.094C165.398 118.93 167.07 117.133 169.234 117.125C170.25 117.133 171.266 117.547 172 118.344C172.734 117.547 173.75 117.133 174.766 117.125C176.93 117.133 178.602 118.93 178.609 121.094C178.602 122.102 178.234 123.102 177.484 123.875L172.766 128.641C172.57 128.867 172.281 128.969 172 128.969ZM176.625 123.047C177.133 122.516 177.398 121.797 177.406 121.078C177.398 119.602 176.25 118.336 174.766 118.328C173.969 118.336 173.18 118.703 172.672 119.406C172.414 119.766 172.336 119.93 172 119.922C171.648 119.93 171.516 119.703 171.328 119.406C170.797 118.703 170.016 118.336 169.234 118.328C167.734 118.336 166.602 119.602 166.609 121.078C166.602 121.797 166.867 122.516 167.391 123.047L172 127.719L176.625 123.047ZM191.2 128.969C190.919 128.969 190.653 128.867 190.434 128.641L185.716 123.875C184.966 123.102 184.598 122.102 184.606 121.094C184.598 118.93 186.27 117.133 188.434 117.125C189.45 117.133 190.466 117.547 191.2 118.344C191.934 117.547 192.95 117.133 193.966 117.125C196.13 117.133 197.802 118.93 197.809 121.094C197.802 122.102 197.434 123.102 196.684 123.875L191.966 128.641C191.77 128.867 191.481 128.969 191.2 128.969ZM206.806 128.766C205.197 128.766 204.47 128.031 204.478 126.422V119.234C204.47 117.633 205.197 116.898 206.806 116.891H214.009C215.603 116.898 216.33 117.633 216.338 119.234V126.422C216.33 128.031 215.603 128.766 214.009 128.766H206.806ZM214.009 127.562C214.931 127.57 215.134 127.367 215.134 126.422V119.234C215.134 118.297 214.931 118.102 214.009 118.094H206.806C205.869 118.102 205.666 118.297 205.666 119.234V126.422C205.666 127.367 205.869 127.57 206.806 127.562H214.009ZM226.006 128.766C224.397 128.766 223.67 128.031 223.678 126.422V119.234C223.67 117.633 224.397 116.898 226.006 116.891H233.209C234.803 116.898 235.53 117.633 235.537 119.234V126.422C235.53 128.031 234.803 128.766 233.209 128.766H226.006ZM245.988 128.906C244.519 129.57 244.066 129.016 244.206 127.609L244.519 124.547L242.456 122.25C241.448 121.148 241.784 120.469 243.144 120.172L246.159 119.531L247.706 116.844C248.12 116.164 248.347 115.898 248.8 115.891C249.253 115.898 249.48 116.164 249.909 116.844L251.456 119.531L254.472 120.172C255.816 120.469 256.152 121.148 255.159 122.25L253.081 124.547L253.409 127.609C253.534 129.016 253.081 129.57 251.628 128.906L248.8 127.656L245.988 128.906ZM248.3 126.578C248.503 126.5 248.652 126.453 248.8 126.453C248.948 126.453 249.097 126.5 249.3 126.578L252.128 127.812C252.183 127.852 252.214 127.852 252.206 127.75L251.894 124.719C251.831 124.32 251.87 124.117 252.206 123.734L254.253 121.453C254.3 121.398 254.284 121.367 254.206 121.344L251.238 120.703C250.831 120.633 250.636 120.516 250.409 120.094L248.878 117.453C248.847 117.414 248.816 117.383 248.8 117.375C248.784 117.383 248.753 117.414 248.738 117.453L247.206 120.094C246.964 120.516 246.769 120.633 246.378 120.703L243.409 121.344C243.316 121.367 243.3 121.398 243.347 121.453L245.409 123.734C245.73 124.117 245.769 124.32 245.722 124.719L245.409 127.75C245.386 127.852 245.417 127.852 245.488 127.812L248.3 126.578ZM265.188 128.906C263.719 129.57 263.266 129.016 263.406 127.609L263.719 124.547L261.656 122.25C260.648 121.148 260.984 120.469 262.344 120.172L265.359 119.531L266.906 116.844C267.32 116.164 267.547 115.898 268 115.891C268.453 115.898 268.68 116.164 269.109 116.844L270.656 119.531L273.672 120.172C275.016 120.469 275.352 121.148 274.359 122.25L272.281 124.547L272.609 127.609C272.734 129.016 272.281 129.57 270.828 128.906L268 127.656L265.188 128.906ZM282.872 128.766C281.833 128.766 281.231 128.469 280.856 127.797C280.466 127.133 280.497 126.453 281.028 125.562L285.356 118.156C285.864 117.281 286.434 116.898 287.2 116.891C287.966 116.898 288.536 117.281 289.059 118.156L293.387 125.562C293.903 126.453 293.934 127.133 293.559 127.797C293.169 128.469 292.567 128.766 291.544 128.766H282.872ZM287.2 126.5C286.747 126.5 286.403 126.133 286.403 125.703C286.403 125.25 286.747 124.898 287.2 124.891C287.653 124.898 287.997 125.25 287.997 125.703C287.997 126.133 287.653 126.5 287.2 126.5ZM291.544 127.562C292.169 127.57 292.364 127.469 292.528 127.203C292.669 126.93 292.669 126.703 292.356 126.156L288.028 118.766C287.7 118.219 287.497 118.102 287.2 118.094C286.903 118.102 286.7 118.219 286.387 118.766L282.059 126.156C281.731 126.703 281.731 126.93 281.887 127.203C282.036 127.469 282.231 127.57 282.872 127.562H291.544ZM286.606 124.156V120.5H287.809V124.156H286.606ZM167.672 152.766C166.633 152.766 166.031 152.469 165.656 151.797C165.266 151.133 165.297 150.453 165.828 149.562L170.156 142.156C170.664 141.281 171.234 140.898 172 140.891C172.766 140.898 173.336 141.281 173.859 142.156L178.188 149.562C178.703 150.453 178.734 151.133 178.359 151.797C177.969 152.469 177.367 152.766 176.344 152.766H167.672ZM172 150.5C172.453 150.5 172.797 150.133 172.797 149.703C172.797 149.25 172.453 148.898 172 148.891C171.547 148.898 171.203 149.25 171.203 149.703C171.203 150.133 171.547 150.5 172 150.5ZM171.406 148.156H172.609V144.5H171.406V148.156Z" fill="#3385FF"/>
</svg>
