<svg width="320" height="193" viewBox="0 0 320 193" fill="none" xmlns="http://www.w3.org/2000/svg">
<rect x="0.5" y="0.5" width="319" height="192" rx="7.5" stroke="#70737C" stroke-opacity="0.28"/>
<rect x="16" y="16" width="40" height="20" rx="4" fill="#70737C" fill-opacity="0.22"/>
<path d="M22.377 25.4004C22.377 24.2051 23.3613 23.4434 24.8789 23.4434C26.3496 23.4434 27.2812 24.123 27.3691 25.2773H26.0801C25.9863 24.7969 25.5234 24.498 24.8613 24.498C24.1758 24.498 23.7246 24.8145 23.7246 25.2949C23.7246 25.7051 24.0176 25.9395 24.7148 26.0918L25.6699 26.2969C26.9531 26.5723 27.5215 27.1172 27.5215 28.0781C27.5215 29.3262 26.4961 30.1289 24.8848 30.1289C23.3145 30.1289 22.3184 29.4316 22.2246 28.2715H23.5781C23.6953 28.7754 24.1816 29.0625 24.9082 29.0625C25.6523 29.0625 26.1211 28.7344 26.1211 28.2363C26.1211 27.8145 25.8516 27.5977 25.1191 27.4395L24.1582 27.2285C22.9746 26.9648 22.377 26.3555 22.377 25.4004ZM29.7949 25.4004C29.7949 24.2051 30.7793 23.4434 32.2969 23.4434C33.7676 23.4434 34.6992 24.123 34.7871 25.2773H33.498C33.4043 24.7969 32.9414 24.498 32.2793 24.498C31.5938 24.498 31.1426 24.8145 31.1426 25.2949C31.1426 25.7051 31.4355 25.9395 32.1328 26.0918L33.0879 26.2969C34.3711 26.5723 34.9395 27.1172 34.9395 28.0781C34.9395 29.3262 33.9141 30.1289 32.3027 30.1289C30.7324 30.1289 29.7363 29.4316 29.6426 28.2715H30.9961C31.1133 28.7754 31.5996 29.0625 32.3262 29.0625C33.0703 29.0625 33.5391 28.7344 33.5391 28.2363C33.5391 27.8145 33.2695 27.5977 32.5371 27.4395L31.5762 27.2285C30.3926 26.9648 29.7949 26.3555 29.7949 25.4004ZM40.7051 28.8105H42.9551V30H36.9551V28.8105H39.3164V22.998H39.2168L36.9434 24.4922V23.1152L39.3223 21.5449H40.7051V28.8105ZM50.2559 27.2168C50.2559 28.916 48.9492 30.1699 47.1855 30.1699C45.3691 30.1699 44.1035 28.9336 44.1035 27.1523C44.1035 26.1445 44.4492 25.2188 45.2812 24.0293C45.4746 23.7363 46.9453 21.7441 47.1035 21.5449H48.7148L46.5176 24.5098C46.2598 24.8613 46.2305 24.9141 46.1719 25.0371L46.2773 25.0605C46.5645 24.7324 47.1211 24.5156 47.6543 24.5156C49.1484 24.5156 50.2559 25.6641 50.2559 27.2168ZM47.1738 28.9688C48.1348 28.9688 48.8613 28.2422 48.8613 27.2754C48.8613 26.3086 48.1348 25.582 47.1738 25.582C46.2129 25.582 45.4863 26.3086 45.4863 27.2754C45.4863 28.2422 46.2129 28.9688 47.1738 28.9688Z" fill="white"/>
<rect x="16" y="52" width="288" height="1" fill="#70737C" fill-opacity="0.28"/>
<path d="M21.4219 80.0625C21.0469 80.0703 20.7656 79.7656 20.7656 79.4062V71.9062C20.7656 71.5703 21.0469 71.2656 21.4219 71.2656C21.7656 71.2656 22.0469 71.5703 22.0469 71.9062V77.8594L30.1406 69.7969C30.3828 69.5469 30.7656 69.5469 31.0156 69.7969C31.2969 70.0703 31.2656 70.4531 31.0156 70.7031L22.9688 78.7656H28.9219C29.2656 78.7656 29.5469 79.0469 29.5469 79.4062C29.5469 79.7812 29.2656 80.0703 28.9219 80.0625H21.4219ZM46.2938 80.0625C45.9188 80.0703 45.6297 79.7812 45.6375 79.4062C45.6297 79.0469 45.9188 78.7656 46.2938 78.7656H52.2156L44.1688 70.7031C43.8797 70.4141 43.9188 70.0469 44.1688 69.7969C44.4344 69.5469 44.8016 69.5469 45.0594 69.7969L53.1375 77.8594V71.9062C53.1297 71.5703 53.4188 71.2656 53.7938 71.2656C54.1297 71.2656 54.4188 71.5703 54.4188 71.9062V79.4062C54.4188 79.7656 54.1297 80.0703 53.7938 80.0625H46.2938ZM66.5406 76.5312C66.2516 76.25 66.2828 75.8828 66.5406 75.625C66.7516 75.4141 67.1344 75.3516 67.4156 75.625L71.7594 79.9531V68.1562C71.7516 67.8203 72.0328 67.5156 72.4 67.5156C72.7516 67.5156 73.0328 67.8203 73.0406 68.1562V79.9531L77.3688 75.625C77.6188 75.3828 78.0016 75.3828 78.2594 75.625C78.5328 75.8984 78.5016 76.2812 78.2594 76.5312L72.8375 81.9531C72.5797 82.2031 72.2203 82.2188 71.9469 81.9531L66.5406 76.5312ZM88.4906 75.2812C88.2172 75.0156 88.2172 74.6484 88.4906 74.375L93.8969 68.9688C94.1703 68.7031 94.5297 68.7188 94.7875 68.9688C95.0687 69.2344 95.0297 69.6172 94.7875 69.8594L90.4906 74.1719H102.272C102.616 74.1797 102.897 74.4844 102.897 74.8281C102.897 75.1797 102.616 75.4844 102.272 75.4844H90.4906L94.7875 79.7969C95.0687 80.0859 95.0297 80.4531 94.7875 80.7031C94.5141 80.9688 94.1469 80.9531 93.8969 80.7031L88.4906 75.2812ZM111.269 75.2812C111.003 75.0156 111.003 74.6484 111.269 74.375L115.441 70.2188C115.698 69.9531 116.066 69.9688 116.316 70.2188C116.597 70.4844 116.566 70.8672 116.316 71.1094L113.269 74.1719H124.316L121.269 71.1094C120.98 70.8359 121.019 70.4688 121.269 70.2188C121.534 69.9688 121.902 69.9688 122.159 70.2188L126.316 74.375C126.581 74.6484 126.581 75.0156 126.316 75.2812L122.159 79.4531C121.902 79.7031 121.519 79.7031 121.269 79.4531C121.019 79.2031 121.003 78.8203 121.269 78.5469L124.316 75.4844H113.269L116.316 78.5469C116.597 78.8359 116.566 79.2031 116.316 79.4531C116.05 79.7188 115.683 79.7031 115.441 79.4531L111.269 75.2812ZM142.797 80.7031C142.57 80.4688 142.516 80.0859 142.797 79.7969L147.109 75.4844H135.344C134.969 75.4844 134.68 75.2031 134.688 74.8281C134.68 74.4688 134.969 74.1797 135.344 74.1719H147.109L142.797 69.8594C142.516 69.5859 142.547 69.2188 142.797 68.9688C143.07 68.7188 143.43 68.7188 143.688 68.9688L149.109 74.375C149.367 74.6484 149.367 75.0156 149.109 75.2812L143.688 80.7031C143.43 80.9531 143.047 80.9531 142.797 80.7031ZM30.1406 103.859L22.0469 95.7969V101.75C22.0469 102.102 21.7656 102.398 21.4219 102.391C21.0469 102.398 20.7656 102.102 20.7656 101.75V94.25C20.7656 93.8984 21.0469 93.6016 21.4219 93.5938H28.9219C29.2656 93.6016 29.5469 93.8828 29.5469 94.25C29.5469 94.6172 29.2656 94.8984 28.9219 94.8906H22.9688L31.0156 102.969C31.2969 103.25 31.2656 103.617 31.0156 103.859C30.75 104.133 30.3828 104.117 30.1406 103.859ZM44.1688 103.859C43.9344 103.633 43.8797 103.25 44.1688 102.969L52.2156 94.8906H46.2938C45.9188 94.8984 45.6297 94.6172 45.6375 94.25C45.6297 93.8828 45.9188 93.6016 46.2938 93.5938H53.7938C54.1297 93.6016 54.4188 93.8984 54.4188 94.25V101.75C54.4188 102.102 54.1297 102.398 53.7938 102.391C53.4188 102.398 53.1297 102.102 53.1375 101.75V95.7969L45.0594 103.859C44.8016 104.117 44.4188 104.117 44.1688 103.859ZM72.4 106.141C72.0328 106.148 71.7516 105.852 71.7594 105.5V93.7188L67.4156 98.0312C67.1656 98.2812 66.7828 98.2812 66.5406 98.0312C66.3141 97.8203 66.2359 97.4297 66.5406 97.125L71.9469 91.7188C72.2203 91.4531 72.5797 91.4688 72.8375 91.7188L78.2594 97.125C78.5328 97.4141 78.5016 97.7812 78.2594 98.0312C77.9859 98.2812 77.6188 98.2812 77.3688 98.0312L73.0406 93.7188V105.5C73.0328 105.852 72.7516 106.148 72.4 106.141ZM90.9906 102.203C90.7016 101.914 90.7328 101.547 90.9906 101.297C91.2016 101.086 91.5844 101.016 91.8656 101.297L94.9594 104.359V93.2969L91.8656 96.3594C91.6156 96.6172 91.2328 96.6172 90.9906 96.3594C90.7641 96.1484 90.6859 95.7656 90.9906 95.4688L95.1469 91.2969C95.4203 91.0312 95.7797 91.0469 96.0375 91.2969L100.209 95.4688C100.483 95.75 100.452 96.1172 100.209 96.3594C99.9359 96.6172 99.5687 96.6172 99.3187 96.3594L96.2406 93.2969V104.359L99.3187 101.297C99.5531 101.07 99.9359 101.031 100.209 101.297C100.483 101.57 100.452 101.953 100.209 102.203L96.0375 106.359C95.7797 106.617 95.4203 106.633 95.1469 106.359L90.9906 102.203ZM117.222 103.422C117.081 103.43 116.902 103.367 116.769 103.234L112.425 98.875C112.198 98.6641 112.12 98.2656 112.425 97.9844C112.636 97.7656 113.019 97.7188 113.3 98L117.206 101.844L124.269 94.4219C124.534 94.1484 124.933 94.1641 125.191 94.4062C125.402 94.6328 125.48 95.0156 125.206 95.3125L117.691 103.234C117.534 103.383 117.386 103.43 117.222 103.422ZM142 106.984C137.516 106.984 133.852 103.32 133.859 98.8281C133.852 94.3516 137.516 90.6797 142 90.6719C146.469 90.6797 150.133 94.3516 150.141 98.8281C150.133 103.32 146.469 106.984 142 106.984ZM142 105.672C145.75 105.68 148.852 102.602 148.859 98.8281C148.852 95.0703 145.75 91.9844 142 91.9844C138.234 91.9844 135.133 95.0859 135.141 98.8281C135.133 102.586 138.234 105.68 142 105.672ZM26 130.984C21.5156 130.984 17.8516 127.32 17.8594 122.828C17.8516 118.352 21.5156 114.68 26 114.672C30.4688 114.68 34.1328 118.352 34.1406 122.828C34.1328 127.32 30.4688 130.984 26 130.984ZM43.1375 128.891C42.8797 128.648 42.8641 128.281 43.1375 128.016L48.2938 122.828L43.1375 117.641C42.8641 117.383 42.8797 117.016 43.1375 116.766C43.3797 116.516 43.7469 116.5 44.0281 116.766L49.2 121.906L54.3875 116.766C54.5984 116.547 54.9969 116.469 55.2938 116.766C55.5359 117.031 55.5203 117.398 55.2781 117.641L50.1219 122.828L55.2781 128.016C55.4969 128.25 55.5516 128.633 55.2938 128.891C55.0203 129.18 54.6297 129.148 54.3875 128.891L49.2 123.75L44.0281 128.891C43.7469 129.164 43.3797 129.148 43.1375 128.891ZM72.4 130.391C72.0641 130.398 71.7672 130.281 71.525 130.031L65.6188 124.062C64.6656 123.102 64.2516 121.867 64.2594 120.656C64.2516 118.031 66.2672 115.82 68.9313 115.812C70.1656 115.82 71.4703 116.32 72.4 117.375C73.3141 116.336 74.6031 115.82 75.8531 115.812C78.5172 115.82 80.5328 118.031 80.5406 120.656C80.5328 121.867 80.1188 123.102 79.1656 124.062L73.2906 130.031C73.0484 130.266 72.7359 130.398 72.4 130.391ZM78.2438 123.172C78.9469 122.469 79.2516 121.5 79.2594 120.641C79.2516 118.734 77.7672 117.102 75.8531 117.094C74.8844 117.102 73.8531 117.516 73.15 118.484C72.8297 118.914 72.7828 119.102 72.4 119.094C72.0016 119.102 71.8297 118.797 71.6344 118.516C70.9859 117.602 69.9859 117.102 68.9313 117.094C66.9859 117.102 65.5328 118.75 65.5406 120.641C65.5328 121.586 65.8844 122.516 66.5563 123.172L72.4 129.078L78.2438 123.172ZM95.6 130.391C95.2641 130.398 94.9672 130.281 94.725 130.031L88.8187 124.062C87.8656 123.102 87.4516 121.867 87.4594 120.656C87.4516 118.031 89.4672 115.82 92.1312 115.812C93.3656 115.82 94.6703 116.32 95.6 117.375C96.5141 116.336 97.8031 115.82 99.0531 115.812C101.717 115.82 103.733 118.031 103.741 120.656C103.733 121.867 103.319 123.102 102.366 124.062L96.4906 130.031C96.2484 130.266 95.9359 130.398 95.6 130.391ZM114.3 130.141C112.347 130.148 111.48 129.266 111.488 127.328V118.328C111.48 116.398 112.347 115.516 114.3 115.516H123.3C125.23 115.516 126.097 116.398 126.097 118.328V127.328C126.097 129.266 125.23 130.148 123.3 130.141H114.3ZM123.3 128.844C124.55 128.852 124.816 128.602 124.816 127.328V118.328C124.816 117.07 124.55 116.82 123.3 116.812H114.3C113.034 116.82 112.769 117.07 112.769 118.328V127.328C112.769 128.602 113.034 128.852 114.3 128.844H123.3ZM137.5 130.141C135.547 130.148 134.68 129.266 134.688 127.328V118.328C134.68 116.398 135.547 115.516 137.5 115.516H146.5C148.43 115.516 149.297 116.398 149.297 118.328V127.328C149.297 129.266 148.43 130.148 146.5 130.141H137.5ZM22.4531 154.328C20.6484 155.133 20.2031 154.453 20.375 152.812L20.7656 148.922L18.1562 146.031C16.9297 144.68 17.3828 143.953 18.9531 143.609L22.7656 142.797L24.7344 139.406C25.2188 138.586 25.4844 138.266 26 138.266C26.5312 138.266 26.7969 138.586 27.2812 139.406L29.25 142.797L33.0781 143.609C34.6328 143.953 35.0859 144.68 33.875 146.031L31.25 148.922L31.6562 152.812C31.8203 154.453 31.3672 155.133 29.5781 154.328L26 152.75L22.4531 154.328ZM25.4375 151.609C25.6641 151.516 25.8359 151.469 26 151.469C26.1797 151.469 26.3516 151.516 26.5938 151.609L30.2812 153.234C30.3516 153.266 30.3984 153.281 30.3906 153.156L29.9688 149.156C29.9141 148.68 29.9297 148.484 30.3438 148.031L33.0312 145.031C33.1016 144.969 33.0469 144.93 32.9688 144.906L29.0781 144.062C28.5859 143.969 28.3672 143.836 28.1094 143.359L26.0938 139.859C26.0703 139.836 26.0312 139.797 26 139.797C25.9844 139.797 25.9531 139.836 25.9375 139.859L23.9219 143.359C23.6328 143.867 23.3984 143.969 22.9531 144.062L19.0469 144.906C18.9844 144.93 18.9141 144.969 18.9844 145.031L21.6875 148.031C22.0859 148.484 22.1016 148.703 22.0469 149.156L21.6406 153.156C21.6172 153.266 21.6328 153.266 21.7344 153.234L25.4375 151.609ZM45.6531 154.328C43.8328 155.133 43.4031 154.43 43.575 152.812L43.9656 148.922L41.3563 146.031C40.1297 144.68 40.5828 143.953 42.1531 143.609L45.9656 142.797L47.9344 139.406C48.4188 138.586 48.6844 138.266 49.2 138.266C49.7313 138.266 49.9969 138.586 50.4813 139.406L52.45 142.797L56.2781 143.609C57.8328 143.953 58.2859 144.68 57.075 146.031L54.45 148.922L54.8563 152.812C55.0203 154.43 54.5828 155.133 52.7781 154.328L49.2 152.766L45.6531 154.328ZM66.9938 154.141C65.8297 154.148 65.0641 153.867 64.5719 153.016C64.0641 152.164 64.1656 151.336 64.775 150.297L70.1656 141.047C70.7516 140.047 71.4 139.516 72.4 139.516C73.2984 139.516 73.9859 139.969 74.6188 141.047L80.0406 150.297C80.6656 151.383 80.6969 152.203 80.2438 153C79.7672 153.797 79.0484 154.148 77.8219 154.141H66.9938ZM72.4 151.484C71.8297 151.484 71.4 151.016 71.4 150.484C71.4 149.93 71.8297 149.484 72.4 149.484C72.9469 149.484 73.4 149.914 73.4 150.484C73.4 151.016 72.9703 151.484 72.4 151.484ZM77.8219 152.844C78.6813 152.852 78.9313 152.703 79.1344 152.344C79.3531 151.969 79.3297 151.633 78.9313 150.953L73.525 141.703C73.0641 140.93 72.7828 140.82 72.4 140.812C72.0016 140.82 71.7359 140.93 71.2906 141.703L65.8688 150.953C65.4313 151.703 65.4703 152 65.65 152.328C65.8531 152.703 66.1031 152.852 66.9938 152.844H77.8219ZM71.6813 148.531V143.781H73.1188V148.531H71.6813ZM90.1937 154.141C89.0297 154.148 88.2641 153.867 87.7719 153.016C87.2641 152.164 87.3656 151.336 87.975 150.297L93.3656 141.047C93.9516 140.047 94.6 139.516 95.6 139.516C96.4984 139.516 97.1859 139.969 97.8187 141.047L103.241 150.297C103.866 151.383 103.897 152.203 103.444 153C102.967 153.797 102.248 154.148 101.022 154.141H90.1937ZM95.6 151.344C96.1703 151.352 96.6 150.883 96.6 150.344C96.6 149.781 96.1469 149.352 95.6 149.344C95.0297 149.352 94.6 149.797 94.6 150.344C94.6 150.883 95.0297 151.352 95.6 151.344ZM94.8812 148.422H96.3187V143.984H94.8812V148.422Z" fill="#B0B0B0" fill-opacity="0.28"/>
<path d="M170.5 81.0156C170.117 81.0156 169.82 80.7188 169.828 80.3281V71.3281C169.82 70.9531 170.133 70.6484 170.5 70.6406C170.867 70.6484 171.18 70.9531 171.188 71.3281V78.6562L181.031 68.8594C181.336 68.5703 181.719 68.6016 181.984 68.8594C182.266 69.1484 182.25 69.5312 181.984 69.7969L172.172 79.6406H179.5C179.883 79.6484 180.18 79.9531 180.188 80.3281C180.18 80.7188 179.883 81.0156 179.5 81.0156H170.5ZM199.7 81.0156C199.333 81.0156 199.02 80.7188 199.028 80.3281C199.02 79.9531 199.333 79.6484 199.7 79.6406H207.059L197.231 69.7969C196.934 69.5 196.966 69.1172 197.231 68.8438C197.52 68.5703 197.919 68.6016 198.184 68.8594L208.028 78.6562V71.3281C208.02 70.9531 208.333 70.6484 208.7 70.6406C209.083 70.6484 209.403 70.9531 209.403 71.3281V80.3281C209.403 80.7188 209.083 81.0156 208.7 81.0156H199.7ZM223.431 76.7969C223.134 76.5 223.166 76.1172 223.431 75.8438C223.72 75.5703 224.119 75.6016 224.384 75.8594L229.728 81.1562V66.8281C229.72 66.4531 230.033 66.1484 230.4 66.1406C230.783 66.1484 231.103 66.4531 231.103 66.8281V81.1562L236.431 75.8594C236.736 75.5703 237.119 75.6016 237.384 75.8594C237.666 76.1484 237.65 76.5312 237.384 76.7969L230.884 83.2969C230.619 83.5703 230.236 83.6016 229.931 83.2969L223.431 76.7969ZM249.131 75.2969C248.85 75.0156 248.85 74.6484 249.131 74.3594L255.631 67.8594C255.936 67.5703 256.319 67.6016 256.584 67.8594C256.866 68.1484 256.85 68.5312 256.584 68.7969L251.272 74.1406H265.6C265.983 74.1484 266.303 74.4531 266.303 74.8281C266.303 75.2188 265.983 75.5156 265.6 75.5156H251.272L256.584 80.8594C256.819 81.1016 256.881 81.5 256.584 81.7969C256.303 82.0859 255.92 82.0859 255.631 81.7969L249.131 75.2969ZM275.831 75.2969C275.55 75.0156 275.55 74.6484 275.831 74.3594L280.831 69.3594C281.136 69.0703 281.519 69.1016 281.784 69.3594C282.05 69.6484 282.05 70.0312 281.784 70.2969L277.972 74.1406H291.659L287.831 70.2969C287.597 70.0703 287.519 69.6641 287.831 69.3438C288.136 69.0703 288.519 69.1016 288.784 69.3594L293.784 74.3594C294.05 74.6328 294.066 75.0156 293.784 75.2969L288.784 80.2969C288.519 80.5703 288.12 80.6016 287.831 80.3125C287.566 80.0469 287.55 79.6484 287.831 79.3594L291.659 75.5156H277.972L281.784 79.3594C282.019 79.6016 282.081 80 281.784 80.2969C281.503 80.5859 281.12 80.5859 280.831 80.2969L275.831 75.2969ZM177.031 105.812C176.781 105.57 176.734 105.164 177.031 104.859L182.359 99.5156H168C167.633 99.5156 167.32 99.2188 167.328 98.8281C167.32 98.4531 167.633 98.1484 168 98.1406H182.359L177.031 92.7969C176.734 92.5 176.766 92.1172 177.031 91.8438C177.336 91.5703 177.719 91.6016 177.984 91.8594L184.484 98.3594C184.75 98.6328 184.766 99.0156 184.484 99.2969L177.984 105.797C177.719 106.07 177.32 106.102 177.031 105.812ZM208.231 104.797L198.388 95V102.328C198.38 102.719 198.067 103.016 197.7 103.016C197.333 103.016 197.02 102.719 197.028 102.328V93.3281C197.02 92.9531 197.317 92.6484 197.7 92.6406H206.7C207.083 92.6484 207.38 92.9531 207.388 93.3281C207.38 93.7188 207.083 94.0156 206.7 94.0156H199.372L209.184 103.859C209.434 104.117 209.466 104.516 209.184 104.797C208.903 105.102 208.497 105.07 208.231 104.797ZM224.431 104.812C224.166 104.547 224.15 104.148 224.431 103.859L234.259 94.0156H226.9C226.533 94.0156 226.22 93.7188 226.228 93.3281C226.22 92.9531 226.533 92.6484 226.9 92.6406H235.9C236.283 92.6484 236.603 92.9531 236.603 93.3281V102.328C236.603 102.719 236.283 103.016 235.9 103.016C235.533 103.016 235.22 102.719 235.228 102.328V95L225.384 104.797C225.119 105.07 224.72 105.102 224.431 104.812ZM257.6 107.516C257.233 107.516 256.92 107.219 256.928 106.828V92.5L251.584 97.7969C251.319 98.0703 250.92 98.1016 250.631 97.8125C250.397 97.5859 250.319 97.1797 250.631 96.8594L257.131 90.3594C257.397 90.1016 257.78 90.0703 258.084 90.3594L264.584 96.8594C264.85 97.1328 264.866 97.5156 264.584 97.7969C264.303 98.1016 263.897 98.0703 263.631 97.7969L258.303 92.5V106.828C258.303 107.219 257.983 107.516 257.6 107.516ZM279.331 102.797C279.034 102.5 279.066 102.117 279.331 101.844C279.62 101.57 280.019 101.602 280.284 101.859L284.128 105.656V92L280.284 95.7969C280.019 96.0703 279.62 96.1016 279.331 95.8125C279.097 95.5859 279.019 95.1797 279.331 94.8594L284.331 89.8594C284.597 89.6016 284.98 89.5703 285.284 89.8594L290.284 94.8594C290.55 95.1328 290.566 95.5156 290.284 95.7969C290.003 96.1016 289.597 96.0703 289.331 95.7969L285.503 92V105.656L289.331 101.859C289.636 101.57 290.019 101.602 290.284 101.859C290.566 102.148 290.55 102.531 290.284 102.797L285.284 107.797C285.019 108.07 284.636 108.102 284.331 107.797L279.331 102.797ZM174.094 128.266C173.914 128.266 173.734 128.164 173.625 128.047L168.406 122.828C168.102 122.531 168.133 122.148 168.406 121.875C168.68 121.602 169.07 121.602 169.359 121.875L174.078 126.578L182.641 117.594C182.898 117.32 183.32 117.32 183.609 117.578C183.852 117.836 183.914 118.25 183.625 118.562L174.609 128.062C174.469 128.203 174.32 128.266 174.094 128.266ZM203.2 132.516C197.88 132.516 193.52 128.164 193.528 122.828C193.52 117.5 197.88 113.148 203.2 113.141C208.536 113.148 212.88 117.516 212.888 122.828C212.88 128.148 208.536 132.516 203.2 132.516ZM203.2 131.141C207.77 131.148 211.52 127.383 211.528 122.828C211.52 118.281 207.77 114.516 203.2 114.516C198.653 114.516 194.88 118.266 194.888 122.828C194.88 127.398 198.653 131.148 203.2 131.141ZM230.4 132.516C225.08 132.516 220.72 128.164 220.728 122.828C220.72 117.5 225.08 113.148 230.4 113.141C235.736 113.148 240.08 117.516 240.088 122.828C240.08 128.148 235.736 132.516 230.4 132.516ZM250.381 130.062C250.116 129.797 250.1 129.398 250.381 129.109L256.631 122.828L250.381 116.547C250.084 116.25 250.116 115.867 250.381 115.594C250.67 115.32 251.069 115.352 251.334 115.609L257.6 121.844L263.881 115.609C264.186 115.32 264.569 115.352 264.834 115.609C265.116 115.898 265.1 116.281 264.834 116.547L258.584 122.828L264.834 129.109C265.069 129.352 265.131 129.75 264.834 130.047C264.553 130.352 264.147 130.32 263.881 130.047L257.6 123.797L251.334 130.047C251.069 130.32 250.67 130.352 250.381 130.062ZM284.8 131.812C284.448 131.82 284.097 131.719 283.8 131.406L276.738 124.266C275.597 123.117 275.12 121.648 275.128 120.234C275.12 117.133 277.48 114.5 280.675 114.5C282.152 114.5 283.698 115.117 284.8 116.391C285.847 115.18 287.37 114.5 288.956 114.5C292.12 114.5 294.48 117.133 294.488 120.234C294.48 121.633 294.019 123.102 292.878 124.266L285.8 131.406C285.55 131.664 285.198 131.82 284.8 131.812ZM291.878 123.297C292.73 122.414 293.12 121.266 293.128 120.203C293.12 117.883 291.316 115.883 288.956 115.875C287.714 115.883 286.48 116.43 285.675 117.531C285.284 118.047 285.23 118.266 284.8 118.266C284.331 118.266 284.167 117.883 283.941 117.562C283.12 116.453 281.886 115.883 280.659 115.875C278.253 115.883 276.48 117.898 276.488 120.203C276.48 121.32 276.902 122.453 277.738 123.297L284.8 130.469L291.878 123.297ZM176 155.812C175.648 155.82 175.297 155.719 175 155.406L167.938 148.266C166.797 147.117 166.32 145.648 166.328 144.234C166.32 141.133 168.68 138.5 171.875 138.5C173.352 138.5 174.898 139.117 176 140.391C177.047 139.18 178.57 138.5 180.156 138.5C183.32 138.5 185.68 141.133 185.688 144.234C185.68 145.633 185.219 147.102 184.078 148.266L177 155.406C176.75 155.664 176.398 155.82 176 155.812ZM197.809 155.516C195.52 155.516 194.52 154.516 194.528 152.234V141.422C194.52 139.148 195.52 138.148 197.809 138.141H208.606C210.88 138.148 211.88 139.148 211.888 141.422V152.234C211.88 154.516 210.88 155.516 208.606 155.516H197.809ZM208.606 154.141C210.184 154.148 210.52 153.836 210.528 152.234V141.422C210.52 139.852 210.184 139.516 208.606 139.516H197.809C196.2 139.516 195.88 139.852 195.888 141.422V152.234C195.88 153.836 196.2 154.148 197.809 154.141H208.606ZM225.009 155.516C222.72 155.516 221.72 154.516 221.728 152.234V141.422C221.72 139.148 222.72 138.148 225.009 138.141H235.806C238.08 138.148 239.08 139.148 239.088 141.422V152.234C239.08 154.516 238.08 155.516 235.806 155.516H225.009ZM253.287 155.766C251.186 156.703 250.733 155.898 250.928 154.031L251.381 149.328L248.241 145.812C246.936 144.367 247.17 143.484 249.131 143.062L253.772 142.078L256.131 137.969C256.717 136.953 257.014 136.648 257.6 136.641C258.186 136.648 258.483 136.953 259.069 137.969L261.444 142.078L266.069 143.062C267.881 143.453 268.366 144.25 266.975 145.812L263.819 149.328L264.287 154.031C264.467 155.898 264.014 156.703 261.928 155.766L257.6 153.844L253.287 155.766ZM256.944 152.641C257.202 152.531 257.397 152.469 257.6 152.469C257.803 152.469 257.998 152.531 258.272 152.641L262.834 154.641C262.897 154.68 262.967 154.734 262.959 154.562L262.444 149.625C262.381 149.133 262.366 148.867 262.866 148.312L266.209 144.594C266.264 144.531 266.202 144.5 266.116 144.484L261.303 143.406C260.748 143.297 260.498 143.18 260.194 142.625L257.678 138.281C257.647 138.25 257.631 138.219 257.6 138.219C257.569 138.219 257.53 138.25 257.522 138.281L255.022 142.625C254.686 143.219 254.42 143.297 253.897 143.406L249.084 144.484C248.967 144.516 248.952 144.547 249.006 144.594L252.334 148.312C252.834 148.883 252.819 149.18 252.772 149.625L252.256 154.562C252.233 154.734 252.264 154.68 252.366 154.641L256.944 152.641ZM280.488 155.766C278.386 156.703 277.933 155.898 278.128 154.031L278.581 149.328L275.441 145.812C274.136 144.367 274.37 143.484 276.331 143.062L280.972 142.078L283.331 137.969C283.917 136.953 284.214 136.648 284.8 136.641C285.386 136.648 285.683 136.953 286.269 137.969L288.644 142.078L293.269 143.062C295.081 143.453 295.566 144.25 294.175 145.812L291.019 149.328L291.488 154.031C291.667 155.898 291.214 156.703 289.128 155.766L284.8 153.844L280.488 155.766ZM169.5 179.516C168.086 179.516 167.219 179.148 166.656 178.141C166.086 177.148 166.234 176.203 166.922 175.031L173.422 163.922C174.102 162.766 174.852 162.148 176 162.141C177.164 162.148 177.914 162.766 178.609 163.922L185.109 175.031C185.836 176.281 185.898 177.234 185.344 178.203C184.734 179.219 183.797 179.516 182.5 179.516H169.5ZM176 176.469C175.336 176.469 174.797 175.914 174.797 175.266C174.797 174.586 175.336 174.07 176 174.062C176.68 174.07 177.203 174.602 177.203 175.266C177.203 175.914 176.664 176.469 176 176.469ZM182.5 178.141C183.586 178.148 183.914 177.969 184.188 177.469C184.414 177.031 184.453 176.648 183.922 175.734L177.422 164.625C176.898 163.75 176.57 163.516 176 163.516C175.453 163.516 175.117 163.75 174.609 164.625L168.109 175.734C167.602 176.602 167.57 177 167.859 177.5C168.133 178 168.5 178.148 169.5 178.141H182.5ZM175.172 172.891V167.062H176.844V172.891H175.172ZM196.7 179.516C195.286 179.516 194.419 179.148 193.856 178.141C193.286 177.148 193.434 176.203 194.122 175.031L200.622 163.922C201.302 162.766 202.052 162.148 203.2 162.141C204.364 162.148 205.114 162.766 205.809 163.922L212.309 175.031C213.036 176.281 213.098 177.234 212.544 178.203C211.934 179.219 210.997 179.516 209.7 179.516H196.7ZM203.2 176.203C203.864 176.203 204.403 175.648 204.403 175C204.403 174.336 203.88 173.797 203.2 173.797C202.536 173.797 201.997 174.32 201.997 175C201.997 175.648 202.536 176.203 203.2 176.203ZM202.372 172.703H204.044V167.469H202.372V172.703Z" fill="#3385FF"/>
</svg>
