<svg width="320" height="122" viewBox="0 0 320 122" fill="none" xmlns="http://www.w3.org/2000/svg">
<rect x="0.5" y="0.5" width="319" height="121" rx="7.5" stroke="#70737C" stroke-opacity="0.28"/>
<rect x="16" y="16" width="40" height="20" rx="4" fill="#70737C" fill-opacity="0.22"/>
<path d="M23.6367 21.791H24.9727V23.625H27.4512V24.7266H24.9961V28.0254C24.9961 28.5938 25.4004 28.9102 26.127 28.9102C26.3613 28.9102 27.2871 28.9043 27.3984 28.8926V29.9824C27.293 30 26.2148 30.0176 26.0215 30.0176C24.334 30.0176 23.6367 29.4434 23.6367 28.0195V24.7266H21.9492V23.625H23.6367V21.791ZM29.5195 30V23.584H30.8379V24.6797H30.9316C31.2598 23.8945 31.9688 23.4551 32.9121 23.4551C34.3066 23.4551 35.0625 24.2871 35.0625 25.8398V30H33.6973V26.1738C33.6973 25.1426 33.2754 24.6504 32.3965 24.6504C31.4824 24.6504 30.8848 25.2891 30.8848 26.2617V30H29.5195ZM42.4805 23.584V30H41.1621V28.9043H41.0684C40.7402 29.6895 40.0312 30.1289 39.0879 30.1289C37.6934 30.1289 36.9375 29.2969 36.9375 27.7383V23.584H38.3027V27.4102C38.3027 28.4414 38.7246 28.9277 39.6035 28.9277C40.5176 28.9277 41.1152 28.2949 41.1152 27.3223V23.584H42.4805ZM50.3086 25.125V30H49.1367V25.5586C49.1367 24.9727 48.8848 24.6387 48.4512 24.6387C48 24.6387 47.7188 25.0195 47.7188 25.623V30H46.5527V25.5586C46.5527 24.9668 46.3066 24.6387 45.8672 24.6387C45.4102 24.6387 45.1172 25.0195 45.1172 25.623V30H43.9453V23.584H45.1406V24.5449H45.2871C45.4336 23.8477 45.8848 23.4551 46.5 23.4551C47.0977 23.4551 47.5078 23.8359 47.6426 24.5098H47.7891C47.9355 23.8535 48.4102 23.4551 49.0371 23.4551C49.8691 23.4551 50.3086 24.0352 50.3086 25.125Z" fill="white"/>
<rect x="16" y="52" width="288" height="1" fill="#70737C" fill-opacity="0.28"/>
<path d="M16.9375 71.1875C17.8281 70.6562 18.7188 70 19.6562 69.1875H21V80.5H19.6562V70.9219H19.5938C18.7266 71.6094 17.8203 72.2109 16.9375 72.6719V71.1875ZM25.7344 78.875L24.4531 82.75H23.2969L24.3594 78.875H25.7344ZM26.875 71.1875C27.7656 70.6562 28.6562 70 29.5938 69.1875H30.9375V80.5H29.5938V70.9219H29.5312C28.6641 71.6094 27.7578 72.2109 26.875 72.6719V71.1875ZM33.75 71.1875C34.6406 70.6562 35.5312 70 36.4688 69.1875H37.8125V80.5H36.4688V70.9219H36.4062C35.5391 71.6094 34.6328 72.2109 33.75 72.6719V71.1875ZM40.625 71.1875C41.5156 70.6562 42.4062 70 43.3438 69.1875H44.6875V80.5H43.3438V70.9219H43.2812C42.4141 71.6094 41.5078 72.2109 40.625 72.6719V71.1875ZM49.4219 78.875L48.1406 82.75H46.9844L48.0469 78.875H49.4219ZM50.5625 71.1875C51.4531 70.6562 52.3438 70 53.2812 69.1875H54.625V80.5H53.2812V70.9219H53.2188C52.3516 71.6094 51.4453 72.2109 50.5625 72.6719V71.1875ZM57.4375 71.1875C58.3281 70.6562 59.2188 70 60.1562 69.1875H61.5V80.5H60.1562V70.9219H60.0938C59.2266 71.6094 58.3203 72.2109 57.4375 72.6719V71.1875ZM64.3125 71.1875C65.2031 70.6562 66.0938 70 67.0312 69.1875H68.375V80.5H67.0312V70.9219H66.9688C66.1016 71.6094 65.1953 72.2109 64.3125 72.6719V71.1875ZM73.1094 78.875L71.8281 82.75H70.6719L71.7344 78.875H73.1094ZM74.25 71.1875C75.1406 70.6562 76.0312 70 76.9688 69.1875H78.3125V80.5H76.9688V70.9219H76.9062C76.0391 71.6094 75.1328 72.2109 74.25 72.6719V71.1875ZM81.125 71.1875C82.0156 70.6562 82.9062 70 83.8438 69.1875H85.1875V80.5H83.8438V70.9219H83.7812C82.9141 71.6094 82.0078 72.2109 81.125 72.6719V71.1875ZM88 71.1875C88.8906 70.6562 89.7812 70 90.7188 69.1875H92.0625V80.5H90.7188V70.9219H90.6562C89.7891 71.6094 88.8828 72.2109 88 72.6719V71.1875ZM16.9375 96.1875C17.8281 95.6562 18.7188 95 19.6562 94.1875H21V105.5H19.6562V95.9219H19.5938C18.7266 96.6094 17.8203 97.2109 16.9375 97.6719V96.1875ZM25.7344 103.875L24.4531 107.75H23.2969L24.3594 103.875H25.7344ZM27.875 104.219C31.875 101.484 33.7031 99.3438 33.7031 97.4375C33.7031 96.0469 32.7656 95.25 31.4219 95.25C30.375 95.25 29.6094 95.7344 29.1875 97.125L27.875 96.75C28.4688 94.7969 29.7969 93.9688 31.4219 93.9688C33.4844 93.9688 35.0781 95.2969 35.0781 97.4375C35.0781 99.6406 33.2188 101.805 30.0781 104.156V104.219H35.25V105.5H27.875V104.219ZM41.125 105.719C39.25 105.719 37.875 104.766 37.0625 103.078L38.2969 102.516C38.9219 103.812 39.8594 104.438 41.125 104.438C42.6406 104.438 43.75 103.547 43.75 102.312C43.75 101 42.5 100.203 40.4375 100.203H40.0625V98.9219H40.4375C42.2344 98.9219 43.2969 98.25 43.2969 97.0938C43.2969 96.0156 42.375 95.25 41.0938 95.25C40 95.25 39.1406 95.8125 38.625 96.875L37.3906 96.3125C38.1406 94.7656 39.5 93.9688 41.0938 93.9688C43.1406 93.9688 44.6719 95.2969 44.6719 97.0625C44.6719 98.2969 43.9219 99.1406 42.5312 99.5312V99.5781C44.1797 100.023 45.125 101.016 45.125 102.406C45.125 104.297 43.4062 105.719 41.125 105.719ZM46.6875 102.953V101.672L51.0781 94.1875H52.6094L48.2969 101.562V101.672H52.2656V98.125H53.6094V101.672H55.375V102.953H53.6094V105.5H52.2656V102.953H46.6875ZM58.7969 103.875L57.5156 107.75H56.3594L57.4219 103.875H58.7969ZM60.5781 100.703L61.1719 94.1719H67.5V95.4531H62.4375L62.0625 99.3594H62.125C62.7344 98.6094 63.6406 98.1562 64.6875 98.1562C66.6562 98.1562 68.25 99.7656 68.25 101.938C68.25 104.156 66.5938 105.719 64.25 105.719C62.4531 105.719 61.0156 104.781 60.1875 103.078L61.4219 102.516C62.0469 103.812 63 104.438 64.25 104.438C65.8281 104.438 66.875 103.438 66.875 101.938C66.875 100.438 65.8281 99.4375 64.2656 99.4375C63.1875 99.4375 62.3516 99.9141 61.9375 100.703H60.5781ZM74.0469 105.719C71.3594 105.719 69.875 103.547 69.875 100.109C69.875 96.1562 71.8125 93.9688 74.3906 93.9688C75.7812 93.9688 77 94.6094 77.75 95.7031L76.5938 96.4219C76.0781 95.625 75.2344 95.25 74.3906 95.25C72.7031 95.25 71.3516 96.7422 71.2656 99.7656H71.3281C71.9609 98.7656 73.0469 98.1562 74.3281 98.1562C76.3594 98.1562 77.9375 99.7188 77.9375 101.938C77.9375 104.172 76.3281 105.719 74.0469 105.719ZM74.0469 104.438C75.5156 104.438 76.5625 103.406 76.5625 101.938C76.5625 100.469 75.5156 99.4375 74.0469 99.4375C72.5781 99.4375 71.5312 100.469 71.5312 101.938C71.5312 103.406 72.5781 104.438 74.0469 104.438ZM79.6875 95.4688V94.1875H87.125V95.4688C84.7188 98.4062 83.4062 101.703 83.0938 105.5H81.8125C82.0938 101.789 83.2812 98.5 85.4531 95.5312V95.4688H79.6875ZM89.1719 103.875L87.8906 107.75H86.7344L87.7969 103.875H89.1719ZM94.5312 104.438C96.0938 104.438 97.1875 103.562 97.1875 102.312C97.1875 101.062 96.0938 100.188 94.5312 100.188C92.9688 100.188 91.875 101.062 91.875 102.312C91.875 103.562 92.9688 104.438 94.5312 104.438ZM94.5312 98.9375C95.7031 98.9375 96.5312 98.1719 96.5312 97.0938C96.5312 96.0156 95.7031 95.25 94.5312 95.25C93.3594 95.25 92.5312 96.0156 92.5312 97.0938C92.5312 98.1719 93.3594 98.9375 94.5312 98.9375ZM90.5 102.375C90.5 101.07 91.3438 99.9609 92.875 99.5V99.4531C91.7734 99.0547 91.1719 98.2031 91.1719 97.0625C91.1719 95.2969 92.6094 93.9688 94.5312 93.9688C96.4531 93.9688 97.8906 95.2969 97.8906 97.0625C97.8906 98.2031 97.2891 99.0547 96.1875 99.4531V99.5C97.7266 99.9609 98.5625 101.07 98.5625 102.375C98.5625 104.266 96.8281 105.719 94.5312 105.719C92.2344 105.719 90.5 104.266 90.5 102.375ZM103.734 105.719C102.328 105.719 101.188 105.047 100.312 103.75L101.438 103.031C102.125 104.016 102.828 104.438 103.734 104.438C105.422 104.438 106.773 102.945 106.875 99.9219H106.812C106.164 100.922 105.078 101.531 103.797 101.531C101.766 101.531 100.188 99.9688 100.188 97.75C100.188 95.5156 101.797 93.9688 104.078 93.9688C106.766 93.9688 108.25 96.1406 108.25 99.5781C108.25 103.531 106.312 105.719 103.734 105.719ZM104.078 100.25C105.547 100.25 106.594 99.2188 106.594 97.75C106.594 96.2812 105.547 95.25 104.078 95.25C102.609 95.25 101.562 96.2812 101.562 97.75C101.562 99.2188 102.609 100.25 104.078 100.25ZM114.062 105.719C111.484 105.719 109.875 103.453 109.875 99.8438C109.875 96.2344 111.484 93.9688 114.062 93.9688C116.641 93.9688 118.25 96.2344 118.25 99.8438C118.25 103.453 116.641 105.719 114.062 105.719ZM114.062 104.438C115.781 104.438 116.875 102.656 116.875 99.8438C116.875 97.0312 115.781 95.25 114.062 95.25C112.344 95.25 111.25 97.0312 111.25 99.8438C111.25 102.656 112.344 104.438 114.062 104.438Z" fill="#B0B0B0" fill-opacity="0.28"/>
<path d="M166.5 71.1875C167.391 70.6562 168.281 70 169.219 69.1875H170.562V80.5H169.219V70.9219H169.156C168.289 71.6094 167.383 72.2109 166.5 72.6719V71.1875ZM180.5 71.1875C181.391 70.6562 182.281 70 183.219 69.1875H184.562V80.5H183.219V70.9219H183.156C182.289 71.6094 181.383 72.2109 180.5 72.6719V71.1875ZM190.5 71.1875C191.391 70.6562 192.281 70 193.219 69.1875H194.562V80.5H193.219V70.9219H193.156C192.289 71.6094 191.383 72.2109 190.5 72.6719V71.1875ZM200.5 71.1875C201.391 70.6562 202.281 70 203.219 69.1875H204.562V80.5H203.219V70.9219H203.156C202.289 71.6094 201.383 72.2109 200.5 72.6719V71.1875ZM214.5 71.1875C215.391 70.6562 216.281 70 217.219 69.1875H218.562V80.5H217.219V70.9219H217.156C216.289 71.6094 215.383 72.2109 214.5 72.6719V71.1875ZM224.5 71.1875C225.391 70.6562 226.281 70 227.219 69.1875H228.562V80.5H227.219V70.9219H227.156C226.289 71.6094 225.383 72.2109 224.5 72.6719V71.1875ZM234.5 71.1875C235.391 70.6562 236.281 70 237.219 69.1875H238.562V80.5H237.219V70.9219H237.156C236.289 71.6094 235.383 72.2109 234.5 72.6719V71.1875ZM248.5 71.1875C249.391 70.6562 250.281 70 251.219 69.1875H252.562V80.5H251.219V70.9219H251.156C250.289 71.6094 249.383 72.2109 248.5 72.6719V71.1875ZM258.5 71.1875C259.391 70.6562 260.281 70 261.219 69.1875H262.562V80.5H261.219V70.9219H261.156C260.289 71.6094 259.383 72.2109 258.5 72.6719V71.1875ZM268.5 71.1875C269.391 70.6562 270.281 70 271.219 69.1875H272.562V80.5H271.219V70.9219H271.156C270.289 71.6094 269.383 72.2109 268.5 72.6719V71.1875ZM166.5 96.1875C167.391 95.6562 168.281 95 169.219 94.1875H170.562V105.5H169.219V95.9219H169.156C168.289 96.6094 167.383 97.2109 166.5 97.6719V96.1875ZM179.234 104.219C183.344 101.484 185.219 99.3438 185.219 97.4375C185.219 96.0469 184.25 95.25 182.859 95.25C181.828 95.25 181 95.6875 180.547 97.125L179.234 96.75C179.844 94.7969 181.203 93.9688 182.859 93.9688C184.953 93.9688 186.594 95.2969 186.594 97.4375C186.594 99.6406 184.672 101.812 181.453 104.156V104.219H186.766V105.5H179.234V104.219ZM193.031 105.719C191.156 105.719 189.781 104.766 188.969 103.078L190.203 102.516C190.828 103.812 191.766 104.438 193.031 104.438C194.547 104.438 195.656 103.547 195.656 102.312C195.656 101 194.406 100.203 192.344 100.203H191.969V98.9219H192.344C194.141 98.9219 195.203 98.25 195.203 97.0938C195.203 96.0156 194.281 95.25 193 95.25C191.906 95.25 191.047 95.8125 190.531 96.875L189.297 96.3125C190.047 94.7656 191.406 93.9688 193 93.9688C195.047 93.9688 196.578 95.2969 196.578 97.0625C196.578 98.2969 195.828 99.1406 194.438 99.5312V99.5781C196.086 100.023 197.031 101.016 197.031 102.406C197.031 104.297 195.312 105.719 193.031 105.719ZM198.75 102.953V101.672L203.141 94.1875H204.672L200.359 101.562V101.672H204.328V98.125H205.672V101.672H207.438V102.953H205.672V105.5H204.328V102.953H198.75ZM213.359 100.703L213.953 94.1719H220.281V95.4531H215.219L214.844 99.3594H214.906C215.516 98.6094 216.422 98.1562 217.469 98.1562C219.438 98.1562 221.031 99.7656 221.031 101.938C221.031 104.156 219.375 105.719 217.031 105.719C215.234 105.719 213.797 104.781 212.969 103.078L214.203 102.516C214.828 103.812 215.781 104.438 217.031 104.438C218.609 104.438 219.656 103.438 219.656 101.938C219.656 100.438 218.609 99.4375 217.047 99.4375C215.969 99.4375 215.133 99.9141 214.719 100.703H213.359ZM227.141 105.719C224.453 105.719 222.969 103.547 222.969 100.109C222.969 96.1562 224.906 93.9688 227.484 93.9688C228.875 93.9688 230.094 94.6094 230.844 95.7031L229.688 96.4219C229.172 95.625 228.328 95.25 227.484 95.25C225.797 95.25 224.445 96.7422 224.359 99.7656H224.422C225.055 98.7656 226.141 98.1562 227.422 98.1562C229.453 98.1562 231.031 99.7188 231.031 101.938C231.031 104.172 229.422 105.719 227.141 105.719ZM227.141 104.438C228.609 104.438 229.656 103.406 229.656 101.938C229.656 100.469 228.609 99.4375 227.141 99.4375C225.672 99.4375 224.625 100.469 224.625 101.938C224.625 103.406 225.672 104.438 227.141 104.438ZM233.25 95.4688V94.1875H241.016V95.4688C238.484 98.4062 237.109 101.703 236.781 105.5H235.5C235.797 101.789 237.047 98.5 239.344 95.5312V95.4688H233.25ZM251 104.438C252.562 104.438 253.656 103.562 253.656 102.312C253.656 101.062 252.562 100.188 251 100.188C249.438 100.188 248.344 101.062 248.344 102.312C248.344 103.562 249.438 104.438 251 104.438ZM251 98.9375C252.172 98.9375 253 98.1719 253 97.0938C253 96.0156 252.172 95.25 251 95.25C249.828 95.25 249 96.0156 249 97.0938C249 98.1719 249.828 98.9375 251 98.9375ZM246.969 102.375C246.969 101.07 247.812 99.9609 249.344 99.5V99.4531C248.242 99.0547 247.641 98.2031 247.641 97.0625C247.641 95.2969 249.078 93.9688 251 93.9688C252.922 93.9688 254.359 95.2969 254.359 97.0625C254.359 98.2031 253.758 99.0547 252.656 99.4531V99.5C254.195 99.9609 255.031 101.07 255.031 102.375C255.031 104.266 253.297 105.719 251 105.719C248.703 105.719 246.969 104.266 246.969 102.375ZM260.516 105.719C259.109 105.719 257.969 105.047 257.094 103.75L258.219 103.031C258.906 104.016 259.609 104.438 260.516 104.438C262.203 104.438 263.555 102.945 263.656 99.9219H263.594C262.945 100.922 261.859 101.531 260.578 101.531C258.547 101.531 256.969 99.9688 256.969 97.75C256.969 95.5156 258.578 93.9688 260.859 93.9688C263.547 93.9688 265.031 96.1406 265.031 99.5781C265.031 103.531 263.094 105.719 260.516 105.719ZM260.859 100.25C262.328 100.25 263.375 99.2188 263.375 97.75C263.375 96.2812 262.328 95.25 260.859 95.25C259.391 95.25 258.344 96.2812 258.344 97.75C258.344 99.2188 259.391 100.25 260.859 100.25ZM271 105.656C268.422 105.656 266.812 103.391 266.812 99.7812C266.812 96.1719 268.422 93.9062 271 93.9062C273.578 93.9062 275.188 96.1719 275.188 99.7812C275.188 103.391 273.578 105.656 271 105.656ZM271 104.375C272.719 104.375 273.812 102.594 273.812 99.7812C273.812 96.9688 272.719 95.1875 271 95.1875C269.281 95.1875 268.188 96.9688 268.188 99.7812C268.188 102.594 269.281 104.375 271 104.375Z" fill="#3385FF"/>
<path d="M176.859 78.875L175.578 82.75H174.422L175.484 78.875H176.859ZM210.859 78.875L209.578 82.75H208.422L209.484 78.875H210.859ZM244.859 78.875L243.578 82.75H242.422L243.484 78.875H244.859ZM176.859 103.875L175.578 107.75H174.422L175.484 103.875H176.859ZM210.859 103.875L209.578 107.75H208.422L209.484 103.875H210.859ZM244.859 103.875L243.578 107.75H242.422L243.484 103.875H244.859Z" fill="white"/>
</svg>
