<svg width="320" height="97" viewBox="0 0 320 97" fill="none" xmlns="http://www.w3.org/2000/svg">
<rect x="0.5" y="0.5" width="319" height="96" rx="7.5" stroke="#70737C" stroke-opacity="0.28"/>
<rect x="16" y="16" width="40" height="20" rx="4" fill="#70737C" fill-opacity="0.22"/>
<path d="M22.2773 30V29.1504L25.7812 24.7852V24.6914H22.3125V23.584H27.4219V24.5215L24.0469 28.7988V28.8867H27.4688V30H22.2773ZM32.3613 24.5332C31.4414 24.5332 30.8906 25.1602 30.8906 26.209H33.7969C33.7969 25.166 33.2578 24.5332 32.3613 24.5332ZM33.8145 28.2598H35.1094C34.957 29.3613 33.8672 30.1289 32.4316 30.1289C30.6035 30.1289 29.5488 29.0801 29.5488 27.252V26.25C29.5488 24.5684 30.6797 23.4551 32.3848 23.4551C34.0723 23.4551 35.1211 24.5625 35.1211 26.3438V27.123H30.8906V27.4336C30.8906 28.4121 31.4941 29.0449 32.4258 29.0449C33.1348 29.0449 33.6797 28.7344 33.8145 28.2598ZM39.5391 25.2246H39.7383C40.002 23.9883 40.7168 23.4141 41.9355 23.4141C42.2988 23.4141 42.6328 23.4609 42.8555 23.5488V25.0312C42.5684 24.9199 42.1465 24.8496 41.7949 24.8496C40.3125 24.8496 39.5332 25.6582 39.5332 27.1406V28.9805H41.4434V30H36.9727V28.9805H38.2207V24.6035H36.8496V23.584H39.5391V25.2246ZM47.127 30.1289C45.3574 30.1289 44.2383 29.0273 44.2383 27.2812V26.3027C44.2383 24.5566 45.3574 23.4551 47.127 23.4551C48.8965 23.4551 50.0156 24.5566 50.0156 26.3027V27.2812C50.0156 29.0273 48.8965 30.1289 47.127 30.1289ZM47.127 24.5859C46.1777 24.5859 45.5859 25.2715 45.5859 26.3789V27.2051C45.5859 28.3125 46.1777 28.998 47.127 28.998C48.0762 28.998 48.668 28.3125 48.668 27.2051V26.3789C48.668 25.2715 48.0762 24.5859 47.127 24.5859Z" fill="white"/>
<rect x="16" y="52" width="288" height="1" fill="#70737C" fill-opacity="0.28"/>
<path d="M22.6094 80.7188C19.2656 80.7188 16.7344 78.1875 16.7344 74.8438C16.7344 71.5 19.2656 68.9688 22.6094 68.9688C25.9531 68.9688 28.4844 71.5 28.4844 74.8438C28.4844 78.1875 25.9531 80.7188 22.6094 80.7188ZM22.6094 79.4062C25.2344 79.4062 27.0781 77.5156 27.0781 74.8438C27.0781 72.1719 25.2344 70.2812 22.6094 70.2812C19.9844 70.2812 18.1406 72.1719 18.1406 74.8438C18.1406 77.5156 19.9844 79.4062 22.6094 79.4062ZM30.1562 71.1875C31.0469 70.6562 31.9375 70 32.875 69.1875H34.2188V80.5H32.875V70.9219H32.8125C31.9453 71.6094 31.0391 72.2109 30.1562 72.6719V71.1875ZM41.0938 80.7188C38.5156 80.7188 36.9062 78.4531 36.9062 74.8438C36.9062 71.2344 38.5156 68.9688 41.0938 68.9688C43.6719 68.9688 45.2812 71.2344 45.2812 74.8438C45.2812 78.4531 43.6719 80.7188 41.0938 80.7188ZM41.0938 79.4375C42.8125 79.4375 43.9062 77.6562 43.9062 74.8438C43.9062 72.0312 42.8125 70.25 41.0938 70.25C39.375 70.25 38.2812 72.0312 38.2812 74.8438C38.2812 77.6562 39.375 79.4375 41.0938 79.4375ZM47.0312 71.1875C47.9219 70.6562 48.8125 70 49.75 69.1875H51.0938V80.5H49.75V70.9219H49.6875C48.8203 71.6094 47.9141 72.2109 47.0312 72.6719V71.1875Z" fill="#B0B0B0" fill-opacity="0.28"/>
<path d="M195.031 71.1875C195.922 70.6562 196.812 70 197.75 69.1875H199.094V80.5H197.75V70.9219H197.688C196.82 71.6094 195.914 72.2109 195.031 72.6719V71.1875Z" fill="white"/>
<path d="M189.094 80.7188C186.516 80.7188 184.906 78.4531 184.906 74.8438C184.906 71.2344 186.516 68.9688 189.094 68.9688C191.672 68.9688 193.281 71.2344 193.281 74.8438C193.281 78.4531 191.672 80.7188 189.094 80.7188ZM189.094 79.4375C190.812 79.4375 191.906 77.6562 191.906 74.8438C191.906 73.7891 191.75 72.8828 191.469 72.1562L187.25 78.4844C187.719 79.1016 188.344 79.4375 189.094 79.4375ZM186.281 74.8438C186.281 75.8984 186.438 76.8047 186.719 77.5312L190.953 71.2031C190.469 70.5859 189.844 70.25 189.094 70.25C187.375 70.25 186.281 72.0312 186.281 74.8438Z" fill="#3385FF"/>
<path d="M178.156 71.1875C179.047 70.6562 179.938 70 180.875 69.1875H182.219V80.5H180.875V70.9219H180.812C179.945 71.6094 179.039 72.2109 178.156 72.6719V71.1875Z" fill="white"/>
<path d="M170.609 80.7188C167.266 80.7188 164.734 78.1875 164.734 74.8438C164.734 71.5 167.266 68.9688 170.609 68.9688C173.953 68.9688 176.484 71.5 176.484 74.8438C176.484 78.1875 173.953 80.7188 170.609 80.7188ZM170.609 79.4062C173.234 79.4062 175.078 77.5156 175.078 74.8438C175.078 72.1719 173.234 70.2812 170.609 70.2812C167.984 70.2812 166.141 72.1719 166.141 74.8438C166.141 77.5156 167.984 79.4062 170.609 79.4062Z" fill="white"/>
</svg>
