<svg width="320" height="122" viewBox="0 0 320 122" fill="none" xmlns="http://www.w3.org/2000/svg">
<rect x="0.5" y="0.5" width="319" height="121" rx="7.5" stroke="#70737C" stroke-opacity="0.28"/>
<rect x="16" y="16" width="40" height="20" rx="4" fill="#70737C" fill-opacity="0.22"/>
<path d="M27.6855 25.7227H26.3496C26.2383 24.9902 25.7285 24.5859 24.9844 24.5859C24.0234 24.5859 23.4961 25.2773 23.4961 26.5371V27.0293C23.4961 28.2891 24.0234 28.9805 24.9844 28.9805C25.7344 28.9805 26.2324 28.5938 26.3496 27.8848H27.6855C27.5391 29.3203 26.5605 30.1289 24.9961 30.1289C23.1621 30.1289 22.125 29.0625 22.125 27.1523V26.4141C22.125 24.5098 23.1621 23.4375 24.9961 23.4375C26.5664 23.4375 27.5332 24.252 27.6855 25.7227ZM31.5117 30.1055C30.293 30.1055 29.4785 29.332 29.4785 28.1719C29.4785 27.0234 30.3105 26.3438 31.8457 26.25L33.4512 26.1562V25.6172C33.4512 24.9551 33.0234 24.5801 32.2734 24.5801C31.6465 24.5801 31.1895 24.8496 31.0488 25.3184H29.7129C29.8301 24.2109 30.8672 23.4785 32.3086 23.4785C33.8965 23.4785 34.7988 24.2578 34.7988 25.6289V30H33.5039V29.1035H33.3809C33.0703 29.7422 32.3848 30.1055 31.5117 30.1055ZM31.9512 28.9922C32.8184 28.9922 33.4512 28.4355 33.4512 27.6621V27.0762L32.0508 27.1523C31.248 27.1992 30.832 27.5215 30.832 28.0898C30.832 28.6465 31.2656 28.9922 31.9512 28.9922ZM37.2129 25.4004C37.2129 24.2051 38.1973 23.4434 39.7148 23.4434C41.1855 23.4434 42.1172 24.123 42.2051 25.2773H40.916C40.8223 24.7969 40.3594 24.498 39.6973 24.498C39.0117 24.498 38.5605 24.8145 38.5605 25.2949C38.5605 25.7051 38.8535 25.9395 39.5508 26.0918L40.5059 26.2969C41.7891 26.5723 42.3574 27.1172 42.3574 28.0781C42.3574 29.3262 41.332 30.1289 39.7207 30.1289C38.1504 30.1289 37.1543 29.4316 37.0605 28.2715H38.4141C38.5312 28.7754 39.0176 29.0625 39.7441 29.0625C40.4883 29.0625 40.957 28.7344 40.957 28.2363C40.957 27.8145 40.6875 27.5977 39.9551 27.4395L38.9941 27.2285C37.8105 26.9648 37.2129 26.3555 37.2129 25.4004ZM47.1973 24.5332C46.2773 24.5332 45.7266 25.1602 45.7266 26.209H48.6328C48.6328 25.166 48.0938 24.5332 47.1973 24.5332ZM48.6504 28.2598H49.9453C49.793 29.3613 48.7031 30.1289 47.2676 30.1289C45.4395 30.1289 44.3848 29.0801 44.3848 27.252V26.25C44.3848 24.5684 45.5156 23.4551 47.2207 23.4551C48.9082 23.4551 49.957 24.5625 49.957 26.3438V27.123H45.7266V27.4336C45.7266 28.4121 46.3301 29.0449 47.2617 29.0449C47.9707 29.0449 48.5156 28.7344 48.6504 28.2598Z" fill="white"/>
<rect x="16" y="52" width="288" height="1" fill="#70737C" fill-opacity="0.28"/>
<path d="M16.9375 71.1875C17.8281 70.6562 18.7188 70 19.6562 69.1875H21V80.5H19.6562V70.9219H19.5938C18.7266 71.6094 17.8203 72.2109 16.9375 72.6719V71.1875ZM31.9375 75.6406V76.9219H28.5625V80.3438H27.1875V76.9219H23.8125V75.6406H27.1875V72.2188H28.5625V75.6406H31.9375ZM33.875 79.2188C37.875 76.4844 39.7031 74.3438 39.7031 72.4375C39.7031 71.0469 38.7656 70.25 37.4219 70.25C36.375 70.25 35.6094 70.7344 35.1875 72.125L33.875 71.75C34.4688 69.7969 35.7969 68.9688 37.4219 68.9688C39.4844 68.9688 41.0781 70.2969 41.0781 72.4375C41.0781 74.6406 39.2188 76.8047 36.0781 79.1562V79.2188H41.25V80.5H33.875V79.2188ZM51.3125 75.6406V76.9219H43.1875V75.6406H51.3125ZM57.125 80.7188C55.25 80.7188 53.875 79.7656 53.0625 78.0781L54.2969 77.5156C54.9219 78.8125 55.8594 79.4375 57.125 79.4375C58.6406 79.4375 59.75 78.5469 59.75 77.3125C59.75 76 58.5 75.2031 56.4375 75.2031H56.0625V73.9219H56.4375C58.2344 73.9219 59.2969 73.25 59.2969 72.0938C59.2969 71.0156 58.375 70.25 57.0938 70.25C56 70.25 55.1406 70.8125 54.625 71.875L53.3906 71.3125C54.1406 69.7656 55.5 68.9688 57.0938 68.9688C59.1406 68.9688 60.6719 70.2969 60.6719 72.0625C60.6719 73.2969 59.9219 74.1406 58.5312 74.5312V74.5781C60.1797 75.0234 61.125 76.0156 61.125 77.4062C61.125 79.2969 59.4062 80.7188 57.125 80.7188ZM70.7188 79.1562L69.8125 80.0625L66.9375 77.1875L64.0625 80.0625L63.1562 79.1562L66.0312 76.2812L63.1562 73.4062L64.0625 72.5L66.9375 75.375L69.8125 72.5L70.7188 73.4062L67.8438 76.2812L70.7188 79.1562ZM72.6875 77.9531V76.6719L77.0781 69.1875H78.6094L74.2969 76.5625V76.6719H78.2656V73.125H79.6094V76.6719H81.375V77.9531H79.6094V80.5H78.2656V77.9531H72.6875ZM91 75.6406V76.9219H82.875V75.6406H91ZM86.9219 74.1562C86.3594 74.1562 85.9531 73.75 85.9531 73.1875C85.9531 72.625 86.3594 72.2188 86.9219 72.2188C87.4844 72.2188 87.8906 72.625 87.8906 73.1875C87.8906 73.75 87.4844 74.1562 86.9219 74.1562ZM86.9219 80.3438C86.3594 80.3438 85.9531 79.9375 85.9531 79.375C85.9531 78.8125 86.3594 78.4062 86.9219 78.4062C87.4844 78.4062 87.8906 78.8125 87.8906 79.375C87.8906 79.9375 87.4844 80.3438 86.9219 80.3438ZM93.1406 75.7031L93.7344 69.1719H100.062V70.4531H95L94.625 74.3594H94.6875C95.2969 73.6094 96.2031 73.1562 97.25 73.1562C99.2188 73.1562 100.812 74.7656 100.812 76.9375C100.812 79.1562 99.1562 80.7188 96.8125 80.7188C95.0156 80.7188 93.5781 79.7812 92.75 78.0781L93.9844 77.5156C94.6094 78.8125 95.5625 79.4375 96.8125 79.4375C98.3906 79.4375 99.4375 78.4375 99.4375 76.9375C99.4375 75.4375 98.3906 74.4375 96.8281 74.4375C95.75 74.4375 94.9141 74.9141 94.5 75.7031H93.1406ZM110.688 73.8438V75.125H102.562V73.8438H110.688ZM110.688 77.4375V78.7188H102.562V77.4375H110.688ZM112.672 80.5V72.4375H113.984V73.6094H114.047C114.438 72.75 115.305 72.2188 116.453 72.2188C118.25 72.2188 119.234 73.4844 119.234 75.5625V80.5H117.922V75.75C117.922 74.2656 117.297 73.4688 116.172 73.4688C115.047 73.4688 113.984 74.2656 113.984 76V80.5H112.672ZM17.0469 105.5V97.4375H18.3594V98.6094H18.4219C18.8125 97.75 19.6797 97.2188 20.8281 97.2188C22.625 97.2188 23.6094 98.4844 23.6094 100.562V105.5H22.2969V100.75C22.2969 99.2656 21.6719 98.4688 20.5469 98.4688C19.4219 98.4688 18.3594 99.2656 18.3594 101V105.5H17.0469ZM33.4688 102.016L25.8438 105.328V103.891L31.9688 101.281L25.8438 98.6719V97.2344L33.4688 100.547V102.016ZM39.6562 105.719C37.0781 105.719 35.4688 103.453 35.4688 99.8438C35.4688 96.2344 37.0781 93.9688 39.6562 93.9688C42.2344 93.9688 43.8438 96.2344 43.8438 99.8438C43.8438 103.453 42.2344 105.719 39.6562 105.719ZM39.6562 104.438C41.375 104.438 42.4688 102.656 42.4688 99.8438C42.4688 97.0312 41.375 95.25 39.6562 95.25C37.9375 95.25 36.8438 97.0312 36.8438 99.8438C36.8438 102.656 37.9375 104.438 39.6562 104.438ZM53.6562 105.719C51.0781 105.719 49.4688 103.453 49.4688 99.8438C49.4688 96.2344 51.0781 93.9688 53.6562 93.9688C56.2344 93.9688 57.8438 96.2344 57.8438 99.8438C57.8438 103.453 56.2344 105.719 53.6562 105.719ZM53.6562 104.438C55.375 104.438 56.4688 102.656 56.4688 99.8438C56.4688 97.0312 55.375 95.25 53.6562 95.25C51.9375 95.25 50.8438 97.0312 50.8438 99.8438C50.8438 102.656 51.9375 104.438 53.6562 104.438ZM65.2031 102.594C63.6406 102.594 63.0938 101.312 62.1094 101.312C61.6875 101.312 61.3125 101.547 60.5625 102.438L59.5312 101.578C60.4688 100.469 61.1562 99.9688 62.1094 99.9688C63.6719 99.9688 64.2188 101.25 65.2031 101.25C65.625 101.25 66 101.016 66.75 100.125L67.7812 100.984C66.8438 102.094 66.1562 102.594 65.2031 102.594ZM68.8438 96.1875C69.7344 95.6562 70.625 95 71.5625 94.1875H72.9062V105.5H71.5625V95.9219H71.5C70.6328 96.6094 69.7266 97.2109 68.8438 97.6719V96.1875Z" fill="#B0B0B0" fill-opacity="0.28"/>
<path d="M217.219 96.1875C218.109 95.6562 219 95 219.938 94.1875H221.281V105.5H219.938V95.9219H219.875C219.008 96.6094 218.102 97.2109 217.219 97.6719V96.1875Z" fill="white"/>
<path d="M213.203 101.156C211.641 101.156 211.094 99.875 210.109 99.875C209.688 99.875 209.312 100.109 208.562 101L207.531 100.141C208.469 99.0312 209.156 98.5312 210.109 98.5312C211.672 98.5312 212.219 99.8125 213.203 99.8125C213.625 99.8125 214 99.5781 214.75 98.6875L215.781 99.5469C214.844 100.656 214.156 101.156 213.203 101.156Z" fill="#2288FF"/>
<path d="M201.656 105.719C199.078 105.719 197.469 103.453 197.469 99.8438C197.469 96.2344 199.078 93.9688 201.656 93.9688C204.234 93.9688 205.844 96.2344 205.844 99.8438C205.844 103.453 204.234 105.719 201.656 105.719ZM201.656 104.438C203.375 104.438 204.469 102.656 204.469 99.8438C204.469 97.0312 203.375 95.25 201.656 95.25C199.938 95.25 198.844 97.0312 198.844 99.8438C198.844 102.656 199.938 104.438 201.656 104.438Z" fill="white"/>
<path d="M187.656 105.719C185.078 105.719 183.469 103.453 183.469 99.8438C183.469 96.2344 185.078 93.9688 187.656 93.9688C190.234 93.9688 191.844 96.2344 191.844 99.8438C191.844 103.453 190.234 105.719 187.656 105.719ZM187.656 104.438C189.375 104.438 190.469 102.656 190.469 99.8438C190.469 97.0312 189.375 95.25 187.656 95.25C185.938 95.25 184.844 97.0312 184.844 99.8438C184.844 102.656 185.938 104.438 187.656 104.438Z" fill="white"/>
<path d="M181.469 100.578L173.844 103.891V102.453L179.969 99.8438L173.844 97.2344V95.7969L181.469 99.1094V100.578Z" fill="#2288FF"/>
<path d="M165.047 105.5V97.4375H166.359V98.6094H166.422C166.812 97.75 167.68 97.2188 168.828 97.2188C170.625 97.2188 171.609 98.4844 171.609 100.562V105.5H170.297V100.75C170.297 99.2656 169.672 98.4688 168.547 98.4688C167.422 98.4688 166.359 99.2656 166.359 101V105.5H165.047Z" fill="white"/>
<path d="M260.672 80.5V72.4375H261.984V73.6094H262.047C262.438 72.75 263.305 72.2188 264.453 72.2188C266.25 72.2188 267.234 73.4844 267.234 75.5625V80.5H265.922V75.75C265.922 74.2656 265.297 73.4688 264.172 73.4688C263.047 73.4688 261.984 74.2656 261.984 76V80.5H260.672Z" fill="white"/>
<path d="M258.688 72.4062V73.6875H250.562V72.4062H258.688ZM258.688 76V77.2812H250.562V76H258.688Z" fill="#2288FF"/>
<path d="M241.141 75.7031L241.734 69.1719H248.062V70.4531H243L242.625 74.3594H242.688C243.297 73.6094 244.203 73.1562 245.25 73.1562C247.219 73.1562 248.812 74.7656 248.812 76.9375C248.812 79.1562 247.156 80.7188 244.812 80.7188C243.016 80.7188 241.578 79.7812 240.75 78.0781L241.984 77.5156C242.609 78.8125 243.562 79.4375 244.812 79.4375C246.391 79.4375 247.438 78.4375 247.438 76.9375C247.438 75.4375 246.391 74.4375 244.828 74.4375C243.75 74.4375 242.914 74.9141 242.5 75.7031H241.141Z" fill="white"/>
<path d="M239 74.2031V75.4844H230.875V74.2031H239ZM234.922 72.7188C234.359 72.7188 233.953 72.3125 233.953 71.75C233.953 71.1875 234.359 70.7812 234.922 70.7812C235.484 70.7812 235.891 71.1875 235.891 71.75C235.891 72.3125 235.484 72.7188 234.922 72.7188ZM234.922 78.9062C234.359 78.9062 233.953 78.5 233.953 77.9375C233.953 77.375 234.359 76.9688 234.922 76.9688C235.484 76.9688 235.891 77.375 235.891 77.9375C235.891 78.5 235.484 78.9062 234.922 78.9062Z" fill="#2288FF"/>
<path d="M220.688 77.9531V76.6719L225.078 69.1875H226.609L222.297 76.5625V76.6719H226.266V73.125H227.609V76.6719H229.375V77.9531H227.609V80.5H226.266V77.9531H220.688Z" fill="white"/>
<path d="M218.719 77.7188L217.812 78.625L214.938 75.75L212.062 78.625L211.156 77.7188L214.031 74.8438L211.156 71.9688L212.062 71.0625L214.938 73.9375L217.812 71.0625L218.719 71.9688L215.844 74.8438L218.719 77.7188Z" fill="#2288FF"/>
<path d="M205.125 80.7188C203.25 80.7188 201.875 79.7656 201.062 78.0781L202.297 77.5156C202.922 78.8125 203.859 79.4375 205.125 79.4375C206.641 79.4375 207.75 78.5469 207.75 77.3125C207.75 76 206.5 75.2031 204.438 75.2031H204.062V73.9219H204.438C206.234 73.9219 207.297 73.25 207.297 72.0938C207.297 71.0156 206.375 70.25 205.094 70.25C204 70.25 203.141 70.8125 202.625 71.875L201.391 71.3125C202.141 69.7656 203.5 68.9688 205.094 68.9688C207.141 68.9688 208.672 70.2969 208.672 72.0625C208.672 73.2969 207.922 74.1406 206.531 74.5312V74.5781C208.18 75.0234 209.125 76.0156 209.125 77.4062C209.125 79.2969 207.406 80.7188 205.125 80.7188Z" fill="white"/>
<path d="M199.312 74.2031V75.4844H191.188V74.2031H199.312Z" fill="#2288FF"/>
<path d="M181.875 79.2188C185.875 76.4844 187.703 74.3438 187.703 72.4375C187.703 71.0469 186.766 70.25 185.422 70.25C184.375 70.25 183.609 70.7344 183.188 72.125L181.875 71.75C182.469 69.7969 183.797 68.9688 185.422 68.9688C187.484 68.9688 189.078 70.2969 189.078 72.4375C189.078 74.6406 187.219 76.8047 184.078 79.1562V79.2188H189.25V80.5H181.875V79.2188Z" fill="white"/>
<path d="M179.938 74.2031V75.4844H176.562V78.9062H175.188V75.4844H171.812V74.2031H175.188V70.7812H176.562V74.2031H179.938Z" fill="#2288FF"/>
<path d="M164.938 71.1875C165.828 70.6562 166.719 70 167.656 69.1875H169V80.5H167.656V70.9219H167.594C166.727 71.6094 165.82 72.2109 164.938 72.6719V71.1875Z" fill="white"/>
</svg>
