<svg width="320" height="122" viewBox="0 0 320 122" fill="none" xmlns="http://www.w3.org/2000/svg">
<rect x="0.5" y="0.5" width="319" height="121" rx="7.5" stroke="#70737C" stroke-opacity="0.28"/>
<rect x="16" y="16" width="40" height="20" rx="4" fill="#70737C" fill-opacity="0.22"/>
<path d="M22.377 25.4004C22.377 24.2051 23.3613 23.4434 24.8789 23.4434C26.3496 23.4434 27.2812 24.123 27.3691 25.2773H26.0801C25.9863 24.7969 25.5234 24.498 24.8613 24.498C24.1758 24.498 23.7246 24.8145 23.7246 25.2949C23.7246 25.7051 24.0176 25.9395 24.7148 26.0918L25.6699 26.2969C26.9531 26.5723 27.5215 27.1172 27.5215 28.0781C27.5215 29.3262 26.4961 30.1289 24.8848 30.1289C23.3145 30.1289 22.3184 29.4316 22.2246 28.2715H23.5781C23.6953 28.7754 24.1816 29.0625 24.9082 29.0625C25.6523 29.0625 26.1211 28.7344 26.1211 28.2363C26.1211 27.8145 25.8516 27.5977 25.1191 27.4395L24.1582 27.2285C22.9746 26.9648 22.377 26.3555 22.377 25.4004ZM29.7949 25.4004C29.7949 24.2051 30.7793 23.4434 32.2969 23.4434C33.7676 23.4434 34.6992 24.123 34.7871 25.2773H33.498C33.4043 24.7969 32.9414 24.498 32.2793 24.498C31.5938 24.498 31.1426 24.8145 31.1426 25.2949C31.1426 25.7051 31.4355 25.9395 32.1328 26.0918L33.0879 26.2969C34.3711 26.5723 34.9395 27.1172 34.9395 28.0781C34.9395 29.3262 33.9141 30.1289 32.3027 30.1289C30.7324 30.1289 29.7363 29.4316 29.6426 28.2715H30.9961C31.1133 28.7754 31.5996 29.0625 32.3262 29.0625C33.0703 29.0625 33.5391 28.7344 33.5391 28.2363C33.5391 27.8145 33.2695 27.5977 32.5371 27.4395L31.5762 27.2285C30.3926 26.9648 29.7949 26.3555 29.7949 25.4004ZM41.3613 25.2715L38.25 27.5684C38.502 28.5059 39 28.998 39.7148 28.998C40.793 28.998 41.373 27.873 41.373 25.7695C41.373 25.5938 41.3672 25.4297 41.3613 25.2715ZM38.0625 26.2734L41.1797 23.9883C40.9277 23.0449 40.4297 22.5469 39.7148 22.5469C38.6309 22.5469 38.0508 23.6719 38.0508 25.7695C38.0508 25.9453 38.0566 26.1152 38.0625 26.2734ZM39.7148 21.3633C41.666 21.3633 42.7617 22.9453 42.7617 25.7695C42.7617 28.5996 41.666 30.1816 39.7148 30.1816C37.7578 30.1816 36.6621 28.5996 36.6621 25.7695C36.6621 22.9453 37.7578 21.3633 39.7148 21.3633ZM50.2559 27.2168C50.2559 28.916 48.9492 30.1699 47.1855 30.1699C45.3691 30.1699 44.1035 28.9336 44.1035 27.1523C44.1035 26.1445 44.4492 25.2188 45.2812 24.0293C45.4746 23.7363 46.9453 21.7441 47.1035 21.5449H48.7148L46.5176 24.5098C46.2598 24.8613 46.2305 24.9141 46.1719 25.0371L46.2773 25.0605C46.5645 24.7324 47.1211 24.5156 47.6543 24.5156C49.1484 24.5156 50.2559 25.6641 50.2559 27.2168ZM47.1738 28.9688C48.1348 28.9688 48.8613 28.2422 48.8613 27.2754C48.8613 26.3086 48.1348 25.582 47.1738 25.582C46.2129 25.582 45.4863 26.3086 45.4863 27.2754C45.4863 28.2422 46.2129 28.9688 47.1738 28.9688Z" fill="white"/>
<rect x="16" y="52" width="288" height="1" fill="#70737C" fill-opacity="0.28"/>
<path d="M20.1719 80.7188C18.375 80.7188 17.1562 79.5938 16.7344 77.7031L18.0938 77.4219C18.4062 78.7812 19.1406 79.4062 20.1719 79.4062C21.5156 79.4062 22.4219 78.3438 22.4219 76.7031V69.1875H23.8281V76.7031C23.8281 79.1094 22.3281 80.7188 20.1719 80.7188ZM29.5781 79.4688C31.1094 79.4688 32.2031 78.2344 32.2031 76.4688C32.2031 74.7031 31.1094 73.4688 29.5781 73.4688C28.0312 73.4688 26.9531 74.7188 26.9531 76.4688C26.9531 78.2188 28.0312 79.4688 29.5781 79.4688ZM33.4531 80.5H32.1406V79.2344H32.0938C31.5391 80.1953 30.6406 80.7188 29.4531 80.7188C27.2188 80.7188 25.6094 78.8906 25.6094 76.4688C25.6094 74.0469 27.2188 72.2188 29.4531 72.2188C30.6406 72.2188 31.5391 72.7422 32.0938 73.7031H32.1406V72.4375H33.4531V80.5ZM35.5469 80.5V72.4375H36.8594V73.6094H36.9219C37.3125 72.75 38.1797 72.2188 39.3281 72.2188C41.125 72.2188 42.1094 73.4844 42.1094 75.5625V80.5H40.7969V75.75C40.7969 74.2656 40.1719 73.4688 39.0469 73.4688C37.9219 73.4688 36.8594 74.2656 36.8594 76V80.5H35.5469ZM48.0312 80.7188C45.6094 80.7188 43.8281 78.8906 43.8281 76.4688C43.8281 74.0469 45.5625 72.2188 47.875 72.2188C50.1875 72.2188 51.7969 74.0469 51.7969 76.4688L51.7812 76.9219H45.2031C45.3828 78.4688 46.5234 79.4688 48.0625 79.4688C49.1719 79.4688 49.9688 78.9453 50.375 78.0781L51.5312 78.5781C50.9141 79.875 49.6875 80.7188 48.0312 80.7188ZM45.2656 75.6406H50.3594C50.2656 74.4141 49.2656 73.4688 47.875 73.4688C46.5469 73.4688 45.5547 74.3281 45.2656 75.6406ZM60.7812 80.7188C58.6562 80.7188 57.2031 79.4219 57.2031 77.6406C57.2031 75.8828 58.6016 74.8906 59.7969 74.1562L59.4688 73.7969C58.7344 72.9688 58.4531 72.2969 58.4531 71.5469C58.4531 70.0312 59.5938 68.9688 61.2031 68.9688C62.8125 68.9688 63.9531 70.0469 63.9531 71.5625C63.9531 72.6953 63.3203 73.3438 61.75 74.375L64.375 77.3281C64.8359 76.5547 65.1094 75.6016 65.1094 74.5625H66.4844C66.4844 75.9922 66.0312 77.3047 65.2656 78.3438L67.1719 80.5H65.4219L64.3906 79.3281C63.3984 80.1953 62.1484 80.7188 60.7812 80.7188ZM58.5781 77.6406C58.5781 78.7344 59.4219 79.4219 60.7812 79.4375C61.8281 79.4453 62.7812 79.0469 63.5312 78.3594L60.625 75.0938C59.5078 75.8047 58.5781 76.5 58.5781 77.6406ZM59.8281 71.5469C59.8281 72.0156 60.0469 72.4688 60.4688 72.9375L60.9375 73.4531C62.3047 72.5469 62.5781 72.1016 62.5781 71.5625C62.5781 70.7812 62 70.25 61.2031 70.25C60.4062 70.25 59.8281 70.7812 59.8281 71.5469ZM72.7656 80.5V69.1875H74.1406V80.5H72.7656ZM76.2969 80.5V68.6875H77.6094V80.5H76.2969ZM79.7031 80.5V72.4375H81.0156V80.5H79.7031ZM80.3594 70.75C79.8594 70.75 79.4844 70.375 79.4844 69.875C79.4844 69.375 79.8594 69 80.3594 69C80.8594 69 81.2344 69.375 81.2344 69.875C81.2344 70.375 80.8594 70.75 80.3594 70.75ZM86.7031 79.4688C88.2344 79.4688 89.3281 78.2344 89.3281 76.4688C89.3281 74.7031 88.2344 73.4688 86.7031 73.4688C85.1562 73.4688 84.0781 74.7188 84.0781 76.4688C84.0781 78.2188 85.1562 79.4688 86.7031 79.4688ZM90.5781 80.5H89.2656V79.2344H89.2188C88.6641 80.1953 87.7656 80.7188 86.5781 80.7188C84.3438 80.7188 82.7344 78.8906 82.7344 76.4688C82.7344 74.0469 84.3438 72.2188 86.5781 72.2188C87.7656 72.2188 88.6641 72.7422 89.2188 73.7031H89.2656V72.4375H90.5781V80.5ZM16.9375 96.1875C17.8281 95.6562 18.7188 95 19.6562 94.1875H21V105.5H19.6562V95.9219H19.5938C18.7266 96.6094 17.8203 97.2109 16.9375 97.6719V96.1875ZM23.875 104.219C27.875 101.484 29.7031 99.3438 29.7031 97.4375C29.7031 96.0469 28.7656 95.25 27.4219 95.25C26.375 95.25 25.6094 95.7344 25.1875 97.125L23.875 96.75C24.4688 94.7969 25.7969 93.9688 27.4219 93.9688C29.4844 93.9688 31.0781 95.2969 31.0781 97.4375C31.0781 99.6406 29.2188 101.805 26.0781 104.156V104.219H31.25V105.5H23.875V104.219ZM37.125 105.719C35.25 105.719 33.875 104.766 33.0625 103.078L34.2969 102.516C34.9219 103.812 35.8594 104.438 37.125 104.438C38.6406 104.438 39.75 103.547 39.75 102.312C39.75 101 38.5 100.203 36.4375 100.203H36.0625V98.9219H36.4375C38.2344 98.9219 39.2969 98.25 39.2969 97.0938C39.2969 96.0156 38.375 95.25 37.0938 95.25C36 95.25 35.1406 95.8125 34.625 96.875L33.3906 96.3125C34.1406 94.7656 35.5 93.9688 37.0938 93.9688C39.1406 93.9688 40.6719 95.2969 40.6719 97.0625C40.6719 98.2969 39.9219 99.1406 38.5312 99.5312V99.5781C40.1797 100.023 41.125 101.016 41.125 102.406C41.125 104.297 39.4062 105.719 37.125 105.719ZM42.6875 102.953V101.672L47.0781 94.1875H48.6094L44.2969 101.562V101.672H48.2656V98.125H49.6094V101.672H51.375V102.953H49.6094V105.5H48.2656V102.953H42.6875ZM53.1406 100.703L53.7344 94.1719H60.0625V95.4531H55L54.625 99.3594H54.6875C55.2969 98.6094 56.2031 98.1562 57.25 98.1562C59.2188 98.1562 60.8125 99.7656 60.8125 101.938C60.8125 104.156 59.1562 105.719 56.8125 105.719C55.0156 105.719 53.5781 104.781 52.75 103.078L53.9844 102.516C54.6094 103.812 55.5625 104.438 56.8125 104.438C58.3906 104.438 59.4375 103.438 59.4375 101.938C59.4375 100.438 58.3906 99.4375 56.8281 99.4375C55.75 99.4375 54.9141 99.9141 54.5 100.703H53.1406ZM66.6094 105.719C63.9219 105.719 62.4375 103.547 62.4375 100.109C62.4375 96.1562 64.375 93.9688 66.9531 93.9688C68.3438 93.9688 69.5625 94.6094 70.3125 95.7031L69.1562 96.4219C68.6406 95.625 67.7969 95.25 66.9531 95.25C65.2656 95.25 63.9141 96.7422 63.8281 99.7656H63.8906C64.5234 98.7656 65.6094 98.1562 66.8906 98.1562C68.9219 98.1562 70.5 99.7188 70.5 101.938C70.5 104.172 68.8906 105.719 66.6094 105.719ZM66.6094 104.438C68.0781 104.438 69.125 103.406 69.125 101.938C69.125 100.469 68.0781 99.4375 66.6094 99.4375C65.1406 99.4375 64.0938 100.469 64.0938 101.938C64.0938 103.406 65.1406 104.438 66.6094 104.438ZM72.25 95.4688V94.1875H79.6875V95.4688C77.2812 98.4062 75.9688 101.703 75.6562 105.5H74.375C74.6562 101.789 75.8438 98.5 78.0156 95.5312V95.4688H72.25ZM85.2188 104.438C86.7812 104.438 87.875 103.562 87.875 102.312C87.875 101.062 86.7812 100.188 85.2188 100.188C83.6562 100.188 82.5625 101.062 82.5625 102.312C82.5625 103.562 83.6562 104.438 85.2188 104.438ZM85.2188 98.9375C86.3906 98.9375 87.2188 98.1719 87.2188 97.0938C87.2188 96.0156 86.3906 95.25 85.2188 95.25C84.0469 95.25 83.2188 96.0156 83.2188 97.0938C83.2188 98.1719 84.0469 98.9375 85.2188 98.9375ZM81.1875 102.375C81.1875 101.07 82.0312 99.9609 83.5625 99.5V99.4531C82.4609 99.0547 81.8594 98.2031 81.8594 97.0625C81.8594 95.2969 83.2969 93.9688 85.2188 93.9688C87.1406 93.9688 88.5781 95.2969 88.5781 97.0625C88.5781 98.2031 87.9766 99.0547 86.875 99.4531V99.5C88.4141 99.9609 89.25 101.07 89.25 102.375C89.25 104.266 87.5156 105.719 85.2188 105.719C82.9219 105.719 81.1875 104.266 81.1875 102.375ZM94.4219 105.719C93.0156 105.719 91.875 105.047 91 103.75L92.125 103.031C92.8125 104.016 93.5156 104.438 94.4219 104.438C96.1094 104.438 97.4609 102.945 97.5625 99.9219H97.5C96.8516 100.922 95.7656 101.531 94.4844 101.531C92.4531 101.531 90.875 99.9688 90.875 97.75C90.875 95.5156 92.4844 93.9688 94.7656 93.9688C97.4531 93.9688 98.9375 96.1406 98.9375 99.5781C98.9375 103.531 97 105.719 94.4219 105.719ZM94.7656 100.25C96.2344 100.25 97.2812 99.2188 97.2812 97.75C97.2812 96.2812 96.2344 95.25 94.7656 95.25C93.2969 95.25 92.25 96.2812 92.25 97.75C92.25 99.2188 93.2969 100.25 94.7656 100.25ZM104.75 105.719C102.172 105.719 100.562 103.453 100.562 99.8438C100.562 96.2344 102.172 93.9688 104.75 93.9688C107.328 93.9688 108.938 96.2344 108.938 99.8438C108.938 103.453 107.328 105.719 104.75 105.719ZM104.75 104.438C106.469 104.438 107.562 102.656 107.562 99.8438C107.562 97.0312 106.469 95.25 104.75 95.25C103.031 95.25 101.938 97.0312 101.938 99.8438C101.938 102.656 103.031 104.438 104.75 104.438Z" fill="#B0B0B0" fill-opacity="0.28"/>
<path d="M254.312 105.719C251.734 105.719 250.125 103.453 250.125 99.8438C250.125 96.2344 251.734 93.9688 254.312 93.9688C256.891 93.9688 258.5 96.2344 258.5 99.8438C258.5 103.453 256.891 105.719 254.312 105.719ZM254.312 104.438C256.031 104.438 257.125 102.656 257.125 99.8438C257.125 97.0312 256.031 95.25 254.312 95.25C252.594 95.25 251.5 97.0312 251.5 99.8438C251.5 102.656 252.594 104.438 254.312 104.438Z" fill="white"/>
<path d="M244.625 93.9688C246.844 93.9688 248.516 95.625 248.516 97.9844C248.516 99.2344 248.062 100.328 246.438 102.625L244.406 105.5H242.75L245.391 101.875C245.68 101.477 245.93 101.125 246.156 100.797L246.109 100.766C245.57 101.195 244.898 101.438 244.141 101.438C242.234 101.438 240.734 99.8594 240.734 97.8125C240.734 95.625 242.406 93.9688 244.625 93.9688ZM244.625 95.25C243.141 95.25 242.109 96.2812 242.109 97.75C242.109 99.2188 243.141 100.25 244.625 100.25C246.109 100.25 247.141 99.2188 247.141 97.75C247.141 96.2812 246.109 95.25 244.625 95.25Z" fill="#2288FF"/>
<path d="M235.094 104.438C236.656 104.438 237.75 103.562 237.75 102.312C237.75 101.062 236.656 100.188 235.094 100.188C233.531 100.188 232.438 101.062 232.438 102.312C232.438 103.562 233.531 104.438 235.094 104.438ZM235.094 98.9375C236.266 98.9375 237.094 98.1719 237.094 97.0938C237.094 96.0156 236.266 95.25 235.094 95.25C233.922 95.25 233.094 96.0156 233.094 97.0938C233.094 98.1719 233.922 98.9375 235.094 98.9375ZM231.062 102.375C231.062 101.07 231.906 99.9609 233.438 99.5V99.4531C232.336 99.0547 231.734 98.2031 231.734 97.0625C231.734 95.2969 233.172 93.9688 235.094 93.9688C237.016 93.9688 238.453 95.2969 238.453 97.0625C238.453 98.2031 237.852 99.0547 236.75 99.4531V99.5C238.289 99.9609 239.125 101.07 239.125 102.375C239.125 104.266 237.391 105.719 235.094 105.719C232.797 105.719 231.062 104.266 231.062 102.375Z" fill="white"/>
<path d="M222.969 105.5L228.031 95.5312V95.4688H222.125V94.1875H229.562V95.4688L224.469 105.5H222.969Z" fill="#2288FF"/>
<path d="M216.5 105.719C214.281 105.719 212.609 104.062 212.609 101.703C212.609 100.453 213.062 99.3594 214.688 97.0625L216.719 94.1875H218.375L215.734 97.8125C215.445 98.2109 215.195 98.5625 214.984 98.8906L215.031 98.9219C215.555 98.4922 216.227 98.25 216.984 98.25C218.891 98.25 220.391 99.8281 220.391 101.875C220.391 104.062 218.719 105.719 216.5 105.719ZM216.5 104.438C217.984 104.438 219.016 103.406 219.016 101.938C219.016 100.469 217.984 99.4375 216.5 99.4375C215.016 99.4375 213.984 100.469 213.984 101.938C213.984 103.406 215.016 104.438 216.5 104.438Z" fill="#2288FF"/>
<path d="M203.328 100.703L203.922 94.1719H210.25V95.4531H205.188L204.812 99.3594H204.875C205.484 98.6094 206.391 98.1562 207.438 98.1562C209.406 98.1562 211 99.7656 211 101.938C211 104.156 209.344 105.719 207 105.719C205.203 105.719 203.766 104.781 202.938 103.078L204.172 102.516C204.797 103.812 205.75 104.438 207 104.438C208.578 104.438 209.625 103.438 209.625 101.938C209.625 100.438 208.578 99.4375 207.016 99.4375C205.938 99.4375 205.102 99.9141 204.688 100.703H203.328Z" fill="white"/>
<path d="M192.875 102.953V101.672L197.266 94.1875H198.797L194.484 101.562V101.672H198.453V98.125H199.797V101.672H201.562V102.953H199.797V105.5H198.453V102.953H192.875Z" fill="white"/>
<path d="M187.312 105.719C185.516 105.719 184.078 104.781 183.25 103.078L184.484 102.516C185.109 103.812 186.062 104.438 187.312 104.438C188.859 104.438 189.938 103.484 189.938 102.125C189.938 100.688 188.734 99.8125 186.797 99.8125H186.141V98.6562L189.047 95.5156V95.4688H183.719V94.1875H190.875V95.4688L187.766 98.6562V98.7188C189.914 99.0234 191.312 100.359 191.312 102.188C191.312 104.203 189.609 105.719 187.312 105.719Z" fill="#2288FF"/>
<path d="M174.062 104.219C178.062 101.484 179.891 99.3438 179.891 97.4375C179.891 96.0469 178.953 95.25 177.609 95.25C176.562 95.25 175.797 95.7344 175.375 97.125L174.062 96.75C174.656 94.7969 175.984 93.9688 177.609 93.9688C179.672 93.9688 181.266 95.2969 181.266 97.4375C181.266 99.6406 179.406 101.805 176.266 104.156V104.219H181.438V105.5H174.062V104.219Z" fill="white"/>
<path d="M165.125 105.5V104.219H168.219V95.9219H168.156C167.289 96.6094 166.383 97.2109 165.5 97.6719V96.1875C166.391 95.6562 167.281 95 168.219 94.1875H169.562V104.219H172.312V105.5H165.125Z" fill="#2288FF"/>
<path d="M236.953 80.7188C235.375 80.7188 234.203 79.5938 234.203 78.1562C234.203 76.7188 235.375 75.6406 237.484 75.5312L239.641 75.4062C239.617 74.0938 239 73.4688 237.734 73.4688C236.781 73.4688 236.156 73.8125 235.703 74.625L234.531 74C235.203 72.8281 236.281 72.2188 237.734 72.2188C239.797 72.2188 240.984 73.4531 240.984 75.5V80.5H239.641V79.2344H239.578C239.031 80.1328 238.086 80.7188 236.953 80.7188ZM235.578 78.1562C235.578 78.9844 236.203 79.4688 237.312 79.4688C238.766 79.4688 239.641 78.6406 239.641 77.3438V76.5156L237.484 76.6562C236.203 76.7344 235.578 77.3281 235.578 78.1562Z" fill="#2288FF"/>
<path d="M231.047 80.5V72.4375H232.359V80.5H231.047ZM231.703 70.75C231.203 70.75 230.828 70.375 230.828 69.875C230.828 69.375 231.203 69 231.703 69C232.203 69 232.578 69.375 232.578 69.875C232.578 70.375 232.203 70.75 231.703 70.75Z" fill="white"/>
<path d="M228.766 80.7188C227.484 80.7188 226.859 79.8906 226.859 78.2188V68.6875H228.172V78.1562C228.172 79.125 228.422 79.4688 229.078 79.4688C229.219 79.4688 229.359 79.4531 229.484 79.4375V80.6406C229.25 80.6875 229.016 80.7188 228.766 80.7188Z" fill="#2288FF"/>
<path d="M219.453 70.4688V69.1875H225.078V70.4688H222.953V79.2188H225.078V80.5H219.453V79.2188H221.578V70.4688H219.453Z" fill="#2288FF"/>
<path d="M207.844 80.7188C205.719 80.7188 204.266 79.4219 204.266 77.6406C204.266 75.8828 205.664 74.8906 206.859 74.1562L206.531 73.7969C205.797 72.9688 205.516 72.2969 205.516 71.5469C205.516 70.0312 206.656 68.9688 208.266 68.9688C209.875 68.9688 211.016 70.0469 211.016 71.5625C211.016 72.6953 210.383 73.3438 208.812 74.375L211.438 77.3281C211.898 76.5547 212.172 75.6016 212.172 74.5625H213.547C213.547 75.9922 213.094 77.3047 212.328 78.3438L214.234 80.5H212.484L211.453 79.3281C210.461 80.1953 209.211 80.7188 207.844 80.7188ZM205.641 77.6406C205.641 78.7344 206.484 79.4219 207.844 79.4375C208.891 79.4453 209.844 79.0469 210.594 78.3594L207.688 75.0938C206.57 75.8047 205.641 76.5 205.641 77.6406ZM206.891 71.5469C206.891 72.0156 207.109 72.4688 207.531 72.9375L208 73.4531C209.367 72.5469 209.641 72.1016 209.641 71.5625C209.641 70.7812 209.062 70.25 208.266 70.25C207.469 70.25 206.891 70.7812 206.891 71.5469Z" fill="white"/>
<path d="M195.094 80.7188C192.672 80.7188 190.891 78.8906 190.891 76.4688C190.891 74.0469 192.625 72.2188 194.938 72.2188C197.25 72.2188 198.859 74.0469 198.859 76.4688L198.844 76.9219H192.266C192.445 78.4688 193.586 79.4688 195.125 79.4688C196.234 79.4688 197.031 78.9453 197.438 78.0781L198.594 78.5781C197.977 79.875 196.75 80.7188 195.094 80.7188ZM192.328 75.6406H197.422C197.328 74.4141 196.328 73.4688 194.938 73.4688C193.609 73.4688 192.617 74.3281 192.328 75.6406Z" fill="white"/>
<path d="M182.609 80.5V72.4375H183.922V73.6094H183.984C184.375 72.75 185.242 72.2188 186.391 72.2188C188.188 72.2188 189.172 73.4844 189.172 75.5625V80.5H187.859V75.75C187.859 74.2656 187.234 73.4688 186.109 73.4688C184.984 73.4688 183.922 74.2656 183.922 76V80.5H182.609Z" fill="white"/>
<path d="M176.484 80.7188C174.906 80.7188 173.734 79.5938 173.734 78.1562C173.734 76.7188 174.906 75.6406 177.016 75.5312L179.172 75.4062C179.148 74.0938 178.531 73.4688 177.266 73.4688C176.312 73.4688 175.688 73.8125 175.234 74.625L174.062 74C174.734 72.8281 175.812 72.2188 177.266 72.2188C179.328 72.2188 180.516 73.4531 180.516 75.5V80.5H179.172V79.2344H179.109C178.562 80.1328 177.617 80.7188 176.484 80.7188ZM175.109 78.1562C175.109 78.9844 175.734 79.4688 176.844 79.4688C178.297 79.4688 179.172 78.6406 179.172 77.3438V76.5156L177.016 76.6562C175.734 76.7344 175.109 77.3281 175.109 78.1562Z" fill="#2288FF"/>
<path d="M168.172 80.7188C166.375 80.7188 165.156 79.5938 164.734 77.7031L166.094 77.4219C166.406 78.7812 167.141 79.4062 168.172 79.4062C169.516 79.4062 170.422 78.3438 170.422 76.7031V70.5H166.672V69.1875H171.828V76.7031C171.828 79.1094 170.328 80.7188 168.172 80.7188Z" fill="#2288FF"/>
</svg>
