<svg width="1012" height="318" viewBox="0 0 1012 318" fill="none" xmlns="http://www.w3.org/2000/svg">
<path d="M43.0898 58L42.2422 55.5938H38.25L37.4023 58H35.4746L39.2754 48.1016H41.2031L45.0039 58H43.0898ZM38.8379 53.9531H41.668L40.2734 50.043H40.2051L38.8379 53.9531ZM46.166 60.9531V50.9453H47.834V51.957H47.9023C48.3535 51.1572 49.085 50.7539 50.0488 50.7539C51.9902 50.7539 53.3711 52.3535 53.3711 54.4727C53.3711 56.5918 51.9902 58.1914 50.0488 58.1914C49.085 58.1914 48.3535 57.7881 47.9023 56.9883H47.834V60.9531H46.166ZM49.7207 56.6465C50.876 56.6396 51.6758 55.7373 51.6758 54.4727C51.6758 53.208 50.876 52.3057 49.7207 52.2988C48.5996 52.3057 47.7861 53.1943 47.7793 54.4727C47.7861 55.751 48.5996 56.6396 49.7207 56.6465ZM54.752 60.9531V50.9453H56.4199V51.957H56.4883C56.9395 51.1572 57.6709 50.7539 58.6348 50.7539C60.5762 50.7539 61.957 52.3535 61.957 54.4727C61.957 56.5918 60.5762 58.1914 58.6348 58.1914C57.6709 58.1914 56.9395 57.7881 56.4883 56.9883H56.4199V60.9531H54.752ZM58.3066 56.6465C59.4619 56.6396 60.2617 55.7373 60.2617 54.4727C60.2617 53.208 59.4619 52.3057 58.3066 52.2988C57.1855 52.3057 56.3721 53.1943 56.3652 54.4727C56.3721 55.751 57.1855 56.6396 58.3066 56.6465ZM63.3379 58V48.1016H65.0059V58H63.3379ZM70.1602 58.1914C67.9248 58.1914 66.3799 56.6055 66.373 54.4727C66.3799 52.3125 67.9248 50.7539 70.0234 50.7539C72.1221 50.7539 73.5713 52.3125 73.5645 54.4727C73.5713 54.6572 73.5576 54.8418 73.5371 55.0195H68.082C68.2393 56.0859 69.0732 56.7695 70.1738 56.7695C70.9805 56.7695 71.5615 56.3936 71.8555 55.7715L73.3184 56.3457C72.7578 57.4736 71.6572 58.1914 70.1602 58.1914ZM68.123 53.666H71.8281C71.7324 52.8184 71.0283 52.1758 70.0234 52.1758C69.0664 52.1758 68.3418 52.7637 68.123 53.666ZM81.6855 58.1914C80.2568 58.1914 79.0332 57.6309 78.0762 56.5234L79.293 55.3613C79.9902 56.1748 80.7354 56.5303 81.6855 56.5371C82.7998 56.5303 83.4834 56.0107 83.4902 55.1426C83.4834 54.4521 83.0391 54.0898 81.7129 53.7207L81.2344 53.5977C79.3545 53.0986 78.4385 52.1895 78.4316 50.8359C78.4385 49.1543 79.8604 47.9102 81.8086 47.9102C83.1074 47.9102 84.3174 48.4912 85.1719 49.5098L83.9688 50.6582C83.3535 49.9404 82.6221 49.5713 81.8086 49.5645C80.8584 49.5713 80.2021 50.0771 80.209 50.8223C80.2021 51.4033 80.5918 51.7041 81.6855 51.998L82.1504 52.1211C84.2969 52.7021 85.2539 53.625 85.2539 55.1152C85.2539 56.9404 83.7979 58.1914 81.6855 58.1914ZM86.7578 58V48.1016H89.6426C92.9033 48.1016 95.043 50.0566 95.0566 53.0508C95.043 56.0449 92.9033 58 89.6426 58H86.7578ZM88.5078 56.3594H89.6426C91.9258 56.3594 93.2793 55.1357 93.2793 53.0508C93.2793 50.9658 91.9258 49.7422 89.6426 49.7422H88.5078V56.3594ZM103.902 49.0449C103.896 50.6445 104.894 52.1963 106.828 52.8457L106.049 54.0488C104.675 53.584 103.697 52.6406 103.164 51.4512C102.61 52.7637 101.599 53.7891 100.143 54.3086L99.3086 53.1055C101.346 52.4355 102.351 50.7676 102.357 49.0176V47.6094H103.902V49.0449ZM109.193 46.8574V50.5215H110.93V51.7793H109.193V55.9219H107.662V46.8574H109.193ZM109.686 57.7266V58.9707H101.291V55.0469H102.836V57.7266H109.686ZM121.498 49.8516V51.0684H117.943V51.9844H122.811V53.2148H111.545V51.9844H116.412V51.0684H112.994V47.2949H121.375V48.5254H114.512V49.8516H121.498ZM121.416 53.9941V57.0293H114.402V57.9316H121.758V59.0938H112.885V55.9492H119.898V55.1562H112.857V53.9941H121.416ZM133.734 47.9785V49.168C133.734 50.7061 133.734 52.4355 133.256 55.0195L131.725 54.8418C132.189 52.4424 132.196 50.6992 132.203 49.2227H124.82V47.9785H133.734ZM134.924 56.373V57.6309H123.658V56.373H127.787V52.0801H129.332V56.373H134.924ZM142.361 47.8418V49.0859H138V52.3125C140.516 52.3057 141.896 52.2236 143.469 51.9297L143.605 53.1465C141.91 53.4814 140.427 53.543 137.535 53.543H136.482V47.8418H142.361ZM146.053 54.8008V59.2031H144.508V56.0312H137.617V54.8008H146.053ZM146.053 46.8848V54.1855H144.508V46.8848H146.053ZM151.795 58V48.1016H153.791L158.48 55.2246H158.535V48.1016H160.285V58H158.316L153.613 50.8359H153.545V58H151.795ZM165.494 58.1914C163.259 58.1914 161.714 56.6055 161.707 54.4727C161.714 52.3125 163.259 50.7539 165.357 50.7539C167.456 50.7539 168.905 52.3125 168.898 54.4727C168.905 54.6572 168.892 54.8418 168.871 55.0195H163.416C163.573 56.0859 164.407 56.7695 165.508 56.7695C166.314 56.7695 166.896 56.3936 167.189 55.7715L168.652 56.3457C168.092 57.4736 166.991 58.1914 165.494 58.1914ZM163.457 53.666H167.162C167.066 52.8184 166.362 52.1758 165.357 52.1758C164.4 52.1758 163.676 52.7637 163.457 53.666ZM173.615 58.1914C171.517 58.1914 169.931 56.5918 169.924 54.4727C169.931 52.3535 171.517 50.7539 173.615 50.7539C175.714 50.7539 177.3 52.3535 177.307 54.4727C177.3 56.5918 175.714 58.1914 173.615 58.1914ZM173.615 56.6465C174.812 56.6396 175.659 55.751 175.666 54.4727C175.659 53.1943 174.812 52.3057 173.615 52.2988C172.419 52.3057 171.571 53.1943 171.564 54.4727C171.571 55.751 172.419 56.6396 173.615 56.6465Z" fill="black"/>
<path d="M78.5765 95.512H68.4005V91.48H78.5765V83.544H83.4405V124.184H78.5765V109.848H68.4005V105.816H78.5765V95.512ZM84.6565 137.624H47.2805V120.6H52.1445V133.592H84.6565V137.624ZM52.5925 87.32C60.7845 87.32 67.1205 93.016 67.1205 101.336C67.1205 109.656 60.8485 115.224 52.6565 115.224C44.4005 115.224 38.0645 109.72 38.0645 101.336C38.0645 93.08 44.4005 87.32 52.5925 87.32ZM52.5925 91.608C47.0245 91.608 42.8645 95.64 42.8645 101.336C42.8645 106.968 47.0885 110.936 52.6565 110.936C58.4165 110.936 62.3845 106.968 62.3845 101.336C62.3845 95.64 58.4165 91.608 52.5925 91.608ZM137.28 106.84H120.704V112.856H143.616V116.888H93.1195V112.856H115.84V106.84H99.4555V85.464H104.32V92.376H132.416V85.464H137.28V106.84ZM137.984 129.816C137.984 135.96 130.88 139.416 118.336 139.416C105.856 139.416 98.8155 135.896 98.8155 129.816C98.8155 123.864 105.856 120.28 118.336 120.28C130.88 120.28 137.984 123.608 137.984 129.816ZM118.336 124.184C109.312 124.184 103.744 126.232 103.744 129.816C103.744 133.528 109.312 135.512 118.336 135.512C127.424 135.512 133.056 133.528 133.056 129.816C133.056 126.232 127.424 124.184 118.336 124.184ZM132.416 102.808V96.408H104.32V102.808H132.416ZM198.991 111.832H148.495V107.736H198.991V111.832ZM193.359 94.04C193.359 100.184 185.935 103.704 173.775 103.704C161.743 103.704 154.319 100.184 154.319 94.04C154.319 87.896 161.743 84.312 173.775 84.312C185.935 84.312 193.359 87.896 193.359 94.04ZM173.775 88.28C165.007 88.28 159.311 90.52 159.311 94.04C159.311 97.496 165.007 99.672 173.775 99.672C182.671 99.672 188.431 97.496 188.431 94.04C188.431 90.52 182.671 88.28 173.775 88.28ZM194.511 138.968H154.383V125.656H187.791V120.728H154.255V116.824H192.655V129.368H159.247V135H194.511V138.968ZM248.222 101.464H231.518V109.208H254.366V113.304H203.87V109.208H226.654V101.464H210.91V84.504H215.774V97.432H248.222V101.464ZM249.118 138.584H208.99V134.552H218.142L216.99 125.72L221.918 124.952L222.814 134.552H234.974L236.638 125.08L241.374 125.976L239.582 134.552H249.118V138.584ZM248.606 122.968H209.502V118.936H248.606V122.968ZM305.261 139.48H300.397V83.544H305.261V139.48ZM261.101 107.48C261.101 95.704 266.349 87.768 275.501 87.768C284.781 87.768 289.965 95.704 289.965 107.544C289.965 119.384 284.781 127.32 275.501 127.32C266.349 127.32 261.101 119.384 261.101 107.48ZM285.357 107.544C285.357 98.328 281.453 91.992 275.501 91.992C269.613 91.992 265.709 98.328 265.709 107.544C265.709 116.696 269.613 123.096 275.501 123.096C281.453 123.096 285.357 116.696 285.357 107.544ZM344.06 120.536L344.636 124.568C338.748 125.528 330.428 126.232 321.02 126.232H316.476V104.344H336.316V92.76H316.476V88.728H341.18V108.44H321.34V122.072C328.06 122.072 337.02 121.752 344.06 120.536ZM344.892 116.312V112.216H355.388V101.4H344.892V97.304H355.388V83.544H360.252V139.48H355.388V116.312H344.892ZM410.827 97.304H400.395V93.272H410.827V83.544H415.691V124.184H410.827V109.656H400.395V105.624H410.827V97.304ZM416.907 137.624H379.659V120.472H384.523V133.528H416.907V137.624ZM398.027 114.648H372.491V88.536H398.027V114.648ZM393.099 110.68V92.568H377.355V110.68H393.099ZM426.074 107.224C426.074 95.384 431.194 87.448 440.218 87.448C448.666 87.448 453.594 94.424 454.234 105.048H466.202V83.544H471.066V139.48H466.202V109.208H454.234C453.722 119.96 448.73 127 440.218 127C431.194 127 426.074 119.128 426.074 107.224ZM449.498 107.288C449.498 98.072 445.722 91.672 440.218 91.672C434.65 91.672 430.938 98.072 430.938 107.288C430.938 116.376 434.65 122.776 440.218 122.776C445.722 122.776 449.498 116.376 449.498 107.288ZM517.929 107.416C513.513 108.376 506.537 108.952 499.625 108.952V86.616H514.921V90.648H504.425V104.856C508.585 104.856 514.025 104.344 517.289 103.576L517.929 107.416ZM497.641 107.416C493.801 108.44 488.617 108.952 482.409 108.952V86.616H496.105V90.648H487.209V104.856C490.025 104.792 493.673 104.536 497.001 103.576L497.641 107.416ZM527.145 113.88H522.345V98.904H512.425V95.128H522.345V83.544H527.145V113.88ZM516.969 117.016H499.753V112.856H516.969V117.016ZM527.913 123.672H488.809V119.704H527.913V123.672ZM523.561 132.824C523.561 137.112 519.401 140.184 508.393 140.184C497.385 140.184 493.161 137.112 493.161 132.824C493.161 128.536 497.321 125.464 508.393 125.464C519.593 125.464 523.561 128.536 523.561 132.824ZM518.441 132.824C518.441 130.328 514.921 129.304 508.393 129.304C502.057 129.304 498.409 130.328 498.409 132.824C498.409 135.384 501.929 136.408 508.393 136.408C514.793 136.408 518.441 135.384 518.441 132.824ZM583.288 139.48H578.488V83.544H583.288V139.48ZM572.408 136.664H567.736V109.4H558.328V105.304H567.736V84.888H572.408V136.664ZM559.736 90.072C559.352 106.712 552.056 119 538.872 127.512L535.544 123.928C547.256 117.336 554.168 105.56 554.744 94.168H537.72V90.072H559.736ZM592.199 107.224C592.199 95.384 597.319 87.448 606.343 87.448C614.791 87.448 619.719 94.424 620.359 105.048H632.327V83.544H637.191V139.48H632.327V109.208H620.359C619.847 119.96 614.855 127 606.343 127C597.319 127 592.199 119.128 592.199 107.224ZM615.623 107.288C615.623 98.072 611.847 91.672 606.343 91.672C600.775 91.672 597.062 98.072 597.062 107.288C597.062 116.376 600.775 122.776 606.343 122.776C611.847 122.776 615.623 116.376 615.623 107.288ZM694.678 139.096H656.79V125.208H687.766V119.704H656.598V115.736H692.63V128.92H661.654V135.064H694.678V139.096ZM682.262 105.56L682.71 109.336C678.614 109.976 672.022 110.424 665.878 110.808C659.734 111.128 653.398 111.32 648.406 111.32L647.702 107.16C650.198 107.16 652.885 107.16 655.446 107.096L654.038 94.424L658.966 93.848L659.862 107.032C662.294 106.968 664.662 106.84 666.966 106.712C667.414 106.712 667.926 106.712 668.438 106.648L669.398 93.72L674.198 94.296L672.79 106.456C676.757 106.264 680.086 105.944 682.262 105.56ZM692.566 112.984H687.702V83.544H692.566V112.984ZM679.638 91.16H649.238V87.192H679.638V91.16ZM749.413 139.48H744.613V110.488H737.893V136.664H733.157V84.888H737.893V106.392H744.613V83.544H749.413V139.48ZM728.933 115.608C728.933 122.328 723.941 126.744 716.708 126.744C709.541 126.744 704.485 122.008 704.485 115.608C704.485 108.824 709.541 104.408 716.708 104.408C723.941 104.408 728.933 108.888 728.933 115.608ZM724.261 115.608C724.261 111.32 721.125 108.504 716.708 108.504C712.293 108.504 709.22 111.32 709.22 115.608C709.22 119.96 712.293 122.712 716.708 122.712C721.125 122.712 724.261 119.832 724.261 115.608ZM729.957 101.208H702.117V97.176H729.957V101.208ZM723.941 92.056H708.645V87.832H723.941V92.056ZM758.388 107.48C758.388 95.704 763.635 87.768 772.724 87.768C781.812 87.768 786.996 95.704 786.996 107.544C786.996 119.384 781.812 127.32 772.724 127.32C763.635 127.32 758.388 119.384 758.388 107.48ZM782.26 107.544C782.26 98.328 778.548 91.992 772.724 91.992C766.9 91.992 763.124 98.328 763.124 107.544C763.124 116.696 766.9 123.096 772.724 123.096C778.548 123.096 782.26 116.696 782.26 107.544ZM809.716 97.624V101.72H799.924V114.712H809.716V118.808H799.924V139.48H795.06V83.544H799.924V97.624H809.716ZM864.515 102.424H856.003V115.352H851.139V83.544H856.003V98.328H864.515V102.424ZM858.115 139.16H820.803V126.68H851.139V121.944H820.547V118.232H856.003V130.264H825.667V135.384H858.115V139.16ZM837.187 88.6H821.059V84.504H837.187V88.6ZM845.571 96.152H812.739V92.184H845.571V96.152ZM842.307 106.776C842.307 112.28 836.803 115.288 829.123 115.288C821.827 115.288 816.003 112.28 816.003 106.776C816.003 101.336 821.699 98.328 829.123 98.328C836.611 98.328 842.307 101.336 842.307 106.776ZM837.635 106.776C837.635 103.64 833.539 102.104 829.123 102.104C824.707 102.104 820.675 103.64 820.675 106.776C820.675 109.912 824.771 111.512 829.123 111.512C833.539 111.512 837.635 109.912 837.635 106.776ZM912.21 83.544V106.84H920.722V110.936H912.21V139.48H907.41V83.544H912.21ZM884.498 89.688C884.498 103.768 879.89 116.76 870.546 126.68L866.578 123.8C874.898 116.312 879.442 103 879.57 93.784H869.458V89.688H884.498ZM899.729 89.688C899.729 104.536 896.658 118.168 886.61 130.136L882.514 127.384C891.73 118.168 894.93 102.36 894.93 93.784H887.058V89.688H899.729ZM969.121 101.784C969.121 110.424 961.057 116.184 948.897 116.184C936.865 116.184 928.801 110.424 928.801 101.784C928.801 93.144 936.865 87.256 948.897 87.256C961.121 87.256 969.121 93.144 969.121 101.784ZM964.449 101.784C964.449 95.512 958.305 91.288 948.897 91.288C939.617 91.288 933.473 95.512 933.473 101.784C933.473 108.056 939.617 112.28 948.897 112.28C958.241 112.28 964.449 108.056 964.449 101.784ZM974.241 132.376H923.745V128.28H936.225V117.848L941.089 117.72V128.28H956.705V117.72L961.569 117.848V128.28H974.241V132.376Z" fill="black"/>
<path d="M39.2363 193L36.0645 183.102H37.9375L40.2207 190.73H40.2754L42.3535 183.102H44.0352L46.1133 190.73H46.1816L48.4375 183.102H50.3242L47.1523 193H45.1562L43.2148 186.232H43.1602L41.2324 193H39.2363ZM53.6738 191.646C54.8018 191.64 55.6152 190.751 55.6152 189.473C55.6152 188.194 54.8018 187.306 53.6738 187.299C52.5254 187.306 51.7256 188.208 51.7188 189.473C51.7256 190.737 52.5254 191.64 53.6738 191.646ZM57.2422 193H55.5605V191.988H55.5059C55.0479 192.788 54.3096 193.191 53.3457 193.191C51.4111 193.191 50.0303 191.592 50.0234 189.473C50.0303 187.354 51.4111 185.754 53.3457 185.754C54.3096 185.754 55.0479 186.157 55.5059 186.957H55.5605V185.945H57.2422V193ZM58.9648 193V185.945H60.6328V186.984H60.6875C61.0566 186.226 61.8359 185.754 62.834 185.754C64.4336 185.754 65.3428 186.902 65.3359 188.775V193H63.6543V189.049C63.668 187.928 63.1621 187.306 62.2734 187.299C61.3984 187.306 60.6396 187.928 60.6328 189.336V193H58.9648ZM66.3203 187.271V185.945H67.4961V184.195H69.1777V185.945H70.8594V187.271H69.1777V190.566C69.1777 191.277 69.4717 191.585 70.1348 191.592C70.3604 191.585 70.5996 191.551 70.8594 191.482V193.014C70.5723 193.116 70.2236 193.191 69.8203 193.191C68.3506 193.191 67.5029 192.262 67.4961 190.662V187.271H66.3203ZM75.6309 193.191C73.3955 193.191 71.8506 191.605 71.8438 189.473C71.8506 187.312 73.3955 185.754 75.4941 185.754C77.5928 185.754 79.042 187.312 79.0352 189.473C79.042 189.657 79.0283 189.842 79.0078 190.02H73.5527C73.71 191.086 74.5439 191.77 75.6445 191.77C76.4512 191.77 77.0322 191.394 77.3262 190.771L78.7891 191.346C78.2285 192.474 77.1279 193.191 75.6309 193.191ZM73.5938 188.666H77.2988C77.2031 187.818 76.499 187.176 75.4941 187.176C74.5371 187.176 73.8125 187.764 73.5938 188.666ZM87.2656 193H85.5977V191.988H85.543C85.085 192.788 84.3467 193.191 83.3828 193.191C81.4482 193.191 80.0674 191.592 80.0605 189.473C80.0674 187.354 81.4482 185.754 83.3828 185.754C84.3467 185.754 85.085 186.157 85.543 186.957H85.5977V183.102H87.2656V193ZM83.7109 191.646C84.8389 191.64 85.6523 190.751 85.6523 189.473C85.6523 188.194 84.8389 187.306 83.7109 187.299C82.5625 187.306 81.7627 188.208 81.7559 189.473C81.7627 190.737 82.5625 191.64 83.7109 191.646ZM95.7422 193.191C94.3135 193.191 93.0898 192.631 92.1328 191.523L93.3496 190.361C94.0469 191.175 94.792 191.53 95.7422 191.537C96.8564 191.53 97.54 191.011 97.5469 190.143C97.54 189.452 97.0957 189.09 95.7695 188.721L95.291 188.598C93.4111 188.099 92.4951 187.189 92.4883 185.836C92.4951 184.154 93.917 182.91 95.8652 182.91C97.1641 182.91 98.374 183.491 99.2285 184.51L98.0254 185.658C97.4102 184.94 96.6787 184.571 95.8652 184.564C94.915 184.571 94.2588 185.077 94.2656 185.822C94.2588 186.403 94.6484 186.704 95.7422 186.998L96.207 187.121C98.3535 187.702 99.3105 188.625 99.3105 190.115C99.3105 191.94 97.8545 193.191 95.7422 193.191ZM104.055 191.646C105.183 191.64 105.996 190.751 105.996 189.473C105.996 188.194 105.183 187.306 104.055 187.299C102.906 187.306 102.106 188.208 102.1 189.473C102.106 190.737 102.906 191.64 104.055 191.646ZM107.623 193H105.941V191.988H105.887C105.429 192.788 104.69 193.191 103.727 193.191C101.792 193.191 100.411 191.592 100.404 189.473C100.411 187.354 101.792 185.754 103.727 185.754C104.69 185.754 105.429 186.157 105.887 186.957H105.941V185.945H107.623V193ZM109.346 193V185.945H111.014V186.984H111.068C111.438 186.226 112.217 185.754 113.215 185.754C114.814 185.754 115.724 186.902 115.717 188.775V193H114.035V189.049C114.049 187.928 113.543 187.306 112.654 187.299C111.779 187.306 111.021 187.928 111.014 189.336V193H109.346ZM119.805 193.191C118.663 193.191 117.679 192.774 117.002 191.988L118.041 190.977C118.574 191.537 119.094 191.77 119.832 191.77C120.639 191.77 121.097 191.462 121.09 190.949C121.097 190.519 120.796 190.32 119.846 190.088L119.49 189.992C117.986 189.637 117.241 188.96 117.248 187.955C117.241 186.69 118.41 185.754 119.969 185.754C120.987 185.754 121.931 186.171 122.607 186.902L121.582 187.914C121.117 187.422 120.598 187.176 119.969 187.176C119.292 187.176 118.841 187.47 118.848 187.914C118.841 188.249 119.08 188.406 119.859 188.598L120.229 188.693C121.931 189.104 122.703 189.794 122.703 190.908C122.703 192.262 121.534 193.191 119.805 193.191Z" fill="black"/>
<path d="M84.1562 219.625V260.625H79.1562V245.625H64.8438C62.25 248.875 58.1562 250.844 53.3438 250.812C45.0625 250.844 38.9375 245.125 38.9688 237C38.9375 228.875 45.0625 223.125 53.3438 223.125C58.0938 223.125 62.1562 225.062 64.7812 228.25H79.1562V219.625H84.1562ZM85.6562 269.75V273.812H48.4062V256.375H53.3438V269.75H85.6562ZM53.3438 227.438C47.7812 227.469 43.625 231.438 43.6562 237C43.625 242.562 47.7812 246.531 53.3438 246.5C58.9062 246.531 63.0312 242.562 63.0312 237C63.0312 231.438 58.9062 227.469 53.3438 227.438ZM66.9688 232.312C67.4688 233.75 67.7188 235.312 67.7188 237C67.7188 238.625 67.4688 240.156 67.0312 241.562H79.1562V232.312H66.9688ZM144.031 247.375V251.438H93.4062V247.375H116.281V241.438H100.156V220.938H104.969V227.188H132.469V220.938H137.406V241.438H121.156V247.375H144.031ZM118.656 255.562C130.625 255.594 137.781 259.094 137.781 265.25C137.781 271.469 130.625 274.938 118.656 274.938C106.688 274.938 99.5 271.469 99.5312 265.25C99.5 259.094 106.656 255.594 118.656 255.562ZM118.656 259.375C109.812 259.406 104.5 261.531 104.531 265.25C104.5 269 109.719 271.156 118.656 271.125C127.562 271.156 132.812 269 132.844 265.25C132.812 261.531 127.5 259.406 118.656 259.375ZM104.969 237.438H132.469V231.062H104.969V237.438ZM173.969 220.5C186.312 220.5 193.656 223.938 193.656 230.125C193.656 236.312 186.312 239.781 173.969 239.75C161.656 239.781 154.312 236.312 154.344 230.125C154.312 223.938 161.656 220.5 173.969 220.5ZM173.969 224.25C164.75 224.25 159.375 226.406 159.406 230.125C159.375 233.875 164.75 236.031 173.969 236C183.219 236.031 188.594 233.875 188.594 230.125C188.594 226.406 183.219 224.25 173.969 224.25ZM199.344 243.562V247.5H148.719V243.562H199.344ZM192.844 252.375V264.75H159.844V270.562H194.469V274.375H154.969V261.125H187.969V256.125H154.844V252.375H192.844ZM248.969 233.812V237.812H231.781V244.875H254.656V248.875H204.031V244.875H226.906V237.812H210.969V220.75H215.844V233.812H248.969ZM249.094 254.5V258.5H240.469V270.312H249.594V274.312H209.219V270.312H218.281V258.5H209.719V254.5H249.094ZM223.156 270.312H235.594V258.5H223.156V270.312ZM305.094 219.5V275.125H300.219V219.5H305.094ZM275.594 223.812C283.875 223.844 289.781 231.406 289.781 243.125C289.781 254.938 283.875 262.5 275.594 262.5C267.344 262.5 261.406 254.938 261.406 243.125C261.406 231.406 267.344 223.844 275.594 223.812ZM275.594 228.25C270 228.25 266.156 234.156 266.156 243.125C266.156 252.219 270 258.125 275.594 258.125C281.188 258.125 285.062 252.219 285.094 243.125C285.062 234.156 281.188 228.25 275.594 228.25ZM360.656 219.5V275.125H355.781V251.438H344.219V247.375H355.781V236.312H344.594V232.25H355.781V219.5H360.656ZM341.031 224.562V244.312H321.594V258C329.906 258 336.906 257.719 345.344 256.375L345.781 260.5C336.906 261.875 329.844 262.188 320.906 262.188H316.781V240.312H336.219V228.688H316.594V224.562H341.031ZM398.031 224.375V229.375H411.031V219.625H416.031V260.062H411.031V245.312H398.031V250.312H372.594V224.375H398.031ZM377.344 228.375V246.312H393.281V228.375H377.344ZM417.344 269.75V273.812H380.031V256.5H384.969V269.75H417.344ZM398.031 241.25H411.031V233.438H398.031V241.25ZM440.156 223.812C447.75 223.844 453.25 230.406 454.031 240.75H466.469V219.5H471.344V275.125H466.469V244.75H454.094C453.531 255.625 447.938 262.5 440.156 262.5C432.031 262.5 426.281 254.938 426.281 243.125C426.281 231.406 432.031 223.844 440.156 223.812ZM440.156 228.25C434.719 228.25 430.938 234.156 430.969 243.125C430.938 252.219 434.719 258.125 440.156 258.125C445.656 258.125 449.438 252.219 449.469 243.125C449.438 234.156 445.656 228.25 440.156 228.25ZM528.156 252.625V256.5H488.344V252.625H505.844V247.25H510.781V252.625H528.156ZM508.219 259.125C518.188 259.156 524 261.969 524.031 267.062C524 272.219 518.188 275 508.219 275C498.281 275 492.406 272.219 492.406 267.062C492.406 261.969 498.281 259.156 508.219 259.125ZM508.219 262.625C501.531 262.656 497.594 264.25 497.594 267.062C497.594 269.906 501.562 271.5 508.219 271.5C514.938 271.5 518.875 269.906 518.906 267.062C518.875 264.25 514.938 262.656 508.219 262.625ZM496.094 222.25V226.188H486.969V241.062C489.781 241.031 493.094 240.781 496.844 239.938L497.344 243.938C492.094 245.031 488.031 245.094 484.531 245.062H482.094V222.25H496.094ZM514.719 222.25V226.188H504.094V241.125C508.938 241.062 512.562 240.844 516.844 239.875L517.344 243.812C512.219 244.969 508.25 245.094 502.031 245.062H499.281V222.25H514.719ZM527.219 219.562V249.062H522.281V234.938H512.094V231.062H522.281V219.562H527.219ZM583.469 219.562V275.062H578.719V219.562H583.469ZM571.719 220.938V272.188H567.094V246.25H555.344C552 252.719 546.625 258.438 538.844 263L535.969 259.5C548.031 252.344 554.094 242.281 555.031 230.625H538.344V226.562H559.906C559.906 232.062 559.031 237.375 557.156 242.312H567.094V220.938H571.719ZM606.094 223.812C613.688 223.844 619.188 230.406 619.969 240.75H632.406V219.5H637.281V275.125H632.406V244.75H620.031C619.469 255.625 613.875 262.5 606.094 262.5C597.969 262.5 592.219 254.938 592.219 243.125C592.219 231.406 597.969 223.844 606.094 223.812ZM606.094 228.25C600.656 228.25 596.875 234.156 596.906 243.125C596.875 252.219 600.656 258.125 606.094 258.125C611.594 258.125 615.375 252.219 615.406 243.125C615.375 234.156 611.594 228.25 606.094 228.25ZM692.469 219.562V248.312H687.531V219.562H692.469ZM692.469 251.062V264.312H661.031V270.438H694.594V274.375H656.219V260.625H687.594V255H656.031V251.062H692.469ZM679.094 223.312V227.25H673.469V241.438C676.344 241.281 679.188 241 681.844 240.688L682.094 244.312C670.938 245.969 657.875 246.375 648.094 246.375L647.469 242.312L654.656 242.25V227.25H649.031V223.312H679.094ZM659.406 242.125L668.719 241.75V227.25H659.406V242.125ZM729.594 229.062V233.125H701.719V229.062H713.281V221.125H718.156V229.062H729.594ZM715.656 236.875C722.656 236.906 727.688 242.125 727.719 249.5C727.688 256.969 722.656 262.156 715.656 262.125C708.719 262.156 703.688 256.969 703.719 249.5C703.688 242.125 708.719 236.906 715.656 236.875ZM715.656 241.062C711.25 241.062 708.094 244.594 708.094 249.5C708.094 254.5 711.25 258 715.656 258C720.094 258 723.312 254.5 723.344 249.5C723.312 244.594 720.094 241.062 715.656 241.062ZM749.219 219.562V275.062H744.531V247H737.094V272.312H732.469V220.75H737.094V242.938H744.531V219.562H749.219ZM772.031 223.812C780.219 223.844 786.062 231.406 786.094 243.125C786.062 254.938 780.219 262.5 772.031 262.5C763.812 262.5 758 254.938 758.031 243.125C758 231.406 763.812 223.844 772.031 223.812ZM772.031 228.25C766.469 228.25 762.688 234.156 762.719 243.125C762.688 252.219 766.469 258.125 772.031 258.125C777.531 258.125 781.344 252.219 781.344 243.125C781.344 234.156 777.531 228.25 772.031 228.25ZM809.156 233.5V237.688H800.156V250.062H809.156V254.188H800.156V275.062H795.219V219.562H800.156V233.5H809.156ZM855.906 219.312V232.75H864.281V236.938H855.906V250.062H850.969V219.312H855.906ZM855.906 252.875V265.25H825.406V270.625H857.969V274.375H820.594V261.625H851.094V256.625H820.406V252.875H855.906ZM845.719 224.562V228.438H812.656V224.562H826.719V218.938H831.656V224.562H845.719ZM829.156 231C837.219 231 842.531 234.5 842.531 240.062C842.531 245.719 837.219 249.188 829.156 249.188C821.031 249.188 815.75 245.719 815.781 240.062C815.75 234.5 821.031 231 829.156 231ZM829.156 234.625C823.875 234.656 820.406 236.75 820.406 240.062C820.406 243.438 823.875 245.562 829.156 245.562C834.375 245.562 837.844 243.438 837.844 240.062C837.844 236.75 834.375 234.656 829.156 234.625ZM911.719 219.562V242.438H920.219V246.562H911.719V275.062H906.844V219.562H911.719ZM884.594 225.562C884.562 238.781 881.594 251.844 871.531 262.5L867.594 259.688C875.969 251.125 879.375 240.781 879.969 229.625H869.344V225.562H884.594ZM899.906 225.562C899.875 238.781 897.875 254.125 887.531 266.188L883.531 263.438C892.188 253.625 894.812 241.281 895.219 229.625H886.406V225.562H899.906ZM973.906 263.812V267.938H923.094V263.812H935.594V248.75C930.906 246.312 928.031 242.312 928.031 237.312C928.031 228.688 936.562 223.094 948.344 223.062C960.25 223.094 968.688 228.688 968.719 237.312C968.688 242.312 965.875 246.281 961.219 248.75V263.812H973.906ZM948.344 227C939.312 227 932.781 231.094 932.781 237.312C932.781 243.562 939.312 247.656 948.344 247.625C957.438 247.656 963.938 243.562 963.969 237.312C963.938 231.094 957.438 227 948.344 227ZM940.469 263.812H956.344V250.562C953.938 251.219 951.25 251.562 948.344 251.562C945.5 251.562 942.844 251.25 940.469 250.625V263.812Z" fill="black"/>
</svg>
