<svg width="1012" height="318" viewBox="0 0 1012 318" fill="none" xmlns="http://www.w3.org/2000/svg">
<path d="M38.7363 58L35.5645 48.1016H37.4375L39.7207 55.7305H39.7754L41.8535 48.1016H43.5352L45.6133 55.7305H45.6816L47.9375 48.1016H49.8242L46.6523 58H44.6562L42.7148 51.2324H42.6602L40.7324 58H38.7363ZM53.1738 56.6465C54.3018 56.6396 55.1152 55.751 55.1152 54.4727C55.1152 53.1943 54.3018 52.3057 53.1738 52.2988C52.0254 52.3057 51.2256 53.208 51.2188 54.4727C51.2256 55.7373 52.0254 56.6396 53.1738 56.6465ZM56.7422 58H55.0605V56.9883H55.0059C54.5479 57.7881 53.8096 58.1914 52.8457 58.1914C50.9111 58.1914 49.5303 56.5918 49.5234 54.4727C49.5303 52.3535 50.9111 50.7539 52.8457 50.7539C53.8096 50.7539 54.5479 51.1572 55.0059 51.957H55.0605V50.9453H56.7422V58ZM58.4648 58V50.9453H60.1328V51.9844H60.1875C60.5566 51.2256 61.3359 50.7539 62.334 50.7539C63.9336 50.7539 64.8428 51.9023 64.8359 53.7754V58H63.1543V54.0488C63.168 52.9277 62.6621 52.3057 61.7734 52.2988C60.8984 52.3057 60.1396 52.9277 60.1328 54.3359V58H58.4648ZM65.8203 52.2715V50.9453H66.9961V49.1953H68.6777V50.9453H70.3594V52.2715H68.6777V55.5664C68.6777 56.2773 68.9717 56.585 69.6348 56.5918C69.8604 56.585 70.0996 56.5508 70.3594 56.4824V58.0137C70.0723 58.1162 69.7236 58.1914 69.3203 58.1914C67.8506 58.1914 67.0029 57.2617 66.9961 55.6621V52.2715H65.8203ZM75.1309 58.1914C72.8955 58.1914 71.3506 56.6055 71.3438 54.4727C71.3506 52.3125 72.8955 50.7539 74.9941 50.7539C77.0928 50.7539 78.542 52.3125 78.5352 54.4727C78.542 54.6572 78.5283 54.8418 78.5078 55.0195H73.0527C73.21 56.0859 74.0439 56.7695 75.1445 56.7695C75.9512 56.7695 76.5322 56.3936 76.8262 55.7715L78.2891 56.3457C77.7285 57.4736 76.6279 58.1914 75.1309 58.1914ZM73.0938 53.666H76.7988C76.7031 52.8184 75.999 52.1758 74.9941 52.1758C74.0371 52.1758 73.3125 52.7637 73.0938 53.666ZM86.7656 58H85.0977V56.9883H85.043C84.585 57.7881 83.8467 58.1914 82.8828 58.1914C80.9482 58.1914 79.5674 56.5918 79.5605 54.4727C79.5674 52.3535 80.9482 50.7539 82.8828 50.7539C83.8467 50.7539 84.585 51.1572 85.043 51.957H85.0977V48.1016H86.7656V58ZM83.2109 56.6465C84.3389 56.6396 85.1523 55.751 85.1523 54.4727C85.1523 53.1943 84.3389 52.3057 83.2109 52.2988C82.0625 52.3057 81.2627 53.208 81.2559 54.4727C81.2627 55.7373 82.0625 56.6396 83.2109 56.6465ZM95.2422 58.1914C93.8135 58.1914 92.5898 57.6309 91.6328 56.5234L92.8496 55.3613C93.5469 56.1748 94.292 56.5303 95.2422 56.5371C96.3564 56.5303 97.04 56.0107 97.0469 55.1426C97.04 54.4521 96.5957 54.0898 95.2695 53.7207L94.791 53.5977C92.9111 53.0986 91.9951 52.1895 91.9883 50.8359C91.9951 49.1543 93.417 47.9102 95.3652 47.9102C96.6641 47.9102 97.874 48.4912 98.7285 49.5098L97.5254 50.6582C96.9102 49.9404 96.1787 49.5713 95.3652 49.5645C94.415 49.5713 93.7588 50.0771 93.7656 50.8223C93.7588 51.4033 94.1484 51.7041 95.2422 51.998L95.707 52.1211C97.8535 52.7021 98.8105 53.625 98.8105 55.1152C98.8105 56.9404 97.3545 58.1914 95.2422 58.1914ZM103.555 56.6465C104.683 56.6396 105.496 55.751 105.496 54.4727C105.496 53.1943 104.683 52.3057 103.555 52.2988C102.406 52.3057 101.606 53.208 101.6 54.4727C101.606 55.7373 102.406 56.6396 103.555 56.6465ZM107.123 58H105.441V56.9883H105.387C104.929 57.7881 104.19 58.1914 103.227 58.1914C101.292 58.1914 99.9111 56.5918 99.9043 54.4727C99.9111 52.3535 101.292 50.7539 103.227 50.7539C104.19 50.7539 104.929 51.1572 105.387 51.957H105.441V50.9453H107.123V58ZM108.846 58V50.9453H110.514V51.9844H110.568C110.938 51.2256 111.717 50.7539 112.715 50.7539C114.314 50.7539 115.224 51.9023 115.217 53.7754V58H113.535V54.0488C113.549 52.9277 113.043 52.3057 112.154 52.2988C111.279 52.3057 110.521 52.9277 110.514 54.3359V58H108.846ZM119.305 58.1914C118.163 58.1914 117.179 57.7744 116.502 56.9883L117.541 55.9766C118.074 56.5371 118.594 56.7695 119.332 56.7695C120.139 56.7695 120.597 56.4619 120.59 55.9492C120.597 55.5186 120.296 55.3203 119.346 55.0879L118.99 54.9922C117.486 54.6367 116.741 53.96 116.748 52.9551C116.741 51.6904 117.91 50.7539 119.469 50.7539C120.487 50.7539 121.431 51.1709 122.107 51.9023L121.082 52.9141C120.617 52.4219 120.098 52.1758 119.469 52.1758C118.792 52.1758 118.341 52.4697 118.348 52.9141C118.341 53.249 118.58 53.4062 119.359 53.5977L119.729 53.6934C121.431 54.1035 122.203 54.7939 122.203 55.9082C122.203 57.2617 121.034 58.1914 119.305 58.1914Z" fill="black"/>
<path d="M78.5765 95.512H68.4005V91.48H78.5765V83.544H83.4405V124.184H78.5765V109.848H68.4005V105.816H78.5765V95.512ZM84.6565 137.624H47.2805V120.6H52.1445V133.592H84.6565V137.624ZM52.5925 87.32C60.7845 87.32 67.1205 93.016 67.1205 101.336C67.1205 109.656 60.8485 115.224 52.6565 115.224C44.4005 115.224 38.0645 109.72 38.0645 101.336C38.0645 93.08 44.4005 87.32 52.5925 87.32ZM52.5925 91.608C47.0245 91.608 42.8645 95.64 42.8645 101.336C42.8645 106.968 47.0885 110.936 52.6565 110.936C58.4165 110.936 62.3845 106.968 62.3845 101.336C62.3845 95.64 58.4165 91.608 52.5925 91.608ZM137.28 106.84H120.704V112.856H143.616V116.888H93.1195V112.856H115.84V106.84H99.4555V85.464H104.32V92.376H132.416V85.464H137.28V106.84ZM137.984 129.816C137.984 135.96 130.88 139.416 118.336 139.416C105.856 139.416 98.8155 135.896 98.8155 129.816C98.8155 123.864 105.856 120.28 118.336 120.28C130.88 120.28 137.984 123.608 137.984 129.816ZM118.336 124.184C109.312 124.184 103.744 126.232 103.744 129.816C103.744 133.528 109.312 135.512 118.336 135.512C127.424 135.512 133.056 133.528 133.056 129.816C133.056 126.232 127.424 124.184 118.336 124.184ZM132.416 102.808V96.408H104.32V102.808H132.416ZM198.991 111.832H148.495V107.736H198.991V111.832ZM193.359 94.04C193.359 100.184 185.935 103.704 173.775 103.704C161.743 103.704 154.319 100.184 154.319 94.04C154.319 87.896 161.743 84.312 173.775 84.312C185.935 84.312 193.359 87.896 193.359 94.04ZM173.775 88.28C165.007 88.28 159.311 90.52 159.311 94.04C159.311 97.496 165.007 99.672 173.775 99.672C182.671 99.672 188.431 97.496 188.431 94.04C188.431 90.52 182.671 88.28 173.775 88.28ZM194.511 138.968H154.383V125.656H187.791V120.728H154.255V116.824H192.655V129.368H159.247V135H194.511V138.968ZM248.222 101.464H231.518V109.208H254.366V113.304H203.87V109.208H226.654V101.464H210.91V84.504H215.774V97.432H248.222V101.464ZM249.118 138.584H208.99V134.552H218.142L216.99 125.72L221.918 124.952L222.814 134.552H234.974L236.638 125.08L241.374 125.976L239.582 134.552H249.118V138.584ZM248.606 122.968H209.502V118.936H248.606V122.968ZM305.261 139.48H300.397V83.544H305.261V139.48ZM261.101 107.48C261.101 95.704 266.349 87.768 275.501 87.768C284.781 87.768 289.965 95.704 289.965 107.544C289.965 119.384 284.781 127.32 275.501 127.32C266.349 127.32 261.101 119.384 261.101 107.48ZM285.357 107.544C285.357 98.328 281.453 91.992 275.501 91.992C269.613 91.992 265.709 98.328 265.709 107.544C265.709 116.696 269.613 123.096 275.501 123.096C281.453 123.096 285.357 116.696 285.357 107.544ZM344.06 120.536L344.636 124.568C338.748 125.528 330.428 126.232 321.02 126.232H316.476V104.344H336.316V92.76H316.476V88.728H341.18V108.44H321.34V122.072C328.06 122.072 337.02 121.752 344.06 120.536ZM344.892 116.312V112.216H355.388V101.4H344.892V97.304H355.388V83.544H360.252V139.48H355.388V116.312H344.892ZM410.827 97.304H400.395V93.272H410.827V83.544H415.691V124.184H410.827V109.656H400.395V105.624H410.827V97.304ZM416.907 137.624H379.659V120.472H384.523V133.528H416.907V137.624ZM398.027 114.648H372.491V88.536H398.027V114.648ZM393.099 110.68V92.568H377.355V110.68H393.099ZM426.074 107.224C426.074 95.384 431.194 87.448 440.218 87.448C448.666 87.448 453.594 94.424 454.234 105.048H466.202V83.544H471.066V139.48H466.202V109.208H454.234C453.722 119.96 448.73 127 440.218 127C431.194 127 426.074 119.128 426.074 107.224ZM449.498 107.288C449.498 98.072 445.722 91.672 440.218 91.672C434.65 91.672 430.938 98.072 430.938 107.288C430.938 116.376 434.65 122.776 440.218 122.776C445.722 122.776 449.498 116.376 449.498 107.288ZM517.929 107.416C513.513 108.376 506.537 108.952 499.625 108.952V86.616H514.921V90.648H504.425V104.856C508.585 104.856 514.025 104.344 517.289 103.576L517.929 107.416ZM497.641 107.416C493.801 108.44 488.617 108.952 482.409 108.952V86.616H496.105V90.648H487.209V104.856C490.025 104.792 493.673 104.536 497.001 103.576L497.641 107.416ZM527.145 113.88H522.345V98.904H512.425V95.128H522.345V83.544H527.145V113.88ZM516.969 117.016H499.753V112.856H516.969V117.016ZM527.913 123.672H488.809V119.704H527.913V123.672ZM523.561 132.824C523.561 137.112 519.401 140.184 508.393 140.184C497.385 140.184 493.161 137.112 493.161 132.824C493.161 128.536 497.321 125.464 508.393 125.464C519.593 125.464 523.561 128.536 523.561 132.824ZM518.441 132.824C518.441 130.328 514.921 129.304 508.393 129.304C502.057 129.304 498.409 130.328 498.409 132.824C498.409 135.384 501.929 136.408 508.393 136.408C514.793 136.408 518.441 135.384 518.441 132.824ZM583.288 139.48H578.488V83.544H583.288V139.48ZM572.408 136.664H567.736V109.4H558.328V105.304H567.736V84.888H572.408V136.664ZM559.736 90.072C559.352 106.712 552.056 119 538.872 127.512L535.544 123.928C547.256 117.336 554.168 105.56 554.744 94.168H537.72V90.072H559.736ZM592.199 107.224C592.199 95.384 597.319 87.448 606.343 87.448C614.791 87.448 619.719 94.424 620.359 105.048H632.327V83.544H637.191V139.48H632.327V109.208H620.359C619.847 119.96 614.855 127 606.343 127C597.319 127 592.199 119.128 592.199 107.224ZM615.623 107.288C615.623 98.072 611.847 91.672 606.343 91.672C600.775 91.672 597.062 98.072 597.062 107.288C597.062 116.376 600.775 122.776 606.343 122.776C611.847 122.776 615.623 116.376 615.623 107.288ZM694.678 139.096H656.79V125.208H687.766V119.704H656.598V115.736H692.63V128.92H661.654V135.064H694.678V139.096ZM682.262 105.56L682.71 109.336C678.614 109.976 672.022 110.424 665.878 110.808C659.734 111.128 653.398 111.32 648.406 111.32L647.702 107.16C650.198 107.16 652.885 107.16 655.446 107.096L654.038 94.424L658.966 93.848L659.862 107.032C662.294 106.968 664.662 106.84 666.966 106.712C667.414 106.712 667.926 106.712 668.438 106.648L669.398 93.72L674.198 94.296L672.79 106.456C676.757 106.264 680.086 105.944 682.262 105.56ZM692.566 112.984H687.702V83.544H692.566V112.984ZM679.638 91.16H649.238V87.192H679.638V91.16ZM749.413 139.48H744.613V110.488H737.893V136.664H733.157V84.888H737.893V106.392H744.613V83.544H749.413V139.48ZM728.933 115.608C728.933 122.328 723.941 126.744 716.708 126.744C709.541 126.744 704.485 122.008 704.485 115.608C704.485 108.824 709.541 104.408 716.708 104.408C723.941 104.408 728.933 108.888 728.933 115.608ZM724.261 115.608C724.261 111.32 721.125 108.504 716.708 108.504C712.293 108.504 709.22 111.32 709.22 115.608C709.22 119.96 712.293 122.712 716.708 122.712C721.125 122.712 724.261 119.832 724.261 115.608ZM729.957 101.208H702.117V97.176H729.957V101.208ZM723.941 92.056H708.645V87.832H723.941V92.056ZM758.388 107.48C758.388 95.704 763.635 87.768 772.724 87.768C781.812 87.768 786.996 95.704 786.996 107.544C786.996 119.384 781.812 127.32 772.724 127.32C763.635 127.32 758.388 119.384 758.388 107.48ZM782.26 107.544C782.26 98.328 778.548 91.992 772.724 91.992C766.9 91.992 763.124 98.328 763.124 107.544C763.124 116.696 766.9 123.096 772.724 123.096C778.548 123.096 782.26 116.696 782.26 107.544ZM809.716 97.624V101.72H799.924V114.712H809.716V118.808H799.924V139.48H795.06V83.544H799.924V97.624H809.716ZM864.515 102.424H856.003V115.352H851.139V83.544H856.003V98.328H864.515V102.424ZM858.115 139.16H820.803V126.68H851.139V121.944H820.547V118.232H856.003V130.264H825.667V135.384H858.115V139.16ZM837.187 88.6H821.059V84.504H837.187V88.6ZM845.571 96.152H812.739V92.184H845.571V96.152ZM842.307 106.776C842.307 112.28 836.803 115.288 829.123 115.288C821.827 115.288 816.003 112.28 816.003 106.776C816.003 101.336 821.699 98.328 829.123 98.328C836.611 98.328 842.307 101.336 842.307 106.776ZM837.635 106.776C837.635 103.64 833.539 102.104 829.123 102.104C824.707 102.104 820.675 103.64 820.675 106.776C820.675 109.912 824.771 111.512 829.123 111.512C833.539 111.512 837.635 109.912 837.635 106.776ZM912.21 83.544V106.84H920.722V110.936H912.21V139.48H907.41V83.544H912.21ZM884.498 89.688C884.498 103.768 879.89 116.76 870.546 126.68L866.578 123.8C874.898 116.312 879.442 103 879.57 93.784H869.458V89.688H884.498ZM899.729 89.688C899.729 104.536 896.658 118.168 886.61 130.136L882.514 127.384C891.73 118.168 894.93 102.36 894.93 93.784H887.058V89.688H899.729ZM969.121 101.784C969.121 110.424 961.057 116.184 948.897 116.184C936.865 116.184 928.801 110.424 928.801 101.784C928.801 93.144 936.865 87.256 948.897 87.256C961.121 87.256 969.121 93.144 969.121 101.784ZM964.449 101.784C964.449 95.512 958.305 91.288 948.897 91.288C939.617 91.288 933.473 95.512 933.473 101.784C933.473 108.056 939.617 112.28 948.897 112.28C958.241 112.28 964.449 108.056 964.449 101.784ZM974.241 132.376H923.745V128.28H936.225V117.848L941.089 117.72V128.28H956.705V117.72L961.569 117.848V128.28H974.241V132.376Z" fill="black"/>
<path d="M43.5898 193L42.7422 190.594H38.75L37.9023 193H35.9746L39.7754 183.102H41.7031L45.5039 193H43.5898ZM39.3379 188.953H42.168L40.7734 185.043H40.7051L39.3379 188.953ZM46.666 195.953V185.945H48.334V186.957H48.4023C48.8535 186.157 49.585 185.754 50.5488 185.754C52.4902 185.754 53.8711 187.354 53.8711 189.473C53.8711 191.592 52.4902 193.191 50.5488 193.191C49.585 193.191 48.8535 192.788 48.4023 191.988H48.334V195.953H46.666ZM50.2207 191.646C51.376 191.64 52.1758 190.737 52.1758 189.473C52.1758 188.208 51.376 187.306 50.2207 187.299C49.0996 187.306 48.2861 188.194 48.2793 189.473C48.2861 190.751 49.0996 191.64 50.2207 191.646ZM55.252 195.953V185.945H56.9199V186.957H56.9883C57.4395 186.157 58.1709 185.754 59.1348 185.754C61.0762 185.754 62.457 187.354 62.457 189.473C62.457 191.592 61.0762 193.191 59.1348 193.191C58.1709 193.191 57.4395 192.788 56.9883 191.988H56.9199V195.953H55.252ZM58.8066 191.646C59.9619 191.64 60.7617 190.737 60.7617 189.473C60.7617 188.208 59.9619 187.306 58.8066 187.299C57.6855 187.306 56.8721 188.194 56.8652 189.473C56.8721 190.751 57.6855 191.64 58.8066 191.646ZM63.8379 193V183.102H65.5059V193H63.8379ZM70.6602 193.191C68.4248 193.191 66.8799 191.605 66.873 189.473C66.8799 187.312 68.4248 185.754 70.5234 185.754C72.6221 185.754 74.0713 187.312 74.0645 189.473C74.0713 189.657 74.0576 189.842 74.0371 190.02H68.582C68.7393 191.086 69.5732 191.77 70.6738 191.77C71.4805 191.77 72.0615 191.394 72.3555 190.771L73.8184 191.346C73.2578 192.474 72.1572 193.191 70.6602 193.191ZM68.623 188.666H72.3281C72.2324 187.818 71.5283 187.176 70.5234 187.176C69.5664 187.176 68.8418 187.764 68.623 188.666ZM82.1855 193.191C80.7568 193.191 79.5332 192.631 78.5762 191.523L79.793 190.361C80.4902 191.175 81.2354 191.53 82.1855 191.537C83.2998 191.53 83.9834 191.011 83.9902 190.143C83.9834 189.452 83.5391 189.09 82.2129 188.721L81.7344 188.598C79.8545 188.099 78.9385 187.189 78.9316 185.836C78.9385 184.154 80.3604 182.91 82.3086 182.91C83.6074 182.91 84.8174 183.491 85.6719 184.51L84.4688 185.658C83.8535 184.94 83.1221 184.571 82.3086 184.564C81.3584 184.571 80.7021 185.077 80.709 185.822C80.7021 186.403 81.0918 186.704 82.1855 186.998L82.6504 187.121C84.7969 187.702 85.7539 188.625 85.7539 190.115C85.7539 191.94 84.2979 193.191 82.1855 193.191ZM87.2578 193V183.102H90.1426C93.4033 183.102 95.543 185.057 95.5566 188.051C95.543 191.045 93.4033 193 90.1426 193H87.2578ZM89.0078 191.359H90.1426C92.4258 191.359 93.7793 190.136 93.7793 188.051C93.7793 185.966 92.4258 184.742 90.1426 184.742H89.0078V191.359ZM104.402 184.045C104.396 185.645 105.394 187.196 107.328 187.846L106.549 189.049C105.175 188.584 104.197 187.641 103.664 186.451C103.11 187.764 102.099 188.789 100.643 189.309L99.8086 188.105C101.846 187.436 102.851 185.768 102.857 184.018V182.609H104.402V184.045ZM109.693 181.857V185.521H111.43V186.779H109.693V190.922H108.162V181.857H109.693ZM110.186 192.727V193.971H101.791V190.047H103.336V192.727H110.186ZM121.998 184.852V186.068H118.443V186.984H123.311V188.215H112.045V186.984H116.912V186.068H113.494V182.295H121.875V183.525H115.012V184.852H121.998ZM121.916 188.994V192.029H114.902V192.932H122.258V194.094H113.385V190.949H120.398V190.156H113.357V188.994H121.916ZM134.234 182.979V184.168C134.234 185.706 134.234 187.436 133.756 190.02L132.225 189.842C132.689 187.442 132.696 185.699 132.703 184.223H125.32V182.979H134.234ZM135.424 191.373V192.631H124.158V191.373H128.287V187.08H129.832V191.373H135.424ZM142.861 182.842V184.086H138.5V187.312C141.016 187.306 142.396 187.224 143.969 186.93L144.105 188.146C142.41 188.481 140.927 188.543 138.035 188.543H136.982V182.842H142.861ZM146.553 189.801V194.203H145.008V191.031H138.117V189.801H146.553ZM146.553 181.885V189.186H145.008V181.885H146.553ZM152.295 193V183.102H154.291L158.98 190.225H159.035V183.102H160.785V193H158.816L154.113 185.836H154.045V193H152.295ZM165.994 193.191C163.759 193.191 162.214 191.605 162.207 189.473C162.214 187.312 163.759 185.754 165.857 185.754C167.956 185.754 169.405 187.312 169.398 189.473C169.405 189.657 169.392 189.842 169.371 190.02H163.916C164.073 191.086 164.907 191.77 166.008 191.77C166.814 191.77 167.396 191.394 167.689 190.771L169.152 191.346C168.592 192.474 167.491 193.191 165.994 193.191ZM163.957 188.666H167.662C167.566 187.818 166.862 187.176 165.857 187.176C164.9 187.176 164.176 187.764 163.957 188.666ZM174.115 193.191C172.017 193.191 170.431 191.592 170.424 189.473C170.431 187.354 172.017 185.754 174.115 185.754C176.214 185.754 177.8 187.354 177.807 189.473C177.8 191.592 176.214 193.191 174.115 193.191ZM174.115 191.646C175.312 191.64 176.159 190.751 176.166 189.473C176.159 188.194 175.312 187.306 174.115 187.299C172.919 187.306 172.071 188.194 172.064 189.473C172.071 190.751 172.919 191.64 174.115 191.646Z" fill="black"/>
<path d="M84.1562 219.625V260.625H79.1562V245.625H64.8438C62.25 248.875 58.1562 250.844 53.3438 250.812C45.0625 250.844 38.9375 245.125 38.9688 237C38.9375 228.875 45.0625 223.125 53.3438 223.125C58.0938 223.125 62.1562 225.062 64.7812 228.25H79.1562V219.625H84.1562ZM85.6562 269.75V273.812H48.4062V256.375H53.3438V269.75H85.6562ZM53.3438 227.438C47.7812 227.469 43.625 231.438 43.6562 237C43.625 242.562 47.7812 246.531 53.3438 246.5C58.9062 246.531 63.0312 242.562 63.0312 237C63.0312 231.438 58.9062 227.469 53.3438 227.438ZM66.9688 232.312C67.4688 233.75 67.7188 235.312 67.7188 237C67.7188 238.625 67.4688 240.156 67.0312 241.562H79.1562V232.312H66.9688ZM144.031 247.375V251.438H93.4062V247.375H116.281V241.438H100.156V220.938H104.969V227.188H132.469V220.938H137.406V241.438H121.156V247.375H144.031ZM118.656 255.562C130.625 255.594 137.781 259.094 137.781 265.25C137.781 271.469 130.625 274.938 118.656 274.938C106.688 274.938 99.5 271.469 99.5312 265.25C99.5 259.094 106.656 255.594 118.656 255.562ZM118.656 259.375C109.812 259.406 104.5 261.531 104.531 265.25C104.5 269 109.719 271.156 118.656 271.125C127.562 271.156 132.812 269 132.844 265.25C132.812 261.531 127.5 259.406 118.656 259.375ZM104.969 237.438H132.469V231.062H104.969V237.438ZM173.969 220.5C186.312 220.5 193.656 223.938 193.656 230.125C193.656 236.312 186.312 239.781 173.969 239.75C161.656 239.781 154.312 236.312 154.344 230.125C154.312 223.938 161.656 220.5 173.969 220.5ZM173.969 224.25C164.75 224.25 159.375 226.406 159.406 230.125C159.375 233.875 164.75 236.031 173.969 236C183.219 236.031 188.594 233.875 188.594 230.125C188.594 226.406 183.219 224.25 173.969 224.25ZM199.344 243.562V247.5H148.719V243.562H199.344ZM192.844 252.375V264.75H159.844V270.562H194.469V274.375H154.969V261.125H187.969V256.125H154.844V252.375H192.844ZM248.969 233.812V237.812H231.781V244.875H254.656V248.875H204.031V244.875H226.906V237.812H210.969V220.75H215.844V233.812H248.969ZM249.094 254.5V258.5H240.469V270.312H249.594V274.312H209.219V270.312H218.281V258.5H209.719V254.5H249.094ZM223.156 270.312H235.594V258.5H223.156V270.312ZM305.094 219.5V275.125H300.219V219.5H305.094ZM275.594 223.812C283.875 223.844 289.781 231.406 289.781 243.125C289.781 254.938 283.875 262.5 275.594 262.5C267.344 262.5 261.406 254.938 261.406 243.125C261.406 231.406 267.344 223.844 275.594 223.812ZM275.594 228.25C270 228.25 266.156 234.156 266.156 243.125C266.156 252.219 270 258.125 275.594 258.125C281.188 258.125 285.062 252.219 285.094 243.125C285.062 234.156 281.188 228.25 275.594 228.25ZM360.656 219.5V275.125H355.781V251.438H344.219V247.375H355.781V236.312H344.594V232.25H355.781V219.5H360.656ZM341.031 224.562V244.312H321.594V258C329.906 258 336.906 257.719 345.344 256.375L345.781 260.5C336.906 261.875 329.844 262.188 320.906 262.188H316.781V240.312H336.219V228.688H316.594V224.562H341.031ZM398.031 224.375V229.375H411.031V219.625H416.031V260.062H411.031V245.312H398.031V250.312H372.594V224.375H398.031ZM377.344 228.375V246.312H393.281V228.375H377.344ZM417.344 269.75V273.812H380.031V256.5H384.969V269.75H417.344ZM398.031 241.25H411.031V233.438H398.031V241.25ZM440.156 223.812C447.75 223.844 453.25 230.406 454.031 240.75H466.469V219.5H471.344V275.125H466.469V244.75H454.094C453.531 255.625 447.938 262.5 440.156 262.5C432.031 262.5 426.281 254.938 426.281 243.125C426.281 231.406 432.031 223.844 440.156 223.812ZM440.156 228.25C434.719 228.25 430.938 234.156 430.969 243.125C430.938 252.219 434.719 258.125 440.156 258.125C445.656 258.125 449.438 252.219 449.469 243.125C449.438 234.156 445.656 228.25 440.156 228.25ZM528.156 252.625V256.5H488.344V252.625H505.844V247.25H510.781V252.625H528.156ZM508.219 259.125C518.188 259.156 524 261.969 524.031 267.062C524 272.219 518.188 275 508.219 275C498.281 275 492.406 272.219 492.406 267.062C492.406 261.969 498.281 259.156 508.219 259.125ZM508.219 262.625C501.531 262.656 497.594 264.25 497.594 267.062C497.594 269.906 501.562 271.5 508.219 271.5C514.938 271.5 518.875 269.906 518.906 267.062C518.875 264.25 514.938 262.656 508.219 262.625ZM496.094 222.25V226.188H486.969V241.062C489.781 241.031 493.094 240.781 496.844 239.938L497.344 243.938C492.094 245.031 488.031 245.094 484.531 245.062H482.094V222.25H496.094ZM514.719 222.25V226.188H504.094V241.125C508.938 241.062 512.562 240.844 516.844 239.875L517.344 243.812C512.219 244.969 508.25 245.094 502.031 245.062H499.281V222.25H514.719ZM527.219 219.562V249.062H522.281V234.938H512.094V231.062H522.281V219.562H527.219ZM583.469 219.562V275.062H578.719V219.562H583.469ZM571.719 220.938V272.188H567.094V246.25H555.344C552 252.719 546.625 258.438 538.844 263L535.969 259.5C548.031 252.344 554.094 242.281 555.031 230.625H538.344V226.562H559.906C559.906 232.062 559.031 237.375 557.156 242.312H567.094V220.938H571.719ZM606.094 223.812C613.688 223.844 619.188 230.406 619.969 240.75H632.406V219.5H637.281V275.125H632.406V244.75H620.031C619.469 255.625 613.875 262.5 606.094 262.5C597.969 262.5 592.219 254.938 592.219 243.125C592.219 231.406 597.969 223.844 606.094 223.812ZM606.094 228.25C600.656 228.25 596.875 234.156 596.906 243.125C596.875 252.219 600.656 258.125 606.094 258.125C611.594 258.125 615.375 252.219 615.406 243.125C615.375 234.156 611.594 228.25 606.094 228.25ZM692.469 219.562V248.312H687.531V219.562H692.469ZM692.469 251.062V264.312H661.031V270.438H694.594V274.375H656.219V260.625H687.594V255H656.031V251.062H692.469ZM679.094 223.312V227.25H673.469V241.438C676.344 241.281 679.188 241 681.844 240.688L682.094 244.312C670.938 245.969 657.875 246.375 648.094 246.375L647.469 242.312L654.656 242.25V227.25H649.031V223.312H679.094ZM659.406 242.125L668.719 241.75V227.25H659.406V242.125ZM729.594 229.062V233.125H701.719V229.062H713.281V221.125H718.156V229.062H729.594ZM715.656 236.875C722.656 236.906 727.688 242.125 727.719 249.5C727.688 256.969 722.656 262.156 715.656 262.125C708.719 262.156 703.688 256.969 703.719 249.5C703.688 242.125 708.719 236.906 715.656 236.875ZM715.656 241.062C711.25 241.062 708.094 244.594 708.094 249.5C708.094 254.5 711.25 258 715.656 258C720.094 258 723.312 254.5 723.344 249.5C723.312 244.594 720.094 241.062 715.656 241.062ZM749.219 219.562V275.062H744.531V247H737.094V272.312H732.469V220.75H737.094V242.938H744.531V219.562H749.219ZM772.031 223.812C780.219 223.844 786.062 231.406 786.094 243.125C786.062 254.938 780.219 262.5 772.031 262.5C763.812 262.5 758 254.938 758.031 243.125C758 231.406 763.812 223.844 772.031 223.812ZM772.031 228.25C766.469 228.25 762.688 234.156 762.719 243.125C762.688 252.219 766.469 258.125 772.031 258.125C777.531 258.125 781.344 252.219 781.344 243.125C781.344 234.156 777.531 228.25 772.031 228.25ZM809.156 233.5V237.688H800.156V250.062H809.156V254.188H800.156V275.062H795.219V219.562H800.156V233.5H809.156ZM855.906 219.312V232.75H864.281V236.938H855.906V250.062H850.969V219.312H855.906ZM855.906 252.875V265.25H825.406V270.625H857.969V274.375H820.594V261.625H851.094V256.625H820.406V252.875H855.906ZM845.719 224.562V228.438H812.656V224.562H826.719V218.938H831.656V224.562H845.719ZM829.156 231C837.219 231 842.531 234.5 842.531 240.062C842.531 245.719 837.219 249.188 829.156 249.188C821.031 249.188 815.75 245.719 815.781 240.062C815.75 234.5 821.031 231 829.156 231ZM829.156 234.625C823.875 234.656 820.406 236.75 820.406 240.062C820.406 243.438 823.875 245.562 829.156 245.562C834.375 245.562 837.844 243.438 837.844 240.062C837.844 236.75 834.375 234.656 829.156 234.625ZM911.719 219.562V242.438H920.219V246.562H911.719V275.062H906.844V219.562H911.719ZM884.594 225.562C884.562 238.781 881.594 251.844 871.531 262.5L867.594 259.688C875.969 251.125 879.375 240.781 879.969 229.625H869.344V225.562H884.594ZM899.906 225.562C899.875 238.781 897.875 254.125 887.531 266.188L883.531 263.438C892.188 253.625 894.812 241.281 895.219 229.625H886.406V225.562H899.906ZM973.906 263.812V267.938H923.094V263.812H935.594V248.75C930.906 246.312 928.031 242.312 928.031 237.312C928.031 228.688 936.562 223.094 948.344 223.062C960.25 223.094 968.688 228.688 968.719 237.312C968.688 242.312 965.875 246.281 961.219 248.75V263.812H973.906ZM948.344 227C939.312 227 932.781 231.094 932.781 237.312C932.781 243.562 939.312 247.656 948.344 247.625C957.438 247.656 963.938 243.562 963.969 237.312C963.938 231.094 957.438 227 948.344 227ZM940.469 263.812H956.344V250.562C953.938 251.219 951.25 251.562 948.344 251.562C945.5 251.562 942.844 251.25 940.469 250.625V263.812Z" fill="black"/>
</svg>
