<svg width="1012" height="187" viewBox="0 0 1012 187" fill="none" xmlns="http://www.w3.org/2000/svg">
<circle opacity="0.2" cx="229" cy="52.5" r="12" fill="#0066FF"/>
<path d="M193.5 83.25V74.5H204.5V66.875C204.5 54.5 211.875 46.75 223.5 46.75C227.125 46.75 230.125 47.5 232.5 48.375V58.25C229.75 57.375 227.25 57 225 57C218.25 57 215 60.375 215 67.25V74.5H232.5V83.25H215V139H204.5V83.25H193.5Z" fill="black"/>
<circle opacity="0.2" cx="286" cy="154.5" r="18" fill="#0066FF"/>
<path d="M306.875 128.75C319.125 128.75 327.875 119.25 327.875 105.75C327.875 92.25 319.125 82.75 306.875 82.75C294.5 82.75 285.875 92.375 285.875 105.75C285.875 119.125 294.5 128.75 306.875 128.75ZM305.625 167.75C292.875 167.75 283.5 162.375 276.5 151.5L285.25 146C290.75 154.375 296.75 157.75 305.625 157.75C319.75 157.75 327.375 149.125 327.375 132.5V127.25H326.875C322.562 134.75 315.375 138.75 305.875 138.75C288 138.75 275.125 124.5 275.125 105.75C275.125 87 288 72.75 305.875 72.75C315.375 72.75 322.562 76.75 326.875 84.25H327.375V74.5H337.875V132.5C337.875 154.875 325.5 167.75 305.625 167.75Z" fill="black"/>
<circle opacity="0.2" cx="427" cy="85.5" r="12" fill="#0066FF"/>
<circle opacity="0.2" cx="389" cy="127.5" r="12" fill="#0066FF"/>
<path d="M409 140.75C398.5 140.75 390.125 136.625 384 128.5L392.5 122.5C396.75 128.25 401.75 130.75 409 130.75C418 130.75 423.25 127 423.25 120.625C423.25 115.625 419.875 113.125 409.5 110.5L406 109.625C392.625 106.25 386.25 100.5 386.25 91.75C386.25 80.875 396 72.75 409 72.75C418.625 72.75 427.5 77.25 432.625 84.875L423.875 90.625C420.25 85.5 415.125 82.75 409 82.75C401.875 82.75 397 86.375 397 91.75C397 95.75 399.625 97.625 408.5 99.875L412 100.75C427.25 104.5 434 110.625 434 120.625C434 132.625 423.875 140.75 409 140.75Z" fill="black"/>
<circle opacity="0.2" cx="509" cy="134.5" r="12" fill="#0066FF"/>
<path d="M476.25 83.25V74.5H487.25V58.5H497.75V74.5H513.75V83.25H497.75V120.25C497.75 127.25 500.75 130.5 507.25 130.5C509.25 130.5 511.5 130.125 513.75 129.5V139.375C511.75 140.125 509 140.75 505.75 140.75C494.375 140.75 487.25 133 487.25 120.625V83.25H476.25Z" fill="black"/>
<circle opacity="0.2" cx="572" cy="60.5" r="12" fill="#0066FF"/>
<path d="M559 64.5C566.125 60.25 573.25 55 580.75 48.5H591.5V139H580.75V62.375H580.25C573.312 67.875 566.062 72.6875 559 76.375V64.5Z" fill="black"/>
<circle opacity="0.2" cx="682" cy="105.5" r="18" fill="#0066FF"/>
<path d="M646.5 128.75C678.5 106.875 693.125 89.75 693.125 74.5C693.125 63.375 685.625 57 674.875 57C666.5 57 660.375 60.875 657 72L646.5 69C651.25 53.375 661.875 46.75 674.875 46.75C691.375 46.75 704.125 57.375 704.125 74.5C704.125 92.125 689.25 109.438 664.125 128.25V128.75H705.5V139H646.5V128.75Z" fill="black"/>
<circle opacity="0.2" cx="784.5" cy="71.5" r="18" fill="#0066FF"/>
<path d="M784.5 130.5C797 130.5 805.75 123.5 805.75 113.5C805.75 103.5 797 96.5 784.5 96.5C772 96.5 763.25 103.5 763.25 113.5C763.25 123.5 772 130.5 784.5 130.5ZM784.5 86.5C793.875 86.5 800.5 80.375 800.5 71.75C800.5 63.125 793.875 57 784.5 57C775.125 57 768.5 63.125 768.5 71.75C768.5 80.375 775.125 86.5 784.5 86.5ZM752.25 114C752.25 103.562 759 94.6875 771.25 91V90.625C762.438 87.4375 757.625 80.625 757.625 71.5C757.625 57.375 769.125 46.75 784.5 46.75C799.875 46.75 811.375 57.375 811.375 71.5C811.375 80.625 806.562 87.4375 797.75 90.625V91C810.062 94.6875 816.75 103.562 816.75 114C816.75 129.125 802.875 140.75 784.5 140.75C766.125 140.75 752.25 129.125 752.25 114Z" fill="black"/>
</svg>
