<svg width="1012" height="277" viewBox="0 0 1012 277" fill="none" xmlns="http://www.w3.org/2000/svg">
<path opacity="0.25" d="M136 232.5C82.5 232.5 42 192 42 138.5C42 85 82.5 44.5 136 44.5C189.5 44.5 230 85 230 138.5C230 192 189.5 232.5 136 232.5ZM136 211.5C178 211.5 207.5 181.25 207.5 138.5C207.5 95.75 178 65.5 136 65.5C94 65.5 64.5 95.75 64.5 138.5C64.5 181.25 94 211.5 136 211.5Z" fill="#0066FF"/>
<circle opacity="0.25" cx="136" cy="138.5" r="94" fill="#FF4242"/>
<path d="M43 143.5V133.5" stroke="#FF4242" stroke-width="2" stroke-linecap="round"/>
<path d="M229 143.5V133.5" stroke="#FF4242" stroke-width="2" stroke-linecap="round"/>
<path d="M43.0044 138.5H229.004" stroke="#FF4242" stroke-width="2"/>
<rect x="108.5" y="127.5" width="55" height="22" rx="11" fill="#FF4242"/>
<path d="M117.372 135.393C118.151 134.914 118.938 134.333 119.751 133.602H121.474V143.5H119.751V135.625H119.71C118.931 136.247 118.138 136.801 117.372 137.197V135.393ZM127.571 143.691C125.165 143.691 123.654 141.709 123.661 138.551C123.654 135.393 125.165 133.41 127.571 133.41C129.984 133.41 131.495 135.393 131.495 138.551C131.495 141.709 129.984 143.691 127.571 143.691ZM127.571 142.064C128.932 142.071 129.772 140.731 129.772 138.551C129.772 136.37 128.932 135.03 127.571 135.037C126.218 135.03 125.377 136.37 125.384 138.551C125.377 140.731 126.218 142.071 127.571 142.064ZM136.69 143.691C134.284 143.691 132.773 141.709 132.78 138.551C132.773 135.393 134.284 133.41 136.69 133.41C139.104 133.41 140.614 135.393 140.614 138.551C140.614 141.709 139.104 143.691 136.69 143.691ZM136.69 142.064C138.051 142.071 138.892 140.731 138.892 138.551C138.892 136.37 138.051 135.03 136.69 135.037C135.337 135.03 134.496 136.37 134.503 138.551C134.496 140.731 135.337 142.071 136.69 142.064ZM144.497 138.797C142.993 138.797 141.858 137.655 141.858 136.145C141.858 134.634 142.993 133.492 144.497 133.492C145.994 133.492 147.129 134.634 147.122 136.145C147.129 137.655 145.994 138.797 144.497 138.797ZM144.497 137.457C145.201 137.457 145.714 136.917 145.714 136.145C145.714 135.372 145.201 134.832 144.497 134.832C143.779 134.832 143.273 135.372 143.267 136.145C143.273 136.917 143.779 137.457 144.497 137.457ZM144.292 143.5L150.636 133.602H152.358L146.015 143.5H144.292ZM152.167 143.609C150.67 143.609 149.535 142.468 149.528 140.957C149.535 139.446 150.67 138.305 152.167 138.305C153.671 138.305 154.806 139.446 154.792 140.957C154.806 142.468 153.671 143.609 152.167 143.609ZM152.167 142.27C152.878 142.27 153.391 141.729 153.384 140.957C153.391 140.185 152.878 139.645 152.167 139.645C151.456 139.645 150.95 140.185 150.937 140.957C150.95 141.729 151.456 142.27 152.167 142.27Z" fill="white"/>
<path opacity="0.25" d="M382.5 232.5C344.75 232.5 316.25 203.25 316.25 164.5C316.25 125.75 344.75 96.5 382.5 96.5C420.25 96.5 448.75 125.75 448.75 164.5C448.75 203.25 420.25 232.5 382.5 232.5ZM382.5 212.5C408.75 212.5 427.25 192.75 427.25 164.5C427.25 136.25 408.75 116.5 382.5 116.5C356.25 116.5 337.75 136.25 337.75 164.5C337.75 192.75 356.25 212.5 382.5 212.5Z" fill="#0066FF"/>
<circle opacity="0.25" cx="382.5" cy="164.5" r="68" fill="#FF4242"/>
<path d="M317.25 169.5V159.5" stroke="#FF4242" stroke-width="2" stroke-linecap="round"/>
<path d="M448.25 169.5V159.5" stroke="#FF4242" stroke-width="2" stroke-linecap="round"/>
<path d="M317.254 164.5H448.254" stroke="#FF4242" stroke-width="2"/>
<rect x="353.25" y="153.5" width="58" height="22" rx="11" fill="#FF4242"/>
<path d="M365.427 169.691C364.203 169.691 363.123 169.158 362.323 168.146L363.554 167.094C364.107 167.784 364.709 168.085 365.413 168.092C366.78 168.085 367.819 166.943 367.888 164.756H367.847C367.279 165.583 366.363 166.089 365.29 166.096C363.526 166.089 362.166 164.694 362.173 162.814C362.166 160.839 363.697 159.41 365.769 159.41C368.195 159.41 369.645 161.365 369.638 164.346C369.645 167.682 367.867 169.691 365.427 169.691ZM365.769 164.646C366.869 164.653 367.655 163.888 367.655 162.801C367.655 161.707 366.869 160.941 365.769 160.941C364.675 160.941 363.889 161.707 363.896 162.801C363.889 163.888 364.675 164.653 365.769 164.646ZM370.636 161.174V159.602H377.499V161.092C375.455 163.724 374.272 166.287 374.013 169.5H372.317C372.55 166.328 373.596 163.696 375.394 161.215V161.174H370.636ZM378.688 169.637C378.053 169.637 377.588 169.179 377.581 168.543C377.588 167.921 378.053 167.456 378.688 167.463C379.331 167.456 379.803 167.921 379.796 168.543C379.803 169.179 379.331 169.637 378.688 169.637ZM381.108 165.412L381.669 159.588H387.63V161.16H383.2L382.913 163.99H382.981C383.515 163.354 384.28 162.992 385.142 162.992C386.789 162.992 388.293 164.312 388.286 166.287C388.293 168.283 386.748 169.691 384.595 169.691C382.886 169.691 381.471 168.796 380.821 167.299L382.407 166.684C382.824 167.647 383.59 168.16 384.581 168.16C385.771 168.16 386.57 167.415 386.563 166.301C386.57 165.187 385.771 164.441 384.595 164.441C383.768 164.441 383.125 164.811 382.817 165.412H381.108ZM392.06 164.797C390.556 164.797 389.421 163.655 389.421 162.145C389.421 160.634 390.556 159.492 392.06 159.492C393.557 159.492 394.691 160.634 394.685 162.145C394.691 163.655 393.557 164.797 392.06 164.797ZM392.06 163.457C392.764 163.457 393.276 162.917 393.276 162.145C393.276 161.372 392.764 160.832 392.06 160.832C391.342 160.832 390.836 161.372 390.829 162.145C390.836 162.917 391.342 163.457 392.06 163.457ZM391.854 169.5L398.198 159.602H399.921L393.577 169.5H391.854ZM399.729 169.609C398.232 169.609 397.098 168.468 397.091 166.957C397.098 165.446 398.232 164.305 399.729 164.305C401.233 164.305 402.368 165.446 402.354 166.957C402.368 168.468 401.233 169.609 399.729 169.609ZM399.729 168.27C400.44 168.27 400.953 167.729 400.946 166.957C400.953 166.185 400.44 165.645 399.729 165.645C399.019 165.645 398.513 166.185 398.499 166.957C398.513 167.729 399.019 168.27 399.729 168.27Z" fill="white"/>
<path opacity="0.25" d="M658.5 232.5C604 232.5 563 192.25 563 138.5C563 84.75 604 44.5 658.5 44.5C713 44.5 754 84.75 754 138.5C754 192.25 713 232.5 658.5 232.5ZM658.5 183.5C683.75 183.5 702 164.75 702 138.5C702 112.25 683.75 93.5 658.5 93.5C633.25 93.5 615 112.25 615 138.5C615 164.75 633.25 183.5 658.5 183.5Z" fill="#0066FF"/>
<circle opacity="0.25" cx="658.5" cy="138.5" r="94" fill="#FF4242"/>
<path d="M564 143.5V133.5" stroke="#FF4242" stroke-width="2" stroke-linecap="round"/>
<path d="M753 143.5V133.5" stroke="#FF4242" stroke-width="2" stroke-linecap="round"/>
<path d="M564.004 138.5H753.004" stroke="#FF4242" stroke-width="2"/>
<rect x="626.5" y="127.5" width="65" height="22" rx="11" fill="#FF4242"/>
<path d="M635.696 135.393C636.476 134.914 637.262 134.333 638.075 133.602H639.798V143.5H638.075V135.625H638.034C637.255 136.247 636.462 136.801 635.696 137.197V135.393ZM645.896 143.691C643.489 143.691 641.979 141.709 641.985 138.551C641.979 135.393 643.489 133.41 645.896 133.41C648.309 133.41 649.819 135.393 649.819 138.551C649.819 141.709 648.309 143.691 645.896 143.691ZM645.896 142.064C647.256 142.071 648.097 140.731 648.097 138.551C648.097 136.37 647.256 135.03 645.896 135.037C644.542 135.03 643.701 136.37 643.708 138.551C643.701 140.731 644.542 142.071 645.896 142.064ZM651.241 135.393C652.021 134.914 652.807 134.333 653.62 133.602H655.343V143.5H653.62V135.625H653.579C652.8 136.247 652.007 136.801 651.241 137.197V135.393ZM658.802 143.637C658.166 143.637 657.701 143.179 657.694 142.543C657.701 141.921 658.166 141.456 658.802 141.463C659.444 141.456 659.916 141.921 659.909 142.543C659.916 143.179 659.444 143.637 658.802 143.637ZM661.222 139.412L661.782 133.588H667.743V135.16H663.313L663.026 137.99H663.095C663.628 137.354 664.394 136.992 665.255 136.992C666.902 136.992 668.406 138.312 668.399 140.287C668.406 142.283 666.861 143.691 664.708 143.691C662.999 143.691 661.584 142.796 660.935 141.299L662.521 140.684C662.938 141.647 663.703 142.16 664.694 142.16C665.884 142.16 666.684 141.415 666.677 140.301C666.684 139.187 665.884 138.441 664.708 138.441C663.881 138.441 663.238 138.811 662.931 139.412H661.222ZM672.173 138.797C670.669 138.797 669.534 137.655 669.534 136.145C669.534 134.634 670.669 133.492 672.173 133.492C673.67 133.492 674.805 134.634 674.798 136.145C674.805 137.655 673.67 138.797 672.173 138.797ZM672.173 137.457C672.877 137.457 673.39 136.917 673.39 136.145C673.39 135.372 672.877 134.832 672.173 134.832C671.455 134.832 670.949 135.372 670.942 136.145C670.949 136.917 671.455 137.457 672.173 137.457ZM671.968 143.5L678.312 133.602H680.034L673.69 143.5H671.968ZM679.843 143.609C678.346 143.609 677.211 142.468 677.204 140.957C677.211 139.446 678.346 138.305 679.843 138.305C681.347 138.305 682.481 139.446 682.468 140.957C682.481 142.468 681.347 143.609 679.843 143.609ZM679.843 142.27C680.554 142.27 681.066 141.729 681.06 140.957C681.066 140.185 680.554 139.645 679.843 139.645C679.132 139.645 678.626 140.185 678.612 140.957C678.626 141.729 679.132 142.27 679.843 142.27Z" fill="white"/>
<path opacity="0.25" d="M902 232.5C862.25 232.5 832.25 203.25 832.25 164.5C832.25 125.75 862.25 96.5 902 96.5C941.75 96.5 971.75 125.75 971.75 164.5C971.75 203.25 941.75 232.5 902 232.5ZM902 187.5C915.25 187.5 924.75 178 924.75 164.5C924.75 151 915.25 141.5 902 141.5C888.75 141.5 879.25 151 879.25 164.5C879.25 178 888.75 187.5 902 187.5Z" fill="#0066FF"/>
<circle opacity="0.25" cx="902" cy="164.5" r="68" fill="#FF4242"/>
<path d="M833.25 169.5V159.5" stroke="#FF4242" stroke-width="2" stroke-linecap="round"/>
<path d="M971.25 169.5V159.5" stroke="#FF4242" stroke-width="2" stroke-linecap="round"/>
<path d="M833.254 164.5H971.254" stroke="#FF4242" stroke-width="2"/>
<rect x="868.75" y="153.5" width="67" height="22" rx="11" fill="#FF4242"/>
<path d="M877.921 161.393C878.7 160.914 879.486 160.333 880.3 159.602H882.022V169.5H880.3V161.625H880.259C879.479 162.247 878.687 162.801 877.921 163.197V161.393ZM888.12 169.691C885.714 169.691 884.203 167.709 884.21 164.551C884.203 161.393 885.714 159.41 888.12 159.41C890.533 159.41 892.044 161.393 892.044 164.551C892.044 167.709 890.533 169.691 888.12 169.691ZM888.12 168.064C889.48 168.071 890.321 166.731 890.321 164.551C890.321 162.37 889.48 161.03 888.12 161.037C886.767 161.03 885.926 162.37 885.933 164.551C885.926 166.731 886.767 168.071 888.12 168.064ZM893.548 167.955C896.973 165.774 898.49 164.134 898.497 162.623C898.49 161.618 897.827 160.989 896.829 160.982C896.057 160.989 895.455 161.358 895.147 162.473L893.493 162.049C893.992 160.23 895.236 159.41 896.829 159.41C898.859 159.41 900.213 160.743 900.22 162.596C900.213 164.366 898.839 166.089 896.255 167.873V167.928H900.356V169.5H893.548V167.955ZM903.077 169.637C902.441 169.637 901.977 169.179 901.97 168.543C901.977 167.921 902.441 167.456 903.077 167.463C903.72 167.456 904.191 167.921 904.185 168.543C904.191 169.179 903.72 169.637 903.077 169.637ZM905.497 165.412L906.058 159.588H912.019V161.16H907.589L907.302 163.99H907.37C907.903 163.354 908.669 162.992 909.53 162.992C911.178 162.992 912.682 164.312 912.675 166.287C912.682 168.283 911.137 169.691 908.983 169.691C907.274 169.691 905.859 168.796 905.21 167.299L906.796 166.684C907.213 167.647 907.979 168.16 908.97 168.16C910.159 168.16 910.959 167.415 910.952 166.301C910.959 165.187 910.159 164.441 908.983 164.441C908.156 164.441 907.514 164.811 907.206 165.412H905.497ZM916.448 164.797C914.944 164.797 913.81 163.655 913.81 162.145C913.81 160.634 914.944 159.492 916.448 159.492C917.945 159.492 919.08 160.634 919.073 162.145C919.08 163.655 917.945 164.797 916.448 164.797ZM916.448 163.457C917.152 163.457 917.665 162.917 917.665 162.145C917.665 161.372 917.152 160.832 916.448 160.832C915.73 160.832 915.225 161.372 915.218 162.145C915.225 162.917 915.73 163.457 916.448 163.457ZM916.243 169.5L922.587 159.602H924.31L917.966 169.5H916.243ZM924.118 169.609C922.621 169.609 921.486 168.468 921.479 166.957C921.486 165.446 922.621 164.305 924.118 164.305C925.622 164.305 926.757 165.446 926.743 166.957C926.757 168.468 925.622 169.609 924.118 169.609ZM924.118 168.27C924.829 168.27 925.342 167.729 925.335 166.957C925.342 166.185 924.829 165.645 924.118 165.645C923.407 165.645 922.901 166.185 922.888 166.957C922.901 167.729 923.407 168.27 924.118 168.27Z" fill="white"/>
</svg>
