<svg width="1012" height="369" viewBox="0 0 1012 369" fill="none" xmlns="http://www.w3.org/2000/svg">
<rect x="0.5" y="0.5" width="1011" height="368" rx="15.5" stroke="#70737C" stroke-opacity="0.16"/>
<rect x="32" y="32" width="52" height="24" rx="4" fill="#70737C" fill-opacity="0.08"/>
<path d="M46.9141 43.7969H45.1328C44.9844 42.8203 44.3047 42.2812 43.3125 42.2812C42.0312 42.2812 41.3281 43.2031 41.3281 44.8828V45.5391C41.3281 47.2188 42.0312 48.1406 43.3125 48.1406C44.3125 48.1406 44.9766 47.625 45.1328 46.6797H46.9141C46.7188 48.5938 45.4141 49.6719 43.3281 49.6719C40.8828 49.6719 39.5 48.25 39.5 45.7031V44.7188C39.5 42.1797 40.8828 40.75 43.3281 40.75C45.4219 40.75 46.7109 41.8359 46.9141 43.7969ZM52.0156 49.6406C50.3906 49.6406 49.3047 48.6094 49.3047 47.0625C49.3047 45.5312 50.4141 44.625 52.4609 44.5L54.6016 44.375V43.6562C54.6016 42.7734 54.0312 42.2734 53.0312 42.2734C52.1953 42.2734 51.5859 42.6328 51.3984 43.2578H49.6172C49.7734 41.7812 51.1562 40.8047 53.0781 40.8047C55.1953 40.8047 56.3984 41.8438 56.3984 43.6719V49.5H54.6719V48.3047H54.5078C54.0938 49.1562 53.1797 49.6406 52.0156 49.6406ZM52.6016 48.1562C53.7578 48.1562 54.6016 47.4141 54.6016 46.3828V45.6016L52.7344 45.7031C51.6641 45.7656 51.1094 46.1953 51.1094 46.9531C51.1094 47.6953 51.6875 48.1562 52.6016 48.1562ZM66.7109 49.5H59.4297V48.0469H62.2344V39.0938H59.5234V37.6406H64.0469V48.0469H66.7109V49.5ZM71.1875 38.5547H72.9688V41H76.2734V42.4688H73V46.8672C73 47.625 73.5391 48.0469 74.5078 48.0469C74.8203 48.0469 76.0547 48.0391 76.2031 48.0234V49.4766C76.0625 49.5 74.625 49.5234 74.3672 49.5234C72.1172 49.5234 71.1875 48.7578 71.1875 46.8594V42.4688H68.9375V41H71.1875V38.5547Z" fill="black"/>
<rect x="92" y="32" width="52" height="24" rx="4" fill="#70737C" fill-opacity="0.08"/>
<path d="M106.914 43.7969H105.133C104.984 42.8203 104.305 42.2812 103.312 42.2812C102.031 42.2812 101.328 43.2031 101.328 44.8828V45.5391C101.328 47.2188 102.031 48.1406 103.312 48.1406C104.312 48.1406 104.977 47.625 105.133 46.6797H106.914C106.719 48.5938 105.414 49.6719 103.328 49.6719C100.883 49.6719 99.5 48.25 99.5 45.7031V44.7188C99.5 42.1797 100.883 40.75 103.328 40.75C105.422 40.75 106.711 41.8359 106.914 43.7969ZM116.82 49.5H109.539V48.0469H112.344V39.0938H109.633V37.6406H114.156V48.0469H116.82V49.5ZM123.078 39.0469C122.305 39.0469 121.758 38.5391 121.758 37.8047C121.758 37.0703 122.305 36.5625 123.078 36.5625C123.859 36.5625 124.406 37.0703 124.406 37.8047C124.406 38.5391 123.859 39.0469 123.078 39.0469ZM126.711 49.5H119.43V48.0469H122.25V42.3984H119.523V40.9453H124.023V48.0469H126.711V49.5ZM130.625 45.7344C130.625 47.0703 131.414 47.9219 132.648 47.9219C133.875 47.9219 134.664 47.0703 134.664 45.7344V44.5312C134.664 43.1953 133.875 42.3438 132.648 42.3438C131.414 42.3438 130.625 43.1953 130.625 44.5312V45.7344ZM132.594 52.7188C130.469 52.7188 129.062 51.8047 128.906 50.3281H130.688C130.844 50.9453 131.602 51.3438 132.617 51.3438C133.953 51.3438 134.68 50.7031 134.68 49.5078V47.9609H134.523C134.219 48.9062 133.234 49.5078 131.977 49.5078C130 49.5078 128.773 48.1094 128.773 45.8516V44.4531C128.773 42.1797 130.016 40.7969 132.047 40.7969C133.289 40.7969 134.242 41.3906 134.555 42.3438H134.711V40.9453H136.5V49.4922C136.5 51.5 135.023 52.7188 132.594 52.7188Z" fill="black"/>
<rect x="32" y="88" width="948" height="1" fill="#70737C" fill-opacity="0.16"/>
<path d="M42 144.938C36.8438 144.938 33.625 140.406 33.625 133.188C33.625 125.969 36.8438 121.438 42 121.438C47.1562 121.438 50.375 125.969 50.375 133.188C50.375 140.406 47.1562 144.938 42 144.938ZM42 142.375C45.4375 142.375 47.625 138.812 47.625 133.188C47.625 127.562 45.4375 124 42 124C38.5625 124 36.375 127.562 36.375 133.188C36.375 138.812 38.5625 142.375 42 142.375ZM56 144.75C54.875 144.75 54.0625 143.938 54.0625 142.812C54.0625 141.688 54.875 140.875 56 140.875C57.125 140.875 57.9375 141.688 57.9375 142.812C57.9375 143.938 57.125 144.75 56 144.75ZM56 132.625C54.875 132.625 54.0625 131.812 54.0625 130.688C54.0625 129.562 54.875 128.75 56 128.75C57.125 128.75 57.9375 129.562 57.9375 130.688C57.9375 131.812 57.125 132.625 56 132.625ZM70 144.938C64.8438 144.938 61.625 140.406 61.625 133.188C61.625 125.969 64.8438 121.438 70 121.438C75.1562 121.438 78.375 125.969 78.375 133.188C78.375 140.406 75.1562 144.938 70 144.938ZM70 142.375C73.4375 142.375 75.625 138.812 75.625 133.188C75.625 127.562 73.4375 124 70 124C66.5625 124 64.375 127.562 64.375 133.188C64.375 138.812 66.5625 142.375 70 142.375ZM98 144.938C92.8438 144.938 89.625 140.406 89.625 133.188C89.625 125.969 92.8438 121.438 98 121.438C103.156 121.438 106.375 125.969 106.375 133.188C106.375 140.406 103.156 144.938 98 144.938ZM98 142.375C101.438 142.375 103.625 138.812 103.625 133.188C103.625 127.562 101.438 124 98 124C94.5625 124 92.375 127.562 92.375 133.188C92.375 138.812 94.5625 142.375 98 142.375ZM112 144.75C110.875 144.75 110.062 143.938 110.062 142.812C110.062 141.688 110.875 140.875 112 140.875C113.125 140.875 113.938 141.688 113.938 142.812C113.938 143.938 113.125 144.75 112 144.75ZM112 132.625C110.875 132.625 110.062 131.812 110.062 130.688C110.062 129.562 110.875 128.75 112 128.75C113.125 128.75 113.938 129.562 113.938 130.688C113.938 131.812 113.125 132.625 112 132.625ZM134.469 144.5L132 137.906H122.188L119.719 144.5H116.719L125.375 121.875H128.812L137.469 144.5H134.469ZM123.156 135.344H131.062L127.156 124.969H127.031L123.156 135.344ZM164.656 144.5L162.188 137.906H152.375L149.906 144.5H146.906L155.562 121.875H159L167.656 144.5H164.656ZM153.344 135.344H161.25L157.344 124.969H157.219L153.344 135.344ZM172.375 144.75C171.25 144.75 170.438 143.938 170.438 142.812C170.438 141.688 171.25 140.875 172.375 140.875C173.5 140.875 174.312 141.688 174.312 142.812C174.312 143.938 173.5 144.75 172.375 144.75ZM172.375 132.625C171.25 132.625 170.438 131.812 170.438 130.688C170.438 129.562 171.25 128.75 172.375 128.75C173.5 128.75 174.312 129.562 174.312 130.688C174.312 131.812 173.5 132.625 172.375 132.625ZM199.219 119.312V128.438H203.375V130.5H199.219V140.094H196.75V119.312H199.219ZM194.125 122.688V124.688H177.594V122.688H184.625V119.281H187.094V122.688H194.125ZM185.844 126.25C189.797 126.25 192.531 128.297 192.531 131.406C192.531 134.516 189.797 136.562 185.844 136.562C181.844 136.562 179.141 134.516 179.156 131.406C179.141 128.297 181.844 126.25 185.844 126.25ZM185.844 128.156C183.25 128.172 181.469 129.453 181.469 131.406C181.469 133.344 183.25 134.625 185.844 134.625C188.422 134.625 190.188 133.344 190.188 131.406C190.188 129.453 188.406 128.172 185.844 128.156ZM200.5 144.375V146.406H181.812V138.438H184.281V144.375H200.5ZM230.5 144.5L228.031 137.906H218.219L215.75 144.5H212.75L221.406 121.875H224.844L233.5 144.5H230.5ZM219.188 135.344H227.094L223.188 124.969H223.062L219.188 135.344ZM238.219 144.75C237.094 144.75 236.281 143.938 236.281 142.812C236.281 141.688 237.094 140.875 238.219 140.875C239.344 140.875 240.156 141.688 240.156 142.812C240.156 143.938 239.344 144.75 238.219 144.75ZM238.219 132.625C237.094 132.625 236.281 131.812 236.281 130.688C236.281 129.562 237.094 128.75 238.219 128.75C239.344 128.75 240.156 129.562 240.156 130.688C240.156 131.812 239.344 132.625 238.219 132.625ZM251.25 142.438C254.312 142.438 256.5 139.969 256.5 136.438C256.5 132.906 254.312 130.438 251.25 130.438C248.156 130.438 246 132.938 246 136.438C246 139.938 248.156 142.438 251.25 142.438ZM259 144.5H256.375V141.969H256.281C255.172 143.891 253.375 144.938 251 144.938C246.531 144.938 243.312 141.281 243.312 136.438C243.312 131.594 246.531 127.938 251 127.938C253.375 127.938 255.172 128.984 256.281 130.906H256.375V128.375H259V144.5ZM50.125 182.781V185.344H43.375V192.188H40.625V185.344H33.875V182.781H40.625V175.938H43.375V182.781H50.125ZM61.6875 190.375C64.8125 190.375 67 188.625 67 186.125C67 183.625 64.8125 181.875 61.6875 181.875C58.5625 181.875 56.375 183.625 56.375 186.125C56.375 188.625 58.5625 190.375 61.6875 190.375ZM61.6875 179.375C64.0312 179.375 65.6875 177.844 65.6875 175.688C65.6875 173.531 64.0312 172 61.6875 172C59.3438 172 57.6875 173.531 57.6875 175.688C57.6875 177.844 59.3438 179.375 61.6875 179.375ZM53.625 186.25C53.625 183.641 55.3125 181.422 58.375 180.5V180.406C56.1719 179.609 54.9688 177.906 54.9688 175.625C54.9688 172.094 57.8438 169.438 61.6875 169.438C65.5312 169.438 68.4062 172.094 68.4062 175.625C68.4062 177.906 67.2031 179.609 65 180.406V180.5C68.0781 181.422 69.75 183.641 69.75 186.25C69.75 190.031 66.2812 192.938 61.6875 192.938C57.0938 192.938 53.625 190.031 53.625 186.25ZM73.375 189.938C81.375 184.469 85.0312 180.188 85.0312 176.375C85.0312 173.594 83.1562 172 80.4688 172C78.375 172 76.8438 172.969 76 175.75L73.375 175C74.5625 171.094 77.2188 169.438 80.4688 169.438C84.5938 169.438 87.7812 172.094 87.7812 176.375C87.7812 180.781 84.0625 185.109 77.7812 189.812V189.938H88.125V192.5H73.375V189.938ZM102 182.781V185.344H92V182.781H102ZM104.25 173.875C106.031 172.812 107.812 171.5 109.688 169.875H112.375V192.5H109.688V173.344H109.562C107.828 174.719 106.016 175.922 104.25 176.844V173.875ZM126.125 192.938C120.969 192.938 117.75 188.406 117.75 181.188C117.75 173.969 120.969 169.438 126.125 169.438C131.281 169.438 134.5 173.969 134.5 181.188C134.5 188.406 131.281 192.938 126.125 192.938ZM126.125 190.375C129.562 190.375 131.75 186.812 131.75 181.188C131.75 175.562 129.562 172 126.125 172C122.688 172 120.5 175.562 120.5 181.188C120.5 186.812 122.688 190.375 126.125 190.375ZM148 182.781V185.344H138V182.781H148ZM150.25 173.875C152.031 172.812 153.812 171.5 155.688 169.875H158.375V192.5H155.688V173.344H155.562C153.828 174.719 152.016 175.922 150.25 176.844V173.875ZM171.875 192.938C168.125 192.938 165.375 191.031 163.75 187.656L166.219 186.531C167.469 189.125 169.344 190.375 171.875 190.375C174.906 190.375 177.125 188.594 177.125 186.125C177.125 183.5 174.625 181.906 170.5 181.906H169.75V179.344H170.5C174.094 179.344 176.219 178 176.219 175.688C176.219 173.531 174.375 172 171.812 172C169.625 172 167.906 173.125 166.875 175.25L164.406 174.125C165.906 171.031 168.625 169.438 171.812 169.438C175.906 169.438 178.969 172.094 178.969 175.625C178.969 178.094 177.469 179.781 174.688 180.562V180.656C177.984 181.547 179.875 183.531 179.875 186.312C179.875 190.094 176.438 192.938 171.875 192.938ZM183.5 189.938C191.5 184.469 195.156 180.188 195.156 176.375C195.156 173.594 193.281 172 190.594 172C188.5 172 186.969 172.969 186.125 175.75L183.5 175C184.688 171.094 187.344 169.438 190.594 169.438C194.719 169.438 197.906 172.094 197.906 176.375C197.906 180.781 194.188 185.109 187.906 189.812V189.938H198.25V192.5H183.5V189.938ZM201.75 187.406V184.844L210.531 169.875H213.594L204.969 184.625V184.844H212.906V177.75H215.594V184.844H219.125V187.406H215.594V192.5H212.906V187.406H201.75ZM232.125 182.781V185.344H222.125V182.781H232.125ZM236.406 182.906L237.594 169.844H250.25V172.406H240.125L239.375 180.219H239.5C240.719 178.719 242.531 177.812 244.625 177.812C248.562 177.812 251.75 181.031 251.75 185.375C251.75 189.812 248.438 192.938 243.75 192.938C240.156 192.938 237.281 191.062 235.625 187.656L238.094 186.531C239.344 189.125 241.25 190.375 243.75 190.375C246.906 190.375 249 188.375 249 185.375C249 182.375 246.906 180.375 243.781 180.375C241.625 180.375 239.953 181.328 239.125 182.906H236.406ZM255.25 172.438V169.875H270.125V172.438C265.312 178.312 262.688 184.906 262.062 192.5H259.5C260.062 185.078 262.438 178.5 266.781 172.562V172.438H255.25ZM281.469 192.938C276.094 192.938 273.125 188.594 273.125 181.719C273.125 173.812 277 169.438 282.156 169.438C284.938 169.438 287.375 170.719 288.875 172.906L286.562 174.344C285.531 172.75 283.844 172 282.156 172C278.781 172 276.078 174.984 275.906 181.031H276.031C277.297 179.031 279.469 177.812 282.031 177.812C286.094 177.812 289.25 180.938 289.25 185.375C289.25 189.844 286.031 192.938 281.469 192.938ZM281.469 190.375C284.406 190.375 286.5 188.312 286.5 185.375C286.5 182.438 284.406 180.375 281.469 180.375C278.531 180.375 276.438 182.438 276.438 185.375C276.438 188.312 278.531 190.375 281.469 190.375ZM300.562 190.375C303.688 190.375 305.875 188.625 305.875 186.125C305.875 183.625 303.688 181.875 300.562 181.875C297.438 181.875 295.25 183.625 295.25 186.125C295.25 188.625 297.438 190.375 300.562 190.375ZM300.562 179.375C302.906 179.375 304.562 177.844 304.562 175.688C304.562 173.531 302.906 172 300.562 172C298.219 172 296.562 173.531 296.562 175.688C296.562 177.844 298.219 179.375 300.562 179.375ZM292.5 186.25C292.5 183.641 294.188 181.422 297.25 180.5V180.406C295.047 179.609 293.844 177.906 293.844 175.625C293.844 172.094 296.719 169.438 300.562 169.438C304.406 169.438 307.281 172.094 307.281 175.625C307.281 177.906 306.078 179.609 303.875 180.406V180.5C306.953 181.422 308.625 183.641 308.625 186.25C308.625 190.031 305.156 192.938 300.562 192.938C295.969 192.938 292.5 190.031 292.5 186.25ZM34.2188 240.5V217.875H36.9688V240.5H34.2188ZM41.2812 240.5V217.875H43.9062V240.5H41.2812ZM48.0938 240.5V217.875H50.7188V240.5H48.0938ZM68.0312 224.375V240.5H65.4062V238.156H65.3125C64.5 239.875 62.7656 240.938 60.4688 240.938C56.875 240.938 54.9062 238.406 54.9062 234.25V224.375H57.5312V233.875C57.5312 236.844 58.7812 238.438 61.0312 238.438C63.2812 238.438 65.4062 236.844 65.4062 233.375V224.375H68.0312ZM77.7188 240.938C75.0938 240.938 73 239.906 71.4688 237.875L73.5938 236.375C74.6562 237.812 75.9062 238.438 77.7188 238.438C79.9688 238.438 81.2812 237.5 81.2812 235.906C81.2812 234.656 80.4375 234.031 77.8438 233.375L76.9688 233.156C73.625 232.312 72.0312 230.875 72.0312 228.688C72.0312 225.969 74.4688 223.938 77.7188 223.938C80.125 223.938 82.3438 225.062 83.625 226.969L81.4375 228.406C80.5312 227.125 79.25 226.438 77.7188 226.438C75.9375 226.438 74.7188 227.344 74.7188 228.688C74.7188 229.688 75.375 230.156 77.5938 230.719L78.4688 230.938C82.2812 231.875 83.9688 233.406 83.9688 235.906C83.9688 238.906 81.4375 240.938 77.7188 240.938ZM85.9062 226.562V224.375H88.6562V220.375H91.2812V224.375H95.2812V226.562H91.2812V235.812C91.2812 237.562 92.0312 238.375 93.6562 238.375C94.1562 238.375 94.7188 238.281 95.2812 238.125V240.594C94.7812 240.781 94.0938 240.938 93.2812 240.938C90.4375 240.938 88.6562 239 88.6562 235.906V226.562H85.9062ZM98.7188 240.5V224.375H101.344V226.875H101.469C102.266 225.125 103.859 223.938 105.688 223.938C106.281 223.938 106.844 224.062 107.375 224.281V226.875C106.781 226.688 106.188 226.594 105.625 226.594C102.938 226.594 101.344 228.75 101.344 232.438V240.5H98.7188ZM117.062 238.438C120.125 238.438 122.312 235.969 122.312 232.438C122.312 228.906 120.125 226.438 117.062 226.438C113.969 226.438 111.812 228.938 111.812 232.438C111.812 235.938 113.969 238.438 117.062 238.438ZM124.812 240.5H122.188V237.969H122.094C120.984 239.891 119.188 240.938 116.812 240.938C112.344 240.938 109.125 237.281 109.125 232.438C109.125 227.594 112.344 223.938 116.812 223.938C119.188 223.938 120.984 224.984 122.094 226.906H122.188V224.375H124.812V240.5ZM128 226.562V224.375H130.75V220.375H133.375V224.375H137.375V226.562H133.375V235.812C133.375 237.562 134.125 238.375 135.75 238.375C136.25 238.375 136.812 238.281 137.375 238.125V240.594C136.875 240.781 136.188 240.938 135.375 240.938C132.531 240.938 130.75 239 130.75 235.906V226.562H128ZM140.812 240.5V224.375H143.438V240.5H140.812ZM142.125 221C141.125 221 140.375 220.25 140.375 219.25C140.375 218.25 141.125 217.5 142.125 217.5C143.125 217.5 143.875 218.25 143.875 219.25C143.875 220.25 143.125 221 142.125 221ZM155.156 240.938C150.438 240.938 146.875 237.281 146.875 232.438C146.875 227.594 150.438 223.938 155.156 223.938C159.875 223.938 163.438 227.594 163.438 232.438C163.438 237.281 159.875 240.938 155.156 240.938ZM155.156 238.438C158.438 238.438 160.75 235.969 160.75 232.438C160.75 228.906 158.438 226.438 155.156 226.438C151.875 226.438 149.562 228.906 149.562 232.438C149.562 235.969 151.875 238.438 155.156 238.438ZM166.875 240.5V224.375H169.5V226.719H169.625C170.406 225 172.141 223.938 174.438 223.938C178.031 223.938 180 226.469 180 230.625V240.5H177.375V231C177.375 228.031 176.125 226.438 173.875 226.438C171.625 226.438 169.5 228.031 169.5 231.5V240.5H166.875ZM192.312 240.5V217.875H195.062V240.5H192.312ZM204.875 240.938C202.25 240.938 200.156 239.906 198.625 237.875L200.75 236.375C201.812 237.812 203.062 238.438 204.875 238.438C207.125 238.438 208.438 237.5 208.438 235.906C208.438 234.656 207.594 234.031 205 233.375L204.125 233.156C200.781 232.312 199.188 230.875 199.188 228.688C199.188 225.969 201.625 223.938 204.875 223.938C207.281 223.938 209.5 225.062 210.781 226.969L208.594 228.406C207.688 227.125 206.406 226.438 204.875 226.438C203.094 226.438 201.875 227.344 201.875 228.688C201.875 229.688 202.531 230.156 204.75 230.719L205.625 230.938C209.438 231.875 211.125 233.406 211.125 235.906C211.125 238.906 208.594 240.938 204.875 240.938ZM222.094 240.938C217.375 240.938 213.812 237.281 213.812 232.438C213.812 227.594 217.375 223.938 222.094 223.938C226.812 223.938 230.375 227.594 230.375 232.438C230.375 237.281 226.812 240.938 222.094 240.938ZM222.094 238.438C225.375 238.438 227.688 235.969 227.688 232.438C227.688 228.906 225.375 226.438 222.094 226.438C218.812 226.438 216.5 228.906 216.5 232.438C216.5 235.969 218.812 238.438 222.094 238.438ZM233.812 240.5V217.875H236.438V240.5H233.812ZM247.812 238.438C250.875 238.438 253.062 235.969 253.062 232.438C253.062 228.906 250.875 226.438 247.812 226.438C244.719 226.438 242.562 228.938 242.562 232.438C242.562 235.938 244.719 238.438 247.812 238.438ZM255.562 240.5H252.938V237.969H252.844C251.734 239.891 249.938 240.938 247.562 240.938C243.094 240.938 239.875 237.281 239.875 232.438C239.875 227.594 243.094 223.938 247.562 223.938C249.938 223.938 251.734 224.984 252.844 226.906H252.938V224.375H255.562V240.5ZM258.75 226.562V224.375H261.5V220.375H264.125V224.375H268.125V226.562H264.125V235.812C264.125 237.562 264.875 238.375 266.5 238.375C267 238.375 267.562 238.281 268.125 238.125V240.594C267.625 240.781 266.938 240.938 266.125 240.938C263.281 240.938 261.5 239 261.5 235.906V226.562H258.75ZM271.562 240.5V224.375H274.188V240.5H271.562ZM272.875 221C271.875 221 271.125 220.25 271.125 219.25C271.125 218.25 271.875 217.5 272.875 217.5C273.875 217.5 274.625 218.25 274.625 219.25C274.625 220.25 273.875 221 272.875 221ZM285.906 240.938C281.188 240.938 277.625 237.281 277.625 232.438C277.625 227.594 281.188 223.938 285.906 223.938C290.625 223.938 294.188 227.594 294.188 232.438C294.188 237.281 290.625 240.938 285.906 240.938ZM285.906 238.438C289.188 238.438 291.5 235.969 291.5 232.438C291.5 228.906 289.188 226.438 285.906 226.438C282.625 226.438 280.312 228.906 280.312 232.438C280.312 235.969 282.625 238.438 285.906 238.438ZM297.625 240.5V224.375H300.25V226.719H300.375C301.156 225 302.891 223.938 305.188 223.938C308.781 223.938 310.75 226.469 310.75 230.625V240.5H308.125V231C308.125 228.031 306.875 226.438 304.625 226.438C302.375 226.438 300.25 228.031 300.25 231.5V240.5H297.625ZM323.062 240.5V217.875H325.812V240.5H323.062ZM330.125 240.5V217.875H332.75V240.5H330.125ZM336.719 221.875C338.5 220.812 340.281 219.5 342.156 217.875H344.844V240.5H342.156V221.344H342.031C340.297 222.719 338.484 223.922 336.719 224.844V221.875ZM350.688 240.5V217.875H353.312V240.5H350.688ZM357.625 240.5V217.875H360.375V240.5H357.625ZM364.688 240.5V224.375H367.312V240.5H364.688ZM366 221C365 221 364.25 220.25 364.25 219.25C364.25 218.25 365 217.5 366 217.5C367 217.5 367.75 218.25 367.75 219.25C367.75 220.25 367 221 366 221ZM371.625 240.5V217.875H374.375V240.5H371.625ZM378.688 240.5V224.375H381.312V240.5H378.688ZM380 221C379 221 378.25 220.25 378.25 219.25C378.25 218.25 379 217.5 380 217.5C381 217.5 381.75 218.25 381.75 219.25C381.75 220.25 381 221 380 221ZM385.5 240.5V217.875H388.125V240.5H385.5ZM34.2188 288.5V265.875H40.2188C47.625 265.875 52.4375 270.312 52.4375 277.188C52.4375 284.062 47.625 288.5 40.2188 288.5H34.2188ZM36.9688 285.938H40.2188C46.125 285.938 49.625 282.688 49.625 277.188C49.625 271.688 46.125 268.438 40.2188 268.438H36.9688V285.938ZM63.5312 288.938C58.8125 288.938 55.25 285.281 55.25 280.438C55.25 275.594 58.8125 271.938 63.5312 271.938C68.25 271.938 71.8125 275.594 71.8125 280.438C71.8125 285.281 68.25 288.938 63.5312 288.938ZM63.5312 286.438C66.8125 286.438 69.125 283.969 69.125 280.438C69.125 276.906 66.8125 274.438 63.5312 274.438C60.25 274.438 57.9375 276.906 57.9375 280.438C57.9375 283.969 60.25 286.438 63.5312 286.438ZM75.25 288.5V265.875H77.875V274.719H78C78.7812 273 80.5156 271.938 82.8125 271.938C86.4062 271.938 88.375 274.469 88.375 278.625V288.5H85.75V279C85.75 276.031 84.5 274.438 82.25 274.438C80 274.438 77.875 276.031 77.875 279.5V288.5H75.25ZM94.4688 288.75C93.3438 288.75 92.5312 287.938 92.5312 286.812C92.5312 285.688 93.3438 284.875 94.4688 284.875C95.5938 284.875 96.4062 285.688 96.4062 286.812C96.4062 287.938 95.5938 288.75 94.4688 288.75ZM101.969 288.75C100.844 288.75 100.031 287.938 100.031 286.812C100.031 285.688 100.844 284.875 101.969 284.875C103.094 284.875 103.906 285.688 103.906 286.812C103.906 287.938 103.094 288.75 101.969 288.75ZM109.469 288.75C108.344 288.75 107.531 287.938 107.531 286.812C107.531 285.688 108.344 284.875 109.469 284.875C110.594 284.875 111.406 285.688 111.406 286.812C111.406 287.938 110.594 288.75 109.469 288.75ZM58.4375 324.781V326.781H33.125V324.781H58.4375ZM45.75 329.125C51.7344 329.141 55.3281 330.891 55.3438 334.062C55.3281 337.25 51.7344 339.031 45.75 339.031C39.75 339.031 36.1562 337.25 36.1562 334.062C36.1562 330.891 39.7656 329.141 45.75 329.125ZM45.75 331.031C41.3281 331.047 38.6406 332.141 38.6562 334.062C38.6406 336 41.3125 337.094 45.75 337.094C50.1875 337.094 52.8438 336 52.8438 334.062C52.8438 332.141 50.1562 331.047 45.75 331.031ZM45.75 311.969C51.7969 311.969 55.5938 313.953 55.5938 317.25C55.5938 320.547 51.7969 322.531 45.75 322.531C39.7188 322.531 35.9219 320.547 35.9375 317.25C35.9219 313.953 39.7188 311.969 45.75 311.969ZM45.75 313.906C41.2812 313.922 38.4531 315.156 38.4688 317.25C38.4531 319.328 41.2812 320.562 45.75 320.562C50.2344 320.562 53.0625 319.328 53.0625 317.25C53.0625 315.156 50.2344 313.922 45.75 313.906ZM63.6562 336.75C62.5312 336.75 61.7188 335.938 61.7188 334.812C61.7188 333.688 62.5312 332.875 63.6562 332.875C64.7812 332.875 65.5938 333.688 65.5938 334.812C65.5938 335.938 64.7812 336.75 63.6562 336.75ZM71.1562 336.75C70.0312 336.75 69.2188 335.938 69.2188 334.812C69.2188 333.688 70.0312 332.875 71.1562 332.875C72.2812 332.875 73.0938 333.688 73.0938 334.812C73.0938 335.938 72.2812 336.75 71.1562 336.75ZM78.6562 336.75C77.5312 336.75 76.7188 335.938 76.7188 334.812C76.7188 333.688 77.5312 332.875 78.6562 332.875C79.7812 332.875 80.5938 333.688 80.5938 334.812C80.5938 335.938 79.7812 336.75 78.6562 336.75ZM113.688 314.219V316.969C113.672 320.516 113.672 324.484 112.625 330.5L110.156 330.219C111.266 324.562 111.266 320.406 111.281 316.969V316.25H94.5625V314.219H113.688ZM117.094 332.906V334.969H91.7812V332.906H117.094ZM130.781 314.281V324H122.75V330.312C126.016 330.297 128.938 330.141 132.562 329.531L132.781 331.562C128.844 332.266 125.594 332.375 122.219 332.375H120.375V321.969H128.406V316.344H120.312V314.281H130.781ZM143.188 311.281V339.031H140.812V324.281H136.75V337.594H134.469V311.875H136.75V322.25H140.812V311.281H143.188ZM157.969 336.75C156.844 336.75 156.031 335.938 156.031 334.812C156.031 333.688 156.844 332.875 157.969 332.875C159.094 332.875 159.906 333.688 159.906 334.812C159.906 335.938 159.094 336.75 157.969 336.75ZM165.469 336.75C164.344 336.75 163.531 335.938 163.531 334.812C163.531 333.688 164.344 332.875 165.469 332.875C166.594 332.875 167.406 333.688 167.406 334.812C167.406 335.938 166.594 336.75 165.469 336.75ZM172.969 336.75C171.844 336.75 171.031 335.938 171.031 334.812C171.031 333.688 171.844 332.875 172.969 332.875C174.094 332.875 174.906 333.688 174.906 334.812C174.906 335.938 174.094 336.75 172.969 336.75ZM180.969 336.75C179.844 336.75 179.031 335.938 179.031 334.812C179.031 333.688 179.844 332.875 180.969 332.875C182.094 332.875 182.906 333.688 182.906 334.812C182.906 335.938 182.094 336.75 180.969 336.75ZM188.469 336.75C187.344 336.75 186.531 335.938 186.531 334.812C186.531 333.688 187.344 332.875 188.469 332.875C189.594 332.875 190.406 333.688 190.406 334.812C190.406 335.938 189.594 336.75 188.469 336.75ZM195.969 336.75C194.844 336.75 194.031 335.938 194.031 334.812C194.031 333.688 194.844 332.875 195.969 332.875C197.094 332.875 197.906 333.688 197.906 334.812C197.906 335.938 197.094 336.75 195.969 336.75ZM231 314.219V316.969C230.984 320.516 230.984 324.484 229.938 330.5L227.469 330.219C228.578 324.562 228.578 320.406 228.594 316.969V316.25H211.875V314.219H231ZM234.406 332.906V334.969H209.094V332.906H234.406ZM259.781 311.281V326.531H257.281V318.75H252V316.75H257.281V311.281H259.781ZM260.406 328.125V330H240.906V328.125H249.438V325.469H251.906V328.125H260.406ZM250.656 331.188C255.594 331.203 258.469 332.562 258.469 335.062C258.469 337.609 255.578 338.984 250.656 338.969C245.734 338.984 242.828 337.609 242.844 335.062C242.828 332.562 245.719 331.203 250.656 331.188ZM250.656 332.969C247.219 332.969 245.203 333.719 245.219 335.062C245.203 336.453 247.188 337.219 250.656 337.219C254.109 337.219 256.078 336.453 256.094 335.062C256.078 333.719 254.078 332.969 250.656 332.969ZM250.25 312.531V319.438H240.344V322.75C244.969 322.766 248.469 322.609 252.531 321.906L252.781 323.844C248.5 324.562 244.938 324.719 240 324.719H237.906V317.625H247.812V314.469H237.844V312.531H250.25ZM286.5 312.75V314.938C286.484 317.25 286.484 319.906 285.812 323.5H289.812V325.531H278.438V332.219H275.969V325.531H264.406V323.5H283.344C284.078 319.906 284.078 317.25 284.094 314.938V314.781H267.656V312.75H286.5ZM287.062 336.375V338.406H267.625V329.75H270.094V336.375H287.062ZM302.938 336.75C301.812 336.75 301 335.938 301 334.812C301 333.688 301.812 332.875 302.938 332.875C304.062 332.875 304.875 333.688 304.875 334.812C304.875 335.938 304.062 336.75 302.938 336.75ZM310.438 336.75C309.312 336.75 308.5 335.938 308.5 334.812C308.5 333.688 309.312 332.875 310.438 332.875C311.562 332.875 312.375 333.688 312.375 334.812C312.375 335.938 311.562 336.75 310.438 336.75ZM317.938 336.75C316.812 336.75 316 335.938 316 334.812C316 333.688 316.812 332.875 317.938 332.875C319.062 332.875 319.875 333.688 319.875 334.812C319.875 335.938 319.062 336.75 317.938 336.75ZM325.938 336.75C324.812 336.75 324 335.938 324 334.812C324 333.688 324.812 332.875 325.938 332.875C327.062 332.875 327.875 333.688 327.875 334.812C327.875 335.938 327.062 336.75 325.938 336.75ZM333.438 336.75C332.312 336.75 331.5 335.938 331.5 334.812C331.5 333.688 332.312 332.875 333.438 332.875C334.562 332.875 335.375 333.688 335.375 334.812C335.375 335.938 334.562 336.75 333.438 336.75ZM340.938 336.75C339.812 336.75 339 335.938 339 334.812C339 333.688 339.812 332.875 340.938 332.875C342.062 332.875 342.875 333.688 342.875 334.812C342.875 335.938 342.062 336.75 340.938 336.75ZM348.938 336.75C347.812 336.75 347 335.938 347 334.812C347 333.688 347.812 332.875 348.938 332.875C350.062 332.875 350.875 333.688 350.875 334.812C350.875 335.938 350.062 336.75 348.938 336.75Z" fill="#2A2A2A" fill-opacity="0.28"/>
<path d="M584.469 288.75C583.344 288.75 582.531 287.938 582.531 286.812C582.531 285.688 583.344 284.875 584.469 284.875C585.594 284.875 586.406 285.688 586.406 286.812C586.406 287.938 585.594 288.75 584.469 288.75ZM591.969 288.75C590.844 288.75 590.031 287.938 590.031 286.812C590.031 285.688 590.844 284.875 591.969 284.875C593.094 284.875 593.906 285.688 593.906 286.812C593.906 287.938 593.094 288.75 591.969 288.75ZM599.469 288.75C598.344 288.75 597.531 287.938 597.531 286.812C597.531 285.688 598.344 284.875 599.469 284.875C600.594 284.875 601.406 285.688 601.406 286.812C601.406 287.938 600.594 288.75 599.469 288.75Z" fill="black"/>
<path d="M565.25 288.5V265.875H567.875V274.719H568C568.781 273 570.516 271.938 572.812 271.938C576.406 271.938 578.375 274.469 578.375 278.625V288.5H575.75V279C575.75 276.031 574.5 274.438 572.25 274.438C570 274.438 567.875 276.031 567.875 279.5V288.5H565.25Z" fill="black"/>
<path d="M553.531 288.938C548.812 288.938 545.25 285.281 545.25 280.438C545.25 275.594 548.812 271.938 553.531 271.938C558.25 271.938 561.812 275.594 561.812 280.438C561.812 285.281 558.25 288.938 553.531 288.938ZM553.531 286.438C556.812 286.438 559.125 283.969 559.125 280.438C559.125 276.906 556.812 274.438 553.531 274.438C550.25 274.438 547.938 276.906 547.938 280.438C547.938 283.969 550.25 286.438 553.531 286.438Z" fill="black"/>
<path d="M524.219 288.5V265.875H530.219C537.625 265.875 542.438 270.312 542.438 277.188C542.438 284.062 537.625 288.5 530.219 288.5H524.219ZM526.969 285.938H530.219C536.125 285.938 539.625 282.688 539.625 277.188C539.625 271.688 536.125 268.438 530.219 268.438H526.969V285.938Z" fill="black"/>
<path d="M875.5 240.5V216.875H878.125V240.5H875.5Z" fill="#0066FF"/>
<path d="M868.688 240.5V224.375H871.312V240.5H868.688ZM870 221C869 221 868.25 220.25 868.25 219.25C868.25 218.25 869 217.5 870 217.5C871 217.5 871.75 218.25 871.75 219.25C871.75 220.25 871 221 870 221Z" fill="black"/>
<path d="M861.625 240.5V217.875H864.375V240.5H861.625Z" fill="black"/>
<path d="M854.688 240.5V224.375H857.312V240.5H854.688ZM856 221C855 221 854.25 220.25 854.25 219.25C854.25 218.25 855 217.5 856 217.5C857 217.5 857.75 218.25 857.75 219.25C857.75 220.25 857 221 856 221Z" fill="black"/>
<path d="M847.625 240.5V217.875H850.375V240.5H847.625Z" fill="black"/>
<path d="M840.688 240.5V216.875H843.312V240.5H840.688Z" fill="#0066FF"/>
<path d="M826.719 221.875C828.5 220.812 830.281 219.5 832.156 217.875H834.844V240.5H832.156V221.344H832.031C830.297 222.719 828.484 223.922 826.719 224.844V221.875Z" fill="black"/>
<path d="M820.125 240.5V216.875H822.75V240.5H820.125Z" fill="#0066FF"/>
<path d="M813.062 240.5V217.875H815.812V240.5H813.062Z" fill="black"/>
<path d="M787.625 240.5V224.375H790.25V226.719H790.375C791.156 225 792.891 223.938 795.188 223.938C798.781 223.938 800.75 226.469 800.75 230.625V240.5H798.125V231C798.125 228.031 796.875 226.438 794.625 226.438C792.375 226.438 790.25 228.031 790.25 231.5V240.5H787.625Z" fill="black"/>
<path d="M775.906 240.938C771.188 240.938 767.625 237.281 767.625 232.438C767.625 227.594 771.188 223.938 775.906 223.938C780.625 223.938 784.188 227.594 784.188 232.438C784.188 237.281 780.625 240.938 775.906 240.938ZM775.906 238.438C779.188 238.438 781.5 235.969 781.5 232.438C781.5 228.906 779.188 226.438 775.906 226.438C772.625 226.438 770.312 228.906 770.312 232.438C770.312 235.969 772.625 238.438 775.906 238.438Z" fill="black"/>
<path d="M761.562 240.5V224.375H764.188V240.5H761.562ZM762.875 221C761.875 221 761.125 220.25 761.125 219.25C761.125 218.25 761.875 217.5 762.875 217.5C763.875 217.5 764.625 218.25 764.625 219.25C764.625 220.25 763.875 221 762.875 221Z" fill="black"/>
<path d="M748.75 226.562V224.375H751.5V220.375H754.125V224.375H758.125V226.562H754.125V235.812C754.125 237.562 754.875 238.375 756.5 238.375C757 238.375 757.562 238.281 758.125 238.125V240.594C757.625 240.781 756.938 240.938 756.125 240.938C753.281 240.938 751.5 239 751.5 235.906V226.562H748.75Z" fill="black"/>
<path d="M737.812 238.438C740.875 238.438 743.062 235.969 743.062 232.438C743.062 228.906 740.875 226.438 737.812 226.438C734.719 226.438 732.562 228.938 732.562 232.438C732.562 235.938 734.719 238.438 737.812 238.438ZM745.562 240.5H742.938V237.969H742.844C741.734 239.891 739.938 240.938 737.562 240.938C733.094 240.938 729.875 237.281 729.875 232.438C729.875 227.594 733.094 223.938 737.562 223.938C739.938 223.938 741.734 224.984 742.844 226.906H742.938V224.375H745.562V240.5Z" fill="black"/>
<path d="M723.812 240.5V216.875H726.438V240.5H723.812Z" fill="#0066FF"/>
<path d="M712.094 240.938C707.375 240.938 703.812 237.281 703.812 232.438C703.812 227.594 707.375 223.938 712.094 223.938C716.812 223.938 720.375 227.594 720.375 232.438C720.375 237.281 716.812 240.938 712.094 240.938ZM712.094 238.438C715.375 238.438 717.688 235.969 717.688 232.438C717.688 228.906 715.375 226.438 712.094 226.438C708.812 226.438 706.5 228.906 706.5 232.438C706.5 235.969 708.812 238.438 712.094 238.438Z" fill="black"/>
<path d="M694.875 240.938C692.25 240.938 690.156 239.906 688.625 237.875L690.75 236.375C691.812 237.812 693.062 238.438 694.875 238.438C697.125 238.438 698.438 237.5 698.438 235.906C698.438 234.656 697.594 234.031 695 233.375L694.125 233.156C690.781 232.312 689.188 230.875 689.188 228.688C689.188 225.969 691.625 223.938 694.875 223.938C697.281 223.938 699.5 225.062 700.781 226.969L698.594 228.406C697.688 227.125 696.406 226.438 694.875 226.438C693.094 226.438 691.875 227.344 691.875 228.688C691.875 229.688 692.531 230.156 694.75 230.719L695.625 230.938C699.438 231.875 701.125 233.406 701.125 235.906C701.125 238.906 698.594 240.938 694.875 240.938Z" fill="black"/>
<path d="M682.312 240.5V217.875H685.062V240.5H682.312Z" fill="black"/>
<path d="M656.875 240.5V224.375H659.5V226.719H659.625C660.406 225 662.141 223.938 664.438 223.938C668.031 223.938 670 226.469 670 230.625V240.5H667.375V231C667.375 228.031 666.125 226.438 663.875 226.438C661.625 226.438 659.5 228.031 659.5 231.5V240.5H656.875Z" fill="black"/>
<path d="M645.156 240.938C640.438 240.938 636.875 237.281 636.875 232.438C636.875 227.594 640.438 223.938 645.156 223.938C649.875 223.938 653.438 227.594 653.438 232.438C653.438 237.281 649.875 240.938 645.156 240.938ZM645.156 238.438C648.438 238.438 650.75 235.969 650.75 232.438C650.75 228.906 648.438 226.438 645.156 226.438C641.875 226.438 639.562 228.906 639.562 232.438C639.562 235.969 641.875 238.438 645.156 238.438Z" fill="black"/>
<path d="M630.812 240.5V224.375H633.438V240.5H630.812ZM632.125 221C631.125 221 630.375 220.25 630.375 219.25C630.375 218.25 631.125 217.5 632.125 217.5C633.125 217.5 633.875 218.25 633.875 219.25C633.875 220.25 633.125 221 632.125 221Z" fill="black"/>
<path d="M618 226.562V224.375H620.75V220.375H623.375V224.375H627.375V226.562H623.375V235.812C623.375 237.562 624.125 238.375 625.75 238.375C626.25 238.375 626.812 238.281 627.375 238.125V240.594C626.875 240.781 626.188 240.938 625.375 240.938C622.531 240.938 620.75 239 620.75 235.906V226.562H618Z" fill="black"/>
<path d="M607.062 238.438C610.125 238.438 612.312 235.969 612.312 232.438C612.312 228.906 610.125 226.438 607.062 226.438C603.969 226.438 601.812 228.938 601.812 232.438C601.812 235.938 603.969 238.438 607.062 238.438ZM614.812 240.5H612.188V237.969H612.094C610.984 239.891 609.188 240.938 606.812 240.938C602.344 240.938 599.125 237.281 599.125 232.438C599.125 227.594 602.344 223.938 606.812 223.938C609.188 223.938 610.984 224.984 612.094 226.906H612.188V224.375H614.812V240.5Z" fill="black"/>
<path d="M588.719 240.5V224.375H591.344V226.875H591.469C592.266 225.125 593.859 223.938 595.688 223.938C596.281 223.938 596.844 224.062 597.375 224.281V226.875C596.781 226.688 596.188 226.594 595.625 226.594C592.938 226.594 591.344 228.75 591.344 232.438V240.5H588.719Z" fill="black"/>
<path d="M575.906 226.562V224.375H578.656V220.375H581.281V224.375H585.281V226.562H581.281V235.812C581.281 237.562 582.031 238.375 583.656 238.375C584.156 238.375 584.719 238.281 585.281 238.125V240.594C584.781 240.781 584.094 240.938 583.281 240.938C580.438 240.938 578.656 239 578.656 235.906V226.562H575.906Z" fill="black"/>
<path d="M567.719 240.938C565.094 240.938 563 239.906 561.469 237.875L563.594 236.375C564.656 237.812 565.906 238.438 567.719 238.438C569.969 238.438 571.281 237.5 571.281 235.906C571.281 234.656 570.438 234.031 567.844 233.375L566.969 233.156C563.625 232.312 562.031 230.875 562.031 228.688C562.031 225.969 564.469 223.938 567.719 223.938C570.125 223.938 572.344 225.062 573.625 226.969L571.438 228.406C570.531 227.125 569.25 226.438 567.719 226.438C565.938 226.438 564.719 227.344 564.719 228.688C564.719 229.688 565.375 230.156 567.594 230.719L568.469 230.938C572.281 231.875 573.969 233.406 573.969 235.906C573.969 238.906 571.438 240.938 567.719 240.938Z" fill="black"/>
<path d="M558.031 224.375V240.5H555.406V238.156H555.312C554.5 239.875 552.766 240.938 550.469 240.938C546.875 240.938 544.906 238.406 544.906 234.25V224.375H547.531V233.875C547.531 236.844 548.781 238.438 551.031 238.438C553.281 238.438 555.406 236.844 555.406 233.375V224.375H558.031Z" fill="black"/>
<path d="M538.094 240.5V216.875H540.719V240.5H538.094Z" fill="#0066FF"/>
<path d="M531.281 240.5V216.875H533.906V240.5H531.281Z" fill="#0066FF"/>
<path d="M524.219 240.5V217.875H526.969V240.5H524.219Z" fill="black"/>
<path d="M793.562 190.375C796.688 190.375 798.875 188.625 798.875 186.125C798.875 183.625 796.688 181.875 793.562 181.875C790.438 181.875 788.25 183.625 788.25 186.125C788.25 188.625 790.438 190.375 793.562 190.375ZM793.562 179.375C795.906 179.375 797.562 177.844 797.562 175.688C797.562 173.531 795.906 172 793.562 172C791.219 172 789.562 173.531 789.562 175.688C789.562 177.844 791.219 179.375 793.562 179.375ZM785.5 186.25C785.5 183.641 787.188 181.422 790.25 180.5V180.406C788.047 179.609 786.844 177.906 786.844 175.625C786.844 172.094 789.719 169.438 793.562 169.438C797.406 169.438 800.281 172.094 800.281 175.625C800.281 177.906 799.078 179.609 796.875 180.406V180.5C799.953 181.422 801.625 183.641 801.625 186.25C801.625 190.031 798.156 192.938 793.562 192.938C788.969 192.938 785.5 190.031 785.5 186.25Z" fill="black"/>
<path d="M774.469 192.938C769.094 192.938 766.125 188.594 766.125 181.719C766.125 173.812 770 169.438 775.156 169.438C777.938 169.438 780.375 170.719 781.875 172.906L779.562 174.344C778.531 172.75 776.844 172 775.156 172C771.781 172 769.078 174.984 768.906 181.031H769.031C770.297 179.031 772.469 177.812 775.031 177.812C779.094 177.812 782.25 180.938 782.25 185.375C782.25 189.844 779.031 192.938 774.469 192.938ZM774.469 190.375C777.406 190.375 779.5 188.312 779.5 185.375C779.5 182.438 777.406 180.375 774.469 180.375C771.531 180.375 769.438 182.438 769.438 185.375C769.438 188.312 771.531 190.375 774.469 190.375Z" fill="black"/>
<path d="M748.25 172.438V169.875H763.125V172.438C758.312 178.312 755.688 184.906 755.062 192.5H752.5C753.062 185.078 755.438 178.5 759.781 172.562V172.438H748.25Z" fill="black"/>
<path d="M729.406 182.906L730.594 169.844H743.25V172.406H733.125L732.375 180.219H732.5C733.719 178.719 735.531 177.812 737.625 177.812C741.562 177.812 744.75 181.031 744.75 185.375C744.75 189.812 741.438 192.938 736.75 192.938C733.156 192.938 730.281 191.062 728.625 187.656L731.094 186.531C732.344 189.125 734.25 190.375 736.75 190.375C739.906 190.375 742 188.375 742 185.375C742 182.375 739.906 180.375 736.781 180.375C734.625 180.375 732.953 181.328 732.125 182.906H729.406Z" fill="black"/>
<path d="M725.125 179.906V182.469H715.125V179.906H725.125Z" fill="#0066FF"/>
<path d="M694.75 187.406V184.844L703.531 169.875H706.594L697.969 184.625V184.844H705.906V177.75H708.594V184.844H712.125V187.406H708.594V192.5H705.906V187.406H694.75Z" fill="black"/>
<path d="M676.5 189.938C684.5 184.469 688.156 180.188 688.156 176.375C688.156 173.594 686.281 172 683.594 172C681.5 172 679.969 172.969 679.125 175.75L676.5 175C677.688 171.094 680.344 169.438 683.594 169.438C687.719 169.438 690.906 172.094 690.906 176.375C690.906 180.781 687.188 185.109 680.906 189.812V189.938H691.25V192.5H676.5V189.938Z" fill="black"/>
<path d="M664.875 192.938C661.125 192.938 658.375 191.031 656.75 187.656L659.219 186.531C660.469 189.125 662.344 190.375 664.875 190.375C667.906 190.375 670.125 188.594 670.125 186.125C670.125 183.5 667.625 181.906 663.5 181.906H662.75V179.344H663.5C667.094 179.344 669.219 178 669.219 175.688C669.219 173.531 667.375 172 664.812 172C662.625 172 660.906 173.125 659.875 175.25L657.406 174.125C658.906 171.031 661.625 169.438 664.812 169.438C668.906 169.438 671.969 172.094 671.969 175.625C671.969 178.094 670.469 179.781 667.688 180.562V180.656C670.984 181.547 672.875 183.531 672.875 186.312C672.875 190.094 669.438 192.938 664.875 192.938Z" fill="black"/>
<path d="M643.25 173.875C645.031 172.812 646.812 171.5 648.688 169.875H651.375V192.5H648.688V173.344H648.562C646.828 174.719 645.016 175.922 643.25 176.844V173.875Z" fill="black"/>
<path d="M639.5 179.906V182.469H629.5V179.906H639.5Z" fill="#0066FF"/>
<path d="M617.625 192.938C612.469 192.938 609.25 188.406 609.25 181.188C609.25 173.969 612.469 169.438 617.625 169.438C622.781 169.438 626 173.969 626 181.188C626 188.406 622.781 192.938 617.625 192.938ZM617.625 190.375C621.062 190.375 623.25 186.812 623.25 181.188C623.25 175.562 621.062 172 617.625 172C614.188 172 612 175.562 612 181.188C612 186.812 614.188 190.375 617.625 190.375Z" fill="black"/>
<path d="M595.75 173.875C597.531 172.812 599.312 171.5 601.188 169.875H603.875V192.5H601.188V173.344H601.062C599.328 174.719 597.516 175.922 595.75 176.844V173.875Z" fill="black"/>
<path d="M592 179.906V182.469H582V179.906H592Z" fill="#0066FF"/>
<path d="M563.375 189.938C571.375 184.469 575.031 180.188 575.031 176.375C575.031 173.594 573.156 172 570.469 172C568.375 172 566.844 172.969 566 175.75L563.375 175C564.562 171.094 567.219 169.438 570.469 169.438C574.594 169.438 577.781 172.094 577.781 176.375C577.781 180.781 574.062 185.109 567.781 189.812V189.938H578.125V192.5H563.375V189.938Z" fill="black"/>
<path d="M551.688 190.375C554.812 190.375 557 188.625 557 186.125C557 183.625 554.812 181.875 551.688 181.875C548.562 181.875 546.375 183.625 546.375 186.125C546.375 188.625 548.562 190.375 551.688 190.375ZM551.688 179.375C554.031 179.375 555.688 177.844 555.688 175.688C555.688 173.531 554.031 172 551.688 172C549.344 172 547.688 173.531 547.688 175.688C547.688 177.844 549.344 179.375 551.688 179.375ZM543.625 186.25C543.625 183.641 545.312 181.422 548.375 180.5V180.406C546.172 179.609 544.969 177.906 544.969 175.625C544.969 172.094 547.844 169.438 551.688 169.438C555.531 169.438 558.406 172.094 558.406 175.625C558.406 177.906 557.203 179.609 555 180.406V180.5C558.078 181.422 559.75 183.641 559.75 186.25C559.75 190.031 556.281 192.938 551.688 192.938C547.094 192.938 543.625 190.031 543.625 186.25Z" fill="black"/>
<path d="M540.125 179.906V182.469H533.375V189.312H530.625V182.469H523.875V179.906H530.625V173.062H533.375V179.906H540.125Z" fill="#0066FF"/>
<path d="M741.25 142.438C744.312 142.438 746.5 139.969 746.5 136.438C746.5 132.906 744.312 130.438 741.25 130.438C738.156 130.438 736 132.938 736 136.438C736 139.938 738.156 142.438 741.25 142.438ZM749 144.5H746.375V141.969H746.281C745.172 143.891 743.375 144.938 741 144.938C736.531 144.938 733.312 141.281 733.312 136.438C733.312 131.594 736.531 127.938 741 127.938C743.375 127.938 745.172 128.984 746.281 130.906H746.375V128.375H749V144.5Z" fill="black"/>
<path d="M728.219 144.75C727.094 144.75 726.281 143.938 726.281 142.812C726.281 141.688 727.094 140.875 728.219 140.875C729.344 140.875 730.156 141.688 730.156 142.812C730.156 143.938 729.344 144.75 728.219 144.75ZM728.219 132.625C727.094 132.625 726.281 131.812 726.281 130.688C726.281 129.562 727.094 128.75 728.219 128.75C729.344 128.75 730.156 129.562 730.156 130.688C730.156 131.812 729.344 132.625 728.219 132.625Z" fill="black"/>
<path d="M720.5 144.5L718.031 137.906H708.219L705.75 144.5H702.75L711.406 121.875H714.844L723.5 144.5H720.5ZM709.188 135.344H717.094L713.188 124.969H713.062L709.188 135.344Z" fill="black"/>
<path d="M689.219 119.312V128.438H693.375V130.5H689.219V140.094H686.75V119.312H689.219ZM684.125 122.688V124.688H667.594V122.688H674.625V119.281H677.094V122.688H684.125ZM675.844 126.25C679.797 126.25 682.531 128.297 682.531 131.406C682.531 134.516 679.797 136.562 675.844 136.562C671.844 136.562 669.141 134.516 669.156 131.406C669.141 128.297 671.844 126.25 675.844 126.25ZM675.844 128.156C673.25 128.172 671.469 129.453 671.469 131.406C671.469 133.344 673.25 134.625 675.844 134.625C678.422 134.625 680.188 133.344 680.188 131.406C680.188 129.453 678.406 128.172 675.844 128.156ZM690.5 144.375V146.406H671.812V138.438H674.281V144.375H690.5Z" fill="black"/>
<path d="M662.375 141.188C661.25 141.188 660.438 140.375 660.438 139.25C660.438 138.125 661.25 137.312 662.375 137.312C663.5 137.312 664.312 138.125 664.312 139.25C664.312 140.375 663.5 141.188 662.375 141.188ZM662.375 129.062C661.25 129.062 660.438 128.25 660.438 127.125C660.438 126 661.25 125.188 662.375 125.188C663.5 125.188 664.312 126 664.312 127.125C664.312 128.25 663.5 129.062 662.375 129.062Z" fill="#0066FF"/>
<path d="M654.656 144.5L652.188 137.906H642.375L639.906 144.5H636.906L645.562 121.875H649L657.656 144.5H654.656ZM643.344 135.344H651.25L647.344 124.969H647.219L643.344 135.344Z" fill="black"/>
<path d="M624.469 144.5L622 137.906H612.188L609.719 144.5H606.719L615.375 121.875H618.812L627.469 144.5H624.469ZM613.156 135.344H621.062L617.156 124.969H617.031L613.156 135.344Z" fill="black"/>
<path d="M602 141.188C600.875 141.188 600.062 140.375 600.062 139.25C600.062 138.125 600.875 137.312 602 137.312C603.125 137.312 603.938 138.125 603.938 139.25C603.938 140.375 603.125 141.188 602 141.188ZM602 129.062C600.875 129.062 600.062 128.25 600.062 127.125C600.062 126 600.875 125.188 602 125.188C603.125 125.188 603.938 126 603.938 127.125C603.938 128.25 603.125 129.062 602 129.062Z" fill="#0066FF"/>
<path d="M588 144.938C582.844 144.938 579.625 140.406 579.625 133.188C579.625 125.969 582.844 121.438 588 121.438C593.156 121.438 596.375 125.969 596.375 133.188C596.375 140.406 593.156 144.938 588 144.938ZM588 142.375C591.438 142.375 593.625 138.812 593.625 133.188C593.625 127.562 591.438 124 588 124C584.562 124 582.375 127.562 582.375 133.188C582.375 138.812 584.562 142.375 588 142.375Z" fill="black"/>
<path d="M560 144.938C554.844 144.938 551.625 140.406 551.625 133.188C551.625 125.969 554.844 121.438 560 121.438C565.156 121.438 568.375 125.969 568.375 133.188C568.375 140.406 565.156 144.938 560 144.938ZM560 142.375C563.438 142.375 565.625 138.812 565.625 133.188C565.625 127.562 563.438 124 560 124C556.562 124 554.375 127.562 554.375 133.188C554.375 138.812 556.562 142.375 560 142.375Z" fill="black"/>
<path d="M546 141.188C544.875 141.188 544.062 140.375 544.062 139.25C544.062 138.125 544.875 137.312 546 137.312C547.125 137.312 547.938 138.125 547.938 139.25C547.938 140.375 547.125 141.188 546 141.188ZM546 129.062C544.875 129.062 544.062 128.25 544.062 127.125C544.062 126 544.875 125.188 546 125.188C547.125 125.188 547.938 126 547.938 127.125C547.938 128.25 547.125 129.062 546 129.062Z" fill="#0066FF"/>
<path d="M532 144.938C526.844 144.938 523.625 140.406 523.625 133.188C523.625 125.969 526.844 121.438 532 121.438C537.156 121.438 540.375 125.969 540.375 133.188C540.375 140.406 537.156 144.938 532 144.938ZM532 142.375C535.438 142.375 537.625 138.812 537.625 133.188C537.625 127.562 535.438 124 532 124C528.562 124 526.375 127.562 526.375 133.188C526.375 138.812 528.562 142.375 532 142.375Z" fill="black"/>
<path d="M838.938 336.75C837.812 336.75 837 335.938 837 334.812C837 333.688 837.812 332.875 838.938 332.875C840.062 332.875 840.875 333.688 840.875 334.812C840.875 335.938 840.062 336.75 838.938 336.75Z" fill="black"/>
<path d="M815.938 327.125C814.812 327.125 814 326.312 814 325.188C814 324.062 814.812 323.25 815.938 323.25C817.062 323.25 817.875 324.062 817.875 325.188C817.875 326.312 817.062 327.125 815.938 327.125ZM823.438 327.125C822.312 327.125 821.5 326.312 821.5 325.188C821.5 324.062 822.312 323.25 823.438 323.25C824.562 323.25 825.375 324.062 825.375 325.188C825.375 326.312 824.562 327.125 823.438 327.125ZM830.938 327.125C829.812 327.125 829 326.312 829 325.188C829 324.062 829.812 323.25 830.938 323.25C832.062 323.25 832.875 324.062 832.875 325.188C832.875 326.312 832.062 327.125 830.938 327.125Z" fill="#0066FF"/>
<path d="M792.938 327.125C791.812 327.125 791 326.312 791 325.188C791 324.062 791.812 323.25 792.938 323.25C794.062 323.25 794.875 324.062 794.875 325.188C794.875 326.312 794.062 327.125 792.938 327.125ZM800.438 327.125C799.312 327.125 798.5 326.312 798.5 325.188C798.5 324.062 799.312 323.25 800.438 323.25C801.562 323.25 802.375 324.062 802.375 325.188C802.375 326.312 801.562 327.125 800.438 327.125ZM807.938 327.125C806.812 327.125 806 326.312 806 325.188C806 324.062 806.812 323.25 807.938 323.25C809.062 323.25 809.875 324.062 809.875 325.188C809.875 326.312 809.062 327.125 807.938 327.125Z" fill="#0066FF"/>
<path d="M776.5 312.75V314.938C776.484 317.25 776.484 319.906 775.812 323.5H779.812V325.531H768.438V332.219H765.969V325.531H754.406V323.5H773.344C774.078 319.906 774.078 317.25 774.094 314.938V314.781H757.656V312.75H776.5ZM777.062 336.375V338.406H757.625V329.75H760.094V336.375H777.062Z" fill="black"/>
<path d="M749.781 311.281V326.531H747.281V318.75H742V316.75H747.281V311.281H749.781ZM750.406 328.125V330H730.906V328.125H739.438V325.469H741.906V328.125H750.406ZM740.656 331.188C745.594 331.203 748.469 332.562 748.469 335.062C748.469 337.609 745.578 338.984 740.656 338.969C735.734 338.984 732.828 337.609 732.844 335.062C732.828 332.562 735.719 331.203 740.656 331.188ZM740.656 332.969C737.219 332.969 735.203 333.719 735.219 335.062C735.203 336.453 737.188 337.219 740.656 337.219C744.109 337.219 746.078 336.453 746.094 335.062C746.078 333.719 744.078 332.969 740.656 332.969ZM740.25 312.531V319.438H730.344V322.75C734.969 322.766 738.469 322.609 742.531 321.906L742.781 323.844C738.5 324.562 734.938 324.719 730 324.719H727.906V317.625H737.812V314.469H727.844V312.531H740.25Z" fill="black"/>
<path d="M721 314.219V316.969C720.984 320.516 720.984 324.484 719.938 330.5L717.469 330.219C718.578 324.562 718.578 320.406 718.594 316.969V316.25H701.875V314.219H721ZM724.406 332.906V334.969H699.094V332.906H724.406Z" fill="black"/>
<path d="M670.969 327.125C669.844 327.125 669.031 326.312 669.031 325.188C669.031 324.062 669.844 323.25 670.969 323.25C672.094 323.25 672.906 324.062 672.906 325.188C672.906 326.312 672.094 327.125 670.969 327.125ZM678.469 327.125C677.344 327.125 676.531 326.312 676.531 325.188C676.531 324.062 677.344 323.25 678.469 323.25C679.594 323.25 680.406 324.062 680.406 325.188C680.406 326.312 679.594 327.125 678.469 327.125ZM685.969 327.125C684.844 327.125 684.031 326.312 684.031 325.188C684.031 324.062 684.844 323.25 685.969 323.25C687.094 323.25 687.906 324.062 687.906 325.188C687.906 326.312 687.094 327.125 685.969 327.125Z" fill="#0066FF"/>
<path d="M647.969 327.125C646.844 327.125 646.031 326.312 646.031 325.188C646.031 324.062 646.844 323.25 647.969 323.25C649.094 323.25 649.906 324.062 649.906 325.188C649.906 326.312 649.094 327.125 647.969 327.125ZM655.469 327.125C654.344 327.125 653.531 326.312 653.531 325.188C653.531 324.062 654.344 323.25 655.469 323.25C656.594 323.25 657.406 324.062 657.406 325.188C657.406 326.312 656.594 327.125 655.469 327.125ZM662.969 327.125C661.844 327.125 661.031 326.312 661.031 325.188C661.031 324.062 661.844 323.25 662.969 323.25C664.094 323.25 664.906 324.062 664.906 325.188C664.906 326.312 664.094 327.125 662.969 327.125Z" fill="#0066FF"/>
<path d="M620.781 314.281V324H612.75V330.312C616.016 330.297 618.938 330.141 622.562 329.531L622.781 331.562C618.844 332.266 615.594 332.375 612.219 332.375H610.375V321.969H618.406V316.344H610.312V314.281H620.781ZM633.188 311.281V339.031H630.812V324.281H626.75V337.594H624.469V311.875H626.75V322.25H630.812V311.281H633.188Z" fill="black"/>
<path d="M603.688 314.219V316.969C603.672 320.516 603.672 324.484 602.625 330.5L600.156 330.219C601.266 324.562 601.266 320.406 601.281 316.969V316.25H584.562V314.219H603.688ZM607.094 332.906V334.969H581.781V332.906H607.094Z" fill="black"/>
<path d="M553.656 327.125C552.531 327.125 551.719 326.312 551.719 325.188C551.719 324.062 552.531 323.25 553.656 323.25C554.781 323.25 555.594 324.062 555.594 325.188C555.594 326.312 554.781 327.125 553.656 327.125ZM561.156 327.125C560.031 327.125 559.219 326.312 559.219 325.188C559.219 324.062 560.031 323.25 561.156 323.25C562.281 323.25 563.094 324.062 563.094 325.188C563.094 326.312 562.281 327.125 561.156 327.125ZM568.656 327.125C567.531 327.125 566.719 326.312 566.719 325.188C566.719 324.062 567.531 323.25 568.656 323.25C569.781 323.25 570.594 324.062 570.594 325.188C570.594 326.312 569.781 327.125 568.656 327.125Z" fill="#0066FF"/>
<path d="M548.438 324.781V326.781H523.125V324.781H548.438ZM535.75 329.125C541.734 329.141 545.328 330.891 545.344 334.062C545.328 337.25 541.734 339.031 535.75 339.031C529.75 339.031 526.156 337.25 526.156 334.062C526.156 330.891 529.766 329.141 535.75 329.125ZM535.75 331.031C531.328 331.047 528.641 332.141 528.656 334.062C528.641 336 531.312 337.094 535.75 337.094C540.188 337.094 542.844 336 542.844 334.062C542.844 332.141 540.156 331.047 535.75 331.031ZM535.75 311.969C541.797 311.969 545.594 313.953 545.594 317.25C545.594 320.547 541.797 322.531 535.75 322.531C529.719 322.531 525.922 320.547 525.938 317.25C525.922 313.953 529.719 311.969 535.75 311.969ZM535.75 313.906C531.281 313.922 528.453 315.156 528.469 317.25C528.453 319.328 531.281 320.562 535.75 320.562C540.234 320.562 543.062 319.328 543.062 317.25C543.062 315.156 540.234 313.922 535.75 313.906Z" fill="black"/>
</svg>
