<svg width="1012" height="177" viewBox="0 0 1012 177" fill="none" xmlns="http://www.w3.org/2000/svg">
<rect x="0.5" y="0.5" width="1011" height="176" rx="15.5" stroke="#70737C" stroke-opacity="0.16"/>
<rect x="32" y="32" width="52" height="24" rx="4" fill="#70737C" fill-opacity="0.08"/>
<path d="M43.1641 49.6719C40.8047 49.6719 39.3125 48.2031 39.3125 45.875V44.5703C39.3125 42.2422 40.8047 40.7734 43.1641 40.7734C45.5234 40.7734 47.0156 42.2422 47.0156 44.5703V45.875C47.0156 48.2031 45.5234 49.6719 43.1641 49.6719ZM43.1641 42.2812C41.8984 42.2812 41.1094 43.1953 41.1094 44.6719V45.7734C41.1094 47.25 41.8984 48.1641 43.1641 48.1641C44.4297 48.1641 45.2188 47.25 45.2188 45.7734V44.6719C45.2188 43.1953 44.4297 42.2812 43.1641 42.2812ZM52.8281 43.1328H53.0938C53.4453 41.4844 54.3984 40.7188 56.0234 40.7188C56.5078 40.7188 56.9531 40.7812 57.25 40.8984V42.875C56.8672 42.7266 56.3047 42.6328 55.8359 42.6328C53.8594 42.6328 52.8203 43.7109 52.8203 45.6875V48.1406H55.3672V49.5H49.4062V48.1406H51.0703V42.3047H49.2422V40.9453H52.8281V43.1328ZM60.8281 44.5312V45.8672C60.8281 47.2109 61.5859 48.0469 62.8125 48.0469C64.0312 48.0469 64.7891 47.2109 64.7891 45.8672V44.5312C64.7891 43.1797 64.0312 42.3438 62.8125 42.3438C61.5859 42.3438 60.8281 43.1875 60.8281 44.5312ZM64.7812 48.0938H64.625C64.2656 49.0938 63.3984 49.6328 62.1562 49.6328C60.1953 49.6328 58.9766 48.2578 58.9766 45.9766V44.4531C58.9766 42.1797 60.1953 40.7969 62.1562 40.7969C63.3906 40.7969 64.2734 41.3516 64.5938 42.3438H64.75V37.6406H66.625V49.5H64.7812V48.0938ZM69.1406 49.5V40.9453H70.8984V42.4062H71.0234C71.4609 41.3594 72.4062 40.7734 73.6641 40.7734C75.5234 40.7734 76.5312 41.8828 76.5312 43.9531V49.5H74.7109V44.3984C74.7109 43.0234 74.1484 42.3672 72.9766 42.3672C71.7578 42.3672 70.9609 43.2188 70.9609 44.5156V49.5H69.1406Z" fill="black"/>
<rect x="32" y="88" width="948" height="1" fill="#70737C" fill-opacity="0.16"/>
<path d="M42 144.938C36.8438 144.938 33.625 140.406 33.625 133.188C33.625 125.969 36.8438 121.438 42 121.438C47.1562 121.438 50.375 125.969 50.375 133.188C50.375 140.406 47.1562 144.938 42 144.938ZM42 142.375C45.4375 142.375 47.625 138.812 47.625 133.188C47.625 127.562 45.4375 124 42 124C38.5625 124 36.375 127.562 36.375 133.188C36.375 138.812 38.5625 142.375 42 142.375ZM69.0938 144.5L66.625 137.906H56.8125L54.3438 144.5H51.3438L60 121.875H63.4375L72.0938 144.5H69.0938ZM57.7812 135.344H65.6875L61.7812 124.969H61.6562L57.7812 135.344ZM82.6875 125.875C84.4688 124.812 86.25 123.5 88.125 121.875H90.8125V144.5H88.125V125.344H88C86.2656 126.719 84.4531 127.922 82.6875 128.844V125.875ZM104.188 144.938C99.4688 144.938 95.9062 141.281 95.9062 136.438C95.9062 131.594 99.4688 127.938 104.188 127.938C108.906 127.938 112.469 131.594 112.469 136.438C112.469 141.281 108.906 144.938 104.188 144.938ZM104.188 142.438C107.469 142.438 109.781 139.969 109.781 136.438C109.781 132.906 107.469 130.438 104.188 130.438C100.906 130.438 98.5938 132.906 98.5938 136.438C98.5938 139.969 100.906 142.438 104.188 142.438Z" fill="#2A2A2A" fill-opacity="0.28"/>
<path d="M532 144.938C526.844 144.938 523.625 140.406 523.625 133.188C523.625 125.969 526.844 121.438 532 121.438C537.156 121.438 540.375 125.969 540.375 133.188C540.375 140.406 537.156 144.938 532 144.938ZM532 142.375C535.438 142.375 537.625 138.812 537.625 133.188C537.625 127.562 535.438 124 532 124C528.562 124 526.375 127.562 526.375 133.188C526.375 138.812 528.562 142.375 532 142.375ZM547.375 128.188C549.031 128.188 550.25 126.844 550.25 124.938C550.25 123.031 549.062 121.688 547.375 121.688C545.656 121.688 544.469 123.062 544.469 124.938C544.469 126.812 545.656 128.188 547.375 128.188ZM552.25 129.875H550.188V128.375H550.125C549.469 129.531 548.422 130.125 547.031 130.125C544.312 130.125 542.375 127.875 542.375 124.938C542.375 122 544.312 119.75 547.031 119.75C548.406 119.75 549.453 120.328 550.125 121.469H550.188V120H552.25V129.875ZM563.344 125.875C565.125 124.812 566.906 123.5 568.781 121.875H571.469V144.5H568.781V125.344H568.656C566.922 126.719 565.109 127.922 563.344 128.844V125.875ZM581.062 130.125C578.156 130.125 575.969 127.875 575.969 124.938C575.969 121.969 578.188 119.75 581.062 119.75C583.969 119.75 586.188 121.969 586.188 124.938C586.188 127.875 584 130.125 581.062 130.125ZM581.062 128.188C582.844 128.188 584.125 126.844 584.125 124.938C584.125 123.031 582.875 121.688 581.062 121.688C579.281 121.688 578.031 123.031 578.031 124.938C578.031 126.844 579.312 128.188 581.062 128.188Z" fill="black"/>
<path d="M581.062 130.125C578.156 130.125 575.969 127.875 575.969 124.938C575.969 121.969 578.188 119.75 581.062 119.75C583.969 119.75 586.188 121.969 586.188 124.938C586.188 127.875 584 130.125 581.062 130.125ZM581.062 128.188C582.844 128.188 584.125 126.844 584.125 124.938C584.125 123.031 582.875 121.688 581.062 121.688C579.281 121.688 578.031 123.031 578.031 124.938C578.031 126.844 579.312 128.188 581.062 128.188Z" fill="#0066FF"/>
<path d="M563.344 125.875C565.125 124.812 566.906 123.5 568.781 121.875H571.469V144.5H568.781V125.344H568.656C566.922 126.719 565.109 127.922 563.344 128.844V125.875Z" fill="black"/>
<path d="M547.375 128.188C549.031 128.188 550.25 126.844 550.25 124.938C550.25 123.031 549.062 121.688 547.375 121.688C545.656 121.688 544.469 123.062 544.469 124.938C544.469 126.812 545.656 128.188 547.375 128.188ZM552.25 129.875H550.188V128.375H550.125C549.469 129.531 548.422 130.125 547.031 130.125C544.312 130.125 542.375 127.875 542.375 124.938C542.375 122 544.312 119.75 547.031 119.75C548.406 119.75 549.453 120.328 550.125 121.469H550.188V120H552.25V129.875Z" fill="#0066FF"/>
<path d="M532 144.938C526.844 144.938 523.625 140.406 523.625 133.188C523.625 125.969 526.844 121.438 532 121.438C537.156 121.438 540.375 125.969 540.375 133.188C540.375 140.406 537.156 144.938 532 144.938ZM532 142.375C535.438 142.375 537.625 138.812 537.625 133.188C537.625 127.562 535.438 124 532 124C528.562 124 526.375 127.562 526.375 133.188C526.375 138.812 528.562 142.375 532 142.375Z" fill="black"/>
</svg>
