<svg width="1012" height="177" viewBox="0 0 1012 177" fill="none" xmlns="http://www.w3.org/2000/svg">
<rect x="0.5" y="0.5" width="1011" height="176" rx="15.5" stroke="#70737C" stroke-opacity="0.16"/>
<rect x="32" y="32" width="52" height="24" rx="4" fill="#70737C" fill-opacity="0.08"/>
<path d="M39.8359 43.3672C39.8359 41.7734 41.1484 40.7578 43.1719 40.7578C45.1328 40.7578 46.375 41.6641 46.4922 43.2031H44.7734C44.6484 42.5625 44.0312 42.1641 43.1484 42.1641C42.2344 42.1641 41.6328 42.5859 41.6328 43.2266C41.6328 43.7734 42.0234 44.0859 42.9531 44.2891L44.2266 44.5625C45.9375 44.9297 46.6953 45.6562 46.6953 46.9375C46.6953 48.6016 45.3281 49.6719 43.1797 49.6719C41.0859 49.6719 39.7578 48.7422 39.6328 47.1953H41.4375C41.5938 47.8672 42.2422 48.25 43.2109 48.25C44.2031 48.25 44.8281 47.8125 44.8281 47.1484C44.8281 46.5859 44.4688 46.2969 43.4922 46.0859L42.2109 45.8047C40.6328 45.4531 39.8359 44.6406 39.8359 43.3672ZM49.7266 43.3672C49.7266 41.7734 51.0391 40.7578 53.0625 40.7578C55.0234 40.7578 56.2656 41.6641 56.3828 43.2031H54.6641C54.5391 42.5625 53.9219 42.1641 53.0391 42.1641C52.125 42.1641 51.5234 42.5859 51.5234 43.2266C51.5234 43.7734 51.9141 44.0859 52.8438 44.2891L54.1172 44.5625C55.8281 44.9297 56.5859 45.6562 56.5859 46.9375C56.5859 48.6016 55.2188 49.6719 53.0703 49.6719C50.9766 49.6719 49.6484 48.7422 49.5234 47.1953H51.3281C51.4844 47.8672 52.1328 48.25 53.1016 48.25C54.0938 48.25 54.7188 47.8125 54.7188 47.1484C54.7188 46.5859 54.3594 46.2969 53.3828 46.0859L52.1016 45.8047C50.5234 45.4531 49.7266 44.6406 49.7266 43.3672ZM65.1484 43.1953L61 46.2578C61.3359 47.5078 62 48.1641 62.9531 48.1641C64.3906 48.1641 65.1641 46.6641 65.1641 43.8594C65.1641 43.625 65.1562 43.4062 65.1484 43.1953ZM60.75 44.5312L64.9062 41.4844C64.5703 40.2266 63.9062 39.5625 62.9531 39.5625C61.5078 39.5625 60.7344 41.0625 60.7344 43.8594C60.7344 44.0938 60.7422 44.3203 60.75 44.5312ZM62.9531 37.9844C65.5547 37.9844 67.0156 40.0938 67.0156 43.8594C67.0156 47.6328 65.5547 49.7422 62.9531 49.7422C60.3438 49.7422 58.8828 47.6328 58.8828 43.8594C58.8828 40.0938 60.3438 37.9844 62.9531 37.9844ZM71.4609 44.4375V42.9844H72.7422C73.9219 42.9844 74.7188 42.2734 74.7188 41.2344C74.7188 40.2031 73.9453 39.5469 72.7656 39.5469C71.5859 39.5469 70.8125 40.2188 70.7266 41.3047H69C69.1094 39.2578 70.5625 38 72.8281 38C75.0078 38 76.5156 39.2109 76.5156 40.9609C76.5156 42.2969 75.7734 43.2734 74.5469 43.5469V43.6797C76.0625 43.8672 76.9688 44.8828 76.9688 46.3984C76.9688 48.3594 75.2812 49.7266 72.8672 49.7266C70.5 49.7266 68.8906 48.4062 68.7891 46.3672H70.5469C70.6406 47.4297 71.5234 48.1094 72.8203 48.1094C74.2031 48.1094 75.0781 47.4062 75.0781 46.2969C75.0781 45.1641 74.1797 44.4375 72.7812 44.4375H71.4609Z" fill="black"/>
<rect x="32" y="88" width="948" height="1" fill="#70737C" fill-opacity="0.16"/>
<path d="M34 141.938C42 136.469 45.6562 132.188 45.6562 128.375C45.6562 125.594 43.7812 124 41.0938 124C39 124 37.4688 124.969 36.625 127.75L34 127C35.1875 123.094 37.8438 121.438 41.0938 121.438C45.2188 121.438 48.4062 124.094 48.4062 128.375C48.4062 132.781 44.6875 137.109 38.4062 141.812V141.938H48.75V144.5H34V141.938ZM60.5 144.938C56.75 144.938 54 143.031 52.375 139.656L54.8438 138.531C56.0938 141.125 57.9688 142.375 60.5 142.375C63.5312 142.375 65.75 140.594 65.75 138.125C65.75 135.5 63.25 133.906 59.125 133.906H58.375V131.344H59.125C62.7188 131.344 64.8438 130 64.8438 127.688C64.8438 125.531 63 124 60.4375 124C58.25 124 56.5312 125.125 55.5 127.25L53.0312 126.125C54.5312 123.031 57.25 121.438 60.4375 121.438C64.5312 121.438 67.5938 124.094 67.5938 127.625C67.5938 130.094 66.0938 131.781 63.3125 132.562V132.656C66.6094 133.547 68.5 135.531 68.5 138.312C68.5 142.094 65.0625 144.938 60.5 144.938ZM80.2188 144.5V128.375H82.8438V130.875H82.9688C83.7656 129.125 85.3594 127.938 87.1875 127.938C87.7812 127.938 88.3438 128.062 88.875 128.281V130.875C88.2812 130.688 87.6875 130.594 87.125 130.594C84.4375 130.594 82.8438 132.75 82.8438 136.438V144.5H80.2188ZM99.0312 144.938C94.1875 144.938 90.625 141.281 90.625 136.438C90.625 131.594 94.0938 127.938 98.7188 127.938C103.344 127.938 106.562 131.594 106.562 136.438L106.531 137.344H93.375C93.7344 140.438 96.0156 142.438 99.0938 142.438C101.312 142.438 102.906 141.391 103.719 139.656L106.031 140.656C104.797 143.25 102.344 144.938 99.0312 144.938ZM93.5 134.781H103.688C103.5 132.328 101.5 130.438 98.7188 130.438C96.0625 130.438 94.0781 132.156 93.5 134.781ZM108.375 130.562V128.375H111.125V126.469C111.125 123.375 112.969 121.438 115.875 121.438C116.781 121.438 117.531 121.625 118.125 121.844V124.312C117.438 124.094 116.812 124 116.25 124C114.562 124 113.75 124.844 113.75 126.562V128.375H118.125V130.562H113.75V144.5H111.125V130.562H108.375ZM121.438 144.5V128.375H124.062V130.875H124.188C124.984 129.125 126.578 127.938 128.406 127.938C129 127.938 129.562 128.062 130.094 128.281V130.875C129.5 130.688 128.906 130.594 128.344 130.594C125.656 130.594 124.062 132.75 124.062 136.438V144.5H121.438ZM133.469 144.5V128.375H136.094V144.5H133.469ZM134.781 125C133.781 125 133.031 124.25 133.031 123.25C133.031 122.25 133.781 121.5 134.781 121.5C135.781 121.5 136.531 122.25 136.531 123.25C136.531 124.25 135.781 125 134.781 125ZM147.469 141.938C150.531 141.938 152.719 139.562 152.719 136.188C152.719 132.812 150.531 130.438 147.469 130.438C144.375 130.438 142.219 132.844 142.219 136.188C142.219 139.531 144.375 141.938 147.469 141.938ZM147.156 151.688C143.969 151.688 141.625 150.344 139.875 147.625L142.062 146.25C143.438 148.344 144.938 149.188 147.156 149.188C150.688 149.188 152.594 147.031 152.594 142.875V141.562H152.469C151.391 143.438 149.594 144.438 147.219 144.438C142.75 144.438 139.531 140.875 139.531 136.188C139.531 131.5 142.75 127.938 147.219 127.938C149.594 127.938 151.391 128.938 152.469 130.812H152.594V128.375H155.219V142.875C155.219 148.469 152.125 151.688 147.156 151.688ZM167.062 144.938C162.219 144.938 158.656 141.281 158.656 136.438C158.656 131.594 162.125 127.938 166.75 127.938C171.375 127.938 174.594 131.594 174.594 136.438L174.562 137.344H161.406C161.766 140.438 164.047 142.438 167.125 142.438C169.344 142.438 170.938 141.391 171.75 139.656L174.062 140.656C172.828 143.25 170.375 144.938 167.062 144.938ZM161.531 134.781H171.719C171.531 132.328 169.531 130.438 166.75 130.438C164.094 130.438 162.109 132.156 161.531 134.781ZM178.031 144.5V128.375H180.656V130.875H180.781C181.578 129.125 183.172 127.938 185 127.938C185.594 127.938 186.156 128.062 186.688 128.281V130.875C186.094 130.688 185.5 130.594 184.938 130.594C182.25 130.594 180.656 132.75 180.656 136.438V144.5H178.031ZM196.375 142.438C199.438 142.438 201.625 139.969 201.625 136.438C201.625 132.906 199.438 130.438 196.375 130.438C193.281 130.438 191.125 132.938 191.125 136.438C191.125 139.938 193.281 142.438 196.375 142.438ZM204.125 144.5H201.5V141.969H201.406C200.297 143.891 198.5 144.938 196.125 144.938C191.656 144.938 188.438 141.281 188.438 136.438C188.438 131.594 191.656 127.938 196.125 127.938C198.5 127.938 200.297 128.984 201.406 130.906H201.5V128.375H204.125V144.5ZM207.312 130.562V128.375H210.062V124.375H212.688V128.375H216.688V130.562H212.688V139.812C212.688 141.562 213.438 142.375 215.062 142.375C215.562 142.375 216.125 142.281 216.688 142.125V144.594C216.188 144.781 215.5 144.938 214.688 144.938C211.844 144.938 210.062 143 210.062 139.906V130.562H207.312ZM227.406 144.938C222.688 144.938 219.125 141.281 219.125 136.438C219.125 131.594 222.688 127.938 227.406 127.938C232.125 127.938 235.688 131.594 235.688 136.438C235.688 141.281 232.125 144.938 227.406 144.938ZM227.406 142.438C230.688 142.438 233 139.969 233 136.438C233 132.906 230.688 130.438 227.406 130.438C224.125 130.438 221.812 132.906 221.812 136.438C221.812 139.969 224.125 142.438 227.406 142.438ZM239.125 144.5V128.375H241.75V130.875H241.875C242.672 129.125 244.266 127.938 246.094 127.938C246.688 127.938 247.25 128.062 247.781 128.281V130.875C247.188 130.688 246.594 130.594 246.031 130.594C243.344 130.594 241.75 132.75 241.75 136.438V144.5H239.125ZM256.156 144.938C253.531 144.938 251.438 143.906 249.906 141.875L252.031 140.375C253.094 141.812 254.344 142.438 256.156 142.438C258.406 142.438 259.719 141.5 259.719 139.906C259.719 138.656 258.875 138.031 256.281 137.375L255.406 137.156C252.062 136.312 250.469 134.875 250.469 132.688C250.469 129.969 252.906 127.938 256.156 127.938C258.562 127.938 260.781 129.062 262.062 130.969L259.875 132.406C258.969 131.125 257.688 130.438 256.156 130.438C254.375 130.438 253.156 131.344 253.156 132.688C253.156 133.688 253.812 134.156 256.031 134.719L256.906 134.938C260.719 135.875 262.406 137.406 262.406 139.906C262.406 142.906 259.875 144.938 256.156 144.938ZM269.375 137.375C269.375 130.438 274.781 131.281 274.781 127.5C274.781 125.406 273.125 124.062 270.781 124.062C268.281 124.062 266.781 125.562 266.781 128.125H263.969C263.969 124.062 266.562 121.438 270.781 121.438C274.688 121.438 277.594 123.688 277.594 127.5C277.594 132.688 272.188 131.812 272.188 137.125V137.875H269.375V137.375ZM270.781 144.75C269.656 144.75 268.844 143.938 268.844 142.812C268.844 141.688 269.656 140.875 270.781 140.875C271.906 140.875 272.719 141.688 272.719 142.812C272.719 143.938 271.906 144.75 270.781 144.75Z" fill="#2A2A2A" fill-opacity="0.28"/>
<path d="M752.938 131.625C756.625 132.188 758.969 130.5 758.969 127.875C758.969 125.656 757.25 124.062 754.844 124.062C752.438 124.062 750.719 125.656 750.719 128.125H747.906C747.906 124.094 750.781 121.438 754.844 121.438C758.906 121.438 761.781 124.094 761.781 127.875C761.781 131.281 759.469 133.75 755.75 134.281V137.875H752.938V131.625ZM754.344 144.75C753.219 144.75 752.406 143.938 752.406 142.812C752.406 141.688 753.219 140.875 754.344 140.875C755.469 140.875 756.281 141.688 756.281 142.812C756.281 143.938 755.469 144.75 754.344 144.75Z" fill="#0066FF"/>
<path d="M740.094 144.938C737.469 144.938 735.375 143.906 733.844 141.875L735.969 140.375C737.031 141.812 738.281 142.438 740.094 142.438C742.344 142.438 743.656 141.5 743.656 139.906C743.656 138.656 742.812 138.031 740.219 137.375L739.344 137.156C736 136.312 734.406 134.875 734.406 132.688C734.406 129.969 736.844 127.938 740.094 127.938C742.5 127.938 744.719 129.062 746 130.969L743.812 132.406C742.906 131.125 741.625 130.438 740.094 130.438C738.312 130.438 737.094 131.344 737.094 132.688C737.094 133.688 737.75 134.156 739.969 134.719L740.844 134.938C744.656 135.875 746.344 137.406 746.344 139.906C746.344 142.906 743.812 144.938 740.094 144.938Z" fill="black"/>
<path d="M724.156 144.5V128.375H726.781V144.5H724.156ZM729.969 131.656C728.969 131.656 728.219 130.906 728.219 129.906C728.219 128.906 728.969 128.156 729.969 128.156C730.969 128.156 731.719 128.906 731.719 129.906C731.719 130.906 730.969 131.656 729.969 131.656Z" fill="#0066FF"/>
<path d="M712.438 144.938C707.719 144.938 704.156 141.281 704.156 136.438C704.156 131.594 707.719 127.938 712.438 127.938C717.156 127.938 720.719 131.594 720.719 136.438C720.719 141.281 717.156 144.938 712.438 144.938ZM712.438 142.438C715.719 142.438 718.031 139.969 718.031 136.438C718.031 132.906 715.719 130.438 712.438 130.438C709.156 130.438 706.844 132.906 706.844 136.438C706.844 139.969 709.156 142.438 712.438 142.438Z" fill="black"/>
<path d="M692.344 130.562V128.375H695.094V124.375H697.719V128.375H701.719V130.562H697.719V139.812C697.719 141.562 698.469 142.375 700.094 142.375C700.594 142.375 701.156 142.281 701.719 142.125V144.594C701.219 144.781 700.531 144.938 699.719 144.938C696.875 144.938 695.094 143 695.094 139.906V130.562H692.344Z" fill="black"/>
<path d="M687.219 135.688C687.219 132.312 685.562 130.438 682.531 130.438C680.562 130.438 679.125 131.219 678.25 132.75L675.906 131.5C677.188 129.219 679.594 127.938 682.531 127.938C687.062 127.938 689.906 130.938 689.906 135.688V144.5H687.219V135.688ZM680.469 144.938C677.594 144.938 675.406 142.844 675.406 140.062C675.406 137.281 677.594 135.188 680.469 135.188C683.344 135.188 685.531 137.281 685.531 140.062C685.531 142.844 683.344 144.938 680.469 144.938ZM680.469 142.438C681.875 142.438 682.844 141.469 682.844 140.062C682.844 138.656 681.875 137.688 680.469 137.688C679.062 137.688 678.094 138.656 678.094 140.062C678.094 141.469 679.062 142.438 680.469 142.438Z" fill="#0066FF"/>
<path d="M665.844 144.5V128.375H668.469V144.5H665.844ZM671.656 131.656C670.656 131.656 669.906 130.906 669.906 129.906C669.906 128.906 670.656 128.156 671.656 128.156C672.656 128.156 673.406 128.906 673.406 129.906C673.406 130.906 672.656 131.656 671.656 131.656Z" fill="#0066FF"/>
<path d="M654.875 144.938C650.031 144.938 646.469 141.281 646.469 136.438C646.469 131.594 649.938 127.938 654.562 127.938C659.188 127.938 662.406 131.594 662.406 136.438L662.375 137.344H652.156V134.781H659.531C659.344 132.328 657.344 130.438 654.562 130.438C651.375 130.438 649.156 132.906 649.156 136.438C649.156 140.031 651.562 142.438 654.938 142.438C657.156 142.438 658.75 141.391 659.562 139.656L661.875 140.656C660.641 143.25 658.188 144.938 654.875 144.938Z" fill="#0066FF"/>
<path d="M635.281 141.938C638.344 141.938 640.531 139.562 640.531 136.188C640.531 132.812 638.344 130.438 635.281 130.438C632.188 130.438 630.031 132.844 630.031 136.188C630.031 139.531 632.188 141.938 635.281 141.938ZM630.031 151.25V148.75H640.406V141.562H640.281C639.203 143.438 637.406 144.438 635.031 144.438C630.562 144.438 627.344 140.875 627.344 136.188C627.344 131.5 630.562 127.938 635.031 127.938C637.406 127.938 639.203 128.938 640.281 130.812H640.406V128.375H643.031V151.25H630.031Z" fill="#0066FF"/>
<path d="M621.281 144.5V128.375H623.906V144.5H621.281ZM622.594 125C621.594 125 620.844 124.25 620.844 123.25C620.844 122.25 621.594 121.5 622.594 121.5C623.594 121.5 624.344 122.25 624.344 123.25C624.344 124.25 623.594 125 622.594 125Z" fill="black"/>
<path d="M610.344 144.5V128.375H612.969V144.5H610.344ZM616.156 131.656C615.156 131.656 614.406 130.906 614.406 129.906C614.406 128.906 615.156 128.156 616.156 128.156C617.156 128.156 617.906 128.906 617.906 129.906C617.906 130.906 617.156 131.656 616.156 131.656Z" fill="#0066FF"/>
<path d="M597.281 130.562V128.375H600.031V121.875H607.031V124.25H602.656V128.375H607.031V130.562H602.656V144.5H600.031V130.562H597.281Z" fill="#0066FF"/>
<path d="M587.938 144.938C583.094 144.938 579.531 141.281 579.531 136.438C579.531 131.594 583 127.938 587.625 127.938C592.25 127.938 595.469 131.594 595.469 136.438L595.438 137.344H585.219V134.781H592.594C592.406 132.328 590.406 130.438 587.625 130.438C584.438 130.438 582.219 132.906 582.219 136.438C582.219 140.031 584.625 142.438 588 142.438C590.219 142.438 591.812 141.391 592.625 139.656L594.938 140.656C593.703 143.25 591.25 144.938 587.938 144.938Z" fill="#0066FF"/>
<path d="M570.219 144.5V128.375H572.844V144.5H570.219ZM576.031 131.656C575.031 131.656 574.281 130.906 574.281 129.906C574.281 128.906 575.031 128.156 576.031 128.156C577.031 128.156 577.781 128.906 577.781 129.906C577.781 130.906 577.031 131.656 576.031 131.656Z" fill="#0066FF"/>
<path d="M550.5 144.938C546.906 144.938 544.031 143.062 542.375 139.656L544.844 138.531C546.094 141.125 548 142.375 550.5 142.375C553.594 142.375 555.75 140.469 555.75 137.75C555.75 134.875 553.344 133.125 549.469 133.125H548.156V130.812L553.969 124.531V124.438H543.312V121.875H557.625V124.438L551.406 130.812V130.938C555.703 131.547 558.5 134.219 558.5 137.875C558.5 141.906 555.094 144.938 550.5 144.938Z" fill="#0066FF"/>
<path d="M523.5 144.5C523.187 134.562 535.656 135.469 535.656 128.375C535.656 125.688 533.875 124 531.094 124C529 124 527.469 124.969 526.625 127.75L524 127C525.187 123.094 527.844 121.438 531.094 121.438C535.312 121.438 538.406 124.156 538.406 128.375C538.406 135.938 528.562 136.188 526.594 141.938H538.75V144.5H523.5Z" fill="#0066FF"/>
</svg>
