<svg width="1012" height="177" viewBox="0 0 1012 177" fill="none" xmlns="http://www.w3.org/2000/svg">
<rect x="0.5" y="0.5" width="1011" height="176" rx="15.5" stroke="#70737C" stroke-opacity="0.16"/>
<rect x="32" y="32" width="52" height="24" rx="4" fill="#70737C" fill-opacity="0.08"/>
<path d="M39.8359 43.3672C39.8359 41.7734 41.1484 40.7578 43.1719 40.7578C45.1328 40.7578 46.375 41.6641 46.4922 43.2031H44.7734C44.6484 42.5625 44.0312 42.1641 43.1484 42.1641C42.2344 42.1641 41.6328 42.5859 41.6328 43.2266C41.6328 43.7734 42.0234 44.0859 42.9531 44.2891L44.2266 44.5625C45.9375 44.9297 46.6953 45.6562 46.6953 46.9375C46.6953 48.6016 45.3281 49.6719 43.1797 49.6719C41.0859 49.6719 39.7578 48.7422 39.6328 47.1953H41.4375C41.5938 47.8672 42.2422 48.25 43.2109 48.25C44.2031 48.25 44.8281 47.8125 44.8281 47.1484C44.8281 46.5859 44.4688 46.2969 43.4922 46.0859L42.2109 45.8047C40.6328 45.4531 39.8359 44.6406 39.8359 43.3672ZM49.7266 43.3672C49.7266 41.7734 51.0391 40.7578 53.0625 40.7578C55.0234 40.7578 56.2656 41.6641 56.3828 43.2031H54.6641C54.5391 42.5625 53.9219 42.1641 53.0391 42.1641C52.125 42.1641 51.5234 42.5859 51.5234 43.2266C51.5234 43.7734 51.9141 44.0859 52.8438 44.2891L54.1172 44.5625C55.8281 44.9297 56.5859 45.6562 56.5859 46.9375C56.5859 48.6016 55.2188 49.6719 53.0703 49.6719C50.9766 49.6719 49.6484 48.7422 49.5234 47.1953H51.3281C51.4844 47.8672 52.1328 48.25 53.1016 48.25C54.0938 48.25 54.7188 47.8125 54.7188 47.1484C54.7188 46.5859 54.3594 46.2969 53.3828 46.0859L52.1016 45.8047C50.5234 45.4531 49.7266 44.6406 49.7266 43.3672ZM65.1484 43.1953L61 46.2578C61.3359 47.5078 62 48.1641 62.9531 48.1641C64.3906 48.1641 65.1641 46.6641 65.1641 43.8594C65.1641 43.625 65.1562 43.4062 65.1484 43.1953ZM60.75 44.5312L64.9062 41.4844C64.5703 40.2266 63.9062 39.5625 62.9531 39.5625C61.5078 39.5625 60.7344 41.0625 60.7344 43.8594C60.7344 44.0938 60.7422 44.3203 60.75 44.5312ZM62.9531 37.9844C65.5547 37.9844 67.0156 40.0938 67.0156 43.8594C67.0156 47.6328 65.5547 49.7422 62.9531 49.7422C60.3438 49.7422 58.8828 47.6328 58.8828 43.8594C58.8828 40.0938 60.3438 37.9844 62.9531 37.9844ZM72.7578 49.7266C70.5078 49.7266 68.9219 48.375 68.8359 46.3828H70.6641C70.7891 47.3984 71.6641 48.0938 72.8203 48.0938C74.125 48.0938 75 47.1875 75 45.8359C75 44.4766 74.1172 43.5625 72.8203 43.5625C71.9297 43.5625 71.2266 43.9453 70.8047 44.6797H68.9922L69.5391 38.2266H76.1406V39.8359H71.0391L70.7656 43.1172H70.8984C71.4062 42.4297 72.2422 42.0547 73.2734 42.0547C75.3594 42.0547 76.8047 43.5859 76.8047 45.7891C76.8047 48.1484 75.1797 49.7266 72.7578 49.7266Z" fill="black"/>
<rect x="32" y="88" width="948" height="1" fill="#70737C" fill-opacity="0.16"/>
<path d="M50.4688 144.5L48 137.906H38.1875L35.7188 144.5H32.7188L41.375 121.875H44.8125L53.4688 144.5H50.4688ZM39.1562 135.344H47.0625L43.1562 124.969H43.0312L39.1562 135.344ZM58.1875 144.75C57.0625 144.75 56.25 143.938 56.25 142.812C56.25 141.688 57.0625 140.875 58.1875 140.875C59.3125 140.875 60.125 141.688 60.125 142.812C60.125 143.938 59.3125 144.75 58.1875 144.75ZM65.6875 144.75C64.5625 144.75 63.75 143.938 63.75 142.812C63.75 141.688 64.5625 140.875 65.6875 140.875C66.8125 140.875 67.625 141.688 67.625 142.812C67.625 143.938 66.8125 144.75 65.6875 144.75ZM73.1875 144.75C72.0625 144.75 71.25 143.938 71.25 142.812C71.25 141.688 72.0625 140.875 73.1875 140.875C74.3125 140.875 75.125 141.688 75.125 142.812C75.125 143.938 74.3125 144.75 73.1875 144.75ZM81.1875 144.75C80.0625 144.75 79.25 143.938 79.25 142.812C79.25 141.688 80.0625 140.875 81.1875 140.875C82.3125 140.875 83.125 141.688 83.125 142.812C83.125 143.938 82.3125 144.75 81.1875 144.75ZM88.6875 144.75C87.5625 144.75 86.75 143.938 86.75 142.812C86.75 141.688 87.5625 140.875 88.6875 140.875C89.8125 140.875 90.625 141.688 90.625 142.812C90.625 143.938 89.8125 144.75 88.6875 144.75ZM96.1875 144.75C95.0625 144.75 94.25 143.938 94.25 142.812C94.25 141.688 95.0625 140.875 96.1875 140.875C97.3125 140.875 98.125 141.688 98.125 142.812C98.125 143.938 97.3125 144.75 96.1875 144.75ZM104.188 144.75C103.062 144.75 102.25 143.938 102.25 142.812C102.25 141.688 103.062 140.875 104.188 140.875C105.312 140.875 106.125 141.688 106.125 142.812C106.125 143.938 105.312 144.75 104.188 144.75ZM122.5 151.25C119.875 146.906 118.438 141.906 118.438 136.562C118.438 131.219 119.875 126.219 122.5 121.875H125.469C122.844 126.062 121.25 131.125 121.25 136.562C121.25 141.969 122.844 147.031 125.469 151.25H122.5ZM149.031 119.312V128.438H153.188V130.5H149.031V140.094H146.562V119.312H149.031ZM143.938 122.688V124.688H127.406V122.688H134.438V119.281H136.906V122.688H143.938ZM135.656 126.25C139.609 126.25 142.344 128.297 142.344 131.406C142.344 134.516 139.609 136.562 135.656 136.562C131.656 136.562 128.953 134.516 128.969 131.406C128.953 128.297 131.656 126.25 135.656 126.25ZM135.656 128.156C133.062 128.172 131.281 129.453 131.281 131.406C131.281 133.344 133.062 134.625 135.656 134.625C138.234 134.625 140 133.344 140 131.406C140 129.453 138.219 128.172 135.656 128.156ZM150.312 144.375V146.406H131.625V138.438H134.094V144.375H150.312ZM177.062 120.438V122.219C177.047 124.109 177.047 126.5 176.438 129.625H180.375V131.656H154.969V129.625H174C174.609 126.547 174.641 124.281 174.656 122.438H158.219V120.438H177.062ZM177.156 134.438V141.406H160.469V144.688H177.844V146.688H158.031V139.531H174.719V136.406H157.969V134.438H177.156ZM182.219 151.25C184.844 147.031 186.438 141.969 186.438 136.562C186.438 131.125 184.844 126.062 182.219 121.875H185.188C187.812 126.219 189.25 131.219 189.25 136.562C189.25 141.906 187.812 146.906 185.188 151.25H182.219ZM222.344 119.312V128.438H226.5V130.5H222.344V140.094H219.875V119.312H222.344ZM217.25 122.688V124.688H200.719V122.688H207.75V119.281H210.219V122.688H217.25ZM208.969 126.25C212.922 126.25 215.656 128.297 215.656 131.406C215.656 134.516 212.922 136.562 208.969 136.562C204.969 136.562 202.266 134.516 202.281 131.406C202.266 128.297 204.969 126.25 208.969 126.25ZM208.969 128.156C206.375 128.172 204.594 129.453 204.594 131.406C204.594 133.344 206.375 134.625 208.969 134.625C211.547 134.625 213.312 133.344 213.312 131.406C213.312 129.453 211.531 128.172 208.969 128.156ZM223.625 144.375V146.406H204.938V138.438H207.406V144.375H223.625ZM245.281 131.906V134.469H238.531V141.312H235.781V134.469H229.031V131.906H235.781V125.062H238.531V131.906H245.281ZM270 119.312V128.438H274.156V130.5H270V140.094H267.531V119.312H270ZM264.906 122.688V124.688H248.375V122.688H255.406V119.281H257.875V122.688H264.906ZM256.625 126.25C260.578 126.25 263.312 128.297 263.312 131.406C263.312 134.516 260.578 136.562 256.625 136.562C252.625 136.562 249.922 134.516 249.938 131.406C249.922 128.297 252.625 126.25 256.625 126.25ZM256.625 128.156C254.031 128.172 252.25 129.453 252.25 131.406C252.25 133.344 254.031 134.625 256.625 134.625C259.203 134.625 260.969 133.344 260.969 131.406C260.969 129.453 259.188 128.172 256.625 128.156ZM271.281 144.375V146.406H252.594V138.438H255.062V144.375H271.281ZM284.5 135.5C284.5 142.438 279.094 141.594 279.094 145.375C279.094 147.469 280.75 148.812 283.094 148.812C285.594 148.812 287.094 147.312 287.094 144.75H289.906C289.906 148.812 287.312 151.438 283.094 151.438C279.188 151.438 276.281 149.188 276.281 145.375C276.281 140.188 281.688 141.062 281.688 135.75V135H284.5V135.5ZM283.094 128.125C284.219 128.125 285.031 128.938 285.031 130.062C285.031 131.188 284.219 132 283.094 132C281.969 132 281.156 131.188 281.156 130.062C281.156 128.938 281.969 128.125 283.094 128.125ZM305.469 142.719L301 136.062L305.469 129.406H308.688L304.188 136.062L308.688 142.719H305.469ZM328.781 144.5L326.312 137.906H316.5L314.031 144.5H311.031L319.688 121.875H323.125L331.781 144.5H328.781ZM317.469 135.344H325.375L321.469 124.969H321.344L317.469 135.344ZM337.344 142.719H334.125L338.625 136.062L334.125 129.406H337.344L341.812 136.062L337.344 142.719ZM357.75 151.25C355.125 146.906 353.688 141.906 353.688 136.562C353.688 131.219 355.125 126.219 357.75 121.875H360.719C358.094 126.062 356.5 131.125 356.5 136.562C356.5 141.969 358.094 147.031 360.719 151.25H357.75ZM373.906 144.938C367.219 144.938 362.156 139.875 362.156 133.188C362.156 126.5 367.219 121.438 373.906 121.438C380.594 121.438 385.656 126.5 385.656 133.188C385.656 139.875 380.594 144.938 373.906 144.938ZM373.906 142.312C379.156 142.312 382.844 138.531 382.844 133.188C382.844 127.844 379.156 124.062 373.906 124.062C368.656 124.062 364.969 127.844 364.969 133.188C364.969 138.531 368.656 142.312 373.906 142.312ZM387.094 151.25C389.719 147.031 391.312 141.969 391.312 136.562C391.312 131.125 389.719 126.062 387.094 121.875H390.062C392.688 126.219 394.125 131.219 394.125 136.562C394.125 141.906 392.688 146.906 390.062 151.25H387.094Z" fill="#2A2A2A" fill-opacity="0.28"/>
<path d="M876.094 148.125C878.719 143.906 880.312 138.844 880.312 133.438C880.312 128 878.719 122.938 876.094 118.75H879.062C881.688 123.094 883.125 128.094 883.125 133.438C883.125 138.781 881.688 143.781 879.062 148.125H876.094Z" fill="#0066FF"/>
<path d="M862.906 144.938C856.219 144.938 851.156 139.875 851.156 133.188C851.156 126.5 856.219 121.438 862.906 121.438C869.594 121.438 874.656 126.5 874.656 133.188C874.656 139.875 869.594 144.938 862.906 144.938ZM862.906 142.312C868.156 142.312 871.844 138.531 871.844 133.188C871.844 127.844 868.156 124.062 862.906 124.062C857.656 124.062 853.969 127.844 853.969 133.188C853.969 138.531 857.656 142.312 862.906 142.312Z" fill="black"/>
<path d="M846.75 148.125C844.125 143.781 842.688 138.781 842.688 133.438C842.688 128.094 844.125 123.094 846.75 118.75H849.719C847.094 122.938 845.5 128 845.5 133.438C845.5 138.844 847.094 143.906 849.719 148.125H846.75Z" fill="#0066FF"/>
<path d="M826.344 140.094H823.125L827.625 133.438L823.125 126.781H826.344L830.812 133.438L826.344 140.094Z" fill="#0066FF"/>
<path d="M817.781 144.5L815.312 137.906H805.5L803.031 144.5H800.031L808.688 121.875H812.125L820.781 144.5H817.781ZM806.469 135.344H814.375L810.469 124.969H810.344L806.469 135.344Z" fill="black"/>
<path d="M794.469 140.094L790 133.438L794.469 126.781H797.688L793.188 133.438L797.688 140.094H794.469Z" fill="#0066FF"/>
<path d="M773.5 129C773.5 135.938 768.094 135.094 768.094 138.875C768.094 140.969 769.75 142.312 772.094 142.312C774.594 142.312 776.094 140.812 776.094 138.25H778.906C778.906 142.312 776.312 144.938 772.094 144.938C768.188 144.938 765.281 142.688 765.281 138.875C765.281 133.688 770.688 134.562 770.688 129.25V128.5H773.5V129ZM772.094 121.625C773.219 121.625 774.031 122.438 774.031 123.562C774.031 124.688 773.219 125.5 772.094 125.5C770.969 125.5 770.156 124.688 770.156 123.562C770.156 122.438 770.969 121.625 772.094 121.625Z" fill="#0066FF"/>
<path d="M759 119.312V128.438H763.156V130.5H759V140.094H756.531V119.312H759ZM753.906 122.688V124.688H737.375V122.688H744.406V119.281H746.875V122.688H753.906ZM745.625 126.25C749.578 126.25 752.312 128.297 752.312 131.406C752.312 134.516 749.578 136.562 745.625 136.562C741.625 136.562 738.922 134.516 738.938 131.406C738.922 128.297 741.625 126.25 745.625 126.25ZM745.625 128.156C743.031 128.172 741.25 129.453 741.25 131.406C741.25 133.344 743.031 134.625 745.625 134.625C748.203 134.625 749.969 133.344 749.969 131.406C749.969 129.453 748.188 128.172 745.625 128.156ZM760.281 144.375V146.406H741.594V138.438H744.062V144.375H760.281Z" fill="black"/>
<path d="M734.281 131.906V134.469H727.531V141.312H724.781V134.469H718.031V131.906H724.781V125.062H727.531V131.906H734.281Z" fill="#0066FF"/>
<path d="M711.344 119.312V128.438H715.5V130.5H711.344V140.094H708.875V119.312H711.344ZM706.25 122.688V124.688H689.719V122.688H696.75V119.281H699.219V122.688H706.25ZM697.969 126.25C701.922 126.25 704.656 128.297 704.656 131.406C704.656 134.516 701.922 136.562 697.969 136.562C693.969 136.562 691.266 134.516 691.281 131.406C691.266 128.297 693.969 126.25 697.969 126.25ZM697.969 128.156C695.375 128.172 693.594 129.453 693.594 131.406C693.594 133.344 695.375 134.625 697.969 134.625C700.547 134.625 702.312 133.344 702.312 131.406C702.312 129.453 700.531 128.172 697.969 128.156ZM712.625 144.375V146.406H693.938V138.438H696.406V144.375H712.625Z" fill="black"/>
<path d="M671.219 148.125C673.844 143.906 675.438 138.844 675.438 133.438C675.438 128 673.844 122.938 671.219 118.75H674.188C676.812 123.094 678.25 128.094 678.25 133.438C678.25 138.781 676.812 143.781 674.188 148.125H671.219Z" fill="#0066FF"/>
<path d="M666.062 120.438V122.219C666.047 124.109 666.047 126.5 665.438 129.625H669.375V131.656H643.969V129.625H663C663.609 126.547 663.641 124.281 663.656 122.438H647.219V120.438H666.062ZM666.156 134.438V141.406H649.469V144.688H666.844V146.688H647.031V139.531H663.719V136.406H646.969V134.438H666.156Z" fill="black"/>
<path d="M638.031 119.312V128.438H642.188V130.5H638.031V140.094H635.562V119.312H638.031ZM632.938 122.688V124.688H616.406V122.688H623.438V119.281H625.906V122.688H632.938ZM624.656 126.25C628.609 126.25 631.344 128.297 631.344 131.406C631.344 134.516 628.609 136.562 624.656 136.562C620.656 136.562 617.953 134.516 617.969 131.406C617.953 128.297 620.656 126.25 624.656 126.25ZM624.656 128.156C622.062 128.172 620.281 129.453 620.281 131.406C620.281 133.344 622.062 134.625 624.656 134.625C627.234 134.625 629 133.344 629 131.406C629 129.453 627.219 128.172 624.656 128.156ZM639.312 144.375V146.406H620.625V138.438H623.094V144.375H639.312Z" fill="black"/>
<path d="M611.5 148.125C608.875 143.781 607.438 138.781 607.438 133.438C607.438 128.094 608.875 123.094 611.5 118.75H614.469C611.844 122.938 610.25 128 610.25 133.438C610.25 138.844 611.844 143.906 614.469 148.125H611.5Z" fill="#0066FF"/>
<path d="M593.188 144.75C592.062 144.75 591.25 143.938 591.25 142.812C591.25 141.688 592.062 140.875 593.188 140.875C594.312 140.875 595.125 141.688 595.125 142.812C595.125 143.938 594.312 144.75 593.188 144.75Z" fill="black"/>
<path d="M570.188 135.125C569.062 135.125 568.25 134.312 568.25 133.188C568.25 132.062 569.062 131.25 570.188 131.25C571.312 131.25 572.125 132.062 572.125 133.188C572.125 134.312 571.312 135.125 570.188 135.125ZM577.688 135.125C576.562 135.125 575.75 134.312 575.75 133.188C575.75 132.062 576.562 131.25 577.688 131.25C578.812 131.25 579.625 132.062 579.625 133.188C579.625 134.312 578.812 135.125 577.688 135.125ZM585.188 135.125C584.062 135.125 583.25 134.312 583.25 133.188C583.25 132.062 584.062 131.25 585.188 131.25C586.312 131.25 587.125 132.062 587.125 133.188C587.125 134.312 586.312 135.125 585.188 135.125Z" fill="#0066FF"/>
<path d="M547.188 135.125C546.062 135.125 545.25 134.312 545.25 133.188C545.25 132.062 546.062 131.25 547.188 131.25C548.312 131.25 549.125 132.062 549.125 133.188C549.125 134.312 548.312 135.125 547.188 135.125ZM554.688 135.125C553.562 135.125 552.75 134.312 552.75 133.188C552.75 132.062 553.562 131.25 554.688 131.25C555.812 131.25 556.625 132.062 556.625 133.188C556.625 134.312 555.812 135.125 554.688 135.125ZM562.188 135.125C561.062 135.125 560.25 134.312 560.25 133.188C560.25 132.062 561.062 131.25 562.188 131.25C563.312 131.25 564.125 132.062 564.125 133.188C564.125 134.312 563.312 135.125 562.188 135.125Z" fill="#0066FF"/>
<path d="M540.469 144.5L538 137.906H528.188L525.719 144.5H522.719L531.375 121.875H534.812L543.469 144.5H540.469ZM529.156 135.344H537.062L533.156 124.969H533.031L529.156 135.344Z" fill="black"/>
</svg>
