<svg width="1012" height="177" viewBox="0 0 1012 177" fill="none" xmlns="http://www.w3.org/2000/svg">
<rect x="0.5" y="0.5" width="1011" height="176" rx="15.5" stroke="#70737C" stroke-opacity="0.16"/>
<rect x="32" y="32" width="52" height="24" rx="4" fill="#70737C" fill-opacity="0.08"/>
<path d="M41.7812 49.5V42.4688H39.4922V41H41.7812V40.2891C41.7812 38.4688 42.7344 37.7188 44.9688 37.7188C45.2891 37.7188 46.9609 37.75 47.1406 37.7734V39.1406C46.8984 39.1172 45.3203 39.0938 45.0078 39.0938C44.0547 39.0938 43.5625 39.4688 43.5625 40.1953V41H47.1406V42.4688H43.5938V49.5H41.7812ZM52.8281 43.1328H53.0938C53.4453 41.4844 54.3984 40.7188 56.0234 40.7188C56.5078 40.7188 56.9531 40.7812 57.25 40.8984V42.875C56.8672 42.7266 56.3047 42.6328 55.8359 42.6328C53.8594 42.6328 52.8203 43.7109 52.8203 45.6875V48.1406H55.3672V49.5H49.4062V48.1406H51.0703V42.3047H49.2422V40.9453H52.8281V43.1328ZM61.9062 49.6406C60.2812 49.6406 59.1953 48.6094 59.1953 47.0625C59.1953 45.5312 60.3047 44.625 62.3516 44.5L64.4922 44.375V43.6562C64.4922 42.7734 63.9219 42.2734 62.9219 42.2734C62.0859 42.2734 61.4766 42.6328 61.2891 43.2578H59.5078C59.6641 41.7812 61.0469 40.8047 62.9688 40.8047C65.0859 40.8047 66.2891 41.8438 66.2891 43.6719V49.5H64.5625V48.3047H64.3984C63.9844 49.1562 63.0703 49.6406 61.9062 49.6406ZM62.4922 48.1562C63.6484 48.1562 64.4922 47.4141 64.4922 46.3828V45.6016L62.625 45.7031C61.5547 45.7656 61 46.1953 61 46.9531C61 47.6953 61.5781 48.1562 62.4922 48.1562ZM76.5859 43.7969H74.8047C74.6562 42.8203 73.9766 42.2812 72.9844 42.2812C71.7031 42.2812 71 43.2031 71 44.8828V45.5391C71 47.2188 71.7031 48.1406 72.9844 48.1406C73.9844 48.1406 74.6484 47.625 74.8047 46.6797H76.5859C76.3906 48.5938 75.0859 49.6719 73 49.6719C70.5547 49.6719 69.1719 48.25 69.1719 45.7031V44.7188C69.1719 42.1797 70.5547 40.75 73 40.75C75.0938 40.75 76.3828 41.8359 76.5859 43.7969Z" fill="black"/>
<rect x="92" y="32" width="52" height="24" rx="4" fill="#70737C" fill-opacity="0.08"/>
<path d="M99.4688 49.5V40.9453H101.227V42.4062H101.352C101.789 41.3594 102.734 40.7734 103.992 40.7734C105.852 40.7734 106.859 41.8828 106.859 43.9531V49.5H105.039V44.3984C105.039 43.0234 104.477 42.3672 103.305 42.3672C102.086 42.3672 101.289 43.2188 101.289 44.5156V49.5H99.4688ZM116.75 40.9453V49.5H114.992V48.0391H114.867C114.43 49.0859 113.484 49.6719 112.227 49.6719C110.367 49.6719 109.359 48.5625 109.359 46.4844V40.9453H111.18V46.0469C111.18 47.4219 111.742 48.0703 112.914 48.0703C114.133 48.0703 114.93 47.2266 114.93 45.9297V40.9453H116.75ZM127.188 43V49.5H125.625V43.5781C125.625 42.7969 125.289 42.3516 124.711 42.3516C124.109 42.3516 123.734 42.8594 123.734 43.6641V49.5H122.18V43.5781C122.18 42.7891 121.852 42.3516 121.266 42.3516C120.656 42.3516 120.266 42.8594 120.266 43.6641V49.5H118.703V40.9453H120.297V42.2266H120.492C120.688 41.2969 121.289 40.7734 122.109 40.7734C122.906 40.7734 123.453 41.2812 123.633 42.1797H123.828C124.023 41.3047 124.656 40.7734 125.492 40.7734C126.602 40.7734 127.188 41.5469 127.188 43ZM132.609 43.1328H132.875C133.227 41.4844 134.18 40.7188 135.805 40.7188C136.289 40.7188 136.734 40.7812 137.031 40.8984V42.875C136.648 42.7266 136.086 42.6328 135.617 42.6328C133.641 42.6328 132.602 43.7109 132.602 45.6875V48.1406H135.148V49.5H129.188V48.1406H130.852V42.3047H129.023V40.9453H132.609V43.1328Z" fill="black"/>
<rect x="152" y="32" width="52" height="24" rx="4" fill="#70737C" fill-opacity="0.08"/>
<path d="M161.047 44.5312V45.8672C161.047 47.2109 161.805 48.0469 163.031 48.0469C164.25 48.0469 165.008 47.2109 165.008 45.8672V44.5312C165.008 43.1797 164.25 42.3438 163.031 42.3438C161.805 42.3438 161.047 43.1875 161.047 44.5312ZM165 48.0938H164.844C164.484 49.0938 163.617 49.6328 162.375 49.6328C160.414 49.6328 159.195 48.2578 159.195 45.9766V44.4531C159.195 42.1797 160.414 40.7969 162.375 40.7969C163.609 40.7969 164.492 41.3516 164.812 42.3438H164.969V37.6406H166.844V49.5H165V48.0938ZM169.359 49.5V40.9453H171.117V42.4062H171.242C171.68 41.3594 172.625 40.7734 173.883 40.7734C175.742 40.7734 176.75 41.8828 176.75 43.9531V49.5H174.93V44.3984C174.93 43.0234 174.367 42.3672 173.195 42.3672C171.977 42.3672 171.18 43.2188 171.18 44.5156V49.5H169.359ZM182.945 49.6719C180.586 49.6719 179.094 48.2031 179.094 45.875V44.5703C179.094 42.2422 180.586 40.7734 182.945 40.7734C185.305 40.7734 186.797 42.2422 186.797 44.5703V45.875C186.797 48.2031 185.305 49.6719 182.945 49.6719ZM182.945 42.2812C181.68 42.2812 180.891 43.1953 180.891 44.6719V45.7734C180.891 47.25 181.68 48.1641 182.945 48.1641C184.211 48.1641 185 47.25 185 45.7734V44.6719C185 43.1953 184.211 42.2812 182.945 42.2812ZM197.078 43V49.5H195.516V43.5781C195.516 42.7969 195.18 42.3516 194.602 42.3516C194 42.3516 193.625 42.8594 193.625 43.6641V49.5H192.07V43.5781C192.07 42.7891 191.742 42.3516 191.156 42.3516C190.547 42.3516 190.156 42.8594 190.156 43.6641V49.5H188.594V40.9453H190.188V42.2266H190.383C190.578 41.2969 191.18 40.7734 192 40.7734C192.797 40.7734 193.344 41.2812 193.523 42.1797H193.719C193.914 41.3047 194.547 40.7734 195.383 40.7734C196.492 40.7734 197.078 41.5469 197.078 43Z" fill="black"/>
<rect x="212" y="32" width="52" height="24" rx="4" fill="#70737C" fill-opacity="0.08"/>
<path d="M219.836 43.3672C219.836 41.7734 221.148 40.7578 223.172 40.7578C225.133 40.7578 226.375 41.6641 226.492 43.2031H224.773C224.648 42.5625 224.031 42.1641 223.148 42.1641C222.234 42.1641 221.633 42.5859 221.633 43.2266C221.633 43.7734 222.023 44.0859 222.953 44.2891L224.227 44.5625C225.938 44.9297 226.695 45.6562 226.695 46.9375C226.695 48.6016 225.328 49.6719 223.18 49.6719C221.086 49.6719 219.758 48.7422 219.633 47.1953H221.438C221.594 47.8672 222.242 48.25 223.211 48.25C224.203 48.25 224.828 47.8125 224.828 47.1484C224.828 46.5859 224.469 46.2969 223.492 46.0859L222.211 45.8047C220.633 45.4531 219.836 44.6406 219.836 43.3672ZM233.188 39.0469C232.414 39.0469 231.867 38.5391 231.867 37.8047C231.867 37.0703 232.414 36.5625 233.188 36.5625C233.969 36.5625 234.516 37.0703 234.516 37.8047C234.516 38.5391 233.969 39.0469 233.188 39.0469ZM236.82 49.5H229.539V48.0469H232.359V42.3984H229.633V40.9453H234.133V48.0469H236.82V49.5ZM239.25 49.5V40.9453H241.008V42.4062H241.133C241.57 41.3594 242.516 40.7734 243.773 40.7734C245.633 40.7734 246.641 41.8828 246.641 43.9531V49.5H244.82V44.3984C244.82 43.0234 244.258 42.3672 243.086 42.3672C241.867 42.3672 241.07 43.2188 241.07 44.5156V49.5H239.25ZM251.453 49.5V42.4688H249.164V41H251.453V40.2891C251.453 38.4688 252.406 37.7188 254.641 37.7188C254.961 37.7188 256.633 37.75 256.812 37.7734V39.1406C256.57 39.1172 254.992 39.0938 254.68 39.0938C253.727 39.0938 253.234 39.4688 253.234 40.1953V41H256.812V42.4688H253.266V49.5H251.453Z" fill="black"/>
<rect x="272" y="32" width="52" height="24" rx="4" fill="#70737C" fill-opacity="0.08"/>
<path d="M279.836 43.3672C279.836 41.7734 281.148 40.7578 283.172 40.7578C285.133 40.7578 286.375 41.6641 286.492 43.2031H284.773C284.648 42.5625 284.031 42.1641 283.148 42.1641C282.234 42.1641 281.633 42.5859 281.633 43.2266C281.633 43.7734 282.023 44.0859 282.953 44.2891L284.227 44.5625C285.938 44.9297 286.695 45.6562 286.695 46.9375C286.695 48.6016 285.328 49.6719 283.18 49.6719C281.086 49.6719 279.758 48.7422 279.633 47.1953H281.438C281.594 47.8672 282.242 48.25 283.211 48.25C284.203 48.25 284.828 47.8125 284.828 47.1484C284.828 46.5859 284.469 46.2969 283.492 46.0859L282.211 45.8047C280.633 45.4531 279.836 44.6406 279.836 43.3672ZM296.75 40.9453V49.5H294.992V48.0391H294.867C294.43 49.0859 293.484 49.6719 292.227 49.6719C290.367 49.6719 289.359 48.5625 289.359 46.4844V40.9453H291.18V46.0469C291.18 47.4219 291.742 48.0703 292.914 48.0703C294.133 48.0703 294.93 47.2266 294.93 45.9297V40.9453H296.75ZM303.734 40.8047C305.703 40.8047 306.922 42.1875 306.922 44.4609V45.9844C306.922 48.2656 305.703 49.6484 303.734 49.6484C302.5 49.6484 301.625 49.0859 301.305 48.1016H301.148V52.3672H299.273V40.9453H301.117V42.3516H301.273C301.633 41.3516 302.5 40.8047 303.734 40.8047ZM303.086 42.3984C301.867 42.3984 301.109 43.2344 301.109 44.5781V45.9219C301.109 47.2656 301.867 48.1016 303.086 48.1016C304.312 48.1016 305.07 47.2578 305.07 45.9219V44.5781C305.07 43.2344 304.312 42.3984 303.086 42.3984ZM309.508 43.3672C309.508 41.7734 310.82 40.7578 312.844 40.7578C314.805 40.7578 316.047 41.6641 316.164 43.2031H314.445C314.32 42.5625 313.703 42.1641 312.82 42.1641C311.906 42.1641 311.305 42.5859 311.305 43.2266C311.305 43.7734 311.695 44.0859 312.625 44.2891L313.898 44.5625C315.609 44.9297 316.367 45.6562 316.367 46.9375C316.367 48.6016 315 49.6719 312.852 49.6719C310.758 49.6719 309.43 48.7422 309.305 47.1953H311.109C311.266 47.8672 311.914 48.25 312.883 48.25C313.875 48.25 314.5 47.8125 314.5 47.1484C314.5 46.5859 314.141 46.2969 313.164 46.0859L311.883 45.8047C310.305 45.4531 309.508 44.6406 309.508 43.3672Z" fill="black"/>
<rect x="332" y="32" width="52" height="24" rx="4" fill="#70737C" fill-opacity="0.08"/>
<path d="M339.836 43.3672C339.836 41.7734 341.148 40.7578 343.172 40.7578C345.133 40.7578 346.375 41.6641 346.492 43.2031H344.773C344.648 42.5625 344.031 42.1641 343.148 42.1641C342.234 42.1641 341.633 42.5859 341.633 43.2266C341.633 43.7734 342.023 44.0859 342.953 44.2891L344.227 44.5625C345.938 44.9297 346.695 45.6562 346.695 46.9375C346.695 48.6016 345.328 49.6719 343.18 49.6719C341.086 49.6719 339.758 48.7422 339.633 47.1953H341.438C341.594 47.8672 342.242 48.25 343.211 48.25C344.203 48.25 344.828 47.8125 344.828 47.1484C344.828 46.5859 344.469 46.2969 343.492 46.0859L342.211 45.8047C340.633 45.4531 339.836 44.6406 339.836 43.3672ZM356.75 40.9453V49.5H354.992V48.0391H354.867C354.43 49.0859 353.484 49.6719 352.227 49.6719C350.367 49.6719 349.359 48.5625 349.359 46.4844V40.9453H351.18V46.0469C351.18 47.4219 351.742 48.0703 352.914 48.0703C354.133 48.0703 354.93 47.2266 354.93 45.9297V40.9453H356.75ZM363.734 49.6328C362.492 49.6328 361.625 49.0938 361.273 48.0938H361.117V49.5H359.266V37.6406H361.148V42.3438H361.305C361.625 41.3516 362.5 40.7969 363.734 40.7969C365.703 40.7969 366.914 42.1797 366.914 44.4531V45.9766C366.914 48.2578 365.703 49.6328 363.734 49.6328ZM363.086 48.0469C364.305 48.0469 365.07 47.2109 365.07 45.8672V44.5312C365.07 43.1875 364.305 42.3438 363.086 42.3438C361.867 42.3438 361.102 43.1797 361.102 44.5312V45.8672C361.102 47.2109 361.867 48.0469 363.086 48.0469ZM369.508 43.3672C369.508 41.7734 370.82 40.7578 372.844 40.7578C374.805 40.7578 376.047 41.6641 376.164 43.2031H374.445C374.32 42.5625 373.703 42.1641 372.82 42.1641C371.906 42.1641 371.305 42.5859 371.305 43.2266C371.305 43.7734 371.695 44.0859 372.625 44.2891L373.898 44.5625C375.609 44.9297 376.367 45.6562 376.367 46.9375C376.367 48.6016 375 49.6719 372.852 49.6719C370.758 49.6719 369.43 48.7422 369.305 47.1953H371.109C371.266 47.8672 371.914 48.25 372.883 48.25C373.875 48.25 374.5 47.8125 374.5 47.1484C374.5 46.5859 374.141 46.2969 373.164 46.0859L371.883 45.8047C370.305 45.4531 369.508 44.6406 369.508 43.3672Z" fill="black"/>
<rect x="32" y="88" width="948" height="1" fill="#70737C" fill-opacity="0.16"/>
<path d="M34 141.938C42 136.469 45.6562 132.188 45.6562 128.375C45.6562 125.594 43.7812 124 41.0938 124C39 124 37.4688 124.969 36.625 127.75L34 127C35.1875 123.094 37.8438 121.438 41.0938 121.438C45.2188 121.438 48.4062 124.094 48.4062 128.375C48.4062 132.781 44.6875 137.109 38.4062 141.812V141.938H48.75V144.5H34V141.938ZM53.375 151.25H50.75L57.5 121.875H60.125L53.375 151.25ZM62 125.875C63.7812 124.812 65.5625 123.5 67.4375 121.875H70.125V144.5H67.4375V125.344H67.3125C65.5781 126.719 63.7656 127.922 62 128.844V125.875ZM83.625 144.938C79.875 144.938 77.125 143.031 75.5 139.656L77.9688 138.531C79.2188 141.125 81.0938 142.375 83.625 142.375C86.6562 142.375 88.875 140.594 88.875 138.125C88.875 135.5 86.375 133.906 82.25 133.906H81.5V131.344H82.25C85.8438 131.344 87.9688 130 87.9688 127.688C87.9688 125.531 86.125 124 83.5625 124C81.375 124 79.6562 125.125 78.625 127.25L76.1562 126.125C77.6562 123.031 80.375 121.438 83.5625 121.438C87.6562 121.438 90.7188 124.094 90.7188 127.625C90.7188 130.094 89.2188 131.781 86.4375 132.562V132.656C89.7344 133.547 91.625 135.531 91.625 138.312C91.625 142.094 88.1875 144.938 83.625 144.938ZM103.125 125.875C104.906 124.812 106.688 123.5 108.562 121.875H111.25V144.5H108.562V125.344H108.438C106.703 126.719 104.891 127.922 103.125 128.844V125.875ZM117 141.938C125 136.469 128.656 132.188 128.656 128.375C128.656 125.594 126.781 124 124.094 124C122 124 120.469 124.969 119.625 127.75L117 127C118.188 123.094 120.844 121.438 124.094 121.438C128.219 121.438 131.406 124.094 131.406 128.375C131.406 132.781 127.688 137.109 121.406 141.812V141.938H131.75V144.5H117V141.938ZM143.5 144.938C139.75 144.938 137 143.031 135.375 139.656L137.844 138.531C139.094 141.125 140.969 142.375 143.5 142.375C146.531 142.375 148.75 140.594 148.75 138.125C148.75 135.5 146.25 133.906 142.125 133.906H141.375V131.344H142.125C145.719 131.344 147.844 130 147.844 127.688C147.844 125.531 146 124 143.438 124C141.25 124 139.531 125.125 138.5 127.25L136.031 126.125C137.531 123.031 140.25 121.438 143.438 121.438C147.531 121.438 150.594 124.094 150.594 127.625C150.594 130.094 149.094 131.781 146.312 132.562V132.656C149.609 133.547 151.5 135.531 151.5 138.312C151.5 142.094 148.062 144.938 143.5 144.938ZM154.625 139.406V136.844L163.406 121.875H166.469L157.844 136.625V136.844H165.781V129.75H168.469V136.844H172V139.406H168.469V144.5H165.781V139.406H154.625ZM175.531 134.906L176.719 121.844H189.375V124.406H179.25L178.5 132.219H178.625C179.844 130.719 181.656 129.812 183.75 129.812C187.688 129.812 190.875 133.031 190.875 137.375C190.875 141.812 187.562 144.938 182.875 144.938C179.281 144.938 176.406 143.062 174.75 139.656L177.219 138.531C178.469 141.125 180.375 142.375 182.875 142.375C186.031 142.375 188.125 140.375 188.125 137.375C188.125 134.375 186.031 132.375 182.906 132.375C180.75 132.375 179.078 133.328 178.25 134.906H175.531ZM202.469 144.938C197.094 144.938 194.125 140.594 194.125 133.719C194.125 125.812 198 121.438 203.156 121.438C205.938 121.438 208.375 122.719 209.875 124.906L207.562 126.344C206.531 124.75 204.844 124 203.156 124C199.781 124 197.078 126.984 196.906 133.031H197.031C198.297 131.031 200.469 129.812 203.031 129.812C207.094 129.812 210.25 132.938 210.25 137.375C210.25 141.844 207.031 144.938 202.469 144.938ZM202.469 142.375C205.406 142.375 207.5 140.312 207.5 137.375C207.5 134.438 205.406 132.375 202.469 132.375C199.531 132.375 197.438 134.438 197.438 137.375C197.438 140.312 199.531 142.375 202.469 142.375ZM213.75 124.438V121.875H228.625V124.438C223.812 130.312 221.188 136.906 220.562 144.5H218C218.562 137.078 220.938 130.5 225.281 124.562V124.438H213.75ZM239.688 142.375C242.812 142.375 245 140.625 245 138.125C245 135.625 242.812 133.875 239.688 133.875C236.562 133.875 234.375 135.625 234.375 138.125C234.375 140.625 236.562 142.375 239.688 142.375ZM239.688 131.375C242.031 131.375 243.688 129.844 243.688 127.688C243.688 125.531 242.031 124 239.688 124C237.344 124 235.688 125.531 235.688 127.688C235.688 129.844 237.344 131.375 239.688 131.375ZM231.625 138.25C231.625 135.641 233.312 133.422 236.375 132.5V132.406C234.172 131.609 232.969 129.906 232.969 127.625C232.969 124.094 235.844 121.438 239.688 121.438C243.531 121.438 246.406 124.094 246.406 127.625C246.406 129.906 245.203 131.609 243 132.406V132.5C246.078 133.422 247.75 135.641 247.75 138.25C247.75 142.031 244.281 144.938 239.688 144.938C235.094 144.938 231.625 142.031 231.625 138.25ZM258.094 144.938C255.281 144.938 253 143.594 251.25 141L253.5 139.562C254.875 141.531 256.281 142.375 258.094 142.375C261.469 142.375 264.172 139.391 264.375 133.344H264.25C262.953 135.344 260.781 136.562 258.219 136.562C254.156 136.562 251 133.438 251 129C251 124.531 254.219 121.438 258.781 121.438C264.156 121.438 267.125 125.781 267.125 132.656C267.125 140.562 263.25 144.938 258.094 144.938ZM258.781 134C261.719 134 263.812 131.938 263.812 129C263.812 126.062 261.719 124 258.781 124C255.844 124 253.75 126.062 253.75 129C253.75 131.938 255.844 134 258.781 134ZM278.75 144.938C273.594 144.938 270.375 140.406 270.375 133.188C270.375 125.969 273.594 121.438 278.75 121.438C283.906 121.438 287.125 125.969 287.125 133.188C287.125 140.406 283.906 144.938 278.75 144.938ZM278.75 142.375C282.188 142.375 284.375 138.812 284.375 133.188C284.375 127.562 282.188 124 278.75 124C275.312 124 273.125 127.562 273.125 133.188C273.125 138.812 275.312 142.375 278.75 142.375ZM290.125 151.25H287.5L294.25 121.875H296.875L290.125 151.25ZM298.75 125.875C300.531 124.812 302.312 123.5 304.188 121.875H306.875V144.5H304.188V125.344H304.062C302.328 126.719 300.516 127.922 298.75 128.844V125.875ZM312.625 141.938C320.625 136.469 324.281 132.188 324.281 128.375C324.281 125.594 322.406 124 319.719 124C317.625 124 316.094 124.969 315.25 127.75L312.625 127C313.812 123.094 316.469 121.438 319.719 121.438C323.844 121.438 327.031 124.094 327.031 128.375C327.031 132.781 323.312 137.109 317.031 141.812V141.938H327.375V144.5H312.625V141.938ZM339.125 144.938C335.375 144.938 332.625 143.031 331 139.656L333.469 138.531C334.719 141.125 336.594 142.375 339.125 142.375C342.156 142.375 344.375 140.594 344.375 138.125C344.375 135.5 341.875 133.906 337.75 133.906H337V131.344H337.75C341.344 131.344 343.469 130 343.469 127.688C343.469 125.531 341.625 124 339.062 124C336.875 124 335.156 125.125 334.125 127.25L331.656 126.125C333.156 123.031 335.875 121.438 339.062 121.438C343.156 121.438 346.219 124.094 346.219 127.625C346.219 130.094 344.719 131.781 341.938 132.562V132.656C345.234 133.547 347.125 135.531 347.125 138.312C347.125 142.094 343.688 144.938 339.125 144.938ZM350.25 139.406V136.844L359.031 121.875H362.094L353.469 136.625V136.844H361.406V129.75H364.094V136.844H367.625V139.406H364.094V144.5H361.406V139.406H350.25ZM371.156 134.906L372.344 121.844H385V124.406H374.875L374.125 132.219H374.25C375.469 130.719 377.281 129.812 379.375 129.812C383.312 129.812 386.5 133.031 386.5 137.375C386.5 141.812 383.188 144.938 378.5 144.938C374.906 144.938 372.031 143.062 370.375 139.656L372.844 138.531C374.094 141.125 376 142.375 378.5 142.375C381.656 142.375 383.75 140.375 383.75 137.375C383.75 134.375 381.656 132.375 378.531 132.375C376.375 132.375 374.703 133.328 373.875 134.906H371.156ZM398.094 144.938C392.719 144.938 389.75 140.594 389.75 133.719C389.75 125.812 393.625 121.438 398.781 121.438C401.562 121.438 404 122.719 405.5 124.906L403.188 126.344C402.156 124.75 400.469 124 398.781 124C395.406 124 392.703 126.984 392.531 133.031H392.656C393.922 131.031 396.094 129.812 398.656 129.812C402.719 129.812 405.875 132.938 405.875 137.375C405.875 141.844 402.656 144.938 398.094 144.938ZM398.094 142.375C401.031 142.375 403.125 140.312 403.125 137.375C403.125 134.438 401.031 132.375 398.094 132.375C395.156 132.375 393.062 134.438 393.062 137.375C393.062 140.312 395.156 142.375 398.094 142.375ZM409.375 124.438V121.875H424.25V124.438C419.438 130.312 416.812 136.906 416.188 144.5H413.625C414.188 137.078 416.562 130.5 420.906 124.562V124.438H409.375ZM435.312 142.375C438.438 142.375 440.625 140.625 440.625 138.125C440.625 135.625 438.438 133.875 435.312 133.875C432.188 133.875 430 135.625 430 138.125C430 140.625 432.188 142.375 435.312 142.375ZM435.312 131.375C437.656 131.375 439.312 129.844 439.312 127.688C439.312 125.531 437.656 124 435.312 124C432.969 124 431.312 125.531 431.312 127.688C431.312 129.844 432.969 131.375 435.312 131.375ZM427.25 138.25C427.25 135.641 428.938 133.422 432 132.5V132.406C429.797 131.609 428.594 129.906 428.594 127.625C428.594 124.094 431.469 121.438 435.312 121.438C439.156 121.438 442.031 124.094 442.031 127.625C442.031 129.906 440.828 131.609 438.625 132.406V132.5C441.703 133.422 443.375 135.641 443.375 138.25C443.375 142.031 439.906 144.938 435.312 144.938C430.719 144.938 427.25 142.031 427.25 138.25ZM453.719 144.938C450.906 144.938 448.625 143.594 446.875 141L449.125 139.562C450.5 141.531 451.906 142.375 453.719 142.375C457.094 142.375 459.797 139.391 460 133.344H459.875C458.578 135.344 456.406 136.562 453.844 136.562C449.781 136.562 446.625 133.438 446.625 129C446.625 124.531 449.844 121.438 454.406 121.438C459.781 121.438 462.75 125.781 462.75 132.656C462.75 140.562 458.875 144.938 453.719 144.938ZM454.406 134C457.344 134 459.438 131.938 459.438 129C459.438 126.062 457.344 124 454.406 124C451.469 124 449.375 126.062 449.375 129C449.375 131.938 451.469 134 454.406 134ZM474.375 144.938C469.219 144.938 466 140.406 466 133.188C466 125.969 469.219 121.438 474.375 121.438C479.531 121.438 482.75 125.969 482.75 133.188C482.75 140.406 479.531 144.938 474.375 144.938ZM474.375 142.375C477.812 142.375 480 138.812 480 133.188C480 127.562 477.812 124 474.375 124C470.938 124 468.75 127.562 468.75 133.188C468.75 138.812 470.938 142.375 474.375 142.375Z" fill="#2A2A2A" fill-opacity="0.28"/>
<path d="M523 131.219C526.969 128.75 528.594 127 528.594 125.344C528.594 124.25 527.875 123.562 526.781 123.562C525.906 123.562 525.281 124.031 524.969 125.219L522.906 124.688C523.469 122.594 524.906 121.625 526.781 121.625C529.188 121.625 530.719 123.219 530.719 125.312C530.719 127.328 529.125 129.203 526.312 131.125V131.188H530.875V133.125H523V131.219ZM525.125 144.5L539.812 121.875H542.438L527.75 144.5H525.125ZM536.656 135.312C537.562 134.75 538.438 134.094 539.375 133.25H541.5V144.5H539.375V135.719H539.344C538.438 136.422 537.516 137.062 536.656 137.531V135.312ZM548 144.75C545.812 144.75 544.312 143.688 543.625 141.875L545.625 141.219C546.062 142.312 546.844 142.875 547.969 142.875C549.219 142.875 550.156 142.156 550.156 141.156C550.156 140.094 549.125 139.438 547.406 139.438H547.031V137.781H547.406C548.875 137.781 549.781 137.25 549.781 136.344C549.781 135.5 549.031 134.875 547.938 134.875C546.938 134.875 546.25 135.406 545.906 136.312L543.906 135.656C544.594 133.844 546.125 133 548 133C550.25 133 551.938 134.281 551.938 136.094C551.938 137.297 551.172 138.156 549.812 138.562V138.625C551.406 139.094 552.312 140.078 552.312 141.438C552.312 143.375 550.469 144.75 548 144.75ZM561.906 123.938C562.812 123.375 563.688 122.719 564.625 121.875H566.75V133.125H564.625V124.344H564.594C563.688 125.047 562.766 125.688 561.906 126.156V123.938ZM569.5 131.219C573.469 128.75 575.094 127 575.094 125.344C575.094 124.25 574.375 123.562 573.281 123.562C572.406 123.562 571.781 124.031 571.469 125.219L569.406 124.688C569.969 122.594 571.406 121.625 573.281 121.625C575.688 121.625 577.219 123.219 577.219 125.312C577.219 127.328 575.625 129.203 572.812 131.125V131.188H577.375V133.125H569.5V131.219ZM583.344 133.375C581.156 133.375 579.656 132.312 578.969 130.5L580.969 129.844C581.406 130.938 582.188 131.5 583.312 131.5C584.562 131.5 585.5 130.781 585.5 129.781C585.5 128.719 584.469 128.062 582.75 128.062H582.375V126.406H582.75C584.219 126.406 585.125 125.875 585.125 124.969C585.125 124.125 584.375 123.5 583.281 123.5C582.281 123.5 581.594 124.031 581.25 124.938L579.25 124.281C579.938 122.469 581.469 121.625 583.344 121.625C585.594 121.625 587.281 122.906 587.281 124.719C587.281 125.922 586.516 126.781 585.156 127.188V127.25C586.75 127.719 587.656 128.703 587.656 130.062C587.656 132 585.812 133.375 583.344 133.375ZM589.125 130.812V128.875L593.188 121.875H595.531L591.531 128.812V128.875H594.594V125.938H596.656V128.875H598.344V130.812H596.656V133.125H594.594V130.812H589.125ZM599.938 128.5L600.594 121.875H607.531V123.812H602.469L602.156 126.812H602.219C602.844 126.094 603.719 125.688 604.688 125.688C606.531 125.688 608.281 127.188 608.281 129.438C608.281 131.75 606.5 133.375 604 133.375C602.094 133.375 600.375 132.406 599.625 130.625L601.594 129.875C602.062 131 602.969 131.5 603.969 131.5C605.281 131.5 606.156 130.688 606.156 129.469C606.156 128.25 605.281 127.438 604 127.438C603.094 127.438 602.391 127.844 602.031 128.5H599.938ZM614.219 133.375C611.438 133.375 609.719 131.125 609.719 127.719C609.719 123.938 611.812 121.625 614.656 121.625C616.031 121.625 617.281 122.188 618.125 123.156L616.594 124.531C616.094 123.906 615.375 123.625 614.656 123.625C613.109 123.625 611.953 124.844 611.875 127.219H611.938C612.578 126.297 613.609 125.719 614.812 125.719C616.844 125.719 618.375 127.344 618.375 129.469C618.375 131.719 616.594 133.375 614.219 133.375ZM614.219 131.5C615.406 131.5 616.25 130.656 616.25 129.469C616.25 128.312 615.406 127.469 614.219 127.469C613 127.469 612.156 128.312 612.156 129.469C612.156 130.656 613 131.5 614.219 131.5ZM619.969 123.812V121.875H627.906V123.688C625.594 126.719 624.219 129.469 623.938 133.125H621.844C622.094 129.531 623.281 126.688 625.312 123.875V123.812H619.969ZM633.594 131.594C634.875 131.594 635.75 130.844 635.75 129.812C635.75 128.75 634.844 128 633.594 128C632.344 128 631.438 128.75 631.438 129.812C631.438 130.844 632.312 131.594 633.594 131.594ZM633.594 126.438C634.531 126.438 635.25 125.812 635.25 124.906C635.25 124.031 634.562 123.406 633.594 123.406C632.625 123.406 631.906 124.031 631.906 124.906C631.906 125.812 632.625 126.438 633.594 126.438ZM629.25 130.031C629.25 128.75 630.094 127.703 631.562 127.188V127.125C630.422 126.688 629.781 125.828 629.781 124.719C629.781 122.906 631.406 121.625 633.594 121.625C635.781 121.625 637.406 122.906 637.406 124.719C637.406 125.844 636.766 126.703 635.594 127.125V127.188C637.078 127.688 637.906 128.75 637.906 130.031C637.906 131.969 636.062 133.375 633.594 133.375C631.094 133.375 629.25 131.969 629.25 130.031ZM643.125 133.375C641.719 133.375 640.469 132.781 639.531 131.656L641 130.312C641.656 131.125 642.375 131.406 643.094 131.406C644.609 131.406 645.766 130.156 645.844 127.781H645.781C645.141 128.703 644.109 129.281 642.906 129.281C640.875 129.281 639.344 127.656 639.344 125.531C639.344 123.281 641.125 121.625 643.531 121.625C646.312 121.625 648 123.906 648 127.281C648 131.062 645.938 133.375 643.125 133.375ZM643.531 127.531C644.719 127.531 645.594 126.719 645.594 125.531C645.594 124.344 644.719 123.5 643.531 123.5C642.312 123.5 641.469 124.344 641.469 125.531C641.469 126.688 642.312 127.531 643.531 127.531ZM654 133.375C651.188 133.375 649.438 131.094 649.438 127.5C649.438 123.906 651.188 121.625 654 121.625C656.812 121.625 658.562 123.906 658.562 127.5C658.562 131.094 656.812 133.375 654 133.375ZM654 131.375C655.5 131.375 656.438 129.906 656.438 127.5C656.438 125.094 655.5 123.625 654 123.625C652.5 123.625 651.562 125.062 651.562 127.5C651.562 129.938 652.5 131.375 654 131.375ZM652.625 144.5L667.312 121.875H669.938L655.25 144.5H652.625ZM664.156 135.312C665.062 134.75 665.938 134.094 666.875 133.25H669V144.5H666.875V135.719H666.844C665.938 136.422 665.016 137.062 664.156 137.531V135.312ZM671.438 142.594C675.406 140.125 677.031 138.375 677.031 136.719C677.031 135.625 676.312 134.938 675.219 134.938C674.344 134.938 673.719 135.406 673.406 136.594L671.344 136.062C671.906 133.969 673.344 133 675.219 133C677.625 133 679.156 134.594 679.156 136.688C679.156 138.703 677.562 140.578 674.75 142.5V142.562H679.312V144.5H671.438V142.594ZM684.969 144.75C682.781 144.75 681.281 143.688 680.594 141.875L682.594 141.219C683.031 142.312 683.812 142.875 684.938 142.875C686.188 142.875 687.125 142.156 687.125 141.156C687.125 140.094 686.094 139.438 684.375 139.438H684V137.781H684.375C685.844 137.781 686.75 137.25 686.75 136.344C686.75 135.5 686 134.875 684.906 134.875C683.906 134.875 683.219 135.406 682.875 136.312L680.875 135.656C681.562 133.844 683.094 133 684.969 133C687.219 133 688.906 134.281 688.906 136.094C688.906 137.297 688.141 138.156 686.781 138.562V138.625C688.375 139.094 689.281 140.078 689.281 141.438C689.281 143.375 687.438 144.75 684.969 144.75ZM690.438 142.188V140.25L694.5 133.25H696.844L692.844 140.188V140.25H695.906V137.312H697.969V140.25H699.656V142.188H697.969V144.5H695.906V142.188H690.438ZM700.938 139.875L701.594 133.25H708.531V135.188H703.469L703.156 138.188H703.219C703.844 137.469 704.719 137.062 705.688 137.062C707.531 137.062 709.281 138.562 709.281 140.812C709.281 143.125 707.5 144.75 705 144.75C703.094 144.75 701.375 143.781 700.625 142L702.594 141.25C703.062 142.375 703.969 142.875 704.969 142.875C706.281 142.875 707.156 142.062 707.156 140.844C707.156 139.625 706.281 138.812 705 138.812C704.094 138.812 703.391 139.219 703.031 139.875H700.938ZM715.219 144.75C712.438 144.75 710.719 142.5 710.719 139.094C710.719 135.312 712.812 133 715.656 133C717.031 133 718.281 133.562 719.125 134.531L717.594 135.906C717.094 135.281 716.375 135 715.656 135C714.109 135 712.953 136.219 712.875 138.594H712.938C713.578 137.672 714.609 137.094 715.812 137.094C717.844 137.094 719.375 138.719 719.375 140.844C719.375 143.094 717.594 144.75 715.219 144.75ZM715.219 142.875C716.406 142.875 717.25 142.031 717.25 140.844C717.25 139.688 716.406 138.844 715.219 138.844C714 138.844 713.156 139.688 713.156 140.844C713.156 142.031 714 142.875 715.219 142.875ZM720.656 135.188V133.25H728.594V135.062C726.281 138.094 724.906 140.844 724.625 144.5H722.531C722.781 140.906 723.969 138.062 726 135.25V135.188H720.656ZM733.969 142.969C735.25 142.969 736.125 142.219 736.125 141.188C736.125 140.125 735.219 139.375 733.969 139.375C732.719 139.375 731.812 140.125 731.812 141.188C731.812 142.219 732.688 142.969 733.969 142.969ZM733.969 137.812C734.906 137.812 735.625 137.188 735.625 136.281C735.625 135.406 734.938 134.781 733.969 134.781C733 134.781 732.281 135.406 732.281 136.281C732.281 137.188 733 137.812 733.969 137.812ZM729.625 141.406C729.625 140.125 730.469 139.078 731.938 138.562V138.5C730.797 138.062 730.156 137.203 730.156 136.094C730.156 134.281 731.781 133 733.969 133C736.156 133 737.781 134.281 737.781 136.094C737.781 137.219 737.141 138.078 735.969 138.5V138.562C737.453 139.062 738.281 140.125 738.281 141.406C738.281 143.344 736.438 144.75 733.969 144.75C731.469 144.75 729.625 143.344 729.625 141.406ZM743.188 144.75C741.781 144.75 740.531 144.156 739.594 143.031L741.062 141.688C741.719 142.5 742.438 142.781 743.156 142.781C744.672 142.781 745.828 141.531 745.906 139.156H745.844C745.203 140.078 744.172 140.656 742.969 140.656C740.938 140.656 739.406 139.031 739.406 136.906C739.406 134.656 741.188 133 743.594 133C746.375 133 748.062 135.281 748.062 138.656C748.062 142.438 746 144.75 743.188 144.75ZM743.594 138.906C744.781 138.906 745.656 138.094 745.656 136.906C745.656 135.719 744.781 134.875 743.594 134.875C742.375 134.875 741.531 135.719 741.531 136.906C741.531 138.062 742.375 138.906 743.594 138.906ZM754.062 144.75C751.25 144.75 749.5 142.469 749.5 138.875C749.5 135.281 751.25 133 754.062 133C756.875 133 758.625 135.281 758.625 138.875C758.625 142.469 756.875 144.75 754.062 144.75ZM754.062 142.75C755.562 142.75 756.5 141.281 756.5 138.875C756.5 136.469 755.562 135 754.062 135C752.562 135 751.625 136.438 751.625 138.875C751.625 141.312 752.562 142.75 754.062 142.75Z" fill="#0066FF"/>
</svg>
