<svg width="1012" height="305" viewBox="0 0 1012 305" fill="none" xmlns="http://www.w3.org/2000/svg">
<rect x="0.5" y="0.5" width="1011" height="304" rx="15.5" stroke="#70737C" stroke-opacity="0.16"/>
<rect x="32" y="32" width="52" height="24" rx="4" fill="#70737C" fill-opacity="0.08"/>
<path d="M46.9297 49.5H39.6484V48.0469H42.4531V39.0938H39.7422V37.6406H44.2656V48.0469H46.9297V49.5ZM53.0547 49.6719C50.6953 49.6719 49.2031 48.2031 49.2031 45.875V44.5703C49.2031 42.2422 50.6953 40.7734 53.0547 40.7734C55.4141 40.7734 56.9062 42.2422 56.9062 44.5703V45.875C56.9062 48.2031 55.4141 49.6719 53.0547 49.6719ZM53.0547 42.2812C51.7891 42.2812 51 43.1953 51 44.6719V45.7734C51 47.25 51.7891 48.1641 53.0547 48.1641C54.3203 48.1641 55.1094 47.25 55.1094 45.7734V44.6719C55.1094 43.1953 54.3203 42.2812 53.0547 42.2812ZM66.6953 43.7969H64.9141C64.7656 42.8203 64.0859 42.2812 63.0938 42.2812C61.8125 42.2812 61.1094 43.2031 61.1094 44.8828V45.5391C61.1094 47.2188 61.8125 48.1406 63.0938 48.1406C64.0938 48.1406 64.7578 47.625 64.9141 46.6797H66.6953C66.5 48.5938 65.1953 49.6719 63.1094 49.6719C60.6641 49.6719 59.2812 48.25 59.2812 45.7031V44.7188C59.2812 42.1797 60.6641 40.75 63.1094 40.75C65.2031 40.75 66.4922 41.8359 66.6953 43.7969ZM76.6016 49.5H69.3203V48.0469H72.125V39.0938H69.4141V37.6406H73.9375V48.0469H76.6016V49.5Z" fill="black"/>
<rect x="32" y="88" width="948" height="1" fill="#70737C" fill-opacity="0.16"/>
<rect x="32" y="121" width="52" height="24" rx="4" fill="#70737C" fill-opacity="0.08"/>
<path d="M39.4531 138.5V126.641H41.2188V131.422H41.3359C41.7656 130.383 42.7344 129.789 44 129.789C45.8672 129.789 46.8828 130.914 46.8828 132.969V138.5H45.0625V133.414C45.0625 132.047 44.4922 131.383 43.3125 131.383C42.0781 131.383 41.2656 132.242 41.2656 133.539V138.5H39.4531ZM52.0156 138.641C50.3906 138.641 49.3047 137.609 49.3047 136.062C49.3047 134.531 50.4141 133.625 52.4609 133.5L54.6016 133.375V132.656C54.6016 131.773 54.0312 131.273 53.0312 131.273C52.1953 131.273 51.5859 131.633 51.3984 132.258H49.6172C49.7734 130.781 51.1562 129.805 53.0781 129.805C55.1953 129.805 56.3984 130.844 56.3984 132.672V138.5H54.6719V137.305H54.5078C54.0938 138.156 53.1797 138.641 52.0156 138.641ZM52.6016 137.156C53.7578 137.156 54.6016 136.414 54.6016 135.383V134.602L52.7344 134.703C51.6641 134.766 51.1094 135.195 51.1094 135.953C51.1094 136.695 51.6875 137.156 52.6016 137.156ZM59.25 138.5V129.945H61.0078V131.406H61.1328C61.5703 130.359 62.5156 129.773 63.7734 129.773C65.6328 129.773 66.6406 130.883 66.6406 132.953V138.5H64.8203V133.398C64.8203 132.023 64.2578 131.367 63.0859 131.367C61.8672 131.367 61.0703 132.219 61.0703 133.516V138.5H59.25ZM70.625 134.734C70.625 136.07 71.4141 136.922 72.6484 136.922C73.875 136.922 74.6641 136.07 74.6641 134.734V133.531C74.6641 132.195 73.875 131.344 72.6484 131.344C71.4141 131.344 70.625 132.195 70.625 133.531V134.734ZM72.5938 141.719C70.4688 141.719 69.0625 140.805 68.9062 139.328H70.6875C70.8438 139.945 71.6016 140.344 72.6172 140.344C73.9531 140.344 74.6797 139.703 74.6797 138.508V136.961H74.5234C74.2188 137.906 73.2344 138.508 71.9766 138.508C70 138.508 68.7734 137.109 68.7734 134.852V133.453C68.7734 131.18 70.0156 129.797 72.0469 129.797C73.2891 129.797 74.2422 130.391 74.5547 131.344H74.7109V129.945H76.5V138.492C76.5 140.5 75.0234 141.719 72.5938 141.719Z" fill="black"/>
<path d="M126.469 144.5L124 137.906H114.188L111.719 144.5H108.719L117.375 121.875H120.812L129.469 144.5H126.469ZM115.156 135.344H123.062L119.156 124.969H119.031L115.156 135.344ZM134.188 144.75C133.062 144.75 132.25 143.938 132.25 142.812C132.25 141.688 133.062 140.875 134.188 140.875C135.312 140.875 136.125 141.688 136.125 142.812C136.125 143.938 135.312 144.75 134.188 144.75ZM141.688 144.75C140.562 144.75 139.75 143.938 139.75 142.812C139.75 141.688 140.562 140.875 141.688 140.875C142.812 140.875 143.625 141.688 143.625 142.812C143.625 143.938 142.812 144.75 141.688 144.75ZM149.188 144.75C148.062 144.75 147.25 143.938 147.25 142.812C147.25 141.688 148.062 140.875 149.188 140.875C150.312 140.875 151.125 141.688 151.125 142.812C151.125 143.938 150.312 144.75 149.188 144.75ZM157.188 144.75C156.062 144.75 155.25 143.938 155.25 142.812C155.25 141.688 156.062 140.875 157.188 140.875C158.312 140.875 159.125 141.688 159.125 142.812C159.125 143.938 158.312 144.75 157.188 144.75ZM164.688 144.75C163.562 144.75 162.75 143.938 162.75 142.812C162.75 141.688 163.562 140.875 164.688 140.875C165.812 140.875 166.625 141.688 166.625 142.812C166.625 143.938 165.812 144.75 164.688 144.75ZM172.188 144.75C171.062 144.75 170.25 143.938 170.25 142.812C170.25 141.688 171.062 140.875 172.188 140.875C173.312 140.875 174.125 141.688 174.125 142.812C174.125 143.938 173.312 144.75 172.188 144.75ZM180.188 144.75C179.062 144.75 178.25 143.938 178.25 142.812C178.25 141.688 179.062 140.875 180.188 140.875C181.312 140.875 182.125 141.688 182.125 142.812C182.125 143.938 181.312 144.75 180.188 144.75ZM198.5 151.25C195.875 146.906 194.438 141.906 194.438 136.562C194.438 131.219 195.875 126.219 198.5 121.875H201.469C198.844 126.062 197.25 131.125 197.25 136.562C197.25 141.969 198.844 147.031 201.469 151.25H198.5ZM225.031 119.312V128.438H229.188V130.5H225.031V140.094H222.562V119.312H225.031ZM219.938 122.688V124.688H203.406V122.688H210.438V119.281H212.906V122.688H219.938ZM211.656 126.25C215.609 126.25 218.344 128.297 218.344 131.406C218.344 134.516 215.609 136.562 211.656 136.562C207.656 136.562 204.953 134.516 204.969 131.406C204.953 128.297 207.656 126.25 211.656 126.25ZM211.656 128.156C209.062 128.172 207.281 129.453 207.281 131.406C207.281 133.344 209.062 134.625 211.656 134.625C214.234 134.625 216 133.344 216 131.406C216 129.453 214.219 128.172 211.656 128.156ZM226.312 144.375V146.406H207.625V138.438H210.094V144.375H226.312ZM253.062 120.438V122.219C253.047 124.109 253.047 126.5 252.438 129.625H256.375V131.656H230.969V129.625H250C250.609 126.547 250.641 124.281 250.656 122.438H234.219V120.438H253.062ZM253.156 134.438V141.406H236.469V144.688H253.844V146.688H234.031V139.531H250.719V136.406H233.969V134.438H253.156ZM258.219 151.25C260.844 147.031 262.438 141.969 262.438 136.562C262.438 131.125 260.844 126.062 258.219 121.875H261.188C263.812 126.219 265.25 131.219 265.25 136.562C265.25 141.906 263.812 146.906 261.188 151.25H258.219ZM298.344 119.312V128.438H302.5V130.5H298.344V140.094H295.875V119.312H298.344ZM293.25 122.688V124.688H276.719V122.688H283.75V119.281H286.219V122.688H293.25ZM284.969 126.25C288.922 126.25 291.656 128.297 291.656 131.406C291.656 134.516 288.922 136.562 284.969 136.562C280.969 136.562 278.266 134.516 278.281 131.406C278.266 128.297 280.969 126.25 284.969 126.25ZM284.969 128.156C282.375 128.172 280.594 129.453 280.594 131.406C280.594 133.344 282.375 134.625 284.969 134.625C287.547 134.625 289.312 133.344 289.312 131.406C289.312 129.453 287.531 128.172 284.969 128.156ZM299.625 144.375V146.406H280.938V138.438H283.406V144.375H299.625ZM321.281 131.906V134.469H314.531V141.312H311.781V134.469H305.031V131.906H311.781V125.062H314.531V131.906H321.281ZM346 119.312V128.438H350.156V130.5H346V140.094H343.531V119.312H346ZM340.906 122.688V124.688H324.375V122.688H331.406V119.281H333.875V122.688H340.906ZM332.625 126.25C336.578 126.25 339.312 128.297 339.312 131.406C339.312 134.516 336.578 136.562 332.625 136.562C328.625 136.562 325.922 134.516 325.938 131.406C325.922 128.297 328.625 126.25 332.625 126.25ZM332.625 128.156C330.031 128.172 328.25 129.453 328.25 131.406C328.25 133.344 330.031 134.625 332.625 134.625C335.203 134.625 336.969 133.344 336.969 131.406C336.969 129.453 335.188 128.172 332.625 128.156ZM347.281 144.375V146.406H328.594V138.438H331.062V144.375H347.281ZM360.5 135.5C360.5 142.438 355.094 141.594 355.094 145.375C355.094 147.469 356.75 148.812 359.094 148.812C361.594 148.812 363.094 147.312 363.094 144.75H365.906C365.906 148.812 363.312 151.438 359.094 151.438C355.188 151.438 352.281 149.188 352.281 145.375C352.281 140.188 357.688 141.062 357.688 135.75V135H360.5V135.5ZM359.094 128.125C360.219 128.125 361.031 128.938 361.031 130.062C361.031 131.188 360.219 132 359.094 132C357.969 132 357.156 131.188 357.156 130.062C357.156 128.938 357.969 128.125 359.094 128.125ZM381.469 142.719L377 136.062L381.469 129.406H384.688L380.188 136.062L384.688 142.719H381.469ZM404.781 144.5L402.312 137.906H392.5L390.031 144.5H387.031L395.688 121.875H399.125L407.781 144.5H404.781ZM393.469 135.344H401.375L397.469 124.969H397.344L393.469 135.344ZM413.344 142.719H410.125L414.625 136.062L410.125 129.406H413.344L417.812 136.062L413.344 142.719ZM433.75 151.25C431.125 146.906 429.688 141.906 429.688 136.562C429.688 131.219 431.125 126.219 433.75 121.875H436.719C434.094 126.062 432.5 131.125 432.5 136.562C432.5 141.969 434.094 147.031 436.719 151.25H433.75ZM449.906 144.938C443.219 144.938 438.156 139.875 438.156 133.188C438.156 126.5 443.219 121.438 449.906 121.438C456.594 121.438 461.656 126.5 461.656 133.188C461.656 139.875 456.594 144.938 449.906 144.938ZM449.906 142.312C455.156 142.312 458.844 138.531 458.844 133.188C458.844 127.844 455.156 124.062 449.906 124.062C444.656 124.062 440.969 127.844 440.969 133.188C440.969 138.531 444.656 142.312 449.906 142.312ZM463.094 151.25C465.719 147.031 467.312 141.969 467.312 136.562C467.312 131.125 465.719 126.062 463.094 121.875H466.062C468.688 126.219 470.125 131.219 470.125 136.562C470.125 141.906 468.688 146.906 466.062 151.25H463.094Z" fill="#2A2A2A" fill-opacity="0.28"/>
<path d="M898.094 148.125C900.719 143.906 902.312 138.844 902.312 133.438C902.312 128 900.719 122.938 898.094 118.75H901.062C903.688 123.094 905.125 128.094 905.125 133.438C905.125 138.781 903.688 143.781 901.062 148.125H898.094Z" fill="#0066FF"/>
<path d="M884.906 144.938C878.219 144.938 873.156 139.875 873.156 133.188C873.156 126.5 878.219 121.438 884.906 121.438C891.594 121.438 896.656 126.5 896.656 133.188C896.656 139.875 891.594 144.938 884.906 144.938ZM884.906 142.312C890.156 142.312 893.844 138.531 893.844 133.188C893.844 127.844 890.156 124.062 884.906 124.062C879.656 124.062 875.969 127.844 875.969 133.188C875.969 138.531 879.656 142.312 884.906 142.312Z" fill="black"/>
<path d="M868.75 148.125C866.125 143.781 864.688 138.781 864.688 133.438C864.688 128.094 866.125 123.094 868.75 118.75H871.719C869.094 122.938 867.5 128 867.5 133.438C867.5 138.844 869.094 143.906 871.719 148.125H868.75Z" fill="#0066FF"/>
<path d="M848.344 140.094H845.125L849.625 133.438L845.125 126.781H848.344L852.812 133.438L848.344 140.094Z" fill="#0066FF"/>
<path d="M839.781 144.5L837.312 137.906H827.5L825.031 144.5H822.031L830.688 121.875H834.125L842.781 144.5H839.781ZM828.469 135.344H836.375L832.469 124.969H832.344L828.469 135.344Z" fill="black"/>
<path d="M816.469 140.094L812 133.438L816.469 126.781H819.688L815.188 133.438L819.688 140.094H816.469Z" fill="#0066FF"/>
<path d="M795.5 129C795.5 135.938 790.094 135.094 790.094 138.875C790.094 140.969 791.75 142.312 794.094 142.312C796.594 142.312 798.094 140.812 798.094 138.25H800.906C800.906 142.312 798.312 144.938 794.094 144.938C790.188 144.938 787.281 142.688 787.281 138.875C787.281 133.688 792.688 134.562 792.688 129.25V128.5H795.5V129ZM794.094 121.625C795.219 121.625 796.031 122.438 796.031 123.562C796.031 124.688 795.219 125.5 794.094 125.5C792.969 125.5 792.156 124.688 792.156 123.562C792.156 122.438 792.969 121.625 794.094 121.625Z" fill="#0066FF"/>
<path d="M781 119.312V128.438H785.156V130.5H781V140.094H778.531V119.312H781ZM775.906 122.688V124.688H759.375V122.688H766.406V119.281H768.875V122.688H775.906ZM767.625 126.25C771.578 126.25 774.312 128.297 774.312 131.406C774.312 134.516 771.578 136.562 767.625 136.562C763.625 136.562 760.922 134.516 760.938 131.406C760.922 128.297 763.625 126.25 767.625 126.25ZM767.625 128.156C765.031 128.172 763.25 129.453 763.25 131.406C763.25 133.344 765.031 134.625 767.625 134.625C770.203 134.625 771.969 133.344 771.969 131.406C771.969 129.453 770.188 128.172 767.625 128.156ZM782.281 144.375V146.406H763.594V138.438H766.062V144.375H782.281Z" fill="black"/>
<path d="M756.281 131.906V134.469H749.531V141.312H746.781V134.469H740.031V131.906H746.781V125.062H749.531V131.906H756.281Z" fill="#0066FF"/>
<path d="M733.344 119.312V128.438H737.5V130.5H733.344V140.094H730.875V119.312H733.344ZM728.25 122.688V124.688H711.719V122.688H718.75V119.281H721.219V122.688H728.25ZM719.969 126.25C723.922 126.25 726.656 128.297 726.656 131.406C726.656 134.516 723.922 136.562 719.969 136.562C715.969 136.562 713.266 134.516 713.281 131.406C713.266 128.297 715.969 126.25 719.969 126.25ZM719.969 128.156C717.375 128.172 715.594 129.453 715.594 131.406C715.594 133.344 717.375 134.625 719.969 134.625C722.547 134.625 724.312 133.344 724.312 131.406C724.312 129.453 722.531 128.172 719.969 128.156ZM734.625 144.375V146.406H715.938V138.438H718.406V144.375H734.625Z" fill="black"/>
<path d="M693.219 148.125C695.844 143.906 697.438 138.844 697.438 133.438C697.438 128 695.844 122.938 693.219 118.75H696.188C698.812 123.094 700.25 128.094 700.25 133.438C700.25 138.781 698.812 143.781 696.188 148.125H693.219Z" fill="#0066FF"/>
<path d="M688.062 120.438V122.219C688.047 124.109 688.047 126.5 687.438 129.625H691.375V131.656H665.969V129.625H685C685.609 126.547 685.641 124.281 685.656 122.438H669.219V120.438H688.062ZM688.156 134.438V141.406H671.469V144.688H688.844V146.688H669.031V139.531H685.719V136.406H668.969V134.438H688.156Z" fill="black"/>
<path d="M660.031 119.312V128.438H664.188V130.5H660.031V140.094H657.562V119.312H660.031ZM654.938 122.688V124.688H638.406V122.688H645.438V119.281H647.906V122.688H654.938ZM646.656 126.25C650.609 126.25 653.344 128.297 653.344 131.406C653.344 134.516 650.609 136.562 646.656 136.562C642.656 136.562 639.953 134.516 639.969 131.406C639.953 128.297 642.656 126.25 646.656 126.25ZM646.656 128.156C644.062 128.172 642.281 129.453 642.281 131.406C642.281 133.344 644.062 134.625 646.656 134.625C649.234 134.625 651 133.344 651 131.406C651 129.453 649.219 128.172 646.656 128.156ZM661.312 144.375V146.406H642.625V138.438H645.094V144.375H661.312Z" fill="black"/>
<path d="M633.5 148.125C630.875 143.781 629.438 138.781 629.438 133.438C629.438 128.094 630.875 123.094 633.5 118.75H636.469C633.844 122.938 632.25 128 632.25 133.438C632.25 138.844 633.844 143.906 636.469 148.125H633.5Z" fill="#0066FF"/>
<path d="M615.188 144.75C614.062 144.75 613.25 143.938 613.25 142.812C613.25 141.688 614.062 140.875 615.188 140.875C616.312 140.875 617.125 141.688 617.125 142.812C617.125 143.938 616.312 144.75 615.188 144.75Z" fill="black"/>
<path d="M592.188 135.125C591.062 135.125 590.25 134.312 590.25 133.188C590.25 132.062 591.062 131.25 592.188 131.25C593.312 131.25 594.125 132.062 594.125 133.188C594.125 134.312 593.312 135.125 592.188 135.125ZM599.688 135.125C598.562 135.125 597.75 134.312 597.75 133.188C597.75 132.062 598.562 131.25 599.688 131.25C600.812 131.25 601.625 132.062 601.625 133.188C601.625 134.312 600.812 135.125 599.688 135.125ZM607.188 135.125C606.062 135.125 605.25 134.312 605.25 133.188C605.25 132.062 606.062 131.25 607.188 131.25C608.312 131.25 609.125 132.062 609.125 133.188C609.125 134.312 608.312 135.125 607.188 135.125Z" fill="#0066FF"/>
<path d="M569.188 135.125C568.062 135.125 567.25 134.312 567.25 133.188C567.25 132.062 568.062 131.25 569.188 131.25C570.312 131.25 571.125 132.062 571.125 133.188C571.125 134.312 570.312 135.125 569.188 135.125ZM576.688 135.125C575.562 135.125 574.75 134.312 574.75 133.188C574.75 132.062 575.562 131.25 576.688 131.25C577.812 131.25 578.625 132.062 578.625 133.188C578.625 134.312 577.812 135.125 576.688 135.125ZM584.188 135.125C583.062 135.125 582.25 134.312 582.25 133.188C582.25 132.062 583.062 131.25 584.188 131.25C585.312 131.25 586.125 132.062 586.125 133.188C586.125 134.312 585.312 135.125 584.188 135.125Z" fill="#0066FF"/>
<path d="M562.469 144.5L560 137.906H550.188L547.719 144.5H544.719L553.375 121.875H556.812L565.469 144.5H562.469ZM551.156 135.344H559.062L555.156 124.969H555.031L551.156 135.344Z" fill="black"/>
<rect x="32" y="185" width="42" height="24" rx="4" fill="#70737C" fill-opacity="0.08"/>
<path d="M39.4766 191.227H43.4531C45.75 191.227 47.2266 192.695 47.2266 194.984C47.2266 197.258 45.7188 198.727 43.375 198.727H41.3672V202.5H39.4766V191.227ZM41.3672 192.805V197.148H42.9844C44.5078 197.148 45.3125 196.406 45.3125 194.977C45.3125 193.547 44.5078 192.805 42.9844 192.805H41.3672ZM56.9219 200.82V202.5H49.9609V191.227H51.8281V200.82H56.9219ZM61.1641 202.5H59.3594V191.227H61.1641V196.555H61.2812L65.4688 191.227H67.5234L63.5234 196.203L67.8359 202.5H65.5938L62.2344 197.578L61.1641 198.898V202.5Z" fill="black"/>
<path d="M120.625 208.938C114.375 208.938 109.469 203.781 109.469 197.188C109.469 190.594 114.375 185.438 120.625 185.438C124.25 185.438 127.422 187.172 129.469 189.906L127.25 191.562C125.734 189.422 123.344 188.062 120.625 188.062C115.969 188.062 112.281 192.094 112.281 197.188C112.281 202.281 115.969 206.312 120.625 206.312C123.344 206.312 125.734 204.953 127.25 202.812L129.469 204.469C127.422 207.203 124.25 208.938 120.625 208.938ZM121.844 183.375H119.406L122.188 178.625H125.125L121.844 183.375ZM133.156 208.5V185.875H136.375L148.781 204.156H148.906V185.875H151.656V208.5H148.531L136.031 190.094H135.906V208.5H133.156ZM143.625 183.375H141.188L143.969 178.625H146.906L143.625 183.375ZM167.094 208.938C160.406 208.938 155.344 203.875 155.344 197.188C155.344 190.5 160.406 185.438 167.094 185.438C173.781 185.438 178.844 190.5 178.844 197.188C178.844 203.875 173.781 208.938 167.094 208.938ZM167.094 206.312C172.344 206.312 176.031 202.531 176.031 197.188C176.031 191.844 172.344 188.062 167.094 188.062C161.844 188.062 158.156 191.844 158.156 197.188C158.156 202.531 161.844 206.312 167.094 206.312ZM168.312 183.375H165.875L168.656 178.625H171.594L168.312 183.375ZM189.594 208.938C186.219 208.938 183.75 207.562 181.781 204.656L184.094 203.188C185.656 205.406 187.25 206.312 189.594 206.312C192.688 206.312 194.594 204.75 194.594 202.188C194.594 200.125 193.344 199.031 189.781 198.031L188.656 197.719C184.469 196.562 182.594 194.719 182.594 191.781C182.594 188.125 185.531 185.438 189.594 185.438C192.656 185.438 195.406 187 197.062 189.656L194.688 191.031C193.438 189.094 191.656 188.062 189.594 188.062C187.094 188.062 185.406 189.562 185.406 191.781C185.406 193.5 186.438 194.375 189.406 195.188L190.531 195.5C195.344 196.844 197.406 198.844 197.406 202.188C197.406 206.25 194.281 208.938 189.594 208.938ZM190.812 183.375H188.375L191.156 178.625H194.094L190.812 183.375ZM200.562 208.5V205.938L213.781 188.562V188.438H200.688V185.875H217.188V188.438L203.969 205.812V205.938H217.438V208.5H200.562ZM210.219 183.375H207.781L210.562 178.625H213.5L210.219 183.375ZM236.406 206.438C239.469 206.438 241.656 203.969 241.656 200.438C241.656 196.906 239.469 194.438 236.406 194.438C233.312 194.438 231.156 196.938 231.156 200.438C231.156 203.938 233.312 206.438 236.406 206.438ZM244.156 208.5H241.531V205.969H241.438C240.328 207.891 238.531 208.938 236.156 208.938C231.688 208.938 228.469 205.281 228.469 200.438C228.469 195.594 231.688 191.938 236.156 191.938C238.531 191.938 240.328 192.984 241.438 194.906H241.531V192.375H244.156V208.5ZM238.25 189.875H235.812L238.594 185.125H241.531L238.25 189.875ZM255.938 208.938C251.156 208.938 247.594 205.281 247.594 200.438C247.594 195.594 251.156 191.938 255.938 191.938C258.922 191.938 261.328 193.359 262.656 195.688L260.344 196.875C259.469 195.328 257.938 194.438 255.938 194.438C252.594 194.438 250.281 196.906 250.281 200.438C250.281 203.969 252.594 206.438 255.938 206.438C257.938 206.438 259.469 205.547 260.344 204L262.656 205.188C261.328 207.516 258.922 208.938 255.938 208.938ZM257.156 189.875H254.719L257.5 185.125H260.438L257.156 189.875ZM266.094 208.5V192.375H268.719V194.719H268.844C269.625 193 271.359 191.938 273.656 191.938C277.25 191.938 279.219 194.469 279.219 198.625V208.5H276.594V199C276.594 196.031 275.344 194.438 273.094 194.438C270.844 194.438 268.719 196.031 268.719 199.5V208.5H266.094ZM273.875 189.875H271.438L274.219 185.125H277.156L273.875 189.875ZM290.938 208.938C286.219 208.938 282.656 205.281 282.656 200.438C282.656 195.594 286.219 191.938 290.938 191.938C295.656 191.938 299.219 195.594 299.219 200.438C299.219 205.281 295.656 208.938 290.938 208.938ZM290.938 206.438C294.219 206.438 296.531 203.969 296.531 200.438C296.531 196.906 294.219 194.438 290.938 194.438C287.656 194.438 285.344 196.906 285.344 200.438C285.344 203.969 287.656 206.438 290.938 206.438ZM292.156 189.875H289.719L292.5 185.125H295.438L292.156 189.875ZM308.031 208.938C305.406 208.938 303.312 207.906 301.781 205.875L303.906 204.375C304.969 205.812 306.219 206.438 308.031 206.438C310.281 206.438 311.594 205.5 311.594 203.906C311.594 202.656 310.75 202.031 308.156 201.375L307.281 201.156C303.938 200.312 302.344 198.875 302.344 196.688C302.344 193.969 304.781 191.938 308.031 191.938C310.438 191.938 312.656 193.062 313.938 194.969L311.75 196.406C310.844 195.125 309.562 194.438 308.031 194.438C306.25 194.438 305.031 195.344 305.031 196.688C305.031 197.688 305.688 198.156 307.906 198.719L308.781 198.938C312.594 199.875 314.281 201.406 314.281 203.906C314.281 206.906 311.75 208.938 308.031 208.938ZM309.25 189.875H306.812L309.594 185.125H312.531L309.25 189.875ZM317.219 208.5V206.062L326.438 194.969V194.812H317.344V192.375H329.844V194.812L320.625 205.906V206.062H330.094V208.5H317.219ZM324.875 189.875H322.438L325.219 185.125H328.156L324.875 189.875Z" fill="#2A2A2A" fill-opacity="0.28"/>
<path d="M760.777 189.875L762.398 185.125H759.708L758.458 189.875H760.768H760.777ZM753.188 208.505H766.068V206.065H756.598V205.905L765.818 194.815V192.375H753.318V194.815H762.408V194.975L753.188 206.065V208.505ZM745.158 189.875L746.777 185.125H744.087L742.837 189.875H745.148H745.158ZM743.997 208.935C747.717 208.935 750.247 206.905 750.247 203.905C750.247 201.405 748.557 199.875 744.747 198.935L743.867 198.715C741.647 198.155 740.988 197.685 740.988 196.685C740.988 195.345 742.208 194.435 743.988 194.435C745.518 194.435 746.798 195.125 747.708 196.405L749.898 194.965C748.618 193.055 746.398 191.935 743.988 191.935C740.738 191.935 738.298 193.965 738.298 196.685C738.298 198.875 739.887 200.305 743.238 201.155L744.117 201.375C746.707 202.035 747.557 202.655 747.557 203.905C747.557 205.495 746.247 206.435 743.997 206.435C742.188 206.435 740.938 205.815 739.878 204.375L737.758 205.875C739.288 207.905 741.378 208.935 744.008 208.935M728.068 189.875L729.688 185.125H726.997L725.747 189.875H728.057H728.068ZM726.908 206.435C723.628 206.435 721.318 203.965 721.318 200.435C721.318 196.905 723.628 194.435 726.908 194.435C730.188 194.435 732.497 196.905 732.497 200.435C732.497 203.965 730.188 206.435 726.908 206.435ZM726.908 208.935C731.628 208.935 735.188 205.275 735.188 200.435C735.188 195.595 731.628 191.935 726.908 191.935C722.188 191.935 718.628 195.595 718.628 200.435C718.628 205.275 722.188 208.935 726.908 208.935ZM709.788 189.875L711.408 185.125H708.717L707.467 189.875H709.777H709.788ZM702.068 208.505H704.688V199.505C704.688 196.035 706.808 194.445 709.068 194.445C711.327 194.445 712.568 196.035 712.568 199.005V208.505H715.188V198.625C715.188 194.465 713.217 191.935 709.628 191.935C707.327 191.935 705.598 192.995 704.818 194.715H704.697V192.375H702.077V208.505H702.068ZM693.068 189.875L694.688 185.125H691.997L690.747 189.875H693.057H693.068ZM691.908 208.935C694.898 208.935 697.298 207.515 698.628 205.185L696.318 203.995C695.438 205.545 693.908 206.435 691.908 206.435C688.568 206.435 686.247 203.965 686.247 200.435C686.247 196.905 688.557 194.435 691.908 194.435C693.908 194.435 695.438 195.325 696.318 196.875L698.628 195.685C697.298 193.355 694.898 191.935 691.908 191.935C687.128 191.935 683.568 195.595 683.568 200.435C683.568 205.275 687.128 208.935 691.908 208.935ZM674.158 189.875L675.777 185.125H673.088L671.838 189.875H674.148H674.158ZM680.128 208.505V192.375H677.508V194.905H677.417C676.307 192.985 674.507 191.935 672.137 191.935C667.667 191.935 664.448 195.595 664.448 200.435C664.448 205.275 667.667 208.935 672.137 208.935C674.518 208.935 676.307 207.885 677.417 205.965H677.508V208.495H680.128V208.505ZM672.378 206.445C669.288 206.445 667.128 203.945 667.128 200.445C667.128 196.945 669.288 194.445 672.378 194.445C675.467 194.445 677.628 196.915 677.628 200.445C677.628 203.975 675.438 206.445 672.378 206.445ZM646.128 183.385L647.747 178.635H645.058L643.808 183.385H646.118H646.128ZM636.537 208.515H653.418V205.955H639.948V205.835L653.168 188.455V185.895H636.668V188.455H649.757V188.575L636.537 205.955V208.515ZM626.728 183.385L628.348 178.635H625.658L624.408 183.385H626.717H626.728ZM625.567 208.945C630.257 208.945 633.378 206.255 633.378 202.195C633.378 198.855 631.317 196.855 626.497 195.505L625.378 195.195C622.408 194.385 621.378 193.505 621.378 191.785C621.378 189.565 623.067 188.065 625.567 188.065C627.627 188.065 629.408 189.095 630.658 191.035L633.037 189.655C631.377 186.995 628.627 185.435 625.567 185.435C621.507 185.435 618.567 188.125 618.567 191.775C618.567 194.715 620.448 196.555 624.628 197.715L625.747 198.025C629.307 199.025 630.558 200.115 630.558 202.185C630.558 204.745 628.647 206.305 625.558 206.305C623.218 206.305 621.618 205.395 620.058 203.185L617.747 204.655C619.717 207.565 622.188 208.935 625.558 208.935M604.217 183.375L605.838 178.625H603.147L601.897 183.375H604.208H604.217ZM603.057 206.315C597.807 206.315 594.118 202.535 594.118 197.195C594.118 191.855 597.807 188.075 603.057 188.075C608.307 188.075 611.997 191.855 611.997 197.195C611.997 202.535 608.307 206.315 603.057 206.315ZM603.057 208.935C609.747 208.935 614.808 203.875 614.808 197.185C614.808 190.495 609.747 185.435 603.057 185.435C596.368 185.435 591.307 190.495 591.307 197.185C591.307 203.875 596.368 208.935 603.057 208.935ZM579.528 183.375L581.147 178.625H578.458L577.208 183.375H579.518H579.528ZM569.118 208.505H571.868V190.095H571.987L584.487 208.505H587.607V185.875H584.857V204.155H584.737L572.347 185.875H569.128V208.505H569.118ZM557.748 183.375L559.368 178.625H556.677L555.427 183.375H557.738H557.748ZM556.587 208.935C560.207 208.935 563.388 207.205 565.427 204.465L563.208 202.805C561.688 204.945 559.297 206.305 556.587 206.305C551.927 206.305 548.247 202.275 548.247 197.185C548.247 192.095 551.937 188.065 556.587 188.065C559.307 188.065 561.698 189.425 563.208 191.565L565.427 189.905C563.378 187.165 560.207 185.435 556.587 185.435C550.347 185.435 545.438 190.595 545.438 197.185C545.438 203.775 550.347 208.935 556.597 208.935" fill="#0066FF"/>
<rect x="32" y="249" width="42" height="24" rx="4" fill="#70737C" fill-opacity="0.08"/>
<path d="M43.3594 265.023C44.6641 265.023 45.4766 264.18 45.5 262.805H47.4141C47.4141 265.203 45.8281 266.727 43.3672 266.727C40.6328 266.727 39.0312 264.969 39.0312 261.953V259.773C39.0312 256.758 40.6328 255 43.3672 255C45.875 255 47.3828 256.508 47.4141 259.062H45.5C45.4688 257.641 44.6016 256.703 43.3359 256.703C41.7969 256.703 40.9844 257.758 40.9844 259.773V261.953C40.9844 263.969 41.7969 265.023 43.3594 265.023ZM51.5625 262.039H54.3125L52.9844 257.203H52.9062L51.5625 262.039ZM55.5391 266.5L54.7266 263.539H51.1484L50.3281 266.5H48.4375L51.9141 255.227H54.0859L57.5625 266.5H55.5391ZM63.8359 266.5H61.9453V256.875H58.6484V255.227H67.1328V256.875H63.8359V266.5Z" fill="black"/>
<path d="M110.219 272.5V249.875H117.094C121.969 249.875 125.219 252.625 125.219 256.75C125.219 260.875 121.969 263.625 117.094 263.625H112.969V272.5H110.219ZM112.969 261.062H117.094C120.438 261.062 122.406 259.438 122.406 256.75C122.406 254.031 120.438 252.438 117.094 252.438H112.969V261.062ZM142.656 272.5L140.188 265.906H130.375L127.906 272.5H124.906L133.562 249.875H137L145.656 272.5H142.656ZM131.344 263.344H139.25L135.344 252.969H135.219L131.344 263.344ZM148.594 272.5V249.875H155.469C160.344 249.875 163.594 252.562 163.594 256.562C163.594 259.891 161.375 262.312 157.875 263.031L164.281 272.5H161.031L154.781 263.281H151.344V272.5H148.594ZM151.344 260.719H155.5C158.844 260.719 160.781 259.156 160.781 256.562C160.781 253.969 158.844 252.438 155.5 252.438H151.344V260.719ZM183.469 272.5L181 265.906H171.188L168.719 272.5H165.719L174.375 249.875H177.812L186.469 272.5H183.469ZM172.156 263.344H180.062L176.156 252.969H176.031L172.156 263.344ZM189.406 272.5V249.875H192.156V269.938H202.906V272.5H189.406ZM208.375 263.25C207.25 263.25 206.438 262.438 206.438 261.312C206.438 260.188 207.25 259.375 208.375 259.375C209.5 259.375 210.312 260.188 210.312 261.312C210.312 262.438 209.5 263.25 208.375 263.25ZM214.594 272.5V249.875H217.344V269.938H228.094V272.5H214.594ZM231.781 272.5V249.875H245.781V252.438H234.531V259.344H244.906V261.906H234.531V269.938H246.031V272.5H231.781ZM249.719 272.5V249.875H252.469V269.938H263.219V272.5H249.719ZM274.781 279.25V256.375H277.406V258.906H277.531C278.609 256.984 280.406 255.938 282.781 255.938C287.25 255.938 290.469 259.594 290.469 264.438C290.469 269.281 287.25 272.938 282.781 272.938C280.406 272.938 278.609 271.891 277.531 269.969H277.406V279.25H274.781ZM282.531 270.438C285.625 270.438 287.781 267.938 287.781 264.438C287.781 260.938 285.625 258.438 282.531 258.438C279.469 258.438 277.281 260.906 277.281 264.438C277.281 267.969 279.469 270.438 282.531 270.438ZM301.094 270.438C304.156 270.438 306.344 267.969 306.344 264.438C306.344 260.906 304.156 258.438 301.094 258.438C298 258.438 295.844 260.938 295.844 264.438C295.844 267.938 298 270.438 301.094 270.438ZM308.844 272.5H306.219V269.969H306.125C305.016 271.891 303.219 272.938 300.844 272.938C296.375 272.938 293.156 269.281 293.156 264.438C293.156 259.594 296.375 255.938 300.844 255.938C303.219 255.938 305.016 256.984 306.125 258.906H306.219V256.375H308.844V272.5ZM313.031 272.5V256.375H315.656V258.875H315.781C316.578 257.125 318.172 255.938 320 255.938C320.594 255.938 321.156 256.062 321.688 256.281V258.875C321.094 258.688 320.5 258.594 319.938 258.594C317.25 258.594 315.656 260.75 315.656 264.438V272.5H313.031ZM331.375 270.438C334.438 270.438 336.625 267.969 336.625 264.438C336.625 260.906 334.438 258.438 331.375 258.438C328.281 258.438 326.125 260.938 326.125 264.438C326.125 267.938 328.281 270.438 331.375 270.438ZM339.125 272.5H336.5V269.969H336.406C335.297 271.891 333.5 272.938 331.125 272.938C326.656 272.938 323.438 269.281 323.438 264.438C323.438 259.594 326.656 255.938 331.125 255.938C333.5 255.938 335.297 256.984 336.406 258.906H336.5V256.375H339.125V272.5ZM343.312 272.5V249.875H345.938V272.5H343.312ZM352.031 266.031C350.906 266.031 350.094 265.219 350.094 264.094C350.094 262.969 350.906 262.156 352.031 262.156C353.156 262.156 353.969 262.969 353.969 264.094C353.969 265.219 353.156 266.031 352.031 266.031ZM358.125 272.5V249.875H360.75V272.5H358.125ZM372.594 272.938C367.75 272.938 364.188 269.281 364.188 264.438C364.188 259.594 367.656 255.938 372.281 255.938C376.906 255.938 380.125 259.594 380.125 264.438L380.094 265.344H366.938C367.297 268.438 369.578 270.438 372.656 270.438C374.875 270.438 376.469 269.391 377.281 267.656L379.594 268.656C378.359 271.25 375.906 272.938 372.594 272.938ZM367.062 262.781H377.25C377.062 260.328 375.062 258.438 372.281 258.438C369.625 258.438 367.641 260.156 367.062 262.781ZM383.562 272.5V249.875H386.188V272.5H383.562Z" fill="#2A2A2A" fill-opacity="0.28"/>
<path d="M809.527 272.485H812.147V249.865H809.527V272.485ZM793.027 262.765C793.607 260.145 795.587 258.425 798.247 258.425C800.908 258.425 803.027 260.315 803.217 262.765H793.027ZM798.557 272.925C801.867 272.925 804.327 271.235 805.557 268.645L803.247 267.645C802.438 269.375 800.837 270.425 798.617 270.425C795.537 270.425 793.258 268.425 792.898 265.335H806.057L806.087 264.425C806.087 259.585 802.867 255.925 798.247 255.925C793.628 255.925 790.158 259.585 790.158 264.425C790.158 269.265 793.717 272.925 798.568 272.925M784.098 272.485H786.717V249.865H784.098V272.485ZM771.288 272.485H773.908V249.865H771.288V272.485ZM767.098 272.485V256.365H764.477V258.895H764.387C763.277 256.975 761.477 255.925 759.107 255.925C754.637 255.925 751.417 259.585 751.417 264.425C751.417 269.265 754.637 272.925 759.107 272.925C761.488 272.925 763.277 271.875 764.387 269.955H764.477V272.485H767.098ZM759.348 270.425C756.258 270.425 754.098 267.925 754.098 264.425C754.098 260.925 756.258 258.425 759.348 258.425C762.438 258.425 764.598 260.895 764.598 264.425C764.598 267.955 762.408 270.425 759.348 270.425ZM741.008 272.485H743.628V264.425C743.628 260.735 745.217 258.585 747.908 258.585C748.467 258.585 749.068 258.675 749.658 258.865V256.275C749.128 256.055 748.568 255.935 747.967 255.935C746.137 255.935 744.548 257.125 743.747 258.875H743.628V256.375H741.008V272.495V272.485ZM736.818 272.485V256.365H734.197V258.895H734.107C732.997 256.975 731.197 255.925 728.827 255.925C724.357 255.925 721.137 259.585 721.137 264.425C721.137 269.265 724.357 272.925 728.827 272.925C731.208 272.925 732.997 271.875 734.107 269.955H734.197V272.485H736.818ZM729.068 270.425C725.978 270.425 723.818 267.925 723.818 264.425C723.818 260.925 725.978 258.425 729.068 258.425C732.158 258.425 734.318 260.895 734.318 264.425C734.318 267.955 732.128 270.425 729.068 270.425ZM710.508 270.425C707.448 270.425 705.258 267.955 705.258 264.425C705.258 260.895 707.448 258.425 710.508 258.425C713.568 258.425 715.758 260.925 715.758 264.425C715.758 267.925 713.598 270.425 710.508 270.425ZM702.758 279.235H705.378V269.955H705.497C706.577 271.875 708.378 272.925 710.747 272.925C715.217 272.925 718.438 269.265 718.438 264.425C718.438 259.585 715.217 255.925 710.747 255.925C708.367 255.925 706.577 256.975 705.497 258.895H705.378V256.365H702.758V279.245V279.235ZM677.697 272.485H691.197V269.925H680.447V249.865H677.697V272.485ZM659.757 272.485H674.007V269.925H662.507V261.895H672.887V259.335H662.507V252.425H673.757V249.865H659.757V272.485ZM642.567 272.485H656.067V269.925H645.317V249.865H642.567V272.485ZM625.378 272.485H638.878V269.925H628.128V249.865H625.378V272.485ZM608.127 263.325L612.007 252.945H612.128L616.037 263.325H608.127ZM619.438 272.485H622.438L613.777 249.865H610.338L601.678 272.485H604.678L607.147 265.895H616.957L619.427 272.485H619.438ZM587.318 260.705V252.425H591.478C594.818 252.425 596.757 253.955 596.757 256.545C596.757 259.135 594.818 260.705 591.478 260.705H587.318ZM584.568 272.485H587.318V263.265H590.757L597.007 272.485H600.257L593.847 263.015C597.347 262.295 599.568 259.875 599.568 256.545C599.568 252.545 596.317 249.855 591.447 249.855H584.568V272.475V272.485ZM567.317 263.325L571.198 252.945H571.317L575.228 263.325H567.317ZM578.627 272.485H581.627L572.968 249.865H569.528L560.868 272.485H563.868L566.337 265.895H576.147L578.618 272.485H578.627ZM548.938 261.055V252.425H553.057C556.398 252.425 558.368 254.015 558.368 256.735C558.368 259.455 556.398 261.045 553.057 261.045H548.938V261.055ZM546.188 272.485H548.938V263.605H553.057C557.938 263.605 561.177 260.855 561.177 256.725C561.177 252.595 557.938 249.865 553.068 249.865H546.188V272.485Z" fill="black"/>
<path d="M780.947 264.075C780.947 265.205 780.127 266.015 779.007 266.015C777.877 266.015 777.067 265.205 777.067 264.075C777.067 262.945 777.877 262.135 779.007 262.135C780.137 262.135 780.947 262.945 780.947 264.075Z" fill="#0066FF"/>
<path d="M638.287 261.295C638.287 262.425 637.467 263.235 636.347 263.235C635.217 263.235 634.407 262.425 634.407 261.295C634.407 260.165 635.217 259.355 636.347 259.355C637.477 259.355 638.287 260.165 638.287 261.295Z" fill="#0066FF"/>
</svg>
