<svg width="1012" height="177" viewBox="0 0 1012 177" fill="none" xmlns="http://www.w3.org/2000/svg">
<rect x="0.5" y="0.5" width="1011" height="176" rx="15.5" stroke="#70737C" stroke-opacity="0.16"/>
<rect x="32" y="32" width="52" height="24" rx="4" fill="#70737C" fill-opacity="0.08"/>
<path d="M39.8359 43.3672C39.8359 41.7734 41.1484 40.7578 43.1719 40.7578C45.1328 40.7578 46.375 41.6641 46.4922 43.2031H44.7734C44.6484 42.5625 44.0312 42.1641 43.1484 42.1641C42.2344 42.1641 41.6328 42.5859 41.6328 43.2266C41.6328 43.7734 42.0234 44.0859 42.9531 44.2891L44.2266 44.5625C45.9375 44.9297 46.6953 45.6562 46.6953 46.9375C46.6953 48.6016 45.3281 49.6719 43.1797 49.6719C41.0859 49.6719 39.7578 48.7422 39.6328 47.1953H41.4375C41.5938 47.8672 42.2422 48.25 43.2109 48.25C44.2031 48.25 44.8281 47.8125 44.8281 47.1484C44.8281 46.5859 44.4688 46.2969 43.4922 46.0859L42.2109 45.8047C40.6328 45.4531 39.8359 44.6406 39.8359 43.3672ZM52.0156 49.6406C50.3906 49.6406 49.3047 48.6094 49.3047 47.0625C49.3047 45.5312 50.4141 44.625 52.4609 44.5L54.6016 44.375V43.6562C54.6016 42.7734 54.0312 42.2734 53.0312 42.2734C52.1953 42.2734 51.5859 42.6328 51.3984 43.2578H49.6172C49.7734 41.7812 51.1562 40.8047 53.0781 40.8047C55.1953 40.8047 56.3984 41.8438 56.3984 43.6719V49.5H54.6719V48.3047H54.5078C54.0938 49.1562 53.1797 49.6406 52.0156 49.6406ZM52.6016 48.1562C53.7578 48.1562 54.6016 47.4141 54.6016 46.3828V45.6016L52.7344 45.7031C51.6641 45.7656 51.1094 46.1953 51.1094 46.9531C51.1094 47.6953 51.6875 48.1562 52.6016 48.1562ZM66.7109 49.5H59.4297V48.0469H62.2344V39.0938H59.5234V37.6406H64.0469V48.0469H66.7109V49.5ZM71.1875 38.5547H72.9688V41H76.2734V42.4688H73V46.8672C73 47.625 73.5391 48.0469 74.5078 48.0469C74.8203 48.0469 76.0547 48.0391 76.2031 48.0234V49.4766C76.0625 49.5 74.625 49.5234 74.3672 49.5234C72.1172 49.5234 71.1875 48.7578 71.1875 46.8594V42.4688H68.9375V41H71.1875V38.5547Z" fill="black"/>
<rect x="32" y="88" width="948" height="1" fill="#70737C" fill-opacity="0.16"/>
<path d="M45.2188 144.938C38.5312 144.938 33.4688 139.875 33.4688 133.188C33.4688 126.5 38.5312 121.438 45.2188 121.438C51.9062 121.438 56.9688 126.5 56.9688 133.188C56.9688 137 55.3281 140.297 52.6562 142.406L55.7188 146.75H52.4688L50.4062 143.812C48.8594 144.531 47.0938 144.938 45.2188 144.938ZM45.2188 142.312C46.5469 142.312 47.7656 142.078 48.875 141.625L46.2188 137.875H49.4688L51.1562 140.219C53.0312 138.625 54.1562 136.141 54.1562 133.188C54.1562 127.844 50.4688 124.062 45.2188 124.062C39.9688 124.062 36.2812 127.844 36.2812 133.188C36.2812 138.531 39.9688 142.312 45.2188 142.312ZM73.6562 128.375V144.5H71.0312V142.156H70.9375C70.125 143.875 68.3906 144.938 66.0938 144.938C62.5 144.938 60.5312 142.406 60.5312 138.25V128.375H63.1562V137.875C63.1562 140.844 64.4062 142.438 66.6562 142.438C68.9062 142.438 71.0312 140.844 71.0312 137.375V128.375H73.6562ZM85.0312 142.438C88.0938 142.438 90.2812 139.969 90.2812 136.438C90.2812 132.906 88.0938 130.438 85.0312 130.438C81.9375 130.438 79.7812 132.938 79.7812 136.438C79.7812 139.938 81.9375 142.438 85.0312 142.438ZM92.7812 144.5H90.1562V141.969H90.0625C88.9531 143.891 87.1562 144.938 84.7812 144.938C80.3125 144.938 77.0938 141.281 77.0938 136.438C77.0938 131.594 80.3125 127.938 84.7812 127.938C87.1562 127.938 88.9531 128.984 90.0625 130.906H90.1562V128.375H92.7812V144.5ZM96.9688 144.5V121.875H99.5938V144.5H96.9688ZM103.781 144.5V128.375H106.406V144.5H103.781ZM105.094 125C104.094 125 103.344 124.25 103.344 123.25C103.344 122.25 104.094 121.5 105.094 121.5C106.094 121.5 106.844 122.25 106.844 123.25C106.844 124.25 106.094 125 105.094 125ZM109.594 130.562V128.375H112.344V124.375H114.969V128.375H118.969V130.562H114.969V139.812C114.969 141.562 115.719 142.375 117.344 142.375C117.844 142.375 118.406 142.281 118.969 142.125V144.594C118.469 144.781 117.781 144.938 116.969 144.938C114.125 144.938 112.344 143 112.344 139.906V130.562H109.594ZM127.75 144.5L120.906 128.375H123.75L129.094 141.188H129.219L134 128.375H136.781L128 151.25H125.156L127.75 144.5ZM155 144.938C150.281 144.938 146.719 141.281 146.719 136.438C146.719 131.594 150.281 127.938 155 127.938C159.719 127.938 163.281 131.594 163.281 136.438C163.281 141.281 159.719 144.938 155 144.938ZM155 142.438C158.281 142.438 160.594 139.969 160.594 136.438C160.594 132.906 158.281 130.438 155 130.438C151.719 130.438 149.406 132.906 149.406 136.438C149.406 139.969 151.719 142.438 155 142.438ZM170.781 144.5L164.594 128.375H167.438L172.469 141.906H172.594L177.625 128.375H180.469L174.281 144.5H170.781ZM190.188 144.938C185.344 144.938 181.781 141.281 181.781 136.438C181.781 131.594 185.25 127.938 189.875 127.938C194.5 127.938 197.719 131.594 197.719 136.438L197.688 137.344H184.531C184.891 140.438 187.172 142.438 190.25 142.438C192.469 142.438 194.062 141.391 194.875 139.656L197.188 140.656C195.953 143.25 193.5 144.938 190.188 144.938ZM184.656 134.781H194.844C194.656 132.328 192.656 130.438 189.875 130.438C187.219 130.438 185.234 132.156 184.656 134.781ZM201.156 144.5V128.375H203.781V130.875H203.906C204.703 129.125 206.297 127.938 208.125 127.938C208.719 127.938 209.281 128.062 209.812 128.281V130.875C209.219 130.688 208.625 130.594 208.062 130.594C205.375 130.594 203.781 132.75 203.781 136.438V144.5H201.156ZM219.906 144.938C215.125 144.938 211.562 141.281 211.562 136.438C211.562 131.594 215.125 127.938 219.906 127.938C222.891 127.938 225.297 129.359 226.625 131.688L224.312 132.875C223.438 131.328 221.906 130.438 219.906 130.438C216.562 130.438 214.25 132.906 214.25 136.438C214.25 139.969 216.562 142.438 219.906 142.438C221.906 142.438 223.438 141.547 224.312 140L226.625 141.188C225.297 143.516 222.891 144.938 219.906 144.938ZM237.594 144.938C232.875 144.938 229.312 141.281 229.312 136.438C229.312 131.594 232.875 127.938 237.594 127.938C242.312 127.938 245.875 131.594 245.875 136.438C245.875 141.281 242.312 144.938 237.594 144.938ZM237.594 142.438C240.875 142.438 243.188 139.969 243.188 136.438C243.188 132.906 240.875 130.438 237.594 130.438C234.312 130.438 232 132.906 232 136.438C232 139.969 234.312 142.438 237.594 142.438ZM249.312 144.5V128.375H251.938V130.719H252.031C252.781 129 254.391 127.938 256.531 127.938C258.812 127.938 260.391 129.109 261.188 131.188H261.281C261.938 129.203 263.703 127.938 266.125 127.938C269.594 127.938 271.5 130.469 271.5 134.625V144.5H268.875V135C268.875 132.031 267.719 130.438 265.688 130.438C263.656 130.438 261.719 132.031 261.719 135.5V144.5H259.094V135C259.094 132.031 257.938 130.438 255.906 130.438C253.875 130.438 251.938 132.031 251.938 135.5V144.5H249.312ZM283.344 144.938C278.5 144.938 274.938 141.281 274.938 136.438C274.938 131.594 278.406 127.938 283.031 127.938C287.656 127.938 290.875 131.594 290.875 136.438L290.844 137.344H277.688C278.047 140.438 280.328 142.438 283.406 142.438C285.625 142.438 287.219 141.391 288.031 139.656L290.344 140.656C289.109 143.25 286.656 144.938 283.344 144.938ZM277.812 134.781H288C287.812 132.328 285.812 130.438 283.031 130.438C280.375 130.438 278.391 132.156 277.812 134.781ZM299.688 144.938C297.062 144.938 294.969 143.906 293.438 141.875L295.562 140.375C296.625 141.812 297.875 142.438 299.688 142.438C301.938 142.438 303.25 141.5 303.25 139.906C303.25 138.656 302.406 138.031 299.812 137.375L298.938 137.156C295.594 136.312 294 134.875 294 132.688C294 129.969 296.438 127.938 299.688 127.938C302.094 127.938 304.312 129.062 305.594 130.969L303.406 132.406C302.5 131.125 301.219 130.438 299.688 130.438C297.906 130.438 296.688 131.344 296.688 132.688C296.688 133.688 297.344 134.156 299.562 134.719L300.438 134.938C304.25 135.875 305.938 137.406 305.938 139.906C305.938 142.906 303.406 144.938 299.688 144.938ZM332.312 151.25H329.688V141.969H329.594C328.484 143.891 326.688 144.938 324.312 144.938C319.844 144.938 316.625 141.281 316.625 136.438C316.625 131.594 319.844 127.938 324.312 127.938C326.688 127.938 328.484 128.984 329.594 130.906H329.688V128.375H332.312V151.25ZM324.562 142.438C327.625 142.438 329.812 139.969 329.812 136.438C329.812 132.906 327.625 130.438 324.562 130.438C321.469 130.438 319.312 132.938 319.312 136.438C319.312 139.938 321.469 142.438 324.562 142.438ZM349.625 128.375V144.5H347V142.156H346.906C346.094 143.875 344.359 144.938 342.062 144.938C338.469 144.938 336.5 142.406 336.5 138.25V128.375H339.125V137.875C339.125 140.844 340.375 142.438 342.625 142.438C344.875 142.438 347 140.844 347 137.375V128.375H349.625ZM361 142.438C364.062 142.438 366.25 139.969 366.25 136.438C366.25 132.906 364.062 130.438 361 130.438C357.906 130.438 355.75 132.938 355.75 136.438C355.75 139.938 357.906 142.438 361 142.438ZM368.75 144.5H366.125V141.969H366.031C364.922 143.891 363.125 144.938 360.75 144.938C356.281 144.938 353.062 141.281 353.062 136.438C353.062 131.594 356.281 127.938 360.75 127.938C363.125 127.938 364.922 128.984 366.031 130.906H366.125V128.375H368.75V144.5ZM372.938 144.5V128.375H375.562V130.719H375.688C376.469 129 378.203 127.938 380.5 127.938C384.094 127.938 386.062 130.469 386.062 134.625V144.5H383.438V135C383.438 132.031 382.188 130.438 379.938 130.438C377.688 130.438 375.562 132.031 375.562 135.5V144.5H372.938ZM388.5 130.562V128.375H391.25V124.375H393.875V128.375H397.875V130.562H393.875V139.812C393.875 141.562 394.625 142.375 396.25 142.375C396.75 142.375 397.312 142.281 397.875 142.125V144.594C397.375 144.781 396.688 144.938 395.875 144.938C393.031 144.938 391.25 143 391.25 139.906V130.562H388.5ZM401.312 144.5V128.375H403.938V144.5H401.312ZM402.625 125C401.625 125 400.875 124.25 400.875 123.25C400.875 122.25 401.625 121.5 402.625 121.5C403.625 121.5 404.375 122.25 404.375 123.25C404.375 124.25 403.625 125 402.625 125ZM407.125 130.562V128.375H409.875V124.375H412.5V128.375H416.5V130.562H412.5V139.812C412.5 141.562 413.25 142.375 414.875 142.375C415.375 142.375 415.938 142.281 416.5 142.125V144.594C416 144.781 415.312 144.938 414.5 144.938C411.656 144.938 409.875 143 409.875 139.906V130.562H407.125ZM425.281 144.5L418.438 128.375H421.281L426.625 141.188H426.75L431.531 128.375H434.312L425.531 151.25H422.688L425.281 144.5ZM436.406 144.75C435.281 144.75 434.469 143.938 434.469 142.812C434.469 141.688 435.281 140.875 436.406 140.875C437.531 140.875 438.344 141.688 438.344 142.812C438.344 143.938 437.531 144.75 436.406 144.75Z" fill="#2A2A2A" fill-opacity="0.28"/>
<path d="M922.438 144.25C921.312 144.25 920.5 143.438 920.5 142.312C920.5 141.188 921.312 140.375 922.438 140.375C923.562 140.375 924.375 141.188 924.375 142.312C924.375 143.438 923.562 144.25 922.438 144.25Z" fill="black"/>
<path d="M911.312 144L904.469 127.875H907.312L912.656 140.688H912.781L917.562 127.875H920.344L911.562 150.75H908.719L911.312 144Z" fill="black"/>
<path d="M893.156 130.062V127.875H895.906V123.875H898.531V127.875H902.531V130.062H898.531V139.312C898.531 141.062 899.281 141.875 900.906 141.875C901.406 141.875 901.969 141.781 902.531 141.625V144.094C902.031 144.281 901.344 144.438 900.531 144.438C897.688 144.438 895.906 142.5 895.906 139.406V130.062H893.156Z" fill="black"/>
<path d="M887.344 144V127.875H889.969V144H887.344ZM888.656 124.5C887.656 124.5 886.906 123.75 886.906 122.75C886.906 121.75 887.656 121 888.656 121C889.656 121 890.406 121.75 890.406 122.75C890.406 123.75 889.656 124.5 888.656 124.5Z" fill="black"/>
<path d="M874.531 130.062V127.875H877.281V123.875H879.906V127.875H883.906V130.062H879.906V139.312C879.906 141.062 880.656 141.875 882.281 141.875C882.781 141.875 883.344 141.781 883.906 141.625V144.094C883.406 144.281 882.719 144.438 881.906 144.438C879.062 144.438 877.281 142.5 877.281 139.406V130.062H874.531Z" fill="black"/>
<path d="M858.969 144V127.875H861.594V130.219H861.719C862.5 128.5 864.234 127.438 866.531 127.438C870.125 127.438 872.094 129.969 872.094 134.125V144H869.469V134.5C869.469 131.531 868.219 129.938 865.969 129.938C863.719 129.938 861.594 131.531 861.594 135V144H858.969Z" fill="black"/>
<path d="M846.719 144.438C843.562 144.438 841.219 142.188 841.219 139.312C841.219 136.438 843.562 134.281 847.781 134.062L852.094 133.812C852.047 131.188 850.812 129.938 848.281 129.938C846.375 129.938 845.125 130.625 844.219 132.25L841.875 131C843.219 128.656 845.375 127.438 848.281 127.438C852.406 127.438 854.781 129.906 854.781 134V144H852.094V141.469H851.969C850.875 143.266 848.984 144.438 846.719 144.438ZM843.969 139.312C843.969 140.969 845.219 141.938 847.438 141.938C850.344 141.938 852.094 140.281 852.094 137.688V136.031L847.781 136.312C845.219 136.469 843.969 137.656 843.969 139.312Z" fill="#0066FF"/>
<path d="M837.531 127.875V144H834.906V141.656H834.812C834 143.375 832.266 144.438 829.969 144.438C826.375 144.438 824.406 141.906 824.406 137.75V127.875H827.031V137.375C827.031 140.344 828.281 141.938 830.531 141.938C832.781 141.938 834.906 140.344 834.906 136.875V127.875H837.531Z" fill="black"/>
<path d="M820.219 150.75H817.594V141.469H817.5C816.391 143.391 814.594 144.438 812.219 144.438C807.75 144.438 804.531 140.781 804.531 135.938C804.531 131.094 807.75 127.438 812.219 127.438C814.594 127.438 816.391 128.484 817.5 130.406H817.594V127.875H820.219V150.75ZM812.469 141.938C815.531 141.938 817.719 139.469 817.719 135.938C817.719 132.406 815.531 129.938 812.469 129.938C809.375 129.938 807.219 132.438 807.219 135.938C807.219 139.438 809.375 141.938 812.469 141.938Z" fill="black"/>
<path d="M787.594 144.438C784.969 144.438 782.875 143.406 781.344 141.375L783.469 139.875C784.531 141.312 785.781 141.938 787.594 141.938C789.844 141.938 791.156 141 791.156 139.406C791.156 138.156 790.312 137.531 787.719 136.875L786.844 136.656C783.5 135.812 781.906 134.375 781.906 132.188C781.906 129.469 784.344 127.438 787.594 127.438C790 127.438 792.219 128.562 793.5 130.469L791.312 131.906C790.406 130.625 789.125 129.938 787.594 129.938C785.812 129.938 784.594 130.844 784.594 132.188C784.594 133.188 785.25 133.656 787.469 134.219L788.344 134.438C792.156 135.375 793.844 136.906 793.844 139.406C793.844 142.406 791.312 144.438 787.594 144.438Z" fill="black"/>
<path d="M771.25 144.438C766.406 144.438 762.844 140.781 762.844 135.938C762.844 131.094 766.312 127.438 770.938 127.438C775.562 127.438 778.781 131.094 778.781 135.938L778.75 136.844H765.594C765.953 139.938 768.234 141.938 771.312 141.938C773.531 141.938 775.125 140.891 775.938 139.156L778.25 140.156C777.016 142.75 774.562 144.438 771.25 144.438ZM765.719 134.281H775.906C775.719 131.828 773.719 129.938 770.938 129.938C768.281 129.938 766.297 131.656 765.719 134.281Z" fill="black"/>
<path d="M737.219 144V127.875H739.844V130.219H739.938C740.688 128.5 742.297 127.438 744.438 127.438C746.719 127.438 748.297 128.609 749.094 130.688H749.188C749.844 128.703 751.609 127.438 754.031 127.438C757.5 127.438 759.406 129.969 759.406 134.125V144H756.781V134.5C756.781 131.531 755.625 129.938 753.594 129.938C751.562 129.938 749.625 131.531 749.625 135V144H747V134.5C747 131.531 745.844 129.938 743.812 129.938C741.781 129.938 739.844 131.531 739.844 135V144H737.219Z" fill="black"/>
<path d="M725.5 144.438C720.781 144.438 717.219 140.781 717.219 135.938C717.219 131.094 720.781 127.438 725.5 127.438C730.219 127.438 733.781 131.094 733.781 135.938C733.781 140.781 730.219 144.438 725.5 144.438ZM725.5 141.938C728.781 141.938 731.094 139.469 731.094 135.938C731.094 132.406 728.781 129.938 725.5 129.938C722.219 129.938 719.906 132.406 719.906 135.938C719.906 139.469 722.219 141.938 725.5 141.938Z" fill="black"/>
<path d="M707.812 144.438C703.031 144.438 699.469 140.781 699.469 135.938C699.469 131.094 703.031 127.438 707.812 127.438C710.797 127.438 713.203 128.859 714.531 131.188L712.219 132.375C711.344 130.828 709.812 129.938 707.812 129.938C704.469 129.938 702.156 132.406 702.156 135.938C702.156 139.469 704.469 141.938 707.812 141.938C709.812 141.938 711.344 141.047 712.219 139.5L714.531 140.688C713.203 143.016 710.797 144.438 707.812 144.438Z" fill="black"/>
<path d="M689.062 144V127.875H691.688V130.375H691.812C692.609 128.625 694.203 127.438 696.031 127.438C696.625 127.438 697.188 127.562 697.719 127.781V130.375C697.125 130.188 696.531 130.094 695.969 130.094C693.281 130.094 691.688 132.25 691.688 135.938V144H689.062Z" fill="black"/>
<path d="M678.094 144.438C673.25 144.438 669.688 140.781 669.688 135.938C669.688 131.094 673.156 127.438 677.781 127.438C682.406 127.438 685.625 131.094 685.625 135.938L685.594 136.844H672.438C672.797 139.938 675.078 141.938 678.156 141.938C680.375 141.938 681.969 140.891 682.781 139.156L685.094 140.156C683.859 142.75 681.406 144.438 678.094 144.438ZM672.562 134.281H682.75C682.562 131.828 680.562 129.938 677.781 129.938C675.125 129.938 673.141 131.656 672.562 134.281Z" fill="black"/>
<path d="M658.688 144L652.5 127.875H655.344L660.375 141.406H660.5L665.531 127.875H668.375L662.188 144H658.688Z" fill="black"/>
<path d="M642.906 144.438C638.188 144.438 634.625 140.781 634.625 135.938C634.625 131.094 638.188 127.438 642.906 127.438C647.625 127.438 651.188 131.094 651.188 135.938C651.188 140.781 647.625 144.438 642.906 144.438ZM642.906 141.938C646.188 141.938 648.5 139.469 648.5 135.938C648.5 132.406 646.188 129.938 642.906 129.938C639.625 129.938 637.312 132.406 637.312 135.938C637.312 139.469 639.625 141.938 642.906 141.938Z" fill="black"/>
<path d="M615.656 144L608.812 127.875H611.656L617 140.688H617.125L621.906 127.875H624.688L615.906 150.75H613.062L615.656 144Z" fill="black"/>
<path d="M597.5 130.062V127.875H600.25V123.875H602.875V127.875H606.875V130.062H602.875V139.312C602.875 141.062 603.625 141.875 605.25 141.875C605.75 141.875 606.312 141.781 606.875 141.625V144.094C606.375 144.281 605.688 144.438 604.875 144.438C602.031 144.438 600.25 142.5 600.25 139.406V130.062H597.5Z" fill="black"/>
<path d="M591.688 144V127.875H594.312V144H591.688ZM593 124.5C592 124.5 591.25 123.75 591.25 122.75C591.25 121.75 592 121 593 121C594 121 594.75 121.75 594.75 122.75C594.75 123.75 594 124.5 593 124.5Z" fill="black"/>
<path d="M584.875 144V121.375H587.5V144H584.875Z" fill="black"/>
<path d="M572.625 144.438C569.469 144.438 567.125 142.188 567.125 139.312C567.125 136.438 569.469 134.281 573.688 134.062L578 133.812C577.953 131.188 576.719 129.938 574.188 129.938C572.281 129.938 571.031 130.625 570.125 132.25L567.781 131C569.125 128.656 571.281 127.438 574.188 127.438C578.312 127.438 580.688 129.906 580.688 134V144H578V141.469H577.875C576.781 143.266 574.891 144.438 572.625 144.438ZM569.875 139.312C569.875 140.969 571.125 141.938 573.344 141.938C576.25 141.938 578 140.281 578 137.688V136.031L573.688 136.312C571.125 136.469 569.875 137.656 569.875 139.312Z" fill="#0066FF"/>
<path d="M563.438 127.875V144H560.812V141.656H560.719C559.906 143.375 558.172 144.438 555.875 144.438C552.281 144.438 550.312 141.906 550.312 137.75V127.875H552.938V137.375C552.938 140.344 554.188 141.938 556.438 141.938C558.688 141.938 560.812 140.344 560.812 136.875V127.875H563.438Z" fill="black"/>
<path d="M535.781 144C528.406 144 523.469 139.375 523.469 132.469C523.469 125.875 528.406 120.938 535 120.938C541.594 120.938 546.531 125.875 546.531 132.469C546.531 136.547 544.609 139.719 541.375 141.438H547.75V144H535.781ZM535 141.375C540.125 141.375 543.719 137.688 543.719 132.469C543.719 127.25 540.125 123.562 535 123.562C529.875 123.562 526.281 127.25 526.281 132.469C526.281 137.688 529.875 141.375 535 141.375Z" fill="#0066FF"/>
</svg>
