<svg width="1012" height="177" viewBox="0 0 1012 177" fill="none" xmlns="http://www.w3.org/2000/svg">
<rect x="0.5" y="0.5" width="1011" height="176" rx="15.5" stroke="#70737C" stroke-opacity="0.16"/>
<rect x="32" y="32" width="52" height="24" rx="4" fill="#70737C" fill-opacity="0.08"/>
<path d="M39.8359 43.3672C39.8359 41.7734 41.1484 40.7578 43.1719 40.7578C45.1328 40.7578 46.375 41.6641 46.4922 43.2031H44.7734C44.6484 42.5625 44.0312 42.1641 43.1484 42.1641C42.2344 42.1641 41.6328 42.5859 41.6328 43.2266C41.6328 43.7734 42.0234 44.0859 42.9531 44.2891L44.2266 44.5625C45.9375 44.9297 46.6953 45.6562 46.6953 46.9375C46.6953 48.6016 45.3281 49.6719 43.1797 49.6719C41.0859 49.6719 39.7578 48.7422 39.6328 47.1953H41.4375C41.5938 47.8672 42.2422 48.25 43.2109 48.25C44.2031 48.25 44.8281 47.8125 44.8281 47.1484C44.8281 46.5859 44.4688 46.2969 43.4922 46.0859L42.2109 45.8047C40.6328 45.4531 39.8359 44.6406 39.8359 43.3672ZM49.7266 43.3672C49.7266 41.7734 51.0391 40.7578 53.0625 40.7578C55.0234 40.7578 56.2656 41.6641 56.3828 43.2031H54.6641C54.5391 42.5625 53.9219 42.1641 53.0391 42.1641C52.125 42.1641 51.5234 42.5859 51.5234 43.2266C51.5234 43.7734 51.9141 44.0859 52.8438 44.2891L54.1172 44.5625C55.8281 44.9297 56.5859 45.6562 56.5859 46.9375C56.5859 48.6016 55.2188 49.6719 53.0703 49.6719C50.9766 49.6719 49.6484 48.7422 49.5234 47.1953H51.3281C51.4844 47.8672 52.1328 48.25 53.1016 48.25C54.0938 48.25 54.7188 47.8125 54.7188 47.1484C54.7188 46.5859 54.3594 46.2969 53.3828 46.0859L52.1016 45.8047C50.5234 45.4531 49.7266 44.6406 49.7266 43.3672ZM65.1484 43.1953L61 46.2578C61.3359 47.5078 62 48.1641 62.9531 48.1641C64.3906 48.1641 65.1641 46.6641 65.1641 43.8594C65.1641 43.625 65.1562 43.4062 65.1484 43.1953ZM60.75 44.5312L64.9062 41.4844C64.5703 40.2266 63.9062 39.5625 62.9531 39.5625C61.5078 39.5625 60.7344 41.0625 60.7344 43.8594C60.7344 44.0938 60.7422 44.3203 60.75 44.5312ZM62.9531 37.9844C65.5547 37.9844 67.0156 40.0938 67.0156 43.8594C67.0156 47.6328 65.5547 49.7422 62.9531 49.7422C60.3438 49.7422 58.8828 47.6328 58.8828 43.8594C58.8828 40.0938 60.3438 37.9844 62.9531 37.9844ZM73.8984 49.5V47.2656H68.8203V45.7578L72.4062 38.2266H74.3203L70.8203 45.5781V45.7031H73.9453V42.7031H75.6328V45.7188H77.2422V47.2656H75.6484V49.5H73.8984Z" fill="black"/>
<rect x="32" y="88" width="948" height="1" fill="#70737C" fill-opacity="0.16"/>
<path d="M34.2188 144.5V121.875H36.9688V141.938H47.7188V144.5H34.2188ZM51.2812 144.5V128.375H53.9062V144.5H51.2812ZM52.5938 125C51.5938 125 50.8438 124.25 50.8438 123.25C50.8438 122.25 51.5938 121.5 52.5938 121.5C53.5938 121.5 54.3438 122.25 54.3438 123.25C54.3438 124.25 53.5938 125 52.5938 125ZM58.0938 144.5V121.875H60.7188V144.5H58.0938ZM70.25 144.5L63.4062 128.375H66.25L71.5938 141.188H71.7188L76.5 128.375H79.2812L70.5 151.25H67.6562L70.25 144.5ZM89.9688 144.5V121.875H92.5938V130.719H92.7188C93.5 129 95.2344 127.938 97.5312 127.938C101.125 127.938 103.094 130.469 103.094 134.625V144.5H100.469V135C100.469 132.031 99.2188 130.438 96.9688 130.438C94.7188 130.438 92.5938 132.031 92.5938 135.5V144.5H89.9688ZM114.469 142.438C117.531 142.438 119.719 139.969 119.719 136.438C119.719 132.906 117.531 130.438 114.469 130.438C111.375 130.438 109.219 132.938 109.219 136.438C109.219 139.938 111.375 142.438 114.469 142.438ZM122.219 144.5H119.594V141.969H119.5C118.391 143.891 116.594 144.938 114.219 144.938C109.75 144.938 106.531 141.281 106.531 136.438C106.531 131.594 109.75 127.938 114.219 127.938C116.594 127.938 118.391 128.984 119.5 130.906H119.594V128.375H122.219V144.5ZM126.406 144.5V128.375H129.031V130.875H129.156C129.953 129.125 131.547 127.938 133.375 127.938C133.969 127.938 134.531 128.062 135.062 128.281V130.875C134.469 130.688 133.875 130.594 133.312 130.594C130.625 130.594 129.031 132.75 129.031 136.438V144.5H126.406ZM152.5 144.5H149.875V141.969H149.781C148.672 143.891 146.875 144.938 144.5 144.938C140.031 144.938 136.812 141.281 136.812 136.438C136.812 131.594 140.031 127.938 144.5 127.938C146.875 127.938 148.672 128.984 149.781 130.906H149.875V121.875H152.5V144.5ZM144.75 142.438C147.812 142.438 150 139.969 150 136.438C150 132.906 147.812 130.438 144.75 130.438C141.656 130.438 139.5 132.938 139.5 136.438C139.5 139.938 141.656 142.438 144.75 142.438ZM156.688 144.5V121.875H159.312V144.5H156.688ZM168.844 144.5L162 128.375H164.844L170.188 141.188H170.312L175.094 128.375H177.875L169.094 151.25H166.25L168.844 144.5ZM188.562 144.5V121.875H191.188V130.906H191.312C192.391 128.984 194.188 127.938 196.562 127.938C201.031 127.938 204.25 131.594 204.25 136.438C204.25 141.281 201.031 144.938 196.562 144.938C194.188 144.938 192.391 143.891 191.312 141.969H191.188V144.5H188.562ZM196.312 142.438C199.406 142.438 201.562 139.938 201.562 136.438C201.562 132.938 199.406 130.438 196.312 130.438C193.25 130.438 191.062 132.906 191.062 136.438C191.062 139.969 193.25 142.438 196.312 142.438ZM207.688 144.5V121.875H210.312V144.5H207.688ZM214.5 144.5V128.375H217.125V144.5H214.5ZM215.812 125C214.812 125 214.062 124.25 214.062 123.25C214.062 122.25 214.812 121.5 215.812 121.5C216.812 121.5 217.562 122.25 217.562 123.25C217.562 124.25 216.812 125 215.812 125ZM221.312 144.5V128.375H223.938V130.719H224.062C224.844 129 226.578 127.938 228.875 127.938C232.469 127.938 234.438 130.469 234.438 134.625V144.5H231.812V135C231.812 132.031 230.562 130.438 228.312 130.438C226.062 130.438 223.938 132.031 223.938 135.5V144.5H221.312ZM238.625 144.5V121.875H241.25V135.375L247.719 128.375H251.188L243.938 136.062L251.469 144.5H248.062L241.25 136.875V144.5H238.625ZM261.062 144.938C256.219 144.938 252.656 141.281 252.656 136.438C252.656 131.594 256.125 127.938 260.75 127.938C265.375 127.938 268.594 131.594 268.594 136.438L268.562 137.344H255.406C255.766 140.438 258.047 142.438 261.125 142.438C263.344 142.438 264.938 141.391 265.75 139.656L268.062 140.656C266.828 143.25 264.375 144.938 261.062 144.938ZM255.531 134.781H265.719C265.531 132.328 263.531 130.438 260.75 130.438C258.094 130.438 256.109 132.156 255.531 134.781ZM286.969 144.5H284.344V141.969H284.25C283.141 143.891 281.344 144.938 278.969 144.938C274.5 144.938 271.281 141.281 271.281 136.438C271.281 131.594 274.5 127.938 278.969 127.938C281.344 127.938 283.141 128.984 284.25 130.906H284.344V121.875H286.969V144.5ZM279.219 142.438C282.281 142.438 284.469 139.969 284.469 136.438C284.469 132.906 282.281 130.438 279.219 130.438C276.125 130.438 273.969 132.938 273.969 136.438C273.969 139.938 276.125 142.438 279.219 142.438ZM299.156 144.5V121.875H301.781V130.719H301.906C302.688 129 304.422 127.938 306.719 127.938C310.312 127.938 312.281 130.469 312.281 134.625V144.5H309.656V135C309.656 132.031 308.406 130.438 306.156 130.438C303.906 130.438 301.781 132.031 301.781 135.5V144.5H299.156ZM324.125 144.938C319.281 144.938 315.719 141.281 315.719 136.438C315.719 131.594 319.188 127.938 323.812 127.938C328.438 127.938 331.656 131.594 331.656 136.438L331.625 137.344H318.469C318.828 140.438 321.109 142.438 324.188 142.438C326.406 142.438 328 141.391 328.812 139.656L331.125 140.656C329.891 143.25 327.438 144.938 324.125 144.938ZM318.594 134.781H328.781C328.594 132.328 326.594 130.438 323.812 130.438C321.156 130.438 319.172 132.156 318.594 134.781ZM335.094 144.5V128.375H337.719V130.875H337.844C338.641 129.125 340.234 127.938 342.062 127.938C342.656 127.938 343.219 128.062 343.75 128.281V130.875C343.156 130.688 342.562 130.594 342 130.594C339.312 130.594 337.719 132.75 337.719 136.438V144.5H335.094ZM362.781 144.938C357.938 144.938 354.375 141.281 354.375 136.438C354.375 131.594 357.844 127.938 362.469 127.938C367.094 127.938 370.312 131.594 370.312 136.438L370.281 137.344H357.125C357.484 140.438 359.766 142.438 362.844 142.438C365.062 142.438 366.656 141.391 367.469 139.656L369.781 140.656C368.547 143.25 366.094 144.938 362.781 144.938ZM357.25 134.781H367.438C367.25 132.328 365.25 130.438 362.469 130.438C359.812 130.438 357.828 132.156 357.25 134.781ZM378.469 144.5L371.625 128.375H374.469L379.812 141.188H379.938L384.719 128.375H387.5L378.719 151.25H375.875L378.469 144.5ZM397.219 144.938C392.375 144.938 388.812 141.281 388.812 136.438C388.812 131.594 392.281 127.938 396.906 127.938C401.531 127.938 404.75 131.594 404.75 136.438L404.719 137.344H391.562C391.922 140.438 394.203 142.438 397.281 142.438C399.5 142.438 401.094 141.391 401.906 139.656L404.219 140.656C402.984 143.25 400.531 144.938 397.219 144.938ZM391.688 134.781H401.875C401.688 132.328 399.688 130.438 396.906 130.438C394.25 130.438 392.266 132.156 391.688 134.781ZM413.562 144.938C410.938 144.938 408.844 143.906 407.312 141.875L409.438 140.375C410.5 141.812 411.75 142.438 413.562 142.438C415.812 142.438 417.125 141.5 417.125 139.906C417.125 138.656 416.281 138.031 413.688 137.375L412.812 137.156C409.469 136.312 407.875 134.875 407.875 132.688C407.875 129.969 410.312 127.938 413.562 127.938C415.969 127.938 418.188 129.062 419.469 130.969L417.281 132.406C416.375 131.125 415.094 130.438 413.562 130.438C411.781 130.438 410.562 131.344 410.562 132.688C410.562 133.688 411.219 134.156 413.438 134.719L414.312 134.938C418.125 135.875 419.812 137.406 419.812 139.906C419.812 142.906 417.281 144.938 413.562 144.938ZM425.156 144.75C424.031 144.75 423.219 143.938 423.219 142.812C423.219 141.688 424.031 140.875 425.156 140.875C426.281 140.875 427.094 141.688 427.094 142.812C427.094 143.938 426.281 144.75 425.156 144.75Z" fill="#2A2A2A" fill-opacity="0.28"/>
<path d="M915.156 144.75C914.031 144.75 913.219 143.938 913.219 142.812C913.219 141.688 914.031 140.875 915.156 140.875C916.281 140.875 917.094 141.688 917.094 142.812C917.094 143.938 916.281 144.75 915.156 144.75Z" fill="black"/>
<path d="M903.562 144.938C900.938 144.938 898.844 143.906 897.312 141.875L899.438 140.375C900.5 141.812 901.75 142.438 903.562 142.438C905.812 142.438 907.125 141.5 907.125 139.906C907.125 138.656 906.281 138.031 903.688 137.375L902.812 137.156C899.469 136.312 897.875 134.875 897.875 132.688C897.875 129.969 900.312 127.938 903.562 127.938C905.969 127.938 908.188 129.062 909.469 130.969L907.281 132.406C906.375 131.125 905.094 130.438 903.562 130.438C901.781 130.438 900.562 131.344 900.562 132.688C900.562 133.688 901.219 134.156 903.438 134.719L904.312 134.938C908.125 135.875 909.812 137.406 909.812 139.906C909.812 142.906 907.281 144.938 903.562 144.938Z" fill="black"/>
<path d="M887.219 144.938C882.375 144.938 878.812 141.281 878.812 136.438C878.812 131.594 882.281 127.938 886.906 127.938C891.531 127.938 894.75 131.594 894.75 136.438L894.719 137.344H881.562C881.922 140.438 884.203 142.438 887.281 142.438C889.5 142.438 891.094 141.391 891.906 139.656L894.219 140.656C892.984 143.25 890.531 144.938 887.219 144.938ZM881.688 134.781H891.875C891.688 132.328 889.688 130.438 886.906 130.438C884.25 130.438 882.266 132.156 881.688 134.781Z" fill="black"/>
<path d="M868.469 144.5L861.625 128.375H864.469L869.812 141.188H869.938L874.719 128.375H877.5L868.719 151.25H865.875L868.469 144.5Z" fill="black"/>
<path d="M852.781 144.938C847.938 144.938 844.375 141.281 844.375 136.438C844.375 131.594 847.844 127.938 852.469 127.938C857.094 127.938 860.312 131.594 860.312 136.438L860.281 137.344H847.125C847.484 140.438 849.766 142.438 852.844 142.438C855.062 142.438 856.656 141.391 857.469 139.656L859.781 140.656C858.547 143.25 856.094 144.938 852.781 144.938ZM847.25 134.781H857.438C857.25 132.328 855.25 130.438 852.469 130.438C849.812 130.438 847.828 132.156 847.25 134.781Z" fill="black"/>
<path d="M825.094 144.5V128.375H827.719V130.875H827.844C828.641 129.125 830.234 127.938 832.062 127.938C832.656 127.938 833.219 128.062 833.75 128.281V130.875C833.156 130.688 832.562 130.594 832 130.594C829.312 130.594 827.719 132.75 827.719 136.438V144.5H825.094Z" fill="black"/>
<path d="M814.125 144.938C809.281 144.938 805.719 141.281 805.719 136.438C805.719 131.594 809.188 127.938 813.812 127.938C818.438 127.938 821.656 131.594 821.656 136.438L821.625 137.344H808.469C808.828 140.438 811.109 142.438 814.188 142.438C816.406 142.438 818 141.391 818.812 139.656L821.125 140.656C819.891 143.25 817.438 144.938 814.125 144.938ZM808.594 134.781H818.781C818.594 132.328 816.594 130.438 813.812 130.438C811.156 130.438 809.172 132.156 808.594 134.781Z" fill="black"/>
<path d="M789.156 144.5V120.875H791.781V130.719H791.906C792.688 129 794.422 127.938 796.719 127.938C800.312 127.938 802.281 130.469 802.281 134.625V144.5H799.656V135C799.656 132.031 798.406 130.438 796.156 130.438C793.906 130.438 791.781 132.031 791.781 135.5V144.5H789.156Z" fill="#0066FF"/>
<path d="M776.969 144.5H774.344V141.969H774.25C773.141 143.891 771.344 144.938 768.969 144.938C764.5 144.938 761.281 141.281 761.281 136.438C761.281 131.594 764.5 127.938 768.969 127.938C771.344 127.938 773.141 128.984 774.25 130.906H774.344V120.875H776.969V144.5ZM769.219 142.438C772.281 142.438 774.469 139.969 774.469 136.438C774.469 132.906 772.281 130.438 769.219 130.438C766.125 130.438 763.969 132.938 763.969 136.438C763.969 139.938 766.125 142.438 769.219 142.438Z" fill="#0066FF"/>
<path d="M751.062 144.938C746.219 144.938 742.656 141.281 742.656 136.438C742.656 131.594 746.125 127.938 750.75 127.938C755.375 127.938 758.594 131.594 758.594 136.438L758.562 137.344H745.406C745.766 140.438 748.047 142.438 751.125 142.438C753.344 142.438 754.938 141.391 755.75 139.656L758.062 140.656C756.828 143.25 754.375 144.938 751.062 144.938ZM745.531 134.781H755.719C755.531 132.328 753.531 130.438 750.75 130.438C748.094 130.438 746.109 132.156 745.531 134.781Z" fill="black"/>
<path d="M728.625 144.5V120.875H731.25V135.375L737.719 128.375H741.188L733.938 136.062L741.469 144.5H738.062L731.25 136.875V144.5H728.625Z" fill="#0066FF"/>
<path d="M711.312 144.5V128.375H713.938V130.719H714.062C714.844 129 716.578 127.938 718.875 127.938C722.469 127.938 724.438 130.469 724.438 134.625V144.5H721.812V135C721.812 132.031 720.562 130.438 718.312 130.438C716.062 130.438 713.938 132.031 713.938 135.5V144.5H711.312Z" fill="black"/>
<path d="M704.5 144.5V128.375H707.125V144.5H704.5ZM705.812 125C704.812 125 704.062 124.25 704.062 123.25C704.062 122.25 704.812 121.5 705.812 121.5C706.812 121.5 707.562 122.25 707.562 123.25C707.562 124.25 706.812 125 705.812 125Z" fill="black"/>
<path d="M697.688 144.5V120.875H700.312V144.5H697.688Z" fill="#0066FF"/>
<path d="M678.562 144.5V120.875H681.188V130.906H681.312C682.391 128.984 684.188 127.938 686.562 127.938C691.031 127.938 694.25 131.594 694.25 136.438C694.25 141.281 691.031 144.938 686.562 144.938C684.188 144.938 682.391 143.891 681.312 141.969H681.188V144.5H678.562ZM686.312 142.438C689.406 142.438 691.562 139.938 691.562 136.438C691.562 132.938 689.406 130.438 686.312 130.438C683.25 130.438 681.062 132.906 681.062 136.438C681.062 139.969 683.25 142.438 686.312 142.438Z" fill="#0066FF"/>
<path d="M658.844 144.5L652 128.375H654.844L660.188 141.188H660.312L665.094 128.375H667.875L659.094 151.25H656.25L658.844 144.5Z" fill="black"/>
<path d="M646.688 144.5V120.875H649.312V144.5H646.688Z" fill="#0066FF"/>
<path d="M642.5 144.5H639.875V141.969H639.781C638.672 143.891 636.875 144.938 634.5 144.938C630.031 144.938 626.812 141.281 626.812 136.438C626.812 131.594 630.031 127.938 634.5 127.938C636.875 127.938 638.672 128.984 639.781 130.906H639.875V120.875H642.5V144.5ZM634.75 142.438C637.812 142.438 640 139.969 640 136.438C640 132.906 637.812 130.438 634.75 130.438C631.656 130.438 629.5 132.938 629.5 136.438C629.5 139.938 631.656 142.438 634.75 142.438Z" fill="#0066FF"/>
<path d="M616.406 144.5V128.375H619.031V130.875H619.156C619.953 129.125 621.547 127.938 623.375 127.938C623.969 127.938 624.531 128.062 625.062 128.281V130.875C624.469 130.688 623.875 130.594 623.312 130.594C620.625 130.594 619.031 132.75 619.031 136.438V144.5H616.406Z" fill="black"/>
<path d="M604.469 142.438C607.531 142.438 609.719 139.969 609.719 136.438C609.719 132.906 607.531 130.438 604.469 130.438C601.375 130.438 599.219 132.938 599.219 136.438C599.219 139.938 601.375 142.438 604.469 142.438ZM612.219 144.5H609.594V141.969H609.5C608.391 143.891 606.594 144.938 604.219 144.938C599.75 144.938 596.531 141.281 596.531 136.438C596.531 131.594 599.75 127.938 604.219 127.938C606.594 127.938 608.391 128.984 609.5 130.906H609.594V128.375H612.219V144.5Z" fill="black"/>
<path d="M579.969 144.5V120.875H582.594V130.719H582.719C583.5 129 585.234 127.938 587.531 127.938C591.125 127.938 593.094 130.469 593.094 134.625V144.5H590.469V135C590.469 132.031 589.219 130.438 586.969 130.438C584.719 130.438 582.594 132.031 582.594 135.5V144.5H579.969Z" fill="#0066FF"/>
<path d="M560.25 144.5L553.406 128.375H556.25L561.594 141.188H561.719L566.5 128.375H569.281L560.5 151.25H557.656L560.25 144.5Z" fill="black"/>
<path d="M548.094 144.5V120.875H550.719V144.5H548.094Z" fill="#0066FF"/>
<path d="M541.281 144.5V128.375H543.906V144.5H541.281ZM542.594 125C541.594 125 540.844 124.25 540.844 123.25C540.844 122.25 541.594 121.5 542.594 121.5C543.594 121.5 544.344 122.25 544.344 123.25C544.344 124.25 543.594 125 542.594 125Z" fill="black"/>
<path d="M524.219 144.5V121.875H526.969V141.938H537.719V144.5H524.219Z" fill="black"/>
</svg>
