<svg width="1012" height="177" viewBox="0 0 1012 177" fill="none" xmlns="http://www.w3.org/2000/svg">
<rect x="0.5" y="0.5" width="1011" height="176" rx="15.5" stroke="#70737C" stroke-opacity="0.16"/>
<rect x="32" y="32" width="52" height="24" rx="4" fill="#70737C" fill-opacity="0.08"/>
<path d="M39.8359 43.3672C39.8359 41.7734 41.1484 40.7578 43.1719 40.7578C45.1328 40.7578 46.375 41.6641 46.4922 43.2031H44.7734C44.6484 42.5625 44.0312 42.1641 43.1484 42.1641C42.2344 42.1641 41.6328 42.5859 41.6328 43.2266C41.6328 43.7734 42.0234 44.0859 42.9531 44.2891L44.2266 44.5625C45.9375 44.9297 46.6953 45.6562 46.6953 46.9375C46.6953 48.6016 45.3281 49.6719 43.1797 49.6719C41.0859 49.6719 39.7578 48.7422 39.6328 47.1953H41.4375C41.5938 47.8672 42.2422 48.25 43.2109 48.25C44.2031 48.25 44.8281 47.8125 44.8281 47.1484C44.8281 46.5859 44.4688 46.2969 43.4922 46.0859L42.2109 45.8047C40.6328 45.4531 39.8359 44.6406 39.8359 43.3672ZM49.7266 43.3672C49.7266 41.7734 51.0391 40.7578 53.0625 40.7578C55.0234 40.7578 56.2656 41.6641 56.3828 43.2031H54.6641C54.5391 42.5625 53.9219 42.1641 53.0391 42.1641C52.125 42.1641 51.5234 42.5859 51.5234 43.2266C51.5234 43.7734 51.9141 44.0859 52.8438 44.2891L54.1172 44.5625C55.8281 44.9297 56.5859 45.6562 56.5859 46.9375C56.5859 48.6016 55.2188 49.6719 53.0703 49.6719C50.9766 49.6719 49.6484 48.7422 49.5234 47.1953H51.3281C51.4844 47.8672 52.1328 48.25 53.1016 48.25C54.0938 48.25 54.7188 47.8125 54.7188 47.1484C54.7188 46.5859 54.3594 46.2969 53.3828 46.0859L52.1016 45.8047C50.5234 45.4531 49.7266 44.6406 49.7266 43.3672ZM65.1484 43.1953L61 46.2578C61.3359 47.5078 62 48.1641 62.9531 48.1641C64.3906 48.1641 65.1641 46.6641 65.1641 43.8594C65.1641 43.625 65.1562 43.4062 65.1484 43.1953ZM60.75 44.5312L64.9062 41.4844C64.5703 40.2266 63.9062 39.5625 62.9531 39.5625C61.5078 39.5625 60.7344 41.0625 60.7344 43.8594C60.7344 44.0938 60.7422 44.3203 60.75 44.5312ZM62.9531 37.9844C65.5547 37.9844 67.0156 40.0938 67.0156 43.8594C67.0156 47.6328 65.5547 49.7422 62.9531 49.7422C60.3438 49.7422 58.8828 47.6328 58.8828 43.8594C58.8828 40.0938 60.3438 37.9844 62.9531 37.9844ZM69.9297 49.5L74.8984 39.9375V39.8203H68.9844V38.2188H76.8125V39.8438L71.9219 49.5H69.9297Z" fill="black"/>
<rect x="32" y="88" width="948" height="1" fill="#70737C" fill-opacity="0.16"/>
<path d="M34.2188 144.5V121.875H41.0938C45.9688 121.875 49.2188 124.562 49.2188 128.562C49.2188 131.891 47 134.312 43.5 135.031L49.9062 144.5H46.6562L40.4062 135.281H36.9688V144.5H34.2188ZM36.9688 132.719H41.125C44.4688 132.719 46.4062 131.156 46.4062 128.562C46.4062 125.969 44.4688 124.438 41.125 124.438H36.9688V132.719ZM60.125 144.938C55.2812 144.938 51.7188 141.281 51.7188 136.438C51.7188 131.594 55.1875 127.938 59.8125 127.938C64.4375 127.938 67.6562 131.594 67.6562 136.438L67.625 137.344H54.4688C54.8281 140.438 57.1094 142.438 60.1875 142.438C62.4062 142.438 64 141.391 64.8125 139.656L67.125 140.656C65.8906 143.25 63.4375 144.938 60.125 144.938ZM54.5938 134.781H64.7812C64.5938 132.328 62.5938 130.438 59.8125 130.438C57.1562 130.438 55.1719 132.156 54.5938 134.781ZM78.2812 142.438C81.3438 142.438 83.5312 139.969 83.5312 136.438C83.5312 132.906 81.3438 130.438 78.2812 130.438C75.1875 130.438 73.0312 132.938 73.0312 136.438C73.0312 139.938 75.1875 142.438 78.2812 142.438ZM86.0312 144.5H83.4062V141.969H83.3125C82.2031 143.891 80.4062 144.938 78.0312 144.938C73.5625 144.938 70.3438 141.281 70.3438 136.438C70.3438 131.594 73.5625 127.938 78.0312 127.938C80.4062 127.938 82.2031 128.984 83.3125 130.906H83.4062V128.375H86.0312V144.5ZM105.156 144.5H102.531V141.969H102.438C101.328 143.891 99.5312 144.938 97.1562 144.938C92.6875 144.938 89.4688 141.281 89.4688 136.438C89.4688 131.594 92.6875 127.938 97.1562 127.938C99.5312 127.938 101.328 128.984 102.438 130.906H102.531V121.875H105.156V144.5ZM97.4062 142.438C100.469 142.438 102.656 139.969 102.656 136.438C102.656 132.906 100.469 130.438 97.4062 130.438C94.3125 130.438 92.1562 132.938 92.1562 136.438C92.1562 139.938 94.3125 142.438 97.4062 142.438ZM116.531 142.438C119.594 142.438 121.781 139.969 121.781 136.438C121.781 132.906 119.594 130.438 116.531 130.438C113.438 130.438 111.281 132.938 111.281 136.438C111.281 139.938 113.438 142.438 116.531 142.438ZM124.281 144.5H121.656V141.969H121.562C120.453 143.891 118.656 144.938 116.281 144.938C111.812 144.938 108.594 141.281 108.594 136.438C108.594 131.594 111.812 127.938 116.281 127.938C118.656 127.938 120.453 128.984 121.562 130.906H121.656V128.375H124.281V144.5ZM128.469 144.5V121.875H131.094V130.906H131.219C132.297 128.984 134.094 127.938 136.469 127.938C140.938 127.938 144.156 131.594 144.156 136.438C144.156 141.281 140.938 144.938 136.469 144.938C134.094 144.938 132.297 143.891 131.219 141.969H131.094V144.5H128.469ZM136.219 142.438C139.312 142.438 141.469 139.938 141.469 136.438C141.469 132.938 139.312 130.438 136.219 130.438C133.156 130.438 130.969 132.906 130.969 136.438C130.969 139.969 133.156 142.438 136.219 142.438ZM147.594 144.5V128.375H150.219V144.5H147.594ZM148.906 125C147.906 125 147.156 124.25 147.156 123.25C147.156 122.25 147.906 121.5 148.906 121.5C149.906 121.5 150.656 122.25 150.656 123.25C150.656 124.25 149.906 125 148.906 125ZM154.406 144.5V121.875H157.031V144.5H154.406ZM161.219 144.5V128.375H163.844V144.5H161.219ZM162.531 125C161.531 125 160.781 124.25 160.781 123.25C160.781 122.25 161.531 121.5 162.531 121.5C163.531 121.5 164.281 122.25 164.281 123.25C164.281 124.25 163.531 125 162.531 125ZM167.031 130.562V128.375H169.781V124.375H172.406V128.375H176.406V130.562H172.406V139.812C172.406 141.562 173.156 142.375 174.781 142.375C175.281 142.375 175.844 142.281 176.406 142.125V144.594C175.906 144.781 175.219 144.938 174.406 144.938C171.562 144.938 169.781 143 169.781 139.906V130.562H167.031ZM185.188 144.5L178.344 128.375H181.188L186.531 141.188H186.656L191.438 128.375H194.219L185.438 151.25H182.594L185.188 144.5Z" fill="#37383C" fill-opacity="0.28"/>
<path d="M524.219 144.5V121.875H531.094C535.969 121.875 539.219 124.562 539.219 128.562C539.219 131.891 537 134.312 533.5 135.031L539.906 144.5H536.656L530.406 135.281H526.969V144.5H524.219ZM526.969 132.719H531.125C534.469 132.719 536.406 131.156 536.406 128.562C536.406 125.969 534.469 124.438 531.125 124.438H526.969V132.719ZM550.125 144.938C545.281 144.938 541.719 141.281 541.719 136.438C541.719 131.594 545.188 127.938 549.812 127.938C554.438 127.938 557.656 131.594 557.656 136.438L557.625 137.344H544.469C544.828 140.438 547.109 142.438 550.188 142.438C552.406 142.438 554 141.391 554.812 139.656L557.125 140.656C555.891 143.25 553.438 144.938 550.125 144.938ZM544.594 134.781H554.781C554.594 132.328 552.594 130.438 549.812 130.438C547.156 130.438 545.172 132.156 544.594 134.781ZM593.281 144.5H590.656V141.969H590.562C589.453 143.891 587.656 144.938 585.281 144.938C580.812 144.938 577.594 141.281 577.594 136.438C577.594 131.594 580.812 127.938 585.281 127.938C587.656 127.938 589.453 128.984 590.562 130.906H590.656V121.875H593.281V144.5ZM585.531 142.438C588.594 142.438 590.781 139.969 590.781 136.438C590.781 132.906 588.594 130.438 585.531 130.438C582.438 130.438 580.281 132.938 580.281 136.438C580.281 139.938 582.438 142.438 585.531 142.438ZM614.719 144.5V121.875H617.344V130.906H617.469C618.547 128.984 620.344 127.938 622.719 127.938C627.188 127.938 630.406 131.594 630.406 136.438C630.406 141.281 627.188 144.938 622.719 144.938C620.344 144.938 618.547 143.891 617.469 141.969H617.344V144.5H614.719ZM622.469 142.438C625.562 142.438 627.719 139.938 627.719 136.438C627.719 132.938 625.562 130.438 622.469 130.438C619.406 130.438 617.219 132.906 617.219 136.438C617.219 139.969 619.406 142.438 622.469 142.438ZM633.844 144.5V128.375H636.469V144.5H633.844ZM635.156 125C634.156 125 633.406 124.25 633.406 123.25C633.406 122.25 634.156 121.5 635.156 121.5C636.156 121.5 636.906 122.25 636.906 123.25C636.906 124.25 636.156 125 635.156 125ZM640.656 144.5V121.875H643.281V144.5H640.656ZM647.469 144.5V128.375H650.094V144.5H647.469ZM648.781 125C647.781 125 647.031 124.25 647.031 123.25C647.031 122.25 647.781 121.5 648.781 121.5C649.781 121.5 650.531 122.25 650.531 123.25C650.531 124.25 649.781 125 648.781 125ZM653.281 130.562V128.375H656.031V124.375H658.656V128.375H662.656V130.562H658.656V139.812C658.656 141.562 659.406 142.375 661.031 142.375C661.531 142.375 662.094 142.281 662.656 142.125V144.594C662.156 144.781 661.469 144.938 660.656 144.938C657.812 144.938 656.031 143 656.031 139.906V130.562H653.281ZM671.438 144.5L664.594 128.375H667.438L672.781 141.188H672.906L677.688 128.375H680.469L671.688 151.25H668.844L671.438 144.5Z" fill="black"/>
<path d="M566.094 144.938C562.938 144.938 560.594 142.688 560.594 139.812C560.594 136.938 562.938 134.781 567.156 134.562L571.469 134.312C571.422 131.688 570.188 130.438 567.656 130.438C565.75 130.438 564.5 131.125 563.594 132.75L561.25 131.5C562.594 129.156 564.75 127.938 567.656 127.938C571.781 127.938 574.156 130.406 574.156 134.5V144.5H571.469V141.969H571.344C570.25 143.766 568.359 144.938 566.094 144.938ZM563.344 139.812C563.344 141.469 564.594 142.438 566.812 142.438C569.719 142.438 571.469 140.781 571.469 138.188V136.531L567.156 136.812C564.594 136.969 563.344 138.156 563.344 139.812ZM602.469 144.938C599.312 144.938 596.969 142.688 596.969 139.812C596.969 136.938 599.312 134.781 603.531 134.562L607.844 134.312C607.797 131.688 606.562 130.438 604.031 130.438C602.125 130.438 600.875 131.125 599.969 132.75L597.625 131.5C598.969 129.156 601.125 127.938 604.031 127.938C608.156 127.938 610.531 130.406 610.531 134.5V144.5H607.844V141.969H607.719C606.625 143.766 604.734 144.938 602.469 144.938ZM599.719 139.812C599.719 141.469 600.969 142.438 603.188 142.438C606.094 142.438 607.844 140.781 607.844 138.188V136.531L603.531 136.812C600.969 136.969 599.719 138.156 599.719 139.812Z" fill="#0066FF"/>
</svg>
