<svg width="1012" height="273" viewBox="0 0 1012 273" fill="none" xmlns="http://www.w3.org/2000/svg">
<rect x="0.5" y="0.5" width="1011" height="272" rx="15.5" stroke="#70737C" stroke-opacity="0.16"/>
<rect x="32" y="32" width="52" height="24" rx="4" fill="#70737C" fill-opacity="0.08"/>
<path d="M39.8359 43.3672C39.8359 41.7734 41.1484 40.7578 43.1719 40.7578C45.1328 40.7578 46.375 41.6641 46.4922 43.2031H44.7734C44.6484 42.5625 44.0312 42.1641 43.1484 42.1641C42.2344 42.1641 41.6328 42.5859 41.6328 43.2266C41.6328 43.7734 42.0234 44.0859 42.9531 44.2891L44.2266 44.5625C45.9375 44.9297 46.6953 45.6562 46.6953 46.9375C46.6953 48.6016 45.3281 49.6719 43.1797 49.6719C41.0859 49.6719 39.7578 48.7422 39.6328 47.1953H41.4375C41.5938 47.8672 42.2422 48.25 43.2109 48.25C44.2031 48.25 44.8281 47.8125 44.8281 47.1484C44.8281 46.5859 44.4688 46.2969 43.4922 46.0859L42.2109 45.8047C40.6328 45.4531 39.8359 44.6406 39.8359 43.3672ZM49.7266 43.3672C49.7266 41.7734 51.0391 40.7578 53.0625 40.7578C55.0234 40.7578 56.2656 41.6641 56.3828 43.2031H54.6641C54.5391 42.5625 53.9219 42.1641 53.0391 42.1641C52.125 42.1641 51.5234 42.5859 51.5234 43.2266C51.5234 43.7734 51.9141 44.0859 52.8438 44.2891L54.1172 44.5625C55.8281 44.9297 56.5859 45.6562 56.5859 46.9375C56.5859 48.6016 55.2188 49.6719 53.0703 49.6719C50.9766 49.6719 49.6484 48.7422 49.5234 47.1953H51.3281C51.4844 47.8672 52.1328 48.25 53.1016 48.25C54.0938 48.25 54.7188 47.8125 54.7188 47.1484C54.7188 46.5859 54.3594 46.2969 53.3828 46.0859L52.1016 45.8047C50.5234 45.4531 49.7266 44.6406 49.7266 43.3672ZM64.2734 47.9141H67.2734V49.5H59.2734V47.9141H62.4219V40.1641H62.2891L59.2578 42.1562V40.3203L62.4297 38.2266H64.2734V47.9141ZM77.0078 45.7891C77.0078 48.0547 75.2656 49.7266 72.9141 49.7266C70.4922 49.7266 68.8047 48.0781 68.8047 45.7031C68.8047 44.3594 69.2656 43.125 70.375 41.5391C70.6328 41.1484 72.5938 38.4922 72.8047 38.2266H74.9531L72.0234 42.1797C71.6797 42.6484 71.6406 42.7188 71.5625 42.8828L71.7031 42.9141C72.0859 42.4766 72.8281 42.1875 73.5391 42.1875C75.5312 42.1875 77.0078 43.7188 77.0078 45.7891ZM72.8984 48.125C74.1797 48.125 75.1484 47.1562 75.1484 45.8672C75.1484 44.5781 74.1797 43.6094 72.8984 43.6094C71.6172 43.6094 70.6484 44.5781 70.6484 45.8672C70.6484 47.1562 71.6172 48.125 72.8984 48.125Z" fill="black"/>
<rect x="32" y="88" width="948" height="1" fill="#70737C" fill-opacity="0.16"/>
<path d="M42.8438 143.625C42.0938 143.641 41.5312 143.031 41.5312 142.312V127.312C41.5312 126.641 42.0938 126.031 42.8438 126.031C43.5312 126.031 44.0938 126.641 44.0938 127.312V139.219L60.2812 123.094C60.7656 122.594 61.5312 122.594 62.0312 123.094C62.5938 123.641 62.5312 124.406 62.0312 124.906L45.9375 141.031H57.8438C58.5312 141.031 59.0938 141.594 59.0938 142.312C59.0938 143.062 58.5312 143.641 57.8438 143.625H42.8438ZM92.5875 143.625C91.8375 143.641 91.2594 143.062 91.275 142.312C91.2594 141.594 91.8375 141.031 92.5875 141.031H104.431L88.3375 124.906C87.7594 124.328 87.8375 123.594 88.3375 123.094C88.8688 122.594 89.6031 122.594 90.1188 123.094L106.275 139.219V127.312C106.259 126.641 106.838 126.031 107.588 126.031C108.259 126.031 108.838 126.641 108.838 127.312V142.312C108.838 143.031 108.259 143.641 107.588 143.625H92.5875ZM133.081 136.562C132.503 136 132.566 135.266 133.081 134.75C133.503 134.328 134.269 134.203 134.831 134.75L143.519 143.406V119.812C143.503 119.141 144.066 118.531 144.8 118.531C145.503 118.531 146.066 119.141 146.081 119.812V143.406L154.738 134.75C155.238 134.266 156.003 134.266 156.519 134.75C157.066 135.297 157.003 136.062 156.519 136.562L145.675 147.406C145.159 147.906 144.441 147.938 143.894 147.406L133.081 136.562ZM176.981 134.062C176.434 133.531 176.434 132.797 176.981 132.25L187.794 121.438C188.341 120.906 189.059 120.938 189.575 121.438C190.137 121.969 190.059 122.734 189.575 123.219L180.981 131.844H204.544C205.231 131.859 205.794 132.469 205.794 133.156C205.794 133.859 205.231 134.469 204.544 134.469H180.981L189.575 143.094C190.137 143.672 190.059 144.406 189.575 144.906C189.028 145.438 188.294 145.406 187.794 144.906L176.981 134.062ZM222.538 134.062C222.006 133.531 222.006 132.797 222.538 132.25L230.881 123.938C231.397 123.406 232.131 123.438 232.631 123.938C233.194 124.469 233.131 125.234 232.631 125.719L226.538 131.844H248.631L242.538 125.719C241.959 125.172 242.038 124.438 242.538 123.938C243.069 123.438 243.803 123.438 244.319 123.938L252.631 132.25C253.163 132.797 253.163 133.531 252.631 134.062L244.319 142.406C243.803 142.906 243.038 142.906 242.538 142.406C242.038 141.906 242.006 141.141 242.538 140.594L248.631 134.469H226.538L232.631 140.594C233.194 141.172 233.131 141.906 232.631 142.406C232.1 142.938 231.366 142.906 230.881 142.406L222.538 134.062ZM285.594 144.906C285.141 144.438 285.031 143.672 285.594 143.094L294.219 134.469H270.688C269.938 134.469 269.359 133.906 269.375 133.156C269.359 132.438 269.938 131.859 270.688 131.844H294.219L285.594 123.219C285.031 122.672 285.094 121.938 285.594 121.438C286.141 120.938 286.859 120.938 287.375 121.438L298.219 132.25C298.734 132.797 298.734 133.531 298.219 134.062L287.375 144.906C286.859 145.406 286.094 145.406 285.594 144.906ZM338.681 143.219L322.494 127.094V139C322.494 139.703 321.931 140.297 321.244 140.281C320.494 140.297 319.931 139.703 319.931 139V124C319.931 123.297 320.494 122.703 321.244 122.688H336.244C336.931 122.703 337.494 123.266 337.494 124C337.494 124.734 336.931 125.297 336.244 125.281H324.337L340.431 141.438C340.994 142 340.931 142.734 340.431 143.219C339.9 143.766 339.166 143.734 338.681 143.219ZM366.737 143.219C366.269 142.766 366.159 142 366.737 141.438L382.831 125.281H370.987C370.237 125.297 369.659 124.734 369.675 124C369.659 123.266 370.237 122.703 370.987 122.688H385.987C386.659 122.703 387.237 123.297 387.237 124V139C387.237 139.703 386.659 140.297 385.987 140.281C385.237 140.297 384.659 139.703 384.675 139V127.094L368.519 143.219C368.003 143.734 367.237 143.734 366.737 143.219ZM423.2 147.781C422.466 147.797 421.903 147.203 421.919 146.5V122.938L413.231 131.562C412.731 132.062 411.966 132.062 411.481 131.562C411.028 131.141 410.872 130.359 411.481 129.75L422.294 118.938C422.841 118.406 423.559 118.438 424.075 118.938L434.919 129.75C435.466 130.328 435.403 131.062 434.919 131.562C434.372 132.062 433.638 132.062 433.138 131.562L424.481 122.938V146.5C424.466 147.203 423.903 147.797 423.2 147.781ZM460.381 139.906C459.803 139.328 459.866 138.594 460.381 138.094C460.803 137.672 461.569 137.531 462.131 138.094L468.319 144.219V122.094L462.131 128.219C461.631 128.734 460.866 128.734 460.381 128.219C459.928 127.797 459.772 127.031 460.381 126.438L468.694 118.094C469.241 117.562 469.959 117.594 470.475 118.094L478.819 126.438C479.366 127 479.303 127.734 478.819 128.219C478.272 128.734 477.538 128.734 477.038 128.219L470.881 122.094V144.219L477.038 138.094C477.506 137.641 478.272 137.562 478.819 138.094C479.366 138.641 479.303 139.406 478.819 139.906L470.475 148.219C469.959 148.734 469.241 148.766 468.694 148.219L460.381 139.906ZM48.8438 190.344C48.5625 190.359 48.2031 190.234 47.9375 189.969L39.25 181.25C38.7969 180.828 38.6406 180.031 39.25 179.469C39.6719 179.031 40.4375 178.938 41 179.5L48.8125 187.188L62.9375 172.344C63.4688 171.797 64.2656 171.828 64.7812 172.312C65.2031 172.766 65.3594 173.531 64.8125 174.125L49.7812 189.969C49.4688 190.266 49.1719 190.359 48.8438 190.344ZM98.4 197.469C89.4313 197.469 82.1031 190.141 82.1188 181.156C82.1031 172.203 89.4313 164.859 98.4 164.844C107.338 164.859 114.666 172.203 114.681 181.156C114.666 190.141 107.338 197.469 98.4 197.469ZM98.4 194.844C105.9 194.859 112.103 188.703 112.119 181.156C112.103 173.641 105.9 167.469 98.4 167.469C90.8688 167.469 84.6656 173.672 84.6813 181.156C84.6656 188.672 90.8688 194.859 98.4 194.844ZM144.8 197.469C135.831 197.469 128.503 190.141 128.519 181.156C128.503 172.203 135.831 164.859 144.8 164.844C153.738 164.859 161.066 172.203 161.081 181.156C161.066 190.141 153.738 197.469 144.8 197.469ZM179.075 193.281C178.559 192.797 178.528 192.062 179.075 191.531L189.387 181.156L179.075 170.781C178.528 170.266 178.559 169.531 179.075 169.031C179.559 168.531 180.294 168.5 180.856 169.031L191.2 179.312L201.575 169.031C201.997 168.594 202.794 168.438 203.387 169.031C203.872 169.562 203.841 170.297 203.356 170.781L193.044 181.156L203.356 191.531C203.794 192 203.903 192.766 203.387 193.281C202.841 193.859 202.059 193.797 201.575 193.281L191.2 183L180.856 193.281C180.294 193.828 179.559 193.797 179.075 193.281ZM237.6 196.281C236.928 196.297 236.334 196.062 235.85 195.562L224.038 183.625C222.131 181.703 221.303 179.234 221.319 176.812C221.303 171.562 225.334 167.141 230.663 167.125C233.131 167.141 235.741 168.141 237.6 170.25C239.428 168.172 242.006 167.141 244.506 167.125C249.834 167.141 253.866 171.562 253.881 176.812C253.866 179.234 253.038 181.703 251.131 183.625L239.381 195.562C238.897 196.031 238.272 196.297 237.6 196.281ZM249.288 181.844C250.694 180.438 251.303 178.5 251.319 176.781C251.303 172.969 248.334 169.703 244.506 169.688C242.569 169.703 240.506 170.531 239.1 172.469C238.459 173.328 238.366 173.703 237.6 173.688C236.803 173.703 236.459 173.094 236.069 172.531C234.772 170.703 232.772 169.703 230.663 169.688C226.772 169.703 223.866 173 223.881 176.781C223.866 178.672 224.569 180.531 225.913 181.844L237.6 193.656L249.288 181.844ZM284 196.281C283.328 196.297 282.734 196.062 282.25 195.562L270.438 183.625C268.531 181.703 267.703 179.234 267.719 176.812C267.703 171.562 271.734 167.141 277.062 167.125C279.531 167.141 282.141 168.141 284 170.25C285.828 168.172 288.406 167.141 290.906 167.125C296.234 167.141 300.266 171.562 300.281 176.812C300.266 179.234 299.438 181.703 297.531 183.625L285.781 195.562C285.297 196.031 284.672 196.297 284 196.281ZM321.4 195.781C317.494 195.797 315.759 194.031 315.775 190.156V172.156C315.759 168.297 317.494 166.531 321.4 166.531H339.4C343.259 166.531 344.994 168.297 344.994 172.156V190.156C344.994 194.031 343.259 195.797 339.4 195.781H321.4ZM339.4 193.188C341.9 193.203 342.431 192.703 342.431 190.156V172.156C342.431 169.641 341.9 169.141 339.4 169.125H321.4C318.869 169.141 318.337 169.641 318.337 172.156V190.156C318.337 192.703 318.869 193.203 321.4 193.188H339.4ZM367.8 195.781C363.894 195.797 362.159 194.031 362.175 190.156V172.156C362.159 168.297 363.894 166.531 367.8 166.531H385.8C389.659 166.531 391.394 168.297 391.394 172.156V190.156C391.394 194.031 389.659 195.797 385.8 195.781H367.8ZM416.106 196.156C412.497 197.766 411.606 196.406 411.95 193.125L412.731 185.344L407.513 179.562C405.059 176.859 405.966 175.406 409.106 174.719L416.731 173.094L420.669 166.312C421.638 164.672 422.169 164.031 423.2 164.031C424.263 164.031 424.794 164.672 425.763 166.312L429.7 173.094L437.356 174.719C440.466 175.406 441.372 176.859 438.95 179.562L433.7 185.344L434.513 193.125C434.841 196.406 433.934 197.766 430.356 196.156L423.2 193L416.106 196.156ZM422.075 190.719C422.528 190.531 422.872 190.438 423.2 190.438C423.559 190.438 423.903 190.531 424.388 190.719L431.763 193.969C431.903 194.031 431.997 194.062 431.981 193.812L431.138 185.812C431.028 184.859 431.059 184.469 431.888 183.562L437.263 177.562C437.403 177.438 437.294 177.359 437.138 177.312L429.356 175.625C428.372 175.438 427.934 175.172 427.419 174.219L423.388 167.219C423.341 167.172 423.263 167.094 423.2 167.094C423.169 167.094 423.106 167.172 423.075 167.219L419.044 174.219C418.466 175.234 417.997 175.438 417.106 175.625L409.294 177.312C409.169 177.359 409.028 177.438 409.169 177.562L414.575 183.562C415.372 184.469 415.403 184.906 415.294 185.812L414.481 193.812C414.434 194.031 414.466 194.031 414.669 193.969L422.075 190.719ZM462.506 196.156C458.866 197.766 458.006 196.359 458.35 193.125L459.131 185.344L453.913 179.562C451.459 176.859 452.366 175.406 455.506 174.719L463.131 173.094L467.069 166.312C468.038 164.672 468.569 164.031 469.6 164.031C470.663 164.031 471.194 164.672 472.163 166.312L476.1 173.094L483.756 174.719C486.866 175.406 487.772 176.859 485.35 179.562L480.1 185.344L480.913 193.125C481.241 196.359 480.366 197.766 476.756 196.156L469.6 193.031L462.506 196.156ZM41.1875 243.781C38.8594 243.797 37.3281 243.234 36.3438 241.531C35.3281 239.828 35.5312 238.172 36.75 236.094L47.5312 217.594C48.7031 215.594 50 214.531 52 214.531C53.7969 214.531 55.1719 215.438 56.4375 217.594L67.2812 236.094C68.5312 238.266 68.5938 239.906 67.6875 241.5C66.7344 243.094 65.2969 243.797 62.8438 243.781H41.1875ZM52 238.469C50.8594 238.469 50 237.531 50 236.469C50 235.359 50.8594 234.469 52 234.469C53.0938 234.469 54 235.328 54 236.469C54 237.531 53.1406 238.469 52 238.469ZM62.8438 241.188C64.5625 241.203 65.0625 240.906 65.4688 240.188C65.9062 239.438 65.8594 238.766 65.0625 237.406L54.25 218.906C53.3281 217.359 52.7656 217.141 52 217.125C51.2031 217.141 50.6719 217.359 49.7812 218.906L38.9375 237.406C38.0625 238.906 38.1406 239.5 38.5 240.156C38.9062 240.906 39.4062 241.203 41.1875 241.188H62.8438ZM50.5625 232.562V223.062H53.4375V232.562H50.5625ZM87.5875 243.781C85.2594 243.797 83.7281 243.234 82.7438 241.531C81.7281 239.828 81.9313 238.172 83.15 236.094L93.9313 217.594C95.1031 215.594 96.4 214.531 98.4 214.531C100.197 214.531 101.572 215.438 102.838 217.594L113.681 236.094C114.931 238.266 114.994 239.906 114.088 241.5C113.134 243.094 111.697 243.797 109.244 243.781H87.5875ZM98.4 238.188C99.5406 238.203 100.4 237.266 100.4 236.188C100.4 235.062 99.4938 234.203 98.4 234.188C97.2594 234.203 96.4 235.094 96.4 236.188C96.4 237.266 97.2594 238.203 98.4 238.188ZM96.9625 232.344H99.8375V223.469H96.9625V232.344Z" fill="#2A2A2A" fill-opacity="0.28"/>
<path d="M535 145.531C534.234 145.531 533.641 144.938 533.656 144.156V126.156C533.641 125.406 534.266 124.797 535 124.781C535.734 124.797 536.359 125.406 536.375 126.156V140.812L556.062 121.219C556.672 120.641 557.438 120.703 557.969 121.219C558.531 121.797 558.5 122.562 557.969 123.094L538.344 142.781H553C553.766 142.797 554.359 143.406 554.375 144.156C554.359 144.938 553.766 145.531 553 145.531H535ZM593.4 145.531C592.666 145.531 592.041 144.938 592.056 144.156C592.041 143.406 592.666 142.797 593.4 142.781H608.119L588.463 123.094C587.869 122.5 587.931 121.734 588.463 121.188C589.041 120.641 589.838 120.703 590.369 121.219L610.056 140.812V126.156C610.041 125.406 610.666 124.797 611.4 124.781C612.166 124.797 612.806 125.406 612.806 126.156V144.156C612.806 144.938 612.166 145.531 611.4 145.531H593.4ZM640.863 137.094C640.269 136.5 640.331 135.734 640.863 135.188C641.441 134.641 642.238 134.703 642.769 135.219L653.456 145.812V117.156C653.441 116.406 654.066 115.797 654.8 115.781C655.566 115.797 656.206 116.406 656.206 117.156V145.812L666.863 135.219C667.472 134.641 668.238 134.703 668.769 135.219C669.331 135.797 669.3 136.562 668.769 137.094L655.769 150.094C655.238 150.641 654.472 150.703 653.863 150.094L640.863 137.094ZM692.262 134.094C691.7 133.531 691.7 132.797 692.262 132.219L705.262 119.219C705.872 118.641 706.637 118.703 707.169 119.219C707.731 119.797 707.7 120.562 707.169 121.094L696.544 131.781H725.2C725.966 131.797 726.606 132.406 726.606 133.156C726.606 133.938 725.966 134.531 725.2 134.531H696.544L707.169 145.219C707.637 145.703 707.762 146.5 707.169 147.094C706.606 147.672 705.841 147.672 705.262 147.094L692.262 134.094ZM745.663 134.094C745.1 133.531 745.1 132.797 745.663 132.219L755.663 122.219C756.272 121.641 757.038 121.703 757.569 122.219C758.1 122.797 758.1 123.562 757.569 124.094L749.944 131.781H777.319L769.663 124.094C769.194 123.641 769.038 122.828 769.663 122.188C770.272 121.641 771.038 121.703 771.569 122.219L781.569 132.219C782.1 132.766 782.131 133.531 781.569 134.094L771.569 144.094C771.038 144.641 770.241 144.703 769.663 144.125C769.131 143.594 769.1 142.797 769.663 142.219L777.319 134.531H749.944L757.569 142.219C758.038 142.703 758.163 143.5 757.569 144.094C757.006 144.672 756.241 144.672 755.663 144.094L745.663 134.094ZM820.062 147.125C819.562 146.641 819.469 145.828 820.062 145.219L830.719 134.531H802C801.266 134.531 800.641 133.938 800.656 133.156C800.641 132.406 801.266 131.797 802 131.781H830.719L820.062 121.094C819.469 120.5 819.531 119.734 820.062 119.188C820.672 118.641 821.438 118.703 821.969 119.219L834.969 132.219C835.5 132.766 835.531 133.531 834.969 134.094L821.969 147.094C821.438 147.641 820.641 147.703 820.062 147.125ZM882.462 145.094L862.775 125.5V140.156C862.759 140.938 862.134 141.531 861.4 141.531C860.666 141.531 860.041 140.938 860.056 140.156V122.156C860.041 121.406 860.634 120.797 861.4 120.781H879.4C880.166 120.797 880.759 121.406 880.775 122.156C880.759 122.938 880.166 123.531 879.4 123.531H864.744L884.369 143.219C884.869 143.734 884.931 144.531 884.369 145.094C883.806 145.703 882.994 145.641 882.462 145.094ZM914.862 145.125C914.331 144.594 914.3 143.797 914.862 143.219L934.519 123.531H919.8C919.066 123.531 918.441 122.938 918.456 122.156C918.441 121.406 919.066 120.797 919.8 120.781H937.8C938.566 120.797 939.206 121.406 939.206 122.156V140.156C939.206 140.938 938.566 141.531 937.8 141.531C937.066 141.531 936.441 140.938 936.456 140.156V125.5L916.769 145.094C916.237 145.641 915.441 145.703 914.862 145.125ZM546 198.531C545.266 198.531 544.641 197.938 544.656 197.156V168.5L533.969 179.094C533.438 179.641 532.641 179.703 532.062 179.125C531.594 178.672 531.438 177.859 532.062 177.219L545.062 164.219C545.594 163.703 546.359 163.641 546.969 164.219L559.969 177.219C560.5 177.766 560.531 178.531 559.969 179.094C559.406 179.703 558.594 179.641 558.062 179.094L547.406 168.5V197.156C547.406 197.938 546.766 198.531 546 198.531ZM589.463 189.094C588.869 188.5 588.931 187.734 589.463 187.188C590.041 186.641 590.838 186.703 591.369 187.219L599.056 194.812V167.5L591.369 175.094C590.838 175.641 590.041 175.703 589.463 175.125C588.994 174.672 588.838 173.859 589.463 173.219L599.463 163.219C599.994 162.703 600.759 162.641 601.369 163.219L611.369 173.219C611.9 173.766 611.931 174.531 611.369 175.094C610.806 175.703 609.994 175.641 609.463 175.094L601.806 167.5V194.812L609.463 187.219C610.072 186.641 610.838 186.703 611.369 187.219C611.931 187.797 611.9 188.562 611.369 189.094L601.369 199.094C600.838 199.641 600.072 199.703 599.463 199.094L589.463 189.094ZM650.988 192.031C650.628 192.031 650.269 191.828 650.05 191.594L639.613 181.156C639.003 180.562 639.066 179.797 639.613 179.25C640.159 178.703 640.941 178.703 641.519 179.25L650.956 188.656L668.081 170.688C668.597 170.141 669.441 170.141 670.019 170.656C670.503 171.172 670.628 172 670.05 172.625L652.019 191.625C651.738 191.906 651.441 192.031 650.988 192.031ZM709.2 200.531C698.559 200.531 689.841 191.828 689.856 181.156C689.841 170.5 698.559 161.797 709.2 161.781C719.872 161.797 728.559 170.531 728.575 181.156C728.559 191.797 719.872 200.531 709.2 200.531ZM709.2 197.781C718.341 197.797 725.841 190.266 725.856 181.156C725.841 172.062 718.341 164.531 709.2 164.531C700.106 164.531 692.559 172.031 692.575 181.156C692.559 190.297 700.106 197.797 709.2 197.781ZM763.6 200.531C752.959 200.531 744.241 191.828 744.256 181.156C744.241 170.5 752.959 161.797 763.6 161.781C774.272 161.797 782.959 170.531 782.975 181.156C782.959 191.797 774.272 200.531 763.6 200.531ZM803.562 195.625C803.031 195.094 803 194.297 803.562 193.719L816.062 181.156L803.562 168.594C802.969 168 803.031 167.234 803.562 166.688C804.141 166.141 804.938 166.203 805.469 166.719L818 179.188L830.562 166.719C831.172 166.141 831.938 166.203 832.469 166.719C833.031 167.297 833 168.062 832.469 168.594L819.969 181.156L832.469 193.719C832.938 194.203 833.062 195 832.469 195.594C831.906 196.203 831.094 196.141 830.562 195.594L818 183.094L805.469 195.594C804.938 196.141 804.141 196.203 803.562 195.625ZM872.4 199.125C871.697 199.141 870.994 198.938 870.4 198.312L856.275 184.031C853.994 181.734 853.041 178.797 853.056 175.969C853.041 169.766 857.759 164.5 864.15 164.5C867.103 164.5 870.197 165.734 872.4 168.281C874.494 165.859 877.541 164.5 880.712 164.5C887.041 164.5 891.759 169.766 891.775 175.969C891.759 178.766 890.837 181.703 888.556 184.031L874.4 198.312C873.9 198.828 873.197 199.141 872.4 199.125ZM886.556 182.094C888.259 180.328 889.041 178.031 889.056 175.906C889.041 171.266 885.431 167.266 880.712 167.25C878.228 167.266 875.759 168.359 874.15 170.562C873.369 171.594 873.259 172.031 872.4 172.031C871.462 172.031 871.134 171.266 870.681 170.625C869.041 168.406 866.572 167.266 864.119 167.25C859.306 167.266 855.759 171.297 855.775 175.906C855.759 178.141 856.603 180.406 858.275 182.094L872.4 196.438L886.556 182.094ZM926.8 199.125C926.097 199.141 925.394 198.938 924.8 198.312L910.675 184.031C908.394 181.734 907.441 178.797 907.456 175.969C907.441 169.766 912.159 164.5 918.55 164.5C921.503 164.5 924.597 165.734 926.8 168.281C928.894 165.859 931.941 164.5 935.112 164.5C941.441 164.5 946.159 169.766 946.175 175.969C946.159 178.766 945.237 181.703 942.956 184.031L928.8 198.312C928.3 198.828 927.597 199.141 926.8 199.125ZM535.219 246.531C530.641 246.531 528.641 244.531 528.656 239.969V218.344C528.641 213.797 530.641 211.797 535.219 211.781H556.812C561.359 211.797 563.359 213.797 563.375 218.344V239.969C563.359 244.531 561.359 246.531 556.812 246.531H535.219ZM556.812 243.781C559.969 243.797 560.641 243.172 560.656 239.969V218.344C560.641 215.203 559.969 214.531 556.812 214.531H535.219C532 214.531 531.359 215.203 531.375 218.344V239.969C531.359 243.172 532 243.797 535.219 243.781H556.812ZM589.619 246.531C585.041 246.531 583.041 244.531 583.056 239.969V218.344C583.041 213.797 585.041 211.797 589.619 211.781H611.213C615.759 211.797 617.759 213.797 617.775 218.344V239.969C617.759 244.531 615.759 246.531 611.213 246.531H589.619ZM646.175 247.031C641.972 248.906 641.066 247.297 641.456 243.562L642.363 234.156L636.081 227.125C633.472 224.234 633.941 222.469 637.863 221.625L647.144 219.656L651.863 211.438C653.034 209.406 653.628 208.797 654.8 208.781C655.972 208.797 656.566 209.406 657.738 211.438L662.488 219.656L671.738 221.625C675.363 222.406 676.331 224 673.55 227.125L667.238 234.156L668.175 243.562C668.534 247.297 667.628 248.906 663.456 247.031L654.8 243.188L646.175 247.031ZM653.488 240.781C654.003 240.562 654.394 240.438 654.8 240.438C655.206 240.438 655.597 240.562 656.144 240.781L665.269 244.781C665.394 244.859 665.534 244.969 665.519 244.625L664.488 234.75C664.363 233.766 664.331 233.234 665.331 232.125L672.019 224.688C672.128 224.562 672.003 224.5 671.831 224.469L662.206 222.312C661.097 222.094 660.597 221.859 659.988 220.75L654.956 212.062C654.894 212 654.863 211.938 654.8 211.938C654.738 211.938 654.659 212 654.644 212.062L649.644 220.75C648.972 221.938 648.441 222.094 647.394 222.312L637.769 224.469C637.534 224.531 637.503 224.594 637.613 224.688L644.269 232.125C645.269 233.266 645.238 233.859 645.144 234.75L644.113 244.625C644.066 244.969 644.128 244.859 644.331 244.781L653.488 240.781ZM700.575 247.031C696.372 248.906 695.466 247.297 695.856 243.562L696.762 234.156L690.481 227.125C687.872 224.234 688.341 222.469 692.262 221.625L701.544 219.656L706.262 211.438C707.434 209.406 708.028 208.797 709.2 208.781C710.372 208.797 710.966 209.406 712.137 211.438L716.887 219.656L726.137 221.625C729.762 222.406 730.731 224 727.95 227.125L721.637 234.156L722.575 243.562C722.934 247.297 722.028 248.906 717.856 247.031L709.2 243.188L700.575 247.031ZM750.6 246.531C747.772 246.531 746.038 245.797 744.913 243.781C743.772 241.797 744.069 239.906 745.444 237.562L758.444 215.344C759.803 213.031 761.303 211.797 763.6 211.781C765.928 211.797 767.428 213.031 768.819 215.344L781.819 237.562C783.272 240.062 783.397 241.969 782.288 243.906C781.069 245.938 779.194 246.531 776.6 246.531H750.6ZM763.6 240.438C762.272 240.438 761.194 239.328 761.194 238.031C761.194 236.672 762.272 235.641 763.6 235.625C764.959 235.641 766.006 236.703 766.006 238.031C766.006 239.328 764.928 240.438 763.6 240.438ZM776.6 243.781C778.772 243.797 779.428 243.438 779.975 242.438C780.428 241.562 780.506 240.797 779.444 238.969L766.444 216.75C765.397 215 764.741 214.531 763.6 214.531C762.506 214.531 761.834 215 760.819 216.75L747.819 238.969C746.803 240.703 746.741 241.5 747.319 242.5C747.866 243.5 748.6 243.797 750.6 243.781H776.6ZM761.944 233.281V221.625H765.288V233.281H761.944ZM805 246.531C802.172 246.531 800.438 245.797 799.312 243.781C798.172 241.797 798.469 239.906 799.844 237.562L812.844 215.344C814.203 213.031 815.703 211.797 818 211.781C820.328 211.797 821.828 213.031 823.219 215.344L836.219 237.562C837.672 240.062 837.797 241.969 836.688 243.906C835.469 245.938 833.594 246.531 831 246.531H805ZM818 239.906C819.328 239.906 820.406 238.797 820.406 237.5C820.406 236.172 819.359 235.094 818 235.094C816.672 235.094 815.594 236.141 815.594 237.5C815.594 238.797 816.672 239.906 818 239.906ZM816.344 232.906H819.688V222.438H816.344V232.906Z" fill="#0066FF"/>
</svg>
