<svg width="1012" height="177" viewBox="0 0 1012 177" fill="none" xmlns="http://www.w3.org/2000/svg">
<rect x="0.5" y="0.5" width="1011" height="176" rx="15.5" stroke="#70737C" stroke-opacity="0.28"/>
<rect x="32" y="32" width="52" height="24" rx="4" fill="#70737C" fill-opacity="0.22"/>
<path d="M46.9141 43.7969H45.1328C44.9844 42.8203 44.3047 42.2812 43.3125 42.2812C42.0312 42.2812 41.3281 43.2031 41.3281 44.8828V45.5391C41.3281 47.2188 42.0312 48.1406 43.3125 48.1406C44.3125 48.1406 44.9766 47.625 45.1328 46.6797H46.9141C46.7188 48.5938 45.4141 49.6719 43.3281 49.6719C40.8828 49.6719 39.5 48.25 39.5 45.7031V44.7188C39.5 42.1797 40.8828 40.75 43.3281 40.75C45.4219 40.75 46.7109 41.8359 46.9141 43.7969ZM52.0156 49.6406C50.3906 49.6406 49.3047 48.6094 49.3047 47.0625C49.3047 45.5312 50.4141 44.625 52.4609 44.5L54.6016 44.375V43.6562C54.6016 42.7734 54.0312 42.2734 53.0312 42.2734C52.1953 42.2734 51.5859 42.6328 51.3984 43.2578H49.6172C49.7734 41.7812 51.1562 40.8047 53.0781 40.8047C55.1953 40.8047 56.3984 41.8438 56.3984 43.6719V49.5H54.6719V48.3047H54.5078C54.0938 49.1562 53.1797 49.6406 52.0156 49.6406ZM52.6016 48.1562C53.7578 48.1562 54.6016 47.4141 54.6016 46.3828V45.6016L52.7344 45.7031C51.6641 45.7656 51.1094 46.1953 51.1094 46.9531C51.1094 47.6953 51.6875 48.1562 52.6016 48.1562ZM59.6172 43.3672C59.6172 41.7734 60.9297 40.7578 62.9531 40.7578C64.9141 40.7578 66.1562 41.6641 66.2734 43.2031H64.5547C64.4297 42.5625 63.8125 42.1641 62.9297 42.1641C62.0156 42.1641 61.4141 42.5859 61.4141 43.2266C61.4141 43.7734 61.8047 44.0859 62.7344 44.2891L64.0078 44.5625C65.7188 44.9297 66.4766 45.6562 66.4766 46.9375C66.4766 48.6016 65.1094 49.6719 62.9609 49.6719C60.8672 49.6719 59.5391 48.7422 59.4141 47.1953H61.2188C61.375 47.8672 62.0234 48.25 62.9922 48.25C63.9844 48.25 64.6094 47.8125 64.6094 47.1484C64.6094 46.5859 64.25 46.2969 63.2734 46.0859L61.9922 45.8047C60.4141 45.4531 59.6172 44.6406 59.6172 43.3672ZM72.9297 42.2109C71.7031 42.2109 70.9688 43.0469 70.9688 44.4453H74.8438C74.8438 43.0547 74.125 42.2109 72.9297 42.2109ZM74.8672 47.1797H76.5938C76.3906 48.6484 74.9375 49.6719 73.0234 49.6719C70.5859 49.6719 69.1797 48.2734 69.1797 45.8359V44.5C69.1797 42.2578 70.6875 40.7734 72.9609 40.7734C75.2109 40.7734 76.6094 42.25 76.6094 44.625V45.6641H70.9688V46.0781C70.9688 47.3828 71.7734 48.2266 73.0156 48.2266C73.9609 48.2266 74.6875 47.8125 74.8672 47.1797Z" fill="white"/>
<rect x="32" y="88" width="948" height="1" fill="#70737C" fill-opacity="0.28"/>
<path d="M33.875 125.875C35.6562 124.812 37.4375 123.5 39.3125 121.875H42V144.5H39.3125V125.344H39.1875C37.4531 126.719 35.6406 127.922 33.875 128.844V125.875ZM63.875 134.781V137.344H57.125V144.188H54.375V137.344H47.625V134.781H54.375V127.938H57.125V134.781H63.875ZM67.75 141.938C75.75 136.469 79.4062 132.188 79.4062 128.375C79.4062 125.594 77.5312 124 74.8438 124C72.75 124 71.2188 124.969 70.375 127.75L67.75 127C68.9375 123.094 71.5938 121.438 74.8438 121.438C78.9688 121.438 82.1562 124.094 82.1562 128.375C82.1562 132.781 78.4375 137.109 72.1562 141.812V141.938H82.5V144.5H67.75V141.938ZM102.625 134.781V137.344H86.375V134.781H102.625ZM114.25 144.938C110.5 144.938 107.75 143.031 106.125 139.656L108.594 138.531C109.844 141.125 111.719 142.375 114.25 142.375C117.281 142.375 119.5 140.594 119.5 138.125C119.5 135.5 117 133.906 112.875 133.906H112.125V131.344H112.875C116.469 131.344 118.594 130 118.594 127.688C118.594 125.531 116.75 124 114.188 124C112 124 110.281 125.125 109.25 127.25L106.781 126.125C108.281 123.031 111 121.438 114.188 121.438C118.281 121.438 121.344 124.094 121.344 127.625C121.344 130.094 119.844 131.781 117.062 132.562V132.656C120.359 133.547 122.25 135.531 122.25 138.312C122.25 142.094 118.812 144.938 114.25 144.938ZM141.438 141.812L139.625 143.625L133.875 137.875L128.125 143.625L126.312 141.812L132.062 136.062L126.312 130.312L128.125 128.5L133.875 134.25L139.625 128.5L141.438 130.312L135.688 136.062L141.438 141.812ZM145.375 139.406V136.844L154.156 121.875H157.219L148.594 136.625V136.844H156.531V129.75H159.219V136.844H162.75V139.406H159.219V144.5H156.531V139.406H145.375ZM182 134.781V137.344H165.75V134.781H182ZM173.844 131.812C172.719 131.812 171.906 131 171.906 129.875C171.906 128.75 172.719 127.938 173.844 127.938C174.969 127.938 175.781 128.75 175.781 129.875C175.781 131 174.969 131.812 173.844 131.812ZM173.844 144.188C172.719 144.188 171.906 143.375 171.906 142.25C171.906 141.125 172.719 140.312 173.844 140.312C174.969 140.312 175.781 141.125 175.781 142.25C175.781 143.375 174.969 144.188 173.844 144.188ZM186.281 134.906L187.469 121.844H200.125V124.406H190L189.25 132.219H189.375C190.594 130.719 192.406 129.812 194.5 129.812C198.438 129.812 201.625 133.031 201.625 137.375C201.625 141.812 198.312 144.938 193.625 144.938C190.031 144.938 187.156 143.062 185.5 139.656L187.969 138.531C189.219 141.125 191.125 142.375 193.625 142.375C196.781 142.375 198.875 140.375 198.875 137.375C198.875 134.375 196.781 132.375 193.656 132.375C191.5 132.375 189.828 133.328 189 134.906H186.281ZM221.375 131.188V133.75H205.125V131.188H221.375ZM221.375 138.375V140.938H205.125V138.375H221.375ZM225.344 144.5V128.375H227.969V130.719H228.094C228.875 129 230.609 127.938 232.906 127.938C236.5 127.938 238.469 130.469 238.469 134.625V144.5H235.844V135C235.844 132.031 234.594 130.438 232.344 130.438C230.094 130.438 227.969 132.031 227.969 135.5V144.5H225.344ZM250.656 144.5V128.375H253.281V130.719H253.406C254.188 129 255.922 127.938 258.219 127.938C261.812 127.938 263.781 130.469 263.781 134.625V144.5H261.156V135C261.156 132.031 259.906 130.438 257.656 130.438C255.406 130.438 253.281 132.031 253.281 135.5V144.5H250.656ZM283.5 137.531L268.25 144.156V141.281L280.5 136.062L268.25 130.844V127.969L283.5 134.594V137.531ZM295.875 144.938C290.719 144.938 287.5 140.406 287.5 133.188C287.5 125.969 290.719 121.438 295.875 121.438C301.031 121.438 304.25 125.969 304.25 133.188C304.25 140.406 301.031 144.938 295.875 144.938ZM295.875 142.375C299.312 142.375 301.5 138.812 301.5 133.188C301.5 127.562 299.312 124 295.875 124C292.438 124 290.25 127.562 290.25 133.188C290.25 138.812 292.438 142.375 295.875 142.375ZM323.875 144.938C318.719 144.938 315.5 140.406 315.5 133.188C315.5 125.969 318.719 121.438 323.875 121.438C329.031 121.438 332.25 125.969 332.25 133.188C332.25 140.406 329.031 144.938 323.875 144.938ZM323.875 142.375C327.312 142.375 329.5 138.812 329.5 133.188C329.5 127.562 327.312 124 323.875 124C320.438 124 318.25 127.562 318.25 133.188C318.25 138.812 320.438 142.375 323.875 142.375ZM346.969 138.688C343.844 138.688 342.75 136.125 340.781 136.125C339.938 136.125 339.188 136.594 337.688 138.375L335.625 136.656C337.5 134.438 338.875 133.438 340.781 133.438C343.906 133.438 345 136 346.969 136C347.812 136 348.562 135.531 350.062 133.75L352.125 135.469C350.25 137.688 348.875 138.688 346.969 138.688ZM354.25 125.875C356.031 124.812 357.812 123.5 359.688 121.875H362.375V144.5H359.688V125.344H359.562C357.828 126.719 356.016 127.922 354.25 128.844V125.875Z" fill="#B0B0B0" fill-opacity="0.28"/>
<path d="M845 125.875C846.781 124.812 848.562 123.5 850.438 121.875H853.125V144.5H850.438V125.344H850.312C848.578 126.719 846.766 127.922 845 128.844V125.875Z" fill="white"/>
<path d="M836.969 135.812C833.844 135.812 832.75 133.25 830.781 133.25C829.938 133.25 829.188 133.719 827.688 135.5L825.625 133.781C827.5 131.562 828.875 130.562 830.781 130.562C833.906 130.562 835 133.125 836.969 133.125C837.812 133.125 838.562 132.656 840.062 130.875L842.125 132.594C840.25 134.812 838.875 135.812 836.969 135.812Z" fill="#2288FF"/>
<path d="M813.875 144.938C808.719 144.938 805.5 140.406 805.5 133.188C805.5 125.969 808.719 121.438 813.875 121.438C819.031 121.438 822.25 125.969 822.25 133.188C822.25 140.406 819.031 144.938 813.875 144.938ZM813.875 142.375C817.312 142.375 819.5 138.812 819.5 133.188C819.5 127.562 817.312 124 813.875 124C810.438 124 808.25 127.562 808.25 133.188C808.25 138.812 810.438 142.375 813.875 142.375Z" fill="white"/>
<path d="M785.875 144.938C780.719 144.938 777.5 140.406 777.5 133.188C777.5 125.969 780.719 121.438 785.875 121.438C791.031 121.438 794.25 125.969 794.25 133.188C794.25 140.406 791.031 144.938 785.875 144.938ZM785.875 142.375C789.312 142.375 791.5 138.812 791.5 133.188C791.5 127.562 789.312 124 785.875 124C782.438 124 780.25 127.562 780.25 133.188C780.25 138.812 782.438 142.375 785.875 142.375Z" fill="white"/>
<path d="M773.5 134.656L758.25 141.281V138.406L770.5 133.188L758.25 127.969V125.094L773.5 131.719V134.656Z" fill="#2288FF"/>
<path d="M740.656 144.5V128.375H743.281V130.719H743.406C744.188 129 745.922 127.938 748.219 127.938C751.812 127.938 753.781 130.469 753.781 134.625V144.5H751.156V135C751.156 132.031 749.906 130.438 747.656 130.438C745.406 130.438 743.281 132.031 743.281 135.5V144.5H740.656Z" fill="white"/>
<path d="M715.344 144.5V128.375H717.969V130.719H718.094C718.875 129 720.609 127.938 722.906 127.938C726.5 127.938 728.469 130.469 728.469 134.625V144.5H725.844V135C725.844 132.031 724.594 130.438 722.344 130.438C720.094 130.438 717.969 132.031 717.969 135.5V144.5H715.344Z" fill="white"/>
<path d="M711.375 128.312V130.875H695.125V128.312H711.375ZM711.375 135.5V138.062H695.125V135.5H711.375Z" fill="#2288FF"/>
<path d="M676.281 134.906L677.469 121.844H690.125V124.406H680L679.25 132.219H679.375C680.594 130.719 682.406 129.812 684.5 129.812C688.438 129.812 691.625 133.031 691.625 137.375C691.625 141.812 688.312 144.938 683.625 144.938C680.031 144.938 677.156 143.062 675.5 139.656L677.969 138.531C679.219 141.125 681.125 142.375 683.625 142.375C686.781 142.375 688.875 140.375 688.875 137.375C688.875 134.375 686.781 132.375 683.656 132.375C681.5 132.375 679.828 133.328 679 134.906H676.281Z" fill="white"/>
<path d="M672 131.906V134.469H655.75V131.906H672ZM663.844 128.938C662.719 128.938 661.906 128.125 661.906 127C661.906 125.875 662.719 125.062 663.844 125.062C664.969 125.062 665.781 125.875 665.781 127C665.781 128.125 664.969 128.938 663.844 128.938ZM663.844 141.312C662.719 141.312 661.906 140.5 661.906 139.375C661.906 138.25 662.719 137.438 663.844 137.438C664.969 137.438 665.781 138.25 665.781 139.375C665.781 140.5 664.969 141.312 663.844 141.312Z" fill="#2288FF"/>
<path d="M635.375 139.406V136.844L644.156 121.875H647.219L638.594 136.625V136.844H646.531V129.75H649.219V136.844H652.75V139.406H649.219V144.5H646.531V139.406H635.375Z" fill="white"/>
<path d="M631.438 138.938L629.625 140.75L623.875 135L618.125 140.75L616.312 138.938L622.062 133.188L616.312 127.438L618.125 125.625L623.875 131.375L629.625 125.625L631.438 127.438L625.688 133.188L631.438 138.938Z" fill="#2288FF"/>
<path d="M604.25 144.938C600.5 144.938 597.75 143.031 596.125 139.656L598.594 138.531C599.844 141.125 601.719 142.375 604.25 142.375C607.281 142.375 609.5 140.594 609.5 138.125C609.5 135.5 607 133.906 602.875 133.906H602.125V131.344H602.875C606.469 131.344 608.594 130 608.594 127.688C608.594 125.531 606.75 124 604.188 124C602 124 600.281 125.125 599.25 127.25L596.781 126.125C598.281 123.031 601 121.438 604.188 121.438C608.281 121.438 611.344 124.094 611.344 127.625C611.344 130.094 609.844 131.781 607.062 132.562V132.656C610.359 133.547 612.25 135.531 612.25 138.312C612.25 142.094 608.812 144.938 604.25 144.938Z" fill="white"/>
<path d="M592.625 131.906V134.469H576.375V131.906H592.625Z" fill="#2288FF"/>
<path d="M557.75 141.938C565.75 136.469 569.406 132.188 569.406 128.375C569.406 125.594 567.531 124 564.844 124C562.75 124 561.219 124.969 560.375 127.75L557.75 127C558.938 123.094 561.594 121.438 564.844 121.438C568.969 121.438 572.156 124.094 572.156 128.375C572.156 132.781 568.438 137.109 562.156 141.812V141.938H572.5V144.5H557.75V141.938Z" fill="white"/>
<path d="M553.875 131.906V134.469H547.125V141.312H544.375V134.469H537.625V131.906H544.375V125.062H547.125V131.906H553.875Z" fill="#2288FF"/>
<path d="M523.875 125.875C525.656 124.812 527.438 123.5 529.312 121.875H532V144.5H529.312V125.344H529.188C527.453 126.719 525.641 127.922 523.875 128.844V125.875Z" fill="white"/>
</svg>
