<svg width="1012" height="177" viewBox="0 0 1012 177" fill="none" xmlns="http://www.w3.org/2000/svg">
<rect x="0.5" y="0.5" width="1011" height="176" rx="15.5" stroke="#70737C" stroke-opacity="0.28"/>
<rect x="32" y="32" width="52" height="24" rx="4" fill="#70737C" fill-opacity="0.22"/>
<path d="M46.9141 43.7969H45.1328C44.9844 42.8203 44.3047 42.2812 43.3125 42.2812C42.0312 42.2812 41.3281 43.2031 41.3281 44.8828V45.5391C41.3281 47.2188 42.0312 48.1406 43.3125 48.1406C44.3125 48.1406 44.9766 47.625 45.1328 46.6797H46.9141C46.7188 48.5938 45.4141 49.6719 43.3281 49.6719C40.8828 49.6719 39.5 48.25 39.5 45.7031V44.7188C39.5 42.1797 40.8828 40.75 43.3281 40.75C45.4219 40.75 46.7109 41.8359 46.9141 43.7969ZM56.8047 43.7969H55.0234C54.875 42.8203 54.1953 42.2812 53.2031 42.2812C51.9219 42.2812 51.2188 43.2031 51.2188 44.8828V45.5391C51.2188 47.2188 51.9219 48.1406 53.2031 48.1406C54.2031 48.1406 54.8672 47.625 55.0234 46.6797H56.8047C56.6094 48.5938 55.3047 49.6719 53.2188 49.6719C50.7734 49.6719 49.3906 48.25 49.3906 45.7031V44.7188C49.3906 42.1797 50.7734 40.75 53.2188 40.75C55.3125 40.75 56.6016 41.8359 56.8047 43.7969ZM67.1875 43V49.5H65.625V43.5781C65.625 42.7969 65.2891 42.3516 64.7109 42.3516C64.1094 42.3516 63.7344 42.8594 63.7344 43.6641V49.5H62.1797V43.5781C62.1797 42.7891 61.8516 42.3516 61.2656 42.3516C60.6562 42.3516 60.2656 42.8594 60.2656 43.6641V49.5H58.7031V40.9453H60.2969V42.2266H60.4922C60.6875 41.2969 61.2891 40.7734 62.1094 40.7734C62.9062 40.7734 63.4531 41.2812 63.6328 42.1797H63.8281C64.0234 41.3047 64.6562 40.7734 65.4922 40.7734C66.6016 40.7734 67.1875 41.5469 67.1875 43ZM73.625 40.8047C75.5938 40.8047 76.8125 42.1875 76.8125 44.4609V45.9844C76.8125 48.2656 75.5938 49.6484 73.625 49.6484C72.3906 49.6484 71.5156 49.0859 71.1953 48.1016H71.0391V52.3672H69.1641V40.9453H71.0078V42.3516H71.1641C71.5234 41.3516 72.3906 40.8047 73.625 40.8047ZM72.9766 42.3984C71.7578 42.3984 71 43.2344 71 44.5781V45.9219C71 47.2656 71.7578 48.1016 72.9766 48.1016C74.2031 48.1016 74.9609 47.2578 74.9609 45.9219V44.5781C74.9609 43.2344 74.2031 42.3984 72.9766 42.3984Z" fill="white"/>
<rect x="32" y="88" width="948" height="1" fill="#70737C" fill-opacity="0.28"/>
<path d="M46.6562 146.344C39.3906 146.359 33.4531 140.438 33.4688 133.156C33.4531 125.906 39.3906 119.969 46.6562 119.969C53.9219 119.969 59.8594 125.906 59.875 133.156C59.8594 140.438 53.9219 146.359 46.6562 146.344ZM46.6562 143.969C52.5938 143.969 57.4531 139.094 57.4688 133.156C57.4531 127.234 52.5938 122.359 46.6562 122.344C40.7188 122.359 35.8594 127.234 35.875 133.156C35.8594 139.094 40.7188 143.969 46.6562 143.969ZM68.4375 144.5L61.1875 121.875H64.125L70.1562 141.375H70.25L75.5312 121.875H78.4688L83.75 141.375H83.8438L89.875 121.875H92.8125L85.5625 144.5H81.9375L77.0625 127.438H76.9375L72.0625 144.5H68.4375ZM101 145.031C97.7812 145.031 96.3281 143.562 96.3438 140.344V125.969C96.3281 122.766 97.7812 121.297 101 121.281H115.406C118.594 121.297 120.047 122.766 120.062 125.969V140.344C120.047 143.562 118.594 145.031 115.406 145.031H101ZM115.406 142.625C117.25 142.641 117.656 142.234 117.656 140.344V125.969C117.656 124.094 117.25 123.703 115.406 123.688H101C99.125 123.703 98.7188 124.094 98.7188 125.969V140.344C98.7188 142.234 99.125 142.641 101 142.625H115.406ZM132.625 144.938C128.875 144.938 126.125 143.031 124.5 139.656L126.969 138.531C128.219 141.125 130.094 142.375 132.625 142.375C135.656 142.375 137.875 140.594 137.875 138.125C137.875 135.5 135.375 133.906 131.25 133.906H130.5V131.344H131.25C134.844 131.344 136.969 130 136.969 127.688C136.969 125.531 135.125 124 132.562 124C130.375 124 128.656 125.125 127.625 127.25L125.156 126.125C126.656 123.031 129.375 121.438 132.562 121.438C136.656 121.438 139.719 124.094 139.719 127.625C139.719 130.094 138.219 131.781 135.438 132.562V132.656C138.734 133.547 140.625 135.531 140.625 138.312C140.625 142.094 137.188 144.938 132.625 144.938Z" fill="#B0B0B0" fill-opacity="0.28"/>
<path d="M536.656 146.344C529.391 146.359 523.453 140.438 523.469 133.156C523.453 125.906 529.391 119.969 536.656 119.969C543.922 119.969 549.859 125.906 549.875 133.156C549.859 140.438 543.922 146.359 536.656 146.344ZM536.656 143.969C542.594 143.969 547.453 139.094 547.469 133.156C547.453 127.234 542.594 122.359 536.656 122.344C530.719 122.359 525.859 127.234 525.875 133.156C525.859 139.094 530.719 143.969 536.656 143.969ZM532.656 139.125L529.562 127.25H531.875L533.844 135.625L535.688 127.25H537.625L539.5 135.625L541.438 127.25H543.75L540.688 139.125H538.406L536.688 131.406L534.938 139.125H532.656ZM558.812 145.031C555.594 145.031 554.141 143.562 554.156 140.344V125.969C554.141 122.766 555.594 121.297 558.812 121.281H573.219C576.406 121.297 577.859 122.766 577.875 125.969V140.344C577.859 143.562 576.406 145.031 573.219 145.031H558.812ZM573.219 142.625C575.062 142.641 575.469 142.234 575.469 140.344V125.969C575.469 124.094 575.062 123.703 573.219 123.688H558.812C556.938 123.703 556.531 124.094 556.531 125.969V140.344C556.531 142.234 556.938 142.641 558.812 142.625H573.219ZM566.031 139.344C563.906 139.344 562.25 138.375 561.469 136.375L563.469 135.688C563.969 136.906 564.844 137.469 566 137.469C567.375 137.469 568.344 136.656 568.344 135.594C568.344 134.438 567.219 133.75 565.406 133.75H565V132.062H565.406C566.969 132.062 567.938 131.5 567.938 130.5C567.938 129.562 567.125 128.906 565.969 128.906C564.906 128.906 564.156 129.469 563.781 130.438L561.781 129.781C562.5 127.938 564.062 127.031 566 127.031C568.344 127.031 570.094 128.375 570.094 130.25C570.094 131.516 569.297 132.406 567.875 132.844V132.938C569.562 133.422 570.531 134.438 570.531 135.875C570.531 137.875 568.625 139.344 566.031 139.344Z" fill="#3385FF"/>
</svg>
