<svg width="1012" height="648" viewBox="0 0 1012 648" fill="none" xmlns="http://www.w3.org/2000/svg">
<rect x="0.5" y="0.5" width="1011" height="647" rx="15.5" stroke="#70737C" stroke-opacity="0.28"/>
<rect x="32" y="32" width="52" height="24" rx="4" fill="#70737C" fill-opacity="0.22"/>
<path d="M46.9141 43.7969H45.1328C44.9844 42.8203 44.3047 42.2812 43.3125 42.2812C42.0312 42.2812 41.3281 43.2031 41.3281 44.8828V45.5391C41.3281 47.2188 42.0312 48.1406 43.3125 48.1406C44.3125 48.1406 44.9766 47.625 45.1328 46.6797H46.9141C46.7188 48.5938 45.4141 49.6719 43.3281 49.6719C40.8828 49.6719 39.5 48.25 39.5 45.7031V44.7188C39.5 42.1797 40.8828 40.75 43.3281 40.75C45.4219 40.75 46.7109 41.8359 46.9141 43.7969ZM48.9922 40.9453H50.9453L53.0156 47.6953H53.1406L55.1875 40.9453H57.1172L54.0859 49.5H52.0391L48.9922 40.9453ZM65.1484 43.1953L61 46.2578C61.3359 47.5078 62 48.1641 62.9531 48.1641C64.3906 48.1641 65.1641 46.6641 65.1641 43.8594C65.1641 43.625 65.1562 43.4062 65.1484 43.1953ZM60.75 44.5312L64.9062 41.4844C64.5703 40.2266 63.9062 39.5625 62.9531 39.5625C61.5078 39.5625 60.7344 41.0625 60.7344 43.8594C60.7344 44.0938 60.7422 44.3203 60.75 44.5312ZM62.9531 37.9844C65.5547 37.9844 67.0156 40.0938 67.0156 43.8594C67.0156 47.6328 65.5547 49.7422 62.9531 49.7422C60.3438 49.7422 58.8828 47.6328 58.8828 43.8594C58.8828 40.0938 60.3438 37.9844 62.9531 37.9844ZM74.1641 47.9141H77.1641V49.5H69.1641V47.9141H72.3125V40.1641H72.1797L69.1484 42.1562V40.3203L72.3203 38.2266H74.1641V47.9141Z" fill="white"/>
<path d="M108.352 57.8906C107.672 57.8906 107.109 57.75 106.664 57.5859V55.7344C107.18 55.8984 107.648 55.9688 108.07 55.9688C109.336 55.9688 109.945 55.3359 109.945 54.0469V40.4062H111.914V54.1172C111.914 56.4375 110.531 57.8906 108.352 57.8906ZM110.93 37.875C110.18 37.875 109.617 37.3125 109.617 36.5625C109.617 35.8125 110.18 35.25 110.93 35.25C111.68 35.25 112.242 35.8125 112.242 36.5625C112.242 37.3125 111.68 37.875 110.93 37.875Z" fill="#B0B0B0" fill-opacity="0.28"/>
<path d="M300.57 57.5625V40.4062H302.539V57.5625H300.57ZM301.531 37.875C300.781 37.875 300.219 37.3125 300.219 36.5625C300.219 35.8125 300.781 35.25 301.531 35.25C302.281 35.25 302.844 35.8125 302.844 36.5625C302.844 37.3125 302.281 37.875 301.531 37.875Z" fill="#3385FF"/>
<rect x="522" y="32" width="52" height="24" rx="4" fill="#70737C" fill-opacity="0.22"/>
<path d="M536.914 43.7969H535.133C534.984 42.8203 534.305 42.2812 533.312 42.2812C532.031 42.2812 531.328 43.2031 531.328 44.8828V45.5391C531.328 47.2188 532.031 48.1406 533.312 48.1406C534.312 48.1406 534.977 47.625 535.133 46.6797H536.914C536.719 48.5938 535.414 49.6719 533.328 49.6719C530.883 49.6719 529.5 48.25 529.5 45.7031V44.7188C529.5 42.1797 530.883 40.75 533.328 40.75C535.422 40.75 536.711 41.8359 536.914 43.7969ZM538.992 40.9453H540.945L543.016 47.6953H543.141L545.188 40.9453H547.117L544.086 49.5H542.039L538.992 40.9453ZM555.148 43.1953L551 46.2578C551.336 47.5078 552 48.1641 552.953 48.1641C554.391 48.1641 555.164 46.6641 555.164 43.8594C555.164 43.625 555.156 43.4062 555.148 43.1953ZM550.75 44.5312L554.906 41.4844C554.57 40.2266 553.906 39.5625 552.953 39.5625C551.508 39.5625 550.734 41.0625 550.734 43.8594C550.734 44.0938 550.742 44.3203 550.75 44.5312ZM552.953 37.9844C555.555 37.9844 557.016 40.0938 557.016 43.8594C557.016 47.6328 555.555 49.7422 552.953 49.7422C550.344 49.7422 548.883 47.6328 548.883 43.8594C548.883 40.0938 550.344 37.9844 552.953 37.9844ZM558.969 41.5312C558.969 39.4453 560.539 38 562.781 38C565.008 38 566.516 39.3047 566.516 41.2266C566.516 42.4297 565.914 43.4375 564.055 45.3203L561.672 47.75V47.8906H566.695V49.5H559.07V48.1953L562.797 44.3125C564.289 42.7422 564.672 42.1484 564.672 41.3359C564.672 40.2578 563.898 39.5547 562.727 39.5547C561.531 39.5547 560.742 40.3438 560.742 41.5234V41.5781H558.969V41.5312Z" fill="white"/>
<path d="M598.82 42.0469V40.4062H600.883V37.4062H602.852V40.4062H605.852V42.0469H602.852V48.9844C602.852 50.2969 603.414 50.9062 604.633 50.9062C605.008 50.9062 605.43 50.8359 605.852 50.7188V52.5703C605.477 52.7109 604.961 52.8281 604.352 52.8281C602.219 52.8281 600.883 51.375 600.883 49.0547V42.0469H598.82Z" fill="#B0B0B0" fill-opacity="0.28"/>
<path d="M789.914 42.0469V40.4062H791.977V37.4062H793.945V40.4062H796.758V42.0469H793.945V52.5H791.977V42.0469H789.914Z" fill="#3385FF"/>
<rect x="32" y="88" width="52" height="24" rx="4" fill="#70737C" fill-opacity="0.22"/>
<path d="M46.9141 99.7969H45.1328C44.9844 98.8203 44.3047 98.2812 43.3125 98.2812C42.0312 98.2812 41.3281 99.2031 41.3281 100.883V101.539C41.3281 103.219 42.0312 104.141 43.3125 104.141C44.3125 104.141 44.9766 103.625 45.1328 102.68H46.9141C46.7188 104.594 45.4141 105.672 43.3281 105.672C40.8828 105.672 39.5 104.25 39.5 101.703V100.719C39.5 98.1797 40.8828 96.75 43.3281 96.75C45.4219 96.75 46.7109 97.8359 46.9141 99.7969ZM48.9922 96.9453H50.9453L53.0156 103.695H53.1406L55.1875 96.9453H57.1172L54.0859 105.5H52.0391L48.9922 96.9453ZM65.1484 99.1953L61 102.258C61.3359 103.508 62 104.164 62.9531 104.164C64.3906 104.164 65.1641 102.664 65.1641 99.8594C65.1641 99.625 65.1562 99.4062 65.1484 99.1953ZM60.75 100.531L64.9062 97.4844C64.5703 96.2266 63.9062 95.5625 62.9531 95.5625C61.5078 95.5625 60.7344 97.0625 60.7344 99.8594C60.7344 100.094 60.7422 100.32 60.75 100.531ZM62.9531 93.9844C65.5547 93.9844 67.0156 96.0938 67.0156 99.8594C67.0156 103.633 65.5547 105.742 62.9531 105.742C60.3438 105.742 58.8828 103.633 58.8828 99.8594C58.8828 96.0938 60.3438 93.9844 62.9531 93.9844ZM71.4609 100.438V98.9844H72.7422C73.9219 98.9844 74.7188 98.2734 74.7188 97.2344C74.7188 96.2031 73.9453 95.5469 72.7656 95.5469C71.5859 95.5469 70.8125 96.2188 70.7266 97.3047H69C69.1094 95.2578 70.5625 94 72.8281 94C75.0078 94 76.5156 95.2109 76.5156 96.9609C76.5156 98.2969 75.7734 99.2734 74.5469 99.5469V99.6797C76.0625 99.8672 76.9688 100.883 76.9688 102.398C76.9688 104.359 75.2812 105.727 72.8672 105.727C70.5 105.727 68.8906 104.406 68.7891 102.367H70.5469C70.6406 103.43 71.5234 104.109 72.8203 104.109C74.2031 104.109 75.0781 103.406 75.0781 102.297C75.0781 101.164 74.1797 100.438 72.7812 100.438H71.4609Z" fill="white"/>
<path d="M114.961 106.953C117.258 106.953 118.898 105.102 118.898 102.453C118.898 99.8047 117.258 97.9531 114.961 97.9531C112.641 97.9531 111.023 99.8281 111.023 102.453C111.023 105.078 112.641 106.953 114.961 106.953ZM120.773 108.5H118.805V106.602H118.734C117.902 108.043 116.555 108.828 114.773 108.828C111.422 108.828 109.008 106.086 109.008 102.453C109.008 98.8203 111.422 96.0781 114.773 96.0781C116.555 96.0781 117.902 96.8633 118.734 98.3047H118.805V96.4062H120.773V108.5Z" fill="#B0B0B0" fill-opacity="0.28"/>
<path d="M304.32 108.828C301.953 108.828 300.195 107.141 300.195 104.984C300.195 102.828 301.953 101.211 305.117 101.047L308.352 100.859C308.316 98.8906 307.391 97.9531 305.492 97.9531C304.062 97.9531 303.125 98.4688 302.445 99.6875L300.688 98.75C301.695 96.9922 303.312 96.0781 305.492 96.0781C308.586 96.0781 310.367 97.9297 310.367 101V108.5H308.352V106.602H308.258C307.438 107.949 306.02 108.828 304.32 108.828ZM302.258 104.984C302.258 106.227 303.195 106.953 304.859 106.953C307.039 106.953 308.352 105.711 308.352 103.766V102.523L305.117 102.734C303.195 102.852 302.258 103.742 302.258 104.984Z" fill="#3385FF"/>
<rect x="522" y="88" width="52" height="24" rx="4" fill="#70737C" fill-opacity="0.22"/>
<path d="M536.914 99.7969H535.133C534.984 98.8203 534.305 98.2812 533.312 98.2812C532.031 98.2812 531.328 99.2031 531.328 100.883V101.539C531.328 103.219 532.031 104.141 533.312 104.141C534.312 104.141 534.977 103.625 535.133 102.68H536.914C536.719 104.594 535.414 105.672 533.328 105.672C530.883 105.672 529.5 104.25 529.5 101.703V100.719C529.5 98.1797 530.883 96.75 533.328 96.75C535.422 96.75 536.711 97.8359 536.914 99.7969ZM538.992 96.9453H540.945L543.016 103.695H543.141L545.188 96.9453H547.117L544.086 105.5H542.039L538.992 96.9453ZM555.148 99.1953L551 102.258C551.336 103.508 552 104.164 552.953 104.164C554.391 104.164 555.164 102.664 555.164 99.8594C555.164 99.625 555.156 99.4062 555.148 99.1953ZM550.75 100.531L554.906 97.4844C554.57 96.2266 553.906 95.5625 552.953 95.5625C551.508 95.5625 550.734 97.0625 550.734 99.8594C550.734 100.094 550.742 100.32 550.75 100.531ZM552.953 93.9844C555.555 93.9844 557.016 96.0938 557.016 99.8594C557.016 103.633 555.555 105.742 552.953 105.742C550.344 105.742 548.883 103.633 548.883 99.8594C548.883 96.0938 550.344 93.9844 552.953 93.9844ZM563.898 105.5V103.266H558.82V101.758L562.406 94.2266H564.32L560.82 101.578V101.703H563.945V98.7031H565.633V101.719H567.242V103.266H565.648V105.5H563.898Z" fill="white"/>
<path d="M609.414 96.4062V108.5H607.445V106.742H607.375C606.766 108.031 605.465 108.828 603.742 108.828C601.047 108.828 599.57 106.93 599.57 103.812V96.4062H601.539V103.531C601.539 105.758 602.477 106.953 604.164 106.953C605.852 106.953 607.445 105.758 607.445 103.156V96.4062H609.414Z" fill="#B0B0B0" fill-opacity="0.28"/>
<path d="M795.609 108.828C792.586 108.828 790.57 106.672 790.57 103.438V96.4062H792.586V103.438C792.586 105.57 793.758 106.906 795.609 106.906C797.461 106.906 798.633 105.57 798.633 103.438V96.4062H800.648V103.438C800.648 106.672 798.633 108.828 795.609 108.828Z" fill="#3385FF"/>
<rect x="32" y="144" width="52" height="24" rx="4" fill="#70737C" fill-opacity="0.22"/>
<path d="M46.9141 155.797H45.1328C44.9844 154.82 44.3047 154.281 43.3125 154.281C42.0312 154.281 41.3281 155.203 41.3281 156.883V157.539C41.3281 159.219 42.0312 160.141 43.3125 160.141C44.3125 160.141 44.9766 159.625 45.1328 158.68H46.9141C46.7188 160.594 45.4141 161.672 43.3281 161.672C40.8828 161.672 39.5 160.25 39.5 157.703V156.719C39.5 154.18 40.8828 152.75 43.3281 152.75C45.4219 152.75 46.7109 153.836 46.9141 155.797ZM48.9922 152.945H50.9453L53.0156 159.695H53.1406L55.1875 152.945H57.1172L54.0859 161.5H52.0391L48.9922 152.945ZM65.1484 155.195L61 158.258C61.3359 159.508 62 160.164 62.9531 160.164C64.3906 160.164 65.1641 158.664 65.1641 155.859C65.1641 155.625 65.1562 155.406 65.1484 155.195ZM60.75 156.531L64.9062 153.484C64.5703 152.227 63.9062 151.562 62.9531 151.562C61.5078 151.562 60.7344 153.062 60.7344 155.859C60.7344 156.094 60.7422 156.32 60.75 156.531ZM62.9531 149.984C65.5547 149.984 67.0156 152.094 67.0156 155.859C67.0156 159.633 65.5547 161.742 62.9531 161.742C60.3438 161.742 58.8828 159.633 58.8828 155.859C58.8828 152.094 60.3438 149.984 62.9531 149.984ZM72.7578 161.727C70.5078 161.727 68.9219 160.375 68.8359 158.383H70.6641C70.7891 159.398 71.6641 160.094 72.8203 160.094C74.125 160.094 75 159.188 75 157.836C75 156.477 74.1172 155.562 72.8203 155.562C71.9297 155.562 71.2266 155.945 70.8047 156.68H68.9922L69.5391 150.227H76.1406V151.836H71.0391L70.7656 155.117H70.8984C71.4062 154.43 72.2422 154.055 73.2734 154.055C75.3594 154.055 76.8047 155.586 76.8047 157.789C76.8047 160.148 75.1797 161.727 72.7578 161.727Z" fill="white"/>
<path d="M114.258 164.828C111.562 164.828 109.734 163.141 109.102 160.305L111.141 159.883C111.609 161.922 112.711 162.859 114.258 162.859C116.273 162.859 117.633 161.266 117.633 158.805V147.531H119.742V158.805C119.742 162.414 117.492 164.828 114.258 164.828Z" fill="#B0B0B0" fill-opacity="0.28"/>
<path d="M305.258 164.828C302.562 164.828 300.734 163.141 300.102 160.305L302.141 159.883C302.609 161.922 303.711 162.859 305.258 162.859C307.273 162.859 308.633 161.266 308.633 158.805V149.5H303.008V147.531H310.742V158.805C310.742 162.414 308.492 164.828 305.258 164.828Z" fill="#3385FF"/>
<rect x="522" y="144" width="52" height="24" rx="4" fill="#70737C" fill-opacity="0.22"/>
<path d="M536.914 155.797H535.133C534.984 154.82 534.305 154.281 533.312 154.281C532.031 154.281 531.328 155.203 531.328 156.883V157.539C531.328 159.219 532.031 160.141 533.312 160.141C534.312 160.141 534.977 159.625 535.133 158.68H536.914C536.719 160.594 535.414 161.672 533.328 161.672C530.883 161.672 529.5 160.25 529.5 157.703V156.719C529.5 154.18 530.883 152.75 533.328 152.75C535.422 152.75 536.711 153.836 536.914 155.797ZM538.992 152.945H540.945L543.016 159.695H543.141L545.188 152.945H547.117L544.086 161.5H542.039L538.992 152.945ZM555.148 155.195L551 158.258C551.336 159.508 552 160.164 552.953 160.164C554.391 160.164 555.164 158.664 555.164 155.859C555.164 155.625 555.156 155.406 555.148 155.195ZM550.75 156.531L554.906 153.484C554.57 152.227 553.906 151.562 552.953 151.562C551.508 151.562 550.734 153.062 550.734 155.859C550.734 156.094 550.742 156.32 550.75 156.531ZM552.953 149.984C555.555 149.984 557.016 152.094 557.016 155.859C557.016 159.633 555.555 161.742 552.953 161.742C550.344 161.742 548.883 159.633 548.883 155.859C548.883 152.094 550.344 149.984 552.953 149.984ZM567.008 157.789C567.008 160.055 565.266 161.727 562.914 161.727C560.492 161.727 558.805 160.078 558.805 157.703C558.805 156.359 559.266 155.125 560.375 153.539C560.633 153.148 562.594 150.492 562.805 150.227H564.953L562.023 154.18C561.68 154.648 561.641 154.719 561.562 154.883L561.703 154.914C562.086 154.477 562.828 154.188 563.539 154.188C565.531 154.188 567.008 155.719 567.008 157.789ZM562.898 160.125C564.18 160.125 565.148 159.156 565.148 157.867C565.148 156.578 564.18 155.609 562.898 155.609C561.617 155.609 560.648 156.578 560.648 157.867C560.648 159.156 561.617 160.125 562.898 160.125Z" fill="white"/>
<path d="M607.914 164.828C602.898 164.828 599.102 161.031 599.102 156.016C599.102 151 602.898 147.203 607.914 147.203C612.93 147.203 616.727 151 616.727 156.016C616.727 158.875 615.496 161.348 613.492 162.93L615.789 166.188H613.352L611.805 163.984C610.645 164.523 609.32 164.828 607.914 164.828ZM607.914 162.859C608.91 162.859 609.824 162.684 610.656 162.344L608.664 159.531H611.102L612.367 161.289C613.773 160.094 614.617 158.23 614.617 156.016C614.617 152.008 611.852 149.172 607.914 149.172C603.977 149.172 601.211 152.008 601.211 156.016C601.211 160.023 603.977 162.859 607.914 162.859Z" fill="#B0B0B0" fill-opacity="0.28"/>
<path d="M799.336 164.5C793.805 164.5 790.102 161.031 790.102 155.852C790.102 150.906 793.805 147.203 798.75 147.203C803.695 147.203 807.398 150.906 807.398 155.852C807.398 158.91 805.957 161.289 803.531 162.578H808.312V164.5H799.336ZM798.75 162.531C802.594 162.531 805.289 159.766 805.289 155.852C805.289 151.938 802.594 149.172 798.75 149.172C794.906 149.172 792.211 151.938 792.211 155.852C792.211 159.766 794.906 162.531 798.75 162.531Z" fill="#3385FF"/>
<rect x="32" y="200" width="52" height="24" rx="4" fill="#70737C" fill-opacity="0.22"/>
<path d="M46.9141 211.797H45.1328C44.9844 210.82 44.3047 210.281 43.3125 210.281C42.0312 210.281 41.3281 211.203 41.3281 212.883V213.539C41.3281 215.219 42.0312 216.141 43.3125 216.141C44.3125 216.141 44.9766 215.625 45.1328 214.68H46.9141C46.7188 216.594 45.4141 217.672 43.3281 217.672C40.8828 217.672 39.5 216.25 39.5 213.703V212.719C39.5 210.18 40.8828 208.75 43.3281 208.75C45.4219 208.75 46.7109 209.836 46.9141 211.797ZM48.9922 208.945H50.9453L53.0156 215.695H53.1406L55.1875 208.945H57.1172L54.0859 217.5H52.0391L48.9922 208.945ZM65.1484 211.195L61 214.258C61.3359 215.508 62 216.164 62.9531 216.164C64.3906 216.164 65.1641 214.664 65.1641 211.859C65.1641 211.625 65.1562 211.406 65.1484 211.195ZM60.75 212.531L64.9062 209.484C64.5703 208.227 63.9062 207.562 62.9531 207.562C61.5078 207.562 60.7344 209.062 60.7344 211.859C60.7344 212.094 60.7422 212.32 60.75 212.531ZM62.9531 205.984C65.5547 205.984 67.0156 208.094 67.0156 211.859C67.0156 215.633 65.5547 217.742 62.9531 217.742C60.3438 217.742 58.8828 215.633 58.8828 211.859C58.8828 208.094 60.3438 205.984 62.9531 205.984ZM69.9297 217.5L74.8984 207.938V207.82H68.9844V206.219H76.8125V207.844L71.9219 217.5H69.9297Z" fill="white"/>
<path d="M109.406 206.531C110.742 205.734 112.078 204.75 113.484 203.531H115.5V220.5H113.484V206.133H113.391C112.09 207.164 110.73 208.066 109.406 208.758V206.531Z" fill="#B0B0B0" fill-opacity="0.28"/>
<path d="M300.406 208.828V206.438L304.484 203.531H306.5V220.5H304.484V205.992H304.391L300.406 208.828Z" fill="#3385FF"/>
<rect x="522" y="200" width="52" height="24" rx="4" fill="#70737C" fill-opacity="0.22"/>
<path d="M536.914 211.797H535.133C534.984 210.82 534.305 210.281 533.312 210.281C532.031 210.281 531.328 211.203 531.328 212.883V213.539C531.328 215.219 532.031 216.141 533.312 216.141C534.312 216.141 534.977 215.625 535.133 214.68H536.914C536.719 216.594 535.414 217.672 533.328 217.672C530.883 217.672 529.5 216.25 529.5 213.703V212.719C529.5 210.18 530.883 208.75 533.328 208.75C535.422 208.75 536.711 209.836 536.914 211.797ZM538.992 208.945H540.945L543.016 215.695H543.141L545.188 208.945H547.117L544.086 217.5H542.039L538.992 208.945ZM555.148 211.195L551 214.258C551.336 215.508 552 216.164 552.953 216.164C554.391 216.164 555.164 214.664 555.164 211.859C555.164 211.625 555.156 211.406 555.148 211.195ZM550.75 212.531L554.906 209.484C554.57 208.227 553.906 207.562 552.953 207.562C551.508 207.562 550.734 209.062 550.734 211.859C550.734 212.094 550.742 212.32 550.75 212.531ZM552.953 205.984C555.555 205.984 557.016 208.094 557.016 211.859C557.016 215.633 555.555 217.742 552.953 217.742C550.344 217.742 548.883 215.633 548.883 211.859C548.883 208.094 550.344 205.984 552.953 205.984ZM562.859 210.906C564.023 210.906 564.805 210.211 564.805 209.18C564.805 208.156 564.023 207.461 562.859 207.461C561.688 207.461 560.914 208.156 560.914 209.18C560.914 210.211 561.688 210.906 562.859 210.906ZM562.859 216.25C564.234 216.25 565.18 215.453 565.18 214.305C565.18 213.148 564.234 212.359 562.859 212.359C561.484 212.359 560.539 213.148 560.539 214.305C560.539 215.453 561.484 216.25 562.859 216.25ZM562.859 217.742C560.328 217.742 558.602 216.414 558.602 214.469C558.602 213.078 559.531 211.953 560.984 211.609V211.477C559.805 211.18 559.055 210.219 559.055 209.016C559.055 207.242 560.633 205.984 562.859 205.984C565.086 205.984 566.664 207.242 566.664 209.016C566.664 210.219 565.922 211.172 564.727 211.477V211.609C566.164 211.922 567.117 213.07 567.117 214.469C567.117 216.414 565.391 217.742 562.859 217.742Z" fill="white"/>
<path d="M599.5 218.578C605.5 214.477 608.242 211.266 608.242 208.406C608.242 206.32 606.836 205.125 604.82 205.125C603.25 205.125 602.102 205.852 601.469 207.938L599.5 207.375C600.391 204.445 602.383 203.203 604.82 203.203C607.914 203.203 610.305 205.195 610.305 208.406C610.305 211.711 607.516 214.957 602.805 218.484V218.578H610.562V220.5H599.5V218.578Z" fill="#B0B0B0" fill-opacity="0.28"/>
<path d="M790.5 220.5V218.719L794.602 214.547C797.836 211.242 799.242 210.234 799.242 208.219C799.242 206.273 797.906 205.125 795.82 205.125C794.25 205.125 793.102 205.852 792.469 207.938L790.5 207.375C791.391 204.445 793.383 203.203 795.82 203.203C799.031 203.203 801.305 205.219 801.305 208.219C801.305 211.195 799.125 212.812 796.102 215.859L793.5 218.484V218.578H801.562V220.5H790.5Z" fill="#3385FF"/>
<rect x="32" y="256" width="52" height="24" rx="4" fill="#70737C" fill-opacity="0.22"/>
<path d="M46.9141 267.797H45.1328C44.9844 266.82 44.3047 266.281 43.3125 266.281C42.0312 266.281 41.3281 267.203 41.3281 268.883V269.539C41.3281 271.219 42.0312 272.141 43.3125 272.141C44.3125 272.141 44.9766 271.625 45.1328 270.68H46.9141C46.7188 272.594 45.4141 273.672 43.3281 273.672C40.8828 273.672 39.5 272.25 39.5 269.703V268.719C39.5 266.18 40.8828 264.75 43.3281 264.75C45.4219 264.75 46.7109 265.836 46.9141 267.797ZM48.9922 264.945H50.9453L53.0156 271.695H53.1406L55.1875 264.945H57.1172L54.0859 273.5H52.0391L48.9922 264.945ZM65.1484 267.195L61 270.258C61.3359 271.508 62 272.164 62.9531 272.164C64.3906 272.164 65.1641 270.664 65.1641 267.859C65.1641 267.625 65.1562 267.406 65.1484 267.195ZM60.75 268.531L64.9062 265.484C64.5703 264.227 63.9062 263.562 62.9531 263.562C61.5078 263.562 60.7344 265.062 60.7344 267.859C60.7344 268.094 60.7422 268.32 60.75 268.531ZM62.9531 261.984C65.5547 261.984 67.0156 264.094 67.0156 267.859C67.0156 271.633 65.5547 273.742 62.9531 273.742C60.3438 273.742 58.8828 271.633 58.8828 267.859C58.8828 264.094 60.3438 261.984 62.9531 261.984ZM68.7422 265.93C68.7422 263.672 70.4766 261.992 72.8281 261.992C75.25 261.992 76.9453 263.641 76.9453 266.016C76.9453 267.336 76.4766 268.57 75.3438 270.18C75.0859 270.586 73.125 273.242 72.9141 273.492H70.7734L73.7031 269.547C73.9844 269.156 74.0859 269.008 74.1641 268.844L74.0234 268.805C73.6406 269.25 72.9141 269.531 72.2109 269.531C70.2031 269.531 68.7422 268.016 68.7422 265.93ZM72.8438 263.602C71.5625 263.602 70.6016 264.57 70.6016 265.859C70.6016 267.148 71.5625 268.117 72.8438 268.117C74.1328 268.117 75.0938 267.148 75.0938 265.859C75.0938 264.57 74.1328 263.602 72.8438 263.602Z" fill="white"/>
<path d="M115.312 276.828C112.5 276.828 110.438 275.398 109.219 272.867L111.07 272.023C112.008 273.969 113.414 274.906 115.312 274.906C117.586 274.906 119.25 273.57 119.25 271.719C119.25 269.75 117.375 268.555 114.281 268.555H113.719V266.633H114.281C116.977 266.633 118.57 265.625 118.57 263.891C118.57 262.273 117.188 261.125 115.266 261.125C113.625 261.125 112.336 261.969 111.562 263.562L109.711 262.719C110.836 260.398 112.875 259.203 115.266 259.203C118.336 259.203 120.633 261.195 120.633 263.844C120.633 265.695 119.508 266.961 117.422 267.547V267.617C119.895 268.285 121.312 269.773 121.312 271.859C121.312 274.695 118.734 276.828 115.312 276.828Z" fill="#B0B0B0" fill-opacity="0.28"/>
<path d="M306.312 276.828C303.617 276.828 301.461 275.422 300.219 272.867L302.07 272.023C303.008 273.969 304.438 274.906 306.312 274.906C308.633 274.906 310.25 273.477 310.25 271.438C310.25 269.281 308.445 267.969 305.539 267.969H304.555V266.234L308.914 261.523V261.453H300.922V259.531H311.656V261.453L306.992 266.234V266.328C310.215 266.785 312.312 268.789 312.312 271.531C312.312 274.555 309.758 276.828 306.312 276.828Z" fill="#3385FF"/>
<rect x="522" y="256" width="52" height="24" rx="4" fill="#70737C" fill-opacity="0.22"/>
<path d="M536.914 267.797H535.133C534.984 266.82 534.305 266.281 533.312 266.281C532.031 266.281 531.328 267.203 531.328 268.883V269.539C531.328 271.219 532.031 272.141 533.312 272.141C534.312 272.141 534.977 271.625 535.133 270.68H536.914C536.719 272.594 535.414 273.672 533.328 273.672C530.883 273.672 529.5 272.25 529.5 269.703V268.719C529.5 266.18 530.883 264.75 533.328 264.75C535.422 264.75 536.711 265.836 536.914 267.797ZM538.992 264.945H540.945L543.016 271.695H543.141L545.188 264.945H547.117L544.086 273.5H542.039L538.992 264.945ZM554.273 271.914H557.273V273.5H549.273V271.914H552.422V264.164H552.289L549.258 266.156V264.32L552.43 262.227H554.273V271.914ZM565.039 267.195L560.891 270.258C561.227 271.508 561.891 272.164 562.844 272.164C564.281 272.164 565.055 270.664 565.055 267.859C565.055 267.625 565.047 267.406 565.039 267.195ZM560.641 268.531L564.797 265.484C564.461 264.227 563.797 263.562 562.844 263.562C561.398 263.562 560.625 265.062 560.625 267.859C560.625 268.094 560.633 268.32 560.641 268.531ZM562.844 261.984C565.445 261.984 566.906 264.094 566.906 267.859C566.906 271.633 565.445 273.742 562.844 273.742C560.234 273.742 558.773 271.633 558.773 267.859C558.773 264.094 560.234 261.984 562.844 261.984Z" fill="white"/>
<path d="M599.125 272.68V270.758L605.711 259.531H608.008L601.539 270.594V270.758H607.492V265.438H609.508V270.758H612.156V272.68H609.508V276.5H607.492V272.68H599.125Z" fill="#B0B0B0" fill-opacity="0.28"/>
<path d="M790.125 272.68V270.734L797.25 259.531H800.508V270.758H803.156V272.68H800.508V276.5H798.492V272.68H790.125ZM792.516 270.758H798.492V261.453H798.398L792.516 270.688V270.758Z" fill="#3385FF"/>
<rect x="32" y="312" width="52" height="24" rx="4" fill="#70737C" fill-opacity="0.22"/>
<path d="M46.9141 323.797H45.1328C44.9844 322.82 44.3047 322.281 43.3125 322.281C42.0312 322.281 41.3281 323.203 41.3281 324.883V325.539C41.3281 327.219 42.0312 328.141 43.3125 328.141C44.3125 328.141 44.9766 327.625 45.1328 326.68H46.9141C46.7188 328.594 45.4141 329.672 43.3281 329.672C40.8828 329.672 39.5 328.25 39.5 325.703V324.719C39.5 322.18 40.8828 320.75 43.3281 320.75C45.4219 320.75 46.7109 321.836 46.9141 323.797ZM48.9922 320.945H50.9453L53.0156 327.695H53.1406L55.1875 320.945H57.1172L54.0859 329.5H52.0391L48.9922 320.945ZM64.2734 327.914H67.2734V329.5H59.2734V327.914H62.4219V320.164H62.2891L59.2578 322.156V320.32L62.4297 318.227H64.2734V327.914ZM74.1641 327.914H77.1641V329.5H69.1641V327.914H72.3125V320.164H72.1797L69.1484 322.156V320.32L72.3203 318.227H74.1641V327.914Z" fill="white"/>
<path d="M115.477 332.828C111.445 332.828 109.219 329.57 109.219 324.414C109.219 318.484 112.125 315.203 115.992 315.203C118.078 315.203 119.906 316.164 121.031 317.805L119.297 318.883C118.523 317.688 117.258 317.125 115.992 317.125C113.461 317.125 111.434 319.363 111.305 323.898H111.398C112.348 322.398 113.977 321.484 115.898 321.484C118.945 321.484 121.312 323.828 121.312 327.156C121.312 330.508 118.898 332.828 115.477 332.828ZM115.477 330.906C117.68 330.906 119.25 329.359 119.25 327.156C119.25 324.953 117.68 323.406 115.477 323.406C113.273 323.406 111.703 324.953 111.703 327.156C111.703 329.359 113.273 330.906 115.477 330.906ZM135.07 332.828C132.961 332.828 131.25 331.82 129.938 329.875L131.625 328.797C132.656 330.273 133.711 330.906 135.07 330.906C137.602 330.906 139.629 328.668 139.781 324.133H139.688C138.715 325.633 137.086 326.547 135.164 326.547C132.117 326.547 129.75 324.203 129.75 320.875C129.75 317.523 132.164 315.203 135.586 315.203C139.617 315.203 141.844 318.461 141.844 323.617C141.844 329.547 138.938 332.828 135.07 332.828ZM135.586 324.625C137.789 324.625 139.359 323.078 139.359 320.875C139.359 318.672 137.789 317.125 135.586 317.125C133.383 317.125 131.812 318.672 131.812 320.875C131.812 323.078 133.383 324.625 135.586 324.625Z" fill="#B0B0B0" fill-opacity="0.28"/>
<path d="M306.031 332.828C302.703 332.828 300.195 330.344 300.195 326.805C300.195 324.93 300.875 323.289 303.312 319.844L306.359 315.531H308.844L304.883 320.969C304.449 321.566 304.074 322.094 303.758 322.586L303.828 322.633C304.613 321.988 305.621 321.625 306.758 321.625C309.617 321.625 311.867 323.992 311.867 327.062C311.867 330.344 309.359 332.828 306.031 332.828ZM306.031 330.906C308.258 330.906 309.805 329.359 309.805 327.156C309.805 324.953 308.258 323.406 306.031 323.406C303.805 323.406 302.258 324.953 302.258 327.156C302.258 329.359 303.805 330.906 306.031 330.906ZM326.094 315.203C329.422 315.203 331.93 317.688 331.93 321.227C331.93 323.102 331.25 324.742 328.812 328.188L325.766 332.5H323.281L327.242 327.062C327.676 326.465 328.051 325.938 328.391 325.445L328.32 325.398C327.512 326.043 326.504 326.406 325.367 326.406C322.508 326.406 320.258 324.039 320.258 320.969C320.258 317.688 322.766 315.203 326.094 315.203ZM326.094 317.125C323.867 317.125 322.32 318.672 322.32 320.875C322.32 323.078 323.867 324.625 326.094 324.625C328.32 324.625 329.867 323.078 329.867 320.875C329.867 318.672 328.32 317.125 326.094 317.125Z" fill="#3385FF"/>
<rect x="522" y="312" width="52" height="24" rx="4" fill="#70737C" fill-opacity="0.22"/>
<path d="M536.914 323.797H535.133C534.984 322.82 534.305 322.281 533.312 322.281C532.031 322.281 531.328 323.203 531.328 324.883V325.539C531.328 327.219 532.031 328.141 533.312 328.141C534.312 328.141 534.977 327.625 535.133 326.68H536.914C536.719 328.594 535.414 329.672 533.328 329.672C530.883 329.672 529.5 328.25 529.5 325.703V324.719C529.5 322.18 530.883 320.75 533.328 320.75C535.422 320.75 536.711 321.836 536.914 323.797ZM538.992 320.945H540.945L543.016 327.695H543.141L545.188 320.945H547.117L544.086 329.5H542.039L538.992 320.945ZM554.273 327.914H557.273V329.5H549.273V327.914H552.422V320.164H552.289L549.258 322.156V320.32L552.43 318.227H554.273V327.914ZM558.969 321.531C558.969 319.445 560.539 318 562.781 318C565.008 318 566.516 319.305 566.516 321.227C566.516 322.43 565.914 323.438 564.055 325.32L561.672 327.75V327.891H566.695V329.5H559.07V328.195L562.797 324.312C564.289 322.742 564.672 322.148 564.672 321.336C564.672 320.258 563.898 319.555 562.727 319.555C561.531 319.555 560.742 320.344 560.742 321.523V321.578H558.969V321.531Z" fill="white"/>
<path d="M599.406 317.453V315.531H610.562V317.453C606.953 321.859 604.984 326.805 604.516 332.5H602.594C603.016 326.934 604.797 322 608.055 317.547V317.453H599.406ZM619.469 317.453V315.531H631.117V317.453C627.32 321.859 625.258 326.805 624.766 332.5H622.844C623.289 326.934 625.164 322 628.609 317.547V317.453H619.469Z" fill="#B0B0B0" fill-opacity="0.28"/>
<path d="M791.672 332.5L799.266 317.547V317.453H790.406V315.531H801.562V317.453L793.922 332.5H791.672Z" fill="#3385FF"/>
<rect x="32" y="368" width="52" height="24" rx="4" fill="#70737C" fill-opacity="0.22"/>
<path d="M46.9141 379.797H45.1328C44.9844 378.82 44.3047 378.281 43.3125 378.281C42.0312 378.281 41.3281 379.203 41.3281 380.883V381.539C41.3281 383.219 42.0312 384.141 43.3125 384.141C44.3125 384.141 44.9766 383.625 45.1328 382.68H46.9141C46.7188 384.594 45.4141 385.672 43.3281 385.672C40.8828 385.672 39.5 384.25 39.5 381.703V380.719C39.5 378.18 40.8828 376.75 43.3281 376.75C45.4219 376.75 46.7109 377.836 46.9141 379.797ZM48.9922 376.945H50.9453L53.0156 383.695H53.1406L55.1875 376.945H57.1172L54.0859 385.5H52.0391L48.9922 376.945ZM64.2734 383.914H67.2734V385.5H59.2734V383.914H62.4219V376.164H62.2891L59.2578 378.156V376.32L62.4297 374.227H64.2734V383.914ZM71.4609 380.438V378.984H72.7422C73.9219 378.984 74.7188 378.273 74.7188 377.234C74.7188 376.203 73.9453 375.547 72.7656 375.547C71.5859 375.547 70.8125 376.219 70.7266 377.305H69C69.1094 375.258 70.5625 374 72.8281 374C75.0078 374 76.5156 375.211 76.5156 376.961C76.5156 378.297 75.7734 379.273 74.5469 379.547V379.68C76.0625 379.867 76.9688 380.883 76.9688 382.398C76.9688 384.359 75.2812 385.727 72.8672 385.727C70.5 385.727 68.8906 384.406 68.7891 382.367H70.5469C70.6406 383.43 71.5234 384.109 72.8203 384.109C74.2031 384.109 75.0781 383.406 75.0781 382.297C75.0781 381.164 74.1797 380.438 72.7812 380.438H71.4609Z" fill="white"/>
<path d="M113.156 383.156C113.156 377.953 117.211 378.586 117.211 375.75C117.211 374.18 115.969 373.172 114.211 373.172C112.336 373.172 111.211 374.297 111.211 376.219H109.102C109.102 373.172 111.047 371.203 114.211 371.203C117.141 371.203 119.32 372.891 119.32 375.75C119.32 379.641 115.266 378.984 115.266 382.969V383.531H113.156V383.156ZM114.211 388.688C113.367 388.688 112.758 388.078 112.758 387.234C112.758 386.391 113.367 385.781 114.211 385.781C115.055 385.781 115.664 386.391 115.664 387.234C115.664 388.078 115.055 388.688 114.211 388.688Z" fill="#B0B0B0" fill-opacity="0.28"/>
<path d="M303.875 378.844C306.641 379.266 308.398 378 308.398 376.031C308.398 374.367 307.109 373.172 305.305 373.172C303.5 373.172 302.211 374.367 302.211 376.219H300.102C300.102 373.195 302.258 371.203 305.305 371.203C308.352 371.203 310.508 373.195 310.508 376.031C310.508 378.586 308.773 380.438 305.984 380.836V383.531H303.875V378.844ZM304.93 388.688C304.086 388.688 303.477 388.078 303.477 387.234C303.477 386.391 304.086 385.781 304.93 385.781C305.773 385.781 306.383 386.391 306.383 387.234C306.383 388.078 305.773 388.688 304.93 388.688Z" fill="#3385FF"/>
<rect x="522" y="368" width="52" height="24" rx="4" fill="#70737C" fill-opacity="0.22"/>
<path d="M536.914 379.797H535.133C534.984 378.82 534.305 378.281 533.312 378.281C532.031 378.281 531.328 379.203 531.328 380.883V381.539C531.328 383.219 532.031 384.141 533.312 384.141C534.312 384.141 534.977 383.625 535.133 382.68H536.914C536.719 384.594 535.414 385.672 533.328 385.672C530.883 385.672 529.5 384.25 529.5 381.703V380.719C529.5 378.18 530.883 376.75 533.328 376.75C535.422 376.75 536.711 377.836 536.914 379.797ZM538.992 376.945H540.945L543.016 383.695H543.141L545.188 376.945H547.117L544.086 385.5H542.039L538.992 376.945ZM554.273 383.914H557.273V385.5H549.273V383.914H552.422V376.164H552.289L549.258 378.156V376.32L552.43 374.227H554.273V383.914ZM563.898 385.5V383.266H558.82V381.758L562.406 374.227H564.32L560.82 381.578V381.703H563.945V378.703H565.633V381.719H567.242V383.266H565.648V385.5H563.898Z" fill="white"/>
<path d="M599.5 386.578C605.5 382.477 608.242 379.266 608.242 376.406C608.242 374.32 606.836 373.125 604.82 373.125C603.25 373.125 602.102 373.852 601.469 375.938L599.5 375.375C600.391 372.445 602.383 371.203 604.82 371.203C607.914 371.203 610.305 373.195 610.305 376.406C610.305 379.711 607.516 382.957 602.805 386.484V386.578H610.562V388.5H599.5V386.578Z" fill="#B0B0B0" fill-opacity="0.28"/>
<path d="M790.125 388.5C789.891 381.047 799.242 381.727 799.242 376.406C799.242 374.391 797.906 373.125 795.82 373.125C794.25 373.125 793.102 373.852 792.469 375.938L790.5 375.375C791.391 372.445 793.383 371.203 795.82 371.203C798.984 371.203 801.305 373.242 801.305 376.406C801.305 382.078 793.922 382.266 792.445 386.578H801.562V388.5H790.125Z" fill="#3385FF"/>
<rect x="32" y="424" width="52" height="24" rx="4" fill="#70737C" fill-opacity="0.22"/>
<path d="M46.9141 435.797H45.1328C44.9844 434.82 44.3047 434.281 43.3125 434.281C42.0312 434.281 41.3281 435.203 41.3281 436.883V437.539C41.3281 439.219 42.0312 440.141 43.3125 440.141C44.3125 440.141 44.9766 439.625 45.1328 438.68H46.9141C46.7188 440.594 45.4141 441.672 43.3281 441.672C40.8828 441.672 39.5 440.25 39.5 437.703V436.719C39.5 434.18 40.8828 432.75 43.3281 432.75C45.4219 432.75 46.7109 433.836 46.9141 435.797ZM48.9922 432.945H50.9453L53.0156 439.695H53.1406L55.1875 432.945H57.1172L54.0859 441.5H52.0391L48.9922 432.945ZM64.2734 439.914H67.2734V441.5H59.2734V439.914H62.4219V432.164H62.2891L59.2578 434.156V432.32L62.4297 430.227H64.2734V439.914ZM72.7578 441.727C70.5078 441.727 68.9219 440.375 68.8359 438.383H70.6641C70.7891 439.398 71.6641 440.094 72.8203 440.094C74.125 440.094 75 439.188 75 437.836C75 436.477 74.1172 435.562 72.8203 435.562C71.9297 435.562 71.2266 435.945 70.8047 436.68H68.9922L69.5391 430.227H76.1406V431.836H71.0391L70.7656 435.117H70.8984C71.4062 434.43 72.2422 434.055 73.2734 434.055C75.3594 434.055 76.8047 435.586 76.8047 437.789C76.8047 440.148 75.1797 441.727 72.7578 441.727Z" fill="white"/>
<path d="M109.57 444.5V432.406H111.539V434.281H111.633C112.23 432.969 113.426 432.078 114.797 432.078C115.242 432.078 115.664 432.172 116.062 432.336V434.281C115.617 434.141 115.172 434.07 114.75 434.07C112.734 434.07 111.539 435.688 111.539 438.453V444.5H109.57Z" fill="#B0B0B0" fill-opacity="0.28"/>
<path d="M300.57 444.5V432.406H302.539V444.5H300.57ZM304.93 434.867C304.18 434.867 303.617 434.305 303.617 433.555C303.617 432.805 304.18 432.242 304.93 432.242C305.68 432.242 306.242 432.805 306.242 433.555C306.242 434.305 305.68 434.867 304.93 434.867Z" fill="#3385FF"/>
<rect x="522" y="424" width="52" height="24" rx="4" fill="#70737C" fill-opacity="0.22"/>
<path d="M536.914 435.797H535.133C534.984 434.82 534.305 434.281 533.312 434.281C532.031 434.281 531.328 435.203 531.328 436.883V437.539C531.328 439.219 532.031 440.141 533.312 440.141C534.312 440.141 534.977 439.625 535.133 438.68H536.914C536.719 440.594 535.414 441.672 533.328 441.672C530.883 441.672 529.5 440.25 529.5 437.703V436.719C529.5 434.18 530.883 432.75 533.328 432.75C535.422 432.75 536.711 433.836 536.914 435.797ZM538.992 432.945H540.945L543.016 439.695H543.141L545.188 432.945H547.117L544.086 441.5H542.039L538.992 432.945ZM554.273 439.914H557.273V441.5H549.273V439.914H552.422V432.164H552.289L549.258 434.156V432.32L552.43 430.227H554.273V439.914ZM567.008 437.789C567.008 440.055 565.266 441.727 562.914 441.727C560.492 441.727 558.805 440.078 558.805 437.703C558.805 436.359 559.266 435.125 560.375 433.539C560.633 433.148 562.594 430.492 562.805 430.227H564.953L562.023 434.18C561.68 434.648 561.641 434.719 561.562 434.883L561.703 434.914C562.086 434.477 562.828 434.188 563.539 434.188C565.531 434.188 567.008 435.719 567.008 437.789ZM562.898 440.125C564.18 440.125 565.148 439.156 565.148 437.867C565.148 436.578 564.18 435.609 562.898 435.609C561.617 435.609 560.648 436.578 560.648 437.867C560.648 439.156 561.617 440.125 562.898 440.125Z" fill="white"/>
<path d="M599.57 444.5V427.531H601.539V444.5H599.57Z" fill="#B0B0B0" fill-opacity="0.28"/>
<path d="M793.43 444.828C791.508 444.828 790.57 443.586 790.57 441.078V427.531H792.539V440.984C792.539 442.438 792.914 442.953 793.898 442.953C794.109 442.953 794.32 442.93 794.508 442.906V444.711C794.156 444.781 793.805 444.828 793.43 444.828Z" fill="#3385FF"/>
<rect x="32" y="480" width="52" height="24" rx="4" fill="#70737C" fill-opacity="0.22"/>
<path d="M46.9141 491.797H45.1328C44.9844 490.82 44.3047 490.281 43.3125 490.281C42.0312 490.281 41.3281 491.203 41.3281 492.883V493.539C41.3281 495.219 42.0312 496.141 43.3125 496.141C44.3125 496.141 44.9766 495.625 45.1328 494.68H46.9141C46.7188 496.594 45.4141 497.672 43.3281 497.672C40.8828 497.672 39.5 496.25 39.5 493.703V492.719C39.5 490.18 40.8828 488.75 43.3281 488.75C45.4219 488.75 46.7109 489.836 46.9141 491.797ZM48.9922 488.945H50.9453L53.0156 495.695H53.1406L55.1875 488.945H57.1172L54.0859 497.5H52.0391L48.9922 488.945ZM64.2734 495.914H67.2734V497.5H59.2734V495.914H62.4219V488.164H62.2891L59.2578 490.156V488.32L62.4297 486.227H64.2734V495.914ZM69.9297 497.5L74.8984 487.938V487.82H68.9844V486.219H76.8125V487.844L71.9219 497.5H69.9297Z" fill="white"/>
<path d="M111.75 486.531C113.086 485.734 114.422 484.75 115.828 483.531H117.844V500.5H115.828V486.133H115.734C114.434 487.164 113.074 488.066 111.75 488.758V486.531Z" fill="#B0B0B0" fill-opacity="0.28"/>
<path d="M301.156 500.5V498.578H306.055V486.133H305.961C304.578 487.164 303.16 488.066 301.766 488.758V486.531C303.172 485.734 304.578 484.75 306.055 483.531H308.094V498.578H312.453V500.5H301.156Z" fill="#3385FF"/>
<rect x="522" y="480" width="52" height="24" rx="4" fill="#70737C" fill-opacity="0.22"/>
<path d="M536.914 491.797H535.133C534.984 490.82 534.305 490.281 533.312 490.281C532.031 490.281 531.328 491.203 531.328 492.883V493.539C531.328 495.219 532.031 496.141 533.312 496.141C534.312 496.141 534.977 495.625 535.133 494.68H536.914C536.719 496.594 535.414 497.672 533.328 497.672C530.883 497.672 529.5 496.25 529.5 493.703V492.719C529.5 490.18 530.883 488.75 533.328 488.75C535.422 488.75 536.711 489.836 536.914 491.797ZM538.992 488.945H540.945L543.016 495.695H543.141L545.188 488.945H547.117L544.086 497.5H542.039L538.992 488.945ZM554.273 495.914H557.273V497.5H549.273V495.914H552.422V488.164H552.289L549.258 490.156V488.32L552.43 486.227H554.273V495.914ZM562.859 490.906C564.023 490.906 564.805 490.211 564.805 489.18C564.805 488.156 564.023 487.461 562.859 487.461C561.688 487.461 560.914 488.156 560.914 489.18C560.914 490.211 561.688 490.906 562.859 490.906ZM562.859 496.25C564.234 496.25 565.18 495.453 565.18 494.305C565.18 493.148 564.234 492.359 562.859 492.359C561.484 492.359 560.539 493.148 560.539 494.305C560.539 495.453 561.484 496.25 562.859 496.25ZM562.859 497.742C560.328 497.742 558.602 496.414 558.602 494.469C558.602 493.078 559.531 491.953 560.984 491.609V491.477C559.805 491.18 559.055 490.219 559.055 489.016C559.055 487.242 560.633 485.984 562.859 485.984C565.086 485.984 566.664 487.242 566.664 489.016C566.664 490.219 565.922 491.172 564.727 491.477V491.609C566.164 491.922 567.117 493.07 567.117 494.469C567.117 496.414 565.391 497.742 562.859 497.742Z" fill="white"/>
<path d="M599.664 500.5V483.531H601.727V500.5H599.664Z" fill="#B0B0B0" fill-opacity="0.28"/>
<path d="M790.102 485.453V483.531H798.539V485.453H795.352V498.578H798.539V500.5H790.102V498.578H793.289V485.453H790.102Z" fill="#3385FF"/>
<rect x="32" y="536" width="52" height="24" rx="4" fill="#70737C" fill-opacity="0.22"/>
<path d="M46.9141 547.797H45.1328C44.9844 546.82 44.3047 546.281 43.3125 546.281C42.0312 546.281 41.3281 547.203 41.3281 548.883V549.539C41.3281 551.219 42.0312 552.141 43.3125 552.141C44.3125 552.141 44.9766 551.625 45.1328 550.68H46.9141C46.7188 552.594 45.4141 553.672 43.3281 553.672C40.8828 553.672 39.5 552.25 39.5 549.703V548.719C39.5 546.18 40.8828 544.75 43.3281 544.75C45.4219 544.75 46.7109 545.836 46.9141 547.797ZM48.9922 544.945H50.9453L53.0156 551.695H53.1406L55.1875 544.945H57.1172L54.0859 553.5H52.0391L48.9922 544.945ZM64.2734 551.914H67.2734V553.5H59.2734V551.914H62.4219V544.164H62.2891L59.2578 546.156V544.32L62.4297 542.227H64.2734V551.914ZM68.7422 545.93C68.7422 543.672 70.4766 541.992 72.8281 541.992C75.25 541.992 76.9453 543.641 76.9453 546.016C76.9453 547.336 76.4766 548.57 75.3438 550.18C75.0859 550.586 73.125 553.242 72.9141 553.492H70.7734L73.7031 549.547C73.9844 549.156 74.0859 549.008 74.1641 548.844L74.0234 548.805C73.6406 549.25 72.9141 549.531 72.2109 549.531C70.2031 549.531 68.7422 548.016 68.7422 545.93ZM72.8438 543.602C71.5625 543.602 70.6016 544.57 70.6016 545.859C70.6016 547.148 71.5625 548.117 72.8438 548.117C74.1328 548.117 75.0938 547.148 75.0938 545.859C75.0938 544.57 74.1328 543.602 72.8438 543.602Z" fill="white"/>
<path d="M108.914 546.047V544.406H110.977V542.977C110.977 540.656 112.359 539.203 114.539 539.203C115.219 539.203 115.781 539.344 116.227 539.508V541.359C115.711 541.195 115.242 541.125 114.82 541.125C113.555 541.125 112.945 541.758 112.945 543.047V544.406H116.227V546.047H112.945V556.5H110.977V546.047H108.914Z" fill="#B0B0B0" fill-opacity="0.28"/>
<path d="M299.914 546.047V544.406H301.977V539.531H307.227V541.312H303.945V544.406H307.227V546.047H303.945V556.5H301.977V546.047H299.914Z" fill="#3385FF"/>
<rect x="522" y="536" width="52" height="24" rx="4" fill="#70737C" fill-opacity="0.22"/>
<path d="M536.914 547.797H535.133C534.984 546.82 534.305 546.281 533.312 546.281C532.031 546.281 531.328 547.203 531.328 548.883V549.539C531.328 551.219 532.031 552.141 533.312 552.141C534.312 552.141 534.977 551.625 535.133 550.68H536.914C536.719 552.594 535.414 553.672 533.328 553.672C530.883 553.672 529.5 552.25 529.5 549.703V548.719C529.5 546.18 530.883 544.75 533.328 544.75C535.422 544.75 536.711 545.836 536.914 547.797ZM538.992 544.945H540.945L543.016 551.695H543.141L545.188 544.945H547.117L544.086 553.5H542.039L538.992 544.945ZM549.078 545.531C549.078 543.445 550.648 542 552.891 542C555.117 542 556.625 543.305 556.625 545.227C556.625 546.43 556.023 547.438 554.164 549.32L551.781 551.75V551.891H556.805V553.5H549.18V552.195L552.906 548.312C554.398 546.742 554.781 546.148 554.781 545.336C554.781 544.258 554.008 543.555 552.836 543.555C551.641 543.555 550.852 544.344 550.852 545.523V545.578H549.078V545.531ZM565.039 547.195L560.891 550.258C561.227 551.508 561.891 552.164 562.844 552.164C564.281 552.164 565.055 550.664 565.055 547.859C565.055 547.625 565.047 547.406 565.039 547.195ZM560.641 548.531L564.797 545.484C564.461 544.227 563.797 543.562 562.844 543.562C561.398 543.562 560.625 545.062 560.625 547.859C560.625 548.094 560.633 548.32 560.641 548.531ZM562.844 541.984C565.445 541.984 566.906 544.094 566.906 547.859C566.906 551.633 565.445 553.742 562.844 553.742C560.234 553.742 558.773 551.633 558.773 547.859C558.773 544.094 560.234 541.984 562.844 541.984Z" fill="white"/>
<path d="M604.961 554.578C607.258 554.578 608.898 552.797 608.898 550.266C608.898 547.734 607.258 545.953 604.961 545.953C602.641 545.953 601.023 547.758 601.023 550.266C601.023 552.773 602.641 554.578 604.961 554.578ZM604.727 561.891C602.336 561.891 600.578 560.883 599.266 558.844L600.906 557.812C601.938 559.383 603.062 560.016 604.727 560.016C607.375 560.016 608.805 558.398 608.805 555.281V554.297H608.711C607.902 555.703 606.555 556.453 604.773 556.453C601.422 556.453 599.008 553.781 599.008 550.266C599.008 546.75 601.422 544.078 604.773 544.078C606.555 544.078 607.902 544.828 608.711 546.234H608.805V544.406H610.773V555.281C610.773 559.477 608.453 561.891 604.727 561.891Z" fill="#B0B0B0" fill-opacity="0.28"/>
<path d="M795.961 554.578C798.258 554.578 799.898 552.797 799.898 550.266C799.898 547.734 798.258 545.953 795.961 545.953C793.641 545.953 792.023 547.758 792.023 550.266C792.023 552.773 793.641 554.578 795.961 554.578ZM792.023 561.562V559.688H799.805V554.297H799.711C798.902 555.703 797.555 556.453 795.773 556.453C792.422 556.453 790.008 553.781 790.008 550.266C790.008 546.75 792.422 544.078 795.773 544.078C797.555 544.078 798.902 544.828 799.711 546.234H799.805V544.406H801.773V561.562H792.023Z" fill="#3385FF"/>
<rect x="32" y="592" width="52" height="24" rx="4" fill="#70737C" fill-opacity="0.22"/>
<path d="M46.9141 603.797H45.1328C44.9844 602.82 44.3047 602.281 43.3125 602.281C42.0312 602.281 41.3281 603.203 41.3281 604.883V605.539C41.3281 607.219 42.0312 608.141 43.3125 608.141C44.3125 608.141 44.9766 607.625 45.1328 606.68H46.9141C46.7188 608.594 45.4141 609.672 43.3281 609.672C40.8828 609.672 39.5 608.25 39.5 605.703V604.719C39.5 602.18 40.8828 600.75 43.3281 600.75C45.4219 600.75 46.7109 601.836 46.9141 603.797ZM48.9922 600.945H50.9453L53.0156 607.695H53.1406L55.1875 600.945H57.1172L54.0859 609.5H52.0391L48.9922 600.945ZM59.0781 601.531C59.0781 599.445 60.6484 598 62.8906 598C65.1172 598 66.625 599.305 66.625 601.227C66.625 602.43 66.0234 603.438 64.1641 605.32L61.7812 607.75V607.891H66.8047V609.5H59.1797V608.195L62.9062 604.312C64.3984 602.742 64.7812 602.148 64.7812 601.336C64.7812 600.258 64.0078 599.555 62.8359 599.555C61.6406 599.555 60.8516 600.344 60.8516 601.523V601.578H59.0781V601.531ZM74.1641 607.914H77.1641V609.5H69.1641V607.914H72.3125V600.164H72.1797L69.1484 602.156V600.32L72.3203 598.227H74.1641V607.914Z" fill="white"/>
<path d="M114.961 610.953C117.258 610.953 118.898 609.102 118.898 606.453C118.898 603.805 117.258 601.953 114.961 601.953C112.641 601.953 111.023 603.828 111.023 606.453C111.023 609.078 112.641 610.953 114.961 610.953ZM120.773 612.5H118.805V610.602H118.734C117.902 612.043 116.555 612.828 114.773 612.828C111.422 612.828 109.008 610.086 109.008 606.453C109.008 602.82 111.422 600.078 114.773 600.078C116.555 600.078 117.902 600.863 118.734 602.305H118.805V600.406H120.773V612.5Z" fill="#B0B0B0" fill-opacity="0.28"/>
<path d="M309.055 605.891C309.055 603.359 307.812 601.953 305.539 601.953C304.062 601.953 302.984 602.539 302.328 603.688L300.57 602.75C301.531 601.039 303.336 600.078 305.539 600.078C308.938 600.078 311.07 602.328 311.07 605.891V612.5H309.055V605.891ZM303.992 612.828C301.836 612.828 300.195 611.258 300.195 609.172C300.195 607.086 301.836 605.516 303.992 605.516C306.148 605.516 307.789 607.086 307.789 609.172C307.789 611.258 306.148 612.828 303.992 612.828ZM303.992 610.953C305.047 610.953 305.773 610.227 305.773 609.172C305.773 608.117 305.047 607.391 303.992 607.391C302.938 607.391 302.211 608.117 302.211 609.172C302.211 610.227 302.938 610.953 303.992 610.953Z" fill="#3385FF"/>
<rect x="522" y="592" width="52" height="24" rx="4" fill="#70737C" fill-opacity="0.22"/>
<path d="M536.914 603.797H535.133C534.984 602.82 534.305 602.281 533.312 602.281C532.031 602.281 531.328 603.203 531.328 604.883V605.539C531.328 607.219 532.031 608.141 533.312 608.141C534.312 608.141 534.977 607.625 535.133 606.68H536.914C536.719 608.594 535.414 609.672 533.328 609.672C530.883 609.672 529.5 608.25 529.5 605.703V604.719C529.5 602.18 530.883 600.75 533.328 600.75C535.422 600.75 536.711 601.836 536.914 603.797ZM538.992 600.945H540.945L543.016 607.695H543.141L545.188 600.945H547.117L544.086 609.5H542.039L538.992 600.945ZM549.078 601.531C549.078 599.445 550.648 598 552.891 598C555.117 598 556.625 599.305 556.625 601.227C556.625 602.43 556.023 603.438 554.164 605.32L551.781 607.75V607.891H556.805V609.5H549.18V608.195L552.906 604.312C554.398 602.742 554.781 602.148 554.781 601.336C554.781 600.258 554.008 599.555 552.836 599.555C551.641 599.555 550.852 600.344 550.852 601.523V601.578H549.078V601.531ZM558.969 601.531C558.969 599.445 560.539 598 562.781 598C565.008 598 566.516 599.305 566.516 601.227C566.516 602.43 565.914 603.438 564.055 605.32L561.672 607.75V607.891H566.695V609.5H559.07V608.195L562.797 604.312C564.289 602.742 564.672 602.148 564.672 601.336C564.672 600.258 563.898 599.555 562.727 599.555C561.531 599.555 560.742 600.344 560.742 601.523V601.578H558.969V601.531Z" fill="white"/>
<path d="M605.312 612.828C601.68 612.828 599.008 610.086 599.008 606.453C599.008 602.82 601.609 600.078 605.078 600.078C608.547 600.078 610.961 602.82 610.961 606.453L610.938 607.133H601.07C601.34 609.453 603.051 610.953 605.359 610.953C607.023 610.953 608.219 610.168 608.828 608.867L610.562 609.617C609.637 611.562 607.797 612.828 605.312 612.828ZM601.164 605.211H608.805C608.664 603.371 607.164 601.953 605.078 601.953C603.086 601.953 601.598 603.242 601.164 605.211Z" fill="#B0B0B0" fill-opacity="0.28"/>
<path d="M796.312 612.828C792.68 612.828 790.008 610.086 790.008 606.453C790.008 602.82 792.609 600.078 796.078 600.078C799.547 600.078 801.961 602.82 801.961 606.453L801.938 607.133H794.273V605.211H799.805C799.664 603.371 798.164 601.953 796.078 601.953C793.688 601.953 792.023 603.805 792.023 606.453C792.023 609.148 793.828 610.953 796.359 610.953C798.023 610.953 799.219 610.168 799.828 608.867L801.562 609.617C800.637 611.562 798.797 612.828 796.312 612.828Z" fill="#3385FF"/>
</svg>
