<svg width="1012" height="273" viewBox="0 0 1012 273" fill="none" xmlns="http://www.w3.org/2000/svg">
<rect x="0.5" y="0.5" width="1011" height="272" rx="15.5" stroke="#70737C" stroke-opacity="0.28"/>
<rect x="32" y="32" width="52" height="24" rx="4" fill="#70737C" fill-opacity="0.22"/>
<path d="M46.9297 49.5H39.6484V48.0469H42.4531V39.0938H39.7422V37.6406H44.2656V48.0469H46.9297V49.5ZM53.1875 39.0469C52.4141 39.0469 51.8672 38.5391 51.8672 37.8047C51.8672 37.0703 52.4141 36.5625 53.1875 36.5625C53.9688 36.5625 54.5156 37.0703 54.5156 37.8047C54.5156 38.5391 53.9688 39.0469 53.1875 39.0469ZM56.8203 49.5H49.5391V48.0469H52.3594V42.3984H49.6328V40.9453H54.1328V48.0469H56.8203V49.5ZM60.7344 45.7344C60.7344 47.0703 61.5234 47.9219 62.7578 47.9219C63.9844 47.9219 64.7734 47.0703 64.7734 45.7344V44.5312C64.7734 43.1953 63.9844 42.3438 62.7578 42.3438C61.5234 42.3438 60.7344 43.1953 60.7344 44.5312V45.7344ZM62.7031 52.7188C60.5781 52.7188 59.1719 51.8047 59.0156 50.3281H60.7969C60.9531 50.9453 61.7109 51.3438 62.7266 51.3438C64.0625 51.3438 64.7891 50.7031 64.7891 49.5078V47.9609H64.6328C64.3281 48.9062 63.3438 49.5078 62.0859 49.5078C60.1094 49.5078 58.8828 48.1094 58.8828 45.8516V44.4531C58.8828 42.1797 60.125 40.7969 62.1562 40.7969C63.3984 40.7969 64.3516 41.3906 64.6641 42.3438H64.8203V40.9453H66.6094V49.4922C66.6094 51.5 65.1328 52.7188 62.7031 52.7188ZM71.7969 49.6406C70.1719 49.6406 69.0859 48.6094 69.0859 47.0625C69.0859 45.5312 70.1953 44.625 72.2422 44.5L74.3828 44.375V43.6562C74.3828 42.7734 73.8125 42.2734 72.8125 42.2734C71.9766 42.2734 71.3672 42.6328 71.1797 43.2578H69.3984C69.5547 41.7812 70.9375 40.8047 72.8594 40.8047C74.9766 40.8047 76.1797 41.8438 76.1797 43.6719V49.5H74.4531V48.3047H74.2891C73.875 49.1562 72.9609 49.6406 71.7969 49.6406ZM72.3828 48.1562C73.5391 48.1562 74.3828 47.4141 74.3828 46.3828V45.6016L72.5156 45.7031C71.4453 45.7656 70.8906 46.1953 70.8906 46.9531C70.8906 47.6953 71.4688 48.1562 72.3828 48.1562Z" fill="white"/>
<rect x="32" y="88" width="948" height="1" fill="#70737C" fill-opacity="0.28"/>
<path d="M38 144.5L32.5938 128.375H35.3125L39.5625 141.688H39.6562L43.3438 128.375H45.9688L49.6562 141.688H49.7812L54 128.375H56.7188L51.3125 144.5H48.0312L44.7188 133.281H44.625L41.2812 144.5H38ZM65.9688 142.438C69.0312 142.438 71.2188 139.969 71.2188 136.438C71.2188 132.906 69.0312 130.438 65.9688 130.438C62.875 130.438 60.7188 132.938 60.7188 136.438C60.7188 139.938 62.875 142.438 65.9688 142.438ZM73.7188 144.5H71.0938V141.969H71C69.8906 143.891 68.0938 144.938 65.7188 144.938C61.25 144.938 58.0312 141.281 58.0312 136.438C58.0312 131.594 61.25 127.938 65.7188 127.938C68.0938 127.938 69.8906 128.984 71 130.906H71.0938V128.375H73.7188V144.5ZM77.9062 144.5V128.375H80.5312V130.719H80.6562C81.4375 129 83.1719 127.938 85.4688 127.938C89.0625 127.938 91.0312 130.469 91.0312 134.625V144.5H88.4062V135C88.4062 132.031 87.1562 130.438 84.9062 130.438C82.6562 130.438 80.5312 132.031 80.5312 135.5V144.5H77.9062ZM93.4688 130.562V128.375H96.2188V124.375H98.8438V128.375H102.844V130.562H98.8438V139.812C98.8438 141.562 99.5938 142.375 101.219 142.375C101.719 142.375 102.281 142.281 102.844 142.125V144.594C102.344 144.781 101.656 144.938 100.844 144.938C98 144.938 96.2188 143 96.2188 139.906V130.562H93.4688ZM113.688 144.938C108.844 144.938 105.281 141.281 105.281 136.438C105.281 131.594 108.75 127.938 113.375 127.938C118 127.938 121.219 131.594 121.219 136.438L121.188 137.344H108.031C108.391 140.438 110.672 142.438 113.75 142.438C115.969 142.438 117.562 141.391 118.375 139.656L120.688 140.656C119.453 143.25 117 144.938 113.688 144.938ZM108.156 134.781H118.344C118.156 132.328 116.156 130.438 113.375 130.438C110.719 130.438 108.734 132.156 108.156 134.781ZM139.594 144.5H136.969V141.969H136.875C135.766 143.891 133.969 144.938 131.594 144.938C127.125 144.938 123.906 141.281 123.906 136.438C123.906 131.594 127.125 127.938 131.594 127.938C133.969 127.938 135.766 128.984 136.875 130.906H136.969V121.875H139.594V144.5ZM131.844 142.438C134.906 142.438 137.094 139.969 137.094 136.438C137.094 132.906 134.906 130.438 131.844 130.438C128.75 130.438 126.594 132.938 126.594 136.438C126.594 139.938 128.75 142.438 131.844 142.438ZM157.688 146V148.562H141.688V146H157.688ZM159.781 144.5V121.875H162.406V144.5H159.781ZM174.125 144.938C169.406 144.938 165.844 141.281 165.844 136.438C165.844 131.594 169.406 127.938 174.125 127.938C178.844 127.938 182.406 131.594 182.406 136.438C182.406 141.281 178.844 144.938 174.125 144.938ZM174.125 142.438C177.406 142.438 179.719 139.969 179.719 136.438C179.719 132.906 177.406 130.438 174.125 130.438C170.844 130.438 168.531 132.906 168.531 136.438C168.531 139.969 170.844 142.438 174.125 142.438ZM193.031 141.938C196.094 141.938 198.281 139.562 198.281 136.188C198.281 132.812 196.094 130.438 193.031 130.438C189.938 130.438 187.781 132.844 187.781 136.188C187.781 139.531 189.938 141.938 193.031 141.938ZM192.719 151.688C189.531 151.688 187.188 150.344 185.438 147.625L187.625 146.25C189 148.344 190.5 149.188 192.719 149.188C196.25 149.188 198.156 147.031 198.156 142.875V141.562H198.031C196.953 143.438 195.156 144.438 192.781 144.438C188.312 144.438 185.094 140.875 185.094 136.188C185.094 131.5 188.312 127.938 192.781 127.938C195.156 127.938 196.953 128.938 198.031 130.812H198.156V128.375H200.781V142.875C200.781 148.469 197.688 151.688 192.719 151.688ZM212.5 144.938C207.781 144.938 204.219 141.281 204.219 136.438C204.219 131.594 207.781 127.938 212.5 127.938C217.219 127.938 220.781 131.594 220.781 136.438C220.781 141.281 217.219 144.938 212.5 144.938ZM212.5 142.438C215.781 142.438 218.094 139.969 218.094 136.438C218.094 132.906 215.781 130.438 212.5 130.438C209.219 130.438 206.906 132.906 206.906 136.438C206.906 139.969 209.219 142.438 212.5 142.438ZM232.344 151.25V121.875H234.844V151.25H232.344ZM247.281 144.5V121.875H250.031V131.344H262.031V121.875H264.781V144.5H262.031V133.906H250.031V144.5H247.281ZM38 192.5L32.5938 176.375H35.3125L39.5625 189.688H39.6562L43.3438 176.375H45.9688L49.6562 189.688H49.7812L54 176.375H56.7188L51.3125 192.5H48.0312L44.7188 181.281H44.625L41.2812 192.5H38ZM65.9688 190.438C69.0312 190.438 71.2188 187.969 71.2188 184.438C71.2188 180.906 69.0312 178.438 65.9688 178.438C62.875 178.438 60.7188 180.938 60.7188 184.438C60.7188 187.938 62.875 190.438 65.9688 190.438ZM73.7188 192.5H71.0938V189.969H71C69.8906 191.891 68.0938 192.938 65.7188 192.938C61.25 192.938 58.0312 189.281 58.0312 184.438C58.0312 179.594 61.25 175.938 65.7188 175.938C68.0938 175.938 69.8906 176.984 71 178.906H71.0938V176.375H73.7188V192.5ZM77.9062 192.5V176.375H80.5312V178.719H80.6562C81.4375 177 83.1719 175.938 85.4688 175.938C89.0625 175.938 91.0312 178.469 91.0312 182.625V192.5H88.4062V183C88.4062 180.031 87.1562 178.438 84.9062 178.438C82.6562 178.438 80.5312 180.031 80.5312 183.5V192.5H77.9062ZM93.4688 178.562V176.375H96.2188V172.375H98.8438V176.375H102.844V178.562H98.8438V187.812C98.8438 189.562 99.5938 190.375 101.219 190.375C101.719 190.375 102.281 190.281 102.844 190.125V192.594C102.344 192.781 101.656 192.938 100.844 192.938C98 192.938 96.2188 191 96.2188 187.906V178.562H93.4688ZM113.688 192.938C108.844 192.938 105.281 189.281 105.281 184.438C105.281 179.594 108.75 175.938 113.375 175.938C118 175.938 121.219 179.594 121.219 184.438L121.188 185.344H108.031C108.391 188.438 110.672 190.438 113.75 190.438C115.969 190.438 117.562 189.391 118.375 187.656L120.688 188.656C119.453 191.25 117 192.938 113.688 192.938ZM108.156 182.781H118.344C118.156 180.328 116.156 178.438 113.375 178.438C110.719 178.438 108.734 180.156 108.156 182.781ZM139.594 192.5H136.969V189.969H136.875C135.766 191.891 133.969 192.938 131.594 192.938C127.125 192.938 123.906 189.281 123.906 184.438C123.906 179.594 127.125 175.938 131.594 175.938C133.969 175.938 135.766 176.984 136.875 178.906H136.969V169.875H139.594V192.5ZM131.844 190.438C134.906 190.438 137.094 187.969 137.094 184.438C137.094 180.906 134.906 178.438 131.844 178.438C128.75 178.438 126.594 180.938 126.594 184.438C126.594 187.938 128.75 190.438 131.844 190.438ZM157.688 194V196.562H141.688V194H157.688ZM159.781 192.5V169.875H162.406V192.5H159.781ZM174.125 192.938C169.406 192.938 165.844 189.281 165.844 184.438C165.844 179.594 169.406 175.938 174.125 175.938C178.844 175.938 182.406 179.594 182.406 184.438C182.406 189.281 178.844 192.938 174.125 192.938ZM174.125 190.438C177.406 190.438 179.719 187.969 179.719 184.438C179.719 180.906 177.406 178.438 174.125 178.438C170.844 178.438 168.531 180.906 168.531 184.438C168.531 187.969 170.844 190.438 174.125 190.438ZM193.031 189.938C196.094 189.938 198.281 187.562 198.281 184.188C198.281 180.812 196.094 178.438 193.031 178.438C189.938 178.438 187.781 180.844 187.781 184.188C187.781 187.531 189.938 189.938 193.031 189.938ZM192.719 199.688C189.531 199.688 187.188 198.344 185.438 195.625L187.625 194.25C189 196.344 190.5 197.188 192.719 197.188C196.25 197.188 198.156 195.031 198.156 190.875V189.562H198.031C196.953 191.438 195.156 192.438 192.781 192.438C188.312 192.438 185.094 188.875 185.094 184.188C185.094 179.5 188.312 175.938 192.781 175.938C195.156 175.938 196.953 176.938 198.031 178.812H198.156V176.375H200.781V190.875C200.781 196.469 197.688 199.688 192.719 199.688ZM212.5 192.938C207.781 192.938 204.219 189.281 204.219 184.438C204.219 179.594 207.781 175.938 212.5 175.938C217.219 175.938 220.781 179.594 220.781 184.438C220.781 189.281 217.219 192.938 212.5 192.938ZM212.5 190.438C215.781 190.438 218.094 187.969 218.094 184.438C218.094 180.906 215.781 178.438 212.5 178.438C209.219 178.438 206.906 180.906 206.906 184.438C206.906 187.969 209.219 190.438 212.5 190.438ZM230.844 192.5L238.906 181.188L230.844 169.875H234.094L240.594 179.031H240.719L247.219 169.875H250.469L242.406 181.188L250.469 192.5H247.219L240.719 183.312H240.594L234.094 192.5H230.844ZM261.406 192.5V169.875H264.156V179.344H276.156V169.875H278.906V192.5H276.156V181.906H264.156V192.5H261.406ZM38 240.5L32.5938 224.375H35.3125L39.5625 237.688H39.6562L43.3438 224.375H45.9688L49.6562 237.688H49.7812L54 224.375H56.7188L51.3125 240.5H48.0312L44.7188 229.281H44.625L41.2812 240.5H38ZM65.9688 238.438C69.0312 238.438 71.2188 235.969 71.2188 232.438C71.2188 228.906 69.0312 226.438 65.9688 226.438C62.875 226.438 60.7188 228.938 60.7188 232.438C60.7188 235.938 62.875 238.438 65.9688 238.438ZM73.7188 240.5H71.0938V237.969H71C69.8906 239.891 68.0938 240.938 65.7188 240.938C61.25 240.938 58.0312 237.281 58.0312 232.438C58.0312 227.594 61.25 223.938 65.7188 223.938C68.0938 223.938 69.8906 224.984 71 226.906H71.0938V224.375H73.7188V240.5ZM77.9062 240.5V224.375H80.5312V226.719H80.6562C81.4375 225 83.1719 223.938 85.4688 223.938C89.0625 223.938 91.0312 226.469 91.0312 230.625V240.5H88.4062V231C88.4062 228.031 87.1562 226.438 84.9062 226.438C82.6562 226.438 80.5312 228.031 80.5312 231.5V240.5H77.9062ZM93.4688 226.562V224.375H96.2188V220.375H98.8438V224.375H102.844V226.562H98.8438V235.812C98.8438 237.562 99.5938 238.375 101.219 238.375C101.719 238.375 102.281 238.281 102.844 238.125V240.594C102.344 240.781 101.656 240.938 100.844 240.938C98 240.938 96.2188 239 96.2188 235.906V226.562H93.4688ZM113.688 240.938C108.844 240.938 105.281 237.281 105.281 232.438C105.281 227.594 108.75 223.938 113.375 223.938C118 223.938 121.219 227.594 121.219 232.438L121.188 233.344H108.031C108.391 236.438 110.672 238.438 113.75 238.438C115.969 238.438 117.562 237.391 118.375 235.656L120.688 236.656C119.453 239.25 117 240.938 113.688 240.938ZM108.156 230.781H118.344C118.156 228.328 116.156 226.438 113.375 226.438C110.719 226.438 108.734 228.156 108.156 230.781ZM139.594 240.5H136.969V237.969H136.875C135.766 239.891 133.969 240.938 131.594 240.938C127.125 240.938 123.906 237.281 123.906 232.438C123.906 227.594 127.125 223.938 131.594 223.938C133.969 223.938 135.766 224.984 136.875 226.906H136.969V217.875H139.594V240.5ZM131.844 238.438C134.906 238.438 137.094 235.969 137.094 232.438C137.094 228.906 134.906 226.438 131.844 226.438C128.75 226.438 126.594 228.938 126.594 232.438C126.594 235.938 128.75 238.438 131.844 238.438ZM157.688 242V244.562H141.688V242H157.688ZM159.781 240.5V217.875H162.406V240.5H159.781ZM174.125 240.938C169.406 240.938 165.844 237.281 165.844 232.438C165.844 227.594 169.406 223.938 174.125 223.938C178.844 223.938 182.406 227.594 182.406 232.438C182.406 237.281 178.844 240.938 174.125 240.938ZM174.125 238.438C177.406 238.438 179.719 235.969 179.719 232.438C179.719 228.906 177.406 226.438 174.125 226.438C170.844 226.438 168.531 228.906 168.531 232.438C168.531 235.969 170.844 238.438 174.125 238.438ZM193.031 237.938C196.094 237.938 198.281 235.562 198.281 232.188C198.281 228.812 196.094 226.438 193.031 226.438C189.938 226.438 187.781 228.844 187.781 232.188C187.781 235.531 189.938 237.938 193.031 237.938ZM192.719 247.688C189.531 247.688 187.188 246.344 185.438 243.625L187.625 242.25C189 244.344 190.5 245.188 192.719 245.188C196.25 245.188 198.156 243.031 198.156 238.875V237.562H198.031C196.953 239.438 195.156 240.438 192.781 240.438C188.312 240.438 185.094 236.875 185.094 232.188C185.094 227.5 188.312 223.938 192.781 223.938C195.156 223.938 196.953 224.938 198.031 226.812H198.156V224.375H200.781V238.875C200.781 244.469 197.688 247.688 192.719 247.688ZM212.5 240.938C207.781 240.938 204.219 237.281 204.219 232.438C204.219 227.594 207.781 223.938 212.5 223.938C217.219 223.938 220.781 227.594 220.781 232.438C220.781 237.281 217.219 240.938 212.5 240.938ZM212.5 238.438C215.781 238.438 218.094 235.969 218.094 232.438C218.094 228.906 215.781 226.438 212.5 226.438C209.219 226.438 206.906 228.906 206.906 232.438C206.906 235.969 209.219 238.438 212.5 238.438ZM247.688 234.938L245.875 236.75L240.125 231L234.375 236.75L232.562 234.938L238.312 229.188L232.562 223.438L234.375 221.625L240.125 227.375L245.875 221.625L247.688 223.438L241.938 229.188L247.688 234.938ZM260.344 240.5V217.875H263.094V227.344H275.094V217.875H277.844V240.5H275.094V229.906H263.094V240.5H260.344Z" fill="#B0B0B0" fill-opacity="0.28"/>
<path d="M699.469 240.5V217.875H702.219V227.344H714.219V217.875H716.969V240.5H714.219V229.906H702.219V240.5H699.469Z" fill="white"/>
<path d="M682.594 239V219.531H684.094V239H682.594Z" fill="#3385FF"/>
<path d="M536.25 245.188C535.688 245.188 535.125 245 534.594 244.469L523.125 233C522.594 232.469 522.375 231.875 522.375 231.344C522.375 230.219 523.25 229.25 524.656 229.25H535.344V220.5C535.344 219.031 536.5 217.875 537.969 217.875H547.281C548.75 217.875 549.906 219.031 549.906 220.5V229.25H554.625C558.875 229.25 562.344 232.719 562.344 236.969C562.344 241.219 558.875 244.688 554.625 244.688C550.375 244.688 546.906 241.219 546.906 236.969V232.25H538.344V242.906C538.344 244.312 537.375 245.188 536.25 245.188ZM554.625 241.688C557.219 241.688 559.344 239.562 559.344 236.969C559.344 234.375 557.219 232.25 554.625 232.25H549.906V236.969C549.906 239.562 552.031 241.688 554.625 241.688ZM660.188 240.812C655.625 240.812 652.125 237.156 652.125 232.656C652.125 228.156 655.594 224.5 660.156 224.5C662.125 224.5 663.844 225.25 664.75 226.5V217.875H668.031V240.5H664.75V238.656C663.844 239.969 662.156 240.812 660.188 240.812ZM572.594 240.5L567.062 224.781H570.5L574.125 235.844L577.406 224.781H579.844L583.125 235.844L586.75 224.781H590.188L584.656 240.5H581.531L578.625 231.688L575.719 240.5H572.594ZM598.406 240.812C593.844 240.812 590.344 237.156 590.344 232.656C590.344 228.156 593.812 224.5 598.375 224.5C600.375 224.5 602.062 225.25 602.969 226.5V224.781H606.25V240.5H602.969V238.656C602.062 239.969 600.406 240.812 598.406 240.812ZM598.406 237.688C601.094 237.688 603.281 235.375 603.281 232.656C603.281 229.906 601.094 227.625 598.406 227.625C595.75 227.625 593.531 229.906 593.531 232.656C593.531 235.375 595.75 237.688 598.406 237.688ZM609.062 240.5V224.781H612.344V226.812C613.125 225.312 615 224.5 617.125 224.5C621.062 224.5 623.125 226.969 623.125 231.375V240.5H619.844V231.562C619.844 228.844 618.344 227.312 616.094 227.312C613.875 227.312 612.344 228.844 612.344 231.562V240.5H609.062ZM631.469 240.781C628.688 240.781 627.031 238.906 627.031 235.719V227.375H624.531V224.781H627.031V221.656H630.312V224.781H634.031V227.375H630.312V235.594C630.312 237.125 630.938 237.906 632.188 237.906C632.625 237.906 633.281 237.75 634.031 237.344V240.219C633.406 240.562 632.438 240.781 631.469 240.781ZM643.188 240.812C638.438 240.812 635.156 237.438 635.156 232.656C635.156 227.844 638.438 224.5 643.188 224.5C647.5 224.5 650.531 227.938 650.531 232.531C650.531 233 650.5 233.438 650.438 233.906H638.344C638.469 236.188 640.469 237.906 643.219 237.906C645.125 237.906 646.906 236.938 647.656 235.594L650.25 236.469C649.125 239 646.375 240.812 643.188 240.812ZM647.344 231.312C647.219 229.312 645.281 227.406 642.906 227.406C640.469 227.406 638.469 229.312 638.344 231.312H647.344ZM660.188 237.688C662.875 237.688 665.062 235.375 665.062 232.656C665.062 229.906 662.875 227.625 660.188 227.625C657.531 227.625 655.312 229.906 655.312 232.656C655.312 235.375 657.531 237.688 660.188 237.688ZM527.031 232.656L534.969 240.531C535.125 240.688 535.344 240.625 535.344 240.375V232.25H527.219C526.938 232.25 526.812 232.438 527.031 232.656ZM538.344 229.25H546.906V221.219C546.906 221.031 546.75 220.875 546.562 220.875H538.688C538.5 220.875 538.344 221.031 538.344 221.219V229.25Z" fill="#3385FF"/>
<path d="M699.469 192.5V169.875H702.219V179.344H714.219V169.875H716.969V192.5H714.219V181.906H702.219V192.5H699.469Z" fill="white"/>
<path d="M682.594 191V171.531H684.094V191H682.594Z" fill="#3385FF"/>
<path d="M536.25 197.188C535.688 197.188 535.125 197 534.594 196.469L523.125 185C522.594 184.469 522.375 183.875 522.375 183.344C522.375 182.219 523.25 181.25 524.656 181.25H535.344V172.5C535.344 171.031 536.5 169.875 537.969 169.875H547.281C548.75 169.875 549.906 171.031 549.906 172.5V181.25H554.625C558.875 181.25 562.344 184.719 562.344 188.969C562.344 193.219 558.875 196.688 554.625 196.688C550.375 196.688 546.906 193.219 546.906 188.969V184.25H538.344V194.906C538.344 196.312 537.375 197.188 536.25 197.188ZM554.625 193.688C557.219 193.688 559.344 191.562 559.344 188.969C559.344 186.375 557.219 184.25 554.625 184.25H549.906V188.969C549.906 191.562 552.031 193.688 554.625 193.688ZM660.188 192.812C655.625 192.812 652.125 189.156 652.125 184.656C652.125 180.156 655.594 176.5 660.156 176.5C662.125 176.5 663.844 177.25 664.75 178.5V169.875H668.031V192.5H664.75V190.656C663.844 191.969 662.156 192.812 660.188 192.812ZM572.594 192.5L567.062 176.781H570.5L574.125 187.844L577.406 176.781H579.844L583.125 187.844L586.75 176.781H590.188L584.656 192.5H581.531L578.625 183.688L575.719 192.5H572.594ZM598.406 192.812C593.844 192.812 590.344 189.156 590.344 184.656C590.344 180.156 593.812 176.5 598.375 176.5C600.375 176.5 602.062 177.25 602.969 178.5V176.781H606.25V192.5H602.969V190.656C602.062 191.969 600.406 192.812 598.406 192.812ZM598.406 189.688C601.094 189.688 603.281 187.375 603.281 184.656C603.281 181.906 601.094 179.625 598.406 179.625C595.75 179.625 593.531 181.906 593.531 184.656C593.531 187.375 595.75 189.688 598.406 189.688ZM609.062 192.5V176.781H612.344V178.812C613.125 177.312 615 176.5 617.125 176.5C621.062 176.5 623.125 178.969 623.125 183.375V192.5H619.844V183.562C619.844 180.844 618.344 179.312 616.094 179.312C613.875 179.312 612.344 180.844 612.344 183.562V192.5H609.062ZM631.469 192.781C628.688 192.781 627.031 190.906 627.031 187.719V179.375H624.531V176.781H627.031V173.656H630.312V176.781H634.031V179.375H630.312V187.594C630.312 189.125 630.938 189.906 632.188 189.906C632.625 189.906 633.281 189.75 634.031 189.344V192.219C633.406 192.562 632.438 192.781 631.469 192.781ZM643.188 192.812C638.438 192.812 635.156 189.438 635.156 184.656C635.156 179.844 638.438 176.5 643.188 176.5C647.5 176.5 650.531 179.938 650.531 184.531C650.531 185 650.5 185.438 650.438 185.906H638.344C638.469 188.188 640.469 189.906 643.219 189.906C645.125 189.906 646.906 188.938 647.656 187.594L650.25 188.469C649.125 191 646.375 192.812 643.188 192.812ZM647.344 183.312C647.219 181.312 645.281 179.406 642.906 179.406C640.469 179.406 638.469 181.312 638.344 183.312H647.344ZM660.188 189.688C662.875 189.688 665.062 187.375 665.062 184.656C665.062 181.906 662.875 179.625 660.188 179.625C657.531 179.625 655.312 181.906 655.312 184.656C655.312 187.375 657.531 189.688 660.188 189.688ZM527.031 184.656L534.969 192.531C535.125 192.688 535.344 192.625 535.344 192.375V184.25H527.219C526.938 184.25 526.812 184.438 527.031 184.656ZM538.344 181.25H546.906V173.219C546.906 173.031 546.75 172.875 546.562 172.875H538.688C538.5 172.875 538.344 173.031 538.344 173.219V181.25Z" fill="#3385FF"/>
<path d="M699.469 144.5V121.875H702.219V131.344H714.219V121.875H716.969V144.5H714.219V133.906H702.219V144.5H699.469Z" fill="white"/>
<path d="M682.594 143V123.531H684.094V143H682.594Z" fill="#3385FF"/>
<path d="M536.25 149.188C535.688 149.188 535.125 149 534.594 148.469L523.125 137C522.594 136.469 522.375 135.875 522.375 135.344C522.375 134.219 523.25 133.25 524.656 133.25H535.344V124.5C535.344 123.031 536.5 121.875 537.969 121.875H547.281C548.75 121.875 549.906 123.031 549.906 124.5V133.25H554.625C558.875 133.25 562.344 136.719 562.344 140.969C562.344 145.219 558.875 148.688 554.625 148.688C550.375 148.688 546.906 145.219 546.906 140.969V136.25H538.344V146.906C538.344 148.312 537.375 149.188 536.25 149.188ZM554.625 145.688C557.219 145.688 559.344 143.562 559.344 140.969C559.344 138.375 557.219 136.25 554.625 136.25H549.906V140.969C549.906 143.562 552.031 145.688 554.625 145.688ZM660.188 144.812C655.625 144.812 652.125 141.156 652.125 136.656C652.125 132.156 655.594 128.5 660.156 128.5C662.125 128.5 663.844 129.25 664.75 130.5V121.875H668.031V144.5H664.75V142.656C663.844 143.969 662.156 144.812 660.188 144.812ZM572.594 144.5L567.062 128.781H570.5L574.125 139.844L577.406 128.781H579.844L583.125 139.844L586.75 128.781H590.188L584.656 144.5H581.531L578.625 135.688L575.719 144.5H572.594ZM598.406 144.812C593.844 144.812 590.344 141.156 590.344 136.656C590.344 132.156 593.812 128.5 598.375 128.5C600.375 128.5 602.062 129.25 602.969 130.5V128.781H606.25V144.5H602.969V142.656C602.062 143.969 600.406 144.812 598.406 144.812ZM598.406 141.688C601.094 141.688 603.281 139.375 603.281 136.656C603.281 133.906 601.094 131.625 598.406 131.625C595.75 131.625 593.531 133.906 593.531 136.656C593.531 139.375 595.75 141.688 598.406 141.688ZM609.062 144.5V128.781H612.344V130.812C613.125 129.312 615 128.5 617.125 128.5C621.062 128.5 623.125 130.969 623.125 135.375V144.5H619.844V135.562C619.844 132.844 618.344 131.312 616.094 131.312C613.875 131.312 612.344 132.844 612.344 135.562V144.5H609.062ZM631.469 144.781C628.688 144.781 627.031 142.906 627.031 139.719V131.375H624.531V128.781H627.031V125.656H630.312V128.781H634.031V131.375H630.312V139.594C630.312 141.125 630.938 141.906 632.188 141.906C632.625 141.906 633.281 141.75 634.031 141.344V144.219C633.406 144.562 632.438 144.781 631.469 144.781ZM643.188 144.812C638.438 144.812 635.156 141.438 635.156 136.656C635.156 131.844 638.438 128.5 643.188 128.5C647.5 128.5 650.531 131.938 650.531 136.531C650.531 137 650.5 137.438 650.438 137.906H638.344C638.469 140.188 640.469 141.906 643.219 141.906C645.125 141.906 646.906 140.938 647.656 139.594L650.25 140.469C649.125 143 646.375 144.812 643.188 144.812ZM647.344 135.312C647.219 133.312 645.281 131.406 642.906 131.406C640.469 131.406 638.469 133.312 638.344 135.312H647.344ZM660.188 141.688C662.875 141.688 665.062 139.375 665.062 136.656C665.062 133.906 662.875 131.625 660.188 131.625C657.531 131.625 655.312 133.906 655.312 136.656C655.312 139.375 657.531 141.688 660.188 141.688ZM527.031 136.656L534.969 144.531C535.125 144.688 535.344 144.625 535.344 144.375V136.25H527.219C526.938 136.25 526.812 136.438 527.031 136.656ZM538.344 133.25H546.906V125.219C546.906 125.031 546.75 124.875 546.562 124.875H538.688C538.5 124.875 538.344 125.031 538.344 125.219V133.25Z" fill="#3385FF"/>
</svg>
