<svg width="1012" height="177" viewBox="0 0 1012 177" fill="none" xmlns="http://www.w3.org/2000/svg">
<rect x="0.5" y="0.5" width="1011" height="176" rx="15.5" stroke="#70737C" stroke-opacity="0.28"/>
<rect x="32" y="32" width="52" height="24" rx="4" fill="#70737C" fill-opacity="0.22"/>
<path d="M42.9375 43.1328H43.2031C43.5547 41.4844 44.5078 40.7188 46.1328 40.7188C46.6172 40.7188 47.0625 40.7812 47.3594 40.8984V42.875C46.9766 42.7266 46.4141 42.6328 45.9453 42.6328C43.9688 42.6328 42.9297 43.7109 42.9297 45.6875V48.1406H45.4766V49.5H39.5156V48.1406H41.1797V42.3047H39.3516V40.9453H42.9375V43.1328ZM56.8203 49.5H49.5391V48.0469H52.3438V39.0938H49.6328V37.6406H54.1562V48.0469H56.8203V49.5ZM63.0781 39.0469C62.3047 39.0469 61.7578 38.5391 61.7578 37.8047C61.7578 37.0703 62.3047 36.5625 63.0781 36.5625C63.8594 36.5625 64.4062 37.0703 64.4062 37.8047C64.4062 38.5391 63.8594 39.0469 63.0781 39.0469ZM66.7109 49.5H59.4297V48.0469H62.25V42.3984H59.5234V40.9453H64.0234V48.0469H66.7109V49.5ZM70.625 45.7344C70.625 47.0703 71.4141 47.9219 72.6484 47.9219C73.875 47.9219 74.6641 47.0703 74.6641 45.7344V44.5312C74.6641 43.1953 73.875 42.3438 72.6484 42.3438C71.4141 42.3438 70.625 43.1953 70.625 44.5312V45.7344ZM72.5938 52.7188C70.4688 52.7188 69.0625 51.8047 68.9062 50.3281H70.6875C70.8438 50.9453 71.6016 51.3438 72.6172 51.3438C73.9531 51.3438 74.6797 50.7031 74.6797 49.5078V47.9609H74.5234C74.2188 48.9062 73.2344 49.5078 71.9766 49.5078C70 49.5078 68.7734 48.1094 68.7734 45.8516V44.4531C68.7734 42.1797 70.0156 40.7969 72.0469 40.7969C73.2891 40.7969 74.2422 41.3906 74.5547 42.3438H74.7109V40.9453H76.5V49.4922C76.5 51.5 75.0234 52.7188 72.5938 52.7188Z" fill="white"/>
<rect x="32" y="88" width="948" height="1" fill="#70737C" fill-opacity="0.28"/>
<path d="M33.2188 130.562V128.375H35.9688V126.469C35.9688 123.375 37.8125 121.438 40.7188 121.438C41.625 121.438 42.375 121.625 42.9688 121.844V124.312C42.2812 124.094 41.6562 124 41.0938 124C39.4062 124 38.5938 124.844 38.5938 126.562V128.375H42.9688V130.562H38.5938V144.5H35.9688V130.562H33.2188ZM46.2812 144.5V128.375H48.9062V144.5H46.2812ZM47.5938 125C46.5938 125 45.8438 124.25 45.8438 123.25C45.8438 122.25 46.5938 121.5 47.5938 121.5C48.5938 121.5 49.3438 122.25 49.3438 123.25C49.3438 124.25 48.5938 125 47.5938 125ZM60.2188 130.562V128.375H62.9688V126.469C62.9688 123.375 64.8125 121.438 67.7188 121.438C68.625 121.438 69.375 121.625 69.9688 121.844V124.312C69.2812 124.094 68.6562 124 68.0938 124C66.4062 124 65.5938 124.844 65.5938 126.562V128.375H69.9688V130.562H65.5938V144.5H62.9688V130.562H60.2188ZM73.2812 144.5V121.875H75.9062V144.5H73.2812ZM87.2188 130.562V128.375H89.9688V126.469C89.9688 123.375 91.8125 121.438 94.7188 121.438C95.625 121.438 96.375 121.625 96.9688 121.844V124.312C96.2812 124.094 95.6562 124 95.0938 124C93.4062 124 92.5938 124.844 92.5938 126.562V128.375H96.9688V130.562H92.5938V144.5H89.9688V130.562H87.2188ZM99.4062 130.562V128.375H102.156V126.469C102.156 123.375 104 121.438 106.906 121.438C107.812 121.438 108.562 121.625 109.156 121.844V124.312C108.469 124.094 107.844 124 107.281 124C105.594 124 104.781 124.844 104.781 126.562V128.375H109.156V130.562H104.781V144.5H102.156V130.562H99.4062ZM119.594 130.562V128.375H122.344V126.469C122.344 123.375 124.188 121.438 127.094 121.438C128 121.438 128.75 121.625 129.344 121.844V124.312C128.656 124.094 128.031 124 127.469 124C125.781 124 124.969 124.844 124.969 126.562V128.375H129.344V130.562H124.969V144.5H122.344V130.562H119.594ZM131.781 130.562V128.375H134.531V126.469C134.531 123.375 136.375 121.438 139.281 121.438C140.188 121.438 140.938 121.625 141.531 121.844V124.312C140.844 124.094 140.219 124 139.656 124C137.969 124 137.156 124.844 137.156 126.562V128.375H141.531V130.562H137.156V144.5H134.531V130.562H131.781ZM144.844 144.5V128.375H147.469V144.5H144.844ZM146.156 125C145.156 125 144.406 124.25 144.406 123.25C144.406 122.25 145.156 121.5 146.156 121.5C147.156 121.5 147.906 122.25 147.906 123.25C147.906 124.25 147.156 125 146.156 125ZM158.781 130.562V128.375H161.531V126.469C161.531 123.375 163.375 121.438 166.281 121.438C167.188 121.438 167.938 121.625 168.531 121.844V124.312C167.844 124.094 167.219 124 166.656 124C164.969 124 164.156 124.844 164.156 126.562V128.375H168.531V130.562H164.156V144.5H161.531V130.562H158.781ZM170.969 130.562V128.375H173.719V126.469C173.719 123.375 175.562 121.438 178.469 121.438C179.375 121.438 180.125 121.625 180.719 121.844V124.312C180.031 124.094 179.406 124 178.844 124C177.156 124 176.344 124.844 176.344 126.562V128.375H180.719V130.562H176.344V144.5H173.719V130.562H170.969ZM184.031 144.5V121.875H186.656V144.5H184.031Z" fill="#B0B0B0" fill-opacity="0.28"/>
<path d="M523.219 130.562V128.375H525.969V126.469C525.969 123.375 527.812 121.438 530.719 121.438C531.625 121.438 532.375 121.625 532.969 121.844V124.312C532.281 124.094 531.656 124 531.094 124C529.406 124 528.594 124.844 528.594 126.562V128.375H538.906V144.5H536.281V130.562H528.594V144.5H525.969V130.562H523.219ZM537.594 125C536.594 125 535.844 124.25 535.844 123.25C535.844 122.25 536.594 121.5 537.594 121.5C538.594 121.5 539.344 122.25 539.344 123.25C539.344 124.25 538.594 125 537.594 125ZM550.219 130.562V128.375H552.969V126.469C552.969 123.375 554.812 121.438 557.719 121.438C558.625 121.438 559.375 121.625 559.969 121.844V124.312C559.281 124.094 558.656 124 558.094 124C556.406 124 555.594 124.844 555.594 126.562V128.375H563.281V121.875H565.906V144.5H563.281V130.562H555.594V144.5H552.969V130.562H550.219ZM577.219 130.562V128.375H579.969V126.469C579.969 123.375 581.812 121.438 584.719 121.438C585.625 121.438 586.375 121.625 586.969 121.844V124.312C586.281 124.094 585.656 124 585.094 124C583.406 124 582.594 124.844 582.594 126.562V128.375H589.719V126.469C589.719 123.375 591.562 121.438 594.469 121.438C595.375 121.438 596.125 121.625 596.719 121.844V124.312C596.031 124.094 595.406 124 594.844 124C593.156 124 592.344 124.844 592.344 126.562V128.375H596.719V130.562H592.344V144.5H589.719V130.562H582.594V144.5H579.969V130.562H577.219ZM607.156 130.562V128.375H609.906V126.469C609.906 123.375 611.75 121.438 614.656 121.438C615.562 121.438 616.312 121.625 616.906 121.844V124.312C616.219 124.094 615.594 124 615.031 124C613.344 124 612.531 124.844 612.531 126.562V128.375H619.656V126.469C619.656 123.375 621.5 121.438 624.406 121.438C625.312 121.438 626.062 121.625 626.656 121.844V124.312C625.969 124.094 625.344 124 624.781 124C623.094 124 622.281 124.844 622.281 126.562V128.375H632.594V144.5H629.969V130.562H622.281V144.5H619.656V130.562H612.531V144.5H609.906V130.562H607.156ZM631.281 125C630.281 125 629.531 124.25 629.531 123.25C629.531 122.25 630.281 121.5 631.281 121.5C632.281 121.5 633.031 122.25 633.031 123.25C633.031 124.25 632.281 125 631.281 125ZM643.906 130.562V128.375H646.656V126.469C646.656 123.375 648.5 121.438 651.406 121.438C652.312 121.438 653.062 121.625 653.656 121.844V124.312C652.969 124.094 652.344 124 651.781 124C650.094 124 649.281 124.844 649.281 126.562V128.375H656.406V126.469C656.406 123.375 658.25 121.438 661.156 121.438C662.062 121.438 662.812 121.625 663.406 121.844V124.312C662.719 124.094 662.094 124 661.531 124C659.844 124 659.031 124.844 659.031 126.562V128.375H666.719V121.875H669.344V144.5H666.719V130.562H659.031V144.5H656.406V130.562H649.281V144.5H646.656V130.562H643.906Z" fill="#3385FF"/>
</svg>
