<svg width="1012" height="225" viewBox="0 0 1012 225" fill="none" xmlns="http://www.w3.org/2000/svg">
<rect x="0.5" y="0.5" width="1011" height="224" rx="15.5" stroke="#70737C" stroke-opacity="0.28"/>
<rect x="32" y="32" width="52" height="24" rx="4" fill="#70737C" fill-opacity="0.22"/>
<path d="M39.8359 43.3672C39.8359 41.7734 41.1484 40.7578 43.1719 40.7578C45.1328 40.7578 46.375 41.6641 46.4922 43.2031H44.7734C44.6484 42.5625 44.0312 42.1641 43.1484 42.1641C42.2344 42.1641 41.6328 42.5859 41.6328 43.2266C41.6328 43.7734 42.0234 44.0859 42.9531 44.2891L44.2266 44.5625C45.9375 44.9297 46.6953 45.6562 46.6953 46.9375C46.6953 48.6016 45.3281 49.6719 43.1797 49.6719C41.0859 49.6719 39.7578 48.7422 39.6328 47.1953H41.4375C41.5938 47.8672 42.2422 48.25 43.2109 48.25C44.2031 48.25 44.8281 47.8125 44.8281 47.1484C44.8281 46.5859 44.4688 46.2969 43.4922 46.0859L42.2109 45.8047C40.6328 45.4531 39.8359 44.6406 39.8359 43.3672ZM49.7266 43.3672C49.7266 41.7734 51.0391 40.7578 53.0625 40.7578C55.0234 40.7578 56.2656 41.6641 56.3828 43.2031H54.6641C54.5391 42.5625 53.9219 42.1641 53.0391 42.1641C52.125 42.1641 51.5234 42.5859 51.5234 43.2266C51.5234 43.7734 51.9141 44.0859 52.8438 44.2891L54.1172 44.5625C55.8281 44.9297 56.5859 45.6562 56.5859 46.9375C56.5859 48.6016 55.2188 49.6719 53.0703 49.6719C50.9766 49.6719 49.6484 48.7422 49.5234 47.1953H51.3281C51.4844 47.8672 52.1328 48.25 53.1016 48.25C54.0938 48.25 54.7188 47.8125 54.7188 47.1484C54.7188 46.5859 54.3594 46.2969 53.3828 46.0859L52.1016 45.8047C50.5234 45.4531 49.7266 44.6406 49.7266 43.3672ZM65.1484 43.1953L61 46.2578C61.3359 47.5078 62 48.1641 62.9531 48.1641C64.3906 48.1641 65.1641 46.6641 65.1641 43.8594C65.1641 43.625 65.1562 43.4062 65.1484 43.1953ZM60.75 44.5312L64.9062 41.4844C64.5703 40.2266 63.9062 39.5625 62.9531 39.5625C61.5078 39.5625 60.7344 41.0625 60.7344 43.8594C60.7344 44.0938 60.7422 44.3203 60.75 44.5312ZM62.9531 37.9844C65.5547 37.9844 67.0156 40.0938 67.0156 43.8594C67.0156 47.6328 65.5547 49.7422 62.9531 49.7422C60.3438 49.7422 58.8828 47.6328 58.8828 43.8594C58.8828 40.0938 60.3438 37.9844 62.9531 37.9844ZM74.1641 47.9141H77.1641V49.5H69.1641V47.9141H72.3125V40.1641H72.1797L69.1484 42.1562V40.3203L72.3203 38.2266H74.1641V47.9141Z" fill="white"/>
<rect x="32" y="88" width="948" height="1" fill="#70737C" fill-opacity="0.28"/>
<path d="M45.2188 144.938C38.5312 144.938 33.4688 139.875 33.4688 133.188C33.4688 126.5 38.5312 121.438 45.2188 121.438C51.9062 121.438 56.9688 126.5 56.9688 133.188C56.9688 137 55.3281 140.297 52.6562 142.406L55.7188 146.75H52.4688L50.4062 143.812C48.8594 144.531 47.0938 144.938 45.2188 144.938ZM45.2188 142.312C46.5469 142.312 47.7656 142.078 48.875 141.625L46.2188 137.875H49.4688L51.1562 140.219C53.0312 138.625 54.1562 136.141 54.1562 133.188C54.1562 127.844 50.4688 124.062 45.2188 124.062C39.9688 124.062 36.2812 127.844 36.2812 133.188C36.2812 138.531 39.9688 142.312 45.2188 142.312ZM73.6562 128.375V144.5H71.0312V142.156H70.9375C70.125 143.875 68.3906 144.938 66.0938 144.938C62.5 144.938 60.5312 142.406 60.5312 138.25V128.375H63.1562V137.875C63.1562 140.844 64.4062 142.438 66.6562 142.438C68.9062 142.438 71.0312 140.844 71.0312 137.375V128.375H73.6562ZM77.8438 144.5V128.375H80.4688V144.5H77.8438ZM79.1562 125C78.1562 125 77.4062 124.25 77.4062 123.25C77.4062 122.25 78.1562 121.5 79.1562 121.5C80.1562 121.5 80.9062 122.25 80.9062 123.25C80.9062 124.25 80.1562 125 79.1562 125ZM84.6562 144.5V128.375H87.2812V130.719H87.4062C88.1875 129 89.9219 127.938 92.2188 127.938C95.8125 127.938 97.7812 130.469 97.7812 134.625V144.5H95.1562V135C95.1562 132.031 93.9062 130.438 91.6562 130.438C89.4062 130.438 87.2812 132.031 87.2812 135.5V144.5H84.6562ZM109.562 144.938C104.781 144.938 101.219 141.281 101.219 136.438C101.219 131.594 104.781 127.938 109.562 127.938C112.547 127.938 114.953 129.359 116.281 131.688L113.969 132.875C113.094 131.328 111.562 130.438 109.562 130.438C106.219 130.438 103.906 132.906 103.906 136.438C103.906 139.969 106.219 142.438 109.562 142.438C111.562 142.438 113.094 141.547 113.969 140L116.281 141.188C114.953 143.516 112.547 144.938 109.562 144.938ZM125.062 144.5L118.219 128.375H121.062L126.406 141.188H126.531L131.312 128.375H134.094L125.312 151.25H122.469L125.062 144.5ZM143.156 151.688C142.25 151.688 141.5 151.5 140.906 151.281V148.812C141.594 149.031 142.219 149.125 142.781 149.125C144.469 149.125 145.281 148.281 145.281 146.562V128.375H147.906V146.656C147.906 149.75 146.062 151.688 143.156 151.688ZM146.594 125C145.594 125 144.844 124.25 144.844 123.25C144.844 122.25 145.594 121.5 146.594 121.5C147.594 121.5 148.344 122.25 148.344 123.25C148.344 124.25 147.594 125 146.594 125ZM165.219 128.375V144.5H162.594V142.156H162.5C161.688 143.875 159.953 144.938 157.656 144.938C154.062 144.938 152.094 142.406 152.094 138.25V128.375H154.719V137.875C154.719 140.844 155.969 142.438 158.219 142.438C160.469 142.438 162.594 140.844 162.594 137.375V128.375H165.219ZM174.906 144.938C172.281 144.938 170.188 143.906 168.656 141.875L170.781 140.375C171.844 141.812 173.094 142.438 174.906 142.438C177.156 142.438 178.469 141.5 178.469 139.906C178.469 138.656 177.625 138.031 175.031 137.375L174.156 137.156C170.812 136.312 169.219 134.875 169.219 132.688C169.219 129.969 171.656 127.938 174.906 127.938C177.312 127.938 179.531 129.062 180.812 130.969L178.625 132.406C177.719 131.125 176.438 130.438 174.906 130.438C173.125 130.438 171.906 131.344 171.906 132.688C171.906 133.688 172.562 134.156 174.781 134.719L175.656 134.938C179.469 135.875 181.156 137.406 181.156 139.906C181.156 142.906 178.625 144.938 174.906 144.938ZM183.094 130.562V128.375H185.844V124.375H188.469V128.375H192.469V130.562H188.469V139.812C188.469 141.562 189.219 142.375 190.844 142.375C191.344 142.375 191.906 142.281 192.469 142.125V144.594C191.969 144.781 191.281 144.938 190.469 144.938C187.625 144.938 185.844 143 185.844 139.906V130.562H183.094ZM203.906 144.5V121.875H206.531V144.5H203.906ZM218.25 144.938C213.531 144.938 209.969 141.281 209.969 136.438C209.969 131.594 213.531 127.938 218.25 127.938C222.969 127.938 226.531 131.594 226.531 136.438C226.531 141.281 222.969 144.938 218.25 144.938ZM218.25 142.438C221.531 142.438 223.844 139.969 223.844 136.438C223.844 132.906 221.531 130.438 218.25 130.438C214.969 130.438 212.656 132.906 212.656 136.438C212.656 139.969 214.969 142.438 218.25 142.438ZM234.031 144.5L227.844 128.375H230.688L235.719 141.906H235.844L240.875 128.375H243.719L237.531 144.5H234.031ZM253.438 144.938C248.594 144.938 245.031 141.281 245.031 136.438C245.031 131.594 248.5 127.938 253.125 127.938C257.75 127.938 260.969 131.594 260.969 136.438L260.938 137.344H247.781C248.141 140.438 250.422 142.438 253.5 142.438C255.719 142.438 257.312 141.391 258.125 139.656L260.438 140.656C259.203 143.25 256.75 144.938 253.438 144.938ZM247.906 134.781H258.094C257.906 132.328 255.906 130.438 253.125 130.438C250.469 130.438 248.484 132.156 247.906 134.781ZM269.781 144.938C267.156 144.938 265.062 143.906 263.531 141.875L265.656 140.375C266.719 141.812 267.969 142.438 269.781 142.438C272.031 142.438 273.344 141.5 273.344 139.906C273.344 138.656 272.5 138.031 269.906 137.375L269.031 137.156C265.688 136.312 264.094 134.875 264.094 132.688C264.094 129.969 266.531 127.938 269.781 127.938C272.188 127.938 274.406 129.062 275.688 130.969L273.5 132.406C272.594 131.125 271.312 130.438 269.781 130.438C268 130.438 266.781 131.344 266.781 132.688C266.781 133.688 267.438 134.156 269.656 134.719L270.531 134.938C274.344 135.875 276.031 137.406 276.031 139.906C276.031 142.906 273.5 144.938 269.781 144.938ZM292.812 144.5L285.969 128.375H288.812L294.156 141.188H294.281L299.062 128.375H301.844L293.062 151.25H290.219L292.812 144.5ZM311.438 144.938C306.719 144.938 303.156 141.281 303.156 136.438C303.156 131.594 306.719 127.938 311.438 127.938C316.156 127.938 319.719 131.594 319.719 136.438C319.719 141.281 316.156 144.938 311.438 144.938ZM311.438 142.438C314.719 142.438 317.031 139.969 317.031 136.438C317.031 132.906 314.719 130.438 311.438 130.438C308.156 130.438 305.844 132.906 305.844 136.438C305.844 139.969 308.156 142.438 311.438 142.438ZM336.281 128.375V144.5H333.656V142.156H333.562C332.75 143.875 331.016 144.938 328.719 144.938C325.125 144.938 323.156 142.406 323.156 138.25V128.375H325.781V137.875C325.781 140.844 327.031 142.438 329.281 142.438C331.531 142.438 333.656 140.844 333.656 137.375V128.375H336.281ZM342.375 144.75C341.25 144.75 340.438 143.938 340.438 142.812C340.438 141.688 341.25 140.875 342.375 140.875C343.5 140.875 344.312 141.688 344.312 142.812C344.312 143.938 343.5 144.75 342.375 144.75ZM33.875 173.875C35.6562 172.812 37.4375 171.5 39.3125 169.875H42V192.5H39.3125V173.344H39.1875C37.4531 174.719 35.6406 175.922 33.875 176.844V173.875ZM47.75 189.938C55.75 184.469 59.4062 180.188 59.4062 176.375C59.4062 173.594 57.5312 172 54.8438 172C52.75 172 51.2188 172.969 50.375 175.75L47.75 175C48.9375 171.094 51.5938 169.438 54.8438 169.438C58.9688 169.438 62.1562 172.094 62.1562 176.375C62.1562 180.781 58.4375 185.109 52.1562 189.812V189.938H62.5V192.5H47.75V189.938ZM74.25 192.938C70.5 192.938 67.75 191.031 66.125 187.656L68.5938 186.531C69.8438 189.125 71.7188 190.375 74.25 190.375C77.2812 190.375 79.5 188.594 79.5 186.125C79.5 183.5 77 181.906 72.875 181.906H72.125V179.344H72.875C76.4688 179.344 78.5938 178 78.5938 175.688C78.5938 173.531 76.75 172 74.1875 172C72 172 70.2812 173.125 69.25 175.25L66.7812 174.125C68.2812 171.031 71 169.438 74.1875 169.438C78.2812 169.438 81.3438 172.094 81.3438 175.625C81.3438 178.094 79.8438 179.781 77.0625 180.562V180.656C80.3594 181.547 82.25 183.531 82.25 186.312C82.25 190.094 78.8125 192.938 74.25 192.938ZM85.375 187.406V184.844L94.1562 169.875H97.2188L88.5938 184.625V184.844H96.5312V177.75H99.2188V184.844H102.75V187.406H99.2188V192.5H96.5312V187.406H85.375ZM106.281 182.906L107.469 169.844H120.125V172.406H110L109.25 180.219H109.375C110.594 178.719 112.406 177.812 114.5 177.812C118.438 177.812 121.625 181.031 121.625 185.375C121.625 189.812 118.312 192.938 113.625 192.938C110.031 192.938 107.156 191.062 105.5 187.656L107.969 186.531C109.219 189.125 111.125 190.375 113.625 190.375C116.781 190.375 118.875 188.375 118.875 185.375C118.875 182.375 116.781 180.375 113.656 180.375C111.5 180.375 109.828 181.328 109 182.906H106.281ZM133.219 192.938C127.844 192.938 124.875 188.594 124.875 181.719C124.875 173.812 128.75 169.438 133.906 169.438C136.688 169.438 139.125 170.719 140.625 172.906L138.312 174.344C137.281 172.75 135.594 172 133.906 172C130.531 172 127.828 174.984 127.656 181.031H127.781C129.047 179.031 131.219 177.812 133.781 177.812C137.844 177.812 141 180.938 141 185.375C141 189.844 137.781 192.938 133.219 192.938ZM133.219 190.375C136.156 190.375 138.25 188.312 138.25 185.375C138.25 182.438 136.156 180.375 133.219 180.375C130.281 180.375 128.188 182.438 128.188 185.375C128.188 188.312 130.281 190.375 133.219 190.375ZM144.5 172.438V169.875H159.375V172.438C154.562 178.312 151.938 184.906 151.312 192.5H148.75C149.312 185.078 151.688 178.5 156.031 172.562V172.438H144.5ZM170.438 190.375C173.562 190.375 175.75 188.625 175.75 186.125C175.75 183.625 173.562 181.875 170.438 181.875C167.312 181.875 165.125 183.625 165.125 186.125C165.125 188.625 167.312 190.375 170.438 190.375ZM170.438 179.375C172.781 179.375 174.438 177.844 174.438 175.688C174.438 173.531 172.781 172 170.438 172C168.094 172 166.438 173.531 166.438 175.688C166.438 177.844 168.094 179.375 170.438 179.375ZM162.375 186.25C162.375 183.641 164.062 181.422 167.125 180.5V180.406C164.922 179.609 163.719 177.906 163.719 175.625C163.719 172.094 166.594 169.438 170.438 169.438C174.281 169.438 177.156 172.094 177.156 175.625C177.156 177.906 175.953 179.609 173.75 180.406V180.5C176.828 181.422 178.5 183.641 178.5 186.25C178.5 190.031 175.031 192.938 170.438 192.938C165.844 192.938 162.375 190.031 162.375 186.25ZM188.844 192.938C186.031 192.938 183.75 191.594 182 189L184.25 187.562C185.625 189.531 187.031 190.375 188.844 190.375C192.219 190.375 194.922 187.391 195.125 181.344H195C193.703 183.344 191.531 184.562 188.969 184.562C184.906 184.562 181.75 181.438 181.75 177C181.75 172.531 184.969 169.438 189.531 169.438C194.906 169.438 197.875 173.781 197.875 180.656C197.875 188.562 194 192.938 188.844 192.938ZM189.531 182C192.469 182 194.562 179.938 194.562 177C194.562 174.062 192.469 172 189.531 172C186.594 172 184.5 174.062 184.5 177C184.5 179.938 186.594 182 189.531 182ZM209.5 192.938C204.344 192.938 201.125 188.406 201.125 181.188C201.125 173.969 204.344 169.438 209.5 169.438C214.656 169.438 217.875 173.969 217.875 181.188C217.875 188.406 214.656 192.938 209.5 192.938ZM209.5 190.375C212.938 190.375 215.125 186.812 215.125 181.188C215.125 175.562 212.938 172 209.5 172C206.062 172 203.875 175.562 203.875 181.188C203.875 186.812 206.062 190.375 209.5 190.375Z" fill="#B0B0B0" fill-opacity="0.28"/>
<path d="M698.25 192.938C693.094 192.938 689.875 188.406 689.875 181.188C689.875 173.969 693.094 169.438 698.25 169.438C703.406 169.438 706.625 173.969 706.625 181.188C706.625 188.406 703.406 192.938 698.25 192.938ZM698.25 190.375C701.688 190.375 703.875 186.812 703.875 181.188C703.875 175.562 701.688 172 698.25 172C694.812 172 692.625 175.562 692.625 181.188C692.625 186.812 694.812 190.375 698.25 190.375Z" fill="white"/>
<path d="M678.875 169.438C683.312 169.438 686.656 172.75 686.656 177.469C686.656 179.969 685.75 182.156 682.5 186.75L678.438 192.5H675.125L680.406 185.25C680.984 184.453 681.484 183.75 681.938 183.094L681.844 183.031C680.766 183.891 679.422 184.375 677.906 184.375C674.094 184.375 671.094 181.219 671.094 177.125C671.094 172.75 674.438 169.438 678.875 169.438ZM678.875 172C675.906 172 673.844 174.062 673.844 177C673.844 179.938 675.906 182 678.875 182C681.844 182 683.906 179.938 683.906 177C683.906 174.062 681.844 172 678.875 172Z" fill="#3385FF"/>
<path d="M659.812 190.375C662.938 190.375 665.125 188.625 665.125 186.125C665.125 183.625 662.938 181.875 659.812 181.875C656.688 181.875 654.5 183.625 654.5 186.125C654.5 188.625 656.688 190.375 659.812 190.375ZM659.812 179.375C662.156 179.375 663.812 177.844 663.812 175.688C663.812 173.531 662.156 172 659.812 172C657.469 172 655.812 173.531 655.812 175.688C655.812 177.844 657.469 179.375 659.812 179.375ZM651.75 186.25C651.75 183.641 653.438 181.422 656.5 180.5V180.406C654.297 179.609 653.094 177.906 653.094 175.625C653.094 172.094 655.969 169.438 659.812 169.438C663.656 169.438 666.531 172.094 666.531 175.625C666.531 177.906 665.328 179.609 663.125 180.406V180.5C666.203 181.422 667.875 183.641 667.875 186.25C667.875 190.031 664.406 192.938 659.812 192.938C655.219 192.938 651.75 190.031 651.75 186.25Z" fill="white"/>
<path d="M635.562 192.5L645.688 172.562V172.438H633.875V169.875H648.75V172.438L638.562 192.5H635.562Z" fill="#3385FF"/>
<path d="M622.625 192.938C618.188 192.938 614.844 189.625 614.844 184.906C614.844 182.406 615.75 180.219 619 175.625L623.062 169.875H626.375L621.094 177.125C620.516 177.922 620.016 178.625 619.594 179.281L619.688 179.344C620.734 178.484 622.078 178 623.594 178C627.406 178 630.406 181.156 630.406 185.25C630.406 189.625 627.062 192.938 622.625 192.938ZM622.625 190.375C625.594 190.375 627.656 188.312 627.656 185.375C627.656 182.438 625.594 180.375 622.625 180.375C619.656 180.375 617.594 182.438 617.594 185.375C617.594 188.312 619.656 190.375 622.625 190.375Z" fill="#3385FF"/>
<path d="M596.281 182.906L597.469 169.844H610.125V172.406H600L599.25 180.219H599.375C600.594 178.719 602.406 177.812 604.5 177.812C608.438 177.812 611.625 181.031 611.625 185.375C611.625 189.812 608.312 192.938 603.625 192.938C600.031 192.938 597.156 191.062 595.5 187.656L597.969 186.531C599.219 189.125 601.125 190.375 603.625 190.375C606.781 190.375 608.875 188.375 608.875 185.375C608.875 182.375 606.781 180.375 603.656 180.375C601.5 180.375 599.828 181.328 599 182.906H596.281Z" fill="white"/>
<path d="M575.375 187.406V184.844L584.156 169.875H587.219L578.594 184.625V184.844H586.531V177.75H589.219V184.844H592.75V187.406H589.219V192.5H586.531V187.406H575.375Z" fill="white"/>
<path d="M564.25 192.938C560.5 192.938 557.75 191.031 556.125 187.656L558.594 186.531C559.844 189.125 561.719 190.375 564.25 190.375C567.281 190.375 569.5 188.594 569.5 186.125C569.5 183.5 567 181.906 562.875 181.906H562.125V179.344H562.875C566.469 179.344 568.594 178 568.594 175.688C568.594 173.531 566.75 172 564.188 172C562 172 560.281 173.125 559.25 175.25L556.781 174.125C558.281 171.031 561 169.438 564.188 169.438C568.281 169.438 571.344 172.094 571.344 175.625C571.344 178.094 569.844 179.781 567.062 180.562V180.656C570.359 181.547 572.25 183.531 572.25 186.312C572.25 190.094 568.812 192.938 564.25 192.938Z" fill="white"/>
<path d="M537.75 192.5V190.125L543.219 184.562C547.531 180.156 549.406 178.812 549.406 176.125C549.406 173.531 547.625 172 544.844 172C542.75 172 541.219 172.969 540.375 175.75L537.75 175C538.938 171.094 541.594 169.438 544.844 169.438C549.125 169.438 552.156 172.125 552.156 176.125C552.156 180.094 549.25 182.25 545.219 186.312L541.75 189.812V189.938H552.5V192.5H537.75Z" fill="#3385FF"/>
<path d="M523.875 176.938V173.75L529.312 169.875H532V192.5H529.312V173.156H529.188L523.875 176.938Z" fill="#3385FF"/>
<path d="M831.094 144.75C829.969 144.75 829.156 143.938 829.156 142.812C829.156 141.688 829.969 140.875 831.094 140.875C832.219 140.875 833.031 141.688 833.031 142.812C833.031 143.938 832.219 144.75 831.094 144.75Z" fill="white"/>
<path d="M819.281 144.938C815.25 144.938 812.562 142.062 812.562 137.75V128.375H815.25V137.75C815.25 140.594 816.812 142.375 819.281 142.375C821.75 142.375 823.312 140.594 823.312 137.75V128.375H826V137.75C826 142.062 823.312 144.938 819.281 144.938Z" fill="#3385FF"/>
<path d="M800.844 144.938C796.125 144.938 792.562 141.281 792.562 136.438C792.562 131.594 796.125 127.938 800.844 127.938C805.562 127.938 809.125 131.594 809.125 136.438C809.125 141.281 805.562 144.938 800.844 144.938ZM800.844 142.438C804.125 142.438 806.438 139.969 806.438 136.438C806.438 132.906 804.125 130.438 800.844 130.438C797.562 130.438 795.25 132.906 795.25 136.438C795.25 139.969 797.562 142.438 800.844 142.438Z" fill="white"/>
<path d="M782.219 144.5L775.375 128.375H778.219L783.562 141.188H783.688L788.469 128.375H791.25L782.469 151.25H779.625L782.219 144.5Z" fill="white"/>
<path d="M759.188 144.938C756.562 144.938 754.469 143.906 752.938 141.875L755.062 140.375C756.125 141.812 757.375 142.438 759.188 142.438C761.438 142.438 762.75 141.5 762.75 139.906C762.75 138.656 761.906 138.031 759.312 137.375L758.438 137.156C755.094 136.312 753.5 134.875 753.5 132.688C753.5 129.969 755.938 127.938 759.188 127.938C761.594 127.938 763.812 129.062 765.094 130.969L762.906 132.406C762 131.125 760.719 130.438 759.188 130.438C757.406 130.438 756.188 131.344 756.188 132.688C756.188 133.688 756.844 134.156 759.062 134.719L759.938 134.938C763.75 135.875 765.438 137.406 765.438 139.906C765.438 142.906 762.906 144.938 759.188 144.938Z" fill="white"/>
<path d="M742.844 144.938C738 144.938 734.438 141.281 734.438 136.438C734.438 131.594 737.906 127.938 742.531 127.938C747.156 127.938 750.375 131.594 750.375 136.438L750.344 137.344H737.188C737.547 140.438 739.828 142.438 742.906 142.438C745.125 142.438 746.719 141.391 747.531 139.656L749.844 140.656C748.609 143.25 746.156 144.938 742.844 144.938ZM737.312 134.781H747.5C747.312 132.328 745.312 130.438 742.531 130.438C739.875 130.438 737.891 132.156 737.312 134.781Z" fill="white"/>
<path d="M723.438 144.5L717.25 128.375H720.094L725.125 141.906H725.25L730.281 128.375H733.125L726.938 144.5H723.438Z" fill="white"/>
<path d="M707.656 144.938C702.938 144.938 699.375 141.281 699.375 136.438C699.375 131.594 702.938 127.938 707.656 127.938C712.375 127.938 715.938 131.594 715.938 136.438C715.938 141.281 712.375 144.938 707.656 144.938ZM707.656 142.438C710.938 142.438 713.25 139.969 713.25 136.438C713.25 132.906 710.938 130.438 707.656 130.438C704.375 130.438 702.062 132.906 702.062 136.438C702.062 139.969 704.375 142.438 707.656 142.438Z" fill="white"/>
<path d="M693.312 144.5V121.875H695.938V144.5H693.312Z" fill="white"/>
<path d="M673.125 130.562V128.375H675.875V124.375H678.5V128.375H682.25V130.562H678.5V144.5H675.875V130.562H673.125Z" fill="#3385FF"/>
<path d="M664.812 144.938C662.188 144.938 660.094 143.906 658.562 141.875L660.688 140.375C661.75 141.812 663 142.438 664.812 142.438C667.062 142.438 668.375 141.5 668.375 139.906C668.375 138.656 667.531 138.031 664.938 137.375L664.062 137.156C660.719 136.312 659.125 134.875 659.125 132.688C659.125 129.969 661.562 127.938 664.812 127.938C667.219 127.938 669.438 129.062 670.719 130.969L668.531 132.406C667.625 131.125 666.344 130.438 664.812 130.438C663.031 130.438 661.812 131.344 661.812 132.688C661.812 133.688 662.469 134.156 664.688 134.719L665.562 134.938C669.375 135.875 671.062 137.406 671.062 139.906C671.062 142.906 668.531 144.938 664.812 144.938Z" fill="white"/>
<path d="M648.406 144.938C644.375 144.938 641.688 142.062 641.688 137.75V128.375H644.375V137.75C644.375 140.594 645.938 142.375 648.406 142.375C650.875 142.375 652.438 140.594 652.438 137.75V128.375H655.125V137.75C655.125 142.062 652.438 144.938 648.406 144.938Z" fill="#3385FF"/>
<path d="M634.875 151.25V128.375H637.5V151.25H634.875ZM636.156 125C635.156 125 634.406 124.25 634.406 123.25C634.406 122.25 635.156 121.5 636.156 121.5C637.156 121.5 637.906 122.25 637.906 123.25C637.906 124.25 637.156 125 636.156 125Z" fill="#3385FF"/>
<path d="M615.156 144.5L608.312 128.375H611.156L616.5 141.188H616.625L621.406 128.375H624.188L615.406 151.25H612.562L615.156 144.5Z" fill="white"/>
<path d="M599.656 144.938C594.875 144.938 591.312 141.281 591.312 136.438C591.312 131.594 594.875 127.938 599.656 127.938C602.641 127.938 605.047 129.359 606.375 131.688L604.062 132.875C603.188 131.328 601.656 130.438 599.656 130.438C596.312 130.438 594 132.906 594 136.438C594 139.969 596.312 142.438 599.656 142.438C601.656 142.438 603.188 141.547 604.062 140L606.375 141.188C605.047 143.516 602.641 144.938 599.656 144.938Z" fill="white"/>
<path d="M574.75 144.5V128.375H577.375V130.719H577.5C578.281 129 580.016 127.938 582.312 127.938C585.906 127.938 587.875 130.469 587.875 134.625V144.5H585.25V135C585.25 132.031 584 130.438 581.75 130.438C579.5 130.438 577.375 132.031 577.375 135.5V144.5H574.75Z" fill="white"/>
<path d="M567.938 144.5V128.375H570.562V144.5H567.938ZM569.25 125C568.25 125 567.5 124.25 567.5 123.25C567.5 122.25 568.25 121.5 569.25 121.5C570.25 121.5 571 122.25 571 123.25C571 124.25 570.25 125 569.25 125Z" fill="white"/>
<path d="M557.031 144.938C553 144.938 550.312 142.062 550.312 137.75V128.375H553V137.75C553 140.594 554.562 142.375 557.031 142.375C559.5 142.375 561.062 140.594 561.062 137.75V128.375H563.75V137.75C563.75 142.062 561.062 144.938 557.031 144.938Z" fill="#3385FF"/>
<path d="M535.781 144.5C528.406 144.5 523.469 139.875 523.469 132.969C523.469 126.375 528.406 121.438 535 121.438C541.594 121.438 546.531 126.375 546.531 132.969C546.531 137.047 544.609 140.219 541.375 141.938H547.75V144.5H535.781ZM535 141.875C540.125 141.875 543.719 138.188 543.719 132.969C543.719 127.75 540.125 124.062 535 124.062C529.875 124.062 526.281 127.75 526.281 132.969C526.281 138.188 529.875 141.875 535 141.875Z" fill="#3385FF"/>
</svg>
