<svg width="1012" height="177" viewBox="0 0 1012 177" fill="none" xmlns="http://www.w3.org/2000/svg">
<rect x="0.5" y="0.5" width="1011" height="176" rx="15.5" stroke="#70737C" stroke-opacity="0.28"/>
<rect x="32" y="32" width="52" height="24" rx="4" fill="#70737C" fill-opacity="0.22"/>
<path d="M39.8359 43.3672C39.8359 41.7734 41.1484 40.7578 43.1719 40.7578C45.1328 40.7578 46.375 41.6641 46.4922 43.2031H44.7734C44.6484 42.5625 44.0312 42.1641 43.1484 42.1641C42.2344 42.1641 41.6328 42.5859 41.6328 43.2266C41.6328 43.7734 42.0234 44.0859 42.9531 44.2891L44.2266 44.5625C45.9375 44.9297 46.6953 45.6562 46.6953 46.9375C46.6953 48.6016 45.3281 49.6719 43.1797 49.6719C41.0859 49.6719 39.7578 48.7422 39.6328 47.1953H41.4375C41.5938 47.8672 42.2422 48.25 43.2109 48.25C44.2031 48.25 44.8281 47.8125 44.8281 47.1484C44.8281 46.5859 44.4688 46.2969 43.4922 46.0859L42.2109 45.8047C40.6328 45.4531 39.8359 44.6406 39.8359 43.3672ZM49.7266 43.3672C49.7266 41.7734 51.0391 40.7578 53.0625 40.7578C55.0234 40.7578 56.2656 41.6641 56.3828 43.2031H54.6641C54.5391 42.5625 53.9219 42.1641 53.0391 42.1641C52.125 42.1641 51.5234 42.5859 51.5234 43.2266C51.5234 43.7734 51.9141 44.0859 52.8438 44.2891L54.1172 44.5625C55.8281 44.9297 56.5859 45.6562 56.5859 46.9375C56.5859 48.6016 55.2188 49.6719 53.0703 49.6719C50.9766 49.6719 49.6484 48.7422 49.5234 47.1953H51.3281C51.4844 47.8672 52.1328 48.25 53.1016 48.25C54.0938 48.25 54.7188 47.8125 54.7188 47.1484C54.7188 46.5859 54.3594 46.2969 53.3828 46.0859L52.1016 45.8047C50.5234 45.4531 49.7266 44.6406 49.7266 43.3672ZM65.1484 43.1953L61 46.2578C61.3359 47.5078 62 48.1641 62.9531 48.1641C64.3906 48.1641 65.1641 46.6641 65.1641 43.8594C65.1641 43.625 65.1562 43.4062 65.1484 43.1953ZM60.75 44.5312L64.9062 41.4844C64.5703 40.2266 63.9062 39.5625 62.9531 39.5625C61.5078 39.5625 60.7344 41.0625 60.7344 43.8594C60.7344 44.0938 60.7422 44.3203 60.75 44.5312ZM62.9531 37.9844C65.5547 37.9844 67.0156 40.0938 67.0156 43.8594C67.0156 47.6328 65.5547 49.7422 62.9531 49.7422C60.3438 49.7422 58.8828 47.6328 58.8828 43.8594C58.8828 40.0938 60.3438 37.9844 62.9531 37.9844ZM68.9688 41.5312C68.9688 39.4453 70.5391 38 72.7812 38C75.0078 38 76.5156 39.3047 76.5156 41.2266C76.5156 42.4297 75.9141 43.4375 74.0547 45.3203L71.6719 47.75V47.8906H76.6953V49.5H69.0703V48.1953L72.7969 44.3125C74.2891 42.7422 74.6719 42.1484 74.6719 41.3359C74.6719 40.2578 73.8984 39.5547 72.7266 39.5547C71.5312 39.5547 70.7422 40.3438 70.7422 41.5234V41.5781H68.9688V41.5312Z" fill="white"/>
<rect x="32" y="88" width="948" height="1" fill="#70737C" fill-opacity="0.28"/>
<path d="M33.875 125.875C35.6562 124.812 37.4375 123.5 39.3125 121.875H42V144.5H39.3125V125.344H39.1875C37.4531 126.719 35.6406 127.922 33.875 128.844V125.875ZM47.75 141.938C55.75 136.469 59.4062 132.188 59.4062 128.375C59.4062 125.594 57.5312 124 54.8438 124C52.75 124 51.2188 124.969 50.375 127.75L47.75 127C48.9375 123.094 51.5938 121.438 54.8438 121.438C58.9688 121.438 62.1562 124.094 62.1562 128.375C62.1562 132.781 58.4375 137.109 52.1562 141.812V141.938H62.5V144.5H47.75V141.938ZM74.25 144.938C70.5 144.938 67.75 143.031 66.125 139.656L68.5938 138.531C69.8438 141.125 71.7188 142.375 74.25 142.375C77.2812 142.375 79.5 140.594 79.5 138.125C79.5 135.5 77 133.906 72.875 133.906H72.125V131.344H72.875C76.4688 131.344 78.5938 130 78.5938 127.688C78.5938 125.531 76.75 124 74.1875 124C72 124 70.2812 125.125 69.25 127.25L66.7812 126.125C68.2812 123.031 71 121.438 74.1875 121.438C78.2812 121.438 81.3438 124.094 81.3438 127.625C81.3438 130.094 79.8438 131.781 77.0625 132.562V132.656C80.3594 133.547 82.25 135.531 82.25 138.312C82.25 142.094 78.8125 144.938 74.25 144.938ZM85.375 139.406V136.844L94.1562 121.875H97.2188L88.5938 136.625V136.844H96.5312V129.75H99.2188V136.844H102.75V139.406H99.2188V144.5H96.5312V139.406H85.375ZM106.281 134.906L107.469 121.844H120.125V124.406H110L109.25 132.219H109.375C110.594 130.719 112.406 129.812 114.5 129.812C118.438 129.812 121.625 133.031 121.625 137.375C121.625 141.812 118.312 144.938 113.625 144.938C110.031 144.938 107.156 143.062 105.5 139.656L107.969 138.531C109.219 141.125 111.125 142.375 113.625 142.375C116.781 142.375 118.875 140.375 118.875 137.375C118.875 134.375 116.781 132.375 113.656 132.375C111.5 132.375 109.828 133.328 109 134.906H106.281ZM133.219 144.938C127.844 144.938 124.875 140.594 124.875 133.719C124.875 125.812 128.75 121.438 133.906 121.438C136.688 121.438 139.125 122.719 140.625 124.906L138.312 126.344C137.281 124.75 135.594 124 133.906 124C130.531 124 127.828 126.984 127.656 133.031H127.781C129.047 131.031 131.219 129.812 133.781 129.812C137.844 129.812 141 132.938 141 137.375C141 141.844 137.781 144.938 133.219 144.938ZM133.219 142.375C136.156 142.375 138.25 140.312 138.25 137.375C138.25 134.438 136.156 132.375 133.219 132.375C130.281 132.375 128.188 134.438 128.188 137.375C128.188 140.312 130.281 142.375 133.219 142.375ZM144.5 124.438V121.875H159.375V124.438C154.562 130.312 151.938 136.906 151.312 144.5H148.75C149.312 137.078 151.688 130.5 156.031 124.562V124.438H144.5ZM170.438 142.375C173.562 142.375 175.75 140.625 175.75 138.125C175.75 135.625 173.562 133.875 170.438 133.875C167.312 133.875 165.125 135.625 165.125 138.125C165.125 140.625 167.312 142.375 170.438 142.375ZM170.438 131.375C172.781 131.375 174.438 129.844 174.438 127.688C174.438 125.531 172.781 124 170.438 124C168.094 124 166.438 125.531 166.438 127.688C166.438 129.844 168.094 131.375 170.438 131.375ZM162.375 138.25C162.375 135.641 164.062 133.422 167.125 132.5V132.406C164.922 131.609 163.719 129.906 163.719 127.625C163.719 124.094 166.594 121.438 170.438 121.438C174.281 121.438 177.156 124.094 177.156 127.625C177.156 129.906 175.953 131.609 173.75 132.406V132.5C176.828 133.422 178.5 135.641 178.5 138.25C178.5 142.031 175.031 144.938 170.438 144.938C165.844 144.938 162.375 142.031 162.375 138.25ZM188.844 144.938C186.031 144.938 183.75 143.594 182 141L184.25 139.562C185.625 141.531 187.031 142.375 188.844 142.375C192.219 142.375 194.922 139.391 195.125 133.344H195C193.703 135.344 191.531 136.562 188.969 136.562C184.906 136.562 181.75 133.438 181.75 129C181.75 124.531 184.969 121.438 189.531 121.438C194.906 121.438 197.875 125.781 197.875 132.656C197.875 140.562 194 144.938 188.844 144.938ZM189.531 134C192.469 134 194.562 131.938 194.562 129C194.562 126.062 192.469 124 189.531 124C186.594 124 184.5 126.062 184.5 129C184.5 131.938 186.594 134 189.531 134ZM209.5 144.938C204.344 144.938 201.125 140.406 201.125 133.188C201.125 125.969 204.344 121.438 209.5 121.438C214.656 121.438 217.875 125.969 217.875 133.188C217.875 140.406 214.656 144.938 209.5 144.938ZM209.5 142.375C212.938 142.375 215.125 138.812 215.125 133.188C215.125 127.562 212.938 124 209.5 124C206.062 124 203.875 127.562 203.875 133.188C203.875 138.812 206.062 142.375 209.5 142.375Z" fill="#B0B0B0" fill-opacity="0.28"/>
<path d="M699.5 144.938C694.344 144.938 691.125 140.406 691.125 133.188C691.125 125.969 694.344 121.438 699.5 121.438C704.656 121.438 707.875 125.969 707.875 133.188C707.875 140.406 704.656 144.938 699.5 144.938ZM699.5 142.375C702.938 142.375 705.125 138.812 705.125 133.188C705.125 127.562 702.938 124 699.5 124C696.062 124 693.875 127.562 693.875 133.188C693.875 138.812 696.062 142.375 699.5 142.375Z" fill="white"/>
<path d="M678.844 144.938C676.031 144.938 673.75 143.594 672 141L674.25 139.562C675.625 141.531 677.031 142.375 678.844 142.375C682.219 142.375 684.922 139.391 685.125 133.344H685C683.703 135.344 681.531 136.562 678.969 136.562C674.906 136.562 671.75 133.438 671.75 129C671.75 124.531 674.969 121.438 679.531 121.438C684.906 121.438 687.875 125.781 687.875 132.656C687.875 140.562 684 144.938 678.844 144.938ZM679.531 134C682.469 134 684.562 131.938 684.562 129C684.562 126.062 682.469 124 679.531 124C676.594 124 674.5 126.062 674.5 129C674.5 131.938 676.594 134 679.531 134Z" fill="white"/>
<path d="M660.438 142.375C663.562 142.375 665.75 140.625 665.75 138.125C665.75 135.625 663.562 133.875 660.438 133.875C657.312 133.875 655.125 135.625 655.125 138.125C655.125 140.625 657.312 142.375 660.438 142.375ZM660.438 131.375C662.781 131.375 664.438 129.844 664.438 127.688C664.438 125.531 662.781 124 660.438 124C658.094 124 656.438 125.531 656.438 127.688C656.438 129.844 658.094 131.375 660.438 131.375ZM652.375 138.25C652.375 135.641 654.062 133.422 657.125 132.5V132.406C654.922 131.609 653.719 129.906 653.719 127.625C653.719 124.094 656.594 121.438 660.438 121.438C664.281 121.438 667.156 124.094 667.156 127.625C667.156 129.906 665.953 131.609 663.75 132.406V132.5C666.828 133.422 668.5 135.641 668.5 138.25C668.5 142.031 665.031 144.938 660.438 144.938C655.844 144.938 652.375 142.031 652.375 138.25Z" fill="white"/>
<path d="M636.188 144.5L646.312 124.562V124.438H634.5V121.875H649.375V124.438L639.188 144.5H636.188Z" fill="#2288FF"/>
<path d="M623.219 144.938C617.844 144.938 614.875 140.594 614.875 133.719C614.875 125.812 618.75 121.438 623.906 121.438C626.688 121.438 629.125 122.719 630.625 124.906L628.312 126.344C627.281 124.75 625.594 124 623.906 124C620.531 124 617.828 126.984 617.656 133.031H617.781C619.047 131.031 621.219 129.812 623.781 129.812C627.844 129.812 631 132.938 631 137.375C631 141.844 627.781 144.938 623.219 144.938ZM623.219 142.375C626.156 142.375 628.25 140.312 628.25 137.375C628.25 134.438 626.156 132.375 623.219 132.375C620.281 132.375 618.188 134.438 618.188 137.375C618.188 140.312 620.281 142.375 623.219 142.375Z" fill="white"/>
<path d="M596.281 134.906L597.469 121.844H610.125V124.406H600L599.25 132.219H599.375C600.594 130.719 602.406 129.812 604.5 129.812C608.438 129.812 611.625 133.031 611.625 137.375C611.625 141.812 608.312 144.938 603.625 144.938C600.031 144.938 597.156 143.062 595.5 139.656L597.969 138.531C599.219 141.125 601.125 142.375 603.625 142.375C606.781 142.375 608.875 140.375 608.875 137.375C608.875 134.375 606.781 132.375 603.656 132.375C601.5 132.375 599.828 133.328 599 134.906H596.281Z" fill="white"/>
<path d="M575.375 139.406V136.812L584.875 121.875H589.219V136.844H592.75V139.406H589.219V144.5H586.531V139.406H575.375ZM578.562 136.844H586.531V124.438H586.406L578.562 136.75V136.844Z" fill="#2288FF"/>
<path d="M564.25 144.938C560.5 144.938 557.75 143.031 556.125 139.656L558.594 138.531C559.844 141.125 561.719 142.375 564.25 142.375C567.281 142.375 569.5 140.594 569.5 138.125C569.5 135.5 567 133.906 562.875 133.906H562.125V131.344H562.875C566.469 131.344 568.594 130 568.594 127.688C568.594 125.531 566.75 124 564.188 124C562 124 560.281 125.125 559.25 127.25L556.781 126.125C558.281 123.031 561 121.438 564.188 121.438C568.281 121.438 571.344 124.094 571.344 127.625C571.344 130.094 569.844 131.781 567.062 132.562V132.656C570.359 133.547 572.25 135.531 572.25 138.312C572.25 142.094 568.812 144.938 564.25 144.938Z" fill="white"/>
<path d="M537.75 144.5V142.125L543.219 136.562C547.531 132.156 549.406 130.812 549.406 128.125C549.406 125.531 547.625 124 544.844 124C542.75 124 541.219 124.969 540.375 127.75L537.75 127C538.938 123.094 541.594 121.438 544.844 121.438C549.125 121.438 552.156 124.125 552.156 128.125C552.156 132.094 549.25 134.25 545.219 138.312L541.75 141.812V141.938H552.5V144.5H537.75Z" fill="#2288FF"/>
<path d="M523.875 128.938V125.75L529.312 121.875H532V144.5H529.312V125.156H529.188L523.875 128.938Z" fill="#2288FF"/>
</svg>
