<svg width="1012" height="225" viewBox="0 0 1012 225" fill="none" xmlns="http://www.w3.org/2000/svg">
<rect x="0.5" y="0.5" width="1011" height="224" rx="15.5" stroke="#70737C" stroke-opacity="0.28"/>
<rect x="32" y="32" width="52" height="24" rx="4" fill="#70737C" fill-opacity="0.22"/>
<path d="M39.8359 43.3672C39.8359 41.7734 41.1484 40.7578 43.1719 40.7578C45.1328 40.7578 46.375 41.6641 46.4922 43.2031H44.7734C44.6484 42.5625 44.0312 42.1641 43.1484 42.1641C42.2344 42.1641 41.6328 42.5859 41.6328 43.2266C41.6328 43.7734 42.0234 44.0859 42.9531 44.2891L44.2266 44.5625C45.9375 44.9297 46.6953 45.6562 46.6953 46.9375C46.6953 48.6016 45.3281 49.6719 43.1797 49.6719C41.0859 49.6719 39.7578 48.7422 39.6328 47.1953H41.4375C41.5938 47.8672 42.2422 48.25 43.2109 48.25C44.2031 48.25 44.8281 47.8125 44.8281 47.1484C44.8281 46.5859 44.4688 46.2969 43.4922 46.0859L42.2109 45.8047C40.6328 45.4531 39.8359 44.6406 39.8359 43.3672ZM49.7266 43.3672C49.7266 41.7734 51.0391 40.7578 53.0625 40.7578C55.0234 40.7578 56.2656 41.6641 56.3828 43.2031H54.6641C54.5391 42.5625 53.9219 42.1641 53.0391 42.1641C52.125 42.1641 51.5234 42.5859 51.5234 43.2266C51.5234 43.7734 51.9141 44.0859 52.8438 44.2891L54.1172 44.5625C55.8281 44.9297 56.5859 45.6562 56.5859 46.9375C56.5859 48.6016 55.2188 49.6719 53.0703 49.6719C50.9766 49.6719 49.6484 48.7422 49.5234 47.1953H51.3281C51.4844 47.8672 52.1328 48.25 53.1016 48.25C54.0938 48.25 54.7188 47.8125 54.7188 47.1484C54.7188 46.5859 54.3594 46.2969 53.3828 46.0859L52.1016 45.8047C50.5234 45.4531 49.7266 44.6406 49.7266 43.3672ZM65.1484 43.1953L61 46.2578C61.3359 47.5078 62 48.1641 62.9531 48.1641C64.3906 48.1641 65.1641 46.6641 65.1641 43.8594C65.1641 43.625 65.1562 43.4062 65.1484 43.1953ZM60.75 44.5312L64.9062 41.4844C64.5703 40.2266 63.9062 39.5625 62.9531 39.5625C61.5078 39.5625 60.7344 41.0625 60.7344 43.8594C60.7344 44.0938 60.7422 44.3203 60.75 44.5312ZM62.9531 37.9844C65.5547 37.9844 67.0156 40.0938 67.0156 43.8594C67.0156 47.6328 65.5547 49.7422 62.9531 49.7422C60.3438 49.7422 58.8828 47.6328 58.8828 43.8594C58.8828 40.0938 60.3438 37.9844 62.9531 37.9844ZM77.0078 45.7891C77.0078 48.0547 75.2656 49.7266 72.9141 49.7266C70.4922 49.7266 68.8047 48.0781 68.8047 45.7031C68.8047 44.3594 69.2656 43.125 70.375 41.5391C70.6328 41.1484 72.5938 38.4922 72.8047 38.2266H74.9531L72.0234 42.1797C71.6797 42.6484 71.6406 42.7188 71.5625 42.8828L71.7031 42.9141C72.0859 42.4766 72.8281 42.1875 73.5391 42.1875C75.5312 42.1875 77.0078 43.7188 77.0078 45.7891ZM72.8984 48.125C74.1797 48.125 75.1484 47.1562 75.1484 45.8672C75.1484 44.5781 74.1797 43.6094 72.8984 43.6094C71.6172 43.6094 70.6484 44.5781 70.6484 45.8672C70.6484 47.1562 71.6172 48.125 72.8984 48.125Z" fill="white"/>
<rect x="32" y="88" width="948" height="1" fill="#70737C" fill-opacity="0.28"/>
<path d="M40.3438 144.938C36.75 144.938 34.3125 142.688 33.4688 138.906L36.1875 138.344C36.8125 141.062 38.2812 142.312 40.3438 142.312C43.0312 142.312 44.8438 140.188 44.8438 136.906V121.875H47.6562V136.906C47.6562 141.719 44.6562 144.938 40.3438 144.938ZM59.1562 142.438C62.2188 142.438 64.4062 139.969 64.4062 136.438C64.4062 132.906 62.2188 130.438 59.1562 130.438C56.0625 130.438 53.9062 132.938 53.9062 136.438C53.9062 139.938 56.0625 142.438 59.1562 142.438ZM66.9062 144.5H64.2812V141.969H64.1875C63.0781 143.891 61.2812 144.938 58.9062 144.938C54.4375 144.938 51.2188 141.281 51.2188 136.438C51.2188 131.594 54.4375 127.938 58.9062 127.938C61.2812 127.938 63.0781 128.984 64.1875 130.906H64.2812V128.375H66.9062V144.5ZM71.0938 144.5V128.375H73.7188V130.719H73.8438C74.625 129 76.3594 127.938 78.6562 127.938C82.25 127.938 84.2188 130.469 84.2188 134.625V144.5H81.5938V135C81.5938 132.031 80.3438 130.438 78.0938 130.438C75.8438 130.438 73.7188 132.031 73.7188 135.5V144.5H71.0938ZM96.0625 144.938C91.2188 144.938 87.6562 141.281 87.6562 136.438C87.6562 131.594 91.125 127.938 95.75 127.938C100.375 127.938 103.594 131.594 103.594 136.438L103.562 137.344H90.4062C90.7656 140.438 93.0469 142.438 96.125 142.438C98.3438 142.438 99.9375 141.391 100.75 139.656L103.062 140.656C101.828 143.25 99.375 144.938 96.0625 144.938ZM90.5312 134.781H100.719C100.531 132.328 98.5312 130.438 95.75 130.438C93.0938 130.438 91.1094 132.156 90.5312 134.781ZM121.562 144.938C117.312 144.938 114.406 142.344 114.406 138.781C114.406 135.266 117.203 133.281 119.594 131.812L118.938 131.094C117.469 129.438 116.906 128.094 116.906 126.594C116.906 123.562 119.188 121.438 122.406 121.438C125.625 121.438 127.906 123.594 127.906 126.625C127.906 128.891 126.641 130.188 123.5 132.25L128.75 138.156C129.672 136.609 130.219 134.703 130.219 132.625H132.969C132.969 135.484 132.062 138.109 130.531 140.188L134.344 144.5H130.844L128.781 142.156C126.797 143.891 124.297 144.938 121.562 144.938ZM117.156 138.781C117.156 140.969 118.844 142.344 121.562 142.375C123.656 142.391 125.562 141.594 127.062 140.219L121.25 133.688C119.016 135.109 117.156 136.5 117.156 138.781ZM119.656 126.594C119.656 127.531 120.094 128.438 120.938 129.375L121.875 130.406C124.609 128.594 125.156 127.703 125.156 126.625C125.156 125.062 124 124 122.406 124C120.812 124 119.656 125.062 119.656 126.594ZM145.531 144.5V121.875H148.281V144.5H145.531ZM152.594 144.5V120.875H155.219V144.5H152.594ZM159.406 144.5V128.375H162.031V144.5H159.406ZM160.719 125C159.719 125 158.969 124.25 158.969 123.25C158.969 122.25 159.719 121.5 160.719 121.5C161.719 121.5 162.469 122.25 162.469 123.25C162.469 124.25 161.719 125 160.719 125ZM173.406 142.438C176.469 142.438 178.656 139.969 178.656 136.438C178.656 132.906 176.469 130.438 173.406 130.438C170.312 130.438 168.156 132.938 168.156 136.438C168.156 139.938 170.312 142.438 173.406 142.438ZM181.156 144.5H178.531V141.969H178.438C177.328 143.891 175.531 144.938 173.156 144.938C168.688 144.938 165.469 141.281 165.469 136.438C165.469 131.594 168.688 127.938 173.156 127.938C175.531 127.938 177.328 128.984 178.438 130.906H178.531V128.375H181.156V144.5ZM33.875 173.875C35.6562 172.812 37.4375 171.5 39.3125 169.875H42V192.5H39.3125V173.344H39.1875C37.4531 174.719 35.6406 175.922 33.875 176.844V173.875ZM47.75 189.938C55.75 184.469 59.4062 180.188 59.4062 176.375C59.4062 173.594 57.5312 172 54.8438 172C52.75 172 51.2188 172.969 50.375 175.75L47.75 175C48.9375 171.094 51.5938 169.438 54.8438 169.438C58.9688 169.438 62.1562 172.094 62.1562 176.375C62.1562 180.781 58.4375 185.109 52.1562 189.812V189.938H62.5V192.5H47.75V189.938ZM74.25 192.938C70.5 192.938 67.75 191.031 66.125 187.656L68.5938 186.531C69.8438 189.125 71.7188 190.375 74.25 190.375C77.2812 190.375 79.5 188.594 79.5 186.125C79.5 183.5 77 181.906 72.875 181.906H72.125V179.344H72.875C76.4688 179.344 78.5938 178 78.5938 175.688C78.5938 173.531 76.75 172 74.1875 172C72 172 70.2812 173.125 69.25 175.25L66.7812 174.125C68.2812 171.031 71 169.438 74.1875 169.438C78.2812 169.438 81.3438 172.094 81.3438 175.625C81.3438 178.094 79.8438 179.781 77.0625 180.562V180.656C80.3594 181.547 82.25 183.531 82.25 186.312C82.25 190.094 78.8125 192.938 74.25 192.938ZM85.375 187.406V184.844L94.1562 169.875H97.2188L88.5938 184.625V184.844H96.5312V177.75H99.2188V184.844H102.75V187.406H99.2188V192.5H96.5312V187.406H85.375ZM106.281 182.906L107.469 169.844H120.125V172.406H110L109.25 180.219H109.375C110.594 178.719 112.406 177.812 114.5 177.812C118.438 177.812 121.625 181.031 121.625 185.375C121.625 189.812 118.312 192.938 113.625 192.938C110.031 192.938 107.156 191.062 105.5 187.656L107.969 186.531C109.219 189.125 111.125 190.375 113.625 190.375C116.781 190.375 118.875 188.375 118.875 185.375C118.875 182.375 116.781 180.375 113.656 180.375C111.5 180.375 109.828 181.328 109 182.906H106.281ZM133.219 192.938C127.844 192.938 124.875 188.594 124.875 181.719C124.875 173.812 128.75 169.438 133.906 169.438C136.688 169.438 139.125 170.719 140.625 172.906L138.312 174.344C137.281 172.75 135.594 172 133.906 172C130.531 172 127.828 174.984 127.656 181.031H127.781C129.047 179.031 131.219 177.812 133.781 177.812C137.844 177.812 141 180.938 141 185.375C141 189.844 137.781 192.938 133.219 192.938ZM133.219 190.375C136.156 190.375 138.25 188.312 138.25 185.375C138.25 182.438 136.156 180.375 133.219 180.375C130.281 180.375 128.188 182.438 128.188 185.375C128.188 188.312 130.281 190.375 133.219 190.375ZM144.5 172.438V169.875H159.375V172.438C154.562 178.312 151.938 184.906 151.312 192.5H148.75C149.312 185.078 151.688 178.5 156.031 172.562V172.438H144.5ZM170.438 190.375C173.562 190.375 175.75 188.625 175.75 186.125C175.75 183.625 173.562 181.875 170.438 181.875C167.312 181.875 165.125 183.625 165.125 186.125C165.125 188.625 167.312 190.375 170.438 190.375ZM170.438 179.375C172.781 179.375 174.438 177.844 174.438 175.688C174.438 173.531 172.781 172 170.438 172C168.094 172 166.438 173.531 166.438 175.688C166.438 177.844 168.094 179.375 170.438 179.375ZM162.375 186.25C162.375 183.641 164.062 181.422 167.125 180.5V180.406C164.922 179.609 163.719 177.906 163.719 175.625C163.719 172.094 166.594 169.438 170.438 169.438C174.281 169.438 177.156 172.094 177.156 175.625C177.156 177.906 175.953 179.609 173.75 180.406V180.5C176.828 181.422 178.5 183.641 178.5 186.25C178.5 190.031 175.031 192.938 170.438 192.938C165.844 192.938 162.375 190.031 162.375 186.25ZM188.844 192.938C186.031 192.938 183.75 191.594 182 189L184.25 187.562C185.625 189.531 187.031 190.375 188.844 190.375C192.219 190.375 194.922 187.391 195.125 181.344H195C193.703 183.344 191.531 184.562 188.969 184.562C184.906 184.562 181.75 181.438 181.75 177C181.75 172.531 184.969 169.438 189.531 169.438C194.906 169.438 197.875 173.781 197.875 180.656C197.875 188.562 194 192.938 188.844 192.938ZM189.531 182C192.469 182 194.562 179.938 194.562 177C194.562 174.062 192.469 172 189.531 172C186.594 172 184.5 174.062 184.5 177C184.5 179.938 186.594 182 189.531 182ZM209.5 192.938C204.344 192.938 201.125 188.406 201.125 181.188C201.125 173.969 204.344 169.438 209.5 169.438C214.656 169.438 217.875 173.969 217.875 181.188C217.875 188.406 214.656 192.938 209.5 192.938ZM209.5 190.375C212.938 190.375 215.125 186.812 215.125 181.188C215.125 175.562 212.938 172 209.5 172C206.062 172 203.875 175.562 203.875 181.188C203.875 186.812 206.062 190.375 209.5 190.375Z" fill="#B0B0B0" fill-opacity="0.28"/>
<path d="M702.625 192.938C697.469 192.938 694.25 188.406 694.25 181.188C694.25 173.969 697.469 169.438 702.625 169.438C707.781 169.438 711 173.969 711 181.188C711 188.406 707.781 192.938 702.625 192.938ZM702.625 190.375C706.062 190.375 708.25 186.812 708.25 181.188C708.25 175.562 706.062 172 702.625 172C699.188 172 697 175.562 697 181.188C697 186.812 699.188 190.375 702.625 190.375Z" fill="white"/>
<path d="M683.25 169.438C687.688 169.438 691.031 172.75 691.031 177.469C691.031 179.969 690.125 182.156 686.875 186.75L682.812 192.5H679.5L684.781 185.25C685.359 184.453 685.859 183.75 686.312 183.094L686.219 183.031C685.141 183.891 683.797 184.375 682.281 184.375C678.469 184.375 675.469 181.219 675.469 177.125C675.469 172.75 678.812 169.438 683.25 169.438ZM683.25 172C680.281 172 678.219 174.062 678.219 177C678.219 179.938 680.281 182 683.25 182C686.219 182 688.281 179.938 688.281 177C688.281 174.062 686.219 172 683.25 172Z" fill="#3385FF"/>
<path d="M664.188 190.375C667.312 190.375 669.5 188.625 669.5 186.125C669.5 183.625 667.312 181.875 664.188 181.875C661.062 181.875 658.875 183.625 658.875 186.125C658.875 188.625 661.062 190.375 664.188 190.375ZM664.188 179.375C666.531 179.375 668.188 177.844 668.188 175.688C668.188 173.531 666.531 172 664.188 172C661.844 172 660.188 173.531 660.188 175.688C660.188 177.844 661.844 179.375 664.188 179.375ZM656.125 186.25C656.125 183.641 657.812 181.422 660.875 180.5V180.406C658.672 179.609 657.469 177.906 657.469 175.625C657.469 172.094 660.344 169.438 664.188 169.438C668.031 169.438 670.906 172.094 670.906 175.625C670.906 177.906 669.703 179.609 667.5 180.406V180.5C670.578 181.422 672.25 183.641 672.25 186.25C672.25 190.031 668.781 192.938 664.188 192.938C659.594 192.938 656.125 190.031 656.125 186.25Z" fill="white"/>
<path d="M639.938 192.5L650.062 172.562V172.438H638.25V169.875H653.125V172.438L642.938 192.5H639.938Z" fill="#3385FF"/>
<path d="M627 192.938C622.562 192.938 619.219 189.625 619.219 184.906C619.219 182.406 620.125 180.219 623.375 175.625L627.438 169.875H630.75L625.469 177.125C624.891 177.922 624.391 178.625 623.969 179.281L624.062 179.344C625.109 178.484 626.453 178 627.969 178C631.781 178 634.781 181.156 634.781 185.25C634.781 189.625 631.438 192.938 627 192.938ZM627 190.375C629.969 190.375 632.031 188.312 632.031 185.375C632.031 182.438 629.969 180.375 627 180.375C624.031 180.375 621.969 182.438 621.969 185.375C621.969 188.312 624.031 190.375 627 190.375Z" fill="#3385FF"/>
<path d="M600.656 182.906L601.844 169.844H614.5V172.406H604.375L603.625 180.219H603.75C604.969 178.719 606.781 177.812 608.875 177.812C612.812 177.812 616 181.031 616 185.375C616 189.812 612.688 192.938 608 192.938C604.406 192.938 601.531 191.062 599.875 187.656L602.344 186.531C603.594 189.125 605.5 190.375 608 190.375C611.156 190.375 613.25 188.375 613.25 185.375C613.25 182.375 611.156 180.375 608.031 180.375C605.875 180.375 604.203 181.328 603.375 182.906H600.656Z" fill="white"/>
<path d="M579.75 187.406V184.844L588.531 169.875H591.594L582.969 184.625V184.844H590.906V177.75H593.594V184.844H597.125V187.406H593.594V192.5H590.906V187.406H579.75Z" fill="white"/>
<path d="M568.625 192.938C565.031 192.938 562.156 191.062 560.5 187.656L562.969 186.531C564.219 189.125 566.125 190.375 568.625 190.375C571.719 190.375 573.875 188.469 573.875 185.75C573.875 182.875 571.469 181.125 567.594 181.125H566.281V178.812L572.094 172.531V172.438H561.438V169.875H575.75V172.438L569.531 178.812V178.938C573.828 179.547 576.625 182.219 576.625 185.875C576.625 189.906 573.219 192.938 568.625 192.938Z" fill="#3385FF"/>
<path d="M542.125 189.938C550.125 184.469 553.781 180.188 553.781 176.375C553.781 173.594 551.906 172 549.219 172C547.125 172 545.594 172.969 544.75 175.75L542.125 175C543.312 171.094 545.969 169.438 549.219 169.438C553.344 169.438 556.531 172.094 556.531 176.375C556.531 180.781 552.812 185.109 546.531 189.812V189.938H556.875V192.5H542.125V189.938Z" fill="white"/>
<path d="M524.25 192.5V189.938H530.438V173.344H530.312C528.578 174.719 526.766 175.922 525 176.844V173.875C526.781 172.812 528.562 171.5 530.438 169.875H533.125V189.938H538.625V192.5H524.25Z" fill="#3385FF"/>
<path d="M667.906 144.938C664.75 144.938 662.406 142.688 662.406 139.812C662.406 136.938 664.75 134.781 668.969 134.562L673.281 134.312C673.234 131.688 672 130.438 669.469 130.438C667.562 130.438 666.312 131.125 665.406 132.75L663.062 131.5C664.406 129.156 666.562 127.938 669.469 127.938C673.594 127.938 675.969 130.406 675.969 134.5V144.5H673.281V141.969H673.156C672.062 143.766 670.172 144.938 667.906 144.938ZM665.156 139.812C665.156 141.469 666.406 142.438 668.625 142.438C671.531 142.438 673.281 140.781 673.281 138.188V136.531L668.969 136.812C666.406 136.969 665.156 138.156 665.156 139.812Z" fill="#3385FF"/>
<path d="M656.094 144.5V128.375H658.719V144.5H656.094ZM657.406 125C656.406 125 655.656 124.25 655.656 123.25C655.656 122.25 656.406 121.5 657.406 121.5C658.406 121.5 659.156 122.25 659.156 123.25C659.156 124.25 658.406 125 657.406 125Z" fill="white"/>
<path d="M651.531 144.938C648.969 144.938 647.719 143.281 647.719 139.938V120.875H650.344V139.812C650.344 141.75 650.844 142.438 652.156 142.438C652.438 142.438 652.719 142.406 652.969 142.375V144.781C652.5 144.875 652.031 144.938 651.531 144.938Z" fill="#3385FF"/>
<path d="M632.906 124.438V121.875H644.156V124.438H639.906V141.938H644.156V144.5H632.906V141.938H637.156V124.438H632.906Z" fill="#3385FF"/>
<path d="M609.688 144.938C605.438 144.938 602.531 142.344 602.531 138.781C602.531 135.266 605.328 133.281 607.719 131.812L607.062 131.094C605.594 129.438 605.031 128.094 605.031 126.594C605.031 123.562 607.312 121.438 610.531 121.438C613.75 121.438 616.031 123.594 616.031 126.625C616.031 128.891 614.766 130.188 611.625 132.25L616.875 138.156C617.797 136.609 618.344 134.703 618.344 132.625H621.094C621.094 135.484 620.188 138.109 618.656 140.188L622.469 144.5H618.969L616.906 142.156C614.922 143.891 612.422 144.938 609.688 144.938ZM605.281 138.781C605.281 140.969 606.969 142.344 609.688 142.375C611.781 142.391 613.688 141.594 615.188 140.219L609.375 133.688C607.141 135.109 605.281 136.5 605.281 138.781ZM607.781 126.594C607.781 127.531 608.219 128.438 609.062 129.375L610 130.406C612.734 128.594 613.281 127.703 613.281 126.625C613.281 125.062 612.125 124 610.531 124C608.938 124 607.781 125.062 607.781 126.594Z" fill="white"/>
<path d="M584.188 144.938C579.344 144.938 575.781 141.281 575.781 136.438C575.781 131.594 579.25 127.938 583.875 127.938C588.5 127.938 591.719 131.594 591.719 136.438L591.688 137.344H578.531C578.891 140.438 581.172 142.438 584.25 142.438C586.469 142.438 588.062 141.391 588.875 139.656L591.188 140.656C589.953 143.25 587.5 144.938 584.188 144.938ZM578.656 134.781H588.844C588.656 132.328 586.656 130.438 583.875 130.438C581.219 130.438 579.234 132.156 578.656 134.781Z" fill="white"/>
<path d="M559.219 144.5V128.375H561.844V130.719H561.969C562.75 129 564.484 127.938 566.781 127.938C570.375 127.938 572.344 130.469 572.344 134.625V144.5H569.719V135C569.719 132.031 568.469 130.438 566.219 130.438C563.969 130.438 561.844 132.031 561.844 135.5V144.5H559.219Z" fill="white"/>
<path d="M546.969 144.938C543.812 144.938 541.469 142.688 541.469 139.812C541.469 136.938 543.812 134.781 548.031 134.562L552.344 134.312C552.297 131.688 551.062 130.438 548.531 130.438C546.625 130.438 545.375 131.125 544.469 132.75L542.125 131.5C543.469 129.156 545.625 127.938 548.531 127.938C552.656 127.938 555.031 130.406 555.031 134.5V144.5H552.344V141.969H552.219C551.125 143.766 549.234 144.938 546.969 144.938ZM544.219 139.812C544.219 141.469 545.469 142.438 547.688 142.438C550.594 142.438 552.344 140.781 552.344 138.188V136.531L548.031 136.812C545.469 136.969 544.219 138.156 544.219 139.812Z" fill="#3385FF"/>
<path d="M530.344 144.938C526.75 144.938 524.312 142.688 523.469 138.906L526.188 138.344C526.812 141.062 528.281 142.312 530.344 142.312C533.031 142.312 534.844 140.188 534.844 136.906V124.5H527.344V121.875H537.656V136.906C537.656 141.719 534.656 144.938 530.344 144.938Z" fill="#3385FF"/>
</svg>
