<svg width="1012" height="177" viewBox="0 0 1012 177" fill="none" xmlns="http://www.w3.org/2000/svg">
<rect x="0.5" y="0.5" width="1011" height="176" rx="15.5" stroke="#70737C" stroke-opacity="0.28"/>
<rect x="32" y="32" width="52" height="24" rx="4" fill="#70737C" fill-opacity="0.22"/>
<path d="M39.8359 43.3672C39.8359 41.7734 41.1484 40.7578 43.1719 40.7578C45.1328 40.7578 46.375 41.6641 46.4922 43.2031H44.7734C44.6484 42.5625 44.0312 42.1641 43.1484 42.1641C42.2344 42.1641 41.6328 42.5859 41.6328 43.2266C41.6328 43.7734 42.0234 44.0859 42.9531 44.2891L44.2266 44.5625C45.9375 44.9297 46.6953 45.6562 46.6953 46.9375C46.6953 48.6016 45.3281 49.6719 43.1797 49.6719C41.0859 49.6719 39.7578 48.7422 39.6328 47.1953H41.4375C41.5938 47.8672 42.2422 48.25 43.2109 48.25C44.2031 48.25 44.8281 47.8125 44.8281 47.1484C44.8281 46.5859 44.4688 46.2969 43.4922 46.0859L42.2109 45.8047C40.6328 45.4531 39.8359 44.6406 39.8359 43.3672ZM49.7266 43.3672C49.7266 41.7734 51.0391 40.7578 53.0625 40.7578C55.0234 40.7578 56.2656 41.6641 56.3828 43.2031H54.6641C54.5391 42.5625 53.9219 42.1641 53.0391 42.1641C52.125 42.1641 51.5234 42.5859 51.5234 43.2266C51.5234 43.7734 51.9141 44.0859 52.8438 44.2891L54.1172 44.5625C55.8281 44.9297 56.5859 45.6562 56.5859 46.9375C56.5859 48.6016 55.2188 49.6719 53.0703 49.6719C50.9766 49.6719 49.6484 48.7422 49.5234 47.1953H51.3281C51.4844 47.8672 52.1328 48.25 53.1016 48.25C54.0938 48.25 54.7188 47.8125 54.7188 47.1484C54.7188 46.5859 54.3594 46.2969 53.3828 46.0859L52.1016 45.8047C50.5234 45.4531 49.7266 44.6406 49.7266 43.3672ZM65.1484 43.1953L61 46.2578C61.3359 47.5078 62 48.1641 62.9531 48.1641C64.3906 48.1641 65.1641 46.6641 65.1641 43.8594C65.1641 43.625 65.1562 43.4062 65.1484 43.1953ZM60.75 44.5312L64.9062 41.4844C64.5703 40.2266 63.9062 39.5625 62.9531 39.5625C61.5078 39.5625 60.7344 41.0625 60.7344 43.8594C60.7344 44.0938 60.7422 44.3203 60.75 44.5312ZM62.9531 37.9844C65.5547 37.9844 67.0156 40.0938 67.0156 43.8594C67.0156 47.6328 65.5547 49.7422 62.9531 49.7422C60.3438 49.7422 58.8828 47.6328 58.8828 43.8594C58.8828 40.0938 60.3438 37.9844 62.9531 37.9844ZM72.8594 42.9062C74.0234 42.9062 74.8047 42.2109 74.8047 41.1797C74.8047 40.1562 74.0234 39.4609 72.8594 39.4609C71.6875 39.4609 70.9141 40.1562 70.9141 41.1797C70.9141 42.2109 71.6875 42.9062 72.8594 42.9062ZM72.8594 48.25C74.2344 48.25 75.1797 47.4531 75.1797 46.3047C75.1797 45.1484 74.2344 44.3594 72.8594 44.3594C71.4844 44.3594 70.5391 45.1484 70.5391 46.3047C70.5391 47.4531 71.4844 48.25 72.8594 48.25ZM72.8594 49.7422C70.3281 49.7422 68.6016 48.4141 68.6016 46.4688C68.6016 45.0781 69.5312 43.9531 70.9844 43.6094V43.4766C69.8047 43.1797 69.0547 42.2188 69.0547 41.0156C69.0547 39.2422 70.6328 37.9844 72.8594 37.9844C75.0859 37.9844 76.6641 39.2422 76.6641 41.0156C76.6641 42.2188 75.9219 43.1719 74.7266 43.4766V43.6094C76.1641 43.9219 77.1172 45.0703 77.1172 46.4688C77.1172 48.4141 75.3906 49.7422 72.8594 49.7422Z" fill="white"/>
<rect x="32" y="88" width="948" height="1" fill="#70737C" fill-opacity="0.28"/>
<path d="M50.125 131.906V134.469H43.375V141.312H40.625V134.469H33.875V131.906H40.625V125.062H43.375V131.906H50.125ZM61.6875 144.938C57.0938 144.938 53.625 142.031 53.625 138.25C53.625 135.641 55.3125 133.422 58.375 132.5V132.406C56.1719 131.609 54.9688 129.906 54.9688 127.625C54.9688 124.094 57.8438 121.438 61.6875 121.438C65.5312 121.438 68.4062 124.094 68.4062 127.625C68.4062 129.906 67.2031 131.609 65 132.406V132.5C68.0781 133.422 69.75 135.641 69.75 138.25C69.75 142.031 66.2812 144.938 61.6875 144.938ZM61.6875 142.375C64.8125 142.375 67 140.625 67 138.125C67 135.625 64.8125 133.875 61.6875 133.875C58.5625 133.875 56.375 135.625 56.375 138.125C56.375 140.625 58.5625 142.375 61.6875 142.375ZM61.6875 131.375C64.0312 131.375 65.6875 129.844 65.6875 127.688C65.6875 125.531 64.0312 124 61.6875 124C59.3438 124 57.6875 125.531 57.6875 127.688C57.6875 129.844 59.3438 131.375 61.6875 131.375ZM73.375 141.938C81.375 136.469 85.0312 132.188 85.0312 128.375C85.0312 125.594 83.1562 124 80.4688 124C78.375 124 76.8438 124.969 76 127.75L73.375 127C74.5625 123.094 77.2188 121.438 80.4688 121.438C84.5938 121.438 87.7812 124.094 87.7812 128.375C87.7812 132.781 84.0625 137.109 77.7812 141.812V141.938H88.125V144.5H73.375V141.938ZM102 131.906V134.469H92V131.906H102ZM105 125.875C106.781 124.812 108.562 123.5 110.438 121.875H113.125V144.5H110.438V125.344H110.312C108.578 126.719 106.766 127.922 105 128.844V125.875ZM126.875 144.938C121.719 144.938 118.5 140.406 118.5 133.188C118.5 125.969 121.719 121.438 126.875 121.438C132.031 121.438 135.25 125.969 135.25 133.188C135.25 140.406 132.031 144.938 126.875 144.938ZM126.875 142.375C130.312 142.375 132.5 138.812 132.5 133.188C132.5 127.562 130.312 124 126.875 124C123.438 124 121.25 127.562 121.25 133.188C121.25 138.812 123.438 142.375 126.875 142.375ZM148.75 131.906V134.469H138.75V131.906H148.75ZM151.75 125.875C153.531 124.812 155.312 123.5 157.188 121.875H159.875V144.5H157.188V125.344H157.062C155.328 126.719 153.516 127.922 151.75 128.844V125.875ZM173.375 144.938C169.625 144.938 166.875 143.031 165.25 139.656L167.719 138.531C168.969 141.125 170.844 142.375 173.375 142.375C176.406 142.375 178.625 140.594 178.625 138.125C178.625 135.5 176.125 133.906 172 133.906H171.25V131.344H172C175.594 131.344 177.719 130 177.719 127.688C177.719 125.531 175.875 124 173.312 124C171.125 124 169.406 125.125 168.375 127.25L165.906 126.125C167.406 123.031 170.125 121.438 173.312 121.438C177.406 121.438 180.469 124.094 180.469 127.625C180.469 130.094 178.969 131.781 176.188 132.562V132.656C179.484 133.547 181.375 135.531 181.375 138.312C181.375 142.094 177.938 144.938 173.375 144.938ZM185 141.938C193 136.469 196.656 132.188 196.656 128.375C196.656 125.594 194.781 124 192.094 124C190 124 188.469 124.969 187.625 127.75L185 127C186.188 123.094 188.844 121.438 192.094 121.438C196.219 121.438 199.406 124.094 199.406 128.375C199.406 132.781 195.688 137.109 189.406 141.812V141.938H199.75V144.5H185V141.938ZM203.25 139.406V136.844L212.031 121.875H215.094L206.469 136.625V136.844H214.406V129.75H217.094V136.844H220.625V139.406H217.094V144.5H214.406V139.406H203.25ZM233.625 131.906V134.469H223.625V131.906H233.625ZM237.906 134.906L239.094 121.844H251.75V124.406H241.625L240.875 132.219H241C242.219 130.719 244.031 129.812 246.125 129.812C250.062 129.812 253.25 133.031 253.25 137.375C253.25 141.812 249.938 144.938 245.25 144.938C241.656 144.938 238.781 143.062 237.125 139.656L239.594 138.531C240.844 141.125 242.75 142.375 245.25 142.375C248.406 142.375 250.5 140.375 250.5 137.375C250.5 134.375 248.406 132.375 245.281 132.375C243.125 132.375 241.453 133.328 240.625 134.906H237.906ZM256.75 124.438V121.875H271.625V124.438C266.812 130.312 264.188 136.906 263.562 144.5H261C261.562 137.078 263.938 130.5 268.281 124.562V124.438H256.75ZM282.969 144.938C277.594 144.938 274.625 140.594 274.625 133.719C274.625 125.812 278.5 121.438 283.656 121.438C286.438 121.438 288.875 122.719 290.375 124.906L288.062 126.344C287.031 124.75 285.344 124 283.656 124C280.281 124 277.578 126.984 277.406 133.031H277.531C278.797 131.031 280.969 129.812 283.531 129.812C287.594 129.812 290.75 132.938 290.75 137.375C290.75 141.844 287.531 144.938 282.969 144.938ZM282.969 142.375C285.906 142.375 288 140.312 288 137.375C288 134.438 285.906 132.375 282.969 132.375C280.031 132.375 277.938 134.438 277.938 137.375C277.938 140.312 280.031 142.375 282.969 142.375ZM302.062 144.938C297.469 144.938 294 142.031 294 138.25C294 135.641 295.688 133.422 298.75 132.5V132.406C296.547 131.609 295.344 129.906 295.344 127.625C295.344 124.094 298.219 121.438 302.062 121.438C305.906 121.438 308.781 124.094 308.781 127.625C308.781 129.906 307.578 131.609 305.375 132.406V132.5C308.453 133.422 310.125 135.641 310.125 138.25C310.125 142.031 306.656 144.938 302.062 144.938ZM302.062 142.375C305.188 142.375 307.375 140.625 307.375 138.125C307.375 135.625 305.188 133.875 302.062 133.875C298.938 133.875 296.75 135.625 296.75 138.125C296.75 140.625 298.938 142.375 302.062 142.375ZM302.062 131.375C304.406 131.375 306.062 129.844 306.062 127.688C306.062 125.531 304.406 124 302.062 124C299.719 124 298.062 125.531 298.062 127.688C298.062 129.844 299.719 131.375 302.062 131.375Z" fill="#AEB0B6" fill-opacity="0.28"/>
<path d="M540.125 131.906V134.469H533.375V141.312H530.625V134.469H523.875V131.906H530.625V125.062H533.375V131.906H540.125ZM551.688 144.938C547.094 144.938 543.625 142.031 543.625 138.25C543.625 135.641 545.312 133.422 548.375 132.5V132.406C546.172 131.609 544.969 129.906 544.969 127.625C544.969 124.094 547.844 121.438 551.688 121.438C555.531 121.438 558.406 124.094 558.406 127.625C558.406 129.906 557.203 131.609 555 132.406V132.5C558.078 133.422 559.75 135.641 559.75 138.25C559.75 142.031 556.281 144.938 551.688 144.938ZM551.688 142.375C554.812 142.375 557 140.625 557 138.125C557 135.625 554.812 133.875 551.688 133.875C548.562 133.875 546.375 135.625 546.375 138.125C546.375 140.625 548.562 142.375 551.688 142.375ZM551.688 131.375C554.031 131.375 555.688 129.844 555.688 127.688C555.688 125.531 554.031 124 551.688 124C549.344 124 547.688 125.531 547.688 127.688C547.688 129.844 549.344 131.375 551.688 131.375ZM563.375 141.938C571.375 136.469 575.031 132.188 575.031 128.375C575.031 125.594 573.156 124 570.469 124C568.375 124 566.844 124.969 566 127.75L563.375 127C564.562 123.094 567.219 121.438 570.469 121.438C574.594 121.438 577.781 124.094 577.781 128.375C577.781 132.781 574.062 137.109 567.781 141.812V141.938H578.125V144.5H563.375V141.938ZM592 131.906V134.469H582V131.906H592ZM595 125.875C596.781 124.812 598.562 123.5 600.438 121.875H603.125V144.5H600.438V125.344H600.312C598.578 126.719 596.766 127.922 595 128.844V125.875ZM616.875 144.938C611.719 144.938 608.5 140.406 608.5 133.188C608.5 125.969 611.719 121.438 616.875 121.438C622.031 121.438 625.25 125.969 625.25 133.188C625.25 140.406 622.031 144.938 616.875 144.938ZM616.875 142.375C620.312 142.375 622.5 138.812 622.5 133.188C622.5 127.562 620.312 124 616.875 124C613.438 124 611.25 127.562 611.25 133.188C611.25 138.812 613.438 142.375 616.875 142.375ZM638.75 131.906V134.469H628.75V131.906H638.75ZM641.75 125.875C643.531 124.812 645.312 123.5 647.188 121.875H649.875V144.5H647.188V125.344H647.062C645.328 126.719 643.516 127.922 641.75 128.844V125.875ZM675 141.938C683 136.469 686.656 132.188 686.656 128.375C686.656 125.594 684.781 124 682.094 124C680 124 678.469 124.969 677.625 127.75L675 127C676.188 123.094 678.844 121.438 682.094 121.438C686.219 121.438 689.406 124.094 689.406 128.375C689.406 132.781 685.688 137.109 679.406 141.812V141.938H689.75V144.5H675V141.938ZM693.25 139.406V136.844L702.031 121.875H705.094L696.469 136.625V136.844H704.406V129.75H707.094V136.844H710.625V139.406H707.094V144.5H704.406V139.406H693.25ZM723.625 131.906V134.469H713.625V131.906H723.625ZM727.906 134.906L729.094 121.844H741.75V124.406H731.625L730.875 132.219H731C732.219 130.719 734.031 129.812 736.125 129.812C740.062 129.812 743.25 133.031 743.25 137.375C743.25 141.812 739.938 144.938 735.25 144.938C731.656 144.938 728.781 143.062 727.125 139.656L729.594 138.531C730.844 141.125 732.75 142.375 735.25 142.375C738.406 142.375 740.5 140.375 740.5 137.375C740.5 134.375 738.406 132.375 735.281 132.375C733.125 132.375 731.453 133.328 730.625 134.906H727.906ZM746.75 124.438V121.875H761.625V124.438C756.812 130.312 754.188 136.906 753.562 144.5H751C751.562 137.078 753.938 130.5 758.281 124.562V124.438H746.75ZM772.969 144.938C767.594 144.938 764.625 140.594 764.625 133.719C764.625 125.812 768.5 121.438 773.656 121.438C776.438 121.438 778.875 122.719 780.375 124.906L778.062 126.344C777.031 124.75 775.344 124 773.656 124C770.281 124 767.578 126.984 767.406 133.031H767.531C768.797 131.031 770.969 129.812 773.531 129.812C777.594 129.812 780.75 132.938 780.75 137.375C780.75 141.844 777.531 144.938 772.969 144.938ZM772.969 142.375C775.906 142.375 778 140.312 778 137.375C778 134.438 775.906 132.375 772.969 132.375C770.031 132.375 767.938 134.438 767.938 137.375C767.938 140.312 770.031 142.375 772.969 142.375ZM792.062 144.938C787.469 144.938 784 142.031 784 138.25C784 135.641 785.688 133.422 788.75 132.5V132.406C786.547 131.609 785.344 129.906 785.344 127.625C785.344 124.094 788.219 121.438 792.062 121.438C795.906 121.438 798.781 124.094 798.781 127.625C798.781 129.906 797.578 131.609 795.375 132.406V132.5C798.453 133.422 800.125 135.641 800.125 138.25C800.125 142.031 796.656 144.938 792.062 144.938ZM792.062 142.375C795.188 142.375 797.375 140.625 797.375 138.125C797.375 135.625 795.188 133.875 792.062 133.875C788.938 133.875 786.75 135.625 786.75 138.125C786.75 140.625 788.938 142.375 792.062 142.375ZM792.062 131.375C794.406 131.375 796.062 129.844 796.062 127.688C796.062 125.531 794.406 124 792.062 124C789.719 124 788.062 125.531 788.062 127.688C788.062 129.844 789.719 131.375 792.062 131.375Z" fill="white"/>
<path d="M663.375 144.938C659.781 144.938 656.906 143.062 655.25 139.656L657.719 138.531C658.969 141.125 660.875 142.375 663.375 142.375C666.469 142.375 668.625 140.469 668.625 137.75C668.625 134.875 666.219 133.125 662.344 133.125H661.031V130.812L666.844 124.531V124.438H656.188V121.875H670.5V124.438L664.281 130.812V130.938C668.578 131.547 671.375 134.219 671.375 137.875C671.375 141.906 667.969 144.938 663.375 144.938Z" fill="#3385FF"/>
</svg>
