<svg width="1012" height="177" viewBox="0 0 1012 177" fill="none" xmlns="http://www.w3.org/2000/svg">
<rect x="0.5" y="0.5" width="1011" height="176" rx="15.5" stroke="#70737C" stroke-opacity="0.28"/>
<rect x="32" y="32" width="52" height="24" rx="4" fill="#70737C" fill-opacity="0.22"/>
<path d="M39.8359 43.3672C39.8359 41.7734 41.1484 40.7578 43.1719 40.7578C45.1328 40.7578 46.375 41.6641 46.4922 43.2031H44.7734C44.6484 42.5625 44.0312 42.1641 43.1484 42.1641C42.2344 42.1641 41.6328 42.5859 41.6328 43.2266C41.6328 43.7734 42.0234 44.0859 42.9531 44.2891L44.2266 44.5625C45.9375 44.9297 46.6953 45.6562 46.6953 46.9375C46.6953 48.6016 45.3281 49.6719 43.1797 49.6719C41.0859 49.6719 39.7578 48.7422 39.6328 47.1953H41.4375C41.5938 47.8672 42.2422 48.25 43.2109 48.25C44.2031 48.25 44.8281 47.8125 44.8281 47.1484C44.8281 46.5859 44.4688 46.2969 43.4922 46.0859L42.2109 45.8047C40.6328 45.4531 39.8359 44.6406 39.8359 43.3672ZM49.7266 43.3672C49.7266 41.7734 51.0391 40.7578 53.0625 40.7578C55.0234 40.7578 56.2656 41.6641 56.3828 43.2031H54.6641C54.5391 42.5625 53.9219 42.1641 53.0391 42.1641C52.125 42.1641 51.5234 42.5859 51.5234 43.2266C51.5234 43.7734 51.9141 44.0859 52.8438 44.2891L54.1172 44.5625C55.8281 44.9297 56.5859 45.6562 56.5859 46.9375C56.5859 48.6016 55.2188 49.6719 53.0703 49.6719C50.9766 49.6719 49.6484 48.7422 49.5234 47.1953H51.3281C51.4844 47.8672 52.1328 48.25 53.1016 48.25C54.0938 48.25 54.7188 47.8125 54.7188 47.1484C54.7188 46.5859 54.3594 46.2969 53.3828 46.0859L52.1016 45.8047C50.5234 45.4531 49.7266 44.6406 49.7266 43.3672ZM65.1484 43.1953L61 46.2578C61.3359 47.5078 62 48.1641 62.9531 48.1641C64.3906 48.1641 65.1641 46.6641 65.1641 43.8594C65.1641 43.625 65.1562 43.4062 65.1484 43.1953ZM60.75 44.5312L64.9062 41.4844C64.5703 40.2266 63.9062 39.5625 62.9531 39.5625C61.5078 39.5625 60.7344 41.0625 60.7344 43.8594C60.7344 44.0938 60.7422 44.3203 60.75 44.5312ZM62.9531 37.9844C65.5547 37.9844 67.0156 40.0938 67.0156 43.8594C67.0156 47.6328 65.5547 49.7422 62.9531 49.7422C60.3438 49.7422 58.8828 47.6328 58.8828 43.8594C58.8828 40.0938 60.3438 37.9844 62.9531 37.9844ZM68.7422 41.9297C68.7422 39.6719 70.4766 37.9922 72.8281 37.9922C75.25 37.9922 76.9453 39.6406 76.9453 42.0156C76.9453 43.3359 76.4766 44.5703 75.3438 46.1797C75.0859 46.5859 73.125 49.2422 72.9141 49.4922H70.7734L73.7031 45.5469C73.9844 45.1562 74.0859 45.0078 74.1641 44.8438L74.0234 44.8047C73.6406 45.25 72.9141 45.5312 72.2109 45.5312C70.2031 45.5312 68.7422 44.0156 68.7422 41.9297ZM72.8438 39.6016C71.5625 39.6016 70.6016 40.5703 70.6016 41.8594C70.6016 43.1484 71.5625 44.1172 72.8438 44.1172C74.1328 44.1172 75.0938 43.1484 75.0938 41.8594C75.0938 40.5703 74.1328 39.6016 72.8438 39.6016Z" fill="white"/>
<rect x="32" y="88" width="948" height="1" fill="#70737C" fill-opacity="0.28"/>
<path d="M45.2188 144.938C38.5312 144.938 33.4688 139.875 33.4688 133.188C33.4688 126.5 38.5312 121.438 45.2188 121.438C51.9062 121.438 56.9688 126.5 56.9688 133.188C56.9688 137 55.3281 140.297 52.6562 142.406L55.7188 146.75H52.4688L50.4062 143.812C48.8594 144.531 47.0938 144.938 45.2188 144.938ZM45.2188 142.312C46.5469 142.312 47.7656 142.078 48.875 141.625L46.2188 137.875H49.4688L51.1562 140.219C53.0312 138.625 54.1562 136.141 54.1562 133.188C54.1562 127.844 50.4688 124.062 45.2188 124.062C39.9688 124.062 36.2812 127.844 36.2812 133.188C36.2812 138.531 39.9688 142.312 45.2188 142.312ZM73.6562 128.375V144.5H71.0312V142.156H70.9375C70.125 143.875 68.3906 144.938 66.0938 144.938C62.5 144.938 60.5312 142.406 60.5312 138.25V128.375H63.1562V137.875C63.1562 140.844 64.4062 142.438 66.6562 142.438C68.9062 142.438 71.0312 140.844 71.0312 137.375V128.375H73.6562ZM77.8438 144.5V128.375H80.4688V130.875H80.5938C81.3906 129.125 82.9844 127.938 84.8125 127.938C85.4062 127.938 85.9688 128.062 86.5 128.281V130.875C85.9062 130.688 85.3125 130.594 84.75 130.594C82.0625 130.594 80.4688 132.75 80.4688 136.438V144.5H77.8438ZM89.875 144.5V128.375H92.5V144.5H89.875ZM91.1875 125C90.1875 125 89.4375 124.25 89.4375 123.25C89.4375 122.25 90.1875 121.5 91.1875 121.5C92.1875 121.5 92.9375 122.25 92.9375 123.25C92.9375 124.25 92.1875 125 91.1875 125ZM104.219 144.938C99.5 144.938 95.9375 141.281 95.9375 136.438C95.9375 131.594 99.5 127.938 104.219 127.938C108.938 127.938 112.5 131.594 112.5 136.438C112.5 141.281 108.938 144.938 104.219 144.938ZM104.219 142.438C107.5 142.438 109.812 139.969 109.812 136.438C109.812 132.906 107.5 130.438 104.219 130.438C100.938 130.438 98.625 132.906 98.625 136.438C98.625 139.969 100.938 142.438 104.219 142.438ZM129.062 128.375V144.5H126.438V142.156H126.344C125.531 143.875 123.797 144.938 121.5 144.938C117.906 144.938 115.938 142.406 115.938 138.25V128.375H118.562V137.875C118.562 140.844 119.812 142.438 122.062 142.438C124.312 142.438 126.438 140.844 126.438 137.375V128.375H129.062ZM138.75 144.938C136.125 144.938 134.031 143.906 132.5 141.875L134.625 140.375C135.688 141.812 136.938 142.438 138.75 142.438C141 142.438 142.312 141.5 142.312 139.906C142.312 138.656 141.469 138.031 138.875 137.375L138 137.156C134.656 136.312 133.062 134.875 133.062 132.688C133.062 129.969 135.5 127.938 138.75 127.938C141.156 127.938 143.375 129.062 144.656 130.969L142.469 132.406C141.562 131.125 140.281 130.438 138.75 130.438C136.969 130.438 135.75 131.344 135.75 132.688C135.75 133.688 136.406 134.156 138.625 134.719L139.5 134.938C143.312 135.875 145 137.406 145 139.906C145 142.906 142.469 144.938 138.75 144.938Z" fill="#AEB0B6" fill-opacity="0.28"/>
<path d="M535.781 144.5C528.406 144.5 523.469 139.875 523.469 132.969C523.469 126.375 528.406 121.438 535 121.438C541.594 121.438 546.531 126.375 546.531 132.969C546.531 137.047 544.609 140.219 541.375 141.938H547.75V144.5H535.781ZM535 141.875C540.125 141.875 543.719 138.188 543.719 132.969C543.719 127.75 540.125 124.062 535 124.062C529.875 124.062 526.281 127.75 526.281 132.969C526.281 138.188 529.875 141.875 535 141.875Z" fill="#3385FF"/>
<path d="M563.438 128.375V144.5H560.812V142.156H560.719C559.906 143.875 558.172 144.938 555.875 144.938C552.281 144.938 550.312 142.406 550.312 138.25V128.375H552.938V137.875C552.938 140.844 554.188 142.438 556.438 142.438C558.688 142.438 560.812 140.844 560.812 137.375V128.375H563.438ZM567.625 144.5V128.375H570.25V130.875H570.375C571.172 129.125 572.766 127.938 574.594 127.938C575.188 127.938 575.75 128.062 576.281 128.281V130.875C575.688 130.688 575.094 130.594 574.531 130.594C571.844 130.594 570.25 132.75 570.25 136.438V144.5H567.625ZM579.656 144.5V128.375H582.281V144.5H579.656ZM580.969 125C579.969 125 579.219 124.25 579.219 123.25C579.219 122.25 579.969 121.5 580.969 121.5C581.969 121.5 582.719 122.25 582.719 123.25C582.719 124.25 581.969 125 580.969 125ZM594 144.938C589.281 144.938 585.719 141.281 585.719 136.438C585.719 131.594 589.281 127.938 594 127.938C598.719 127.938 602.281 131.594 602.281 136.438C602.281 141.281 598.719 144.938 594 144.938ZM594 142.438C597.281 142.438 599.594 139.969 599.594 136.438C599.594 132.906 597.281 130.438 594 130.438C590.719 130.438 588.406 132.906 588.406 136.438C588.406 139.969 590.719 142.438 594 142.438ZM618.844 128.375V144.5H616.219V142.156H616.125C615.312 143.875 613.578 144.938 611.281 144.938C607.688 144.938 605.719 142.406 605.719 138.25V128.375H608.344V137.875C608.344 140.844 609.594 142.438 611.844 142.438C614.094 142.438 616.219 140.844 616.219 137.375V128.375H618.844ZM628.531 144.938C625.906 144.938 623.812 143.906 622.281 141.875L624.406 140.375C625.469 141.812 626.719 142.438 628.531 142.438C630.781 142.438 632.094 141.5 632.094 139.906C632.094 138.656 631.25 138.031 628.656 137.375L627.781 137.156C624.438 136.312 622.844 134.875 622.844 132.688C622.844 129.969 625.281 127.938 628.531 127.938C630.938 127.938 633.156 129.062 634.438 130.969L632.25 132.406C631.344 131.125 630.062 130.438 628.531 130.438C626.75 130.438 625.531 131.344 625.531 132.688C625.531 133.688 626.188 134.156 628.406 134.719L629.281 134.938C633.094 135.875 634.781 137.406 634.781 139.906C634.781 142.906 632.25 144.938 628.531 144.938Z" fill="white"/>
</svg>
