<svg width="1012" height="225" viewBox="0 0 1012 225" fill="none" xmlns="http://www.w3.org/2000/svg">
<rect x="0.5" y="0.5" width="1011" height="224" rx="15.5" stroke="#70737C" stroke-opacity="0.28"/>
<rect x="32" y="32" width="52" height="24" rx="4" fill="#70737C" fill-opacity="0.22"/>
<path d="M39.8359 43.3672C39.8359 41.7734 41.1484 40.7578 43.1719 40.7578C45.1328 40.7578 46.375 41.6641 46.4922 43.2031H44.7734C44.6484 42.5625 44.0312 42.1641 43.1484 42.1641C42.2344 42.1641 41.6328 42.5859 41.6328 43.2266C41.6328 43.7734 42.0234 44.0859 42.9531 44.2891L44.2266 44.5625C45.9375 44.9297 46.6953 45.6562 46.6953 46.9375C46.6953 48.6016 45.3281 49.6719 43.1797 49.6719C41.0859 49.6719 39.7578 48.7422 39.6328 47.1953H41.4375C41.5938 47.8672 42.2422 48.25 43.2109 48.25C44.2031 48.25 44.8281 47.8125 44.8281 47.1484C44.8281 46.5859 44.4688 46.2969 43.4922 46.0859L42.2109 45.8047C40.6328 45.4531 39.8359 44.6406 39.8359 43.3672ZM49.7266 43.3672C49.7266 41.7734 51.0391 40.7578 53.0625 40.7578C55.0234 40.7578 56.2656 41.6641 56.3828 43.2031H54.6641C54.5391 42.5625 53.9219 42.1641 53.0391 42.1641C52.125 42.1641 51.5234 42.5859 51.5234 43.2266C51.5234 43.7734 51.9141 44.0859 52.8438 44.2891L54.1172 44.5625C55.8281 44.9297 56.5859 45.6562 56.5859 46.9375C56.5859 48.6016 55.2188 49.6719 53.0703 49.6719C50.9766 49.6719 49.6484 48.7422 49.5234 47.1953H51.3281C51.4844 47.8672 52.1328 48.25 53.1016 48.25C54.0938 48.25 54.7188 47.8125 54.7188 47.1484C54.7188 46.5859 54.3594 46.2969 53.3828 46.0859L52.1016 45.8047C50.5234 45.4531 49.7266 44.6406 49.7266 43.3672ZM64.2734 47.9141H67.2734V49.5H59.2734V47.9141H62.4219V40.1641H62.2891L59.2578 42.1562V40.3203L62.4297 38.2266H64.2734V47.9141ZM74.1641 47.9141H77.1641V49.5H69.1641V47.9141H72.3125V40.1641H72.1797L69.1484 42.1562V40.3203L72.3203 38.2266H74.1641V47.9141Z" fill="white"/>
<rect x="32" y="88" width="948" height="1" fill="#70737C" fill-opacity="0.28"/>
<path d="M46.6562 146.344C39.3906 146.359 33.4531 140.438 33.4688 133.156C33.4531 125.906 39.3906 119.969 46.6562 119.969C53.9219 119.969 59.8594 125.906 59.875 133.156C59.8594 140.438 53.9219 146.359 46.6562 146.344ZM46.6562 143.969C52.5938 143.969 57.4531 139.094 57.4688 133.156C57.4531 127.234 52.5938 122.359 46.6562 122.344C40.7188 122.359 35.8594 127.234 35.875 133.156C35.8594 139.094 40.7188 143.969 46.6562 143.969ZM43.4375 129.406C44.375 128.844 45.3438 128.125 46.3125 127.25H48.4375V139.125H46.3125V129.75H46.2812C45.3438 130.484 44.3594 131.188 43.4375 131.656V129.406ZM82.4 146.344C75.1344 146.359 69.1969 140.438 69.2125 133.156C69.1969 125.906 75.1344 119.969 82.4 119.969C89.6656 119.969 95.6031 125.906 95.6188 133.156C95.6031 140.438 89.6656 146.359 82.4 146.344ZM79.1813 131.656C80.1031 131.188 81.0875 130.484 82.025 129.75H82.0563V139.125H84.1813V127.25H82.0563C81.0875 128.125 80.1188 128.844 79.1813 129.406V131.656ZM110.956 145.031C107.738 145.031 106.284 143.562 106.3 140.344V125.969C106.284 122.766 107.738 121.297 110.956 121.281H125.363C128.55 121.297 130.003 122.766 130.019 125.969V140.344C130.003 143.562 128.55 145.031 125.363 145.031H110.956ZM125.363 142.625C127.206 142.641 127.613 142.234 127.613 140.344V125.969C127.613 124.094 127.206 123.703 125.363 123.688H110.956C109.081 123.703 108.675 124.094 108.675 125.969V140.344C108.675 142.234 109.081 142.641 110.956 142.625H125.363ZM121.488 139.125L120.519 136.312H115.8L114.8 139.125H112.394L116.956 127.25H119.331L123.894 139.125H121.488ZM116.519 134.25H119.8L118.175 129.656H118.113L116.519 134.25ZM146.7 145.031C143.481 145.031 142.028 143.562 142.044 140.344V125.969C142.028 122.766 143.481 121.297 146.7 121.281H161.106C164.294 121.297 165.747 122.766 165.762 125.969V140.344C165.747 143.562 164.294 145.031 161.106 145.031H146.7ZM157.231 139.125H159.637L155.075 127.25H152.7L148.137 139.125H150.544L151.544 136.312H156.262L157.231 139.125ZM152.262 134.25L153.856 129.656H153.919L155.512 134.25H152.262ZM52 197.469C43.0312 197.469 35.7031 190.141 35.7188 181.156C35.7031 172.203 43.0312 164.859 52 164.844C60.9375 164.859 68.2656 172.203 68.2812 181.156C68.2656 190.141 60.9375 197.469 52 197.469ZM52 194.844C59.5 194.859 65.7031 188.703 65.7188 181.156C65.7031 173.641 59.5 167.469 52 167.469C44.4688 167.469 38.2656 173.672 38.2812 181.156C38.2656 188.672 44.4688 194.859 52 194.844ZM98.4 197.469C89.4313 197.469 82.1031 190.141 82.1188 181.156C82.1031 172.203 89.4313 164.859 98.4 164.844C107.338 164.859 114.666 172.203 114.681 181.156C114.666 190.141 107.338 197.469 98.4 197.469ZM135.8 195.781C131.894 195.797 130.159 194.031 130.175 190.156V172.156C130.159 168.297 131.894 166.531 135.8 166.531H153.8C157.659 166.531 159.394 168.297 159.394 172.156V190.156C159.394 194.031 157.659 195.797 153.8 195.781H135.8ZM153.8 193.188C156.3 193.203 156.831 192.703 156.831 190.156V172.156C156.831 169.641 156.3 169.141 153.8 169.125H135.8C133.269 169.141 132.738 169.641 132.738 172.156V190.156C132.738 192.703 133.269 193.203 135.8 193.188H153.8ZM182.2 195.781C178.294 195.797 176.559 194.031 176.575 190.156V172.156C176.559 168.297 178.294 166.531 182.2 166.531H200.2C204.059 166.531 205.794 168.297 205.794 172.156V190.156C205.794 194.031 204.059 195.797 200.2 195.781H182.2ZM237.6 196.281C236.928 196.297 236.334 196.062 235.85 195.562L224.038 183.625C222.131 181.703 221.303 179.234 221.319 176.812C221.303 171.562 225.334 167.141 230.663 167.125C233.131 167.141 235.741 168.141 237.6 170.25C239.428 168.172 242.006 167.141 244.506 167.125C249.834 167.141 253.866 171.562 253.881 176.812C253.866 179.234 253.038 181.703 251.131 183.625L239.381 195.562C238.897 196.031 238.272 196.297 237.6 196.281ZM249.288 181.844C250.694 180.438 251.303 178.5 251.319 176.781C251.303 172.969 248.334 169.703 244.506 169.688C242.569 169.703 240.506 170.531 239.1 172.469C238.459 173.328 238.366 173.703 237.6 173.688C236.803 173.703 236.459 173.094 236.069 172.531C234.772 170.703 232.772 169.703 230.663 169.688C226.772 169.703 223.866 173 223.881 176.781C223.866 178.672 224.569 180.531 225.913 181.844L237.6 193.656L249.288 181.844ZM284 196.281C283.328 196.297 282.734 196.062 282.25 195.562L270.438 183.625C268.531 181.703 267.703 179.234 267.719 176.812C267.703 171.562 271.734 167.141 277.062 167.125C279.531 167.141 282.141 168.141 284 170.25C285.828 168.172 288.406 167.141 290.906 167.125C296.234 167.141 300.266 171.562 300.281 176.812C300.266 179.234 299.438 181.703 297.531 183.625L285.781 195.562C285.297 196.031 284.672 196.297 284 196.281ZM323.306 196.156C319.697 197.766 318.806 196.406 319.15 193.125L319.931 185.344L314.712 179.562C312.259 176.859 313.166 175.406 316.306 174.719L323.931 173.094L327.869 166.312C328.837 164.672 329.369 164.031 330.4 164.031C331.462 164.031 331.994 164.672 332.962 166.312L336.9 173.094L344.556 174.719C347.666 175.406 348.572 176.859 346.15 179.562L340.9 185.344L341.712 193.125C342.041 196.406 341.134 197.766 337.556 196.156L330.4 193L323.306 196.156ZM329.275 190.719C329.728 190.531 330.072 190.438 330.4 190.438C330.759 190.438 331.103 190.531 331.587 190.719L338.962 193.969C339.103 194.031 339.197 194.062 339.181 193.812L338.337 185.812C338.228 184.859 338.259 184.469 339.087 183.562L344.462 177.562C344.603 177.438 344.494 177.359 344.337 177.312L336.556 175.625C335.572 175.438 335.134 175.172 334.619 174.219L330.587 167.219C330.541 167.172 330.462 167.094 330.4 167.094C330.369 167.094 330.306 167.172 330.275 167.219L326.244 174.219C325.666 175.234 325.197 175.438 324.306 175.625L316.494 177.312C316.369 177.359 316.228 177.438 316.369 177.562L321.775 183.562C322.572 184.469 322.603 184.906 322.494 185.812L321.681 193.812C321.634 194.031 321.666 194.031 321.869 193.969L329.275 190.719ZM369.706 196.156C366.066 197.766 365.206 196.359 365.55 193.125L366.331 185.344L361.112 179.562C358.659 176.859 359.566 175.406 362.706 174.719L370.331 173.094L374.269 166.312C375.237 164.672 375.769 164.031 376.8 164.031C377.862 164.031 378.394 164.672 379.362 166.312L383.3 173.094L390.956 174.719C394.066 175.406 394.972 176.859 392.55 179.562L387.3 185.344L388.112 193.125C388.441 196.359 387.566 197.766 383.956 196.156L376.8 193.031L369.706 196.156ZM412.388 195.781C410.059 195.797 408.528 195.234 407.544 193.531C406.528 191.828 406.731 190.172 407.95 188.094L418.731 169.594C419.903 167.594 421.2 166.531 423.2 166.531C424.997 166.531 426.372 167.438 427.638 169.594L438.481 188.094C439.731 190.266 439.794 191.906 438.888 193.5C437.934 195.094 436.497 195.797 434.044 195.781H412.388ZM423.2 190.469C422.059 190.469 421.2 189.531 421.2 188.469C421.2 187.359 422.059 186.469 423.2 186.469C424.294 186.469 425.2 187.328 425.2 188.469C425.2 189.531 424.341 190.469 423.2 190.469ZM434.044 193.188C435.763 193.203 436.263 192.906 436.669 192.188C437.106 191.438 437.059 190.766 436.263 189.406L425.45 170.906C424.528 169.359 423.966 169.141 423.2 169.125C422.403 169.141 421.872 169.359 420.981 170.906L410.138 189.406C409.263 190.906 409.341 191.5 409.7 192.156C410.106 192.906 410.606 193.203 412.388 193.188H434.044ZM421.763 184.562V175.062H424.638V184.562H421.763ZM458.788 195.781C456.459 195.797 454.928 195.234 453.944 193.531C452.928 191.828 453.131 190.172 454.35 188.094L465.131 169.594C466.303 167.594 467.6 166.531 469.6 166.531C471.397 166.531 472.772 167.438 474.038 169.594L484.881 188.094C486.131 190.266 486.194 191.906 485.288 193.5C484.334 195.094 482.897 195.797 480.444 195.781H458.788ZM469.6 190.188C470.741 190.203 471.6 189.266 471.6 188.188C471.6 187.062 470.694 186.203 469.6 186.188C468.459 186.203 467.6 187.094 467.6 188.188C467.6 189.266 468.459 190.203 469.6 190.188ZM468.163 184.344H471.038V175.469H468.163V184.344Z" fill="#B0B0B0" fill-opacity="0.28"/>
<path d="M948.787 195.781C946.459 195.797 944.928 195.234 943.944 193.531C942.928 191.828 943.131 190.172 944.35 188.094L955.131 169.594C956.303 167.594 957.6 166.531 959.6 166.531C961.397 166.531 962.772 167.438 964.037 169.594L974.881 188.094C976.131 190.266 976.194 191.906 975.287 193.5C974.334 195.094 972.897 195.797 970.444 195.781H948.787ZM959.6 190.469C958.459 190.469 957.6 189.531 957.6 188.469C957.6 187.359 958.459 186.469 959.6 186.469C960.694 186.469 961.6 187.328 961.6 188.469C961.6 189.531 960.741 190.469 959.6 190.469ZM970.444 193.188C972.162 193.203 972.662 192.906 973.069 192.188C973.506 191.438 973.459 190.766 972.662 189.406L961.85 170.906C960.928 169.359 960.366 169.141 959.6 169.125C958.803 169.141 958.272 169.359 957.381 170.906L946.537 189.406C945.662 190.906 945.741 191.5 946.1 192.156C946.506 192.906 947.006 193.203 948.787 193.188H970.444ZM958.162 184.562V175.062H961.037V184.562H958.162Z" fill="#3385FF"/>
<path d="M902.388 195.781C900.059 195.797 898.528 195.234 897.544 193.531C896.528 191.828 896.731 190.172 897.95 188.094L908.731 169.594C909.903 167.594 911.2 166.531 913.2 166.531C914.997 166.531 916.372 167.438 917.638 169.594L928.481 188.094C929.731 190.266 929.794 191.906 928.888 193.5C927.934 195.094 926.497 195.797 924.044 195.781H902.388ZM913.2 190.469C912.059 190.469 911.2 189.531 911.2 188.469C911.2 187.359 912.059 186.469 913.2 186.469C914.294 186.469 915.2 187.328 915.2 188.469C915.2 189.531 914.341 190.469 913.2 190.469ZM924.044 193.188C925.763 193.203 926.263 192.906 926.669 192.188C927.106 191.438 927.059 190.766 926.263 189.406L915.45 170.906C914.528 169.359 913.966 169.141 913.2 169.125C912.403 169.141 911.872 169.359 910.981 170.906L900.138 189.406C899.263 190.906 899.341 191.5 899.7 192.156C900.106 192.906 900.606 193.203 902.388 193.188H924.044ZM911.763 184.562V175.062H914.638V184.562H911.763Z" fill="white"/>
<path d="M859.706 196.156C856.097 197.766 855.206 196.406 855.55 193.125L856.331 185.344L851.113 179.562C848.659 176.859 849.566 175.406 852.706 174.719L860.331 173.094L864.269 166.312C865.238 164.672 865.769 164.031 866.8 164.031C867.863 164.031 868.394 164.672 869.363 166.312L873.3 173.094L880.956 174.719C884.066 175.406 884.972 176.859 882.55 179.562L877.3 185.344L878.113 193.125C878.441 196.406 877.534 197.766 873.956 196.156L866.8 193L859.706 196.156ZM865.675 190.719C866.128 190.531 866.472 190.438 866.8 190.438C867.159 190.438 867.503 190.531 867.988 190.719L875.363 193.969C875.503 194.031 875.597 194.062 875.581 193.812L874.738 185.812C874.628 184.859 874.659 184.469 875.488 183.562L880.863 177.562C881.003 177.438 880.894 177.359 880.738 177.312L872.956 175.625C871.972 175.438 871.534 175.172 871.019 174.219L866.988 167.219C866.941 167.172 866.863 167.094 866.8 167.094C866.769 167.094 866.706 167.172 866.675 167.219L862.644 174.219C862.066 175.234 861.597 175.438 860.706 175.625L852.894 177.312C852.769 177.359 852.628 177.438 852.769 177.562L858.175 183.562C858.972 184.469 859.003 184.906 858.894 185.812L858.081 193.812C858.034 194.031 858.066 194.031 858.269 193.969L865.675 190.719Z" fill="#3385FF"/>
<path d="M813.306 196.156C809.697 197.766 808.806 196.406 809.15 193.125L809.931 185.344L804.712 179.562C802.259 176.859 803.166 175.406 806.306 174.719L813.931 173.094L817.869 166.312C818.837 164.672 819.369 164.031 820.4 164.031C821.462 164.031 821.994 164.672 822.962 166.312L826.9 173.094L834.556 174.719C837.666 175.406 838.572 176.859 836.15 179.562L830.9 185.344L831.712 193.125C832.041 196.406 831.134 197.766 827.556 196.156L820.4 193L813.306 196.156ZM819.275 190.719C819.728 190.531 820.072 190.438 820.4 190.438C820.759 190.438 821.103 190.531 821.587 190.719L828.962 193.969C829.103 194.031 829.197 194.062 829.181 193.812L828.337 185.812C828.228 184.859 828.259 184.469 829.087 183.562L834.462 177.562C834.603 177.438 834.494 177.359 834.337 177.312L826.556 175.625C825.572 175.438 825.134 175.172 824.619 174.219L820.587 167.219C820.541 167.172 820.462 167.094 820.4 167.094C820.369 167.094 820.306 167.172 820.275 167.219L816.244 174.219C815.666 175.234 815.197 175.438 814.306 175.625L806.494 177.312C806.369 177.359 806.228 177.438 806.369 177.562L811.775 183.562C812.572 184.469 812.603 184.906 812.494 185.812L811.681 193.812C811.634 194.031 811.666 194.031 811.869 193.969L819.275 190.719Z" fill="white"/>
<path d="M774 196.281C773.328 196.297 772.734 196.062 772.25 195.562L760.437 183.625C758.531 181.703 757.703 179.234 757.719 176.812C757.703 171.562 761.734 167.141 767.062 167.125C769.531 167.141 772.141 168.141 774 170.25C775.828 168.172 778.406 167.141 780.906 167.125C786.234 167.141 790.266 171.562 790.281 176.812C790.266 179.234 789.437 181.703 787.531 183.625L775.781 195.562C775.297 196.031 774.672 196.297 774 196.281ZM785.687 181.844C787.094 180.438 787.703 178.5 787.719 176.781C787.703 172.969 784.734 169.703 780.906 169.688C778.969 169.703 776.906 170.531 775.5 172.469C774.859 173.328 774.766 173.703 774 173.688C773.203 173.703 772.859 173.094 772.469 172.531C771.172 170.703 769.172 169.703 767.062 169.688C763.172 169.703 760.266 173 760.281 176.781C760.266 178.672 760.969 180.531 762.312 181.844L774 193.656L785.687 181.844Z" fill="#3385FF"/>
<path d="M727.6 196.281C726.928 196.297 726.334 196.062 725.85 195.562L714.038 183.625C712.131 181.703 711.303 179.234 711.319 176.812C711.303 171.562 715.334 167.141 720.663 167.125C723.131 167.141 725.741 168.141 727.6 170.25C729.428 168.172 732.006 167.141 734.506 167.125C739.834 167.141 743.866 171.562 743.881 176.812C743.866 179.234 743.038 181.703 741.131 183.625L729.381 195.562C728.897 196.031 728.272 196.297 727.6 196.281ZM739.288 181.844C740.694 180.438 741.303 178.5 741.319 176.781C741.303 172.969 738.334 169.703 734.506 169.688C732.569 169.703 730.506 170.531 729.1 172.469C728.459 173.328 728.366 173.703 727.6 173.688C726.803 173.703 726.459 173.094 726.069 172.531C724.772 170.703 722.772 169.703 720.663 169.688C716.772 169.703 713.866 173 713.881 176.781C713.866 178.672 714.569 180.531 715.913 181.844L727.6 193.656L739.288 181.844Z" fill="white"/>
<path d="M672.2 195.781C668.294 195.797 666.559 194.031 666.575 190.156V172.156C666.559 168.297 668.294 166.531 672.2 166.531H690.2C694.059 166.531 695.794 168.297 695.794 172.156V190.156C695.794 194.031 694.059 195.797 690.2 195.781H672.2ZM690.2 193.188C692.7 193.203 693.231 192.703 693.231 190.156V172.156C693.231 169.641 692.7 169.141 690.2 169.125H672.2C669.669 169.141 669.138 169.641 669.138 172.156V190.156C669.138 192.703 669.669 193.203 672.2 193.188H690.2Z" fill="#3385FF"/>
<path d="M625.8 195.781C621.894 195.797 620.159 194.031 620.175 190.156V172.156C620.159 168.297 621.894 166.531 625.8 166.531H643.8C647.659 166.531 649.394 168.297 649.394 172.156V190.156C649.394 194.031 647.659 195.797 643.8 195.781H625.8ZM643.8 193.188C646.3 193.203 646.831 192.703 646.831 190.156V172.156C646.831 169.641 646.3 169.141 643.8 169.125H625.8C623.269 169.141 622.738 169.641 622.738 172.156V190.156C622.738 192.703 623.269 193.203 625.8 193.188H643.8Z" fill="white"/>
<path d="M588.4 197.469C579.431 197.469 572.103 190.141 572.119 181.156C572.103 172.203 579.431 164.859 588.4 164.844C597.338 164.859 604.666 172.203 604.681 181.156C604.666 190.141 597.338 197.469 588.4 197.469ZM588.4 194.844C595.9 194.859 602.103 188.703 602.119 181.156C602.103 173.641 595.9 167.469 588.4 167.469C580.869 167.469 574.666 173.672 574.681 181.156C574.666 188.672 580.869 194.859 588.4 194.844Z" fill="#3385FF"/>
<path d="M542 197.469C533.031 197.469 525.703 190.141 525.719 181.156C525.703 172.203 533.031 164.859 542 164.844C550.938 164.859 558.266 172.203 558.281 181.156C558.266 190.141 550.938 197.469 542 197.469ZM542 194.844C549.5 194.859 555.703 188.703 555.719 181.156C555.703 173.641 549.5 167.469 542 167.469C534.469 167.469 528.266 173.672 528.281 181.156C528.266 188.672 534.469 194.859 542 194.844Z" fill="white"/>
<path d="M636.7 145.031C633.481 145.031 632.028 143.562 632.044 140.344V125.969C632.028 122.766 633.481 121.297 636.7 121.281H651.106C654.294 121.297 655.747 122.766 655.763 125.969V140.344C655.747 143.562 654.294 145.031 651.106 145.031H636.7ZM651.106 142.625C652.95 142.641 653.356 142.234 653.356 140.344V125.969C653.356 124.094 652.95 123.703 651.106 123.688H636.7C634.825 123.703 634.419 124.094 634.419 125.969V140.344C634.419 142.234 634.825 142.641 636.7 142.625H651.106ZM647.231 139.125L646.263 136.312H641.544L640.544 139.125H638.138L642.7 127.25H645.075L649.638 139.125H647.231ZM642.263 134.25H645.544L643.919 129.656H643.856L642.263 134.25Z" fill="#3385FF"/>
<path d="M600.956 145.031C597.738 145.031 596.284 143.562 596.3 140.344V125.969C596.284 122.766 597.738 121.297 600.956 121.281H615.363C618.55 121.297 620.003 122.766 620.019 125.969V140.344C620.003 143.562 618.55 145.031 615.363 145.031H600.956ZM615.363 142.625C617.206 142.641 617.613 142.234 617.613 140.344V125.969C617.613 124.094 617.206 123.703 615.363 123.688H600.956C599.081 123.703 598.675 124.094 598.675 125.969V140.344C598.675 142.234 599.081 142.641 600.956 142.625H615.363ZM611.488 139.125L610.519 136.312H605.8L604.8 139.125H602.394L606.956 127.25H609.331L613.894 139.125H611.488ZM606.519 134.25H609.8L608.175 129.656H608.113L606.519 134.25Z" fill="white"/>
<path d="M572.4 146.344C565.134 146.359 559.197 140.438 559.213 133.156C559.197 125.906 565.134 119.969 572.4 119.969C579.666 119.969 585.603 125.906 585.619 133.156C585.603 140.438 579.666 146.359 572.4 146.344ZM572.4 143.969C578.338 143.969 583.197 139.094 583.213 133.156C583.197 127.234 578.338 122.359 572.4 122.344C566.463 122.359 561.603 127.234 561.619 133.156C561.603 139.094 566.463 143.969 572.4 143.969ZM569.181 129.406C570.119 128.844 571.088 128.125 572.056 127.25H574.181V139.125H572.056V129.75H572.025C571.088 130.484 570.103 131.188 569.181 131.656V129.406Z" fill="#3385FF"/>
<path d="M536.656 146.344C529.391 146.359 523.453 140.438 523.469 133.156C523.453 125.906 529.391 119.969 536.656 119.969C543.922 119.969 549.859 125.906 549.875 133.156C549.859 140.438 543.922 146.359 536.656 146.344ZM536.656 143.969C542.594 143.969 547.453 139.094 547.469 133.156C547.453 127.234 542.594 122.359 536.656 122.344C530.719 122.359 525.859 127.234 525.875 133.156C525.859 139.094 530.719 143.969 536.656 143.969ZM533.438 129.406C534.375 128.844 535.344 128.125 536.313 127.25H538.438V139.125H536.313V129.75H536.281C535.344 130.484 534.359 131.188 533.438 131.656V129.406Z" fill="white"/>
</svg>
