<svg width="1012" height="225" viewBox="0 0 1012 225" fill="none" xmlns="http://www.w3.org/2000/svg">
<rect x="0.5" y="0.5" width="1011" height="224" rx="15.5" stroke="#70737C" stroke-opacity="0.28"/>
<rect x="32" y="32" width="52" height="24" rx="4" fill="#70737C" fill-opacity="0.22"/>
<path d="M39.8359 43.3672C39.8359 41.7734 41.1484 40.7578 43.1719 40.7578C45.1328 40.7578 46.375 41.6641 46.4922 43.2031H44.7734C44.6484 42.5625 44.0312 42.1641 43.1484 42.1641C42.2344 42.1641 41.6328 42.5859 41.6328 43.2266C41.6328 43.7734 42.0234 44.0859 42.9531 44.2891L44.2266 44.5625C45.9375 44.9297 46.6953 45.6562 46.6953 46.9375C46.6953 48.6016 45.3281 49.6719 43.1797 49.6719C41.0859 49.6719 39.7578 48.7422 39.6328 47.1953H41.4375C41.5938 47.8672 42.2422 48.25 43.2109 48.25C44.2031 48.25 44.8281 47.8125 44.8281 47.1484C44.8281 46.5859 44.4688 46.2969 43.4922 46.0859L42.2109 45.8047C40.6328 45.4531 39.8359 44.6406 39.8359 43.3672ZM49.7266 43.3672C49.7266 41.7734 51.0391 40.7578 53.0625 40.7578C55.0234 40.7578 56.2656 41.6641 56.3828 43.2031H54.6641C54.5391 42.5625 53.9219 42.1641 53.0391 42.1641C52.125 42.1641 51.5234 42.5859 51.5234 43.2266C51.5234 43.7734 51.9141 44.0859 52.8438 44.2891L54.1172 44.5625C55.8281 44.9297 56.5859 45.6562 56.5859 46.9375C56.5859 48.6016 55.2188 49.6719 53.0703 49.6719C50.9766 49.6719 49.6484 48.7422 49.5234 47.1953H51.3281C51.4844 47.8672 52.1328 48.25 53.1016 48.25C54.0938 48.25 54.7188 47.8125 54.7188 47.1484C54.7188 46.5859 54.3594 46.2969 53.3828 46.0859L52.1016 45.8047C50.5234 45.4531 49.7266 44.6406 49.7266 43.3672ZM64.2734 47.9141H67.2734V49.5H59.2734V47.9141H62.4219V40.1641H62.2891L59.2578 42.1562V40.3203L62.4297 38.2266H64.2734V47.9141ZM71.4609 44.4375V42.9844H72.7422C73.9219 42.9844 74.7188 42.2734 74.7188 41.2344C74.7188 40.2031 73.9453 39.5469 72.7656 39.5469C71.5859 39.5469 70.8125 40.2188 70.7266 41.3047H69C69.1094 39.2578 70.5625 38 72.8281 38C75.0078 38 76.5156 39.2109 76.5156 40.9609C76.5156 42.2969 75.7734 43.2734 74.5469 43.5469V43.6797C76.0625 43.8672 76.9688 44.8828 76.9688 46.3984C76.9688 48.3594 75.2812 49.7266 72.8672 49.7266C70.5 49.7266 68.8906 48.4062 68.7891 46.3672H70.5469C70.6406 47.4297 71.5234 48.1094 72.8203 48.1094C74.2031 48.1094 75.0781 47.4062 75.0781 46.2969C75.0781 45.1641 74.1797 44.4375 72.7812 44.4375H71.4609Z" fill="white"/>
<rect x="32" y="88" width="948" height="1" fill="#70737C" fill-opacity="0.28"/>
<path d="M46.6562 146.344C39.3906 146.359 33.4531 140.438 33.4688 133.156C33.4531 125.906 39.3906 119.969 46.6562 119.969C53.9219 119.969 59.8594 125.906 59.875 133.156C59.8594 140.438 53.9219 146.359 46.6562 146.344ZM46.6562 143.969C52.5938 143.969 57.4531 139.094 57.4688 133.156C57.4531 127.234 52.5938 122.359 46.6562 122.344C40.7188 122.359 35.8594 127.234 35.875 133.156C35.8594 139.094 40.7188 143.969 46.6562 143.969ZM43.4375 129.406C44.375 128.844 45.3438 128.125 46.3125 127.25H48.4375V139.125H46.3125V129.75H46.2812C45.3438 130.484 44.3594 131.188 43.4375 131.656V129.406ZM82.4 146.344C75.1344 146.359 69.1969 140.438 69.2125 133.156C69.1969 125.906 75.1344 119.969 82.4 119.969C89.6656 119.969 95.6031 125.906 95.6188 133.156C95.6031 140.438 89.6656 146.359 82.4 146.344ZM79.1813 131.656C80.1031 131.188 81.0875 130.484 82.025 129.75H82.0563V139.125H84.1813V127.25H82.0563C81.0875 128.125 80.1188 128.844 79.1813 129.406V131.656ZM110.956 145.031C107.738 145.031 106.284 143.562 106.3 140.344V125.969C106.284 122.766 107.738 121.297 110.956 121.281H125.363C128.55 121.297 130.003 122.766 130.019 125.969V140.344C130.003 143.562 128.55 145.031 125.363 145.031H110.956ZM125.363 142.625C127.206 142.641 127.613 142.234 127.613 140.344V125.969C127.613 124.094 127.206 123.703 125.363 123.688H110.956C109.081 123.703 108.675 124.094 108.675 125.969V140.344C108.675 142.234 109.081 142.641 110.956 142.625H125.363ZM121.488 139.125L120.519 136.312H115.8L114.8 139.125H112.394L116.956 127.25H119.331L123.894 139.125H121.488ZM116.519 134.25H119.8L118.175 129.656H118.113L116.519 134.25ZM146.7 145.031C143.481 145.031 142.028 143.562 142.044 140.344V125.969C142.028 122.766 143.481 121.297 146.7 121.281H161.106C164.294 121.297 165.747 122.766 165.762 125.969V140.344C165.747 143.562 164.294 145.031 161.106 145.031H146.7ZM157.231 139.125H159.637L155.075 127.25H152.7L148.137 139.125H150.544L151.544 136.312H156.262L157.231 139.125ZM152.262 134.25L153.856 129.656H153.919L155.512 134.25H152.262ZM52 197.469C43.0312 197.469 35.7031 190.141 35.7188 181.156C35.7031 172.203 43.0312 164.859 52 164.844C60.9375 164.859 68.2656 172.203 68.2812 181.156C68.2656 190.141 60.9375 197.469 52 197.469ZM52 194.844C59.5 194.859 65.7031 188.703 65.7188 181.156C65.7031 173.641 59.5 167.469 52 167.469C44.4688 167.469 38.2656 173.672 38.2812 181.156C38.2656 188.672 44.4688 194.859 52 194.844ZM98.4 197.469C89.4313 197.469 82.1031 190.141 82.1188 181.156C82.1031 172.203 89.4313 164.859 98.4 164.844C107.338 164.859 114.666 172.203 114.681 181.156C114.666 190.141 107.338 197.469 98.4 197.469ZM135.8 195.781C131.894 195.797 130.159 194.031 130.175 190.156V172.156C130.159 168.297 131.894 166.531 135.8 166.531H153.8C157.659 166.531 159.394 168.297 159.394 172.156V190.156C159.394 194.031 157.659 195.797 153.8 195.781H135.8ZM153.8 193.188C156.3 193.203 156.831 192.703 156.831 190.156V172.156C156.831 169.641 156.3 169.141 153.8 169.125H135.8C133.269 169.141 132.738 169.641 132.738 172.156V190.156C132.738 192.703 133.269 193.203 135.8 193.188H153.8ZM182.2 195.781C178.294 195.797 176.559 194.031 176.575 190.156V172.156C176.559 168.297 178.294 166.531 182.2 166.531H200.2C204.059 166.531 205.794 168.297 205.794 172.156V190.156C205.794 194.031 204.059 195.797 200.2 195.781H182.2Z" fill="#B0B0B0" fill-opacity="0.28"/>
<path d="M672.2 195.781C668.294 195.797 666.559 194.031 666.575 190.156V172.156C666.559 168.297 668.294 166.531 672.2 166.531H690.2C694.059 166.531 695.794 168.297 695.794 172.156V190.156C695.794 194.031 694.059 195.797 690.2 195.781H672.2Z" fill="white"/>
<path d="M625.8 195.781C621.894 195.797 620.159 194.031 620.175 190.156V172.156C620.159 168.297 621.894 166.531 625.8 166.531H643.8C647.659 166.531 649.394 168.297 649.394 172.156V190.156C649.394 194.031 647.659 195.797 643.8 195.781H625.8ZM643.8 193.188C646.3 193.203 646.831 192.703 646.831 190.156V172.156C646.831 169.641 646.3 169.141 643.8 169.125H625.8C623.269 169.141 622.738 169.641 622.738 172.156V190.156C622.738 192.703 623.269 193.203 625.8 193.188H643.8Z" fill="white"/>
<path d="M579.4 195.781C575.494 195.797 573.759 194.031 573.775 190.156V172.156C573.759 168.297 575.494 166.531 579.4 166.531H597.4C601.259 166.531 602.994 168.297 602.994 172.156V190.156C602.994 194.031 601.259 195.797 597.4 195.781H579.4Z" fill="#3385FF"/>
<path d="M533 195.781C529.094 195.797 527.359 194.031 527.375 190.156V172.156C527.359 168.297 529.094 166.531 533 166.531H551C554.859 166.531 556.594 168.297 556.594 172.156V190.156C556.594 194.031 554.859 195.797 551 195.781H533ZM551 193.188C553.5 193.203 554.031 192.703 554.031 190.156V172.156C554.031 169.641 553.5 169.141 551 169.125H533C530.469 169.141 529.937 169.641 529.937 172.156V190.156C529.937 192.703 530.469 193.203 533 193.188H551Z" fill="#3385FF"/>
<path d="M636.7 145.031C633.481 145.031 632.028 143.562 632.044 140.344V125.969C632.028 122.766 633.481 121.297 636.7 121.281H651.106C654.294 121.297 655.747 122.766 655.762 125.969V140.344C655.747 143.562 654.294 145.031 651.106 145.031H636.7ZM647.231 139.125H649.637L645.075 127.25H642.7L638.137 139.125H640.544L641.544 136.312H646.262L647.231 139.125ZM642.262 134.25L643.856 129.656H643.919L645.512 134.25H642.262Z" fill="white"/>
<path d="M600.956 145.031C597.738 145.031 596.284 143.562 596.3 140.344V125.969C596.284 122.766 597.738 121.297 600.956 121.281H615.363C618.55 121.297 620.003 122.766 620.019 125.969V140.344C620.003 143.562 618.55 145.031 615.363 145.031H600.956ZM615.363 142.625C617.206 142.641 617.613 142.234 617.613 140.344V125.969C617.613 124.094 617.206 123.703 615.363 123.688H600.956C599.081 123.703 598.675 124.094 598.675 125.969V140.344C598.675 142.234 599.081 142.641 600.956 142.625H615.363ZM611.488 139.125L610.519 136.312H605.8L604.8 139.125H602.394L606.956 127.25H609.331L613.894 139.125H611.488ZM606.519 134.25H609.8L608.175 129.656H608.113L606.519 134.25Z" fill="white"/>
<path d="M565.213 145.031C561.994 145.031 560.541 143.562 560.556 140.344V125.969C560.541 122.766 561.994 121.297 565.213 121.281H579.619C582.806 121.297 584.259 122.766 584.275 125.969V140.344C584.259 143.562 582.806 145.031 579.619 145.031H565.213ZM569.181 131.656C570.103 131.188 571.088 130.484 572.025 129.75H572.056V139.125H574.181V127.25H572.056C571.088 128.125 570.119 128.844 569.181 129.406V131.656Z" fill="#3385FF"/>
<path d="M529.469 145.031C526.25 145.031 524.797 143.562 524.813 140.344V125.969C524.797 122.766 526.25 121.297 529.469 121.281H543.875C547.063 121.297 548.516 122.766 548.531 125.969V140.344C548.516 143.562 547.063 145.031 543.875 145.031H529.469ZM543.875 142.625C545.719 142.641 546.125 142.234 546.125 140.344V125.969C546.125 124.094 545.719 123.703 543.875 123.688H529.469C527.594 123.703 527.188 124.094 527.188 125.969V140.344C527.188 142.234 527.594 142.641 529.469 142.625H543.875ZM533.438 129.406C534.375 128.844 535.344 128.125 536.313 127.25H538.438V139.125H536.313V129.75H536.281C535.344 130.484 534.359 131.188 533.438 131.656V129.406Z" fill="#3385FF"/>
</svg>
