<svg width="1012" height="273" viewBox="0 0 1012 273" fill="none" xmlns="http://www.w3.org/2000/svg">
<rect x="0.5" y="0.5" width="1011" height="272" rx="15.5" stroke="#70737C" stroke-opacity="0.28"/>
<rect x="32" y="32" width="52" height="24" rx="4" fill="#70737C" fill-opacity="0.22"/>
<path d="M39.8359 43.3672C39.8359 41.7734 41.1484 40.7578 43.1719 40.7578C45.1328 40.7578 46.375 41.6641 46.4922 43.2031H44.7734C44.6484 42.5625 44.0312 42.1641 43.1484 42.1641C42.2344 42.1641 41.6328 42.5859 41.6328 43.2266C41.6328 43.7734 42.0234 44.0859 42.9531 44.2891L44.2266 44.5625C45.9375 44.9297 46.6953 45.6562 46.6953 46.9375C46.6953 48.6016 45.3281 49.6719 43.1797 49.6719C41.0859 49.6719 39.7578 48.7422 39.6328 47.1953H41.4375C41.5938 47.8672 42.2422 48.25 43.2109 48.25C44.2031 48.25 44.8281 47.8125 44.8281 47.1484C44.8281 46.5859 44.4688 46.2969 43.4922 46.0859L42.2109 45.8047C40.6328 45.4531 39.8359 44.6406 39.8359 43.3672ZM49.7266 43.3672C49.7266 41.7734 51.0391 40.7578 53.0625 40.7578C55.0234 40.7578 56.2656 41.6641 56.3828 43.2031H54.6641C54.5391 42.5625 53.9219 42.1641 53.0391 42.1641C52.125 42.1641 51.5234 42.5859 51.5234 43.2266C51.5234 43.7734 51.9141 44.0859 52.8438 44.2891L54.1172 44.5625C55.8281 44.9297 56.5859 45.6562 56.5859 46.9375C56.5859 48.6016 55.2188 49.6719 53.0703 49.6719C50.9766 49.6719 49.6484 48.7422 49.5234 47.1953H51.3281C51.4844 47.8672 52.1328 48.25 53.1016 48.25C54.0938 48.25 54.7188 47.8125 54.7188 47.1484C54.7188 46.5859 54.3594 46.2969 53.3828 46.0859L52.1016 45.8047C50.5234 45.4531 49.7266 44.6406 49.7266 43.3672ZM64.2734 47.9141H67.2734V49.5H59.2734V47.9141H62.4219V40.1641H62.2891L59.2578 42.1562V40.3203L62.4297 38.2266H64.2734V47.9141ZM72.7578 49.7266C70.5078 49.7266 68.9219 48.375 68.8359 46.3828H70.6641C70.7891 47.3984 71.6641 48.0938 72.8203 48.0938C74.125 48.0938 75 47.1875 75 45.8359C75 44.4766 74.1172 43.5625 72.8203 43.5625C71.9297 43.5625 71.2266 43.9453 70.8047 44.6797H68.9922L69.5391 38.2266H76.1406V39.8359H71.0391L70.7656 43.1172H70.8984C71.4062 42.4297 72.2422 42.0547 73.2734 42.0547C75.3594 42.0547 76.8047 43.5859 76.8047 45.7891C76.8047 48.1484 75.1797 49.7266 72.7578 49.7266Z" fill="white"/>
<rect x="32" y="88" width="948" height="1" fill="#70737C" fill-opacity="0.28"/>
<path d="M42.8438 143.625C42.0938 143.641 41.5312 143.031 41.5312 142.312V127.312C41.5312 126.641 42.0938 126.031 42.8438 126.031C43.5312 126.031 44.0938 126.641 44.0938 127.312V139.219L60.2812 123.094C60.7656 122.594 61.5312 122.594 62.0312 123.094C62.5938 123.641 62.5312 124.406 62.0312 124.906L45.9375 141.031H57.8438C58.5312 141.031 59.0938 141.594 59.0938 142.312C59.0938 143.062 58.5312 143.641 57.8438 143.625H42.8438ZM92.5875 143.625C91.8375 143.641 91.2594 143.062 91.275 142.312C91.2594 141.594 91.8375 141.031 92.5875 141.031H104.431L88.3375 124.906C87.7594 124.328 87.8375 123.594 88.3375 123.094C88.8688 122.594 89.6031 122.594 90.1188 123.094L106.275 139.219V127.312C106.259 126.641 106.838 126.031 107.588 126.031C108.259 126.031 108.838 126.641 108.838 127.312V142.312C108.838 143.031 108.259 143.641 107.588 143.625H92.5875ZM133.081 136.562C132.503 136 132.566 135.266 133.081 134.75C133.503 134.328 134.269 134.203 134.831 134.75L143.519 143.406V119.812C143.503 119.141 144.066 118.531 144.8 118.531C145.503 118.531 146.066 119.141 146.081 119.812V143.406L154.738 134.75C155.238 134.266 156.003 134.266 156.519 134.75C157.066 135.297 157.003 136.062 156.519 136.562L145.675 147.406C145.159 147.906 144.441 147.938 143.894 147.406L133.081 136.562ZM176.981 134.062C176.434 133.531 176.434 132.797 176.981 132.25L187.794 121.438C188.341 120.906 189.059 120.938 189.575 121.438C190.137 121.969 190.059 122.734 189.575 123.219L180.981 131.844H204.544C205.231 131.859 205.794 132.469 205.794 133.156C205.794 133.859 205.231 134.469 204.544 134.469H180.981L189.575 143.094C190.137 143.672 190.059 144.406 189.575 144.906C189.028 145.438 188.294 145.406 187.794 144.906L176.981 134.062ZM222.538 134.062C222.006 133.531 222.006 132.797 222.538 132.25L230.881 123.938C231.397 123.406 232.131 123.438 232.631 123.938C233.194 124.469 233.131 125.234 232.631 125.719L226.538 131.844H248.631L242.538 125.719C241.959 125.172 242.038 124.438 242.538 123.938C243.069 123.438 243.803 123.438 244.319 123.938L252.631 132.25C253.163 132.797 253.163 133.531 252.631 134.062L244.319 142.406C243.803 142.906 243.038 142.906 242.538 142.406C242.038 141.906 242.006 141.141 242.538 140.594L248.631 134.469H226.538L232.631 140.594C233.194 141.172 233.131 141.906 232.631 142.406C232.1 142.938 231.366 142.906 230.881 142.406L222.538 134.062ZM285.594 144.906C285.141 144.438 285.031 143.672 285.594 143.094L294.219 134.469H270.688C269.938 134.469 269.359 133.906 269.375 133.156C269.359 132.438 269.938 131.859 270.688 131.844H294.219L285.594 123.219C285.031 122.672 285.094 121.938 285.594 121.438C286.141 120.938 286.859 120.938 287.375 121.438L298.219 132.25C298.734 132.797 298.734 133.531 298.219 134.062L287.375 144.906C286.859 145.406 286.094 145.406 285.594 144.906ZM338.681 143.219L322.494 127.094V139C322.494 139.703 321.931 140.297 321.244 140.281C320.494 140.297 319.931 139.703 319.931 139V124C319.931 123.297 320.494 122.703 321.244 122.688H336.244C336.931 122.703 337.494 123.266 337.494 124C337.494 124.734 336.931 125.297 336.244 125.281H324.337L340.431 141.438C340.994 142 340.931 142.734 340.431 143.219C339.9 143.766 339.166 143.734 338.681 143.219ZM366.737 143.219C366.269 142.766 366.159 142 366.737 141.438L382.831 125.281H370.987C370.237 125.297 369.659 124.734 369.675 124C369.659 123.266 370.237 122.703 370.987 122.688H385.987C386.659 122.703 387.237 123.297 387.237 124V139C387.237 139.703 386.659 140.297 385.987 140.281C385.237 140.297 384.659 139.703 384.675 139V127.094L368.519 143.219C368.003 143.734 367.237 143.734 366.737 143.219ZM423.2 147.781C422.466 147.797 421.903 147.203 421.919 146.5V122.938L413.231 131.562C412.731 132.062 411.966 132.062 411.481 131.562C411.028 131.141 410.872 130.359 411.481 129.75L422.294 118.938C422.841 118.406 423.559 118.438 424.075 118.938L434.919 129.75C435.466 130.328 435.403 131.062 434.919 131.562C434.372 132.062 433.638 132.062 433.138 131.562L424.481 122.938V146.5C424.466 147.203 423.903 147.797 423.2 147.781ZM460.381 139.906C459.803 139.328 459.866 138.594 460.381 138.094C460.803 137.672 461.569 137.531 462.131 138.094L468.319 144.219V122.094L462.131 128.219C461.631 128.734 460.866 128.734 460.381 128.219C459.928 127.797 459.772 127.031 460.381 126.438L468.694 118.094C469.241 117.562 469.959 117.594 470.475 118.094L478.819 126.438C479.366 127 479.303 127.734 478.819 128.219C478.272 128.734 477.538 128.734 477.038 128.219L470.881 122.094V144.219L477.038 138.094C477.506 137.641 478.272 137.562 478.819 138.094C479.366 138.641 479.303 139.406 478.819 139.906L470.475 148.219C469.959 148.734 469.241 148.766 468.694 148.219L460.381 139.906ZM48.8438 190.344C48.5625 190.359 48.2031 190.234 47.9375 189.969L39.25 181.25C38.7969 180.828 38.6406 180.031 39.25 179.469C39.6719 179.031 40.4375 178.938 41 179.5L48.8125 187.188L62.9375 172.344C63.4688 171.797 64.2656 171.828 64.7812 172.312C65.2031 172.766 65.3594 173.531 64.8125 174.125L49.7812 189.969C49.4688 190.266 49.1719 190.359 48.8438 190.344ZM98.4 197.469C89.4313 197.469 82.1031 190.141 82.1188 181.156C82.1031 172.203 89.4313 164.859 98.4 164.844C107.338 164.859 114.666 172.203 114.681 181.156C114.666 190.141 107.338 197.469 98.4 197.469ZM98.4 194.844C105.9 194.859 112.103 188.703 112.119 181.156C112.103 173.641 105.9 167.469 98.4 167.469C90.8688 167.469 84.6656 173.672 84.6813 181.156C84.6656 188.672 90.8688 194.859 98.4 194.844ZM144.8 197.469C135.831 197.469 128.503 190.141 128.519 181.156C128.503 172.203 135.831 164.859 144.8 164.844C153.738 164.859 161.066 172.203 161.081 181.156C161.066 190.141 153.738 197.469 144.8 197.469ZM179.075 193.281C178.559 192.797 178.528 192.062 179.075 191.531L189.387 181.156L179.075 170.781C178.528 170.266 178.559 169.531 179.075 169.031C179.559 168.531 180.294 168.5 180.856 169.031L191.2 179.312L201.575 169.031C201.997 168.594 202.794 168.438 203.387 169.031C203.872 169.562 203.841 170.297 203.356 170.781L193.044 181.156L203.356 191.531C203.794 192 203.903 192.766 203.387 193.281C202.841 193.859 202.059 193.797 201.575 193.281L191.2 183L180.856 193.281C180.294 193.828 179.559 193.797 179.075 193.281ZM237.6 196.281C236.928 196.297 236.334 196.062 235.85 195.562L224.038 183.625C222.131 181.703 221.303 179.234 221.319 176.812C221.303 171.562 225.334 167.141 230.663 167.125C233.131 167.141 235.741 168.141 237.6 170.25C239.428 168.172 242.006 167.141 244.506 167.125C249.834 167.141 253.866 171.562 253.881 176.812C253.866 179.234 253.038 181.703 251.131 183.625L239.381 195.562C238.897 196.031 238.272 196.297 237.6 196.281ZM249.288 181.844C250.694 180.438 251.303 178.5 251.319 176.781C251.303 172.969 248.334 169.703 244.506 169.688C242.569 169.703 240.506 170.531 239.1 172.469C238.459 173.328 238.366 173.703 237.6 173.688C236.803 173.703 236.459 173.094 236.069 172.531C234.772 170.703 232.772 169.703 230.663 169.688C226.772 169.703 223.866 173 223.881 176.781C223.866 178.672 224.569 180.531 225.913 181.844L237.6 193.656L249.288 181.844ZM284 196.281C283.328 196.297 282.734 196.062 282.25 195.562L270.438 183.625C268.531 181.703 267.703 179.234 267.719 176.812C267.703 171.562 271.734 167.141 277.062 167.125C279.531 167.141 282.141 168.141 284 170.25C285.828 168.172 288.406 167.141 290.906 167.125C296.234 167.141 300.266 171.562 300.281 176.812C300.266 179.234 299.438 181.703 297.531 183.625L285.781 195.562C285.297 196.031 284.672 196.297 284 196.281ZM321.4 195.781C317.494 195.797 315.759 194.031 315.775 190.156V172.156C315.759 168.297 317.494 166.531 321.4 166.531H339.4C343.259 166.531 344.994 168.297 344.994 172.156V190.156C344.994 194.031 343.259 195.797 339.4 195.781H321.4ZM339.4 193.188C341.9 193.203 342.431 192.703 342.431 190.156V172.156C342.431 169.641 341.9 169.141 339.4 169.125H321.4C318.869 169.141 318.337 169.641 318.337 172.156V190.156C318.337 192.703 318.869 193.203 321.4 193.188H339.4ZM367.8 195.781C363.894 195.797 362.159 194.031 362.175 190.156V172.156C362.159 168.297 363.894 166.531 367.8 166.531H385.8C389.659 166.531 391.394 168.297 391.394 172.156V190.156C391.394 194.031 389.659 195.797 385.8 195.781H367.8ZM416.106 196.156C412.497 197.766 411.606 196.406 411.95 193.125L412.731 185.344L407.513 179.562C405.059 176.859 405.966 175.406 409.106 174.719L416.731 173.094L420.669 166.312C421.638 164.672 422.169 164.031 423.2 164.031C424.263 164.031 424.794 164.672 425.763 166.312L429.7 173.094L437.356 174.719C440.466 175.406 441.372 176.859 438.95 179.562L433.7 185.344L434.513 193.125C434.841 196.406 433.934 197.766 430.356 196.156L423.2 193L416.106 196.156ZM422.075 190.719C422.528 190.531 422.872 190.438 423.2 190.438C423.559 190.438 423.903 190.531 424.388 190.719L431.763 193.969C431.903 194.031 431.997 194.062 431.981 193.812L431.138 185.812C431.028 184.859 431.059 184.469 431.888 183.562L437.263 177.562C437.403 177.438 437.294 177.359 437.138 177.312L429.356 175.625C428.372 175.438 427.934 175.172 427.419 174.219L423.388 167.219C423.341 167.172 423.263 167.094 423.2 167.094C423.169 167.094 423.106 167.172 423.075 167.219L419.044 174.219C418.466 175.234 417.997 175.438 417.106 175.625L409.294 177.312C409.169 177.359 409.028 177.438 409.169 177.562L414.575 183.562C415.372 184.469 415.403 184.906 415.294 185.812L414.481 193.812C414.434 194.031 414.466 194.031 414.669 193.969L422.075 190.719ZM462.506 196.156C458.866 197.766 458.006 196.359 458.35 193.125L459.131 185.344L453.913 179.562C451.459 176.859 452.366 175.406 455.506 174.719L463.131 173.094L467.069 166.312C468.038 164.672 468.569 164.031 469.6 164.031C470.663 164.031 471.194 164.672 472.163 166.312L476.1 173.094L483.756 174.719C486.866 175.406 487.772 176.859 485.35 179.562L480.1 185.344L480.913 193.125C481.241 196.359 480.366 197.766 476.756 196.156L469.6 193.031L462.506 196.156ZM41.1875 243.781C38.8594 243.797 37.3281 243.234 36.3438 241.531C35.3281 239.828 35.5312 238.172 36.75 236.094L47.5312 217.594C48.7031 215.594 50 214.531 52 214.531C53.7969 214.531 55.1719 215.438 56.4375 217.594L67.2812 236.094C68.5312 238.266 68.5938 239.906 67.6875 241.5C66.7344 243.094 65.2969 243.797 62.8438 243.781H41.1875ZM52 238.469C50.8594 238.469 50 237.531 50 236.469C50 235.359 50.8594 234.469 52 234.469C53.0938 234.469 54 235.328 54 236.469C54 237.531 53.1406 238.469 52 238.469ZM62.8438 241.188C64.5625 241.203 65.0625 240.906 65.4688 240.188C65.9062 239.438 65.8594 238.766 65.0625 237.406L54.25 218.906C53.3281 217.359 52.7656 217.141 52 217.125C51.2031 217.141 50.6719 217.359 49.7812 218.906L38.9375 237.406C38.0625 238.906 38.1406 239.5 38.5 240.156C38.9062 240.906 39.4062 241.203 41.1875 241.188H62.8438ZM50.5625 232.562V223.062H53.4375V232.562H50.5625ZM87.5875 243.781C85.2594 243.797 83.7281 243.234 82.7438 241.531C81.7281 239.828 81.9313 238.172 83.15 236.094L93.9313 217.594C95.1031 215.594 96.4 214.531 98.4 214.531C100.197 214.531 101.572 215.438 102.838 217.594L113.681 236.094C114.931 238.266 114.994 239.906 114.088 241.5C113.134 243.094 111.697 243.797 109.244 243.781H87.5875ZM98.4 238.188C99.5406 238.203 100.4 237.266 100.4 236.188C100.4 235.062 99.4938 234.203 98.4 234.188C97.2594 234.203 96.4 235.094 96.4 236.188C96.4 237.266 97.2594 238.203 98.4 238.188ZM96.9625 232.344H99.8375V223.469H96.9625V232.344Z" fill="#B0B0B0" fill-opacity="0.28"/>
<path d="M530.688 141.688C530 141.703 529.469 141.172 529.469 140.5V128.5C529.469 127.828 530 127.297 530.688 127.281C531.328 127.297 531.859 127.828 531.875 128.5V137.594L544.5 125C544.969 124.5 545.703 124.5 546.188 125C546.672 125.469 546.672 126.203 546.188 126.656L533.562 139.281H542.688C543.328 139.297 543.859 139.828 543.875 140.5C543.859 141.172 543.328 141.703 542.688 141.688H530.688ZM571.744 141.688C571.072 141.703 570.541 141.172 570.556 140.5C570.541 139.828 571.072 139.297 571.744 139.281H580.838L568.244 126.656C567.728 126.203 567.728 125.469 568.244 125C568.697 124.5 569.431 124.5 569.9 125L582.556 137.594V128.5C582.541 127.828 583.072 127.297 583.744 127.281C584.4 127.297 584.931 127.828 584.931 128.5V140.5C584.931 141.172 584.4 141.703 583.744 141.688H571.744ZM605.3 136C604.8 135.531 604.8 134.797 605.3 134.312C605.769 133.828 606.503 133.828 606.988 134.312L613.613 140.938V122.5C613.597 121.828 614.128 121.297 614.8 121.281C615.472 121.297 616.003 121.828 616.019 122.5V140.938L622.644 134.312C623.097 133.828 623.831 133.828 624.3 134.312C624.8 134.797 624.8 135.531 624.3 136L615.644 144.656C615.159 145.172 614.441 145.172 613.988 144.656L605.3 136ZM641.7 134C641.2 133.531 641.2 132.797 641.7 132.312L650.387 123.656C650.841 123.172 651.559 123.172 652.044 123.656C652.528 124.141 652.528 124.859 652.044 125.312L645.45 131.969H663.887C664.528 131.969 665.059 132.5 665.075 133.156C665.059 133.828 664.528 134.359 663.887 134.344H645.45L652.044 141C652.528 141.469 652.528 142.203 652.044 142.656C651.559 143.172 650.841 143.172 650.387 142.656L641.7 134ZM679.444 134C678.928 133.531 678.928 132.797 679.444 132.312L686.1 125.656C686.569 125.172 687.303 125.172 687.788 125.656C688.272 126.141 688.272 126.859 687.788 127.312L683.163 131.969H700.038L695.444 127.312C694.928 126.859 694.928 126.141 695.444 125.656C695.897 125.172 696.631 125.172 697.1 125.656L703.788 132.312C704.272 132.797 704.272 133.531 703.788 134L697.1 140.656C696.631 141.172 695.897 141.172 695.444 140.656C694.928 140.203 694.928 139.469 695.444 139L700.038 134.344H683.163L687.788 139C688.272 139.469 688.272 140.203 687.788 140.656C687.303 141.172 686.569 141.172 686.1 140.656L679.444 134ZM731.188 142.656C730.672 142.203 730.672 141.469 731.188 141L737.781 134.344H719.344C718.672 134.359 718.141 133.828 718.156 133.156C718.141 132.5 718.672 131.969 719.344 131.969H737.781L731.188 125.312C730.672 124.859 730.672 124.141 731.188 123.656C731.641 123.172 732.359 123.172 732.844 123.656L741.5 132.312C742 132.797 742 133.531 741.5 134L732.844 142.656C732.359 143.172 731.641 143.172 731.188 142.656ZM774.9 141.312L762.275 128.719V137.812C762.259 138.5 761.728 139.031 761.087 139.031C760.4 139.031 759.869 138.5 759.869 137.812V125.812C759.869 125.172 760.4 124.641 761.087 124.625H773.087C773.728 124.641 774.259 125.172 774.275 125.812C774.259 126.5 773.728 127.031 773.087 127.031H763.962L776.587 139.656C777.072 140.141 777.072 140.859 776.587 141.312C776.103 141.828 775.369 141.828 774.9 141.312ZM798.644 141.312C798.128 140.859 798.128 140.141 798.644 139.656L811.237 127.031H802.144C801.472 127.031 800.941 126.5 800.956 125.812C800.941 125.172 801.472 124.641 802.144 124.625H814.144C814.8 124.641 815.331 125.172 815.331 125.812V137.812C815.331 138.5 814.8 139.031 814.144 139.031C813.472 139.031 812.941 138.5 812.956 137.812V128.719L800.3 141.312C799.831 141.828 799.097 141.828 798.644 141.312ZM845.2 145.031C844.528 145.031 843.997 144.5 844.013 143.812V125.406L837.388 132C836.903 132.5 836.169 132.5 835.7 132C835.2 131.531 835.2 130.797 835.7 130.312L844.388 121.656C844.841 121.172 845.559 121.172 846.044 121.656L854.7 130.312C855.2 130.797 855.2 131.531 854.7 132C854.231 132.5 853.497 132.5 853.044 132L846.419 125.406V143.812C846.403 144.5 845.872 145.031 845.2 145.031ZM876.1 138.656C875.6 138.203 875.6 137.469 876.1 137C876.569 136.5 877.303 136.5 877.788 137L882.413 141.594V124.719L877.788 129.312C877.303 129.828 876.569 129.828 876.1 129.312C875.6 128.859 875.6 128.141 876.1 127.656L882.788 121C883.241 120.5 883.959 120.5 884.444 121L891.1 127.656C891.6 128.141 891.6 128.859 891.1 129.312C890.631 129.828 889.897 129.828 889.444 129.312L884.819 124.719V141.594L889.444 137C889.897 136.5 890.631 136.5 891.1 137C891.6 137.469 891.6 138.203 891.1 138.656L884.444 145.312C883.959 145.828 883.241 145.828 882.788 145.312L876.1 138.656ZM919.469 140.688C919.172 140.703 918.828 140.562 918.656 140.312L911.688 133.344C911.172 132.906 911.172 132.172 911.688 131.688C912.141 131.203 912.859 131.203 913.344 131.688L919.438 137.75L930.656 126C931.094 125.531 931.828 125.5 932.344 125.969C932.797 126.438 932.828 127.172 932.375 127.656L920.344 140.312C920.094 140.562 919.797 140.703 919.469 140.688ZM960.4 146.344C953.134 146.359 947.197 140.438 947.212 133.156C947.197 125.906 953.134 119.969 960.4 119.969C967.666 119.969 973.603 125.906 973.619 133.156C973.603 140.438 967.666 146.359 960.4 146.344ZM960.4 143.969C966.337 143.969 971.197 139.094 971.212 133.156C971.197 127.234 966.337 122.359 960.4 122.344C954.462 122.359 949.603 127.234 949.619 133.156C949.603 139.094 954.462 143.969 960.4 143.969ZM538 194.344C530.734 194.359 524.797 188.438 524.812 181.156C524.797 173.906 530.734 167.969 538 167.969C545.266 167.969 551.203 173.906 551.219 181.156C551.203 188.438 545.266 194.359 538 194.344ZM566.588 191C566.072 190.531 566.072 189.797 566.588 189.312L574.713 181.156L566.588 173C566.072 172.531 566.072 171.797 566.588 171.312C567.041 170.828 567.759 170.828 568.244 171.312L576.4 179.469L584.588 171.312C585.041 170.828 585.759 170.828 586.244 171.312C586.728 171.797 586.728 172.531 586.244 173L578.119 181.156L586.244 189.312C586.728 189.797 586.728 190.531 586.244 191C585.759 191.5 585.041 191.5 584.588 191L576.4 182.844L568.244 191C567.759 191.5 567.041 191.5 566.588 191ZM614.8 193.438C614.238 193.438 613.706 193.234 613.269 192.781L603.831 183.25C602.331 181.703 601.597 179.703 601.613 177.688C601.597 173.359 604.941 169.766 609.269 169.75C611.3 169.766 613.331 170.594 614.8 172.188C616.269 170.594 618.3 169.766 620.331 169.75C624.659 169.766 628.003 173.359 628.019 177.688C628.003 179.703 627.269 181.703 625.769 183.25L616.331 192.781C615.941 193.234 615.363 193.438 614.8 193.438ZM624.05 181.594C625.066 180.531 625.597 179.094 625.613 177.656C625.597 174.703 623.3 172.172 620.331 172.156C618.738 172.172 617.159 172.906 616.144 174.312C615.628 175.031 615.472 175.359 614.8 175.344C614.097 175.359 613.831 174.906 613.456 174.312C612.394 172.906 610.831 172.172 609.269 172.156C606.269 172.172 604.003 174.703 604.019 177.656C604.003 179.094 604.534 180.531 605.581 181.594L614.8 190.938L624.05 181.594ZM653.2 193.438C652.637 193.438 652.106 193.234 651.669 192.781L642.231 183.25C640.731 181.703 639.997 179.703 640.012 177.688C639.997 173.359 643.341 169.766 647.669 169.75C649.7 169.766 651.731 170.594 653.2 172.188C654.669 170.594 656.7 169.766 658.731 169.75C663.059 169.766 666.403 173.359 666.419 177.688C666.403 179.703 665.669 181.703 664.169 183.25L654.731 192.781C654.341 193.234 653.762 193.438 653.2 193.438ZM684.413 193.031C681.194 193.031 679.741 191.562 679.756 188.344V173.969C679.741 170.766 681.194 169.297 684.413 169.281H698.819C702.006 169.297 703.459 170.766 703.475 173.969V188.344C703.459 191.562 702.006 193.031 698.819 193.031H684.413ZM698.819 190.625C700.663 190.641 701.069 190.234 701.069 188.344V173.969C701.069 172.094 700.663 171.703 698.819 171.688H684.413C682.538 171.703 682.131 172.094 682.131 173.969V188.344C682.131 190.234 682.538 190.641 684.413 190.625H698.819ZM722.812 193.031C719.594 193.031 718.141 191.562 718.156 188.344V173.969C718.141 170.766 719.594 169.297 722.812 169.281H737.219C740.406 169.297 741.859 170.766 741.875 173.969V188.344C741.859 191.562 740.406 193.031 737.219 193.031H722.812ZM762.775 193.312C759.837 194.641 758.931 193.531 759.212 190.719L759.837 184.594L755.712 180C753.697 177.797 754.369 176.438 757.087 175.844L763.119 174.562L766.212 169.188C767.041 167.828 767.494 167.297 768.4 167.281C769.306 167.297 769.759 167.828 770.619 169.188L773.712 174.562L779.744 175.844C782.431 176.438 783.103 177.797 781.119 180L776.962 184.594L777.619 190.719C777.869 193.531 776.962 194.641 774.056 193.312L768.4 190.812L762.775 193.312ZM767.4 188.656C767.806 188.5 768.103 188.406 768.4 188.406C768.697 188.406 768.994 188.5 769.4 188.656L775.056 191.125C775.166 191.203 775.228 191.203 775.212 191L774.587 184.938C774.462 184.141 774.541 183.734 775.212 182.969L779.306 178.406C779.4 178.297 779.369 178.234 779.212 178.188L773.275 176.906C772.462 176.766 772.072 176.531 771.619 175.688L768.556 170.406C768.494 170.328 768.431 170.266 768.4 170.25C768.369 170.266 768.306 170.328 768.275 170.406L765.212 175.688C764.728 176.531 764.337 176.766 763.556 176.906L757.619 178.188C757.431 178.234 757.4 178.297 757.494 178.406L761.619 182.969C762.259 183.734 762.337 184.141 762.244 184.938L761.619 191C761.572 191.203 761.634 191.203 761.775 191.125L767.4 188.656ZM801.175 193.312C798.237 194.641 797.331 193.531 797.612 190.719L798.237 184.594L794.112 180C792.097 177.797 792.769 176.438 795.487 175.844L801.519 174.562L804.612 169.188C805.441 167.828 805.894 167.297 806.8 167.281C807.706 167.297 808.159 167.828 809.019 169.188L812.112 174.562L818.144 175.844C820.831 176.438 821.503 177.797 819.519 180L815.362 184.594L816.019 190.719C816.269 193.531 815.362 194.641 812.456 193.312L806.8 190.812L801.175 193.312ZM836.544 193.031C834.466 193.031 833.263 192.438 832.513 191.094C831.731 189.766 831.794 188.406 832.856 186.625L841.513 171.812C842.528 170.062 843.669 169.297 845.2 169.281C846.731 169.297 847.872 170.062 848.919 171.812L857.575 186.625C858.606 188.406 858.669 189.766 857.919 191.094C857.138 192.438 855.934 193.031 853.888 193.031H836.544ZM845.2 188.5C844.294 188.5 843.606 187.766 843.606 186.906C843.606 186 844.294 185.297 845.2 185.281C846.106 185.297 846.794 186 846.794 186.906C846.794 187.766 846.106 188.5 845.2 188.5ZM853.888 190.625C855.138 190.641 855.528 190.438 855.856 189.906C856.138 189.359 856.138 188.906 855.513 187.812L846.856 173.031C846.2 171.938 845.794 171.703 845.2 171.688C844.606 171.703 844.2 171.938 843.575 173.031L834.919 187.812C834.263 188.906 834.263 189.359 834.575 189.906C834.872 190.438 835.263 190.641 836.544 190.625H853.888ZM844.013 183.812V176.5H846.419V183.812H844.013ZM874.944 193.031C872.866 193.031 871.663 192.438 870.913 191.094C870.131 189.766 870.194 188.406 871.256 186.625L879.913 171.812C880.928 170.062 882.069 169.297 883.6 169.281C885.131 169.297 886.272 170.062 887.319 171.812L895.975 186.625C897.006 188.406 897.069 189.766 896.319 191.094C895.538 192.438 894.334 193.031 892.288 193.031H874.944ZM883.6 188.5C884.506 188.5 885.194 187.766 885.194 186.906C885.194 186 884.506 185.297 883.6 185.281C882.694 185.297 882.006 186 882.006 186.906C882.006 187.766 882.694 188.5 883.6 188.5ZM882.413 183.812H884.819V176.5H882.413V183.812Z" fill="#3385FF"/>
</svg>
