<svg width="1012" height="225" viewBox="0 0 1012 225" fill="none" xmlns="http://www.w3.org/2000/svg">
<rect x="0.5" y="0.5" width="1011" height="224" rx="15.5" stroke="#70737C" stroke-opacity="0.28"/>
<rect x="32" y="32" width="52" height="24" rx="4" fill="#70737C" fill-opacity="0.22"/>
<path d="M41.5156 38.5547H43.2969V41H46.6016V42.4688H43.3281V46.8672C43.3281 47.625 43.8672 48.0469 44.8359 48.0469C45.1484 48.0469 46.3828 48.0391 46.5312 48.0234V49.4766C46.3906 49.5 44.9531 49.5234 44.6953 49.5234C42.4453 49.5234 41.5156 48.7578 41.5156 46.8594V42.4688H39.2656V41H41.5156V38.5547ZM49.3594 49.5V40.9453H51.1172V42.4062H51.2422C51.6797 41.3594 52.625 40.7734 53.8828 40.7734C55.7422 40.7734 56.75 41.8828 56.75 43.9531V49.5H54.9297V44.3984C54.9297 43.0234 54.3672 42.3672 53.1953 42.3672C51.9766 42.3672 51.1797 43.2188 51.1797 44.5156V49.5H49.3594ZM66.6406 40.9453V49.5H64.8828V48.0391H64.7578C64.3203 49.0859 63.375 49.6719 62.1172 49.6719C60.2578 49.6719 59.25 48.5625 59.25 46.4844V40.9453H61.0703V46.0469C61.0703 47.4219 61.6328 48.0703 62.8047 48.0703C64.0234 48.0703 64.8203 47.2266 64.8203 45.9297V40.9453H66.6406ZM77.0781 43V49.5H75.5156V43.5781C75.5156 42.7969 75.1797 42.3516 74.6016 42.3516C74 42.3516 73.625 42.8594 73.625 43.6641V49.5H72.0703V43.5781C72.0703 42.7891 71.7422 42.3516 71.1562 42.3516C70.5469 42.3516 70.1562 42.8594 70.1562 43.6641V49.5H68.5938V40.9453H70.1875V42.2266H70.3828C70.5781 41.2969 71.1797 40.7734 72 40.7734C72.7969 40.7734 73.3438 41.2812 73.5234 42.1797H73.7188C73.9141 41.3047 74.5469 40.7734 75.3828 40.7734C76.4922 40.7734 77.0781 41.5469 77.0781 43Z" fill="white"/>
<rect x="32" y="88" width="948" height="1" fill="#70737C" fill-opacity="0.28"/>
<path d="M33.875 125.875C35.6562 124.812 37.4375 123.5 39.3125 121.875H42V144.5H39.3125V125.344H39.1875C37.4531 126.719 35.6406 127.922 33.875 128.844V125.875ZM51.4688 141.25L48.9062 149H46.5938L48.7188 141.25H51.4688ZM53.75 125.875C55.5312 124.812 57.3125 123.5 59.1875 121.875H61.875V144.5H59.1875V125.344H59.0625C57.3281 126.719 55.5156 127.922 53.75 128.844V125.875ZM67.5 125.875C69.2812 124.812 71.0625 123.5 72.9375 121.875H75.625V144.5H72.9375V125.344H72.8125C71.0781 126.719 69.2656 127.922 67.5 128.844V125.875ZM81.25 125.875C83.0312 124.812 84.8125 123.5 86.6875 121.875H89.375V144.5H86.6875V125.344H86.5625C84.8281 126.719 83.0156 127.922 81.25 128.844V125.875ZM98.8438 141.25L96.2812 149H93.9688L96.0938 141.25H98.8438ZM101.125 125.875C102.906 124.812 104.688 123.5 106.562 121.875H109.25V144.5H106.562V125.344H106.438C104.703 126.719 102.891 127.922 101.125 128.844V125.875ZM114.875 125.875C116.656 124.812 118.438 123.5 120.312 121.875H123V144.5H120.312V125.344H120.188C118.453 126.719 116.641 127.922 114.875 128.844V125.875ZM128.625 125.875C130.406 124.812 132.188 123.5 134.062 121.875H136.75V144.5H134.062V125.344H133.938C132.203 126.719 130.391 127.922 128.625 128.844V125.875ZM146.219 141.25L143.656 149H141.344L143.469 141.25H146.219ZM148.5 125.875C150.281 124.812 152.062 123.5 153.938 121.875H156.625V144.5H153.938V125.344H153.812C152.078 126.719 150.266 127.922 148.5 128.844V125.875ZM162.25 125.875C164.031 124.812 165.812 123.5 167.688 121.875H170.375V144.5H167.688V125.344H167.562C165.828 126.719 164.016 127.922 162.25 128.844V125.875ZM176 125.875C177.781 124.812 179.562 123.5 181.438 121.875H184.125V144.5H181.438V125.344H181.312C179.578 126.719 177.766 127.922 176 128.844V125.875ZM33.875 173.875C35.6562 172.812 37.4375 171.5 39.3125 169.875H42V192.5H39.3125V173.344H39.1875C37.4531 174.719 35.6406 175.922 33.875 176.844V173.875ZM51.4688 189.25L48.9062 197H46.5938L48.7188 189.25H51.4688ZM55.75 189.938C63.75 184.469 67.4062 180.188 67.4062 176.375C67.4062 173.594 65.5312 172 62.8438 172C60.75 172 59.2188 172.969 58.375 175.75L55.75 175C56.9375 171.094 59.5938 169.438 62.8438 169.438C66.9688 169.438 70.1562 172.094 70.1562 176.375C70.1562 180.781 66.4375 185.109 60.1562 189.812V189.938H70.5V192.5H55.75V189.938ZM82.25 192.938C78.5 192.938 75.75 191.031 74.125 187.656L76.5938 186.531C77.8438 189.125 79.7188 190.375 82.25 190.375C85.2812 190.375 87.5 188.594 87.5 186.125C87.5 183.5 85 181.906 80.875 181.906H80.125V179.344H80.875C84.4688 179.344 86.5938 178 86.5938 175.688C86.5938 173.531 84.75 172 82.1875 172C80 172 78.2812 173.125 77.25 175.25L74.7812 174.125C76.2812 171.031 79 169.438 82.1875 169.438C86.2812 169.438 89.3438 172.094 89.3438 175.625C89.3438 178.094 87.8438 179.781 85.0625 180.562V180.656C88.3594 181.547 90.25 183.531 90.25 186.312C90.25 190.094 86.8125 192.938 82.25 192.938ZM93.375 187.406V184.844L102.156 169.875H105.219L96.5938 184.625V184.844H104.531V177.75H107.219V184.844H110.75V187.406H107.219V192.5H104.531V187.406H93.375ZM117.594 189.25L115.031 197H112.719L114.844 189.25H117.594ZM121.156 182.906L122.344 169.844H135V172.406H124.875L124.125 180.219H124.25C125.469 178.719 127.281 177.812 129.375 177.812C133.312 177.812 136.5 181.031 136.5 185.375C136.5 189.812 133.188 192.938 128.5 192.938C124.906 192.938 122.031 191.062 120.375 187.656L122.844 186.531C124.094 189.125 126 190.375 128.5 190.375C131.656 190.375 133.75 188.375 133.75 185.375C133.75 182.375 131.656 180.375 128.531 180.375C126.375 180.375 124.703 181.328 123.875 182.906H121.156ZM148.094 192.938C142.719 192.938 139.75 188.594 139.75 181.719C139.75 173.812 143.625 169.438 148.781 169.438C151.562 169.438 154 170.719 155.5 172.906L153.188 174.344C152.156 172.75 150.469 172 148.781 172C145.406 172 142.703 174.984 142.531 181.031H142.656C143.922 179.031 146.094 177.812 148.656 177.812C152.719 177.812 155.875 180.938 155.875 185.375C155.875 189.844 152.656 192.938 148.094 192.938ZM148.094 190.375C151.031 190.375 153.125 188.312 153.125 185.375C153.125 182.438 151.031 180.375 148.094 180.375C145.156 180.375 143.062 182.438 143.062 185.375C143.062 188.312 145.156 190.375 148.094 190.375ZM159.375 172.438V169.875H174.25V172.438C169.438 178.312 166.812 184.906 166.188 192.5H163.625C164.188 185.078 166.562 178.5 170.906 172.562V172.438H159.375ZM178.344 189.25L175.781 197H173.469L175.594 189.25H178.344ZM189.062 190.375C192.188 190.375 194.375 188.625 194.375 186.125C194.375 183.625 192.188 181.875 189.062 181.875C185.938 181.875 183.75 183.625 183.75 186.125C183.75 188.625 185.938 190.375 189.062 190.375ZM189.062 179.375C191.406 179.375 193.062 177.844 193.062 175.688C193.062 173.531 191.406 172 189.062 172C186.719 172 185.062 173.531 185.062 175.688C185.062 177.844 186.719 179.375 189.062 179.375ZM181 186.25C181 183.641 182.688 181.422 185.75 180.5V180.406C183.547 179.609 182.344 177.906 182.344 175.625C182.344 172.094 185.219 169.438 189.062 169.438C192.906 169.438 195.781 172.094 195.781 175.625C195.781 177.906 194.578 179.609 192.375 180.406V180.5C195.453 181.422 197.125 183.641 197.125 186.25C197.125 190.031 193.656 192.938 189.062 192.938C184.469 192.938 181 190.031 181 186.25ZM207.469 192.938C204.656 192.938 202.375 191.594 200.625 189L202.875 187.562C204.25 189.531 205.656 190.375 207.469 190.375C210.844 190.375 213.547 187.391 213.75 181.344H213.625C212.328 183.344 210.156 184.562 207.594 184.562C203.531 184.562 200.375 181.438 200.375 177C200.375 172.531 203.594 169.438 208.156 169.438C213.531 169.438 216.5 173.781 216.5 180.656C216.5 188.562 212.625 192.938 207.469 192.938ZM208.156 182C211.094 182 213.188 179.938 213.188 177C213.188 174.062 211.094 172 208.156 172C205.219 172 203.125 174.062 203.125 177C203.125 179.938 205.219 182 208.156 182ZM228.125 192.938C222.969 192.938 219.75 188.406 219.75 181.188C219.75 173.969 222.969 169.438 228.125 169.438C233.281 169.438 236.5 173.969 236.5 181.188C236.5 188.406 233.281 192.938 228.125 192.938ZM228.125 190.375C231.562 190.375 233.75 186.812 233.75 181.188C233.75 175.562 231.562 172 228.125 172C224.688 172 222.5 175.562 222.5 181.188C222.5 186.812 224.688 190.375 228.125 190.375Z" fill="#B0B0B0" fill-opacity="0.28"/>
<path d="M527 125.875C528.781 124.812 530.562 123.5 532.438 121.875H535.125V144.5H532.438V125.344H532.312C530.578 126.719 528.766 127.922 527 128.844V125.875ZM555 125.875C556.781 124.812 558.562 123.5 560.438 121.875H563.125V144.5H560.438V125.344H560.312C558.578 126.719 556.766 127.922 555 128.844V125.875ZM575 125.875C576.781 124.812 578.562 123.5 580.438 121.875H583.125V144.5H580.438V125.344H580.312C578.578 126.719 576.766 127.922 575 128.844V125.875ZM595 125.875C596.781 124.812 598.562 123.5 600.438 121.875H603.125V144.5H600.438V125.344H600.312C598.578 126.719 596.766 127.922 595 128.844V125.875ZM623 125.875C624.781 124.812 626.562 123.5 628.438 121.875H631.125V144.5H628.438V125.344H628.312C626.578 126.719 624.766 127.922 623 128.844V125.875ZM643 125.875C644.781 124.812 646.562 123.5 648.438 121.875H651.125V144.5H648.438V125.344H648.312C646.578 126.719 644.766 127.922 643 128.844V125.875ZM663 125.875C664.781 124.812 666.562 123.5 668.438 121.875H671.125V144.5H668.438V125.344H668.312C666.578 126.719 664.766 127.922 663 128.844V125.875ZM691 125.875C692.781 124.812 694.562 123.5 696.438 121.875H699.125V144.5H696.438V125.344H696.312C694.578 126.719 692.766 127.922 691 128.844V125.875ZM711 125.875C712.781 124.812 714.562 123.5 716.438 121.875H719.125V144.5H716.438V125.344H716.312C714.578 126.719 712.766 127.922 711 128.844V125.875ZM731 125.875C732.781 124.812 734.562 123.5 736.438 121.875H739.125V144.5H736.438V125.344H736.312C734.578 126.719 732.766 127.922 731 128.844V125.875ZM527 173.875C528.781 172.812 530.562 171.5 532.438 169.875H535.125V192.5H532.438V173.344H532.312C530.578 174.719 528.766 175.922 527 176.844V173.875ZM552.469 189.938C560.688 184.469 564.438 180.188 564.438 176.375C564.438 173.594 562.5 172 559.719 172C557.656 172 556 172.875 555.094 175.75L552.469 175C553.688 171.094 556.406 169.438 559.719 169.438C563.906 169.438 567.188 172.094 567.188 176.375C567.188 180.781 563.344 185.125 556.906 189.812V189.938H567.531V192.5H552.469V189.938ZM580.062 192.938C576.312 192.938 573.562 191.031 571.938 187.656L574.406 186.531C575.656 189.125 577.531 190.375 580.062 190.375C583.094 190.375 585.312 188.594 585.312 186.125C585.312 183.5 582.812 181.906 578.688 181.906H577.938V179.344H578.688C582.281 179.344 584.406 178 584.406 175.688C584.406 173.531 582.562 172 580 172C577.812 172 576.094 173.125 575.062 175.25L572.594 174.125C574.094 171.031 576.812 169.438 580 169.438C584.094 169.438 587.156 172.094 587.156 175.625C587.156 178.094 585.656 179.781 582.875 180.562V180.656C586.172 181.547 588.062 183.531 588.062 186.312C588.062 190.094 584.625 192.938 580.062 192.938ZM591.5 187.406V184.844L600.281 169.875H603.344L594.719 184.625V184.844H602.656V177.75H605.344V184.844H608.875V187.406H605.344V192.5H602.656V187.406H591.5ZM620.719 182.906L621.906 169.844H634.562V172.406H624.438L623.688 180.219H623.812C625.031 178.719 626.844 177.812 628.938 177.812C632.875 177.812 636.062 181.031 636.062 185.375C636.062 189.812 632.75 192.938 628.062 192.938C624.469 192.938 621.594 191.062 619.938 187.656L622.406 186.531C623.656 189.125 625.562 190.375 628.062 190.375C631.219 190.375 633.312 188.375 633.312 185.375C633.312 182.375 631.219 180.375 628.094 180.375C625.938 180.375 624.266 181.328 623.438 182.906H620.719ZM648.281 192.938C642.906 192.938 639.938 188.594 639.938 181.719C639.938 173.812 643.812 169.438 648.969 169.438C651.75 169.438 654.188 170.719 655.688 172.906L653.375 174.344C652.344 172.75 650.656 172 648.969 172C645.594 172 642.891 174.984 642.719 181.031H642.844C644.109 179.031 646.281 177.812 648.844 177.812C652.906 177.812 656.062 180.938 656.062 185.375C656.062 189.844 652.844 192.938 648.281 192.938ZM648.281 190.375C651.219 190.375 653.312 188.312 653.312 185.375C653.312 182.438 651.219 180.375 648.281 180.375C645.344 180.375 643.25 182.438 643.25 185.375C643.25 188.312 645.344 190.375 648.281 190.375ZM660.5 172.438V169.875H676.031V172.438C670.969 178.312 668.219 184.906 667.562 192.5H665C665.594 185.078 668.094 178.5 672.688 172.562V172.438H660.5ZM696 190.375C699.125 190.375 701.312 188.625 701.312 186.125C701.312 183.625 699.125 181.875 696 181.875C692.875 181.875 690.688 183.625 690.688 186.125C690.688 188.625 692.875 190.375 696 190.375ZM696 179.375C698.344 179.375 700 177.844 700 175.688C700 173.531 698.344 172 696 172C693.656 172 692 173.531 692 175.688C692 177.844 693.656 179.375 696 179.375ZM687.938 186.25C687.938 183.641 689.625 181.422 692.688 180.5V180.406C690.484 179.609 689.281 177.906 689.281 175.625C689.281 172.094 692.156 169.438 696 169.438C699.844 169.438 702.719 172.094 702.719 175.625C702.719 177.906 701.516 179.609 699.312 180.406V180.5C702.391 181.422 704.062 183.641 704.062 186.25C704.062 190.031 700.594 192.938 696 192.938C691.406 192.938 687.938 190.031 687.938 186.25ZM715.031 192.938C712.219 192.938 709.938 191.594 708.188 189L710.438 187.562C711.812 189.531 713.219 190.375 715.031 190.375C718.406 190.375 721.109 187.391 721.312 181.344H721.188C719.891 183.344 717.719 184.562 715.156 184.562C711.094 184.562 707.938 181.438 707.938 177C707.938 172.531 711.156 169.438 715.719 169.438C721.094 169.438 724.062 173.781 724.062 180.656C724.062 188.562 720.188 192.938 715.031 192.938ZM715.719 182C718.656 182 720.75 179.938 720.75 177C720.75 174.062 718.656 172 715.719 172C712.781 172 710.688 174.062 710.688 177C710.688 179.938 712.781 182 715.719 182ZM736 192.812C730.844 192.812 727.625 188.281 727.625 181.062C727.625 173.844 730.844 169.312 736 169.312C741.156 169.312 744.375 173.844 744.375 181.062C744.375 188.281 741.156 192.812 736 192.812ZM736 190.25C739.438 190.25 741.625 186.688 741.625 181.062C741.625 175.438 739.438 171.875 736 171.875C732.562 171.875 730.375 175.438 730.375 181.062C730.375 186.688 732.562 190.25 736 190.25Z" fill="#3385FF"/>
<path d="M547.719 141.25L545.156 149H542.844L544.969 141.25H547.719ZM615.719 141.25L613.156 149H610.844L612.969 141.25H615.719ZM683.719 141.25L681.156 149H678.844L680.969 141.25H683.719ZM547.719 189.25L545.156 197H542.844L544.969 189.25H547.719ZM615.719 189.25L613.156 197H610.844L612.969 189.25H615.719ZM683.719 189.25L681.156 197H678.844L680.969 189.25H683.719Z" fill="white"/>
</svg>
