<svg width="1012" height="177" viewBox="0 0 1012 177" fill="none" xmlns="http://www.w3.org/2000/svg">
<rect x="0.5" y="0.5" width="1011" height="176" rx="15.5" stroke="#70737C" stroke-opacity="0.28"/>
<rect x="32" y="32" width="52" height="24" rx="4" fill="#70737C" fill-opacity="0.22"/>
<path d="M39.7031 49.5V48.3672L44.375 42.5469V42.4219H39.75V40.9453H46.5625V42.1953L42.0625 47.8984V48.0156H46.625V49.5H39.7031ZM53.1484 42.2109C51.9219 42.2109 51.1875 43.0469 51.1875 44.4453H55.0625C55.0625 43.0547 54.3438 42.2109 53.1484 42.2109ZM55.0859 47.1797H56.8125C56.6094 48.6484 55.1562 49.6719 53.2422 49.6719C50.8047 49.6719 49.3984 48.2734 49.3984 45.8359V44.5C49.3984 42.2578 50.9062 40.7734 53.1797 40.7734C55.4297 40.7734 56.8281 42.25 56.8281 44.625V45.6641H51.1875V46.0781C51.1875 47.3828 51.9922 48.2266 53.2344 48.2266C54.1797 48.2266 54.9062 47.8125 55.0859 47.1797ZM62.7188 43.1328H62.9844C63.3359 41.4844 64.2891 40.7188 65.9141 40.7188C66.3984 40.7188 66.8438 40.7812 67.1406 40.8984V42.875C66.7578 42.7266 66.1953 42.6328 65.7266 42.6328C63.75 42.6328 62.7109 43.7109 62.7109 45.6875V48.1406H65.2578V49.5H59.2969V48.1406H60.9609V42.3047H59.1328V40.9453H62.7188V43.1328ZM72.8359 49.6719C70.4766 49.6719 68.9844 48.2031 68.9844 45.875V44.5703C68.9844 42.2422 70.4766 40.7734 72.8359 40.7734C75.1953 40.7734 76.6875 42.2422 76.6875 44.5703V45.875C76.6875 48.2031 75.1953 49.6719 72.8359 49.6719ZM72.8359 42.2812C71.5703 42.2812 70.7812 43.1953 70.7812 44.6719V45.7734C70.7812 47.25 71.5703 48.1641 72.8359 48.1641C74.1016 48.1641 74.8906 47.25 74.8906 45.7734V44.6719C74.8906 43.1953 74.1016 42.2812 72.8359 42.2812Z" fill="white"/>
<rect x="32" y="88" width="948" height="1" fill="#70737C" fill-opacity="0.28"/>
<path d="M45.2188 144.938C38.5312 144.938 33.4688 139.875 33.4688 133.188C33.4688 126.5 38.5312 121.438 45.2188 121.438C51.9062 121.438 56.9688 126.5 56.9688 133.188C56.9688 139.875 51.9062 144.938 45.2188 144.938ZM45.2188 142.312C50.4688 142.312 54.1562 138.531 54.1562 133.188C54.1562 127.844 50.4688 124.062 45.2188 124.062C39.9688 124.062 36.2812 127.844 36.2812 133.188C36.2812 138.531 39.9688 142.312 45.2188 142.312ZM60.3125 125.875C62.0938 124.812 63.875 123.5 65.75 121.875H68.4375V144.5H65.75V125.344H65.625C63.8906 126.719 62.0781 127.922 60.3125 128.844V125.875ZM82.1875 144.938C77.0312 144.938 73.8125 140.406 73.8125 133.188C73.8125 125.969 77.0312 121.438 82.1875 121.438C87.3438 121.438 90.5625 125.969 90.5625 133.188C90.5625 140.406 87.3438 144.938 82.1875 144.938ZM82.1875 142.375C85.625 142.375 87.8125 138.812 87.8125 133.188C87.8125 127.562 85.625 124 82.1875 124C78.75 124 76.5625 127.562 76.5625 133.188C76.5625 138.812 78.75 142.375 82.1875 142.375ZM94.0625 125.875C95.8438 124.812 97.625 123.5 99.5 121.875H102.188V144.5H99.5V125.344H99.375C97.6406 126.719 95.8281 127.922 94.0625 128.844V125.875Z" fill="#B0B0B0" fill-opacity="0.28"/>
<path d="M584.062 125.875C585.844 124.812 587.625 123.5 589.5 121.875H592.188V144.5H589.5V125.344H589.375C587.641 126.719 585.828 127.922 584.062 128.844V125.875Z" fill="white"/>
<path d="M572.188 144.938C567.031 144.938 563.812 140.406 563.812 133.188C563.812 125.969 567.031 121.438 572.188 121.438C577.344 121.438 580.562 125.969 580.562 133.188C580.562 140.406 577.344 144.938 572.188 144.938ZM572.188 142.375C575.625 142.375 577.812 138.812 577.812 133.188C577.812 131.078 577.5 129.266 576.938 127.812L568.5 140.469C569.438 141.703 570.688 142.375 572.188 142.375ZM566.562 133.188C566.562 135.297 566.875 137.109 567.438 138.562L575.906 125.906C574.938 124.672 573.688 124 572.188 124C568.75 124 566.562 127.562 566.562 133.188Z" fill="#3385FF"/>
<path d="M550.312 125.875C552.094 124.812 553.875 123.5 555.75 121.875H558.438V144.5H555.75V125.344H555.625C553.891 126.719 552.078 127.922 550.312 128.844V125.875Z" fill="white"/>
<path d="M535.219 144.938C528.531 144.938 523.469 139.875 523.469 133.188C523.469 126.5 528.531 121.438 535.219 121.438C541.906 121.438 546.969 126.5 546.969 133.188C546.969 139.875 541.906 144.938 535.219 144.938ZM535.219 142.312C540.469 142.312 544.156 138.531 544.156 133.188C544.156 127.844 540.469 124.062 535.219 124.062C529.969 124.062 526.281 127.844 526.281 133.188C526.281 138.531 529.969 142.312 535.219 142.312Z" fill="white"/>
</svg>
