<svg width="320" height="222" viewBox="0 0 320 222" fill="none" xmlns="http://www.w3.org/2000/svg">
<rect x="0.5" y="0.5" width="319" height="221" rx="7.5" stroke="#70737C" stroke-opacity="0.16"/>
<rect x="16" y="16" width="40" height="20" rx="4" fill="#70737C" fill-opacity="0.08"/>
<path d="M27.6855 25.7227H26.3496C26.2383 24.9902 25.7285 24.5859 24.9844 24.5859C24.0234 24.5859 23.4961 25.2773 23.4961 26.5371V27.0293C23.4961 28.2891 24.0234 28.9805 24.9844 28.9805C25.7344 28.9805 26.2324 28.5938 26.3496 27.8848H27.6855C27.5391 29.3203 26.5605 30.1289 24.9961 30.1289C23.1621 30.1289 22.125 29.0625 22.125 27.1523V26.4141C22.125 24.5098 23.1621 23.4375 24.9961 23.4375C26.5664 23.4375 27.5332 24.252 27.6855 25.7227ZM31.5117 30.1055C30.293 30.1055 29.4785 29.332 29.4785 28.1719C29.4785 27.0234 30.3105 26.3438 31.8457 26.25L33.4512 26.1562V25.6172C33.4512 24.9551 33.0234 24.5801 32.2734 24.5801C31.6465 24.5801 31.1895 24.8496 31.0488 25.3184H29.7129C29.8301 24.2109 30.8672 23.4785 32.3086 23.4785C33.8965 23.4785 34.7988 24.2578 34.7988 25.6289V30H33.5039V29.1035H33.3809C33.0703 29.7422 32.3848 30.1055 31.5117 30.1055ZM31.9512 28.9922C32.8184 28.9922 33.4512 28.4355 33.4512 27.6621V27.0762L32.0508 27.1523C31.248 27.1992 30.832 27.5215 30.832 28.0898C30.832 28.6465 31.2656 28.9922 31.9512 28.9922ZM42.5332 30H37.0723V28.9102H39.1758V22.1953H37.1426V21.1055H40.5352V28.9102H42.5332V30ZM45.8906 21.791H47.2266V23.625H49.7051V24.7266H47.25V28.0254C47.25 28.5938 47.6543 28.9102 48.3809 28.9102C48.6152 28.9102 49.541 28.9043 49.6523 28.8926V29.9824C49.5469 30 48.4688 30.0176 48.2754 30.0176C46.5879 30.0176 45.8906 29.4434 45.8906 28.0195V24.7266H44.2031V23.625H45.8906V21.791Z" fill="black"/>
<rect x="64" y="16" width="40" height="20" rx="4" fill="#70737C" fill-opacity="0.08"/>
<path d="M75.6855 25.7227H74.3496C74.2383 24.9902 73.7285 24.5859 72.9844 24.5859C72.0234 24.5859 71.4961 25.2773 71.4961 26.5371V27.0293C71.4961 28.2891 72.0234 28.9805 72.9844 28.9805C73.7344 28.9805 74.2324 28.5938 74.3496 27.8848H75.6855C75.5391 29.3203 74.5605 30.1289 72.9961 30.1289C71.1621 30.1289 70.125 29.0625 70.125 27.1523V26.4141C70.125 24.5098 71.1621 23.4375 72.9961 23.4375C74.5664 23.4375 75.5332 24.252 75.6855 25.7227ZM83.1152 30H77.6543V28.9102H79.7578V22.1953H77.7246V21.1055H81.1172V28.9102H83.1152V30ZM87.8086 22.1602C87.2285 22.1602 86.8184 21.7793 86.8184 21.2285C86.8184 20.6777 87.2285 20.2969 87.8086 20.2969C88.3945 20.2969 88.8047 20.6777 88.8047 21.2285C88.8047 21.7793 88.3945 22.1602 87.8086 22.1602ZM90.5332 30H85.0723V28.9102H87.1875V24.6738H85.1426V23.584H88.5176V28.9102H90.5332V30ZM93.4688 27.1758C93.4688 28.1777 94.0605 28.8164 94.9863 28.8164C95.9062 28.8164 96.498 28.1777 96.498 27.1758V26.2734C96.498 25.2715 95.9062 24.6328 94.9863 24.6328C94.0605 24.6328 93.4688 25.2715 93.4688 26.2734V27.1758ZM94.9453 32.4141C93.3516 32.4141 92.2969 31.7285 92.1797 30.6211H93.5156C93.6328 31.084 94.2012 31.3828 94.9629 31.3828C95.9648 31.3828 96.5098 30.9023 96.5098 30.0059V28.8457H96.3926C96.1641 29.5547 95.4258 30.0059 94.4824 30.0059C93 30.0059 92.0801 28.957 92.0801 27.2637V26.2148C92.0801 24.5098 93.0117 23.4727 94.5352 23.4727C95.4668 23.4727 96.1816 23.918 96.416 24.6328H96.5332V23.584H97.875V29.9941C97.875 31.5 96.7676 32.4141 94.9453 32.4141Z" fill="black"/>
<rect x="16" y="52" width="288" height="1" fill="#70737C" fill-opacity="0.16"/>
<path d="M21 80.7188C18.4219 80.7188 16.8125 78.4531 16.8125 74.8438C16.8125 71.2344 18.4219 68.9688 21 68.9688C23.5781 68.9688 25.1875 71.2344 25.1875 74.8438C25.1875 78.4531 23.5781 80.7188 21 80.7188ZM21 79.4375C22.7188 79.4375 23.8125 77.6562 23.8125 74.8438C23.8125 72.0312 22.7188 70.25 21 70.25C19.2812 70.25 18.1875 72.0312 18.1875 74.8438C18.1875 77.6562 19.2812 79.4375 21 79.4375ZM28 80.625C27.4375 80.625 27.0312 80.2188 27.0312 79.6562C27.0312 79.0938 27.4375 78.6875 28 78.6875C28.5625 78.6875 28.9688 79.0938 28.9688 79.6562C28.9688 80.2188 28.5625 80.625 28 80.625ZM28 74.5625C27.4375 74.5625 27.0312 74.1562 27.0312 73.5938C27.0312 73.0312 27.4375 72.625 28 72.625C28.5625 72.625 28.9688 73.0312 28.9688 73.5938C28.9688 74.1562 28.5625 74.5625 28 74.5625ZM35 80.7188C32.4219 80.7188 30.8125 78.4531 30.8125 74.8438C30.8125 71.2344 32.4219 68.9688 35 68.9688C37.5781 68.9688 39.1875 71.2344 39.1875 74.8438C39.1875 78.4531 37.5781 80.7188 35 80.7188ZM35 79.4375C36.7188 79.4375 37.8125 77.6562 37.8125 74.8438C37.8125 72.0312 36.7188 70.25 35 70.25C33.2812 70.25 32.1875 72.0312 32.1875 74.8438C32.1875 77.6562 33.2812 79.4375 35 79.4375ZM49 80.7188C46.4219 80.7188 44.8125 78.4531 44.8125 74.8438C44.8125 71.2344 46.4219 68.9688 49 68.9688C51.5781 68.9688 53.1875 71.2344 53.1875 74.8438C53.1875 78.4531 51.5781 80.7188 49 80.7188ZM49 79.4375C50.7188 79.4375 51.8125 77.6562 51.8125 74.8438C51.8125 72.0312 50.7188 70.25 49 70.25C47.2812 70.25 46.1875 72.0312 46.1875 74.8438C46.1875 77.6562 47.2812 79.4375 49 79.4375ZM56 80.625C55.4375 80.625 55.0312 80.2188 55.0312 79.6562C55.0312 79.0938 55.4375 78.6875 56 78.6875C56.5625 78.6875 56.9688 79.0938 56.9688 79.6562C56.9688 80.2188 56.5625 80.625 56 80.625ZM56 74.5625C55.4375 74.5625 55.0312 74.1562 55.0312 73.5938C55.0312 73.0312 55.4375 72.625 56 72.625C56.5625 72.625 56.9688 73.0312 56.9688 73.5938C56.9688 74.1562 56.5625 74.5625 56 74.5625ZM67.2344 80.5L66 77.2031H61.0938L59.8594 80.5H58.3594L62.6875 69.1875H64.4062L68.7344 80.5H67.2344ZM61.5781 75.9219H65.5312L63.5781 70.7344H63.5156L61.5781 75.9219ZM82.3281 80.5L81.0938 77.2031H76.1875L74.9531 80.5H73.4531L77.7812 69.1875H79.5L83.8281 80.5H82.3281ZM76.6719 75.9219H80.625L78.6719 70.7344H78.6094L76.6719 75.9219ZM86.1875 80.625C85.625 80.625 85.2188 80.2188 85.2188 79.6562C85.2188 79.0938 85.625 78.6875 86.1875 78.6875C86.75 78.6875 87.1562 79.0938 87.1562 79.6562C87.1562 80.2188 86.75 80.625 86.1875 80.625ZM86.1875 74.5625C85.625 74.5625 85.2188 74.1562 85.2188 73.5938C85.2188 73.0312 85.625 72.625 86.1875 72.625C86.75 72.625 87.1562 73.0312 87.1562 73.5938C87.1562 74.1562 86.75 74.5625 86.1875 74.5625ZM99.6094 67.9062V72.4688H101.688V73.5H99.6094V78.2969H98.375V67.9062H99.6094ZM97.0625 69.5938V70.5938H88.7969V69.5938H92.3125V67.8906H93.5469V69.5938H97.0625ZM92.9219 71.375C94.8984 71.375 96.2656 72.3984 96.2656 73.9531C96.2656 75.5078 94.8984 76.5312 92.9219 76.5312C90.9219 76.5312 89.5703 75.5078 89.5781 73.9531C89.5703 72.3984 90.9219 71.375 92.9219 71.375ZM92.9219 72.3281C91.625 72.3359 90.7344 72.9766 90.7344 73.9531C90.7344 74.9219 91.625 75.5625 92.9219 75.5625C94.2109 75.5625 95.0938 74.9219 95.0938 73.9531C95.0938 72.9766 94.2031 72.3359 92.9219 72.3281ZM100.25 80.4375V81.4531H90.9062V77.4688H92.1406V80.4375H100.25ZM115.25 80.5L114.016 77.2031H109.109L107.875 80.5H106.375L110.703 69.1875H112.422L116.75 80.5H115.25ZM109.594 75.9219H113.547L111.594 70.7344H111.531L109.594 75.9219ZM119.109 80.625C118.547 80.625 118.141 80.2188 118.141 79.6562C118.141 79.0938 118.547 78.6875 119.109 78.6875C119.672 78.6875 120.078 79.0938 120.078 79.6562C120.078 80.2188 119.672 80.625 119.109 80.625ZM119.109 74.5625C118.547 74.5625 118.141 74.1562 118.141 73.5938C118.141 73.0312 118.547 72.625 119.109 72.625C119.672 72.625 120.078 73.0312 120.078 73.5938C120.078 74.1562 119.672 74.5625 119.109 74.5625ZM125.625 79.4688C127.156 79.4688 128.25 78.2344 128.25 76.4688C128.25 74.7031 127.156 73.4688 125.625 73.4688C124.078 73.4688 123 74.7188 123 76.4688C123 78.2188 124.078 79.4688 125.625 79.4688ZM129.5 80.5H128.188V79.2344H128.141C127.586 80.1953 126.688 80.7188 125.5 80.7188C123.266 80.7188 121.656 78.8906 121.656 76.4688C121.656 74.0469 123.266 72.2188 125.5 72.2188C126.688 72.2188 127.586 72.7422 128.141 73.7031H128.188V72.4375H129.5V80.5ZM25.0625 100.641V101.922H21.6875V105.344H20.3125V101.922H16.9375V100.641H20.3125V97.2188H21.6875V100.641H25.0625ZM30.8438 104.438C32.4062 104.438 33.5 103.562 33.5 102.312C33.5 101.062 32.4062 100.188 30.8438 100.188C29.2812 100.188 28.1875 101.062 28.1875 102.312C28.1875 103.562 29.2812 104.438 30.8438 104.438ZM30.8438 98.9375C32.0156 98.9375 32.8438 98.1719 32.8438 97.0938C32.8438 96.0156 32.0156 95.25 30.8438 95.25C29.6719 95.25 28.8438 96.0156 28.8438 97.0938C28.8438 98.1719 29.6719 98.9375 30.8438 98.9375ZM26.8125 102.375C26.8125 101.07 27.6562 99.9609 29.1875 99.5V99.4531C28.0859 99.0547 27.4844 98.2031 27.4844 97.0625C27.4844 95.2969 28.9219 93.9688 30.8438 93.9688C32.7656 93.9688 34.2031 95.2969 34.2031 97.0625C34.2031 98.2031 33.6016 99.0547 32.5 99.4531V99.5C34.0391 99.9609 34.875 101.07 34.875 102.375C34.875 104.266 33.1406 105.719 30.8438 105.719C28.5469 105.719 26.8125 104.266 26.8125 102.375ZM36.6875 104.219C40.6875 101.484 42.5156 99.3438 42.5156 97.4375C42.5156 96.0469 41.5781 95.25 40.2344 95.25C39.1875 95.25 38.4219 95.7344 38 97.125L36.6875 96.75C37.2812 94.7969 38.6094 93.9688 40.2344 93.9688C42.2969 93.9688 43.8906 95.2969 43.8906 97.4375C43.8906 99.6406 42.0312 101.805 38.8906 104.156V104.219H44.0625V105.5H36.6875V104.219ZM51 100.641V101.922H46V100.641H51ZM52.125 96.1875C53.0156 95.6562 53.9062 95 54.8438 94.1875H56.1875V105.5H54.8438V95.9219H54.7812C53.9141 96.6094 53.0078 97.2109 52.125 97.6719V96.1875ZM63.0625 105.719C60.4844 105.719 58.875 103.453 58.875 99.8438C58.875 96.2344 60.4844 93.9688 63.0625 93.9688C65.6406 93.9688 67.25 96.2344 67.25 99.8438C67.25 103.453 65.6406 105.719 63.0625 105.719ZM63.0625 104.438C64.7812 104.438 65.875 102.656 65.875 99.8438C65.875 97.0312 64.7812 95.25 63.0625 95.25C61.3438 95.25 60.25 97.0312 60.25 99.8438C60.25 102.656 61.3438 104.438 63.0625 104.438ZM74 100.641V101.922H69V100.641H74ZM75.125 96.1875C76.0156 95.6562 76.9062 95 77.8438 94.1875H79.1875V105.5H77.8438V95.9219H77.7812C76.9141 96.6094 76.0078 97.2109 75.125 97.6719V96.1875ZM85.9375 105.719C84.0625 105.719 82.6875 104.766 81.875 103.078L83.1094 102.516C83.7344 103.812 84.6719 104.438 85.9375 104.438C87.4531 104.438 88.5625 103.547 88.5625 102.312C88.5625 101 87.3125 100.203 85.25 100.203H84.875V98.9219H85.25C87.0469 98.9219 88.1094 98.25 88.1094 97.0938C88.1094 96.0156 87.1875 95.25 85.9062 95.25C84.8125 95.25 83.9531 95.8125 83.4375 96.875L82.2031 96.3125C82.9531 94.7656 84.3125 93.9688 85.9062 93.9688C87.9531 93.9688 89.4844 95.2969 89.4844 97.0625C89.4844 98.2969 88.7344 99.1406 87.3438 99.5312V99.5781C88.9922 100.023 89.9375 101.016 89.9375 102.406C89.9375 104.297 88.2188 105.719 85.9375 105.719ZM91.75 104.219C95.75 101.484 97.5781 99.3438 97.5781 97.4375C97.5781 96.0469 96.6406 95.25 95.2969 95.25C94.25 95.25 93.4844 95.7344 93.0625 97.125L91.75 96.75C92.3438 94.7969 93.6719 93.9688 95.2969 93.9688C97.3594 93.9688 98.9531 95.2969 98.9531 97.4375C98.9531 99.6406 97.0938 101.805 93.9531 104.156V104.219H99.125V105.5H91.75V104.219ZM100.875 102.953V101.672L105.266 94.1875H106.797L102.484 101.562V101.672H106.453V98.125H107.797V101.672H109.562V102.953H107.797V105.5H106.453V102.953H100.875ZM116.062 100.641V101.922H111.062V100.641H116.062ZM118.203 100.703L118.797 94.1719H125.125V95.4531H120.062L119.688 99.3594H119.75C120.359 98.6094 121.266 98.1562 122.312 98.1562C124.281 98.1562 125.875 99.7656 125.875 101.938C125.875 104.156 124.219 105.719 121.875 105.719C120.078 105.719 118.641 104.781 117.812 103.078L119.047 102.516C119.672 103.812 120.625 104.438 121.875 104.438C123.453 104.438 124.5 103.438 124.5 101.938C124.5 100.438 123.453 99.4375 121.891 99.4375C120.812 99.4375 119.977 99.9141 119.562 100.703H118.203ZM127.625 95.4688V94.1875H135.062V95.4688C132.656 98.4062 131.344 101.703 131.031 105.5H129.75C130.031 101.789 131.219 98.5 133.391 95.5312V95.4688H127.625ZM140.734 105.719C138.047 105.719 136.562 103.547 136.562 100.109C136.562 96.1562 138.5 93.9688 141.078 93.9688C142.469 93.9688 143.688 94.6094 144.438 95.7031L143.281 96.4219C142.766 95.625 141.922 95.25 141.078 95.25C139.391 95.25 138.039 96.7422 137.953 99.7656H138.016C138.648 98.7656 139.734 98.1562 141.016 98.1562C143.047 98.1562 144.625 99.7188 144.625 101.938C144.625 104.172 143.016 105.719 140.734 105.719ZM140.734 104.438C142.203 104.438 143.25 103.406 143.25 101.938C143.25 100.469 142.203 99.4375 140.734 99.4375C139.266 99.4375 138.219 100.469 138.219 101.938C138.219 103.406 139.266 104.438 140.734 104.438ZM150.281 104.438C151.844 104.438 152.938 103.562 152.938 102.312C152.938 101.062 151.844 100.188 150.281 100.188C148.719 100.188 147.625 101.062 147.625 102.312C147.625 103.562 148.719 104.438 150.281 104.438ZM150.281 98.9375C151.453 98.9375 152.281 98.1719 152.281 97.0938C152.281 96.0156 151.453 95.25 150.281 95.25C149.109 95.25 148.281 96.0156 148.281 97.0938C148.281 98.1719 149.109 98.9375 150.281 98.9375ZM146.25 102.375C146.25 101.07 147.094 99.9609 148.625 99.5V99.4531C147.523 99.0547 146.922 98.2031 146.922 97.0625C146.922 95.2969 148.359 93.9688 150.281 93.9688C152.203 93.9688 153.641 95.2969 153.641 97.0625C153.641 98.2031 153.039 99.0547 151.938 99.4531V99.5C153.477 99.9609 154.312 101.07 154.312 102.375C154.312 104.266 152.578 105.719 150.281 105.719C147.984 105.719 146.25 104.266 146.25 102.375ZM17.1094 130.5V119.188H18.4844V130.5H17.1094ZM20.6406 130.5V119.188H21.9531V130.5H20.6406ZM24.0469 130.5V119.188H25.3594V130.5H24.0469ZM34.0156 122.438V130.5H32.7031V129.328H32.6562C32.25 130.188 31.3828 130.719 30.2344 130.719C28.4375 130.719 27.4531 129.453 27.4531 127.375V122.438H28.7656V127.188C28.7656 128.672 29.3906 129.469 30.5156 129.469C31.6406 129.469 32.7031 128.672 32.7031 126.938V122.438H34.0156ZM38.8594 130.719C37.5469 130.719 36.5 130.203 35.7344 129.188L36.7969 128.438C37.3281 129.156 37.9531 129.469 38.8594 129.469C39.9844 129.469 40.6406 129 40.6406 128.203C40.6406 127.578 40.2188 127.266 38.9219 126.938L38.4844 126.828C36.8125 126.406 36.0156 125.688 36.0156 124.594C36.0156 123.234 37.2344 122.219 38.8594 122.219C40.0625 122.219 41.1719 122.781 41.8125 123.734L40.7188 124.453C40.2656 123.812 39.625 123.469 38.8594 123.469C37.9688 123.469 37.3594 123.922 37.3594 124.594C37.3594 125.094 37.6875 125.328 38.7969 125.609L39.2344 125.719C41.1406 126.188 41.9844 126.953 41.9844 128.203C41.9844 129.703 40.7188 130.719 38.8594 130.719ZM42.9531 123.531V122.438H44.3281V120.438H45.6406V122.438H47.6406V123.531H45.6406V128.156C45.6406 129.031 46.0156 129.438 46.8281 129.438C47.0781 129.438 47.3594 129.391 47.6406 129.312V130.547C47.3906 130.641 47.0469 130.719 46.6406 130.719C45.2188 130.719 44.3281 129.75 44.3281 128.203V123.531H42.9531ZM49.3594 130.5V122.438H50.6719V123.688H50.7344C51.1328 122.812 51.9297 122.219 52.8438 122.219C53.1406 122.219 53.4219 122.281 53.6875 122.391V123.688C53.3906 123.594 53.0938 123.547 52.8125 123.547C51.4688 123.547 50.6719 124.625 50.6719 126.469V130.5H49.3594ZM58.5312 129.469C60.0625 129.469 61.1562 128.234 61.1562 126.469C61.1562 124.703 60.0625 123.469 58.5312 123.469C56.9844 123.469 55.9062 124.719 55.9062 126.469C55.9062 128.219 56.9844 129.469 58.5312 129.469ZM62.4062 130.5H61.0938V129.234H61.0469C60.4922 130.195 59.5938 130.719 58.4062 130.719C56.1719 130.719 54.5625 128.891 54.5625 126.469C54.5625 124.047 56.1719 122.219 58.4062 122.219C59.5938 122.219 60.4922 122.742 61.0469 123.703H61.0938V122.438H62.4062V130.5ZM64 123.531V122.438H65.375V120.438H66.6875V122.438H68.6875V123.531H66.6875V128.156C66.6875 129.031 67.0625 129.438 67.875 129.438C68.125 129.438 68.4062 129.391 68.6875 129.312V130.547C68.4375 130.641 68.0938 130.719 67.6875 130.719C66.2656 130.719 65.375 129.75 65.375 128.203V123.531H64ZM70.4062 130.5V122.438H71.7188V130.5H70.4062ZM71.0625 120.75C70.5625 120.75 70.1875 120.375 70.1875 119.875C70.1875 119.375 70.5625 119 71.0625 119C71.5625 119 71.9375 119.375 71.9375 119.875C71.9375 120.375 71.5625 120.75 71.0625 120.75ZM77.5781 130.719C75.2188 130.719 73.4375 128.891 73.4375 126.469C73.4375 124.047 75.2188 122.219 77.5781 122.219C79.9375 122.219 81.7188 124.047 81.7188 126.469C81.7188 128.891 79.9375 130.719 77.5781 130.719ZM77.5781 129.469C79.2188 129.469 80.375 128.234 80.375 126.469C80.375 124.703 79.2188 123.469 77.5781 123.469C75.9375 123.469 74.7812 124.703 74.7812 126.469C74.7812 128.234 75.9375 129.469 77.5781 129.469ZM83.4375 130.5V122.438H84.75V123.609H84.8125C85.2031 122.75 86.0703 122.219 87.2188 122.219C89.0156 122.219 90 123.484 90 125.562V130.5H88.6875V125.75C88.6875 124.266 88.0625 123.469 86.9375 123.469C85.8125 123.469 84.75 124.266 84.75 126V130.5H83.4375ZM96.1562 130.5V119.188H97.5312V130.5H96.1562ZM99.6875 130.5V119.188H101V130.5H99.6875ZM102.984 121.188C103.875 120.656 104.766 120 105.703 119.188H107.047V130.5H105.703V120.922H105.641C104.773 121.609 103.867 122.211 102.984 122.672V121.188ZM109.969 130.5V119.188H111.281V130.5H109.969ZM113.438 130.5V119.188H114.812V130.5H113.438ZM116.969 130.5V122.438H118.281V130.5H116.969ZM117.625 120.75C117.125 120.75 116.75 120.375 116.75 119.875C116.75 119.375 117.125 119 117.625 119C118.125 119 118.5 119.375 118.5 119.875C118.5 120.375 118.125 120.75 117.625 120.75ZM120.438 130.5V119.188H121.812V130.5H120.438ZM123.969 130.5V122.438H125.281V130.5H123.969ZM124.625 120.75C124.125 120.75 123.75 120.375 123.75 119.875C123.75 119.375 124.125 119 124.625 119C125.125 119 125.5 119.375 125.5 119.875C125.5 120.375 125.125 120.75 124.625 120.75ZM127.375 130.5V119.188H128.688V130.5H127.375ZM17.1094 155.5V144.188H20.1094C23.8125 144.188 26.2188 146.406 26.2188 149.844C26.2188 153.281 23.8125 155.5 20.1094 155.5H17.1094ZM18.4844 154.219H20.1094C23.0625 154.219 24.8125 152.594 24.8125 149.844C24.8125 147.094 23.0625 145.469 20.1094 145.469H18.4844V154.219ZM31.7656 155.719C29.4062 155.719 27.625 153.891 27.625 151.469C27.625 149.047 29.4062 147.219 31.7656 147.219C34.125 147.219 35.9062 149.047 35.9062 151.469C35.9062 153.891 34.125 155.719 31.7656 155.719ZM31.7656 154.469C33.4062 154.469 34.5625 153.234 34.5625 151.469C34.5625 149.703 33.4062 148.469 31.7656 148.469C30.125 148.469 28.9688 149.703 28.9688 151.469C28.9688 153.234 30.125 154.469 31.7656 154.469ZM37.625 155.5V144.188H38.9375V148.609H39C39.3906 147.75 40.2578 147.219 41.4062 147.219C43.2031 147.219 44.1875 148.484 44.1875 150.562V155.5H42.875V150.75C42.875 149.266 42.25 148.469 41.125 148.469C40 148.469 38.9375 149.266 38.9375 151V155.5H37.625ZM47.2344 155.625C46.6719 155.625 46.2656 155.219 46.2656 154.656C46.2656 154.094 46.6719 153.688 47.2344 153.688C47.7969 153.688 48.2031 154.094 48.2031 154.656C48.2031 155.219 47.7969 155.625 47.2344 155.625ZM50.9844 155.625C50.4219 155.625 50.0156 155.219 50.0156 154.656C50.0156 154.094 50.4219 153.688 50.9844 153.688C51.5469 153.688 51.9531 154.094 51.9531 154.656C51.9531 155.219 51.5469 155.625 50.9844 155.625ZM54.7344 155.625C54.1719 155.625 53.7656 155.219 53.7656 154.656C53.7656 154.094 54.1719 153.688 54.7344 153.688C55.2969 153.688 55.7031 154.094 55.7031 154.656C55.7031 155.219 55.2969 155.625 54.7344 155.625ZM29.2188 174.641V175.641H16.5625V174.641H29.2188ZM22.875 176.812C25.8672 176.82 27.6641 177.695 27.6719 179.281C27.6641 180.875 25.8672 181.766 22.875 181.766C19.875 181.766 18.0781 180.875 18.0781 179.281C18.0781 177.695 19.8828 176.82 22.875 176.812ZM22.875 177.766C20.6641 177.773 19.3203 178.32 19.3281 179.281C19.3203 180.25 20.6562 180.797 22.875 180.797C25.0938 180.797 26.4219 180.25 26.4219 179.281C26.4219 178.32 25.0781 177.773 22.875 177.766ZM22.875 168.234C25.8984 168.234 27.7969 169.227 27.7969 170.875C27.7969 172.523 25.8984 173.516 22.875 173.516C19.8594 173.516 17.9609 172.523 17.9688 170.875C17.9609 169.227 19.8594 168.234 22.875 168.234ZM22.875 169.203C20.6406 169.211 19.2266 169.828 19.2344 170.875C19.2266 171.914 20.6406 172.531 22.875 172.531C25.1172 172.531 26.5312 171.914 26.5312 170.875C26.5312 169.828 25.1172 169.211 22.875 169.203ZM31.8281 180.625C31.2656 180.625 30.8594 180.219 30.8594 179.656C30.8594 179.094 31.2656 178.688 31.8281 178.688C32.3906 178.688 32.7969 179.094 32.7969 179.656C32.7969 180.219 32.3906 180.625 31.8281 180.625ZM35.5781 180.625C35.0156 180.625 34.6094 180.219 34.6094 179.656C34.6094 179.094 35.0156 178.688 35.5781 178.688C36.1406 178.688 36.5469 179.094 36.5469 179.656C36.5469 180.219 36.1406 180.625 35.5781 180.625ZM39.3281 180.625C38.7656 180.625 38.3594 180.219 38.3594 179.656C38.3594 179.094 38.7656 178.688 39.3281 178.688C39.8906 178.688 40.2969 179.094 40.2969 179.656C40.2969 180.219 39.8906 180.625 39.3281 180.625ZM56.8438 169.359V170.734C56.8359 172.508 56.8359 174.492 56.3125 177.5L55.0781 177.359C55.6328 174.531 55.6328 172.453 55.6406 170.734V170.375H47.2812V169.359H56.8438ZM58.5469 178.703V179.734H45.8906V178.703H58.5469ZM65.3906 169.391V174.25H61.375V177.406C63.0078 177.398 64.4688 177.32 66.2812 177.016L66.3906 178.031C64.4219 178.383 62.7969 178.438 61.1094 178.438H60.1875V173.234H64.2031V170.422H60.1562V169.391H65.3906ZM71.5938 167.891V181.766H70.4062V174.391H68.375V181.047H67.2344V168.188H68.375V173.375H70.4062V167.891H71.5938ZM78.9844 180.625C78.4219 180.625 78.0156 180.219 78.0156 179.656C78.0156 179.094 78.4219 178.688 78.9844 178.688C79.5469 178.688 79.9531 179.094 79.9531 179.656C79.9531 180.219 79.5469 180.625 78.9844 180.625ZM82.7344 180.625C82.1719 180.625 81.7656 180.219 81.7656 179.656C81.7656 179.094 82.1719 178.688 82.7344 178.688C83.2969 178.688 83.7031 179.094 83.7031 179.656C83.7031 180.219 83.2969 180.625 82.7344 180.625ZM86.4844 180.625C85.9219 180.625 85.5156 180.219 85.5156 179.656C85.5156 179.094 85.9219 178.688 86.4844 178.688C87.0469 178.688 87.4531 179.094 87.4531 179.656C87.4531 180.219 87.0469 180.625 86.4844 180.625ZM90.4844 180.625C89.9219 180.625 89.5156 180.219 89.5156 179.656C89.5156 179.094 89.9219 178.688 90.4844 178.688C91.0469 178.688 91.4531 179.094 91.4531 179.656C91.4531 180.219 91.0469 180.625 90.4844 180.625ZM94.2344 180.625C93.6719 180.625 93.2656 180.219 93.2656 179.656C93.2656 179.094 93.6719 178.688 94.2344 178.688C94.7969 178.688 95.2031 179.094 95.2031 179.656C95.2031 180.219 94.7969 180.625 94.2344 180.625ZM97.9844 180.625C97.4219 180.625 97.0156 180.219 97.0156 179.656C97.0156 179.094 97.4219 178.688 97.9844 178.688C98.5469 178.688 98.9531 179.094 98.9531 179.656C98.9531 180.219 98.5469 180.625 97.9844 180.625ZM27.5156 194.359V195.734C27.5078 197.508 27.5078 199.492 26.9844 202.5L25.75 202.359C26.3047 199.531 26.3047 197.453 26.3125 195.734V195.375H17.9531V194.359H27.5156ZM29.2188 203.703V204.734H16.5625V203.703H29.2188ZM41.9062 192.891V200.516H40.6562V196.625H38.0156V195.625H40.6562V192.891H41.9062ZM42.2188 201.312V202.25H32.4688V201.312H36.7344V199.984H37.9688V201.312H42.2188ZM37.3438 202.844C39.8125 202.852 41.25 203.531 41.25 204.781C41.25 206.055 39.8047 206.742 37.3438 206.734C34.8828 206.742 33.4297 206.055 33.4375 204.781C33.4297 203.531 34.875 202.852 37.3438 202.844ZM37.3438 203.734C35.625 203.734 34.6172 204.109 34.625 204.781C34.6172 205.477 35.6094 205.859 37.3438 205.859C39.0703 205.859 40.0547 205.477 40.0625 204.781C40.0547 204.109 39.0547 203.734 37.3438 203.734ZM37.1406 193.516V196.969H32.1875V198.625C34.5 198.633 36.25 198.555 38.2812 198.203L38.4062 199.172C36.2656 199.531 34.4844 199.609 32.0156 199.609H30.9688V196.062H35.9219V194.484H30.9375V193.516H37.1406ZM55.2656 193.625V194.719C55.2578 195.875 55.2578 197.203 54.9219 199H56.9219V200.016H51.2344V203.359H50V200.016H44.2188V199H53.6875C54.0547 197.203 54.0547 195.875 54.0625 194.719V194.641H45.8438V193.625H55.2656ZM55.5469 205.438V206.453H45.8281V202.125H47.0625V205.438H55.5469ZM63.4844 205.625C62.9219 205.625 62.5156 205.219 62.5156 204.656C62.5156 204.094 62.9219 203.688 63.4844 203.688C64.0469 203.688 64.4531 204.094 64.4531 204.656C64.4531 205.219 64.0469 205.625 63.4844 205.625ZM67.2344 205.625C66.6719 205.625 66.2656 205.219 66.2656 204.656C66.2656 204.094 66.6719 203.688 67.2344 203.688C67.7969 203.688 68.2031 204.094 68.2031 204.656C68.2031 205.219 67.7969 205.625 67.2344 205.625ZM70.9844 205.625C70.4219 205.625 70.0156 205.219 70.0156 204.656C70.0156 204.094 70.4219 203.688 70.9844 203.688C71.5469 203.688 71.9531 204.094 71.9531 204.656C71.9531 205.219 71.5469 205.625 70.9844 205.625ZM74.9844 205.625C74.4219 205.625 74.0156 205.219 74.0156 204.656C74.0156 204.094 74.4219 203.688 74.9844 203.688C75.5469 203.688 75.9531 204.094 75.9531 204.656C75.9531 205.219 75.5469 205.625 74.9844 205.625ZM78.7344 205.625C78.1719 205.625 77.7656 205.219 77.7656 204.656C77.7656 204.094 78.1719 203.688 78.7344 203.688C79.2969 203.688 79.7031 204.094 79.7031 204.656C79.7031 205.219 79.2969 205.625 78.7344 205.625ZM82.4844 205.625C81.9219 205.625 81.5156 205.219 81.5156 204.656C81.5156 204.094 81.9219 203.688 82.4844 203.688C83.0469 203.688 83.4531 204.094 83.4531 204.656C83.4531 205.219 83.0469 205.625 82.4844 205.625ZM86.4844 205.625C85.9219 205.625 85.5156 205.219 85.5156 204.656C85.5156 204.094 85.9219 203.688 86.4844 203.688C87.0469 203.688 87.4531 204.094 87.4531 204.656C87.4531 205.219 87.0469 205.625 86.4844 205.625Z" fill="#2A2A2A" fill-opacity="0.28"/>
<path d="M234.484 205.625C233.922 205.625 233.516 205.219 233.516 204.656C233.516 204.094 233.922 203.688 234.484 203.688C235.047 203.688 235.453 204.094 235.453 204.656C235.453 205.219 235.047 205.625 234.484 205.625Z" fill="black"/>
<path d="M222.984 200.812C222.422 200.812 222.016 200.406 222.016 199.844C222.016 199.281 222.422 198.875 222.984 198.875C223.547 198.875 223.953 199.281 223.953 199.844C223.953 200.406 223.547 200.812 222.984 200.812ZM226.734 200.812C226.172 200.812 225.766 200.406 225.766 199.844C225.766 199.281 226.172 198.875 226.734 198.875C227.297 198.875 227.703 199.281 227.703 199.844C227.703 200.406 227.297 200.812 226.734 200.812ZM230.484 200.812C229.922 200.812 229.516 200.406 229.516 199.844C229.516 199.281 229.922 198.875 230.484 198.875C231.047 198.875 231.453 199.281 231.453 199.844C231.453 200.406 231.047 200.812 230.484 200.812Z" fill="#0066FF"/>
<path d="M211.484 200.812C210.922 200.812 210.516 200.406 210.516 199.844C210.516 199.281 210.922 198.875 211.484 198.875C212.047 198.875 212.453 199.281 212.453 199.844C212.453 200.406 212.047 200.812 211.484 200.812ZM215.234 200.812C214.672 200.812 214.266 200.406 214.266 199.844C214.266 199.281 214.672 198.875 215.234 198.875C215.797 198.875 216.203 199.281 216.203 199.844C216.203 200.406 215.797 200.812 215.234 200.812ZM218.984 200.812C218.422 200.812 218.016 200.406 218.016 199.844C218.016 199.281 218.422 198.875 218.984 198.875C219.547 198.875 219.953 199.281 219.953 199.844C219.953 200.406 219.547 200.812 218.984 200.812Z" fill="#0066FF"/>
<path d="M203.266 193.625V194.719C203.258 195.875 203.258 197.203 202.922 199H204.922V200.016H199.234V203.359H198V200.016H192.219V199H201.688C202.055 197.203 202.055 195.875 202.062 194.719V194.641H193.844V193.625H203.266ZM203.547 205.438V206.453H193.828V202.125H195.062V205.438H203.547Z" fill="black"/>
<path d="M189.906 192.891V200.516H188.656V196.625H186.016V195.625H188.656V192.891H189.906ZM190.219 201.312V202.25H180.469V201.312H184.734V199.984H185.969V201.312H190.219ZM185.344 202.844C187.812 202.852 189.25 203.531 189.25 204.781C189.25 206.055 187.805 206.742 185.344 206.734C182.883 206.742 181.43 206.055 181.438 204.781C181.43 203.531 182.875 202.852 185.344 202.844ZM185.344 203.734C183.625 203.734 182.617 204.109 182.625 204.781C182.617 205.477 183.609 205.859 185.344 205.859C187.07 205.859 188.055 205.477 188.062 204.781C188.055 204.109 187.055 203.734 185.344 203.734ZM185.141 193.516V196.969H180.188V198.625C182.5 198.633 184.25 198.555 186.281 198.203L186.406 199.172C184.266 199.531 182.484 199.609 180.016 199.609H178.969V196.062H183.922V194.484H178.938V193.516H185.141Z" fill="black"/>
<path d="M175.516 194.359V195.734C175.508 197.508 175.508 199.492 174.984 202.5L173.75 202.359C174.305 199.531 174.305 197.453 174.312 195.734V195.375H165.953V194.359H175.516ZM177.219 203.703V204.734H164.562V203.703H177.219Z" fill="black"/>
<path d="M238.484 175.812C237.922 175.812 237.516 175.406 237.516 174.844C237.516 174.281 237.922 173.875 238.484 173.875C239.047 173.875 239.453 174.281 239.453 174.844C239.453 175.406 239.047 175.812 238.484 175.812ZM242.234 175.812C241.672 175.812 241.266 175.406 241.266 174.844C241.266 174.281 241.672 173.875 242.234 173.875C242.797 173.875 243.203 174.281 243.203 174.844C243.203 175.406 242.797 175.812 242.234 175.812ZM245.984 175.812C245.422 175.812 245.016 175.406 245.016 174.844C245.016 174.281 245.422 173.875 245.984 173.875C246.547 173.875 246.953 174.281 246.953 174.844C246.953 175.406 246.547 175.812 245.984 175.812Z" fill="#0066FF"/>
<path d="M226.984 175.812C226.422 175.812 226.016 175.406 226.016 174.844C226.016 174.281 226.422 173.875 226.984 173.875C227.547 173.875 227.953 174.281 227.953 174.844C227.953 175.406 227.547 175.812 226.984 175.812ZM230.734 175.812C230.172 175.812 229.766 175.406 229.766 174.844C229.766 174.281 230.172 173.875 230.734 173.875C231.297 173.875 231.703 174.281 231.703 174.844C231.703 175.406 231.297 175.812 230.734 175.812ZM234.484 175.812C233.922 175.812 233.516 175.406 233.516 174.844C233.516 174.281 233.922 173.875 234.484 173.875C235.047 173.875 235.453 174.281 235.453 174.844C235.453 175.406 235.047 175.812 234.484 175.812Z" fill="#0066FF"/>
<path d="M213.391 169.391V174.25H209.375V177.406C211.008 177.398 212.469 177.32 214.281 177.016L214.391 178.031C212.422 178.383 210.797 178.438 209.109 178.438H208.188V173.234H212.203V170.422H208.156V169.391H213.391ZM219.594 167.891V181.766H218.406V174.391H216.375V181.047H215.234V168.188H216.375V173.375H218.406V167.891H219.594Z" fill="black"/>
<path d="M204.844 169.359V170.734C204.836 172.508 204.836 174.492 204.312 177.5L203.078 177.359C203.633 174.531 203.633 172.453 203.641 170.734V170.375H195.281V169.359H204.844ZM206.547 178.703V179.734H193.891V178.703H206.547Z" fill="black"/>
<path d="M179.828 175.812C179.266 175.812 178.859 175.406 178.859 174.844C178.859 174.281 179.266 173.875 179.828 173.875C180.391 173.875 180.797 174.281 180.797 174.844C180.797 175.406 180.391 175.812 179.828 175.812ZM183.578 175.812C183.016 175.812 182.609 175.406 182.609 174.844C182.609 174.281 183.016 173.875 183.578 173.875C184.141 173.875 184.547 174.281 184.547 174.844C184.547 175.406 184.141 175.812 183.578 175.812ZM187.328 175.812C186.766 175.812 186.359 175.406 186.359 174.844C186.359 174.281 186.766 173.875 187.328 173.875C187.891 173.875 188.297 174.281 188.297 174.844C188.297 175.406 187.891 175.812 187.328 175.812Z" fill="#0066FF"/>
<path d="M177.219 174.641V175.641H164.562V174.641H177.219ZM170.875 176.812C173.867 176.82 175.664 177.695 175.672 179.281C175.664 180.875 173.867 181.766 170.875 181.766C167.875 181.766 166.078 180.875 166.078 179.281C166.078 177.695 167.883 176.82 170.875 176.812ZM170.875 177.766C168.664 177.773 167.32 178.32 167.328 179.281C167.32 180.25 168.656 180.797 170.875 180.797C173.094 180.797 174.422 180.25 174.422 179.281C174.422 178.32 173.078 177.773 170.875 177.766ZM170.875 168.234C173.898 168.234 175.797 169.227 175.797 170.875C175.797 172.523 173.898 173.516 170.875 173.516C167.859 173.516 165.961 172.523 165.969 170.875C165.961 169.227 167.859 168.234 170.875 168.234ZM170.875 169.203C168.641 169.211 167.227 169.828 167.234 170.875C167.227 171.914 168.641 172.531 170.875 172.531C173.117 172.531 174.531 171.914 174.531 170.875C174.531 169.828 173.117 169.211 170.875 169.203Z" fill="black"/>
<path d="M195.234 155.625C194.672 155.625 194.266 155.219 194.266 154.656C194.266 154.094 194.672 153.688 195.234 153.688C195.797 153.688 196.203 154.094 196.203 154.656C196.203 155.219 195.797 155.625 195.234 155.625ZM198.984 155.625C198.422 155.625 198.016 155.219 198.016 154.656C198.016 154.094 198.422 153.688 198.984 153.688C199.547 153.688 199.953 154.094 199.953 154.656C199.953 155.219 199.547 155.625 198.984 155.625ZM202.734 155.625C202.172 155.625 201.766 155.219 201.766 154.656C201.766 154.094 202.172 153.688 202.734 153.688C203.297 153.688 203.703 154.094 203.703 154.656C203.703 155.219 203.297 155.625 202.734 155.625Z" fill="black"/>
<path d="M185.625 155.5V144.188H186.938V148.609H187C187.391 147.75 188.258 147.219 189.406 147.219C191.203 147.219 192.188 148.484 192.188 150.562V155.5H190.875V150.75C190.875 149.266 190.25 148.469 189.125 148.469C188 148.469 186.938 149.266 186.938 151V155.5H185.625Z" fill="black"/>
<path d="M179.766 155.719C177.406 155.719 175.625 153.891 175.625 151.469C175.625 149.047 177.406 147.219 179.766 147.219C182.125 147.219 183.906 149.047 183.906 151.469C183.906 153.891 182.125 155.719 179.766 155.719ZM179.766 154.469C181.406 154.469 182.562 153.234 182.562 151.469C182.562 149.703 181.406 148.469 179.766 148.469C178.125 148.469 176.969 149.703 176.969 151.469C176.969 153.234 178.125 154.469 179.766 154.469Z" fill="black"/>
<path d="M165.109 155.5V144.188H168.109C171.812 144.188 174.219 146.406 174.219 149.844C174.219 153.281 171.812 155.5 168.109 155.5H165.109ZM166.484 154.219H168.109C171.062 154.219 172.812 152.594 172.812 149.844C172.812 147.094 171.062 145.469 168.109 145.469H166.484V154.219Z" fill="black"/>
<path d="M275.375 130.5V118.688H276.688V130.5H275.375Z" fill="#0066FF"/>
<path d="M271.969 130.5V122.438H273.281V130.5H271.969ZM272.625 120.75C272.125 120.75 271.75 120.375 271.75 119.875C271.75 119.375 272.125 119 272.625 119C273.125 119 273.5 119.375 273.5 119.875C273.5 120.375 273.125 120.75 272.625 120.75Z" fill="black"/>
<path d="M268.438 130.5V119.188H269.812V130.5H268.438Z" fill="black"/>
<path d="M264.969 130.5V122.438H266.281V130.5H264.969ZM265.625 120.75C265.125 120.75 264.75 120.375 264.75 119.875C264.75 119.375 265.125 119 265.625 119C266.125 119 266.5 119.375 266.5 119.875C266.5 120.375 266.125 120.75 265.625 120.75Z" fill="black"/>
<path d="M261.438 130.5V119.188H262.812V130.5H261.438Z" fill="black"/>
<path d="M257.969 130.5V118.688H259.281V130.5H257.969Z" fill="#0066FF"/>
<path d="M250.984 121.188C251.875 120.656 252.766 120 253.703 119.188H255.047V130.5H253.703V120.922H253.641C252.773 121.609 251.867 122.211 250.984 122.672V121.188Z" fill="black"/>
<path d="M247.688 130.5V118.688H249V130.5H247.688Z" fill="#0066FF"/>
<path d="M244.156 130.5V119.188H245.531V130.5H244.156Z" fill="black"/>
<path d="M231.438 130.5V122.438H232.75V123.609H232.812C233.203 122.75 234.07 122.219 235.219 122.219C237.016 122.219 238 123.484 238 125.562V130.5H236.688V125.75C236.688 124.266 236.062 123.469 234.938 123.469C233.812 123.469 232.75 124.266 232.75 126V130.5H231.438Z" fill="black"/>
<path d="M225.578 130.719C223.219 130.719 221.438 128.891 221.438 126.469C221.438 124.047 223.219 122.219 225.578 122.219C227.938 122.219 229.719 124.047 229.719 126.469C229.719 128.891 227.938 130.719 225.578 130.719ZM225.578 129.469C227.219 129.469 228.375 128.234 228.375 126.469C228.375 124.703 227.219 123.469 225.578 123.469C223.938 123.469 222.781 124.703 222.781 126.469C222.781 128.234 223.938 129.469 225.578 129.469Z" fill="black"/>
<path d="M218.406 130.5V122.438H219.719V130.5H218.406ZM219.062 120.75C218.562 120.75 218.188 120.375 218.188 119.875C218.188 119.375 218.562 119 219.062 119C219.562 119 219.938 119.375 219.938 119.875C219.938 120.375 219.562 120.75 219.062 120.75Z" fill="black"/>
<path d="M212 123.531V122.438H213.375V120.438H214.688V122.438H216.688V123.531H214.688V128.156C214.688 129.031 215.062 129.438 215.875 129.438C216.125 129.438 216.406 129.391 216.688 129.312V130.547C216.438 130.641 216.094 130.719 215.688 130.719C214.266 130.719 213.375 129.75 213.375 128.203V123.531H212Z" fill="black"/>
<path d="M206.531 129.469C208.062 129.469 209.156 128.234 209.156 126.469C209.156 124.703 208.062 123.469 206.531 123.469C204.984 123.469 203.906 124.719 203.906 126.469C203.906 128.219 204.984 129.469 206.531 129.469ZM210.406 130.5H209.094V129.234H209.047C208.492 130.195 207.594 130.719 206.406 130.719C204.172 130.719 202.562 128.891 202.562 126.469C202.562 124.047 204.172 122.219 206.406 122.219C207.594 122.219 208.492 122.742 209.047 123.703H209.094V122.438H210.406V130.5Z" fill="black"/>
<path d="M197.359 130.5V122.438H198.672V123.688H198.734C199.133 122.812 199.93 122.219 200.844 122.219C201.141 122.219 201.422 122.281 201.688 122.391V123.688C201.391 123.594 201.094 123.547 200.812 123.547C199.469 123.547 198.672 124.625 198.672 126.469V130.5H197.359Z" fill="black"/>
<path d="M190.953 123.531V122.438H192.328V120.438H193.641V122.438H195.641V123.531H193.641V128.156C193.641 129.031 194.016 129.438 194.828 129.438C195.078 129.438 195.359 129.391 195.641 129.312V130.547C195.391 130.641 195.047 130.719 194.641 130.719C193.219 130.719 192.328 129.75 192.328 128.203V123.531H190.953Z" fill="black"/>
<path d="M186.859 130.719C185.547 130.719 184.5 130.203 183.734 129.188L184.797 128.438C185.328 129.156 185.953 129.469 186.859 129.469C187.984 129.469 188.641 129 188.641 128.203C188.641 127.578 188.219 127.266 186.922 126.938L186.484 126.828C184.812 126.406 184.016 125.688 184.016 124.594C184.016 123.234 185.234 122.219 186.859 122.219C188.062 122.219 189.172 122.781 189.812 123.734L188.719 124.453C188.266 123.812 187.625 123.469 186.859 123.469C185.969 123.469 185.359 123.922 185.359 124.594C185.359 125.094 185.688 125.328 186.797 125.609L187.234 125.719C189.141 126.188 189.984 126.953 189.984 128.203C189.984 129.703 188.719 130.719 186.859 130.719Z" fill="black"/>
<path d="M182.016 122.438V130.5H180.703V129.328H180.656C180.25 130.188 179.383 130.719 178.234 130.719C176.438 130.719 175.453 129.453 175.453 127.375V122.438H176.766V127.188C176.766 128.672 177.391 129.469 178.516 129.469C179.641 129.469 180.703 128.672 180.703 126.938V122.438H182.016Z" fill="black"/>
<path d="M172.047 130.5V118.688H173.359V130.5H172.047Z" fill="#0066FF"/>
<path d="M168.641 130.5V118.688H169.953V130.5H168.641Z" fill="#0066FF"/>
<path d="M165.109 130.5V119.188H166.484V130.5H165.109Z" fill="black"/>
<path d="M299.031 104.438C300.594 104.438 301.688 103.562 301.688 102.312C301.688 101.062 300.594 100.188 299.031 100.188C297.469 100.188 296.375 101.062 296.375 102.312C296.375 103.562 297.469 104.438 299.031 104.438ZM299.031 98.9375C300.203 98.9375 301.031 98.1719 301.031 97.0938C301.031 96.0156 300.203 95.25 299.031 95.25C297.859 95.25 297.031 96.0156 297.031 97.0938C297.031 98.1719 297.859 98.9375 299.031 98.9375ZM295 102.375C295 101.07 295.844 99.9609 297.375 99.5V99.4531C296.273 99.0547 295.672 98.2031 295.672 97.0625C295.672 95.2969 297.109 93.9688 299.031 93.9688C300.953 93.9688 302.391 95.2969 302.391 97.0625C302.391 98.2031 301.789 99.0547 300.688 99.4531V99.5C302.227 99.9609 303.062 101.07 303.062 102.375C303.062 104.266 301.328 105.719 299.031 105.719C296.734 105.719 295 104.266 295 102.375Z" fill="black"/>
<path d="M289.484 105.719C286.797 105.719 285.312 103.547 285.312 100.109C285.312 96.1562 287.25 93.9688 289.828 93.9688C291.219 93.9688 292.438 94.6094 293.188 95.7031L292.031 96.4219C291.516 95.625 290.672 95.25 289.828 95.25C288.141 95.25 286.789 96.7422 286.703 99.7656H286.766C287.398 98.7656 288.484 98.1562 289.766 98.1562C291.797 98.1562 293.375 99.7188 293.375 101.938C293.375 104.172 291.766 105.719 289.484 105.719ZM289.484 104.438C290.953 104.438 292 103.406 292 101.938C292 100.469 290.953 99.4375 289.484 99.4375C288.016 99.4375 286.969 100.469 286.969 101.938C286.969 103.406 288.016 104.438 289.484 104.438Z" fill="black"/>
<path d="M276.375 95.4688V94.1875H283.812V95.4688C281.406 98.4062 280.094 101.703 279.781 105.5H278.5C278.781 101.789 279.969 98.5 282.141 95.5312V95.4688H276.375Z" fill="black"/>
<path d="M266.953 100.703L267.547 94.1719H273.875V95.4531H268.812L268.438 99.3594H268.5C269.109 98.6094 270.016 98.1562 271.062 98.1562C273.031 98.1562 274.625 99.7656 274.625 101.938C274.625 104.156 272.969 105.719 270.625 105.719C268.828 105.719 267.391 104.781 266.562 103.078L267.797 102.516C268.422 103.812 269.375 104.438 270.625 104.438C272.203 104.438 273.25 103.438 273.25 101.938C273.25 100.438 272.203 99.4375 270.641 99.4375C269.562 99.4375 268.727 99.9141 268.312 100.703H266.953Z" fill="black"/>
<path d="M264.812 99.2031V100.484H259.812V99.2031H264.812Z" fill="#0066FF"/>
<path d="M249.625 102.953V101.672L254.016 94.1875H255.547L251.234 101.562V101.672H255.203V98.125H256.547V101.672H258.312V102.953H256.547V105.5H255.203V102.953H249.625Z" fill="black"/>
<path d="M240.5 104.219C244.5 101.484 246.328 99.3438 246.328 97.4375C246.328 96.0469 245.391 95.25 244.047 95.25C243 95.25 242.234 95.7344 241.812 97.125L240.5 96.75C241.094 94.7969 242.422 93.9688 244.047 93.9688C246.109 93.9688 247.703 95.2969 247.703 97.4375C247.703 99.6406 245.844 101.805 242.703 104.156V104.219H247.875V105.5H240.5V104.219Z" fill="black"/>
<path d="M234.688 105.719C232.812 105.719 231.438 104.766 230.625 103.078L231.859 102.516C232.484 103.812 233.422 104.438 234.688 104.438C236.203 104.438 237.312 103.547 237.312 102.312C237.312 101 236.062 100.203 234 100.203H233.625V98.9219H234C235.797 98.9219 236.859 98.25 236.859 97.0938C236.859 96.0156 235.938 95.25 234.656 95.25C233.562 95.25 232.703 95.8125 232.188 96.875L230.953 96.3125C231.703 94.7656 233.062 93.9688 234.656 93.9688C236.703 93.9688 238.234 95.2969 238.234 97.0625C238.234 98.2969 237.484 99.1406 236.094 99.5312V99.5781C237.742 100.023 238.688 101.016 238.688 102.406C238.688 104.297 236.969 105.719 234.688 105.719Z" fill="black"/>
<path d="M223.875 96.1875C224.766 95.6562 225.656 95 226.594 94.1875H227.938V105.5H226.594V95.9219H226.531C225.664 96.6094 224.758 97.2109 223.875 97.6719V96.1875Z" fill="black"/>
<path d="M222.375 99.2031V100.484H217.375V99.2031H222.375Z" fill="#0066FF"/>
<path d="M211.438 105.719C208.859 105.719 207.25 103.453 207.25 99.8438C207.25 96.2344 208.859 93.9688 211.438 93.9688C214.016 93.9688 215.625 96.2344 215.625 99.8438C215.625 103.453 214.016 105.719 211.438 105.719ZM211.438 104.438C213.156 104.438 214.25 102.656 214.25 99.8438C214.25 97.0312 213.156 95.25 211.438 95.25C209.719 95.25 208.625 97.0312 208.625 99.8438C208.625 102.656 209.719 104.438 211.438 104.438Z" fill="black"/>
<path d="M200.5 96.1875C201.391 95.6562 202.281 95 203.219 94.1875H204.562V105.5H203.219V95.9219H203.156C202.289 96.6094 201.383 97.2109 200.5 97.6719V96.1875Z" fill="black"/>
<path d="M199 99.2031V100.484H194V99.2031H199Z" fill="#0066FF"/>
<path d="M184.688 104.219C188.688 101.484 190.516 99.3438 190.516 97.4375C190.516 96.0469 189.578 95.25 188.234 95.25C187.188 95.25 186.422 95.7344 186 97.125L184.688 96.75C185.281 94.7969 186.609 93.9688 188.234 93.9688C190.297 93.9688 191.891 95.2969 191.891 97.4375C191.891 99.6406 190.031 101.805 186.891 104.156V104.219H192.062V105.5H184.688V104.219Z" fill="black"/>
<path d="M178.844 104.438C180.406 104.438 181.5 103.562 181.5 102.312C181.5 101.062 180.406 100.188 178.844 100.188C177.281 100.188 176.188 101.062 176.188 102.312C176.188 103.562 177.281 104.438 178.844 104.438ZM178.844 98.9375C180.016 98.9375 180.844 98.1719 180.844 97.0938C180.844 96.0156 180.016 95.25 178.844 95.25C177.672 95.25 176.844 96.0156 176.844 97.0938C176.844 98.1719 177.672 98.9375 178.844 98.9375ZM174.812 102.375C174.812 101.07 175.656 99.9609 177.188 99.5V99.4531C176.086 99.0547 175.484 98.2031 175.484 97.0625C175.484 95.2969 176.922 93.9688 178.844 93.9688C180.766 93.9688 182.203 95.2969 182.203 97.0625C182.203 98.2031 181.602 99.0547 180.5 99.4531V99.5C182.039 99.9609 182.875 101.07 182.875 102.375C182.875 104.266 181.141 105.719 178.844 105.719C176.547 105.719 174.812 104.266 174.812 102.375Z" fill="black"/>
<path d="M173.062 99.2031V100.484H169.688V103.906H168.312V100.484H164.938V99.2031H168.312V95.7812H169.688V99.2031H173.062Z" fill="#0066FF"/>
<path d="M273.625 79.4688C275.156 79.4688 276.25 78.2344 276.25 76.4688C276.25 74.7031 275.156 73.4688 273.625 73.4688C272.078 73.4688 271 74.7188 271 76.4688C271 78.2188 272.078 79.4688 273.625 79.4688ZM277.5 80.5H276.188V79.2344H276.141C275.586 80.1953 274.688 80.7188 273.5 80.7188C271.266 80.7188 269.656 78.8906 269.656 76.4688C269.656 74.0469 271.266 72.2188 273.5 72.2188C274.688 72.2188 275.586 72.7422 276.141 73.7031H276.188V72.4375H277.5V80.5Z" fill="black"/>
<path d="M267.109 80.625C266.547 80.625 266.141 80.2188 266.141 79.6562C266.141 79.0938 266.547 78.6875 267.109 78.6875C267.672 78.6875 268.078 79.0938 268.078 79.6562C268.078 80.2188 267.672 80.625 267.109 80.625ZM267.109 74.5625C266.547 74.5625 266.141 74.1562 266.141 73.5938C266.141 73.0312 266.547 72.625 267.109 72.625C267.672 72.625 268.078 73.0312 268.078 73.5938C268.078 74.1562 267.672 74.5625 267.109 74.5625Z" fill="black"/>
<path d="M263.25 80.5L262.016 77.2031H257.109L255.875 80.5H254.375L258.703 69.1875H260.422L264.75 80.5H263.25ZM257.594 75.9219H261.547L259.594 70.7344H259.531L257.594 75.9219Z" fill="black"/>
<path d="M247.609 67.9062V72.4688H249.688V73.5H247.609V78.2969H246.375V67.9062H247.609ZM245.062 69.5938V70.5938H236.797V69.5938H240.312V67.8906H241.547V69.5938H245.062ZM240.922 71.375C242.898 71.375 244.266 72.3984 244.266 73.9531C244.266 75.5078 242.898 76.5312 240.922 76.5312C238.922 76.5312 237.57 75.5078 237.578 73.9531C237.57 72.3984 238.922 71.375 240.922 71.375ZM240.922 72.3281C239.625 72.3359 238.734 72.9766 238.734 73.9531C238.734 74.9219 239.625 75.5625 240.922 75.5625C242.211 75.5625 243.094 74.9219 243.094 73.9531C243.094 72.9766 242.203 72.3359 240.922 72.3281ZM248.25 80.4375V81.4531H238.906V77.4688H240.141V80.4375H248.25Z" fill="black"/>
<path d="M234.188 78.8438C233.625 78.8438 233.219 78.4375 233.219 77.875C233.219 77.3125 233.625 76.9062 234.188 76.9062C234.75 76.9062 235.156 77.3125 235.156 77.875C235.156 78.4375 234.75 78.8438 234.188 78.8438ZM234.188 72.7812C233.625 72.7812 233.219 72.375 233.219 71.8125C233.219 71.25 233.625 70.8438 234.188 70.8438C234.75 70.8438 235.156 71.25 235.156 71.8125C235.156 72.375 234.75 72.7812 234.188 72.7812Z" fill="#0066FF"/>
<path d="M230.328 80.5L229.094 77.2031H224.188L222.953 80.5H221.453L225.781 69.1875H227.5L231.828 80.5H230.328ZM224.672 75.9219H228.625L226.672 70.7344H226.609L224.672 75.9219Z" fill="black"/>
<path d="M215.234 80.5L214 77.2031H209.094L207.859 80.5H206.359L210.688 69.1875H212.406L216.734 80.5H215.234ZM209.578 75.9219H213.531L211.578 70.7344H211.516L209.578 75.9219Z" fill="black"/>
<path d="M204 78.8438C203.438 78.8438 203.031 78.4375 203.031 77.875C203.031 77.3125 203.438 76.9062 204 76.9062C204.562 76.9062 204.969 77.3125 204.969 77.875C204.969 78.4375 204.562 78.8438 204 78.8438ZM204 72.7812C203.438 72.7812 203.031 72.375 203.031 71.8125C203.031 71.25 203.438 70.8438 204 70.8438C204.562 70.8438 204.969 71.25 204.969 71.8125C204.969 72.375 204.562 72.7812 204 72.7812Z" fill="#0066FF"/>
<path d="M197 80.7188C194.422 80.7188 192.812 78.4531 192.812 74.8438C192.812 71.2344 194.422 68.9688 197 68.9688C199.578 68.9688 201.188 71.2344 201.188 74.8438C201.188 78.4531 199.578 80.7188 197 80.7188ZM197 79.4375C198.719 79.4375 199.812 77.6562 199.812 74.8438C199.812 72.0312 198.719 70.25 197 70.25C195.281 70.25 194.188 72.0312 194.188 74.8438C194.188 77.6562 195.281 79.4375 197 79.4375Z" fill="black"/>
<path d="M183 80.7188C180.422 80.7188 178.812 78.4531 178.812 74.8438C178.812 71.2344 180.422 68.9688 183 68.9688C185.578 68.9688 187.188 71.2344 187.188 74.8438C187.188 78.4531 185.578 80.7188 183 80.7188ZM183 79.4375C184.719 79.4375 185.812 77.6562 185.812 74.8438C185.812 72.0312 184.719 70.25 183 70.25C181.281 70.25 180.188 72.0312 180.188 74.8438C180.188 77.6562 181.281 79.4375 183 79.4375Z" fill="black"/>
<path d="M176 78.8438C175.438 78.8438 175.031 78.4375 175.031 77.875C175.031 77.3125 175.438 76.9062 176 76.9062C176.562 76.9062 176.969 77.3125 176.969 77.875C176.969 78.4375 176.562 78.8438 176 78.8438ZM176 72.7812C175.438 72.7812 175.031 72.375 175.031 71.8125C175.031 71.25 175.438 70.8438 176 70.8438C176.562 70.8438 176.969 71.25 176.969 71.8125C176.969 72.375 176.562 72.7812 176 72.7812Z" fill="#0066FF"/>
<path d="M169 80.7188C166.422 80.7188 164.812 78.4531 164.812 74.8438C164.812 71.2344 166.422 68.9688 169 68.9688C171.578 68.9688 173.188 71.2344 173.188 74.8438C173.188 78.4531 171.578 80.7188 169 80.7188ZM169 79.4375C170.719 79.4375 171.812 77.6562 171.812 74.8438C171.812 72.0312 170.719 70.25 169 70.25C167.281 70.25 166.188 72.0312 166.188 74.8438C166.188 77.6562 167.281 79.4375 169 79.4375Z" fill="black"/>
</svg>
