<svg width="320" height="143" viewBox="0 0 320 143" fill="none" xmlns="http://www.w3.org/2000/svg">
<rect x="0.5" y="0.5" width="319" height="142" rx="7.5" stroke="#70737C" stroke-opacity="0.16"/>
<rect x="16" y="16" width="40" height="20" rx="4" fill="#70737C" fill-opacity="0.08"/>
<path d="M22.377 25.4004C22.377 24.2051 23.3613 23.4434 24.8789 23.4434C26.3496 23.4434 27.2812 24.123 27.3691 25.2773H26.0801C25.9863 24.7969 25.5234 24.498 24.8613 24.498C24.1758 24.498 23.7246 24.8145 23.7246 25.2949C23.7246 25.7051 24.0176 25.9395 24.7148 26.0918L25.6699 26.2969C26.9531 26.5723 27.5215 27.1172 27.5215 28.0781C27.5215 29.3262 26.4961 30.1289 24.8848 30.1289C23.3145 30.1289 22.3184 29.4316 22.2246 28.2715H23.5781C23.6953 28.7754 24.1816 29.0625 24.9082 29.0625C25.6523 29.0625 26.1211 28.7344 26.1211 28.2363C26.1211 27.8145 25.8516 27.5977 25.1191 27.4395L24.1582 27.2285C22.9746 26.9648 22.377 26.3555 22.377 25.4004ZM29.7949 25.4004C29.7949 24.2051 30.7793 23.4434 32.2969 23.4434C33.7676 23.4434 34.6992 24.123 34.7871 25.2773H33.498C33.4043 24.7969 32.9414 24.498 32.2793 24.498C31.5938 24.498 31.1426 24.8145 31.1426 25.2949C31.1426 25.7051 31.4355 25.9395 32.1328 26.0918L33.0879 26.2969C34.3711 26.5723 34.9395 27.1172 34.9395 28.0781C34.9395 29.3262 33.9141 30.1289 32.3027 30.1289C30.7324 30.1289 29.7363 29.4316 29.6426 28.2715H30.9961C31.1133 28.7754 31.5996 29.0625 32.3262 29.0625C33.0703 29.0625 33.5391 28.7344 33.5391 28.2363C33.5391 27.8145 33.2695 27.5977 32.5371 27.4395L31.5762 27.2285C30.3926 26.9648 29.7949 26.3555 29.7949 25.4004ZM41.3613 25.2715L38.25 27.5684C38.502 28.5059 39 28.998 39.7148 28.998C40.793 28.998 41.373 27.873 41.373 25.7695C41.373 25.5938 41.3672 25.4297 41.3613 25.2715ZM38.0625 26.2734L41.1797 23.9883C40.9277 23.0449 40.4297 22.5469 39.7148 22.5469C38.6309 22.5469 38.0508 23.6719 38.0508 25.7695C38.0508 25.9453 38.0566 26.1152 38.0625 26.2734ZM39.7148 21.3633C41.666 21.3633 42.7617 22.9453 42.7617 25.7695C42.7617 28.5996 41.666 30.1816 39.7148 30.1816C37.7578 30.1816 36.6621 28.5996 36.6621 25.7695C36.6621 22.9453 37.7578 21.3633 39.7148 21.3633ZM48.123 28.8105H50.373V30H44.373V28.8105H46.7344V22.998H46.6348L44.3613 24.4922V23.1152L46.7402 21.5449H48.123V28.8105Z" fill="black"/>
<rect x="16" y="52" width="288" height="1" fill="#70737C" fill-opacity="0.16"/>
<path d="M22.6094 80.7188C19.2656 80.7188 16.7344 78.1875 16.7344 74.8438C16.7344 71.5 19.2656 68.9688 22.6094 68.9688C25.9531 68.9688 28.4844 71.5 28.4844 74.8438C28.4844 76.75 27.6641 78.3984 26.3281 79.4531L27.8594 81.625H26.2344L25.2031 80.1562C24.4297 80.5156 23.5469 80.7188 22.6094 80.7188ZM22.6094 79.4062C23.2734 79.4062 23.8828 79.2891 24.4375 79.0625L23.1094 77.1875H24.7344L25.5781 78.3594C26.5156 77.5625 27.0781 76.3203 27.0781 74.8438C27.0781 72.1719 25.2344 70.2812 22.6094 70.2812C19.9844 70.2812 18.1406 72.1719 18.1406 74.8438C18.1406 77.5156 19.9844 79.4062 22.6094 79.4062ZM36.8281 72.4375V80.5H35.5156V79.3281H35.4688C35.0625 80.1875 34.1953 80.7188 33.0469 80.7188C31.25 80.7188 30.2656 79.4531 30.2656 77.375V72.4375H31.5781V77.1875C31.5781 78.6719 32.2031 79.4688 33.3281 79.4688C34.4531 79.4688 35.5156 78.6719 35.5156 76.9375V72.4375H36.8281ZM38.9219 80.5V72.4375H40.2344V80.5H38.9219ZM39.5781 70.75C39.0781 70.75 38.7031 70.375 38.7031 69.875C38.7031 69.375 39.0781 69 39.5781 69C40.0781 69 40.4531 69.375 40.4531 69.875C40.4531 70.375 40.0781 70.75 39.5781 70.75ZM42.3281 80.5V72.4375H43.6406V73.6094H43.7031C44.0938 72.75 44.9609 72.2188 46.1094 72.2188C47.9062 72.2188 48.8906 73.4844 48.8906 75.5625V80.5H47.5781V75.75C47.5781 74.2656 46.9531 73.4688 45.8281 73.4688C44.7031 73.4688 43.6406 74.2656 43.6406 76V80.5H42.3281ZM54.7812 80.7188C52.3906 80.7188 50.6094 78.8906 50.6094 76.4688C50.6094 74.0469 52.3906 72.2188 54.7812 72.2188C56.2734 72.2188 57.4766 72.9297 58.1406 74.0938L56.9844 74.6875C56.5469 73.9141 55.7812 73.4688 54.7812 73.4688C53.1094 73.4688 51.9531 74.7031 51.9531 76.4688C51.9531 78.2344 53.1094 79.4688 54.7812 79.4688C55.7812 79.4688 56.5469 79.0234 56.9844 78.25L58.1406 78.8438C57.4766 80.0078 56.2734 80.7188 54.7812 80.7188ZM62.5312 80.5L59.1094 72.4375H60.5312L63.2031 78.8438H63.2656L65.6562 72.4375H67.0469L62.6562 83.875H61.2344L62.5312 80.5ZM71.5781 84.0938C71.125 84.0938 70.75 84 70.4531 83.8906V82.6562C70.7969 82.7656 71.1094 82.8125 71.3906 82.8125C72.2344 82.8125 72.6406 82.3906 72.6406 81.5312V72.4375H73.9531V81.5781C73.9531 83.125 73.0312 84.0938 71.5781 84.0938ZM73.2969 70.75C72.7969 70.75 72.4219 70.375 72.4219 69.875C72.4219 69.375 72.7969 69 73.2969 69C73.7969 69 74.1719 69.375 74.1719 69.875C74.1719 70.375 73.7969 70.75 73.2969 70.75ZM82.6094 72.4375V80.5H81.2969V79.3281H81.25C80.8438 80.1875 79.9766 80.7188 78.8281 80.7188C77.0312 80.7188 76.0469 79.4531 76.0469 77.375V72.4375H77.3594V77.1875C77.3594 78.6719 77.9844 79.4688 79.1094 79.4688C80.2344 79.4688 81.2969 78.6719 81.2969 76.9375V72.4375H82.6094ZM87.4531 80.7188C86.1406 80.7188 85.0938 80.2031 84.3281 79.1875L85.3906 78.4375C85.9219 79.1562 86.5469 79.4688 87.4531 79.4688C88.5781 79.4688 89.2344 79 89.2344 78.2031C89.2344 77.5781 88.8125 77.2656 87.5156 76.9375L87.0781 76.8281C85.4062 76.4062 84.6094 75.6875 84.6094 74.5938C84.6094 73.2344 85.8281 72.2188 87.4531 72.2188C88.6562 72.2188 89.7656 72.7812 90.4062 73.7344L89.3125 74.4531C88.8594 73.8125 88.2188 73.4688 87.4531 73.4688C86.5625 73.4688 85.9531 73.9219 85.9531 74.5938C85.9531 75.0938 86.2812 75.3281 87.3906 75.6094L87.8281 75.7188C89.7344 76.1875 90.5781 76.9531 90.5781 78.2031C90.5781 79.7031 89.3125 80.7188 87.4531 80.7188ZM91.5469 73.5312V72.4375H92.9219V70.4375H94.2344V72.4375H96.2344V73.5312H94.2344V78.1562C94.2344 79.0312 94.6094 79.4375 95.4219 79.4375C95.6719 79.4375 95.9531 79.3906 96.2344 79.3125V80.5469C95.9844 80.6406 95.6406 80.7188 95.2344 80.7188C93.8125 80.7188 92.9219 79.75 92.9219 78.2031V73.5312H91.5469ZM17.0469 101.5V90.1875H18.3594V101.5H17.0469ZM24.2188 101.719C21.8594 101.719 20.0781 99.8906 20.0781 97.4688C20.0781 95.0469 21.8594 93.2188 24.2188 93.2188C26.5781 93.2188 28.3594 95.0469 28.3594 97.4688C28.3594 99.8906 26.5781 101.719 24.2188 101.719ZM24.2188 100.469C25.8594 100.469 27.0156 99.2344 27.0156 97.4688C27.0156 95.7031 25.8594 94.4688 24.2188 94.4688C22.5781 94.4688 21.4219 95.7031 21.4219 97.4688C21.4219 99.2344 22.5781 100.469 24.2188 100.469ZM32.1094 101.5L29.0156 93.4375H30.4375L32.9531 100.203H33.0156L35.5312 93.4375H36.9531L33.8594 101.5H32.1094ZM41.8125 101.719C39.3906 101.719 37.6094 99.8906 37.6094 97.4688C37.6094 95.0469 39.3438 93.2188 41.6562 93.2188C43.9688 93.2188 45.5781 95.0469 45.5781 97.4688L45.5625 97.9219H38.9844C39.1641 99.4688 40.3047 100.469 41.8438 100.469C42.9531 100.469 43.75 99.9453 44.1562 99.0781L45.3125 99.5781C44.6953 100.875 43.4688 101.719 41.8125 101.719ZM39.0469 96.6406H44.1406C44.0469 95.4141 43.0469 94.4688 41.6562 94.4688C40.3281 94.4688 39.3359 95.3281 39.0469 96.6406ZM49.9844 101.719C48.6719 101.719 47.625 101.203 46.8594 100.188L47.9219 99.4375C48.4531 100.156 49.0781 100.469 49.9844 100.469C51.1094 100.469 51.7656 100 51.7656 99.2031C51.7656 98.5781 51.3438 98.2656 50.0469 97.9375L49.6094 97.8281C47.9375 97.4062 47.1406 96.6875 47.1406 95.5938C47.1406 94.2344 48.3594 93.2188 49.9844 93.2188C51.1875 93.2188 52.2969 93.7812 52.9375 94.7344L51.8438 95.4531C51.3906 94.8125 50.75 94.4688 49.9844 94.4688C49.0938 94.4688 48.4844 94.9219 48.4844 95.5938C48.4844 96.0938 48.8125 96.3281 49.9219 96.6094L50.3594 96.7188C52.2656 97.1875 53.1094 97.9531 53.1094 99.2031C53.1094 100.703 51.8438 101.719 49.9844 101.719ZM61.5 101.5L58.0781 93.4375H59.5L62.1719 99.8438H62.2344L64.625 93.4375H66.0156L61.625 104.875H60.2031L61.5 101.5ZM70.8125 101.719C68.4531 101.719 66.6719 99.8906 66.6719 97.4688C66.6719 95.0469 68.4531 93.2188 70.8125 93.2188C73.1719 93.2188 74.9531 95.0469 74.9531 97.4688C74.9531 99.8906 73.1719 101.719 70.8125 101.719ZM70.8125 100.469C72.4531 100.469 73.6094 99.2344 73.6094 97.4688C73.6094 95.7031 72.4531 94.4688 70.8125 94.4688C69.1719 94.4688 68.0156 95.7031 68.0156 97.4688C68.0156 99.2344 69.1719 100.469 70.8125 100.469ZM83.2344 93.4375V101.5H81.9219V100.328H81.875C81.4688 101.188 80.6016 101.719 79.4531 101.719C77.6562 101.719 76.6719 100.453 76.6719 98.375V93.4375H77.9844V98.1875C77.9844 99.6719 78.6094 100.469 79.7344 100.469C80.8594 100.469 81.9219 99.6719 81.9219 97.9375V93.4375H83.2344ZM86.2812 101.625C85.7188 101.625 85.3125 101.219 85.3125 100.656C85.3125 100.094 85.7188 99.6875 86.2812 99.6875C86.8438 99.6875 87.25 100.094 87.25 100.656C87.25 101.219 86.8438 101.625 86.2812 101.625ZM16.9375 117.188C17.8281 116.656 18.7188 116 19.6562 115.188H21V126.5H19.6562V116.922H19.5938C18.7266 117.609 17.8203 118.211 16.9375 118.672V117.188ZM23.875 125.219C27.875 122.484 29.7031 120.344 29.7031 118.438C29.7031 117.047 28.7656 116.25 27.4219 116.25C26.375 116.25 25.6094 116.734 25.1875 118.125L23.875 117.75C24.4688 115.797 25.7969 114.969 27.4219 114.969C29.4844 114.969 31.0781 116.297 31.0781 118.438C31.0781 120.641 29.2188 122.805 26.0781 125.156V125.219H31.25V126.5H23.875V125.219ZM37.125 126.719C35.25 126.719 33.875 125.766 33.0625 124.078L34.2969 123.516C34.9219 124.812 35.8594 125.438 37.125 125.438C38.6406 125.438 39.75 124.547 39.75 123.312C39.75 122 38.5 121.203 36.4375 121.203H36.0625V119.922H36.4375C38.2344 119.922 39.2969 119.25 39.2969 118.094C39.2969 117.016 38.375 116.25 37.0938 116.25C36 116.25 35.1406 116.812 34.625 117.875L33.3906 117.312C34.1406 115.766 35.5 114.969 37.0938 114.969C39.1406 114.969 40.6719 116.297 40.6719 118.062C40.6719 119.297 39.9219 120.141 38.5312 120.531V120.578C40.1797 121.023 41.125 122.016 41.125 123.406C41.125 125.297 39.4062 126.719 37.125 126.719ZM42.6875 123.953V122.672L47.0781 115.188H48.6094L44.2969 122.562V122.672H48.2656V119.125H49.6094V122.672H51.375V123.953H49.6094V126.5H48.2656V123.953H42.6875ZM53.1406 121.703L53.7344 115.172H60.0625V116.453H55L54.625 120.359H54.6875C55.2969 119.609 56.2031 119.156 57.25 119.156C59.2188 119.156 60.8125 120.766 60.8125 122.938C60.8125 125.156 59.1562 126.719 56.8125 126.719C55.0156 126.719 53.5781 125.781 52.75 124.078L53.9844 123.516C54.6094 124.812 55.5625 125.438 56.8125 125.438C58.3906 125.438 59.4375 124.438 59.4375 122.938C59.4375 121.438 58.3906 120.438 56.8281 120.438C55.75 120.438 54.9141 120.914 54.5 121.703H53.1406ZM66.6094 126.719C63.9219 126.719 62.4375 124.547 62.4375 121.109C62.4375 117.156 64.375 114.969 66.9531 114.969C68.3438 114.969 69.5625 115.609 70.3125 116.703L69.1562 117.422C68.6406 116.625 67.7969 116.25 66.9531 116.25C65.2656 116.25 63.9141 117.742 63.8281 120.766H63.8906C64.5234 119.766 65.6094 119.156 66.8906 119.156C68.9219 119.156 70.5 120.719 70.5 122.938C70.5 125.172 68.8906 126.719 66.6094 126.719ZM66.6094 125.438C68.0781 125.438 69.125 124.406 69.125 122.938C69.125 121.469 68.0781 120.438 66.6094 120.438C65.1406 120.438 64.0938 121.469 64.0938 122.938C64.0938 124.406 65.1406 125.438 66.6094 125.438ZM72.25 116.469V115.188H79.6875V116.469C77.2812 119.406 75.9688 122.703 75.6562 126.5H74.375C74.6562 122.789 75.8438 119.5 78.0156 116.531V116.469H72.25ZM85.2188 125.438C86.7812 125.438 87.875 124.562 87.875 123.312C87.875 122.062 86.7812 121.188 85.2188 121.188C83.6562 121.188 82.5625 122.062 82.5625 123.312C82.5625 124.562 83.6562 125.438 85.2188 125.438ZM85.2188 119.938C86.3906 119.938 87.2188 119.172 87.2188 118.094C87.2188 117.016 86.3906 116.25 85.2188 116.25C84.0469 116.25 83.2188 117.016 83.2188 118.094C83.2188 119.172 84.0469 119.938 85.2188 119.938ZM81.1875 123.375C81.1875 122.07 82.0312 120.961 83.5625 120.5V120.453C82.4609 120.055 81.8594 119.203 81.8594 118.062C81.8594 116.297 83.2969 114.969 85.2188 114.969C87.1406 114.969 88.5781 116.297 88.5781 118.062C88.5781 119.203 87.9766 120.055 86.875 120.453V120.5C88.4141 120.961 89.25 122.07 89.25 123.375C89.25 125.266 87.5156 126.719 85.2188 126.719C82.9219 126.719 81.1875 125.266 81.1875 123.375ZM94.4219 126.719C93.0156 126.719 91.875 126.047 91 124.75L92.125 124.031C92.8125 125.016 93.5156 125.438 94.4219 125.438C96.1094 125.438 97.4609 123.945 97.5625 120.922H97.5C96.8516 121.922 95.7656 122.531 94.4844 122.531C92.4531 122.531 90.875 120.969 90.875 118.75C90.875 116.516 92.4844 114.969 94.7656 114.969C97.4531 114.969 98.9375 117.141 98.9375 120.578C98.9375 124.531 97 126.719 94.4219 126.719ZM94.7656 121.25C96.2344 121.25 97.2812 120.219 97.2812 118.75C97.2812 117.281 96.2344 116.25 94.7656 116.25C93.2969 116.25 92.25 117.281 92.25 118.75C92.25 120.219 93.2969 121.25 94.7656 121.25ZM104.75 126.719C102.172 126.719 100.562 124.453 100.562 120.844C100.562 117.234 102.172 114.969 104.75 114.969C107.328 114.969 108.938 117.234 108.938 120.844C108.938 124.453 107.328 126.719 104.75 126.719ZM104.75 125.438C106.469 125.438 107.562 123.656 107.562 120.844C107.562 118.031 106.469 116.25 104.75 116.25C103.031 116.25 101.938 118.031 101.938 120.844C101.938 123.656 103.031 125.438 104.75 125.438Z" fill="#2A2A2A" fill-opacity="0.28"/>
<path d="M252.125 126.719C249.547 126.719 247.938 124.453 247.938 120.844C247.938 117.234 249.547 114.969 252.125 114.969C254.703 114.969 256.312 117.234 256.312 120.844C256.312 124.453 254.703 126.719 252.125 126.719ZM252.125 125.438C253.844 125.438 254.938 123.656 254.938 120.844C254.938 118.031 253.844 116.25 252.125 116.25C250.406 116.25 249.312 118.031 249.312 120.844C249.312 123.656 250.406 125.438 252.125 125.438Z" fill="black"/>
<path d="M242.438 114.969C244.656 114.969 246.328 116.625 246.328 118.984C246.328 120.234 245.875 121.328 244.25 123.625L242.219 126.5H240.562L243.203 122.875C243.492 122.477 243.742 122.125 243.969 121.797L243.922 121.766C243.383 122.195 242.711 122.438 241.953 122.438C240.047 122.438 238.547 120.859 238.547 118.812C238.547 116.625 240.219 114.969 242.438 114.969ZM242.438 116.25C240.953 116.25 239.922 117.281 239.922 118.75C239.922 120.219 240.953 121.25 242.438 121.25C243.922 121.25 244.953 120.219 244.953 118.75C244.953 117.281 243.922 116.25 242.438 116.25Z" fill="#0066FF"/>
<path d="M232.906 125.438C234.469 125.438 235.562 124.562 235.562 123.312C235.562 122.062 234.469 121.188 232.906 121.188C231.344 121.188 230.25 122.062 230.25 123.312C230.25 124.562 231.344 125.438 232.906 125.438ZM232.906 119.938C234.078 119.938 234.906 119.172 234.906 118.094C234.906 117.016 234.078 116.25 232.906 116.25C231.734 116.25 230.906 117.016 230.906 118.094C230.906 119.172 231.734 119.938 232.906 119.938ZM228.875 123.375C228.875 122.07 229.719 120.961 231.25 120.5V120.453C230.148 120.055 229.547 119.203 229.547 118.062C229.547 116.297 230.984 114.969 232.906 114.969C234.828 114.969 236.266 116.297 236.266 118.062C236.266 119.203 235.664 120.055 234.562 120.453V120.5C236.102 120.961 236.938 122.07 236.938 123.375C236.938 125.266 235.203 126.719 232.906 126.719C230.609 126.719 228.875 125.266 228.875 123.375Z" fill="black"/>
<path d="M220.781 126.5L225.844 116.531V116.469H219.938V115.188H227.375V116.469L222.281 126.5H220.781Z" fill="#0066FF"/>
<path d="M214.312 126.719C212.094 126.719 210.422 125.062 210.422 122.703C210.422 121.453 210.875 120.359 212.5 118.062L214.531 115.188H216.188L213.547 118.812C213.258 119.211 213.008 119.562 212.797 119.891L212.844 119.922C213.367 119.492 214.039 119.25 214.797 119.25C216.703 119.25 218.203 120.828 218.203 122.875C218.203 125.062 216.531 126.719 214.312 126.719ZM214.312 125.438C215.797 125.438 216.828 124.406 216.828 122.938C216.828 121.469 215.797 120.438 214.312 120.438C212.828 120.438 211.797 121.469 211.797 122.938C211.797 124.406 212.828 125.438 214.312 125.438Z" fill="#0066FF"/>
<path d="M201.141 121.703L201.734 115.172H208.062V116.453H203L202.625 120.359H202.688C203.297 119.609 204.203 119.156 205.25 119.156C207.219 119.156 208.812 120.766 208.812 122.938C208.812 125.156 207.156 126.719 204.812 126.719C203.016 126.719 201.578 125.781 200.75 124.078L201.984 123.516C202.609 124.812 203.562 125.438 204.812 125.438C206.391 125.438 207.438 124.438 207.438 122.938C207.438 121.438 206.391 120.438 204.828 120.438C203.75 120.438 202.914 120.914 202.5 121.703H201.141Z" fill="black"/>
<path d="M190.688 123.953V122.672L195.078 115.188H196.609L192.297 122.562V122.672H196.266V119.125H197.609V122.672H199.375V123.953H197.609V126.5H196.266V123.953H190.688Z" fill="black"/>
<path d="M185.125 126.719C183.25 126.719 181.875 125.766 181.062 124.078L182.297 123.516C182.922 124.812 183.859 125.438 185.125 125.438C186.641 125.438 187.75 124.547 187.75 123.312C187.75 122 186.5 121.203 184.438 121.203H184.062V119.922H184.438C186.234 119.922 187.297 119.25 187.297 118.094C187.297 117.016 186.375 116.25 185.094 116.25C184 116.25 183.141 116.812 182.625 117.875L181.391 117.312C182.141 115.766 183.5 114.969 185.094 114.969C187.141 114.969 188.672 116.297 188.672 118.062C188.672 119.297 187.922 120.141 186.531 120.531V120.578C188.18 121.023 189.125 122.016 189.125 123.406C189.125 125.297 187.406 126.719 185.125 126.719Z" fill="black"/>
<path d="M171.875 126.5V125.312L174.609 122.531C176.766 120.328 177.703 119.656 177.703 118.312C177.703 117.016 176.812 116.25 175.422 116.25C174.375 116.25 173.609 116.734 173.188 118.125L171.875 117.75C172.469 115.797 173.797 114.969 175.422 114.969C177.562 114.969 179.078 116.312 179.078 118.312C179.078 120.297 177.625 121.375 175.609 123.406L173.875 125.156V125.219H179.25V126.5H171.875Z" fill="#0066FF"/>
<path d="M164.938 118.719V117.125L167.656 115.188H169V126.5H167.656V116.828H167.594L164.938 118.719Z" fill="#0066FF"/>
<path d="M233.938 101.625C233.375 101.625 232.969 101.219 232.969 100.656C232.969 100.094 233.375 99.6875 233.938 99.6875C234.5 99.6875 234.906 100.094 234.906 100.656C234.906 101.219 234.5 101.625 233.938 101.625Z" fill="black"/>
<path d="M228.031 101.719C226.016 101.719 224.672 100.281 224.672 98.125V93.4375H226.016V98.125C226.016 99.5469 226.797 100.438 228.031 100.438C229.266 100.438 230.047 99.5469 230.047 98.125V93.4375H231.391V98.125C231.391 100.281 230.047 101.719 228.031 101.719Z" fill="#0066FF"/>
<path d="M218.812 101.719C216.453 101.719 214.672 99.8906 214.672 97.4688C214.672 95.0469 216.453 93.2188 218.812 93.2188C221.172 93.2188 222.953 95.0469 222.953 97.4688C222.953 99.8906 221.172 101.719 218.812 101.719ZM218.812 100.469C220.453 100.469 221.609 99.2344 221.609 97.4688C221.609 95.7031 220.453 94.4688 218.812 94.4688C217.172 94.4688 216.016 95.7031 216.016 97.4688C216.016 99.2344 217.172 100.469 218.812 100.469Z" fill="black"/>
<path d="M209.5 101.5L206.078 93.4375H207.5L210.172 99.8438H210.234L212.625 93.4375H214.016L209.625 104.875H208.203L209.5 101.5Z" fill="black"/>
<path d="M197.984 101.719C196.672 101.719 195.625 101.203 194.859 100.188L195.922 99.4375C196.453 100.156 197.078 100.469 197.984 100.469C199.109 100.469 199.766 100 199.766 99.2031C199.766 98.5781 199.344 98.2656 198.047 97.9375L197.609 97.8281C195.938 97.4062 195.141 96.6875 195.141 95.5938C195.141 94.2344 196.359 93.2188 197.984 93.2188C199.188 93.2188 200.297 93.7812 200.938 94.7344L199.844 95.4531C199.391 94.8125 198.75 94.4688 197.984 94.4688C197.094 94.4688 196.484 94.9219 196.484 95.5938C196.484 96.0938 196.812 96.3281 197.922 96.6094L198.359 96.7188C200.266 97.1875 201.109 97.9531 201.109 99.2031C201.109 100.703 199.844 101.719 197.984 101.719Z" fill="black"/>
<path d="M189.812 101.719C187.391 101.719 185.609 99.8906 185.609 97.4688C185.609 95.0469 187.344 93.2188 189.656 93.2188C191.969 93.2188 193.578 95.0469 193.578 97.4688L193.562 97.9219H186.984C187.164 99.4688 188.305 100.469 189.844 100.469C190.953 100.469 191.75 99.9453 192.156 99.0781L193.312 99.5781C192.695 100.875 191.469 101.719 189.812 101.719ZM187.047 96.6406H192.141C192.047 95.4141 191.047 94.4688 189.656 94.4688C188.328 94.4688 187.336 95.3281 187.047 96.6406Z" fill="black"/>
<path d="M180.109 101.5L177.016 93.4375H178.438L180.953 100.203H181.016L183.531 93.4375H184.953L181.859 101.5H180.109Z" fill="black"/>
<path d="M172.219 101.719C169.859 101.719 168.078 99.8906 168.078 97.4688C168.078 95.0469 169.859 93.2188 172.219 93.2188C174.578 93.2188 176.359 95.0469 176.359 97.4688C176.359 99.8906 174.578 101.719 172.219 101.719ZM172.219 100.469C173.859 100.469 175.016 99.2344 175.016 97.4688C175.016 95.7031 173.859 94.4688 172.219 94.4688C170.578 94.4688 169.422 95.7031 169.422 97.4688C169.422 99.2344 170.578 100.469 172.219 100.469Z" fill="black"/>
<path d="M165.047 101.5V90.1875H166.359V101.5H165.047Z" fill="black"/>
<path d="M239.562 73.5312V72.4375H240.938V70.4375H242.25V72.4375H244.125V73.5312H242.25V80.5H240.938V73.5312H239.562Z" fill="#0066FF"/>
<path d="M235.406 80.7188C234.094 80.7188 233.047 80.2031 232.281 79.1875L233.344 78.4375C233.875 79.1562 234.5 79.4688 235.406 79.4688C236.531 79.4688 237.188 79 237.188 78.2031C237.188 77.5781 236.766 77.2656 235.469 76.9375L235.031 76.8281C233.359 76.4062 232.562 75.6875 232.562 74.5938C232.562 73.2344 233.781 72.2188 235.406 72.2188C236.609 72.2188 237.719 72.7812 238.359 73.7344L237.266 74.4531C236.812 73.8125 236.172 73.4688 235.406 73.4688C234.516 73.4688 233.906 73.9219 233.906 74.5938C233.906 75.0938 234.234 75.3281 235.344 75.6094L235.781 75.7188C237.688 76.1875 238.531 76.9531 238.531 78.2031C238.531 79.7031 237.266 80.7188 235.406 80.7188Z" fill="black"/>
<path d="M227.203 80.7188C225.188 80.7188 223.844 79.2812 223.844 77.125V72.4375H225.188V77.125C225.188 78.5469 225.969 79.4375 227.203 79.4375C228.438 79.4375 229.219 78.5469 229.219 77.125V72.4375H230.562V77.125C230.562 79.2812 229.219 80.7188 227.203 80.7188Z" fill="#0066FF"/>
<path d="M220.438 83.875V72.4375H221.75V83.875H220.438ZM221.078 70.75C220.578 70.75 220.203 70.375 220.203 69.875C220.203 69.375 220.578 69 221.078 69C221.578 69 221.953 69.375 221.953 69.875C221.953 70.375 221.578 70.75 221.078 70.75Z" fill="#0066FF"/>
<path d="M210.578 80.5L207.156 72.4375H208.578L211.25 78.8438H211.312L213.703 72.4375H215.094L210.703 83.875H209.281L210.578 80.5Z" fill="black"/>
<path d="M202.828 80.7188C200.438 80.7188 198.656 78.8906 198.656 76.4688C198.656 74.0469 200.438 72.2188 202.828 72.2188C204.32 72.2188 205.523 72.9297 206.188 74.0938L205.031 74.6875C204.594 73.9141 203.828 73.4688 202.828 73.4688C201.156 73.4688 200 74.7031 200 76.4688C200 78.2344 201.156 79.4688 202.828 79.4688C203.828 79.4688 204.594 79.0234 205.031 78.25L206.188 78.8438C205.523 80.0078 204.32 80.7188 202.828 80.7188Z" fill="black"/>
<path d="M190.375 80.5V72.4375H191.688V73.6094H191.75C192.141 72.75 193.008 72.2188 194.156 72.2188C195.953 72.2188 196.938 73.4844 196.938 75.5625V80.5H195.625V75.75C195.625 74.2656 195 73.4688 193.875 73.4688C192.75 73.4688 191.688 74.2656 191.688 76V80.5H190.375Z" fill="black"/>
<path d="M186.969 80.5V72.4375H188.281V80.5H186.969ZM187.625 70.75C187.125 70.75 186.75 70.375 186.75 69.875C186.75 69.375 187.125 69 187.625 69C188.125 69 188.5 69.375 188.5 69.875C188.5 70.375 188.125 70.75 187.625 70.75Z" fill="black"/>
<path d="M181.516 80.7188C179.5 80.7188 178.156 79.2812 178.156 77.125V72.4375H179.5V77.125C179.5 78.5469 180.281 79.4375 181.516 79.4375C182.75 79.4375 183.531 78.5469 183.531 77.125V72.4375H184.875V77.125C184.875 79.2812 183.531 80.7188 181.516 80.7188Z" fill="#0066FF"/>
<path d="M170.891 80.5C167.203 80.5 164.734 78.1875 164.734 74.7344C164.734 71.4375 167.203 68.9688 170.5 68.9688C173.797 68.9688 176.266 71.4375 176.266 74.7344C176.266 76.7734 175.305 78.3594 173.688 79.2188H176.875V80.5H170.891ZM170.5 79.1875C173.062 79.1875 174.859 77.3438 174.859 74.7344C174.859 72.125 173.062 70.2812 170.5 70.2812C167.938 70.2812 166.141 72.125 166.141 74.7344C166.141 77.3438 167.938 79.1875 170.5 79.1875Z" fill="#0066FF"/>
</svg>
