<svg width="320" height="118" viewBox="0 0 320 118" fill="none" xmlns="http://www.w3.org/2000/svg">
<rect x="0.5" y="0.5" width="319" height="117" rx="7.5" stroke="#70737C" stroke-opacity="0.16"/>
<rect x="16" y="16" width="40" height="20" rx="4" fill="#70737C" fill-opacity="0.08"/>
<path d="M22.377 25.4004C22.377 24.2051 23.3613 23.4434 24.8789 23.4434C26.3496 23.4434 27.2812 24.123 27.3691 25.2773H26.0801C25.9863 24.7969 25.5234 24.498 24.8613 24.498C24.1758 24.498 23.7246 24.8145 23.7246 25.2949C23.7246 25.7051 24.0176 25.9395 24.7148 26.0918L25.6699 26.2969C26.9531 26.5723 27.5215 27.1172 27.5215 28.0781C27.5215 29.3262 26.4961 30.1289 24.8848 30.1289C23.3145 30.1289 22.3184 29.4316 22.2246 28.2715H23.5781C23.6953 28.7754 24.1816 29.0625 24.9082 29.0625C25.6523 29.0625 26.1211 28.7344 26.1211 28.2363C26.1211 27.8145 25.8516 27.5977 25.1191 27.4395L24.1582 27.2285C22.9746 26.9648 22.377 26.3555 22.377 25.4004ZM29.7949 25.4004C29.7949 24.2051 30.7793 23.4434 32.2969 23.4434C33.7676 23.4434 34.6992 24.123 34.7871 25.2773H33.498C33.4043 24.7969 32.9414 24.498 32.2793 24.498C31.5938 24.498 31.1426 24.8145 31.1426 25.2949C31.1426 25.7051 31.4355 25.9395 32.1328 26.0918L33.0879 26.2969C34.3711 26.5723 34.9395 27.1172 34.9395 28.0781C34.9395 29.3262 33.9141 30.1289 32.3027 30.1289C30.7324 30.1289 29.7363 29.4316 29.6426 28.2715H30.9961C31.1133 28.7754 31.5996 29.0625 32.3262 29.0625C33.0703 29.0625 33.5391 28.7344 33.5391 28.2363C33.5391 27.8145 33.2695 27.5977 32.5371 27.4395L31.5762 27.2285C30.3926 26.9648 29.7949 26.3555 29.7949 25.4004ZM41.3613 25.2715L38.25 27.5684C38.502 28.5059 39 28.998 39.7148 28.998C40.793 28.998 41.373 27.873 41.373 25.7695C41.373 25.5938 41.3672 25.4297 41.3613 25.2715ZM38.0625 26.2734L41.1797 23.9883C40.9277 23.0449 40.4297 22.5469 39.7148 22.5469C38.6309 22.5469 38.0508 23.6719 38.0508 25.7695C38.0508 25.9453 38.0566 26.1152 38.0625 26.2734ZM39.7148 21.3633C41.666 21.3633 42.7617 22.9453 42.7617 25.7695C42.7617 28.5996 41.666 30.1816 39.7148 30.1816C37.7578 30.1816 36.6621 28.5996 36.6621 25.7695C36.6621 22.9453 37.7578 21.3633 39.7148 21.3633ZM47.9238 30V28.3242H44.1152V27.1934L46.8047 21.5449H48.2402L45.6152 27.0586V27.1523H47.959V24.9023H49.2246V27.1641H50.4316V28.3242H49.2363V30H47.9238Z" fill="black"/>
<rect x="16" y="52" width="288" height="1" fill="#70737C" fill-opacity="0.16"/>
<path d="M17.1094 80.5V69.1875H18.4844V79.2188H23.8594V80.5H17.1094ZM25.6406 80.5V72.4375H26.9531V80.5H25.6406ZM26.2969 70.75C25.7969 70.75 25.4219 70.375 25.4219 69.875C25.4219 69.375 25.7969 69 26.2969 69C26.7969 69 27.1719 69.375 27.1719 69.875C27.1719 70.375 26.7969 70.75 26.2969 70.75ZM29.0469 80.5V69.1875H30.3594V80.5H29.0469ZM35.125 80.5L31.7031 72.4375H33.125L35.7969 78.8438H35.8594L38.25 72.4375H39.6406L35.25 83.875H33.8281L35.125 80.5ZM44.9844 80.5V69.1875H46.2969V73.6094H46.3594C46.75 72.75 47.6172 72.2188 48.7656 72.2188C50.5625 72.2188 51.5469 73.4844 51.5469 75.5625V80.5H50.2344V75.75C50.2344 74.2656 49.6094 73.4688 48.4844 73.4688C47.3594 73.4688 46.2969 74.2656 46.2969 76V80.5H44.9844ZM57.2344 79.4688C58.7656 79.4688 59.8594 78.2344 59.8594 76.4688C59.8594 74.7031 58.7656 73.4688 57.2344 73.4688C55.6875 73.4688 54.6094 74.7188 54.6094 76.4688C54.6094 78.2188 55.6875 79.4688 57.2344 79.4688ZM61.1094 80.5H59.7969V79.2344H59.75C59.1953 80.1953 58.2969 80.7188 57.1094 80.7188C54.875 80.7188 53.2656 78.8906 53.2656 76.4688C53.2656 74.0469 54.875 72.2188 57.1094 72.2188C58.2969 72.2188 59.1953 72.7422 59.75 73.7031H59.7969V72.4375H61.1094V80.5ZM63.2031 80.5V72.4375H64.5156V73.6875H64.5781C64.9766 72.8125 65.7734 72.2188 66.6875 72.2188C66.9844 72.2188 67.2656 72.2812 67.5312 72.3906V73.6875C67.2344 73.5938 66.9375 73.5469 66.6562 73.5469C65.3125 73.5469 64.5156 74.625 64.5156 76.4688V80.5H63.2031ZM76.25 80.5H74.9375V79.2344H74.8906C74.3359 80.1953 73.4375 80.7188 72.25 80.7188C70.0156 80.7188 68.4062 78.8906 68.4062 76.4688C68.4062 74.0469 70.0156 72.2188 72.25 72.2188C73.4375 72.2188 74.3359 72.7422 74.8906 73.7031H74.9375V69.1875H76.25V80.5ZM72.375 79.4688C73.9062 79.4688 75 78.2344 75 76.4688C75 74.7031 73.9062 73.4688 72.375 73.4688C70.8281 73.4688 69.75 74.7188 69.75 76.4688C69.75 78.2188 70.8281 79.4688 72.375 79.4688ZM78.3438 80.5V69.1875H79.6562V80.5H78.3438ZM84.4219 80.5L81 72.4375H82.4219L85.0938 78.8438H85.1562L87.5469 72.4375H88.9375L84.5469 83.875H83.125L84.4219 80.5ZM94.2812 80.5V69.1875H95.5938V73.7031H95.6562C96.1953 72.7422 97.0938 72.2188 98.2812 72.2188C100.516 72.2188 102.125 74.0469 102.125 76.4688C102.125 78.8906 100.516 80.7188 98.2812 80.7188C97.0938 80.7188 96.1953 80.1953 95.6562 79.2344H95.5938V80.5H94.2812ZM98.1562 79.4688C99.7031 79.4688 100.781 78.2188 100.781 76.4688C100.781 74.7188 99.7031 73.4688 98.1562 73.4688C96.625 73.4688 95.5312 74.7031 95.5312 76.4688C95.5312 78.2344 96.625 79.4688 98.1562 79.4688ZM103.844 80.5V69.1875H105.156V80.5H103.844ZM107.25 80.5V72.4375H108.562V80.5H107.25ZM107.906 70.75C107.406 70.75 107.031 70.375 107.031 69.875C107.031 69.375 107.406 69 107.906 69C108.406 69 108.781 69.375 108.781 69.875C108.781 70.375 108.406 70.75 107.906 70.75ZM110.656 80.5V72.4375H111.969V73.6094H112.031C112.422 72.75 113.289 72.2188 114.438 72.2188C116.234 72.2188 117.219 73.4844 117.219 75.5625V80.5H115.906V75.75C115.906 74.2656 115.281 73.4688 114.156 73.4688C113.031 73.4688 111.969 74.2656 111.969 76V80.5H110.656ZM119.312 80.5V69.1875H120.625V75.9375L123.859 72.4375H125.594L121.969 76.2812L125.734 80.5H124.031L120.625 76.6875V80.5H119.312ZM130.531 80.7188C128.109 80.7188 126.328 78.8906 126.328 76.4688C126.328 74.0469 128.062 72.2188 130.375 72.2188C132.688 72.2188 134.297 74.0469 134.297 76.4688L134.281 76.9219H127.703C127.883 78.4688 129.023 79.4688 130.562 79.4688C131.672 79.4688 132.469 78.9453 132.875 78.0781L134.031 78.5781C133.414 79.875 132.188 80.7188 130.531 80.7188ZM127.766 75.6406H132.859C132.766 74.4141 131.766 73.4688 130.375 73.4688C129.047 73.4688 128.055 74.3281 127.766 75.6406ZM143.484 80.5H142.172V79.2344H142.125C141.57 80.1953 140.672 80.7188 139.484 80.7188C137.25 80.7188 135.641 78.8906 135.641 76.4688C135.641 74.0469 137.25 72.2188 139.484 72.2188C140.672 72.2188 141.57 72.7422 142.125 73.7031H142.172V69.1875H143.484V80.5ZM139.609 79.4688C141.141 79.4688 142.234 78.2344 142.234 76.4688C142.234 74.7031 141.141 73.4688 139.609 73.4688C138.062 73.4688 136.984 74.7188 136.984 76.4688C136.984 78.2188 138.062 79.4688 139.609 79.4688ZM17.0469 101.5V90.1875H18.3594V94.6094H18.4219C18.8125 93.75 19.6797 93.2188 20.8281 93.2188C22.625 93.2188 23.6094 94.4844 23.6094 96.5625V101.5H22.2969V96.75C22.2969 95.2656 21.6719 94.4688 20.5469 94.4688C19.4219 94.4688 18.3594 95.2656 18.3594 97V101.5H17.0469ZM29.5312 101.719C27.1094 101.719 25.3281 99.8906 25.3281 97.4688C25.3281 95.0469 27.0625 93.2188 29.375 93.2188C31.6875 93.2188 33.2969 95.0469 33.2969 97.4688L33.2812 97.9219H26.7031C26.8828 99.4688 28.0234 100.469 29.5625 100.469C30.6719 100.469 31.4688 99.9453 31.875 99.0781L33.0312 99.5781C32.4141 100.875 31.1875 101.719 29.5312 101.719ZM26.7656 96.6406H31.8594C31.7656 95.4141 30.7656 94.4688 29.375 94.4688C28.0469 94.4688 27.0547 95.3281 26.7656 96.6406ZM35.0156 101.5V93.4375H36.3281V94.6875H36.3906C36.7891 93.8125 37.5859 93.2188 38.5 93.2188C38.7969 93.2188 39.0781 93.2812 39.3438 93.3906V94.6875C39.0469 94.5938 38.75 94.5469 38.4688 94.5469C37.125 94.5469 36.3281 95.625 36.3281 97.4688V101.5H35.0156ZM48.8594 101.719C46.4375 101.719 44.6562 99.8906 44.6562 97.4688C44.6562 95.0469 46.3906 93.2188 48.7031 93.2188C51.0156 93.2188 52.625 95.0469 52.625 97.4688L52.6094 97.9219H46.0312C46.2109 99.4688 47.3516 100.469 48.8906 100.469C50 100.469 50.7969 99.9453 51.2031 99.0781L52.3594 99.5781C51.7422 100.875 50.5156 101.719 48.8594 101.719ZM46.0938 96.6406H51.1875C51.0938 95.4141 50.0938 94.4688 48.7031 94.4688C47.375 94.4688 46.3828 95.3281 46.0938 96.6406ZM56.7031 101.5L53.2812 93.4375H54.7031L57.375 99.8438H57.4375L59.8281 93.4375H61.2188L56.8281 104.875H55.4062L56.7031 101.5ZM66.0781 101.719C63.6562 101.719 61.875 99.8906 61.875 97.4688C61.875 95.0469 63.6094 93.2188 65.9219 93.2188C68.2344 93.2188 69.8438 95.0469 69.8438 97.4688L69.8281 97.9219H63.25C63.4297 99.4688 64.5703 100.469 66.1094 100.469C67.2188 100.469 68.0156 99.9453 68.4219 99.0781L69.5781 99.5781C68.9609 100.875 67.7344 101.719 66.0781 101.719ZM63.3125 96.6406H68.4062C68.3125 95.4141 67.3125 94.4688 65.9219 94.4688C64.5938 94.4688 63.6016 95.3281 63.3125 96.6406ZM74.25 101.719C72.9375 101.719 71.8906 101.203 71.125 100.188L72.1875 99.4375C72.7188 100.156 73.3438 100.469 74.25 100.469C75.375 100.469 76.0312 100 76.0312 99.2031C76.0312 98.5781 75.6094 98.2656 74.3125 97.9375L73.875 97.8281C72.2031 97.4062 71.4062 96.6875 71.4062 95.5938C71.4062 94.2344 72.625 93.2188 74.25 93.2188C75.4531 93.2188 76.5625 93.7812 77.2031 94.7344L76.1094 95.4531C75.6562 94.8125 75.0156 94.4688 74.25 94.4688C73.3594 94.4688 72.75 94.9219 72.75 95.5938C72.75 96.0938 73.0781 96.3281 74.1875 96.6094L74.625 96.7188C76.5312 97.1875 77.375 97.9531 77.375 99.2031C77.375 100.703 76.1094 101.719 74.25 101.719ZM80.0469 101.625C79.4844 101.625 79.0781 101.219 79.0781 100.656C79.0781 100.094 79.4844 99.6875 80.0469 99.6875C80.6094 99.6875 81.0156 100.094 81.0156 100.656C81.0156 101.219 80.6094 101.625 80.0469 101.625Z" fill="#2A2A2A" fill-opacity="0.28"/>
<path d="M228.047 101.625C227.484 101.625 227.078 101.219 227.078 100.656C227.078 100.094 227.484 99.6875 228.047 99.6875C228.609 99.6875 229.016 100.094 229.016 100.656C229.016 101.219 228.609 101.625 228.047 101.625Z" fill="black"/>
<path d="M222.25 101.719C220.938 101.719 219.891 101.203 219.125 100.188L220.188 99.4375C220.719 100.156 221.344 100.469 222.25 100.469C223.375 100.469 224.031 100 224.031 99.2031C224.031 98.5781 223.609 98.2656 222.312 97.9375L221.875 97.8281C220.203 97.4062 219.406 96.6875 219.406 95.5938C219.406 94.2344 220.625 93.2188 222.25 93.2188C223.453 93.2188 224.562 93.7812 225.203 94.7344L224.109 95.4531C223.656 94.8125 223.016 94.4688 222.25 94.4688C221.359 94.4688 220.75 94.9219 220.75 95.5938C220.75 96.0938 221.078 96.3281 222.188 96.6094L222.625 96.7188C224.531 97.1875 225.375 97.9531 225.375 99.2031C225.375 100.703 224.109 101.719 222.25 101.719Z" fill="black"/>
<path d="M214.078 101.719C211.656 101.719 209.875 99.8906 209.875 97.4688C209.875 95.0469 211.609 93.2188 213.922 93.2188C216.234 93.2188 217.844 95.0469 217.844 97.4688L217.828 97.9219H211.25C211.43 99.4688 212.57 100.469 214.109 100.469C215.219 100.469 216.016 99.9453 216.422 99.0781L217.578 99.5781C216.961 100.875 215.734 101.719 214.078 101.719ZM211.312 96.6406H216.406C216.312 95.4141 215.312 94.4688 213.922 94.4688C212.594 94.4688 211.602 95.3281 211.312 96.6406Z" fill="black"/>
<path d="M204.703 101.5L201.281 93.4375H202.703L205.375 99.8438H205.438L207.828 93.4375H209.219L204.828 104.875H203.406L204.703 101.5Z" fill="black"/>
<path d="M196.859 101.719C194.438 101.719 192.656 99.8906 192.656 97.4688C192.656 95.0469 194.391 93.2188 196.703 93.2188C199.016 93.2188 200.625 95.0469 200.625 97.4688L200.609 97.9219H194.031C194.211 99.4688 195.352 100.469 196.891 100.469C198 100.469 198.797 99.9453 199.203 99.0781L200.359 99.5781C199.742 100.875 198.516 101.719 196.859 101.719ZM194.094 96.6406H199.188C199.094 95.4141 198.094 94.4688 196.703 94.4688C195.375 94.4688 194.383 95.3281 194.094 96.6406Z" fill="black"/>
<path d="M183.016 101.5V93.4375H184.328V94.6875H184.391C184.789 93.8125 185.586 93.2188 186.5 93.2188C186.797 93.2188 187.078 93.2812 187.344 93.3906V94.6875C187.047 94.5938 186.75 94.5469 186.469 94.5469C185.125 94.5469 184.328 95.625 184.328 97.4688V101.5H183.016Z" fill="black"/>
<path d="M177.531 101.719C175.109 101.719 173.328 99.8906 173.328 97.4688C173.328 95.0469 175.062 93.2188 177.375 93.2188C179.688 93.2188 181.297 95.0469 181.297 97.4688L181.281 97.9219H174.703C174.883 99.4688 176.023 100.469 177.562 100.469C178.672 100.469 179.469 99.9453 179.875 99.0781L181.031 99.5781C180.414 100.875 179.188 101.719 177.531 101.719ZM174.766 96.6406H179.859C179.766 95.4141 178.766 94.4688 177.375 94.4688C176.047 94.4688 175.055 95.3281 174.766 96.6406Z" fill="black"/>
<path d="M165.047 101.5V89.6875H166.359V94.6094H166.422C166.812 93.75 167.68 93.2188 168.828 93.2188C170.625 93.2188 171.609 94.4844 171.609 96.5625V101.5H170.297V96.75C170.297 95.2656 169.672 94.4688 168.547 94.4688C167.422 94.4688 166.359 95.2656 166.359 97V101.5H165.047Z" fill="#0066FF"/>
<path d="M291.484 80.5H290.172V79.2344H290.125C289.57 80.1953 288.672 80.7188 287.484 80.7188C285.25 80.7188 283.641 78.8906 283.641 76.4688C283.641 74.0469 285.25 72.2188 287.484 72.2188C288.672 72.2188 289.57 72.7422 290.125 73.7031H290.172V68.6875H291.484V80.5ZM287.609 79.4688C289.141 79.4688 290.234 78.2344 290.234 76.4688C290.234 74.7031 289.141 73.4688 287.609 73.4688C286.062 73.4688 284.984 74.7188 284.984 76.4688C284.984 78.2188 286.062 79.4688 287.609 79.4688Z" fill="#0066FF"/>
<path d="M278.531 80.7188C276.109 80.7188 274.328 78.8906 274.328 76.4688C274.328 74.0469 276.062 72.2188 278.375 72.2188C280.688 72.2188 282.297 74.0469 282.297 76.4688L282.281 76.9219H275.703C275.883 78.4688 277.023 79.4688 278.562 79.4688C279.672 79.4688 280.469 78.9453 280.875 78.0781L282.031 78.5781C281.414 79.875 280.188 80.7188 278.531 80.7188ZM275.766 75.6406H280.859C280.766 74.4141 279.766 73.4688 278.375 73.4688C277.047 73.4688 276.055 74.3281 275.766 75.6406Z" fill="black"/>
<path d="M267.312 80.5V68.6875H268.625V75.9375L271.859 72.4375H273.594L269.969 76.2812L273.734 80.5H272.031L268.625 76.6875V80.5H267.312Z" fill="#0066FF"/>
<path d="M258.656 80.5V72.4375H259.969V73.6094H260.031C260.422 72.75 261.289 72.2188 262.438 72.2188C264.234 72.2188 265.219 73.4844 265.219 75.5625V80.5H263.906V75.75C263.906 74.2656 263.281 73.4688 262.156 73.4688C261.031 73.4688 259.969 74.2656 259.969 76V80.5H258.656Z" fill="black"/>
<path d="M255.25 80.5V72.4375H256.562V80.5H255.25ZM255.906 70.75C255.406 70.75 255.031 70.375 255.031 69.875C255.031 69.375 255.406 69 255.906 69C256.406 69 256.781 69.375 256.781 69.875C256.781 70.375 256.406 70.75 255.906 70.75Z" fill="black"/>
<path d="M251.844 80.5V68.6875H253.156V80.5H251.844Z" fill="#0066FF"/>
<path d="M242.281 80.5V68.6875H243.594V73.7031H243.656C244.195 72.7422 245.094 72.2188 246.281 72.2188C248.516 72.2188 250.125 74.0469 250.125 76.4688C250.125 78.8906 248.516 80.7188 246.281 80.7188C245.094 80.7188 244.195 80.1953 243.656 79.2344H243.594V80.5H242.281ZM246.156 79.4688C247.703 79.4688 248.781 78.2188 248.781 76.4688C248.781 74.7188 247.703 73.4688 246.156 73.4688C244.625 73.4688 243.531 74.7031 243.531 76.4688C243.531 78.2344 244.625 79.4688 246.156 79.4688Z" fill="#0066FF"/>
<path d="M232.422 80.5L229 72.4375H230.422L233.094 78.8438H233.156L235.547 72.4375H236.938L232.547 83.875H231.125L232.422 80.5Z" fill="black"/>
<path d="M226.344 80.5V68.6875H227.656V80.5H226.344Z" fill="#0066FF"/>
<path d="M224.25 80.5H222.938V79.2344H222.891C222.336 80.1953 221.438 80.7188 220.25 80.7188C218.016 80.7188 216.406 78.8906 216.406 76.4688C216.406 74.0469 218.016 72.2188 220.25 72.2188C221.438 72.2188 222.336 72.7422 222.891 73.7031H222.938V68.6875H224.25V80.5ZM220.375 79.4688C221.906 79.4688 223 78.2344 223 76.4688C223 74.7031 221.906 73.4688 220.375 73.4688C218.828 73.4688 217.75 74.7188 217.75 76.4688C217.75 78.2188 218.828 79.4688 220.375 79.4688Z" fill="#0066FF"/>
<path d="M211.203 80.5V72.4375H212.516V73.6875H212.578C212.977 72.8125 213.773 72.2188 214.688 72.2188C214.984 72.2188 215.266 72.2812 215.531 72.3906V73.6875C215.234 73.5938 214.938 73.5469 214.656 73.5469C213.312 73.5469 212.516 74.625 212.516 76.4688V80.5H211.203Z" fill="black"/>
<path d="M205.234 79.4688C206.766 79.4688 207.859 78.2344 207.859 76.4688C207.859 74.7031 206.766 73.4688 205.234 73.4688C203.688 73.4688 202.609 74.7188 202.609 76.4688C202.609 78.2188 203.688 79.4688 205.234 79.4688ZM209.109 80.5H207.797V79.2344H207.75C207.195 80.1953 206.297 80.7188 205.109 80.7188C202.875 80.7188 201.266 78.8906 201.266 76.4688C201.266 74.0469 202.875 72.2188 205.109 72.2188C206.297 72.2188 207.195 72.7422 207.75 73.7031H207.797V72.4375H209.109V80.5Z" fill="black"/>
<path d="M192.984 80.5V68.6875H194.297V73.6094H194.359C194.75 72.75 195.617 72.2188 196.766 72.2188C198.562 72.2188 199.547 73.4844 199.547 75.5625V80.5H198.234V75.75C198.234 74.2656 197.609 73.4688 196.484 73.4688C195.359 73.4688 194.297 74.2656 194.297 76V80.5H192.984Z" fill="#0066FF"/>
<path d="M183.125 80.5L179.703 72.4375H181.125L183.797 78.8438H183.859L186.25 72.4375H187.641L183.25 83.875H181.828L183.125 80.5Z" fill="black"/>
<path d="M177.047 80.5V68.6875H178.359V80.5H177.047Z" fill="#0066FF"/>
<path d="M173.641 80.5V72.4375H174.953V80.5H173.641ZM174.297 70.75C173.797 70.75 173.422 70.375 173.422 69.875C173.422 69.375 173.797 69 174.297 69C174.797 69 175.172 69.375 175.172 69.875C175.172 70.375 174.797 70.75 174.297 70.75Z" fill="black"/>
<path d="M165.109 80.5V69.1875H166.484V79.2188H171.859V80.5H165.109Z" fill="black"/>
</svg>
