<svg width="320" height="147" viewBox="0 0 320 147" fill="none" xmlns="http://www.w3.org/2000/svg">
<rect x="0.5" y="0.5" width="319" height="146" rx="7.5" stroke="#70737C" stroke-opacity="0.16"/>
<rect x="16" y="16" width="40" height="20" rx="4" fill="#70737C" fill-opacity="0.08"/>
<path d="M22.377 25.4004C22.377 24.2051 23.3613 23.4434 24.8789 23.4434C26.3496 23.4434 27.2812 24.123 27.3691 25.2773H26.0801C25.9863 24.7969 25.5234 24.498 24.8613 24.498C24.1758 24.498 23.7246 24.8145 23.7246 25.2949C23.7246 25.7051 24.0176 25.9395 24.7148 26.0918L25.6699 26.2969C26.9531 26.5723 27.5215 27.1172 27.5215 28.0781C27.5215 29.3262 26.4961 30.1289 24.8848 30.1289C23.3145 30.1289 22.3184 29.4316 22.2246 28.2715H23.5781C23.6953 28.7754 24.1816 29.0625 24.9082 29.0625C25.6523 29.0625 26.1211 28.7344 26.1211 28.2363C26.1211 27.8145 25.8516 27.5977 25.1191 27.4395L24.1582 27.2285C22.9746 26.9648 22.377 26.3555 22.377 25.4004ZM29.7949 25.4004C29.7949 24.2051 30.7793 23.4434 32.2969 23.4434C33.7676 23.4434 34.6992 24.123 34.7871 25.2773H33.498C33.4043 24.7969 32.9414 24.498 32.2793 24.498C31.5938 24.498 31.1426 24.8145 31.1426 25.2949C31.1426 25.7051 31.4355 25.9395 32.1328 26.0918L33.0879 26.2969C34.3711 26.5723 34.9395 27.1172 34.9395 28.0781C34.9395 29.3262 33.9141 30.1289 32.3027 30.1289C30.7324 30.1289 29.7363 29.4316 29.6426 28.2715H30.9961C31.1133 28.7754 31.5996 29.0625 32.3262 29.0625C33.0703 29.0625 33.5391 28.7344 33.5391 28.2363C33.5391 27.8145 33.2695 27.5977 32.5371 27.4395L31.5762 27.2285C30.3926 26.9648 29.7949 26.3555 29.7949 25.4004ZM41.3613 25.2715L38.25 27.5684C38.502 28.5059 39 28.998 39.7148 28.998C40.793 28.998 41.373 27.873 41.373 25.7695C41.373 25.5938 41.3672 25.4297 41.3613 25.2715ZM38.0625 26.2734L41.1797 23.9883C40.9277 23.0449 40.4297 22.5469 39.7148 22.5469C38.6309 22.5469 38.0508 23.6719 38.0508 25.7695C38.0508 25.9453 38.0566 26.1152 38.0625 26.2734ZM39.7148 21.3633C41.666 21.3633 42.7617 22.9453 42.7617 25.7695C42.7617 28.5996 41.666 30.1816 39.7148 30.1816C37.7578 30.1816 36.6621 28.5996 36.6621 25.7695C36.6621 22.9453 37.7578 21.3633 39.7148 21.3633ZM47.0684 30.1699C45.3809 30.1699 44.1914 29.1562 44.127 27.6621H45.498C45.5918 28.4238 46.248 28.9453 47.1152 28.9453C48.0938 28.9453 48.75 28.2656 48.75 27.252C48.75 26.2324 48.0879 25.5469 47.1152 25.5469C46.4473 25.5469 45.9199 25.834 45.6035 26.3848H44.2441L44.6543 21.5449H49.6055V22.752H45.7793L45.5742 25.2129H45.6738C46.0547 24.6973 46.6816 24.416 47.4551 24.416C49.0195 24.416 50.1035 25.5645 50.1035 27.2168C50.1035 28.9863 48.8848 30.1699 47.0684 30.1699Z" fill="black"/>
<rect x="16" y="52" width="288" height="1" fill="#70737C" fill-opacity="0.16"/>
<path d="M52.0625 130.625C51.5 130.625 51.0938 130.219 51.0938 129.656C51.0938 129.094 51.5 128.688 52.0625 128.688C52.625 128.688 53.0312 129.094 53.0312 129.656C53.0312 130.219 52.625 130.625 52.0625 130.625Z" fill="#2A2A2A" fill-opacity="0.28"/>
<path d="M40.5625 130.625C40 130.625 39.5938 130.219 39.5938 129.656C39.5938 129.094 40 128.688 40.5625 128.688C41.125 128.688 41.5312 129.094 41.5312 129.656C41.5312 130.219 41.125 130.625 40.5625 130.625ZM44.3125 130.625C43.75 130.625 43.3438 130.219 43.3438 129.656C43.3438 129.094 43.75 128.688 44.3125 128.688C44.875 128.688 45.2812 129.094 45.2812 129.656C45.2812 130.219 44.875 130.625 44.3125 130.625ZM48.0625 130.625C47.5 130.625 47.0938 130.219 47.0938 129.656C47.0938 129.094 47.5 128.688 48.0625 128.688C48.625 128.688 49.0312 129.094 49.0312 129.656C49.0312 130.219 48.625 130.625 48.0625 130.625Z" fill="#2A2A2A" fill-opacity="0.28"/>
<path d="M29.0625 130.625C28.5 130.625 28.0938 130.219 28.0938 129.656C28.0938 129.094 28.5 128.688 29.0625 128.688C29.625 128.688 30.0312 129.094 30.0312 129.656C30.0312 130.219 29.625 130.625 29.0625 130.625ZM32.8125 130.625C32.25 130.625 31.8438 130.219 31.8438 129.656C31.8438 129.094 32.25 128.688 32.8125 128.688C33.375 128.688 33.7812 129.094 33.7812 129.656C33.7812 130.219 33.375 130.625 32.8125 130.625ZM36.5625 130.625C36 130.625 35.5938 130.219 35.5938 129.656C35.5938 129.094 36 128.688 36.5625 128.688C37.125 128.688 37.5312 129.094 37.5312 129.656C37.5312 130.219 37.125 130.625 36.5625 130.625Z" fill="#2A2A2A" fill-opacity="0.28"/>
<path d="M25.2188 130.5L23.9844 127.203H19.0781L17.8438 130.5H16.3438L20.6719 119.188H22.3906L26.7188 130.5H25.2188ZM19.5625 125.922H23.5156L21.5625 120.734H21.5L19.5625 125.922Z" fill="#2A2A2A" fill-opacity="0.28"/>
<path d="M58.4844 101C58.4844 104.469 55.7812 104.047 55.7812 105.938C55.7812 106.984 56.6094 107.656 57.7812 107.656C59.0312 107.656 59.7812 106.906 59.7812 105.625H61.1875C61.1875 107.656 59.8906 108.969 57.7812 108.969C55.8281 108.969 54.375 107.844 54.375 105.938C54.375 103.344 57.0781 103.781 57.0781 101.125V100.75H58.4844V101ZM57.7812 97.3125C58.3438 97.3125 58.75 97.7188 58.75 98.2812C58.75 98.8438 58.3438 99.25 57.7812 99.25C57.2188 99.25 56.8125 98.8438 56.8125 98.2812C56.8125 97.7188 57.2188 97.3125 57.7812 97.3125Z" fill="#2A2A2A" fill-opacity="0.28"/>
<path d="M51.25 92.9062V97.4688H53.3281V98.5H51.25V103.297H50.0156V92.9062H51.25ZM48.7031 94.5938V95.5938H40.4375V94.5938H43.9531V92.8906H45.1875V94.5938H48.7031ZM44.5625 96.375C46.5391 96.375 47.9062 97.3984 47.9062 98.9531C47.9062 100.508 46.5391 101.531 44.5625 101.531C42.5625 101.531 41.2109 100.508 41.2188 98.9531C41.2109 97.3984 42.5625 96.375 44.5625 96.375ZM44.5625 97.3281C43.2656 97.3359 42.375 97.9766 42.375 98.9531C42.375 99.9219 43.2656 100.562 44.5625 100.562C45.8516 100.562 46.7344 99.9219 46.7344 98.9531C46.7344 97.9766 45.8438 97.3359 44.5625 97.3281ZM51.8906 105.438V106.453H42.5469V102.469H43.7812V105.438H51.8906Z" fill="#2A2A2A" fill-opacity="0.28"/>
<path d="M38.8906 100.641V101.922H35.5156V105.344H34.1406V101.922H30.7656V100.641H34.1406V97.2188H35.5156V100.641H38.8906Z" fill="#2A2A2A" fill-opacity="0.28"/>
<path d="M27.4219 92.9062V97.4688H29.5V98.5H27.4219V103.297H26.1875V92.9062H27.4219ZM24.875 94.5938V95.5938H16.6094V94.5938H20.125V92.8906H21.3594V94.5938H24.875ZM20.7344 96.375C22.7109 96.375 24.0781 97.3984 24.0781 98.9531C24.0781 100.508 22.7109 101.531 20.7344 101.531C18.7344 101.531 17.3828 100.508 17.3906 98.9531C17.3828 97.3984 18.7344 96.375 20.7344 96.375ZM20.7344 97.3281C19.4375 97.3359 18.5469 97.9766 18.5469 98.9531C18.5469 99.9219 19.4375 100.562 20.7344 100.562C22.0234 100.562 22.9062 99.9219 22.9062 98.9531C22.9062 97.9766 22.0156 97.3359 20.7344 97.3281ZM28.0625 105.438V106.453H18.7188V102.469H19.9531V105.438H28.0625Z" fill="#2A2A2A" fill-opacity="0.28"/>
<path d="M101.438 83.875C102.75 81.7734 103.547 79.2422 103.547 76.5312C103.547 73.8203 102.75 71.2891 101.438 69.1875H102.922C104.234 71.3594 104.953 73.8594 104.953 76.5312C104.953 79.2031 104.234 81.7031 102.922 83.875H101.438Z" fill="#2A2A2A" fill-opacity="0.28"/>
<path d="M94.875 80.7188C91.5312 80.7188 89 78.1875 89 74.8438C89 71.5 91.5312 68.9688 94.875 68.9688C98.2188 68.9688 100.75 71.5 100.75 74.8438C100.75 78.1875 98.2188 80.7188 94.875 80.7188ZM94.875 79.4062C97.5 79.4062 99.3438 77.5156 99.3438 74.8438C99.3438 72.1719 97.5 70.2812 94.875 70.2812C92.25 70.2812 90.4062 72.1719 90.4062 74.8438C90.4062 77.5156 92.25 79.4062 94.875 79.4062Z" fill="#2A2A2A" fill-opacity="0.28"/>
<path d="M87.0312 84.1875C85.7188 82.0156 85 79.5156 85 76.8438C85 74.1719 85.7188 71.6719 87.0312 69.5H88.5156C87.2031 71.6016 86.4062 74.1328 86.4062 76.8438C86.4062 79.5547 87.2031 82.0859 88.5156 84.1875H87.0312Z" fill="#2A2A2A" fill-opacity="0.28"/>
<path d="M76.6094 79.6094H75L77.25 76.2812L75 72.9531H76.6094L78.8438 76.2812L76.6094 79.6094Z" fill="#2A2A2A" fill-opacity="0.28"/>
<path d="M72.3438 80.5L71.1094 77.2031H66.2031L64.9688 80.5H63.4688L67.7969 69.1875H69.5156L73.8438 80.5H72.3438ZM66.6875 75.9219H70.6406L68.6875 70.7344H68.625L66.6875 75.9219Z" fill="#2A2A2A" fill-opacity="0.28"/>
<path d="M60.7031 79.6094L58.4688 76.2812L60.7031 72.9531H62.3125L60.0625 76.2812L62.3125 79.6094H60.7031Z" fill="#2A2A2A" fill-opacity="0.28"/>
<path d="M49 83.875C50.3125 81.7734 51.1094 79.2422 51.1094 76.5312C51.1094 73.8203 50.3125 71.2891 49 69.1875H50.4844C51.7969 71.3594 52.5156 73.8594 52.5156 76.5312C52.5156 79.2031 51.7969 81.7031 50.4844 83.875H49Z" fill="#2A2A2A" fill-opacity="0.28"/>
<path d="M46.4375 68.4688V69.3594C46.4297 70.3047 46.4297 71.5 46.125 73.0625H48.0938V74.0781H35.3906V73.0625H44.9062C45.2109 71.5234 45.2266 70.3906 45.2344 69.4688H37.0156V68.4688H46.4375ZM46.4844 75.4688V78.9531H38.1406V80.5938H46.8281V81.5938H36.9219V78.0156H45.2656V76.4531H36.8906V75.4688H46.4844Z" fill="#2A2A2A" fill-opacity="0.28"/>
<path d="M32.4219 67.9062V72.4688H34.5V73.5H32.4219V78.2969H31.1875V67.9062H32.4219ZM29.875 69.5938V70.5938H21.6094V69.5938H25.125V67.8906H26.3594V69.5938H29.875ZM25.7344 71.375C27.7109 71.375 29.0781 72.3984 29.0781 73.9531C29.0781 75.5078 27.7109 76.5312 25.7344 76.5312C23.7344 76.5312 22.3828 75.5078 22.3906 73.9531C22.3828 72.3984 23.7344 71.375 25.7344 71.375ZM25.7344 72.3281C24.4375 72.3359 23.5469 72.9766 23.5469 73.9531C23.5469 74.9219 24.4375 75.5625 25.7344 75.5625C27.0234 75.5625 27.9062 74.9219 27.9062 73.9531C27.9062 72.9766 27.0156 72.3359 25.7344 72.3281ZM33.0625 80.4375V81.4531H23.7188V77.4688H24.9531V80.4375H33.0625Z" fill="#2A2A2A" fill-opacity="0.28"/>
<path d="M19.1719 83.875C17.8594 81.7031 17.1406 79.2031 17.1406 76.5312C17.1406 73.8594 17.8594 71.3594 19.1719 69.1875H20.6562C19.3438 71.2891 18.5469 73.8203 18.5469 76.5312C18.5469 79.2422 19.3438 81.7734 20.6562 83.875H19.1719Z" fill="#2A2A2A" fill-opacity="0.28"/>
<path d="M199.594 130.625C199.031 130.625 198.625 130.219 198.625 129.656C198.625 129.094 199.031 128.688 199.594 128.688C200.156 128.688 200.562 129.094 200.562 129.656C200.562 130.219 200.156 130.625 199.594 130.625Z" fill="black"/>
<path d="M188.094 125.812C187.531 125.812 187.125 125.406 187.125 124.844C187.125 124.281 187.531 123.875 188.094 123.875C188.656 123.875 189.062 124.281 189.062 124.844C189.062 125.406 188.656 125.812 188.094 125.812ZM191.844 125.812C191.281 125.812 190.875 125.406 190.875 124.844C190.875 124.281 191.281 123.875 191.844 123.875C192.406 123.875 192.812 124.281 192.812 124.844C192.812 125.406 192.406 125.812 191.844 125.812ZM195.594 125.812C195.031 125.812 194.625 125.406 194.625 124.844C194.625 124.281 195.031 123.875 195.594 123.875C196.156 123.875 196.562 124.281 196.562 124.844C196.562 125.406 196.156 125.812 195.594 125.812Z" fill="#0066FF"/>
<path d="M176.594 125.812C176.031 125.812 175.625 125.406 175.625 124.844C175.625 124.281 176.031 123.875 176.594 123.875C177.156 123.875 177.562 124.281 177.562 124.844C177.562 125.406 177.156 125.812 176.594 125.812ZM180.344 125.812C179.781 125.812 179.375 125.406 179.375 124.844C179.375 124.281 179.781 123.875 180.344 123.875C180.906 123.875 181.312 124.281 181.312 124.844C181.312 125.406 180.906 125.812 180.344 125.812ZM184.094 125.812C183.531 125.812 183.125 125.406 183.125 124.844C183.125 124.281 183.531 123.875 184.094 123.875C184.656 123.875 185.062 124.281 185.062 124.844C185.062 125.406 184.656 125.812 184.094 125.812Z" fill="#0066FF"/>
<path d="M173.234 130.5L172 127.203H167.094L165.859 130.5H164.359L168.688 119.188H170.406L174.734 130.5H173.234ZM167.578 125.922H171.531L169.578 120.734H169.516L167.578 125.922Z" fill="black"/>
<path d="M206.5 97.75C206.5 101.219 203.797 100.797 203.797 102.688C203.797 103.734 204.625 104.406 205.797 104.406C207.047 104.406 207.797 103.656 207.797 102.375H209.203C209.203 104.406 207.906 105.719 205.797 105.719C203.844 105.719 202.391 104.594 202.391 102.688C202.391 100.094 205.094 100.531 205.094 97.875V97.5H206.5V97.75ZM205.797 94.0625C206.359 94.0625 206.766 94.4688 206.766 95.0312C206.766 95.5938 206.359 96 205.797 96C205.234 96 204.828 95.5938 204.828 95.0312C204.828 94.4688 205.234 94.0625 205.797 94.0625Z" fill="#0066FF"/>
<path d="M199.25 92.9062V97.4688H201.328V98.5H199.25V103.297H198.016V92.9062H199.25ZM196.703 94.5938V95.5938H188.438V94.5938H191.953V92.8906H193.188V94.5938H196.703ZM192.562 96.375C194.539 96.375 195.906 97.3984 195.906 98.9531C195.906 100.508 194.539 101.531 192.562 101.531C190.562 101.531 189.211 100.508 189.219 98.9531C189.211 97.3984 190.562 96.375 192.562 96.375ZM192.562 97.3281C191.266 97.3359 190.375 97.9766 190.375 98.9531C190.375 99.9219 191.266 100.562 192.562 100.562C193.852 100.562 194.734 99.9219 194.734 98.9531C194.734 97.9766 193.844 97.3359 192.562 97.3281ZM199.891 105.438V106.453H190.547V102.469H191.781V105.438H199.891Z" fill="black"/>
<path d="M186.891 99.2031V100.484H183.516V103.906H182.141V100.484H178.766V99.2031H182.141V95.7812H183.516V99.2031H186.891Z" fill="#0066FF"/>
<path d="M175.422 92.9062V97.4688H177.5V98.5H175.422V103.297H174.188V92.9062H175.422ZM172.875 94.5938V95.5938H164.609V94.5938H168.125V92.8906H169.359V94.5938H172.875ZM168.734 96.375C170.711 96.375 172.078 97.3984 172.078 98.9531C172.078 100.508 170.711 101.531 168.734 101.531C166.734 101.531 165.383 100.508 165.391 98.9531C165.383 97.3984 166.734 96.375 168.734 96.375ZM168.734 97.3281C167.438 97.3359 166.547 97.9766 166.547 98.9531C166.547 99.9219 167.438 100.562 168.734 100.562C170.023 100.562 170.906 99.9219 170.906 98.9531C170.906 97.9766 170.016 97.3359 168.734 97.3281ZM176.062 105.438V106.453H166.719V102.469H167.953V105.438H176.062Z" fill="black"/>
<path d="M249.516 82.3125C250.828 80.2031 251.625 77.6719 251.625 74.9688C251.625 72.25 250.828 69.7188 249.516 67.625H251C252.312 69.7969 253.031 72.2969 253.031 74.9688C253.031 77.6406 252.312 80.1406 251 82.3125H249.516Z" fill="#0066FF"/>
<path d="M242.922 80.7188C239.578 80.7188 237.047 78.1875 237.047 74.8438C237.047 71.5 239.578 68.9688 242.922 68.9688C246.266 68.9688 248.797 71.5 248.797 74.8438C248.797 78.1875 246.266 80.7188 242.922 80.7188ZM242.922 79.4062C245.547 79.4062 247.391 77.5156 247.391 74.8438C247.391 72.1719 245.547 70.2812 242.922 70.2812C240.297 70.2812 238.453 72.1719 238.453 74.8438C238.453 77.5156 240.297 79.4062 242.922 79.4062Z" fill="black"/>
<path d="M234.844 82.3125C233.531 80.1406 232.812 77.6406 232.812 74.9688C232.812 72.2969 233.531 69.7969 234.844 67.625H236.328C235.016 69.7188 234.219 72.25 234.219 74.9688C234.219 77.6719 235.016 80.2031 236.328 82.3125H234.844Z" fill="#0066FF"/>
<path d="M224.641 78.2969H223.031L225.281 74.9688L223.031 71.6406H224.641L226.875 74.9688L224.641 78.2969Z" fill="#0066FF"/>
<path d="M220.359 80.5L219.125 77.2031H214.219L212.984 80.5H211.484L215.812 69.1875H217.531L221.859 80.5H220.359ZM214.703 75.9219H218.656L216.703 70.7344H216.641L214.703 75.9219Z" fill="black"/>
<path d="M208.703 78.2969L206.469 74.9688L208.703 71.6406H210.312L208.062 74.9688L210.312 78.2969H208.703Z" fill="#0066FF"/>
<path d="M197.016 82.3125C198.328 80.2031 199.125 77.6719 199.125 74.9688C199.125 72.25 198.328 69.7188 197.016 67.625H198.5C199.812 69.7969 200.531 72.2969 200.531 74.9688C200.531 77.6406 199.812 80.1406 198.5 82.3125H197.016Z" fill="#0066FF"/>
<path d="M194.438 68.4688V69.3594C194.43 70.3047 194.43 71.5 194.125 73.0625H196.094V74.0781H183.391V73.0625H192.906C193.211 71.5234 193.227 70.3906 193.234 69.4688H185.016V68.4688H194.438ZM194.484 75.4688V78.9531H186.141V80.5938H194.828V81.5938H184.922V78.0156H193.266V76.4531H184.891V75.4688H194.484Z" fill="black"/>
<path d="M180.422 67.9062V72.4688H182.5V73.5H180.422V78.2969H179.188V67.9062H180.422ZM177.875 69.5938V70.5938H169.609V69.5938H173.125V67.8906H174.359V69.5938H177.875ZM173.734 71.375C175.711 71.375 177.078 72.3984 177.078 73.9531C177.078 75.5078 175.711 76.5312 173.734 76.5312C171.734 76.5312 170.383 75.5078 170.391 73.9531C170.383 72.3984 171.734 71.375 173.734 71.375ZM173.734 72.3281C172.438 72.3359 171.547 72.9766 171.547 73.9531C171.547 74.9219 172.438 75.5625 173.734 75.5625C175.023 75.5625 175.906 74.9219 175.906 73.9531C175.906 72.9766 175.016 72.3359 173.734 72.3281ZM181.062 80.4375V81.4531H171.719V77.4688H172.953V80.4375H181.062Z" fill="black"/>
<path d="M167.156 82.3125C165.844 80.1406 165.125 77.6406 165.125 74.9688C165.125 72.2969 165.844 69.7969 167.156 67.625H168.641C167.328 69.7188 166.531 72.25 166.531 74.9688C166.531 77.6719 167.328 80.2031 168.641 82.3125H167.156Z" fill="#0066FF"/>
</svg>
