<svg width="320" height="97" viewBox="0 0 320 97" fill="none" xmlns="http://www.w3.org/2000/svg">
<rect x="0.5" y="0.5" width="319" height="96" rx="7.5" stroke="#70737C" stroke-opacity="0.16"/>
<rect x="16" y="16" width="40" height="20" rx="4" fill="#70737C" fill-opacity="0.08"/>
<path d="M22.377 25.4004C22.377 24.2051 23.3613 23.4434 24.8789 23.4434C26.3496 23.4434 27.2812 24.123 27.3691 25.2773H26.0801C25.9863 24.7969 25.5234 24.498 24.8613 24.498C24.1758 24.498 23.7246 24.8145 23.7246 25.2949C23.7246 25.7051 24.0176 25.9395 24.7148 26.0918L25.6699 26.2969C26.9531 26.5723 27.5215 27.1172 27.5215 28.0781C27.5215 29.3262 26.4961 30.1289 24.8848 30.1289C23.3145 30.1289 22.3184 29.4316 22.2246 28.2715H23.5781C23.6953 28.7754 24.1816 29.0625 24.9082 29.0625C25.6523 29.0625 26.1211 28.7344 26.1211 28.2363C26.1211 27.8145 25.8516 27.5977 25.1191 27.4395L24.1582 27.2285C22.9746 26.9648 22.377 26.3555 22.377 25.4004ZM29.7949 25.4004C29.7949 24.2051 30.7793 23.4434 32.2969 23.4434C33.7676 23.4434 34.6992 24.123 34.7871 25.2773H33.498C33.4043 24.7969 32.9414 24.498 32.2793 24.498C31.5938 24.498 31.1426 24.8145 31.1426 25.2949C31.1426 25.7051 31.4355 25.9395 32.1328 26.0918L33.0879 26.2969C34.3711 26.5723 34.9395 27.1172 34.9395 28.0781C34.9395 29.3262 33.9141 30.1289 32.3027 30.1289C30.7324 30.1289 29.7363 29.4316 29.6426 28.2715H30.9961C31.1133 28.7754 31.5996 29.0625 32.3262 29.0625C33.0703 29.0625 33.5391 28.7344 33.5391 28.2363C33.5391 27.8145 33.2695 27.5977 32.5371 27.4395L31.5762 27.2285C30.3926 26.9648 29.7949 26.3555 29.7949 25.4004ZM41.3613 25.2715L38.25 27.5684C38.502 28.5059 39 28.998 39.7148 28.998C40.793 28.998 41.373 27.873 41.373 25.7695C41.373 25.5938 41.3672 25.4297 41.3613 25.2715ZM38.0625 26.2734L41.1797 23.9883C40.9277 23.0449 40.4297 22.5469 39.7148 22.5469C38.6309 22.5469 38.0508 23.6719 38.0508 25.7695C38.0508 25.9453 38.0566 26.1152 38.0625 26.2734ZM39.7148 21.3633C41.666 21.3633 42.7617 22.9453 42.7617 25.7695C42.7617 28.5996 41.666 30.1816 39.7148 30.1816C37.7578 30.1816 36.6621 28.5996 36.6621 25.7695C36.6621 22.9453 37.7578 21.3633 39.7148 21.3633ZM47.1445 25.0547C48.0176 25.0547 48.6035 24.5332 48.6035 23.7598C48.6035 22.9922 48.0176 22.4707 47.1445 22.4707C46.2656 22.4707 45.6855 22.9922 45.6855 23.7598C45.6855 24.5332 46.2656 25.0547 47.1445 25.0547ZM47.1445 29.0625C48.1758 29.0625 48.8848 28.4648 48.8848 27.6035C48.8848 26.7363 48.1758 26.1445 47.1445 26.1445C46.1133 26.1445 45.4043 26.7363 45.4043 27.6035C45.4043 28.4648 46.1133 29.0625 47.1445 29.0625ZM47.1445 30.1816C45.2461 30.1816 43.9512 29.1855 43.9512 27.7266C43.9512 26.6836 44.6484 25.8398 45.7383 25.582V25.4824C44.8535 25.2598 44.291 24.5391 44.291 23.6367C44.291 22.3066 45.4746 21.3633 47.1445 21.3633C48.8145 21.3633 49.998 22.3066 49.998 23.6367C49.998 24.5391 49.4414 25.2539 48.5449 25.4824V25.582C49.623 25.8164 50.3379 26.6777 50.3379 27.7266C50.3379 29.1855 49.043 30.1816 47.1445 30.1816Z" fill="black"/>
<rect x="16" y="52" width="288" height="1" fill="#70737C" fill-opacity="0.16"/>
<path d="M25.0625 74.2031V75.4844H21.6875V78.9062H20.3125V75.4844H16.9375V74.2031H20.3125V70.7812H21.6875V74.2031H25.0625ZM30.8438 80.7188C28.5469 80.7188 26.8125 79.2656 26.8125 77.375C26.8125 76.0703 27.6562 74.9609 29.1875 74.5V74.4531C28.0859 74.0547 27.4844 73.2031 27.4844 72.0625C27.4844 70.2969 28.9219 68.9688 30.8438 68.9688C32.7656 68.9688 34.2031 70.2969 34.2031 72.0625C34.2031 73.2031 33.6016 74.0547 32.5 74.4531V74.5C34.0391 74.9609 34.875 76.0703 34.875 77.375C34.875 79.2656 33.1406 80.7188 30.8438 80.7188ZM30.8438 79.4375C32.4062 79.4375 33.5 78.5625 33.5 77.3125C33.5 76.0625 32.4062 75.1875 30.8438 75.1875C29.2812 75.1875 28.1875 76.0625 28.1875 77.3125C28.1875 78.5625 29.2812 79.4375 30.8438 79.4375ZM30.8438 73.9375C32.0156 73.9375 32.8438 73.1719 32.8438 72.0938C32.8438 71.0156 32.0156 70.25 30.8438 70.25C29.6719 70.25 28.8438 71.0156 28.8438 72.0938C28.8438 73.1719 29.6719 73.9375 30.8438 73.9375ZM36.6875 79.2188C40.6875 76.4844 42.5156 74.3438 42.5156 72.4375C42.5156 71.0469 41.5781 70.25 40.2344 70.25C39.1875 70.25 38.4219 70.7344 38 72.125L36.6875 71.75C37.2812 69.7969 38.6094 68.9688 40.2344 68.9688C42.2969 68.9688 43.8906 70.2969 43.8906 72.4375C43.8906 74.6406 42.0312 76.8047 38.8906 79.1562V79.2188H44.0625V80.5H36.6875V79.2188ZM51 74.2031V75.4844H46V74.2031H51ZM52.5 71.1875C53.3906 70.6562 54.2812 70 55.2188 69.1875H56.5625V80.5H55.2188V70.9219H55.1562C54.2891 71.6094 53.3828 72.2109 52.5 72.6719V71.1875ZM63.4375 80.7188C60.8594 80.7188 59.25 78.4531 59.25 74.8438C59.25 71.2344 60.8594 68.9688 63.4375 68.9688C66.0156 68.9688 67.625 71.2344 67.625 74.8438C67.625 78.4531 66.0156 80.7188 63.4375 80.7188ZM63.4375 79.4375C65.1562 79.4375 66.25 77.6562 66.25 74.8438C66.25 72.0312 65.1562 70.25 63.4375 70.25C61.7188 70.25 60.625 72.0312 60.625 74.8438C60.625 77.6562 61.7188 79.4375 63.4375 79.4375ZM74.375 74.2031V75.4844H69.375V74.2031H74.375ZM75.875 71.1875C76.7656 70.6562 77.6562 70 78.5938 69.1875H79.9375V80.5H78.5938V70.9219H78.5312C77.6641 71.6094 76.7578 72.2109 75.875 72.6719V71.1875ZM86.6875 80.7188C84.8125 80.7188 83.4375 79.7656 82.625 78.0781L83.8594 77.5156C84.4844 78.8125 85.4219 79.4375 86.6875 79.4375C88.2031 79.4375 89.3125 78.5469 89.3125 77.3125C89.3125 76 88.0625 75.2031 86 75.2031H85.625V73.9219H86C87.7969 73.9219 88.8594 73.25 88.8594 72.0938C88.8594 71.0156 87.9375 70.25 86.6562 70.25C85.5625 70.25 84.7031 70.8125 84.1875 71.875L82.9531 71.3125C83.7031 69.7656 85.0625 68.9688 86.6562 68.9688C88.7031 68.9688 90.2344 70.2969 90.2344 72.0625C90.2344 73.2969 89.4844 74.1406 88.0938 74.5312V74.5781C89.7422 75.0234 90.6875 76.0156 90.6875 77.4062C90.6875 79.2969 88.9688 80.7188 86.6875 80.7188ZM92.5 79.2188C96.5 76.4844 98.3281 74.3438 98.3281 72.4375C98.3281 71.0469 97.3906 70.25 96.0469 70.25C95 70.25 94.2344 70.7344 93.8125 72.125L92.5 71.75C93.0938 69.7969 94.4219 68.9688 96.0469 68.9688C98.1094 68.9688 99.7031 70.2969 99.7031 72.4375C99.7031 74.6406 97.8438 76.8047 94.7031 79.1562V79.2188H99.875V80.5H92.5V79.2188ZM101.625 77.9531V76.6719L106.016 69.1875H107.547L103.234 76.5625V76.6719H107.203V73.125H108.547V76.6719H110.312V77.9531H108.547V80.5H107.203V77.9531H101.625ZM116.812 74.2031V75.4844H111.812V74.2031H116.812ZM118.953 75.7031L119.547 69.1719H125.875V70.4531H120.812L120.438 74.3594H120.5C121.109 73.6094 122.016 73.1562 123.062 73.1562C125.031 73.1562 126.625 74.7656 126.625 76.9375C126.625 79.1562 124.969 80.7188 122.625 80.7188C120.828 80.7188 119.391 79.7812 118.562 78.0781L119.797 77.5156C120.422 78.8125 121.375 79.4375 122.625 79.4375C124.203 79.4375 125.25 78.4375 125.25 76.9375C125.25 75.4375 124.203 74.4375 122.641 74.4375C121.562 74.4375 120.727 74.9141 120.312 75.7031H118.953ZM128.375 70.4688V69.1875H135.812V70.4688C133.406 73.4062 132.094 76.7031 131.781 80.5H130.5C130.781 76.7891 131.969 73.5 134.141 70.5312V70.4688H128.375ZM141.484 80.7188C138.797 80.7188 137.312 78.5469 137.312 75.1094C137.312 71.1562 139.25 68.9688 141.828 68.9688C143.219 68.9688 144.438 69.6094 145.188 70.7031L144.031 71.4219C143.516 70.625 142.672 70.25 141.828 70.25C140.141 70.25 138.789 71.7422 138.703 74.7656H138.766C139.398 73.7656 140.484 73.1562 141.766 73.1562C143.797 73.1562 145.375 74.7188 145.375 76.9375C145.375 79.1719 143.766 80.7188 141.484 80.7188ZM141.484 79.4375C142.953 79.4375 144 78.4062 144 76.9375C144 75.4688 142.953 74.4375 141.484 74.4375C140.016 74.4375 138.969 75.4688 138.969 76.9375C138.969 78.4062 140.016 79.4375 141.484 79.4375ZM151.031 80.7188C148.734 80.7188 147 79.2656 147 77.375C147 76.0703 147.844 74.9609 149.375 74.5V74.4531C148.273 74.0547 147.672 73.2031 147.672 72.0625C147.672 70.2969 149.109 68.9688 151.031 68.9688C152.953 68.9688 154.391 70.2969 154.391 72.0625C154.391 73.2031 153.789 74.0547 152.688 74.4531V74.5C154.227 74.9609 155.062 76.0703 155.062 77.375C155.062 79.2656 153.328 80.7188 151.031 80.7188ZM151.031 79.4375C152.594 79.4375 153.688 78.5625 153.688 77.3125C153.688 76.0625 152.594 75.1875 151.031 75.1875C149.469 75.1875 148.375 76.0625 148.375 77.3125C148.375 78.5625 149.469 79.4375 151.031 79.4375ZM151.031 73.9375C152.203 73.9375 153.031 73.1719 153.031 72.0938C153.031 71.0156 152.203 70.25 151.031 70.25C149.859 70.25 149.031 71.0156 149.031 72.0938C149.031 73.1719 149.859 73.9375 151.031 73.9375Z" fill="#37383C" fill-opacity="0.28"/>
<path d="M173.062 74.2031V75.4844H169.688V78.9062H168.312V75.4844H164.938V74.2031H168.312V70.7812H169.688V74.2031H173.062ZM178.844 80.7188C176.547 80.7188 174.812 79.2656 174.812 77.375C174.812 76.0703 175.656 74.9609 177.188 74.5V74.4531C176.086 74.0547 175.484 73.2031 175.484 72.0625C175.484 70.2969 176.922 68.9688 178.844 68.9688C180.766 68.9688 182.203 70.2969 182.203 72.0625C182.203 73.2031 181.602 74.0547 180.5 74.4531V74.5C182.039 74.9609 182.875 76.0703 182.875 77.375C182.875 79.2656 181.141 80.7188 178.844 80.7188ZM178.844 79.4375C180.406 79.4375 181.5 78.5625 181.5 77.3125C181.5 76.0625 180.406 75.1875 178.844 75.1875C177.281 75.1875 176.188 76.0625 176.188 77.3125C176.188 78.5625 177.281 79.4375 178.844 79.4375ZM178.844 73.9375C180.016 73.9375 180.844 73.1719 180.844 72.0938C180.844 71.0156 180.016 70.25 178.844 70.25C177.672 70.25 176.844 71.0156 176.844 72.0938C176.844 73.1719 177.672 73.9375 178.844 73.9375ZM184.688 79.2188C188.688 76.4844 190.516 74.3438 190.516 72.4375C190.516 71.0469 189.578 70.25 188.234 70.25C187.188 70.25 186.422 70.7344 186 72.125L184.688 71.75C185.281 69.7969 186.609 68.9688 188.234 68.9688C190.297 68.9688 191.891 70.2969 191.891 72.4375C191.891 74.6406 190.031 76.8047 186.891 79.1562V79.2188H192.062V80.5H184.688V79.2188ZM199 74.2031V75.4844H194V74.2031H199ZM200.5 71.1875C201.391 70.6562 202.281 70 203.219 69.1875H204.562V80.5H203.219V70.9219H203.156C202.289 71.6094 201.383 72.2109 200.5 72.6719V71.1875ZM211.438 80.7188C208.859 80.7188 207.25 78.4531 207.25 74.8438C207.25 71.2344 208.859 68.9688 211.438 68.9688C214.016 68.9688 215.625 71.2344 215.625 74.8438C215.625 78.4531 214.016 80.7188 211.438 80.7188ZM211.438 79.4375C213.156 79.4375 214.25 77.6562 214.25 74.8438C214.25 72.0312 213.156 70.25 211.438 70.25C209.719 70.25 208.625 72.0312 208.625 74.8438C208.625 77.6562 209.719 79.4375 211.438 79.4375ZM222.375 74.2031V75.4844H217.375V74.2031H222.375ZM223.875 71.1875C224.766 70.6562 225.656 70 226.594 69.1875H227.938V80.5H226.594V70.9219H226.531C225.664 71.6094 224.758 72.2109 223.875 72.6719V71.1875ZM240.5 79.2188C244.5 76.4844 246.328 74.3438 246.328 72.4375C246.328 71.0469 245.391 70.25 244.047 70.25C243 70.25 242.234 70.7344 241.812 72.125L240.5 71.75C241.094 69.7969 242.422 68.9688 244.047 68.9688C246.109 68.9688 247.703 70.2969 247.703 72.4375C247.703 74.6406 245.844 76.8047 242.703 79.1562V79.2188H247.875V80.5H240.5V79.2188ZM249.625 77.9531V76.6719L254.016 69.1875H255.547L251.234 76.5625V76.6719H255.203V73.125H256.547V76.6719H258.312V77.9531H256.547V80.5H255.203V77.9531H249.625ZM264.812 74.2031V75.4844H259.812V74.2031H264.812ZM266.953 75.7031L267.547 69.1719H273.875V70.4531H268.812L268.438 74.3594H268.5C269.109 73.6094 270.016 73.1562 271.062 73.1562C273.031 73.1562 274.625 74.7656 274.625 76.9375C274.625 79.1562 272.969 80.7188 270.625 80.7188C268.828 80.7188 267.391 79.7812 266.562 78.0781L267.797 77.5156C268.422 78.8125 269.375 79.4375 270.625 79.4375C272.203 79.4375 273.25 78.4375 273.25 76.9375C273.25 75.4375 272.203 74.4375 270.641 74.4375C269.562 74.4375 268.727 74.9141 268.312 75.7031H266.953ZM276.375 70.4688V69.1875H283.812V70.4688C281.406 73.4062 280.094 76.7031 279.781 80.5H278.5C278.781 76.7891 279.969 73.5 282.141 70.5312V70.4688H276.375ZM289.484 80.7188C286.797 80.7188 285.312 78.5469 285.312 75.1094C285.312 71.1562 287.25 68.9688 289.828 68.9688C291.219 68.9688 292.438 69.6094 293.188 70.7031L292.031 71.4219C291.516 70.625 290.672 70.25 289.828 70.25C288.141 70.25 286.789 71.7422 286.703 74.7656H286.766C287.398 73.7656 288.484 73.1562 289.766 73.1562C291.797 73.1562 293.375 74.7188 293.375 76.9375C293.375 79.1719 291.766 80.7188 289.484 80.7188ZM289.484 79.4375C290.953 79.4375 292 78.4062 292 76.9375C292 75.4688 290.953 74.4375 289.484 74.4375C288.016 74.4375 286.969 75.4688 286.969 76.9375C286.969 78.4062 288.016 79.4375 289.484 79.4375ZM299.031 80.7188C296.734 80.7188 295 79.2656 295 77.375C295 76.0703 295.844 74.9609 297.375 74.5V74.4531C296.273 74.0547 295.672 73.2031 295.672 72.0625C295.672 70.2969 297.109 68.9688 299.031 68.9688C300.953 68.9688 302.391 70.2969 302.391 72.0625C302.391 73.2031 301.789 74.0547 300.688 74.4531V74.5C302.227 74.9609 303.062 76.0703 303.062 77.375C303.062 79.2656 301.328 80.7188 299.031 80.7188ZM299.031 79.4375C300.594 79.4375 301.688 78.5625 301.688 77.3125C301.688 76.0625 300.594 75.1875 299.031 75.1875C297.469 75.1875 296.375 76.0625 296.375 77.3125C296.375 78.5625 297.469 79.4375 299.031 79.4375ZM299.031 73.9375C300.203 73.9375 301.031 73.1719 301.031 72.0938C301.031 71.0156 300.203 70.25 299.031 70.25C297.859 70.25 297.031 71.0156 297.031 72.0938C297.031 73.1719 297.859 73.9375 299.031 73.9375Z" fill="black"/>
<path d="M234.688 80.7188C232.891 80.7188 231.453 79.7812 230.625 78.0781L231.859 77.5156C232.484 78.8125 233.438 79.4375 234.688 79.4375C236.234 79.4375 237.312 78.4844 237.312 77.125C237.312 75.6875 236.109 74.8125 234.172 74.8125H233.516V73.6562L236.422 70.5156V70.4688H231.094V69.1875H238.25V70.4688L235.141 73.6562V73.7188C237.289 74.0234 238.688 75.3594 238.688 77.1875C238.688 79.2031 236.984 80.7188 234.688 80.7188Z" fill="#0066FF"/>
</svg>
