<svg width="320" height="121" viewBox="0 0 320 121" fill="none" xmlns="http://www.w3.org/2000/svg">
<rect x="0.5" y="0.5" width="319" height="120" rx="7.5" stroke="#70737C" stroke-opacity="0.16"/>
<rect x="16" y="16" width="40" height="20" rx="4" fill="#70737C" fill-opacity="0.08"/>
<path d="M22.377 25.4004C22.377 24.2051 23.3613 23.4434 24.8789 23.4434C26.3496 23.4434 27.2812 24.123 27.3691 25.2773H26.0801C25.9863 24.7969 25.5234 24.498 24.8613 24.498C24.1758 24.498 23.7246 24.8145 23.7246 25.2949C23.7246 25.7051 24.0176 25.9395 24.7148 26.0918L25.6699 26.2969C26.9531 26.5723 27.5215 27.1172 27.5215 28.0781C27.5215 29.3262 26.4961 30.1289 24.8848 30.1289C23.3145 30.1289 22.3184 29.4316 22.2246 28.2715H23.5781C23.6953 28.7754 24.1816 29.0625 24.9082 29.0625C25.6523 29.0625 26.1211 28.7344 26.1211 28.2363C26.1211 27.8145 25.8516 27.5977 25.1191 27.4395L24.1582 27.2285C22.9746 26.9648 22.377 26.3555 22.377 25.4004ZM29.7949 25.4004C29.7949 24.2051 30.7793 23.4434 32.2969 23.4434C33.7676 23.4434 34.6992 24.123 34.7871 25.2773H33.498C33.4043 24.7969 32.9414 24.498 32.2793 24.498C31.5938 24.498 31.1426 24.8145 31.1426 25.2949C31.1426 25.7051 31.4355 25.9395 32.1328 26.0918L33.0879 26.2969C34.3711 26.5723 34.9395 27.1172 34.9395 28.0781C34.9395 29.3262 33.9141 30.1289 32.3027 30.1289C30.7324 30.1289 29.7363 29.4316 29.6426 28.2715H30.9961C31.1133 28.7754 31.5996 29.0625 32.3262 29.0625C33.0703 29.0625 33.5391 28.7344 33.5391 28.2363C33.5391 27.8145 33.2695 27.5977 32.5371 27.4395L31.5762 27.2285C30.3926 26.9648 29.7949 26.3555 29.7949 25.4004ZM40.7051 28.8105H42.9551V30H36.9551V28.8105H39.3164V22.998H39.2168L36.9434 24.4922V23.1152L39.3223 21.5449H40.7051V28.8105ZM44.2266 24.0234C44.2266 22.459 45.4043 21.375 47.0859 21.375C48.7559 21.375 49.8867 22.3535 49.8867 23.7949C49.8867 24.6973 49.4355 25.4531 48.041 26.8652L46.2539 28.6875V28.793H50.0215V30H44.3027V29.0215L47.0977 26.1094C48.2168 24.9316 48.5039 24.4863 48.5039 23.877C48.5039 23.0684 47.9238 22.541 47.0449 22.541C46.1484 22.541 45.5566 23.1328 45.5566 24.0176V24.0586H44.2266V24.0234Z" fill="black"/>
<rect x="16" y="52" width="288" height="1" fill="#70737C" fill-opacity="0.16"/>
<path d="M23.3281 81.4219C19.6953 81.4297 16.7266 78.4688 16.7344 74.8281C16.7266 71.2031 19.6953 68.2344 23.3281 68.2344C26.9609 68.2344 29.9297 71.2031 29.9375 74.8281C29.9297 78.4688 26.9609 81.4297 23.3281 81.4219ZM23.3281 80.2344C26.2969 80.2344 28.7266 77.7969 28.7344 74.8281C28.7266 71.8672 26.2969 69.4297 23.3281 69.4219C20.3594 69.4297 17.9297 71.8672 17.9375 74.8281C17.9297 77.7969 20.3594 80.2344 23.3281 80.2344ZM21.7188 72.9531C22.1875 72.6719 22.6719 72.3125 23.1562 71.875H24.2188V77.8125H23.1562V73.125H23.1406C22.6719 73.4922 22.1797 73.8438 21.7188 74.0781V72.9531ZM41.2 81.4219C37.5672 81.4297 34.5984 78.4688 34.6063 74.8281C34.5984 71.2031 37.5672 68.2344 41.2 68.2344C44.8328 68.2344 47.8016 71.2031 47.8094 74.8281C47.8016 78.4688 44.8328 81.4297 41.2 81.4219ZM39.5906 74.0781C40.0516 73.8438 40.5438 73.4922 41.0125 73.125H41.0281V77.8125H42.0906V71.875H41.0281C40.5438 72.3125 40.0594 72.6719 39.5906 72.9531V74.0781ZM55.4781 80.7656C53.8688 80.7656 53.1422 80.0312 53.15 78.4219V71.2344C53.1422 69.6328 53.8688 68.8984 55.4781 68.8906H62.6813C64.275 68.8984 65.0016 69.6328 65.0094 71.2344V78.4219C65.0016 80.0312 64.275 80.7656 62.6813 80.7656H55.4781ZM62.6813 79.5625C63.6031 79.5703 63.8063 79.3672 63.8063 78.4219V71.2344C63.8063 70.2969 63.6031 70.1016 62.6813 70.0938H55.4781C54.5406 70.1016 54.3375 70.2969 54.3375 71.2344V78.4219C54.3375 79.3672 54.5406 79.5703 55.4781 79.5625H62.6813ZM60.7438 77.8125L60.2594 76.4062H57.9L57.4 77.8125H56.1969L58.4781 71.875H59.6656L61.9469 77.8125H60.7438ZM58.2594 75.375H59.9L59.0875 73.0781H59.0563L58.2594 75.375ZM73.35 80.7656C71.7406 80.7656 71.0141 80.0312 71.0219 78.4219V71.2344C71.0141 69.6328 71.7406 68.8984 73.35 68.8906H80.5531C82.1469 68.8984 82.8734 69.6328 82.8812 71.2344V78.4219C82.8734 80.0312 82.1469 80.7656 80.5531 80.7656H73.35ZM78.6156 77.8125H79.8187L77.5375 71.875H76.35L74.0687 77.8125H75.2719L75.7719 76.4062H78.1312L78.6156 77.8125ZM76.1312 75.375L76.9281 73.0781H76.9594L77.7562 75.375H76.1312ZM26 106.984C21.5156 106.984 17.8516 103.32 17.8594 98.8281C17.8516 94.3516 21.5156 90.6797 26 90.6719C30.4688 90.6797 34.1328 94.3516 34.1406 98.8281C34.1328 103.32 30.4688 106.984 26 106.984ZM26 105.672C29.75 105.68 32.8516 102.602 32.8594 98.8281C32.8516 95.0703 29.75 91.9844 26 91.9844C22.2344 91.9844 19.1328 95.0859 19.1406 98.8281C19.1328 102.586 22.2344 105.68 26 105.672ZM49.2 106.984C44.7156 106.984 41.0516 103.32 41.0594 98.8281C41.0516 94.3516 44.7156 90.6797 49.2 90.6719C53.6688 90.6797 57.3328 94.3516 57.3406 98.8281C57.3328 103.32 53.6688 106.984 49.2 106.984ZM67.9 106.141C65.9469 106.148 65.0797 105.266 65.0875 103.328V94.3281C65.0797 92.3984 65.9469 91.5156 67.9 91.5156H76.9C78.8297 91.5156 79.6969 92.3984 79.6969 94.3281V103.328C79.6969 105.266 78.8297 106.148 76.9 106.141H67.9ZM76.9 104.844C78.15 104.852 78.4156 104.602 78.4156 103.328V94.3281C78.4156 93.0703 78.15 92.8203 76.9 92.8125H67.9C66.6344 92.8203 66.3688 93.0703 66.3688 94.3281V103.328C66.3688 104.602 66.6344 104.852 67.9 104.844H76.9ZM91.1 106.141C89.1469 106.148 88.2797 105.266 88.2875 103.328V94.3281C88.2797 92.3984 89.1469 91.5156 91.1 91.5156H100.1C102.03 91.5156 102.897 92.3984 102.897 94.3281V103.328C102.897 105.266 102.03 106.148 100.1 106.141H91.1Z" fill="#2A2A2A" fill-opacity="0.28"/>
<path d="M243.6 106.984C239.116 106.984 235.452 103.32 235.459 98.8281C235.452 94.3516 239.116 90.6797 243.6 90.6719C248.069 90.6797 251.733 94.3516 251.741 98.8281C251.733 103.32 248.069 106.984 243.6 106.984Z" fill="#0066FF"/>
<path d="M220.4 106.984C215.916 106.984 212.251 103.32 212.259 98.8281C212.251 94.3516 215.916 90.6797 220.4 90.6719C224.869 90.6797 228.533 94.3516 228.541 98.8281C228.533 103.32 224.869 106.984 220.4 106.984ZM220.4 105.672C224.15 105.68 227.251 102.602 227.259 98.8281C227.251 95.0703 224.15 91.9844 220.4 91.9844C216.634 91.9844 213.533 95.0859 213.541 98.8281C213.533 102.586 216.634 105.68 220.4 105.672Z" fill="#0066FF"/>
<path d="M197.2 106.984C192.716 106.984 189.052 103.32 189.059 98.8281C189.052 94.3516 192.716 90.6797 197.2 90.6719C201.669 90.6797 205.333 94.3516 205.341 98.8281C205.333 103.32 201.669 106.984 197.2 106.984Z" fill="black"/>
<path d="M174 106.984C169.516 106.984 165.852 103.32 165.859 98.8281C165.852 94.3516 169.516 90.6797 174 90.6719C178.469 90.6797 182.133 94.3516 182.141 98.8281C182.133 103.32 178.469 106.984 174 106.984ZM174 105.672C177.75 105.68 180.852 102.602 180.859 98.8281C180.852 95.0703 177.75 91.9844 174 91.9844C170.234 91.9844 167.133 95.0859 167.141 98.8281C167.133 102.586 170.234 105.68 174 105.672Z" fill="black"/>
<path d="M224.944 81.4219C221.311 81.4297 218.342 78.4688 218.35 74.8281C218.342 71.2031 221.311 68.2344 224.944 68.2344C228.577 68.2344 231.545 71.2031 231.553 74.8281C231.545 78.4688 228.577 81.4297 224.944 81.4219ZM226.616 77.8125H227.819L225.538 71.875H224.35L222.069 77.8125H223.272L223.772 76.4062H226.131L226.616 77.8125ZM224.131 75.375L224.928 73.0781H224.959L225.756 75.375H224.131Z" fill="#0066FF"/>
<path d="M207.072 81.4219C203.439 81.4297 200.47 78.4688 200.478 74.8281C200.47 71.2031 203.439 68.2344 207.072 68.2344C210.705 68.2344 213.673 71.2031 213.681 74.8281C213.673 78.4688 210.705 81.4297 207.072 81.4219ZM207.072 80.2344C210.041 80.2344 212.47 77.7969 212.478 74.8281C212.47 71.8672 210.041 69.4297 207.072 69.4219C204.103 69.4297 201.673 71.8672 201.681 74.8281C201.673 77.7969 204.103 80.2344 207.072 80.2344ZM208.744 77.8125L208.259 76.4062H205.9L205.4 77.8125H204.197L206.478 71.875H207.666L209.947 77.8125H208.744ZM206.259 75.375H207.9L207.087 73.0781H207.056L206.259 75.375Z" fill="#0066FF"/>
<path d="M189.2 81.4219C185.567 81.4297 182.598 78.4688 182.606 74.8281C182.598 71.2031 185.567 68.2344 189.2 68.2344C192.833 68.2344 195.802 71.2031 195.809 74.8281C195.802 78.4688 192.833 81.4297 189.2 81.4219ZM187.591 74.0781C188.052 73.8438 188.544 73.4922 189.012 73.125H189.028V77.8125H190.091V71.875H189.028C188.544 72.3125 188.059 72.6719 187.591 72.9531V74.0781Z" fill="black"/>
<path d="M171.328 81.4219C167.695 81.4297 164.727 78.4688 164.734 74.8281C164.727 71.2031 167.695 68.2344 171.328 68.2344C174.961 68.2344 177.93 71.2031 177.938 74.8281C177.93 78.4688 174.961 81.4297 171.328 81.4219ZM171.328 80.2344C174.297 80.2344 176.727 77.7969 176.734 74.8281C176.727 71.8672 174.297 69.4297 171.328 69.4219C168.359 69.4297 165.93 71.8672 165.938 74.8281C165.93 77.7969 168.359 80.2344 171.328 80.2344ZM169.719 72.9531C170.188 72.6719 170.672 72.3125 171.156 71.875H172.219V77.8125H171.156V73.125H171.141C170.672 73.4922 170.18 73.8438 169.719 74.0781V72.9531Z" fill="black"/>
</svg>
