<svg width="1012" height="141" viewBox="0 0 1012 141" fill="none" xmlns="http://www.w3.org/2000/svg">
<path d="M167.875 42.625V60.875H176.188V65H167.875V84.1875H162.938V42.625H167.875ZM157.688 49.375V53.375H124.625V49.375H138.688V42.5625H143.625V49.375H157.688ZM141.125 56.5C149.031 56.5 154.5 60.5938 154.5 66.8125C154.5 73.0312 149.031 77.125 141.125 77.125C133.125 77.125 127.719 73.0312 127.75 66.8125C127.719 60.5938 133.125 56.5 141.125 56.5ZM141.125 60.3125C135.938 60.3438 132.375 62.9062 132.375 66.8125C132.375 70.6875 135.938 73.25 141.125 73.25C146.281 73.25 149.812 70.6875 149.812 66.8125C149.812 62.9062 146.25 60.3438 141.125 60.3125ZM170.438 92.75V96.8125H133.062V80.875H138V92.75H170.438ZM223.938 44.875V48.4375C223.906 52.2188 223.906 57 222.688 63.25H230.562V67.3125H179.75V63.25H217.812C219.031 57.0938 219.094 52.5625 219.125 48.875H186.25V44.875H223.938ZM224.125 72.875V86.8125H190.75V93.375H225.5V97.375H185.875V83.0625H219.25V76.8125H185.75V72.875H224.125Z" fill="white"/>
<path d="M240.812 86.375C238.562 86.375 236.938 84.75 236.938 82.5C236.938 80.25 238.562 78.625 240.812 78.625C243.062 78.625 244.688 80.25 244.688 82.5C244.688 84.75 243.062 86.375 240.812 86.375ZM240.812 62.125C238.562 62.125 236.938 60.5 236.938 58.25C236.938 56 238.562 54.375 240.812 54.375C243.062 54.375 244.688 56 244.688 58.25C244.688 60.5 243.062 62.125 240.812 62.125Z" fill="#3385FF"/>
<path d="M317.844 93V47.75H323.344V93H317.844ZM385.469 60.75V93H380.219V88.3125H380.031C378.406 91.75 374.938 93.875 370.344 93.875C363.156 93.875 359.219 88.8125 359.219 80.5V60.75H364.469V79.75C364.469 85.6875 366.969 88.875 371.469 88.875C375.969 88.875 380.219 85.6875 380.219 78.75V60.75H385.469ZM404.844 93.875C399.594 93.875 395.406 91.8125 392.344 87.75L396.594 84.75C398.719 87.625 401.219 88.875 404.844 88.875C409.344 88.875 411.969 87 411.969 83.8125C411.969 81.3125 410.281 80.0625 405.094 78.75L403.344 78.3125C396.656 76.625 393.469 73.75 393.469 69.375C393.469 63.9375 398.344 59.875 404.844 59.875C409.656 59.875 414.094 62.125 416.656 65.9375L412.281 68.8125C410.469 66.25 407.906 64.875 404.844 64.875C401.281 64.875 398.844 66.6875 398.844 69.375C398.844 71.375 400.156 72.3125 404.594 73.4375L406.344 73.875C413.969 75.75 417.344 78.8125 417.344 83.8125C417.344 89.8125 412.281 93.875 404.844 93.875ZM421.219 65.125V60.75H426.719V52.75H431.969V60.75H439.969V65.125H431.969V83.625C431.969 87.125 433.469 88.75 436.719 88.75C437.719 88.75 438.844 88.5625 439.969 88.25V93.1875C438.969 93.5625 437.594 93.875 435.969 93.875C430.281 93.875 426.719 90 426.719 83.8125V65.125H421.219ZM446.844 93V60.75H452.094V65.75H452.344C453.938 62.25 457.125 59.875 460.781 59.875C461.969 59.875 463.094 60.125 464.156 60.5625V65.75C462.969 65.375 461.781 65.1875 460.656 65.1875C455.281 65.1875 452.094 69.5 452.094 76.875V93H446.844ZM483.531 88.875C489.656 88.875 494.031 83.9375 494.031 76.875C494.031 69.8125 489.656 64.875 483.531 64.875C477.344 64.875 473.031 69.875 473.031 76.875C473.031 83.875 477.344 88.875 483.531 88.875ZM499.031 93H493.781V87.9375H493.594C491.375 91.7812 487.781 93.875 483.031 93.875C474.094 93.875 467.656 86.5625 467.656 76.875C467.656 67.1875 474.094 59.875 483.031 59.875C487.781 59.875 491.375 61.9688 493.594 65.8125H493.781V60.75H499.031V93ZM505.406 65.125V60.75H510.906V52.75H516.156V60.75H524.156V65.125H516.156V83.625C516.156 87.125 517.656 88.75 520.906 88.75C521.906 88.75 523.031 88.5625 524.156 88.25V93.1875C523.156 93.5625 521.781 93.875 520.156 93.875C514.469 93.875 510.906 90 510.906 83.8125V65.125H505.406ZM531.031 93V60.75H536.281V93H531.031ZM533.656 54C531.656 54 530.156 52.5 530.156 50.5C530.156 48.5 531.656 47 533.656 47C535.656 47 537.156 48.5 537.156 50.5C537.156 52.5 535.656 54 533.656 54ZM559.719 93.875C550.281 93.875 543.156 86.5625 543.156 76.875C543.156 67.1875 550.281 59.875 559.719 59.875C569.156 59.875 576.281 67.1875 576.281 76.875C576.281 86.5625 569.156 93.875 559.719 93.875ZM559.719 88.875C566.281 88.875 570.906 83.9375 570.906 76.875C570.906 69.8125 566.281 64.875 559.719 64.875C553.156 64.875 548.531 69.8125 548.531 76.875C548.531 83.9375 553.156 88.875 559.719 88.875ZM583.156 93V60.75H588.406V65.4375H588.656C590.219 62 593.688 59.875 598.281 59.875C605.469 59.875 609.406 64.9375 609.406 73.25V93H604.156V74C604.156 68.0625 601.656 64.875 597.156 64.875C592.656 64.875 588.406 68.0625 588.406 75V93H583.156Z" fill="white"/>
<path d="M331.969 93V45.75H337.219V93H331.969ZM345.594 93V45.75H350.844V93H345.594Z" fill="#3385FF"/>
<path d="M714.625 67.8125V72.9375H701.125V86.625H695.625V72.9375H682.125V67.8125H695.625V54.125H701.125V67.8125H714.625ZM818.375 67.8125V72.9375H798.375V67.8125H818.375Z" fill="#3385FF"/>
<path d="M737.75 88.75C744 88.75 748.375 85.25 748.375 80.25C748.375 75.25 744 71.75 737.75 71.75C731.5 71.75 727.125 75.25 727.125 80.25C727.125 85.25 731.5 88.75 737.75 88.75ZM737.75 66.75C742.438 66.75 745.75 63.6875 745.75 59.375C745.75 55.0625 742.438 52 737.75 52C733.062 52 729.75 55.0625 729.75 59.375C729.75 63.6875 733.062 66.75 737.75 66.75ZM721.625 80.5C721.625 75.2812 725 70.8438 731.125 69V68.8125C726.719 67.2188 724.312 63.8125 724.312 59.25C724.312 52.1875 730.062 46.875 737.75 46.875C745.438 46.875 751.188 52.1875 751.188 59.25C751.188 63.8125 748.781 67.2188 744.375 68.8125V69C750.531 70.8438 753.875 75.2812 753.875 80.5C753.875 88.0625 746.938 93.875 737.75 93.875C728.562 93.875 721.625 88.0625 721.625 80.5ZM761.125 87.875C777.125 76.9375 784.438 68.375 784.438 60.75C784.438 55.1875 780.688 52 775.312 52C771.125 52 768.062 53.9375 766.375 59.5L761.125 58C763.5 50.1875 768.812 46.875 775.312 46.875C783.562 46.875 789.938 52.1875 789.938 60.75C789.938 69.5625 782.5 78.2188 769.938 87.625V87.875H790.625V93H761.125V87.875ZM825.875 55.75C829.438 53.625 833 51 836.75 47.75H842.125V93H836.75V54.6875H836.5C833.031 57.4375 829.406 59.8438 825.875 61.6875V55.75ZM869.625 93.875C859.312 93.875 852.875 84.8125 852.875 70.375C852.875 55.9375 859.312 46.875 869.625 46.875C879.938 46.875 886.375 55.9375 886.375 70.375C886.375 84.8125 879.938 93.875 869.625 93.875ZM869.625 88.75C876.5 88.75 880.875 81.625 880.875 70.375C880.875 59.125 876.5 52 869.625 52C862.75 52 858.375 59.125 858.375 70.375C858.375 81.625 862.75 88.75 869.625 88.75Z" fill="white"/>
</svg>
