<svg width="1012" height="176" viewBox="0 0 1012 176" fill="none" xmlns="http://www.w3.org/2000/svg">
<path d="M122.938 70.375V65.25H145.438V70.375H136.938V105.375H145.438V110.5H122.938V105.375H131.438V70.375H122.938ZM258.25 110.5V105.375H270.625V72.1875H270.375C266.906 74.9375 263.281 77.3438 259.75 79.1875V73.25C263.312 71.125 266.875 68.5 270.625 65.25H276V105.375H287V110.5H258.25Z" fill="#2288FF"/>
<path d="M168.812 117.25V58.5H173.812V117.25H168.812ZM198.438 110.5V78.25H203.688V110.5H198.438ZM201.062 71.5C199.062 71.5 197.562 70 197.562 68C197.562 66 199.062 64.5 201.062 64.5C203.062 64.5 204.562 66 204.562 68C204.562 70 203.062 71.5 201.062 71.5ZM228.312 117.25V58.5H233.312V117.25H228.312Z" fill="white"/>
<path d="M360.25 52.7188C362.477 51.3906 364.703 49.75 367.047 47.7188H370.406V76H367.047V52.0547H366.891C364.723 53.7734 362.457 55.2773 360.25 56.4297V52.7188ZM385.25 52.7188C387.477 51.3906 389.703 49.75 392.047 47.7188H395.406V76H392.047V52.0547H391.891C389.723 53.7734 387.457 55.2773 385.25 56.4297V52.7188ZM410.25 52.7188C412.477 51.3906 414.703 49.75 417.047 47.7188H420.406V76H417.047V52.0547H416.891C414.723 53.7734 412.457 55.2773 410.25 56.4297V52.7188ZM445.25 52.7188C447.477 51.3906 449.703 49.75 452.047 47.7188H455.406V76H452.047V52.0547H451.891C449.723 53.7734 447.457 55.2773 445.25 56.4297V52.7188ZM470.25 52.7188C472.477 51.3906 474.703 49.75 477.047 47.7188H480.406V76H477.047V52.0547H476.891C474.723 53.7734 472.457 55.2773 470.25 56.4297V52.7188ZM495.25 52.7188C497.477 51.3906 499.703 49.75 502.047 47.7188H505.406V76H502.047V52.0547H501.891C499.723 53.7734 497.457 55.2773 495.25 56.4297V52.7188ZM530.25 52.7188C532.477 51.3906 534.703 49.75 537.047 47.7188H540.406V76H537.047V52.0547H536.891C534.723 53.7734 532.457 55.2773 530.25 56.4297V52.7188ZM555.25 52.7188C557.477 51.3906 559.703 49.75 562.047 47.7188H565.406V76H562.047V52.0547H561.891C559.723 53.7734 557.457 55.2773 555.25 56.4297V52.7188ZM580.25 52.7188C582.477 51.3906 584.703 49.75 587.047 47.7188H590.406V76H587.047V52.0547H586.891C584.723 53.7734 582.457 55.2773 580.25 56.4297V52.7188Z" fill="#2288FF"/>
<path d="M436.148 71.9375L432.945 81.625H430.055L432.711 71.9375H436.148ZM521.148 71.9375L517.945 81.625H515.055L517.711 71.9375H521.148ZM366.5 128.391C360.055 128.391 356.031 122.727 356.031 113.703C356.031 104.68 360.055 99.0156 366.5 99.0156C372.945 99.0156 376.969 104.68 376.969 113.703C376.969 122.727 372.945 128.391 366.5 128.391ZM366.5 125.188C370.797 125.188 373.531 120.734 373.531 113.703C373.531 106.672 370.797 102.219 366.5 102.219C362.203 102.219 359.469 106.672 359.469 113.703C359.469 120.734 362.203 125.188 366.5 125.188ZM391.5 128.391C385.055 128.391 381.031 122.727 381.031 113.703C381.031 104.68 385.055 99.0156 391.5 99.0156C397.945 99.0156 401.969 104.68 401.969 113.703C401.969 122.727 397.945 128.391 391.5 128.391ZM391.5 125.188C395.797 125.188 398.531 120.734 398.531 113.703C398.531 106.672 395.797 102.219 391.5 102.219C387.203 102.219 384.469 106.672 384.469 113.703C384.469 120.734 387.203 125.188 391.5 125.188ZM416.5 128.391C410.055 128.391 406.031 122.727 406.031 113.703C406.031 104.68 410.055 99.0156 416.5 99.0156C422.945 99.0156 426.969 104.68 426.969 113.703C426.969 122.727 422.945 128.391 416.5 128.391ZM416.5 125.188C420.797 125.188 423.531 120.734 423.531 113.703C423.531 106.672 420.797 102.219 416.5 102.219C412.203 102.219 409.469 106.672 409.469 113.703C409.469 120.734 412.203 125.188 416.5 125.188ZM436.148 123.938L432.945 133.625H430.055L432.711 123.938H436.148ZM451.5 128.391C445.055 128.391 441.031 122.727 441.031 113.703C441.031 104.68 445.055 99.0156 451.5 99.0156C457.945 99.0156 461.969 104.68 461.969 113.703C461.969 122.727 457.945 128.391 451.5 128.391ZM451.5 125.188C455.797 125.188 458.531 120.734 458.531 113.703C458.531 106.672 455.797 102.219 451.5 102.219C447.203 102.219 444.469 106.672 444.469 113.703C444.469 120.734 447.203 125.188 451.5 125.188ZM476.5 128.391C470.055 128.391 466.031 122.727 466.031 113.703C466.031 104.68 470.055 99.0156 476.5 99.0156C482.945 99.0156 486.969 104.68 486.969 113.703C486.969 122.727 482.945 128.391 476.5 128.391ZM476.5 125.188C480.797 125.188 483.531 120.734 483.531 113.703C483.531 106.672 480.797 102.219 476.5 102.219C472.203 102.219 469.469 106.672 469.469 113.703C469.469 120.734 472.203 125.188 476.5 125.188ZM501.5 128.391C495.055 128.391 491.031 122.727 491.031 113.703C491.031 104.68 495.055 99.0156 501.5 99.0156C507.945 99.0156 511.969 104.68 511.969 113.703C511.969 122.727 507.945 128.391 501.5 128.391ZM501.5 125.188C505.797 125.188 508.531 120.734 508.531 113.703C508.531 106.672 505.797 102.219 501.5 102.219C497.203 102.219 494.469 106.672 494.469 113.703C494.469 120.734 497.203 125.188 501.5 125.188ZM521.148 123.938L517.945 133.625H515.055L517.711 123.938H521.148ZM536.5 128.391C530.055 128.391 526.031 122.727 526.031 113.703C526.031 104.68 530.055 99.0156 536.5 99.0156C542.945 99.0156 546.969 104.68 546.969 113.703C546.969 122.727 542.945 128.391 536.5 128.391ZM536.5 125.188C540.797 125.188 543.531 120.734 543.531 113.703C543.531 106.672 540.797 102.219 536.5 102.219C532.203 102.219 529.469 106.672 529.469 113.703C529.469 120.734 532.203 125.188 536.5 125.188ZM561.5 128.391C555.055 128.391 551.031 122.727 551.031 113.703C551.031 104.68 555.055 99.0156 561.5 99.0156C567.945 99.0156 571.969 104.68 571.969 113.703C571.969 122.727 567.945 128.391 561.5 128.391ZM561.5 125.188C565.797 125.188 568.531 120.734 568.531 113.703C568.531 106.672 565.797 102.219 561.5 102.219C557.203 102.219 554.469 106.672 554.469 113.703C554.469 120.734 557.203 125.188 561.5 125.188ZM586.5 128.391C580.055 128.391 576.031 122.727 576.031 113.703C576.031 104.68 580.055 99.0156 586.5 99.0156C592.945 99.0156 596.969 104.68 596.969 113.703C596.969 122.727 592.945 128.391 586.5 128.391ZM586.5 125.188C590.797 125.188 593.531 120.734 593.531 113.703C593.531 106.672 590.797 102.219 586.5 102.219C582.203 102.219 579.469 106.672 579.469 113.703C579.469 120.734 582.203 125.188 586.5 125.188Z" fill="white"/>
<path d="M691 110.5C676.25 110.5 666.375 101.25 666.375 87.4375C666.375 74.25 676.25 64.375 689.438 64.375C702.625 64.375 712.5 74.25 712.5 87.4375C712.5 95.5938 708.656 101.938 702.188 105.375H714.938V110.5H691ZM689.438 105.25C699.688 105.25 706.875 97.875 706.875 87.4375C706.875 77 699.688 69.625 689.438 69.625C679.188 69.625 672 77 672 87.4375C672 97.875 679.188 105.25 689.438 105.25ZM733.5 111.375C725.438 111.375 720.062 105.625 720.062 97V78.25H725.438V97C725.438 102.688 728.562 106.25 733.5 106.25C738.438 106.25 741.562 102.688 741.562 97V78.25H746.938V97C746.938 105.625 741.562 111.375 733.5 111.375ZM770.625 111.375C760.938 111.375 753.812 104.062 753.812 94.375C753.812 84.6875 760.75 77.375 770 77.375C779.25 77.375 785.688 84.6875 785.688 94.375L785.625 96.1875H765.188V91.0625H779.938C779.562 86.1562 775.562 82.375 770 82.375C763.625 82.375 759.188 87.3125 759.188 94.375C759.188 101.562 764 106.375 770.75 106.375C775.188 106.375 778.375 104.281 780 100.812L784.625 102.812C782.156 108 777.25 111.375 770.625 111.375ZM806 111.375C797.938 111.375 792.562 105.625 792.562 97V78.25H797.938V97C797.938 102.688 801.062 106.25 806 106.25C810.938 106.25 814.062 102.688 814.062 97V78.25H819.438V97C819.438 105.625 814.062 111.375 806 111.375ZM843.125 111.375C833.438 111.375 826.312 104.062 826.312 94.375C826.312 84.6875 833.25 77.375 842.5 77.375C851.75 77.375 858.188 84.6875 858.188 94.375L858.125 96.1875H837.688V91.0625H852.438C852.062 86.1562 848.062 82.375 842.5 82.375C836.125 82.375 831.688 87.3125 831.688 94.375C831.688 101.562 836.5 106.375 843.25 106.375C847.688 106.375 850.875 104.281 852.5 100.812L857.125 102.812C854.656 108 849.75 111.375 843.125 111.375ZM871.375 84.75C878.75 85.875 883.438 82.5 883.438 77.25C883.438 72.8125 880 69.625 875.188 69.625C870.375 69.625 866.938 72.8125 866.938 77.75H861.312C861.312 69.6875 867.062 64.375 875.188 64.375C883.312 64.375 889.062 69.6875 889.062 77.25C889.062 84.0625 884.438 89 877 90.0625V97.25H871.375V84.75ZM874.188 111C871.938 111 870.312 109.375 870.312 107.125C870.312 104.875 871.938 103.25 874.188 103.25C876.438 103.25 878.062 104.875 878.062 107.125C878.062 109.375 876.438 111 874.188 111Z" fill="#2288FF"/>
</svg>
