<svg width="1012" height="277" viewBox="0 0 1012 277" fill="none" xmlns="http://www.w3.org/2000/svg">
<path opacity="0.4" d="M136 232.5C82.5 232.5 42 192 42 138.5C42 85 82.5 44.5 136 44.5C189.5 44.5 230 85 230 138.5C230 192 189.5 232.5 136 232.5ZM136 211.5C178 211.5 207.5 181.25 207.5 138.5C207.5 95.75 178 65.5 136 65.5C94 65.5 64.5 95.75 64.5 138.5C64.5 181.25 94 211.5 136 211.5Z" fill="#3385FF"/>
<circle opacity="0.25" cx="135.5" cy="138.5" r="94" fill="#FF6363"/>
<path d="M42.5 143.5V133.5" stroke="#FF6363" stroke-width="2" stroke-linecap="round"/>
<path d="M228.5 143.5V133.5" stroke="#FF6363" stroke-width="2" stroke-linecap="round"/>
<path d="M42.5044 138.5H228.504" stroke="#FF6363" stroke-width="2"/>
<rect x="108" y="127.5" width="55" height="22" rx="11" fill="#FF6363"/>
<path d="M116.872 135.393C117.651 134.914 118.438 134.333 119.251 133.602H120.974V143.5H119.251V135.625H119.21C118.431 136.247 117.638 136.801 116.872 137.197V135.393ZM127.071 143.691C124.665 143.691 123.154 141.709 123.161 138.551C123.154 135.393 124.665 133.41 127.071 133.41C129.484 133.41 130.995 135.393 130.995 138.551C130.995 141.709 129.484 143.691 127.071 143.691ZM127.071 142.064C128.432 142.071 129.272 140.731 129.272 138.551C129.272 136.37 128.432 135.03 127.071 135.037C125.718 135.03 124.877 136.37 124.884 138.551C124.877 140.731 125.718 142.071 127.071 142.064ZM136.19 143.691C133.784 143.691 132.273 141.709 132.28 138.551C132.273 135.393 133.784 133.41 136.19 133.41C138.604 133.41 140.114 135.393 140.114 138.551C140.114 141.709 138.604 143.691 136.19 143.691ZM136.19 142.064C137.551 142.071 138.392 140.731 138.392 138.551C138.392 136.37 137.551 135.03 136.19 135.037C134.837 135.03 133.996 136.37 134.003 138.551C133.996 140.731 134.837 142.071 136.19 142.064ZM143.997 138.797C142.493 138.797 141.358 137.655 141.358 136.145C141.358 134.634 142.493 133.492 143.997 133.492C145.494 133.492 146.629 134.634 146.622 136.145C146.629 137.655 145.494 138.797 143.997 138.797ZM143.997 137.457C144.701 137.457 145.214 136.917 145.214 136.145C145.214 135.372 144.701 134.832 143.997 134.832C143.279 134.832 142.773 135.372 142.767 136.145C142.773 136.917 143.279 137.457 143.997 137.457ZM143.792 143.5L150.136 133.602H151.858L145.515 143.5H143.792ZM151.667 143.609C150.17 143.609 149.035 142.468 149.028 140.957C149.035 139.446 150.17 138.305 151.667 138.305C153.171 138.305 154.306 139.446 154.292 140.957C154.306 142.468 153.171 143.609 151.667 143.609ZM151.667 142.27C152.378 142.27 152.891 141.729 152.884 140.957C152.891 140.185 152.378 139.645 151.667 139.645C150.956 139.645 150.45 140.185 150.437 140.957C150.45 141.729 150.956 142.27 151.667 142.27Z" fill="white"/>
<path opacity="0.4" d="M383 232.5C345.25 232.5 316.75 203.25 316.75 164.5C316.75 125.75 345.25 96.5 383 96.5C420.75 96.5 449.25 125.75 449.25 164.5C449.25 203.25 420.75 232.5 383 232.5ZM383 212.5C409.25 212.5 427.75 192.75 427.75 164.5C427.75 136.25 409.25 116.5 383 116.5C356.75 116.5 338.25 136.25 338.25 164.5C338.25 192.75 356.75 212.5 383 212.5Z" fill="#3385FF"/>
<circle opacity="0.25" cx="383" cy="164.5" r="68" fill="#FF6363"/>
<path d="M317.75 169.5V159.5" stroke="#FF6363" stroke-width="2" stroke-linecap="round"/>
<path d="M448.75 169.5V159.5" stroke="#FF6363" stroke-width="2" stroke-linecap="round"/>
<path d="M317.754 164.5H448.754" stroke="#FF6363" stroke-width="2"/>
<rect x="353.75" y="153.5" width="58" height="22" rx="11" fill="#FF6363"/>
<path d="M365.927 169.691C364.703 169.691 363.623 169.158 362.823 168.146L364.054 167.094C364.607 167.784 365.209 168.085 365.913 168.092C367.28 168.085 368.319 166.943 368.388 164.756H368.347C367.779 165.583 366.863 166.089 365.79 166.096C364.026 166.089 362.666 164.694 362.673 162.814C362.666 160.839 364.197 159.41 366.269 159.41C368.695 159.41 370.145 161.365 370.138 164.346C370.145 167.682 368.367 169.691 365.927 169.691ZM366.269 164.646C367.369 164.653 368.155 163.888 368.155 162.801C368.155 161.707 367.369 160.941 366.269 160.941C365.175 160.941 364.389 161.707 364.396 162.801C364.389 163.888 365.175 164.653 366.269 164.646ZM371.136 161.174V159.602H377.999V161.092C375.955 163.724 374.772 166.287 374.513 169.5H372.817C373.05 166.328 374.096 163.696 375.894 161.215V161.174H371.136ZM379.188 169.637C378.553 169.637 378.088 169.179 378.081 168.543C378.088 167.921 378.553 167.456 379.188 167.463C379.831 167.456 380.303 167.921 380.296 168.543C380.303 169.179 379.831 169.637 379.188 169.637ZM381.608 165.412L382.169 159.588H388.13V161.16H383.7L383.413 163.99H383.481C384.015 163.354 384.78 162.992 385.642 162.992C387.289 162.992 388.793 164.312 388.786 166.287C388.793 168.283 387.248 169.691 385.095 169.691C383.386 169.691 381.971 168.796 381.321 167.299L382.907 166.684C383.324 167.647 384.09 168.16 385.081 168.16C386.271 168.16 387.07 167.415 387.063 166.301C387.07 165.187 386.271 164.441 385.095 164.441C384.268 164.441 383.625 164.811 383.317 165.412H381.608ZM392.56 164.797C391.056 164.797 389.921 163.655 389.921 162.145C389.921 160.634 391.056 159.492 392.56 159.492C394.057 159.492 395.191 160.634 395.185 162.145C395.191 163.655 394.057 164.797 392.56 164.797ZM392.56 163.457C393.264 163.457 393.776 162.917 393.776 162.145C393.776 161.372 393.264 160.832 392.56 160.832C391.842 160.832 391.336 161.372 391.329 162.145C391.336 162.917 391.842 163.457 392.56 163.457ZM392.354 169.5L398.698 159.602H400.421L394.077 169.5H392.354ZM400.229 169.609C398.732 169.609 397.598 168.468 397.591 166.957C397.598 165.446 398.732 164.305 400.229 164.305C401.733 164.305 402.868 165.446 402.854 166.957C402.868 168.468 401.733 169.609 400.229 169.609ZM400.229 168.27C400.94 168.27 401.453 167.729 401.446 166.957C401.453 166.185 400.94 165.645 400.229 165.645C399.519 165.645 399.013 166.185 398.999 166.957C399.013 167.729 399.519 168.27 400.229 168.27Z" fill="white"/>
<path opacity="0.4" d="M658.5 232.5C604 232.5 563 192.25 563 138.5C563 84.75 604 44.5 658.5 44.5C713 44.5 754 84.75 754 138.5C754 192.25 713 232.5 658.5 232.5ZM658.5 183.5C683.75 183.5 702 164.75 702 138.5C702 112.25 683.75 93.5 658.5 93.5C633.25 93.5 615 112.25 615 138.5C615 164.75 633.25 183.5 658.5 183.5Z" fill="#3385FF"/>
<circle opacity="0.25" cx="658.5" cy="138.5" r="94" fill="#FF6363"/>
<path d="M564 143.5V133.5" stroke="#FF6363" stroke-width="2" stroke-linecap="round"/>
<path d="M753 143.5V133.5" stroke="#FF6363" stroke-width="2" stroke-linecap="round"/>
<path d="M564.004 138.5H753.004" stroke="#FF6363" stroke-width="2"/>
<rect x="626.5" y="127.5" width="65" height="22" rx="11" fill="#FF6363"/>
<path d="M635.696 135.393C636.476 134.914 637.262 134.333 638.075 133.602H639.798V143.5H638.075V135.625H638.034C637.255 136.247 636.462 136.801 635.696 137.197V135.393ZM645.896 143.691C643.489 143.691 641.979 141.709 641.985 138.551C641.979 135.393 643.489 133.41 645.896 133.41C648.309 133.41 649.819 135.393 649.819 138.551C649.819 141.709 648.309 143.691 645.896 143.691ZM645.896 142.064C647.256 142.071 648.097 140.731 648.097 138.551C648.097 136.37 647.256 135.03 645.896 135.037C644.542 135.03 643.701 136.37 643.708 138.551C643.701 140.731 644.542 142.071 645.896 142.064ZM651.241 135.393C652.021 134.914 652.807 134.333 653.62 133.602H655.343V143.5H653.62V135.625H653.579C652.8 136.247 652.007 136.801 651.241 137.197V135.393ZM658.802 143.637C658.166 143.637 657.701 143.179 657.694 142.543C657.701 141.921 658.166 141.456 658.802 141.463C659.444 141.456 659.916 141.921 659.909 142.543C659.916 143.179 659.444 143.637 658.802 143.637ZM661.222 139.412L661.782 133.588H667.743V135.16H663.313L663.026 137.99H663.095C663.628 137.354 664.394 136.992 665.255 136.992C666.902 136.992 668.406 138.312 668.399 140.287C668.406 142.283 666.861 143.691 664.708 143.691C662.999 143.691 661.584 142.796 660.935 141.299L662.521 140.684C662.938 141.647 663.703 142.16 664.694 142.16C665.884 142.16 666.684 141.415 666.677 140.301C666.684 139.187 665.884 138.441 664.708 138.441C663.881 138.441 663.238 138.811 662.931 139.412H661.222ZM672.173 138.797C670.669 138.797 669.534 137.655 669.534 136.145C669.534 134.634 670.669 133.492 672.173 133.492C673.67 133.492 674.805 134.634 674.798 136.145C674.805 137.655 673.67 138.797 672.173 138.797ZM672.173 137.457C672.877 137.457 673.39 136.917 673.39 136.145C673.39 135.372 672.877 134.832 672.173 134.832C671.455 134.832 670.949 135.372 670.942 136.145C670.949 136.917 671.455 137.457 672.173 137.457ZM671.968 143.5L678.312 133.602H680.034L673.69 143.5H671.968ZM679.843 143.609C678.346 143.609 677.211 142.468 677.204 140.957C677.211 139.446 678.346 138.305 679.843 138.305C681.347 138.305 682.481 139.446 682.468 140.957C682.481 142.468 681.347 143.609 679.843 143.609ZM679.843 142.27C680.554 142.27 681.066 141.729 681.06 140.957C681.066 140.185 680.554 139.645 679.843 139.645C679.132 139.645 678.626 140.185 678.612 140.957C678.626 141.729 679.132 142.27 679.843 142.27Z" fill="white"/>
<path opacity="0.4" d="M902 232.5C862.25 232.5 832.25 203.25 832.25 164.5C832.25 125.75 862.25 96.5 902 96.5C941.75 96.5 971.75 125.75 971.75 164.5C971.75 203.25 941.75 232.5 902 232.5ZM902 187.5C915.25 187.5 924.75 178 924.75 164.5C924.75 151 915.25 141.5 902 141.5C888.75 141.5 879.25 151 879.25 164.5C879.25 178 888.75 187.5 902 187.5Z" fill="#3385FF"/>
<circle opacity="0.25" cx="902" cy="164.5" r="68" fill="#FF6363"/>
<path d="M833.25 169.5V159.5" stroke="#FF6363" stroke-width="2" stroke-linecap="round"/>
<path d="M971.25 169.5V159.5" stroke="#FF6363" stroke-width="2" stroke-linecap="round"/>
<path d="M833.254 164.5H971.254" stroke="#FF6363" stroke-width="2"/>
<rect x="868.75" y="153.5" width="67" height="22" rx="11" fill="#FF6363"/>
<path d="M877.921 161.393C878.7 160.914 879.486 160.333 880.3 159.602H882.022V169.5H880.3V161.625H880.259C879.479 162.247 878.687 162.801 877.921 163.197V161.393ZM888.12 169.691C885.714 169.691 884.203 167.709 884.21 164.551C884.203 161.393 885.714 159.41 888.12 159.41C890.533 159.41 892.044 161.393 892.044 164.551C892.044 167.709 890.533 169.691 888.12 169.691ZM888.12 168.064C889.48 168.071 890.321 166.731 890.321 164.551C890.321 162.37 889.48 161.03 888.12 161.037C886.767 161.03 885.926 162.37 885.933 164.551C885.926 166.731 886.767 168.071 888.12 168.064ZM893.548 167.955C896.973 165.774 898.49 164.134 898.497 162.623C898.49 161.618 897.827 160.989 896.829 160.982C896.057 160.989 895.455 161.358 895.147 162.473L893.493 162.049C893.992 160.23 895.236 159.41 896.829 159.41C898.859 159.41 900.213 160.743 900.22 162.596C900.213 164.366 898.839 166.089 896.255 167.873V167.928H900.356V169.5H893.548V167.955ZM903.077 169.637C902.441 169.637 901.977 169.179 901.97 168.543C901.977 167.921 902.441 167.456 903.077 167.463C903.72 167.456 904.191 167.921 904.185 168.543C904.191 169.179 903.72 169.637 903.077 169.637ZM905.497 165.412L906.058 159.588H912.019V161.16H907.589L907.302 163.99H907.37C907.903 163.354 908.669 162.992 909.53 162.992C911.178 162.992 912.682 164.312 912.675 166.287C912.682 168.283 911.137 169.691 908.983 169.691C907.274 169.691 905.859 168.796 905.21 167.299L906.796 166.684C907.213 167.647 907.979 168.16 908.97 168.16C910.159 168.16 910.959 167.415 910.952 166.301C910.959 165.187 910.159 164.441 908.983 164.441C908.156 164.441 907.514 164.811 907.206 165.412H905.497ZM916.448 164.797C914.944 164.797 913.81 163.655 913.81 162.145C913.81 160.634 914.944 159.492 916.448 159.492C917.945 159.492 919.08 160.634 919.073 162.145C919.08 163.655 917.945 164.797 916.448 164.797ZM916.448 163.457C917.152 163.457 917.665 162.917 917.665 162.145C917.665 161.372 917.152 160.832 916.448 160.832C915.73 160.832 915.225 161.372 915.218 162.145C915.225 162.917 915.73 163.457 916.448 163.457ZM916.243 169.5L922.587 159.602H924.31L917.966 169.5H916.243ZM924.118 169.609C922.621 169.609 921.486 168.468 921.479 166.957C921.486 165.446 922.621 164.305 924.118 164.305C925.622 164.305 926.757 165.446 926.743 166.957C926.757 168.468 925.622 169.609 924.118 169.609ZM924.118 168.27C924.829 168.27 925.342 167.729 925.335 166.957C925.342 166.185 924.829 165.645 924.118 165.645C923.407 165.645 922.901 166.185 922.888 166.957C922.901 167.729 923.407 168.27 924.118 168.27Z" fill="white"/>
</svg>
